<?xml version="1.0" encoding="UTF-8" standalone="no"?>
<!DOCTYPE svg PUBLIC "-//W3C//DTD SVG 1.1//EN"
 "http://www.w3.org/Graphics/SVG/1.1/DTD/svg11.dtd">
<!-- Generated by graphviz version 2.38.0 (20140413.2041)
 -->
<!-- Title: AnimatePickup Pages: 1 -->
<svg width="265pt" height="215pt"
 viewBox="0.00 0.00 264.50 215.00" xmlns="http://www.w3.org/2000/svg" xmlns:xlink="http://www.w3.org/1999/xlink">
<g id="graph0" class="graph" transform="scale(1 1) rotate(0) translate(4 211)">
<title>AnimatePickup</title>
<!-- Node2 -->
<g id="node1" class="node"><title>Node2</title>
<polygon fill="#bfbfbf" stroke="black" points="100,-0.5 100,-68.5 183,-68.5 183,-0.5 100,-0.5"/>
<text text-anchor="middle" x="141.5" y="-56.5" font-family="Helvetica,sans-Serif" font-size="10.00">AnimatePickup</text>
<polyline fill="none" stroke="black" points="100,-49.5 183,-49.5 "/>
<text text-anchor="middle" x="141.5" y="-37.5" font-family="Helvetica,sans-Serif" font-size="10.00"> </text>
<polyline fill="none" stroke="black" points="100,-30.5 183,-30.5 "/>
<text text-anchor="start" x="108" y="-18.5" font-family="Helvetica,sans-Serif" font-size="10.00">&#45; Start()</text>
<text text-anchor="start" x="108" y="-7.5" font-family="Helvetica,sans-Serif" font-size="10.00">&#45; Update()</text>
</g>
<!-- Node3 -->
<g id="node2" class="node"><title>Node3</title>
<g id="a_node2"><a xlink:href="class_mono_behaviour.html" target="_top" xlink:title="{MonoBehaviour\n||}">
<polygon fill="none" stroke="black" points="0,-149.5 0,-206.5 83,-206.5 83,-149.5 0,-149.5"/>
<text text-anchor="middle" x="41.5" y="-194.5" font-family="Helvetica,sans-Serif" font-size="10.00">MonoBehaviour</text>
<polyline fill="none" stroke="black" points="0,-187.5 83,-187.5 "/>
<text text-anchor="middle" x="41.5" y="-175.5" font-family="Helvetica,sans-Serif" font-size="10.00"> </text>
<polyline fill="none" stroke="black" points="0,-168.5 83,-168.5 "/>
<text text-anchor="middle" x="41.5" y="-156.5" font-family="Helvetica,sans-Serif" font-size="10.00"> </text>
</a>
</g>
</g>
<!-- Node3&#45;&gt;Node2 -->
<g id="edge1" class="edge"><title>Node3&#45;&gt;Node2</title>
<path fill="none" stroke="midnightblue" d="M66.8339,-141.153C82.6162,-118.821 102.773,-90.2985 118.165,-68.5192"/>
<polygon fill="none" stroke="midnightblue" points="63.9315,-139.195 61.0184,-149.381 69.6481,-143.235 63.9315,-139.195"/>
</g>
<!-- Node4 -->
<g id="node3" class="node"><title>Node4</title>
<polygon fill="none" stroke="#bfbfbf" points="101.5,-149.5 101.5,-206.5 181.5,-206.5 181.5,-149.5 101.5,-149.5"/>
<text text-anchor="middle" x="141.5" y="-194.5" font-family="Helvetica,sans-Serif" font-size="10.00">RectTransform</text>
<polyline fill="none" stroke="#bfbfbf" points="101.5,-187.5 181.5,-187.5 "/>
<text text-anchor="middle" x="141.5" y="-175.5" font-family="Helvetica,sans-Serif" font-size="10.00"> </text>
<polyline fill="none" stroke="#bfbfbf" points="101.5,-168.5 181.5,-168.5 "/>
<text text-anchor="middle" x="141.5" y="-156.5" font-family="Helvetica,sans-Serif" font-size="10.00"> </text>
</g>
<!-- Node4&#45;&gt;Node2 -->
<g id="edge2" class="edge"><title>Node4&#45;&gt;Node2</title>
<path fill="none" stroke="#404040" d="M141.5,-149.381C141.5,-129.837 141.5,-103.193 141.5,-80.5898"/>
<polygon fill="none" stroke="#404040" points="141.5,-80.5192 137.5,-74.5192 141.5,-68.5192 145.5,-74.5192 141.5,-80.5192"/>
<text text-anchor="middle" x="155.5" y="-106.5" font-family="Helvetica,sans-Serif" font-size="10.00"> &#45;trans</text>
</g>
<!-- Node5 -->
<g id="node4" class="node"><title>Node5</title>
<polygon fill="none" stroke="#bfbfbf" points="200,-149.5 200,-206.5 235,-206.5 235,-149.5 200,-149.5"/>
<text text-anchor="middle" x="217.5" y="-194.5" font-family="Helvetica,sans-Serif" font-size="10.00">float</text>
<polyline fill="none" stroke="#bfbfbf" points="200,-187.5 235,-187.5 "/>
<text text-anchor="middle" x="217.5" y="-175.5" font-family="Helvetica,sans-Serif" font-size="10.00"> </text>
<polyline fill="none" stroke="#bfbfbf" points="200,-168.5 235,-168.5 "/>
<text text-anchor="middle" x="217.5" y="-156.5" font-family="Helvetica,sans-Serif" font-size="10.00"> </text>
</g>
<!-- Node5&#45;&gt;Node2 -->
<g id="edge3" class="edge"><title>Node5&#45;&gt;Node2</title>
<path fill="none" stroke="#404040" d="M204.921,-149.457C196.481,-131.45 184.867,-107.545 173.5,-87 172.103,-84.4743 170.637,-81.8987 169.135,-79.313"/>
<polygon fill="none" stroke="#404040" points="168.97,-79.0362 162.462,-75.9295 162.827,-68.7276 169.335,-71.8343 168.97,-79.0362"/>
<text text-anchor="middle" x="226.5" y="-123" font-family="Helvetica,sans-Serif" font-size="10.00"> &#45;squishScale</text>
<text text-anchor="middle" x="226.5" y="-112" font-family="Helvetica,sans-Serif" font-size="10.00">&#45;timer</text>
<text text-anchor="middle" x="226.5" y="-101" font-family="Helvetica,sans-Serif" font-size="10.00">+defaultScale</text>
<text text-anchor="middle" x="226.5" y="-90" font-family="Helvetica,sans-Serif" font-size="10.00">&#45;expandScale</text>
</g>
</g>
</svg>
