<?xml version="1.0" encoding="UTF-8" standalone="no"?>
<!DOCTYPE svg PUBLIC "-//W3C//DTD SVG 1.1//EN"
 "http://www.w3.org/Graphics/SVG/1.1/DTD/svg11.dtd">
<!-- Generated by graphviz version 2.38.0 (20140413.2041)
 -->
<!-- Title: MagicAttack Pages: 1 -->
<!--zoomable 1045 -->
<svg id="main" version="1.1" xmlns="http://www.w3.org/2000/svg" xmlns:xlink="http://www.w3.org/1999/xlink" xml:space="preserve" onload="init(evt)">
<style type="text/css"><![CDATA[
.edge:hover path { stroke: red; }
.edge:hover polygon { stroke: red; fill: red; }
]]></style>
<script type="text/javascript"><![CDATA[
var edges = document.getElementsByTagName('g');
if (edges && edges.length) {
  for (var i=0;i<edges.length;i++) {
    if (edges[i].id.substr(0,4)=='edge') {
      edges[i].setAttribute('class','edge');
    }
  }
}
]]></script>
        <defs>
                <circle id="rim" cx="0" cy="0" r="7"/>
                <circle id="rim2" cx="0" cy="0" r="3.5"/>
                <g id="zoomPlus">
                        <use xlink:href="#rim" fill="#404040">
                                <set attributeName="fill" to="#808080" begin="zoomplus.mouseover" end="zoomplus.mouseout"/>
                        </use>
                        <path d="M-4,0h8M0,-4v8" fill="none" stroke="white" stroke-width="1.5" pointer-events="none"/>
                </g>
                <g id="zoomMin">
                        <use xlink:href="#rim" fill="#404040">
                                <set attributeName="fill" to="#808080" begin="zoomminus.mouseover" end="zoomminus.mouseout"/>
                        </use>
                        <path d="M-4,0h8" fill="none" stroke="white" stroke-width="1.5" pointer-events="none"/>
                </g>
                <g id="dirArrow">
                        <path fill="none" stroke="white" stroke-width="1.5" d="M0,-3.0v7 M-2.5,-0.5L0,-3.0L2.5,-0.5"/>
                </g>
               <g id="resetDef">
                       <use xlink:href="#rim2" fill="#404040">
                               <set attributeName="fill" to="#808080" begin="reset.mouseover" end="reset.mouseout"/>
                       </use>
               </g>
        </defs>

<script type="text/javascript">
var viewWidth = 707;
var viewHeight = 1045;
var sectionId = 'dynsection-1';
</script>
<script xlink:href="svgpan.js"/>
<svg id="graph" class="graph">
<g id="viewport">
<title>MagicAttack</title>
<!-- Node3 -->
<g id="node1" class="node"><title>Node3</title>
<polygon fill="#bfbfbf" stroke="black" points="364,-590.5 364,-658.5 450,-658.5 450,-590.5 364,-590.5"/>
<text text-anchor="middle" x="407" y="-646.5" font-family="Helvetica,sans-Serif" font-size="10.00">MagicAttack</text>
<polyline fill="none" stroke="black" points="364,-639.5 450,-639.5 "/>
<text text-anchor="middle" x="407" y="-627.5" font-family="Helvetica,sans-Serif" font-size="10.00"> </text>
<polyline fill="none" stroke="black" points="364,-620.5 450,-620.5 "/>
<text text-anchor="start" x="372" y="-608.5" font-family="Helvetica,sans-Serif" font-size="10.00">+ MagicAttack()</text>
<text text-anchor="start" x="372" y="-597.5" font-family="Helvetica,sans-Serif" font-size="10.00">+ performMove()</text>
</g>
<!-- Node4 -->
<g id="node2" class="node"><title>Node4</title>
<g id="a_node2"><a xlink:href="class_special_move.html" target="_top" xlink:title="Special move abstract base class that expands upon CharacterMove, adding magic properties ...">
<polygon fill="none" stroke="black" points="203,-830.5 203,-920.5 301,-920.5 301,-830.5 203,-830.5"/>
<text text-anchor="middle" x="252" y="-908.5" font-family="Helvetica,sans-Serif" font-size="10.00">SpecialMove</text>
<polyline fill="none" stroke="black" points="203,-901.5 301,-901.5 "/>
<text text-anchor="start" x="211" y="-889.5" font-family="Helvetica,sans-Serif" font-size="10.00">+ Magic</text>
<text text-anchor="start" x="211" y="-878.5" font-family="Helvetica,sans-Serif" font-size="10.00">+ Desc</text>
<polyline fill="none" stroke="black" points="203,-871.5 301,-871.5 "/>
<text text-anchor="start" x="211" y="-859.5" font-family="Helvetica,sans-Serif" font-size="10.00">+ setUp()</text>
<text text-anchor="start" x="211" y="-848.5" font-family="Helvetica,sans-Serif" font-size="10.00">+ decreaseMagic()</text>
<text text-anchor="start" x="211" y="-837.5" font-family="Helvetica,sans-Serif" font-size="10.00"># SpecialMove()</text>
</a>
</g>
</g>
<!-- Node4&#45;&gt;Node3 -->
<g id="edge1" class="edge"><title>Node4&#45;&gt;Node3</title>
<path fill="none" stroke="midnightblue" d="M291.303,-821.919C293.605,-818.588 295.854,-815.263 298,-812 332.308,-759.827 368.097,-696.629 388.928,-658.816"/>
<polygon fill="none" stroke="midnightblue" points="288.383,-819.987 285.501,-830.182 294.112,-824.01 288.383,-819.987"/>
</g>
<!-- Node7 -->
<g id="node5" class="node"><title>Node7</title>
<g id="a_node5"><a xlink:href="class_character.html" target="_top" xlink:title="Base abstract class for Enemy and Player to inherit from. Defines all shared variables, their constructor and their setters and getters ">
<polygon fill="none" stroke="black" points="248.5,-535.5 248.5,-713.5 343.5,-713.5 343.5,-535.5 248.5,-535.5"/>
<text text-anchor="middle" x="296" y="-701.5" font-family="Helvetica,sans-Serif" font-size="10.00">Character</text>
<polyline fill="none" stroke="black" points="248.5,-694.5 343.5,-694.5 "/>
<text text-anchor="start" x="256.5" y="-682.5" font-family="Helvetica,sans-Serif" font-size="10.00">+ Name</text>
<text text-anchor="start" x="256.5" y="-671.5" font-family="Helvetica,sans-Serif" font-size="10.00">+ Level</text>
<text text-anchor="start" x="256.5" y="-660.5" font-family="Helvetica,sans-Serif" font-size="10.00">+ Health</text>
<text text-anchor="start" x="256.5" y="-649.5" font-family="Helvetica,sans-Serif" font-size="10.00">+ Attack</text>
<text text-anchor="start" x="256.5" y="-638.5" font-family="Helvetica,sans-Serif" font-size="10.00">+ Defence</text>
<text text-anchor="start" x="256.5" y="-627.5" font-family="Helvetica,sans-Serif" font-size="10.00">+ MaximumMagic</text>
<text text-anchor="start" x="256.5" y="-616.5" font-family="Helvetica,sans-Serif" font-size="10.00">+ Magic</text>
<text text-anchor="start" x="256.5" y="-605.5" font-family="Helvetica,sans-Serif" font-size="10.00">+ Luck</text>
<text text-anchor="start" x="256.5" y="-594.5" font-family="Helvetica,sans-Serif" font-size="10.00">+ Speed</text>
<text text-anchor="start" x="256.5" y="-583.5" font-family="Helvetica,sans-Serif" font-size="10.00">+ Special1</text>
<text text-anchor="start" x="256.5" y="-572.5" font-family="Helvetica,sans-Serif" font-size="10.00">+ Special2</text>
<text text-anchor="start" x="256.5" y="-561.5" font-family="Helvetica,sans-Serif" font-size="10.00">+ Image</text>
<polyline fill="none" stroke="black" points="248.5,-554.5 343.5,-554.5 "/>
<text text-anchor="start" x="256.5" y="-542.5" font-family="Helvetica,sans-Serif" font-size="10.00"># Character()</text>
</a>
</g>
</g>
<!-- Node4&#45;&gt;Node7 -->
<g id="edge7" class="edge"><title>Node4&#45;&gt;Node7</title>
<path fill="none" stroke="#404040" d="M248.08,-830.414C246.592,-802.04 246.564,-764.521 253,-732 253.431,-729.821 253.906,-727.63 254.421,-725.432"/>
<polygon fill="none" stroke="#404040" points="254.469,-725.247 252.126,-718.427 257.52,-713.641 259.863,-720.461 254.469,-725.247"/>
<text text-anchor="middle" x="275.5" y="-775" font-family="Helvetica,sans-Serif" font-size="10.00"> #special1</text>
<text text-anchor="middle" x="275.5" y="-764" font-family="Helvetica,sans-Serif" font-size="10.00">#special2</text>
</g>
<!-- Node5 -->
<g id="node3" class="node"><title>Node5</title>
<g id="a_node3"><a xlink:href="class_character_move.html" target="_top" xlink:title="Astract base class for character moves ">
<polygon fill="none" stroke="black" points="111,-0.5 111,-79.5 197,-79.5 197,-0.5 111,-0.5"/>
<text text-anchor="middle" x="154" y="-67.5" font-family="Helvetica,sans-Serif" font-size="10.00">CharacterMove</text>
<polyline fill="none" stroke="black" points="111,-60.5 197,-60.5 "/>
<text text-anchor="start" x="119" y="-48.5" font-family="Helvetica,sans-Serif" font-size="10.00">+ User</text>
<text text-anchor="start" x="119" y="-37.5" font-family="Helvetica,sans-Serif" font-size="10.00">+ Target</text>
<text text-anchor="start" x="119" y="-26.5" font-family="Helvetica,sans-Serif" font-size="10.00">+ Text</text>
<polyline fill="none" stroke="black" points="111,-19.5 197,-19.5 "/>
<text text-anchor="start" x="119" y="-7.5" font-family="Helvetica,sans-Serif" font-size="10.00">+ performMove()</text>
</a>
</g>
</g>
<!-- Node5&#45;&gt;Node4 -->
<g id="edge2" class="edge"><title>Node5&#45;&gt;Node4</title>
<path fill="none" stroke="midnightblue" d="M150.981,-89.5293C147.519,-147.797 142.058,-248.496 140,-335 139.767,-344.775 138.297,-347.372 140,-357 141.834,-367.367 202.458,-524.784 205,-535 208.529,-549.183 234.332,-741.618 246.135,-830.304"/>
<polygon fill="none" stroke="midnightblue" points="154.477,-89.6965 151.581,-79.5051 147.489,-89.2778 154.477,-89.6965"/>
</g>
<!-- Node6 -->
<g id="node4" class="node"><title>Node6</title>
<polygon fill="none" stroke="#bfbfbf" points="67.5,-979.5 67.5,-1036.5 108.5,-1036.5 108.5,-979.5 67.5,-979.5"/>
<text text-anchor="middle" x="88" y="-1024.5" font-family="Helvetica,sans-Serif" font-size="10.00">string</text>
<polyline fill="none" stroke="#bfbfbf" points="67.5,-1017.5 108.5,-1017.5 "/>
<text text-anchor="middle" x="88" y="-1005.5" font-family="Helvetica,sans-Serif" font-size="10.00"> </text>
<polyline fill="none" stroke="#bfbfbf" points="67.5,-998.5 108.5,-998.5 "/>
<text text-anchor="middle" x="88" y="-986.5" font-family="Helvetica,sans-Serif" font-size="10.00"> </text>
</g>
<!-- Node6&#45;&gt;Node4 -->
<g id="edge20" class="edge"><title>Node6&#45;&gt;Node4</title>
<path fill="none" stroke="#404040" d="M108.66,-991.388C120.281,-982.55 135.018,-971.247 148,-961 162.755,-949.354 178.556,-936.641 193.274,-924.696"/>
<polygon fill="none" stroke="#404040" points="193.457,-924.547 195.588,-917.658 202.767,-916.975 200.635,-923.864 193.457,-924.547"/>
<text text-anchor="middle" x="189" y="-947.5" font-family="Helvetica,sans-Serif" font-size="10.00"> #desc</text>
</g>
<!-- Node6&#45;&gt;Node5 -->
<g id="edge3" class="edge"><title>Node6&#45;&gt;Node5</title>
<path fill="none" stroke="#404040" d="M67.1452,-990.436C41.1224,-967.744 0,-924.321 0,-876.5 0,-876.5 0,-876.5 0,-221 0,-157.473 56.0682,-105.075 100.543,-73.5043"/>
<polygon fill="none" stroke="#404040" points="100.811,-73.3192 103.482,-66.6211 110.693,-66.5104 108.022,-73.2086 100.811,-73.3192"/>
<text text-anchor="middle" x="12.5" y="-509" font-family="Helvetica,sans-Serif" font-size="10.00"> #text</text>
</g>
<!-- Node6&#45;&gt;Node7 -->
<g id="edge5" class="edge"><title>Node6&#45;&gt;Node7</title>
<path fill="none" stroke="#404040" d="M108.706,-981.385C113.01,-975.027 117.109,-968.016 120,-961 142.518,-906.344 117.681,-883.416 143,-830 170.56,-771.855 199.761,-769.291 241.043,-716.174"/>
<polygon fill="none" stroke="#404040" points="241.145,-716.038 241.535,-708.837 248.331,-706.428 247.942,-713.628 241.145,-716.038"/>
<text text-anchor="middle" x="168.5" y="-878.5" font-family="Helvetica,sans-Serif" font-size="10.00"> #image_ref</text>
<text text-anchor="middle" x="168.5" y="-867.5" font-family="Helvetica,sans-Serif" font-size="10.00">#name</text>
</g>
<!-- Node9 -->
<g id="node7" class="node"><title>Node9</title>
<g id="a_node7"><a xlink:href="class_battle_manager.html" target="_top" xlink:title="Holds current Player and Enemy objects in battle and provides functions for MainBattle and other obje...">
<polygon fill="none" stroke="black" points="250,-127.5 250,-316.5 366,-316.5 366,-127.5 250,-127.5"/>
<text text-anchor="middle" x="308" y="-304.5" font-family="Helvetica,sans-Serif" font-size="10.00">BattleManager</text>
<polyline fill="none" stroke="black" points="250,-297.5 366,-297.5 "/>
<text text-anchor="start" x="258" y="-285.5" font-family="Helvetica,sans-Serif" font-size="10.00">+ Player</text>
<text text-anchor="start" x="258" y="-274.5" font-family="Helvetica,sans-Serif" font-size="10.00">+ Enemy</text>
<text text-anchor="start" x="258" y="-263.5" font-family="Helvetica,sans-Serif" font-size="10.00">+ WasCriticalHit</text>
<polyline fill="none" stroke="black" points="250,-256.5 366,-256.5 "/>
<text text-anchor="start" x="258" y="-244.5" font-family="Helvetica,sans-Serif" font-size="10.00">+ BattleManager()</text>
<text text-anchor="start" x="258" y="-233.5" font-family="Helvetica,sans-Serif" font-size="10.00">+ playerFirst()</text>
<text text-anchor="start" x="258" y="-222.5" font-family="Helvetica,sans-Serif" font-size="10.00">+ switchPlayers()</text>
<text text-anchor="start" x="258" y="-211.5" font-family="Helvetica,sans-Serif" font-size="10.00">+ isCriticalHit()</text>
<text text-anchor="start" x="258" y="-200.5" font-family="Helvetica,sans-Serif" font-size="10.00">+ ranAway()</text>
<text text-anchor="start" x="258" y="-189.5" font-family="Helvetica,sans-Serif" font-size="10.00">+ damageCalculation()</text>
<text text-anchor="start" x="258" y="-178.5" font-family="Helvetica,sans-Serif" font-size="10.00">+ enemyMove()</text>
<text text-anchor="start" x="258" y="-167.5" font-family="Helvetica,sans-Serif" font-size="10.00">+ enemySpecialMove()</text>
<text text-anchor="start" x="258" y="-156.5" font-family="Helvetica,sans-Serif" font-size="10.00">+ battleWon()</text>
<text text-anchor="start" x="258" y="-145.5" font-family="Helvetica,sans-Serif" font-size="10.00">+ playerFainted()</text>
<text text-anchor="start" x="258" y="-134.5" font-family="Helvetica,sans-Serif" font-size="10.00">&#45; characterFainted()</text>
</a>
</g>
</g>
<!-- Node6&#45;&gt;Node9 -->
<g id="edge9" class="edge"><title>Node6&#45;&gt;Node9</title>
<path fill="none" stroke="#404040" d="M78.4724,-979.392C54.4657,-905.507 -3.19526,-697.82 46,-535 78.9532,-425.936 174.165,-330.598 240.241,-274.891"/>
<polygon fill="none" stroke="#404040" points="240.544,-274.639 242.597,-267.727 249.768,-266.963 247.715,-273.876 240.544,-274.639"/>
<text text-anchor="middle" x="88" y="-627.5" font-family="Helvetica,sans-Serif" font-size="10.00"> +forceEnemyMove</text>
<text text-anchor="middle" x="88" y="-616.5" font-family="Helvetica,sans-Serif" font-size="10.00">+forceCriticalHits</text>
</g>
<!-- Node13 -->
<g id="node11" class="node"><title>Node13</title>
<g id="a_node11"><a xlink:href="class_item.html" target="_top" xlink:title="Abstract class for items that can be equipped to a player, increasing some of their stats ...">
<polygon fill="none" stroke="black" points="61.5,-732.5 61.5,-811.5 138.5,-811.5 138.5,-732.5 61.5,-732.5"/>
<text text-anchor="middle" x="100" y="-799.5" font-family="Helvetica,sans-Serif" font-size="10.00">Item</text>
<polyline fill="none" stroke="black" points="61.5,-792.5 138.5,-792.5 "/>
<text text-anchor="start" x="69.5" y="-780.5" font-family="Helvetica,sans-Serif" font-size="10.00">+ Name</text>
<text text-anchor="start" x="69.5" y="-769.5" font-family="Helvetica,sans-Serif" font-size="10.00">+ Desc</text>
<polyline fill="none" stroke="black" points="61.5,-762.5 138.5,-762.5 "/>
<text text-anchor="start" x="69.5" y="-750.5" font-family="Helvetica,sans-Serif" font-size="10.00">+ applyBuffs()</text>
<text text-anchor="start" x="69.5" y="-739.5" font-family="Helvetica,sans-Serif" font-size="10.00">+ revertBuffs()</text>
</a>
</g>
</g>
<!-- Node6&#45;&gt;Node13 -->
<g id="edge18" class="edge"><title>Node6&#45;&gt;Node13</title>
<path fill="none" stroke="#404040" d="M88.6244,-979.202C88.9509,-966.882 89.4078,-952.215 90,-939 91.7365,-900.253 94.4042,-856.46 96.5476,-823.587"/>
<polygon fill="none" stroke="#404040" points="96.5513,-823.53 92.9545,-817.28 97.3404,-811.556 100.937,-817.806 96.5513,-823.53"/>
<text text-anchor="middle" x="105" y="-953" font-family="Helvetica,sans-Serif" font-size="10.00"> #desc</text>
<text text-anchor="middle" x="105" y="-942" font-family="Helvetica,sans-Serif" font-size="10.00">#name</text>
</g>
<!-- Node7&#45;&gt;Node5 -->
<g id="edge4" class="edge"><title>Node7&#45;&gt;Node5</title>
<path fill="none" stroke="#404040" d="M248.391,-548.667C237.953,-529.501 227.955,-508.496 221,-488 174.06,-349.678 159.959,-176.175 155.758,-91.7872"/>
<polygon fill="none" stroke="#404040" points="155.756,-91.742 151.481,-85.9349 155.197,-79.755 159.472,-85.5621 155.756,-91.742"/>
<text text-anchor="middle" x="204" y="-349" font-family="Helvetica,sans-Serif" font-size="10.00"> #target</text>
<text text-anchor="middle" x="204" y="-338" font-family="Helvetica,sans-Serif" font-size="10.00">#user</text>
</g>
<!-- Node10 -->
<g id="node8" class="node"><title>Node10</title>
<g id="a_node8"><a xlink:href="class_enemy.html" target="_top" xlink:title="Defines an AI controller enemy to fight in battle scenes">
<polygon fill="none" stroke="black" points="584.5,-403 584.5,-460 651.5,-460 651.5,-403 584.5,-403"/>
<text text-anchor="middle" x="618" y="-448" font-family="Helvetica,sans-Serif" font-size="10.00">Enemy</text>
<polyline fill="none" stroke="black" points="584.5,-441 651.5,-441 "/>
<text text-anchor="start" x="592.5" y="-429" font-family="Helvetica,sans-Serif" font-size="10.00">+ ExpGiven</text>
<polyline fill="none" stroke="black" points="584.5,-422 651.5,-422 "/>
<text text-anchor="start" x="592.5" y="-410" font-family="Helvetica,sans-Serif" font-size="10.00">+ Enemy()</text>
</a>
</g>
</g>
<!-- Node7&#45;&gt;Node10 -->
<g id="edge11" class="edge"><title>Node7&#45;&gt;Node10</title>
<path fill="none" stroke="midnightblue" d="M351.405,-538.021C352.587,-536.984 353.786,-535.976 355,-535 425.462,-478.345 530.965,-450.113 584.402,-438.762"/>
<polygon fill="none" stroke="midnightblue" points="348.656,-535.807 343.842,-545.246 353.491,-540.869 348.656,-535.807"/>
</g>
<!-- Node12 -->
<g id="node10" class="node"><title>Node12</title>
<g id="a_node10"><a xlink:href="class_player.html" target="_top" xlink:title="Defines a playable character for use in battle scenes">
<polygon fill="none" stroke="black" points="284,-375.5 284,-487.5 396,-487.5 396,-375.5 284,-375.5"/>
<text text-anchor="middle" x="340" y="-475.5" font-family="Helvetica,sans-Serif" font-size="10.00">Player</text>
<polyline fill="none" stroke="black" points="284,-468.5 396,-468.5 "/>
<text text-anchor="start" x="292" y="-456.5" font-family="Helvetica,sans-Serif" font-size="10.00">+ Exp</text>
<text text-anchor="start" x="292" y="-445.5" font-family="Helvetica,sans-Serif" font-size="10.00">+ Item</text>
<text text-anchor="start" x="292" y="-434.5" font-family="Helvetica,sans-Serif" font-size="10.00">+ ExpToNextLevel</text>
<polyline fill="none" stroke="black" points="284,-427.5 396,-427.5 "/>
<text text-anchor="start" x="292" y="-415.5" font-family="Helvetica,sans-Serif" font-size="10.00">+ Player()</text>
<text text-anchor="start" x="292" y="-404.5" font-family="Helvetica,sans-Serif" font-size="10.00">+ gainExp()</text>
<text text-anchor="start" x="292" y="-393.5" font-family="Helvetica,sans-Serif" font-size="10.00">+ levelUp()</text>
<text text-anchor="start" x="292" y="-382.5" font-family="Helvetica,sans-Serif" font-size="10.00">&#45; setExpToNextLevel()</text>
</a>
</g>
</g>
<!-- Node7&#45;&gt;Node12 -->
<g id="edge16" class="edge"><title>Node7&#45;&gt;Node12</title>
<path fill="none" stroke="midnightblue" d="M318.608,-525.362C321.593,-512.403 324.563,-499.509 327.299,-487.635"/>
<polygon fill="none" stroke="midnightblue" points="315.16,-524.738 316.326,-535.268 321.981,-526.309 315.16,-524.738"/>
</g>
<!-- Node8 -->
<g id="node6" class="node"><title>Node8</title>
<polygon fill="none" stroke="#bfbfbf" points="463.5,-979.5 463.5,-1036.5 492.5,-1036.5 492.5,-979.5 463.5,-979.5"/>
<text text-anchor="middle" x="478" y="-1024.5" font-family="Helvetica,sans-Serif" font-size="10.00">int</text>
<polyline fill="none" stroke="#bfbfbf" points="463.5,-1017.5 492.5,-1017.5 "/>
<text text-anchor="middle" x="478" y="-1005.5" font-family="Helvetica,sans-Serif" font-size="10.00"> </text>
<polyline fill="none" stroke="#bfbfbf" points="463.5,-998.5 492.5,-998.5 "/>
<text text-anchor="middle" x="478" y="-986.5" font-family="Helvetica,sans-Serif" font-size="10.00"> </text>
</g>
<!-- Node8&#45;&gt;Node3 -->
<g id="edge22" class="edge"><title>Node8&#45;&gt;Node3</title>
<path fill="none" stroke="#404040" d="M472.837,-979.256C460.705,-914.072 430.293,-750.657 415.435,-670.821"/>
<polygon fill="none" stroke="#404040" points="415.384,-670.551 410.354,-665.384 413.189,-658.753 418.219,-663.92 415.384,-670.551"/>
<text text-anchor="middle" x="478" y="-873" font-family="Helvetica,sans-Serif" font-size="10.00"> &#45;power</text>
</g>
<!-- Node8&#45;&gt;Node4 -->
<g id="edge21" class="edge"><title>Node8&#45;&gt;Node4</title>
<path fill="none" stroke="#404040" d="M463.445,-1007.63C428.803,-1008.35 340.441,-1005.42 288,-961 278.969,-953.35 272.149,-943.034 267.017,-932.24"/>
<polygon fill="none" stroke="#404040" points="266.905,-931.974 260.893,-927.991 262.257,-920.91 268.269,-924.893 266.905,-931.974"/>
<text text-anchor="middle" x="305.5" y="-947.5" font-family="Helvetica,sans-Serif" font-size="10.00"> #magic</text>
</g>
<!-- Node8&#45;&gt;Node7 -->
<g id="edge6" class="edge"><title>Node8&#45;&gt;Node7</title>
<path fill="none" stroke="#404040" d="M463.308,-999.724C439.439,-987.116 392.449,-958.884 368,-921 330.364,-862.684 312.395,-786.349 303.819,-725.873"/>
<polygon fill="none" stroke="#404040" points="303.77,-725.504 299.009,-720.088 302.177,-713.61 306.938,-719.026 303.77,-725.504"/>
<text text-anchor="middle" x="405.5" y="-911.5" font-family="Helvetica,sans-Serif" font-size="10.00"> #speed</text>
<text text-anchor="middle" x="405.5" y="-900.5" font-family="Helvetica,sans-Serif" font-size="10.00">#luck</text>
<text text-anchor="middle" x="405.5" y="-889.5" font-family="Helvetica,sans-Serif" font-size="10.00">#health</text>
<text text-anchor="middle" x="405.5" y="-878.5" font-family="Helvetica,sans-Serif" font-size="10.00">#magic</text>
<text text-anchor="middle" x="405.5" y="-867.5" font-family="Helvetica,sans-Serif" font-size="10.00">#maximumMagic</text>
<text text-anchor="middle" x="405.5" y="-856.5" font-family="Helvetica,sans-Serif" font-size="10.00">#attack</text>
<text text-anchor="middle" x="405.5" y="-845.5" font-family="Helvetica,sans-Serif" font-size="10.00">#defence</text>
<text text-anchor="middle" x="405.5" y="-834.5" font-family="Helvetica,sans-Serif" font-size="10.00">#level</text>
</g>
<!-- Node8&#45;&gt;Node9 -->
<g id="edge13" class="edge"><title>Node8&#45;&gt;Node9</title>
<path fill="none" stroke="#404040" d="M492.641,-984.073C496.93,-976.848 501.423,-968.732 505,-961 548.819,-866.275 575.192,-834.771 557,-732 529.219,-575.056 436.869,-412.893 372.806,-314.979"/>
<polygon fill="none" stroke="#404040" points="372.719,-314.847 366.077,-312.039 366.115,-304.828 372.757,-307.636 372.719,-314.847"/>
<text text-anchor="middle" x="572.5" y="-622" font-family="Helvetica,sans-Serif" font-size="10.00"> +money</text>
</g>
<!-- Node8&#45;&gt;Node10 -->
<g id="edge12" class="edge"><title>Node8&#45;&gt;Node10</title>
<path fill="none" stroke="#404040" d="M492.768,-1005.46C516.673,-1002.1 563.345,-991.75 585,-961 692.27,-808.68 650.388,-566.335 628.273,-471.944"/>
<polygon fill="none" stroke="#404040" points="628.242,-471.812 622.947,-466.917 625.43,-460.146 630.724,-465.042 628.242,-471.812"/>
<text text-anchor="middle" x="676" y="-769.5" font-family="Helvetica,sans-Serif" font-size="10.00"> &#45;expGiven</text>
</g>
<!-- Node8&#45;&gt;Node12 -->
<g id="edge19" class="edge"><title>Node8&#45;&gt;Node12</title>
<path fill="none" stroke="#404040" d="M484.495,-979.295C488.089,-962.529 492.187,-940.659 494,-921 497.715,-880.726 505.72,-868.709 494,-830 491.214,-820.798 485.165,-821.079 482,-812 441.336,-695.35 515.09,-645.067 459,-535 446.816,-511.091 426.413,-490.416 405.911,-474.023"/>
<polygon fill="none" stroke="#404040" points="405.712,-473.87 398.517,-473.388 396.195,-466.561 403.39,-467.043 405.712,-473.87"/>
<text text-anchor="middle" x="519.5" y="-775" font-family="Helvetica,sans-Serif" font-size="10.00"> &#45;expToNextLevel</text>
<text text-anchor="middle" x="519.5" y="-764" font-family="Helvetica,sans-Serif" font-size="10.00">&#45;exp</text>
</g>
<!-- Node9&#45;&gt;Node5 -->
<g id="edge8" class="edge"><title>Node9&#45;&gt;Node5</title>
<path fill="none" stroke="#404040" d="M249.774,-149.624C235.604,-132.578 220.384,-114.535 206,-98 203.406,-95.0187 200.72,-91.9675 197.997,-88.9023"/>
<polygon fill="none" stroke="#404040" points="197.778,-88.6584 190.796,-86.8579 189.772,-79.7198 196.755,-81.5203 197.778,-88.6584"/>
<text text-anchor="middle" x="238" y="-101" font-family="Helvetica,sans-Serif" font-size="10.00"> #manager</text>
</g>
<!-- Node10&#45;&gt;Node9 -->
<g id="edge10" class="edge"><title>Node10&#45;&gt;Node9</title>
<path fill="none" stroke="#404040" d="M609.81,-402.601C602.4,-381.62 589.604,-353.429 570,-335 515.993,-284.23 435.448,-254.522 377.934,-238.614"/>
<polygon fill="none" stroke="#404040" points="377.62,-238.53 370.79,-240.842 366.028,-235.427 372.859,-233.115 377.62,-238.53"/>
<text text-anchor="middle" x="604" y="-343.5" font-family="Helvetica,sans-Serif" font-size="10.00"> &#45;enemy</text>
</g>
<!-- Node11 -->
<g id="node9" class="node"><title>Node11</title>
<polygon fill="none" stroke="#bfbfbf" points="230.5,-403 230.5,-460 265.5,-460 265.5,-403 230.5,-403"/>
<text text-anchor="middle" x="248" y="-448" font-family="Helvetica,sans-Serif" font-size="10.00">bool</text>
<polyline fill="none" stroke="#bfbfbf" points="230.5,-441 265.5,-441 "/>
<text text-anchor="middle" x="248" y="-429" font-family="Helvetica,sans-Serif" font-size="10.00"> </text>
<polyline fill="none" stroke="#bfbfbf" points="230.5,-422 265.5,-422 "/>
<text text-anchor="middle" x="248" y="-410" font-family="Helvetica,sans-Serif" font-size="10.00"> </text>
</g>
<!-- Node11&#45;&gt;Node9 -->
<g id="edge14" class="edge"><title>Node11&#45;&gt;Node9</title>
<path fill="none" stroke="#404040" d="M247.772,-402.898C248.225,-383.588 250.074,-357.355 256,-335 256.608,-332.708 257.26,-330.404 257.952,-328.095"/>
<polygon fill="none" stroke="#404040" points="258.004,-327.936 256.057,-320.992 261.718,-316.525 263.664,-323.468 258.004,-327.936"/>
<text text-anchor="middle" x="289" y="-343.5" font-family="Helvetica,sans-Serif" font-size="10.00"> &#45;wasCriticalHit</text>
</g>
<!-- Node12&#45;&gt;Node9 -->
<g id="edge15" class="edge"><title>Node12&#45;&gt;Node9</title>
<path fill="none" stroke="#404040" d="M331.509,-375.439C329.295,-361.087 326.834,-345.128 324.362,-329.095"/>
<polygon fill="none" stroke="#404040" points="324.301,-328.704 319.434,-323.384 322.472,-316.845 327.34,-322.165 324.301,-328.704"/>
<text text-anchor="middle" x="344.5" y="-343.5" font-family="Helvetica,sans-Serif" font-size="10.00"> &#45;player</text>
</g>
<!-- Node13&#45;&gt;Node12 -->
<g id="edge17" class="edge"><title>Node13&#45;&gt;Node12</title>
<path fill="none" stroke="#404040" d="M123.847,-732.405C127.371,-726.313 130.866,-720.033 134,-714 174.167,-636.67 160.347,-603.663 214,-535 234.857,-508.308 247.7,-509.348 274,-488 274.203,-487.835 274.407,-487.669 274.611,-487.504"/>
<polygon fill="none" stroke="#404040" points="274.655,-487.468 276.764,-480.572 283.941,-479.867 281.832,-486.763 274.655,-487.468"/>
<text text-anchor="middle" x="226.5" y="-622" font-family="Helvetica,sans-Serif" font-size="10.00"> &#45;item</text>
</g>
</g>
</svg>
        <g id="navigator" transform="translate(0 0)" fill="#404254">
                <rect fill="#f2f5e9" fill-opacity="0.5" stroke="#606060" stroke-width=".5" x="0" y="0" width="60" height="60"/>
                <use id="zoomplus" xlink:href="#zoomPlus" x="17" y="9" onmousedown="handleZoom(evt,'in')"/>
                <use id="zoomminus" xlink:href="#zoomMin" x="42" y="9" onmousedown="handleZoom(evt,'out')"/>
                <use id="reset" xlink:href="#resetDef" x="30" y="36" onmousedown="handleReset()"/>
                <g id="arrowUp" xlink:href="#dirArrow" transform="translate(30 24)" onmousedown="handlePan(0,-1)">
                  <use xlink:href="#rim" fill="#404040">
                        <set attributeName="fill" to="#808080" begin="arrowUp.mouseover" end="arrowUp.mouseout"/>
                  </use>
                  <path fill="none" stroke="white" stroke-width="1.5" d="M0,-3.0v7 M-2.5,-0.5L0,-3.0L2.5,-0.5"/>
                </g>
                <g id="arrowRight" xlink:href="#dirArrow" transform="rotate(90) translate(36 -43)" onmousedown="handlePan(1,0)">
                  <use xlink:href="#rim" fill="#404040">
                        <set attributeName="fill" to="#808080" begin="arrowRight.mouseover" end="arrowRight.mouseout"/>
                  </use>
                  <path fill="none" stroke="white" stroke-width="1.5" d="M0,-3.0v7 M-2.5,-0.5L0,-3.0L2.5,-0.5"/>
                </g>
                <g id="arrowDown" xlink:href="#dirArrow" transform="rotate(180) translate(-30 -48)" onmousedown="handlePan(0,1)">
                  <use xlink:href="#rim" fill="#404040">
                        <set attributeName="fill" to="#808080" begin="arrowDown.mouseover" end="arrowDown.mouseout"/>
                  </use>
                  <path fill="none" stroke="white" stroke-width="1.5" d="M0,-3.0v7 M-2.5,-0.5L0,-3.0L2.5,-0.5"/>
                </g>
                <g id="arrowLeft" xlink:href="#dirArrow" transform="rotate(270) translate(-36 17)" onmousedown="handlePan(-1,0)">
                  <use xlink:href="#rim" fill="#404040">
                        <set attributeName="fill" to="#808080" begin="arrowLeft.mouseover" end="arrowLeft.mouseout"/>
                  </use>
                  <path fill="none" stroke="white" stroke-width="1.5" d="M0,-3.0v7 M-2.5,-0.5L0,-3.0L2.5,-0.5"/>
                </g>
        </g>
        <svg viewBox="0 0 15 15" width="100%" height="30px" preserveAspectRatio="xMaxYMin meet">
         <g id="arrow_out" transform="scale(0.3 0.3)">
          <a xlink:href="class_magic_attack__coll__graph_org.svg" target="_base">
           <rect id="button" ry="5" rx="5" y="6" x="6" height="38" width="38"
                fill="#f2f5e9" fill-opacity="0.5" stroke="#606060" stroke-width="1.0"/>
           <path id="arrow"
             d="M 11.500037,31.436501 C 11.940474,20.09759 22.043105,11.32322 32.158766,21.979434 L 37.068811,17.246167 C 37.068811,17.246167 37.088388,32 37.088388,32 L 22.160133,31.978069 C 22.160133,31.978069 26.997745,27.140456 26.997745,27.140456 C 18.528582,18.264221 13.291696,25.230495 11.500037,31.436501 z"
             style="fill:#404040;"/>
          </a>
         </g>
        </svg>
</svg>
