<?xml version="1.0" encoding="UTF-8" standalone="no"?>
<!DOCTYPE svg PUBLIC "-//W3C//DTD SVG 1.1//EN"
 "http://www.w3.org/Graphics/SVG/1.1/DTD/svg11.dtd">
<!-- Generated by graphviz version 2.38.0 (20140413.2041)
 -->
<!-- Title: GameEvents Pages: 1 -->
<!--zoomable 419 -->
<svg id="main" version="1.1" xmlns="http://www.w3.org/2000/svg" xmlns:xlink="http://www.w3.org/1999/xlink" xml:space="preserve" onload="init(evt)">
<style type="text/css"><![CDATA[
.edge:hover path { stroke: red; }
.edge:hover polygon { stroke: red; fill: red; }
]]></style>
<script type="text/javascript"><![CDATA[
var edges = document.getElementsByTagName('g');
if (edges && edges.length) {
  for (var i=0;i<edges.length;i++) {
    if (edges[i].id.substr(0,4)=='edge') {
      edges[i].setAttribute('class','edge');
    }
  }
}
]]></script>
        <defs>
                <circle id="rim" cx="0" cy="0" r="7"/>
                <circle id="rim2" cx="0" cy="0" r="3.5"/>
                <g id="zoomPlus">
                        <use xlink:href="#rim" fill="#404040">
                                <set attributeName="fill" to="#808080" begin="zoomplus.mouseover" end="zoomplus.mouseout"/>
                        </use>
                        <path d="M-4,0h8M0,-4v8" fill="none" stroke="white" stroke-width="1.5" pointer-events="none"/>
                </g>
                <g id="zoomMin">
                        <use xlink:href="#rim" fill="#404040">
                                <set attributeName="fill" to="#808080" begin="zoomminus.mouseover" end="zoomminus.mouseout"/>
                        </use>
                        <path d="M-4,0h8" fill="none" stroke="white" stroke-width="1.5" pointer-events="none"/>
                </g>
                <g id="dirArrow">
                        <path fill="none" stroke="white" stroke-width="1.5" d="M0,-3.0v7 M-2.5,-0.5L0,-3.0L2.5,-0.5"/>
                </g>
               <g id="resetDef">
                       <use xlink:href="#rim2" fill="#404040">
                               <set attributeName="fill" to="#808080" begin="reset.mouseover" end="reset.mouseout"/>
                       </use>
               </g>
        </defs>

<script type="text/javascript">
var viewWidth = 1603;
var viewHeight = 419;
var sectionId = 'dynsection-0';
</script>
<script xlink:href="svgpan.js"/>
<svg id="graph" class="graph">
<g id="viewport">
<title>GameEvents</title>
<!-- Node1 -->
<g id="node1" class="node"><title>Node1</title>
<polygon fill="#bfbfbf" stroke="black" points="729,-0.5 729,-68.5 842,-68.5 842,-0.5 729,-0.5"/>
<text text-anchor="middle" x="785.5" y="-56.5" font-family="Helvetica,sans-Serif" font-size="10.00">GameEvents</text>
<polyline fill="none" stroke="black" points="729,-49.5 842,-49.5 "/>
<text text-anchor="start" x="737" y="-37.5" font-family="Helvetica,sans-Serif" font-size="10.00">+ MinigameGameOver</text>
<text text-anchor="start" x="737" y="-26.5" font-family="Helvetica,sans-Serif" font-size="10.00">+ BeatGame</text>
<polyline fill="none" stroke="black" points="729,-19.5 842,-19.5 "/>
<text text-anchor="middle" x="785.5" y="-7.5" font-family="Helvetica,sans-Serif" font-size="10.00"> </text>
</g>
<!-- Node2 -->
<g id="node2" class="node"><title>Node2</title>
<g id="a_node2"><a xlink:href="class_game_events_1_1_game_event.html" target="_top" xlink:title="{GameEvents.GameEvent\l\&lt; IntChangedArgs \&gt;\n||+ signal()\l}">
<polygon fill="none" stroke="black" points="0,-226.5 0,-294.5 125,-294.5 125,-226.5 0,-226.5"/>
<text text-anchor="start" x="8" y="-282.5" font-family="Helvetica,sans-Serif" font-size="10.00">GameEvents.GameEvent</text>
<text text-anchor="middle" x="62.5" y="-271.5" font-family="Helvetica,sans-Serif" font-size="10.00">&lt; IntChangedArgs &gt;</text>
<polyline fill="none" stroke="black" points="0,-264.5 125,-264.5 "/>
<text text-anchor="middle" x="62.5" y="-252.5" font-family="Helvetica,sans-Serif" font-size="10.00"> </text>
<polyline fill="none" stroke="black" points="0,-245.5 125,-245.5 "/>
<text text-anchor="start" x="8" y="-233.5" font-family="Helvetica,sans-Serif" font-size="10.00">+ signal()</text>
</a>
</g>
</g>
<!-- Node2&#45;&gt;Node1 -->
<g id="edge1" class="edge"><title>Node2&#45;&gt;Node1</title>
<path fill="none" stroke="#404040" d="M65.5279,-226.241C71.1214,-186.062 86.9473,-119.788 131.5,-87 177.802,-52.9245 557.886,-40.5643 716.443,-36.8622"/>
<polygon fill="none" stroke="#404040" points="716.829,-36.8535 722.736,-32.7179 728.826,-36.5802 722.919,-40.7158 716.829,-36.8535"/>
<text text-anchor="middle" x="170" y="-145" font-family="Helvetica,sans-Serif" font-size="10.00"> +MoneyChanged</text>
</g>
<!-- Node3 -->
<g id="node3" class="node"><title>Node3</title>
<g id="a_node3"><a xlink:href="class_game_events_1_1_game_event.html" target="_top" xlink:title="GameEvent class which allows signalling of the event from outside this class ">
<polygon fill="none" stroke="black" points="723,-342.5 723,-410.5 848,-410.5 848,-342.5 723,-342.5"/>
<text text-anchor="start" x="731" y="-398.5" font-family="Helvetica,sans-Serif" font-size="10.00">GameEvents.GameEvent</text>
<text text-anchor="middle" x="785.5" y="-387.5" font-family="Helvetica,sans-Serif" font-size="10.00">&lt; TGameEventArgs &gt;</text>
<polyline fill="none" stroke="black" points="723,-380.5 848,-380.5 "/>
<text text-anchor="middle" x="785.5" y="-368.5" font-family="Helvetica,sans-Serif" font-size="10.00"> </text>
<polyline fill="none" stroke="black" points="723,-361.5 848,-361.5 "/>
<text text-anchor="start" x="731" y="-349.5" font-family="Helvetica,sans-Serif" font-size="10.00">+ signal()</text>
</a>
</g>
</g>
<!-- Node3&#45;&gt;Node2 -->
<g id="edge2" class="edge"><title>Node3&#45;&gt;Node2</title>
<path fill="none" stroke="orange" d="M712.767,-372.068C578.04,-365.221 294.715,-348.396 199.5,-324 173.415,-317.316 146.143,-305.894 122.862,-294.627"/>
<polygon fill="orange" stroke="orange" points="712.825,-375.575 722.989,-372.583 713.177,-368.584 712.825,-375.575"/>
<text text-anchor="middle" x="245" y="-316" font-family="Helvetica,sans-Serif" font-size="10.00"> &lt; IntChangedArgs &gt;</text>
</g>
<!-- Node4 -->
<g id="node4" class="node"><title>Node4</title>
<g id="a_node4"><a xlink:href="class_game_events_1_1_game_event.html" target="_top" xlink:title="{GameEvents.GameEvent\l\&lt; InteractionArgs \&gt;\n||+ signal()\l}">
<polygon fill="none" stroke="black" points="143,-226.5 143,-294.5 268,-294.5 268,-226.5 143,-226.5"/>
<text text-anchor="start" x="151" y="-282.5" font-family="Helvetica,sans-Serif" font-size="10.00">GameEvents.GameEvent</text>
<text text-anchor="middle" x="205.5" y="-271.5" font-family="Helvetica,sans-Serif" font-size="10.00">&lt; InteractionArgs &gt;</text>
<polyline fill="none" stroke="black" points="143,-264.5 268,-264.5 "/>
<text text-anchor="middle" x="205.5" y="-252.5" font-family="Helvetica,sans-Serif" font-size="10.00"> </text>
<polyline fill="none" stroke="black" points="143,-245.5 268,-245.5 "/>
<text text-anchor="start" x="151" y="-233.5" font-family="Helvetica,sans-Serif" font-size="10.00">+ signal()</text>
</a>
</g>
</g>
<!-- Node3&#45;&gt;Node4 -->
<g id="edge4" class="edge"><title>Node3&#45;&gt;Node4</title>
<path fill="none" stroke="orange" d="M712.469,-376.032C619.359,-374.776 454.394,-366.015 320.5,-324 298.385,-317.061 275.637,-305.729 256.27,-294.607"/>
<polygon fill="orange" stroke="orange" points="712.595,-379.533 722.632,-376.143 712.671,-372.534 712.595,-379.533"/>
<text text-anchor="middle" x="364" y="-316" font-family="Helvetica,sans-Serif" font-size="10.00"> &lt; InteractionArgs &gt;</text>
</g>
<!-- Node5 -->
<g id="node5" class="node"><title>Node5</title>
<g id="a_node5"><a xlink:href="class_game_events_1_1_game_event.html" target="_top" xlink:title="{GameEvents.GameEvent\l\&lt; BattleEndedEventArgs \&gt;\n||+ signal()\l}">
<polygon fill="none" stroke="black" points="286.5,-226.5 286.5,-294.5 418.5,-294.5 418.5,-226.5 286.5,-226.5"/>
<text text-anchor="start" x="294.5" y="-282.5" font-family="Helvetica,sans-Serif" font-size="10.00">GameEvents.GameEvent</text>
<text text-anchor="middle" x="352.5" y="-271.5" font-family="Helvetica,sans-Serif" font-size="10.00">&lt; BattleEndedEventArgs &gt;</text>
<polyline fill="none" stroke="black" points="286.5,-264.5 418.5,-264.5 "/>
<text text-anchor="middle" x="352.5" y="-252.5" font-family="Helvetica,sans-Serif" font-size="10.00"> </text>
<polyline fill="none" stroke="black" points="286.5,-245.5 418.5,-245.5 "/>
<text text-anchor="start" x="294.5" y="-233.5" font-family="Helvetica,sans-Serif" font-size="10.00">+ signal()</text>
</a>
</g>
</g>
<!-- Node3&#45;&gt;Node5 -->
<g id="edge6" class="edge"><title>Node3&#45;&gt;Node5</title>
<path fill="none" stroke="orange" d="M712.856,-369.58C623.894,-361.54 478.936,-345.648 429.5,-324 413.571,-317.025 398.225,-305.825 385.482,-294.82"/>
<polygon fill="orange" stroke="orange" points="712.612,-373.072 722.883,-370.475 713.234,-366.1 712.612,-373.072"/>
<text text-anchor="middle" x="489" y="-316" font-family="Helvetica,sans-Serif" font-size="10.00"> &lt; BattleEndedEventArgs &gt;</text>
</g>
<!-- Node6 -->
<g id="node6" class="node"><title>Node6</title>
<g id="a_node6"><a xlink:href="class_game_events_1_1_game_event.html" target="_top" xlink:title="{GameEvents.GameEvent\l\&lt; CharacterEventArgs \&gt;\n||+ signal()\l}">
<polygon fill="none" stroke="black" points="437,-226.5 437,-294.5 562,-294.5 562,-226.5 437,-226.5"/>
<text text-anchor="start" x="445" y="-282.5" font-family="Helvetica,sans-Serif" font-size="10.00">GameEvents.GameEvent</text>
<text text-anchor="middle" x="499.5" y="-271.5" font-family="Helvetica,sans-Serif" font-size="10.00">&lt; CharacterEventArgs &gt;</text>
<polyline fill="none" stroke="black" points="437,-264.5 562,-264.5 "/>
<text text-anchor="middle" x="499.5" y="-252.5" font-family="Helvetica,sans-Serif" font-size="10.00"> </text>
<polyline fill="none" stroke="black" points="437,-245.5 562,-245.5 "/>
<text text-anchor="start" x="445" y="-233.5" font-family="Helvetica,sans-Serif" font-size="10.00">+ signal()</text>
</a>
</g>
</g>
<!-- Node3&#45;&gt;Node6 -->
<g id="edge8" class="edge"><title>Node3&#45;&gt;Node6</title>
<path fill="none" stroke="orange" d="M712.659,-367.276C669.219,-360.194 614.038,-347.269 569.5,-324 555.204,-316.531 541.497,-305.492 530.061,-294.761"/>
<polygon fill="orange" stroke="orange" points="712.166,-370.741 722.586,-368.827 713.246,-363.825 712.166,-370.741"/>
<text text-anchor="middle" x="623.5" y="-316" font-family="Helvetica,sans-Serif" font-size="10.00"> &lt; CharacterEventArgs &gt;</text>
</g>
<!-- Node7 -->
<g id="node7" class="node"><title>Node7</title>
<g id="a_node7"><a xlink:href="class_game_events_1_1_game_event.html" target="_top" xlink:title="{GameEvents.GameEvent\l\&lt; BattleMoveArgs \&gt;\n||+ signal()\l}">
<polygon fill="none" stroke="black" points="580,-226.5 580,-294.5 705,-294.5 705,-226.5 580,-226.5"/>
<text text-anchor="start" x="588" y="-282.5" font-family="Helvetica,sans-Serif" font-size="10.00">GameEvents.GameEvent</text>
<text text-anchor="middle" x="642.5" y="-271.5" font-family="Helvetica,sans-Serif" font-size="10.00">&lt; BattleMoveArgs &gt;</text>
<polyline fill="none" stroke="black" points="580,-264.5 705,-264.5 "/>
<text text-anchor="middle" x="642.5" y="-252.5" font-family="Helvetica,sans-Serif" font-size="10.00"> </text>
<polyline fill="none" stroke="black" points="580,-245.5 705,-245.5 "/>
<text text-anchor="start" x="588" y="-233.5" font-family="Helvetica,sans-Serif" font-size="10.00">+ signal()</text>
</a>
</g>
</g>
<!-- Node3&#45;&gt;Node7 -->
<g id="edge10" class="edge"><title>Node3&#45;&gt;Node7</title>
<path fill="none" stroke="orange" d="M714.25,-340.571C706.252,-335.472 698.482,-329.923 691.5,-324 681.512,-315.526 672.189,-304.735 664.413,-294.512"/>
<polygon fill="orange" stroke="orange" points="712.636,-343.687 722.992,-345.925 716.292,-337.717 712.636,-343.687"/>
<text text-anchor="middle" x="736.5" y="-316" font-family="Helvetica,sans-Serif" font-size="10.00"> &lt; BattleMoveArgs &gt;</text>
</g>
<!-- Node8 -->
<g id="node8" class="node"><title>Node8</title>
<g id="a_node8"><a xlink:href="class_game_events_1_1_game_event.html" target="_top" xlink:title="{GameEvents.GameEvent\l\&lt; GameEventArgs \&gt;\n||+ signal()\l}">
<polygon fill="none" stroke="black" points="723,-226.5 723,-294.5 848,-294.5 848,-226.5 723,-226.5"/>
<text text-anchor="start" x="731" y="-282.5" font-family="Helvetica,sans-Serif" font-size="10.00">GameEvents.GameEvent</text>
<text text-anchor="middle" x="785.5" y="-271.5" font-family="Helvetica,sans-Serif" font-size="10.00">&lt; GameEventArgs &gt;</text>
<polyline fill="none" stroke="black" points="723,-264.5 848,-264.5 "/>
<text text-anchor="middle" x="785.5" y="-252.5" font-family="Helvetica,sans-Serif" font-size="10.00"> </text>
<polyline fill="none" stroke="black" points="723,-245.5 848,-245.5 "/>
<text text-anchor="start" x="731" y="-233.5" font-family="Helvetica,sans-Serif" font-size="10.00">+ signal()</text>
</a>
</g>
</g>
<!-- Node3&#45;&gt;Node8 -->
<g id="edge12" class="edge"><title>Node3&#45;&gt;Node8</title>
<path fill="none" stroke="orange" d="M785.5,-332.06C785.5,-319.644 785.5,-306.316 785.5,-294.624"/>
<polygon fill="orange" stroke="orange" points="782,-332.22 785.5,-342.22 789,-332.22 782,-332.22"/>
<text text-anchor="middle" x="831.5" y="-316" font-family="Helvetica,sans-Serif" font-size="10.00"> &lt; GameEventArgs &gt;</text>
</g>
<!-- Node9 -->
<g id="node9" class="node"><title>Node9</title>
<g id="a_node9"><a xlink:href="class_game_events_1_1_game_event.html" target="_top" xlink:title="{GameEvents.GameEvent\l\&lt; BattleEventArgs \&gt;\n||+ signal()\l}">
<polygon fill="none" stroke="black" points="866,-226.5 866,-294.5 991,-294.5 991,-226.5 866,-226.5"/>
<text text-anchor="start" x="874" y="-282.5" font-family="Helvetica,sans-Serif" font-size="10.00">GameEvents.GameEvent</text>
<text text-anchor="middle" x="928.5" y="-271.5" font-family="Helvetica,sans-Serif" font-size="10.00">&lt; BattleEventArgs &gt;</text>
<polyline fill="none" stroke="black" points="866,-264.5 991,-264.5 "/>
<text text-anchor="middle" x="928.5" y="-252.5" font-family="Helvetica,sans-Serif" font-size="10.00"> </text>
<polyline fill="none" stroke="black" points="866,-245.5 991,-245.5 "/>
<text text-anchor="start" x="874" y="-233.5" font-family="Helvetica,sans-Serif" font-size="10.00">+ signal()</text>
</a>
</g>
</g>
<!-- Node3&#45;&gt;Node9 -->
<g id="edge14" class="edge"><title>Node3&#45;&gt;Node9</title>
<path fill="none" stroke="orange" d="M856.946,-341.752C865.604,-336.361 874.018,-330.42 881.5,-324 891.288,-315.601 900.284,-304.828 907.727,-294.601"/>
<polygon fill="orange" stroke="orange" points="855.023,-338.823 848.232,-346.956 858.612,-344.833 855.023,-338.823"/>
<text text-anchor="middle" x="938" y="-316" font-family="Helvetica,sans-Serif" font-size="10.00"> &lt; BattleEventArgs &gt;</text>
</g>
<!-- Node10 -->
<g id="node10" class="node"><title>Node10</title>
<g id="a_node10"><a xlink:href="class_game_events_1_1_game_event.html" target="_top" xlink:title="{GameEvents.GameEvent\l\&lt; BattleStartedEventArgs \&gt;\n||+ signal()\l}">
<polygon fill="none" stroke="black" points="1009.5,-226.5 1009.5,-294.5 1145.5,-294.5 1145.5,-226.5 1009.5,-226.5"/>
<text text-anchor="start" x="1017.5" y="-282.5" font-family="Helvetica,sans-Serif" font-size="10.00">GameEvents.GameEvent</text>
<text text-anchor="middle" x="1077.5" y="-271.5" font-family="Helvetica,sans-Serif" font-size="10.00">&lt; BattleStartedEventArgs &gt;</text>
<polyline fill="none" stroke="black" points="1009.5,-264.5 1145.5,-264.5 "/>
<text text-anchor="middle" x="1077.5" y="-252.5" font-family="Helvetica,sans-Serif" font-size="10.00"> </text>
<polyline fill="none" stroke="black" points="1009.5,-245.5 1145.5,-245.5 "/>
<text text-anchor="start" x="1017.5" y="-233.5" font-family="Helvetica,sans-Serif" font-size="10.00">+ signal()</text>
</a>
</g>
</g>
<!-- Node3&#45;&gt;Node10 -->
<g id="edge16" class="edge"><title>Node3&#45;&gt;Node10</title>
<path fill="none" stroke="orange" d="M858.492,-363.447C897.859,-355.343 946.614,-342.667 987.5,-324 1004.46,-316.257 1021.62,-305.283 1036.35,-294.687"/>
<polygon fill="orange" stroke="orange" points="857.554,-360.065 848.436,-365.46 858.928,-366.929 857.554,-360.065"/>
<text text-anchor="middle" x="1068" y="-316" font-family="Helvetica,sans-Serif" font-size="10.00"> &lt; BattleStartedEventArgs &gt;</text>
</g>
<!-- Node11 -->
<g id="node11" class="node"><title>Node11</title>
<g id="a_node11"><a xlink:href="class_game_events_1_1_game_event.html" target="_top" xlink:title="{GameEvents.GameEvent\l\&lt; SceneChangedEventArgs \&gt;\n||+ signal()\l}">
<polygon fill="none" stroke="black" points="1164,-226.5 1164,-294.5 1309,-294.5 1309,-226.5 1164,-226.5"/>
<text text-anchor="start" x="1172" y="-282.5" font-family="Helvetica,sans-Serif" font-size="10.00">GameEvents.GameEvent</text>
<text text-anchor="middle" x="1236.5" y="-271.5" font-family="Helvetica,sans-Serif" font-size="10.00">&lt; SceneChangedEventArgs &gt;</text>
<polyline fill="none" stroke="black" points="1164,-264.5 1309,-264.5 "/>
<text text-anchor="middle" x="1236.5" y="-252.5" font-family="Helvetica,sans-Serif" font-size="10.00"> </text>
<polyline fill="none" stroke="black" points="1164,-245.5 1309,-245.5 "/>
<text text-anchor="start" x="1172" y="-233.5" font-family="Helvetica,sans-Serif" font-size="10.00">+ signal()</text>
</a>
</g>
</g>
<!-- Node3&#45;&gt;Node11 -->
<g id="edge18" class="edge"><title>Node3&#45;&gt;Node11</title>
<path fill="none" stroke="orange" d="M858.594,-373.088C930.461,-368.789 1042.33,-356.885 1133.5,-324 1153.37,-316.832 1173.6,-305.592 1190.8,-294.608"/>
<polygon fill="orange" stroke="orange" points="858.075,-369.612 848.288,-373.669 858.469,-376.6 858.075,-369.612"/>
<text text-anchor="middle" x="1224.5" y="-316" font-family="Helvetica,sans-Serif" font-size="10.00"> &lt; SceneChangedEventArgs &gt;</text>
</g>
<!-- Node12 -->
<g id="node12" class="node"><title>Node12</title>
<g id="a_node12"><a xlink:href="class_game_events_1_1_game_event.html" target="_top" xlink:title="{GameEvents.GameEvent\l\&lt; BeatLevelArgs \&gt;\n||+ signal()\l}">
<polygon fill="none" stroke="black" points="1327,-226.5 1327,-294.5 1452,-294.5 1452,-226.5 1327,-226.5"/>
<text text-anchor="start" x="1335" y="-282.5" font-family="Helvetica,sans-Serif" font-size="10.00">GameEvents.GameEvent</text>
<text text-anchor="middle" x="1389.5" y="-271.5" font-family="Helvetica,sans-Serif" font-size="10.00">&lt; BeatLevelArgs &gt;</text>
<polyline fill="none" stroke="black" points="1327,-264.5 1452,-264.5 "/>
<text text-anchor="middle" x="1389.5" y="-252.5" font-family="Helvetica,sans-Serif" font-size="10.00"> </text>
<polyline fill="none" stroke="black" points="1327,-245.5 1452,-245.5 "/>
<text text-anchor="start" x="1335" y="-233.5" font-family="Helvetica,sans-Serif" font-size="10.00">+ signal()</text>
</a>
</g>
</g>
<!-- Node3&#45;&gt;Node12 -->
<g id="edge20" class="edge"><title>Node3&#45;&gt;Node12</title>
<path fill="none" stroke="orange" d="M858.408,-372.402C979.375,-366.55 1216.02,-351.881 1294.5,-324 1313.48,-317.259 1332.41,-305.967 1348.33,-294.822"/>
<polygon fill="orange" stroke="orange" points="857.954,-368.92 848.132,-372.892 858.287,-375.912 857.954,-368.92"/>
<text text-anchor="middle" x="1359.5" y="-316" font-family="Helvetica,sans-Serif" font-size="10.00"> &lt; BeatLevelArgs &gt;</text>
</g>
<!-- Node13 -->
<g id="node13" class="node"><title>Node13</title>
<g id="a_node13"><a xlink:href="class_game_events_1_1_game_event.html" target="_top" xlink:title="{GameEvents.GameEvent\l\&lt; ItemEventArgs \&gt;\n||+ signal()\l}">
<polygon fill="none" stroke="black" points="1470,-226.5 1470,-294.5 1595,-294.5 1595,-226.5 1470,-226.5"/>
<text text-anchor="start" x="1478" y="-282.5" font-family="Helvetica,sans-Serif" font-size="10.00">GameEvents.GameEvent</text>
<text text-anchor="middle" x="1532.5" y="-271.5" font-family="Helvetica,sans-Serif" font-size="10.00">&lt; ItemEventArgs &gt;</text>
<polyline fill="none" stroke="black" points="1470,-264.5 1595,-264.5 "/>
<text text-anchor="middle" x="1532.5" y="-252.5" font-family="Helvetica,sans-Serif" font-size="10.00"> </text>
<polyline fill="none" stroke="black" points="1470,-245.5 1595,-245.5 "/>
<text text-anchor="start" x="1478" y="-233.5" font-family="Helvetica,sans-Serif" font-size="10.00">+ signal()</text>
</a>
</g>
</g>
<!-- Node3&#45;&gt;Node13 -->
<g id="edge22" class="edge"><title>Node3&#45;&gt;Node13</title>
<path fill="none" stroke="orange" d="M858.375,-372.854C999.33,-367.177 1304.33,-352.011 1405.5,-324 1429.89,-317.246 1455.22,-305.81 1476.77,-294.552"/>
<polygon fill="orange" stroke="orange" points="857.96,-369.368 848.107,-373.263 858.238,-376.362 857.96,-369.368"/>
<text text-anchor="middle" x="1478" y="-316" font-family="Helvetica,sans-Serif" font-size="10.00"> &lt; ItemEventArgs &gt;</text>
</g>
<!-- Node4&#45;&gt;Node1 -->
<g id="edge3" class="edge"><title>Node4&#45;&gt;Node1</title>
<path fill="none" stroke="#404040" d="M208.446,-226.413C213.919,-186.409 229.476,-120.313 273.5,-87 308.093,-60.8234 584.935,-44.7217 716.509,-38.4758"/>
<polygon fill="none" stroke="#404040" points="716.789,-38.4628 722.596,-34.1868 728.776,-37.9021 722.969,-42.1781 716.789,-38.4628"/>
<text text-anchor="middle" x="316.5" y="-150.5" font-family="Helvetica,sans-Serif" font-size="10.00"> +InteractionStarted</text>
<text text-anchor="middle" x="316.5" y="-139.5" font-family="Helvetica,sans-Serif" font-size="10.00">+InteractionEnded</text>
</g>
<!-- Node5&#45;&gt;Node1 -->
<g id="edge5" class="edge"><title>Node5&#45;&gt;Node1</title>
<path fill="none" stroke="#404040" d="M357.734,-226.254C365.876,-186.408 385.592,-120.794 430.5,-87 474.447,-53.9294 626.749,-41.9773 716.962,-37.7449"/>
<polygon fill="none" stroke="#404040" points="717.004,-37.7431 722.82,-33.48 728.992,-37.2089 723.176,-41.472 717.004,-37.7431"/>
<text text-anchor="middle" x="466.5" y="-156" font-family="Helvetica,sans-Serif" font-size="10.00"> +BattleWon</text>
<text text-anchor="middle" x="466.5" y="-145" font-family="Helvetica,sans-Serif" font-size="10.00">+RanFromBattle</text>
<text text-anchor="middle" x="466.5" y="-134" font-family="Helvetica,sans-Serif" font-size="10.00">+GameOver</text>
</g>
<!-- Node6&#45;&gt;Node1 -->
<g id="edge7" class="edge"><title>Node6&#45;&gt;Node1</title>
<path fill="none" stroke="#404040" d="M502.938,-226.314C508.805,-187.154 524.435,-122.848 565.5,-87 587.904,-67.443 660.945,-52.9864 716.78,-44.449"/>
<polygon fill="none" stroke="#404040" points="716.897,-44.4317 722.243,-39.5922 728.767,-42.6656 723.421,-47.5051 716.897,-44.4317"/>
<text text-anchor="middle" x="602" y="-150.5" font-family="Helvetica,sans-Serif" font-size="10.00"> +LevelUp</text>
<text text-anchor="middle" x="602" y="-139.5" font-family="Helvetica,sans-Serif" font-size="10.00">+ObtainedPlayer</text>
</g>
<!-- Node7&#45;&gt;Node1 -->
<g id="edge9" class="edge"><title>Node7&#45;&gt;Node1</title>
<path fill="none" stroke="#404040" d="M641.359,-226.383C641.774,-188.763 647.846,-127.375 679.5,-87 689.459,-74.2976 703.346,-64.5333 717.795,-57.1026"/>
<polygon fill="none" stroke="#404040" points="718.045,-56.9849 721.765,-50.8074 728.898,-51.8652 725.178,-58.0427 718.045,-56.9849"/>
<text text-anchor="middle" x="730.5" y="-145" font-family="Helvetica,sans-Serif" font-size="10.00"> +BattleMovePerformed</text>
</g>
<!-- Node8&#45;&gt;Node1 -->
<g id="edge11" class="edge"><title>Node8&#45;&gt;Node1</title>
<path fill="none" stroke="#404040" d="M785.5,-226.448C785.5,-187.902 785.5,-123.972 785.5,-80.8161"/>
<polygon fill="none" stroke="#404040" points="785.5,-80.6876 781.5,-74.6876 785.5,-68.6876 789.5,-74.6875 785.5,-80.6876"/>
<text text-anchor="middle" x="842.5" y="-200" font-family="Helvetica,sans-Serif" font-size="10.00"> +OpenedParty</text>
<text text-anchor="middle" x="842.5" y="-189" font-family="Helvetica,sans-Serif" font-size="10.00">+OpenedQuests</text>
<text text-anchor="middle" x="842.5" y="-178" font-family="Helvetica,sans-Serif" font-size="10.00">+OpenedInventory</text>
<text text-anchor="middle" x="842.5" y="-167" font-family="Helvetica,sans-Serif" font-size="10.00">+OpenedShop</text>
<text text-anchor="middle" x="842.5" y="-156" font-family="Helvetica,sans-Serif" font-size="10.00">+MinigameEnemyKilled</text>
<text text-anchor="middle" x="842.5" y="-145" font-family="Helvetica,sans-Serif" font-size="10.00">+RandomEncounter</text>
<text text-anchor="middle" x="842.5" y="-134" font-family="Helvetica,sans-Serif" font-size="10.00">+ExitedToMainMenu</text>
<text text-anchor="middle" x="842.5" y="-123" font-family="Helvetica,sans-Serif" font-size="10.00">+MinigameStarted</text>
<text text-anchor="middle" x="842.5" y="-112" font-family="Helvetica,sans-Serif" font-size="10.00">+UsedHealingStation</text>
<text text-anchor="middle" x="842.5" y="-101" font-family="Helvetica,sans-Serif" font-size="10.00">+MinigameWaveComplete</text>
<text text-anchor="middle" x="842.5" y="-90" font-family="Helvetica,sans-Serif" font-size="10.00">...</text>
</g>
<!-- Node9&#45;&gt;Node1 -->
<g id="edge13" class="edge"><title>Node9&#45;&gt;Node1</title>
<path fill="none" stroke="#404040" d="M932.624,-226.356C935.456,-188.713 934.24,-127.302 903.5,-87 891.037,-70.66 872.306,-59.4141 853.417,-51.711"/>
<polygon fill="none" stroke="#404040" points="853.255,-51.6507 846.237,-53.3073 842.008,-47.4661 849.026,-45.8095 853.255,-51.6507"/>
<text text-anchor="middle" x="969.5" y="-145" font-family="Helvetica,sans-Serif" font-size="10.00"> +PlayerFainted</text>
</g>
<!-- Node10&#45;&gt;Node1 -->
<g id="edge15" class="edge"><title>Node10&#45;&gt;Node1</title>
<path fill="none" stroke="#404040" d="M1073.47,-226.259C1066.9,-187.045 1050.13,-122.685 1008.5,-87 985.523,-67.3056 910.938,-52.8149 854.295,-44.3081"/>
<polygon fill="none" stroke="#404040" points="854.018,-44.2676 847.502,-47.358 842.144,-42.5325 848.659,-39.4421 854.018,-44.2676"/>
<text text-anchor="middle" x="1104" y="-145" font-family="Helvetica,sans-Serif" font-size="10.00"> +BattleStarted</text>
</g>
<!-- Node11&#45;&gt;Node1 -->
<g id="edge17" class="edge"><title>Node11&#45;&gt;Node1</title>
<path fill="none" stroke="#404040" d="M1228.04,-226.433C1215.96,-186.45 1189.71,-120.375 1141.5,-87 1096.22,-55.6499 944.32,-43.0519 854.229,-38.2483"/>
<polygon fill="none" stroke="#404040" points="854.199,-38.2468 848.002,-41.9353 842.214,-37.6342 848.411,-33.9457 854.199,-38.2468"/>
<text text-anchor="middle" x="1259.5" y="-145" font-family="Helvetica,sans-Serif" font-size="10.00"> +SceneChanged</text>
</g>
<!-- Node12&#45;&gt;Node1 -->
<g id="edge19" class="edge"><title>Node12&#45;&gt;Node1</title>
<path fill="none" stroke="#404040" d="M1382.63,-226.154C1372.42,-185.886 1349.11,-119.521 1301.5,-87 1265.36,-62.3113 986.341,-45.4125 854.32,-38.7159"/>
<polygon fill="none" stroke="#404040" points="854.001,-38.7 847.808,-42.3949 842.016,-38.0998 848.208,-34.4049 854.001,-38.7"/>
<text text-anchor="middle" x="1402.5" y="-145" font-family="Helvetica,sans-Serif" font-size="10.00"> +BeatLevel</text>
</g>
<!-- Node13&#45;&gt;Node1 -->
<g id="edge21" class="edge"><title>Node13&#45;&gt;Node1</title>
<path fill="none" stroke="#404040" d="M1523.53,-226.226C1510.7,-185.705 1482.87,-118.749 1432.5,-87 1384.47,-56.725 1011.06,-42.1997 854.358,-37.3899"/>
<polygon fill="none" stroke="#404040" points="854.11,-37.3825 847.992,-41.1997 842.115,-37.0204 848.233,-33.2033 854.11,-37.3825"/>
<text text-anchor="middle" x="1550" y="-172.5" font-family="Helvetica,sans-Serif" font-size="10.00"> +ObtainedItem</text>
<text text-anchor="middle" x="1550" y="-161.5" font-family="Helvetica,sans-Serif" font-size="10.00">+WonItem</text>
<text text-anchor="middle" x="1550" y="-150.5" font-family="Helvetica,sans-Serif" font-size="10.00">+RemovedItem</text>
<text text-anchor="middle" x="1550" y="-139.5" font-family="Helvetica,sans-Serif" font-size="10.00">+SellItem</text>
<text text-anchor="middle" x="1550" y="-128.5" font-family="Helvetica,sans-Serif" font-size="10.00">+BuyItem</text>
<text text-anchor="middle" x="1550" y="-117.5" font-family="Helvetica,sans-Serif" font-size="10.00">+FoundItem</text>
</g>
</g>
</svg>
        <g id="navigator" transform="translate(0 0)" fill="#404254">
                <rect fill="#f2f5e9" fill-opacity="0.5" stroke="#606060" stroke-width=".5" x="0" y="0" width="60" height="60"/>
                <use id="zoomplus" xlink:href="#zoomPlus" x="17" y="9" onmousedown="handleZoom(evt,'in')"/>
                <use id="zoomminus" xlink:href="#zoomMin" x="42" y="9" onmousedown="handleZoom(evt,'out')"/>
                <use id="reset" xlink:href="#resetDef" x="30" y="36" onmousedown="handleReset()"/>
                <g id="arrowUp" xlink:href="#dirArrow" transform="translate(30 24)" onmousedown="handlePan(0,-1)">
                  <use xlink:href="#rim" fill="#404040">
                        <set attributeName="fill" to="#808080" begin="arrowUp.mouseover" end="arrowUp.mouseout"/>
                  </use>
                  <path fill="none" stroke="white" stroke-width="1.5" d="M0,-3.0v7 M-2.5,-0.5L0,-3.0L2.5,-0.5"/>
                </g>
                <g id="arrowRight" xlink:href="#dirArrow" transform="rotate(90) translate(36 -43)" onmousedown="handlePan(1,0)">
                  <use xlink:href="#rim" fill="#404040">
                        <set attributeName="fill" to="#808080" begin="arrowRight.mouseover" end="arrowRight.mouseout"/>
                  </use>
                  <path fill="none" stroke="white" stroke-width="1.5" d="M0,-3.0v7 M-2.5,-0.5L0,-3.0L2.5,-0.5"/>
                </g>
                <g id="arrowDown" xlink:href="#dirArrow" transform="rotate(180) translate(-30 -48)" onmousedown="handlePan(0,1)">
                  <use xlink:href="#rim" fill="#404040">
                        <set attributeName="fill" to="#808080" begin="arrowDown.mouseover" end="arrowDown.mouseout"/>
                  </use>
                  <path fill="none" stroke="white" stroke-width="1.5" d="M0,-3.0v7 M-2.5,-0.5L0,-3.0L2.5,-0.5"/>
                </g>
                <g id="arrowLeft" xlink:href="#dirArrow" transform="rotate(270) translate(-36 17)" onmousedown="handlePan(-1,0)">
                  <use xlink:href="#rim" fill="#404040">
                        <set attributeName="fill" to="#808080" begin="arrowLeft.mouseover" end="arrowLeft.mouseout"/>
                  </use>
                  <path fill="none" stroke="white" stroke-width="1.5" d="M0,-3.0v7 M-2.5,-0.5L0,-3.0L2.5,-0.5"/>
                </g>
        </g>
        <svg viewBox="0 0 15 15" width="100%" height="30px" preserveAspectRatio="xMaxYMin meet">
         <g id="arrow_out" transform="scale(0.3 0.3)">
          <a xlink:href="class_game_events__coll__graph_org.svg" target="_base">
           <rect id="button" ry="5" rx="5" y="6" x="6" height="38" width="38"
                fill="#f2f5e9" fill-opacity="0.5" stroke="#606060" stroke-width="1.0"/>
           <path id="arrow"
             d="M 11.500037,31.436501 C 11.940474,20.09759 22.043105,11.32322 32.158766,21.979434 L 37.068811,17.246167 C 37.068811,17.246167 37.088388,32 37.088388,32 L 22.160133,31.978069 C 22.160133,31.978069 26.997745,27.140456 26.997745,27.140456 C 18.528582,18.264221 13.291696,25.230495 11.500037,31.436501 z"
             style="fill:#404040;"/>
          </a>
         </g>
        </svg>
</svg>
