<?xml version="1.0" encoding="UTF-8" standalone="no"?>
<!DOCTYPE svg PUBLIC "-//W3C//DTD SVG 1.1//EN"
 "http://www.w3.org/Graphics/SVG/1.1/DTD/svg11.dtd">
<!-- Generated by graphviz version 2.38.0 (20140413.2041)
 -->
<!-- Title: DataManager.StoredData.RaiseAttack Pages: 1 -->
<svg width="185pt" height="298pt"
 viewBox="0.00 0.00 184.50 298.00" xmlns="http://www.w3.org/2000/svg" xmlns:xlink="http://www.w3.org/1999/xlink">
<g id="graph0" class="graph" transform="scale(1 1) rotate(0) translate(4 294)">
<title>DataManager.StoredData.RaiseAttack</title>
<!-- Node2 -->
<g id="node1" class="node"><title>Node2</title>
<polygon fill="#bfbfbf" stroke="black" points="22.5,-0.5 22.5,-68.5 176.5,-68.5 176.5,-0.5 22.5,-0.5"/>
<text text-anchor="start" x="30.5" y="-56.5" font-family="Helvetica,sans-Serif" font-size="10.00">DataManager.StoredData.Raise</text>
<text text-anchor="middle" x="99.5" y="-45.5" font-family="Helvetica,sans-Serif" font-size="10.00">Attack</text>
<polyline fill="none" stroke="black" points="22.5,-38.5 176.5,-38.5 "/>
<text text-anchor="middle" x="99.5" y="-26.5" font-family="Helvetica,sans-Serif" font-size="10.00"> </text>
<polyline fill="none" stroke="black" points="22.5,-19.5 176.5,-19.5 "/>
<text text-anchor="middle" x="99.5" y="-7.5" font-family="Helvetica,sans-Serif" font-size="10.00"> </text>
</g>
<!-- Node3 -->
<g id="node2" class="node"><title>Node3</title>
<g id="a_node2"><a xlink:href="class_data_manager_1_1_stored_data_1_1_special_move.html" target="_top" xlink:title="{SpecialMove\n||}">
<polygon fill="none" stroke="black" points="11,-116.5 11,-173.5 82,-173.5 82,-116.5 11,-116.5"/>
<text text-anchor="middle" x="46.5" y="-161.5" font-family="Helvetica,sans-Serif" font-size="10.00">SpecialMove</text>
<polyline fill="none" stroke="black" points="11,-154.5 82,-154.5 "/>
<text text-anchor="middle" x="46.5" y="-142.5" font-family="Helvetica,sans-Serif" font-size="10.00"> </text>
<polyline fill="none" stroke="black" points="11,-135.5 82,-135.5 "/>
<text text-anchor="middle" x="46.5" y="-123.5" font-family="Helvetica,sans-Serif" font-size="10.00"> </text>
</a>
</g>
</g>
<!-- Node3&#45;&gt;Node2 -->
<g id="edge1" class="edge"><title>Node3&#45;&gt;Node2</title>
<path fill="none" stroke="midnightblue" d="M64.5277,-107.094C70.6375,-94.5865 77.4187,-80.7041 83.3711,-68.5186"/>
<polygon fill="none" stroke="midnightblue" points="61.2556,-105.819 60.0113,-116.34 67.5453,-108.891 61.2556,-105.819"/>
</g>
<!-- Node4 -->
<g id="node3" class="node"><title>Node4</title>
<polygon fill="none" stroke="#bfbfbf" points="0,-232.5 0,-289.5 41,-289.5 41,-232.5 0,-232.5"/>
<text text-anchor="middle" x="20.5" y="-277.5" font-family="Helvetica,sans-Serif" font-size="10.00">string</text>
<polyline fill="none" stroke="#bfbfbf" points="0,-270.5 41,-270.5 "/>
<text text-anchor="middle" x="20.5" y="-258.5" font-family="Helvetica,sans-Serif" font-size="10.00"> </text>
<polyline fill="none" stroke="#bfbfbf" points="0,-251.5 41,-251.5 "/>
<text text-anchor="middle" x="20.5" y="-239.5" font-family="Helvetica,sans-Serif" font-size="10.00"> </text>
</g>
<!-- Node4&#45;&gt;Node3 -->
<g id="edge2" class="edge"><title>Node4&#45;&gt;Node3</title>
<path fill="none" stroke="#404040" d="M19.1222,-232.48C19.1517,-219.95 20.1166,-205.04 23.5,-192 24.0886,-189.731 24.7984,-187.444 25.5982,-185.166"/>
<polygon fill="none" stroke="#404040" points="25.6347,-185.078 24.221,-178.007 30.2045,-173.982 31.6182,-181.053 25.6347,-185.078"/>
<text text-anchor="middle" x="37.5" y="-206" font-family="Helvetica,sans-Serif" font-size="10.00"> +text</text>
<text text-anchor="middle" x="37.5" y="-195" font-family="Helvetica,sans-Serif" font-size="10.00">+desc</text>
</g>
<!-- Node5 -->
<g id="node4" class="node"><title>Node5</title>
<polygon fill="none" stroke="#bfbfbf" points="59,-232.5 59,-289.5 88,-289.5 88,-232.5 59,-232.5"/>
<text text-anchor="middle" x="73.5" y="-277.5" font-family="Helvetica,sans-Serif" font-size="10.00">int</text>
<polyline fill="none" stroke="#bfbfbf" points="59,-270.5 88,-270.5 "/>
<text text-anchor="middle" x="73.5" y="-258.5" font-family="Helvetica,sans-Serif" font-size="10.00"> </text>
<polyline fill="none" stroke="#bfbfbf" points="59,-251.5 88,-251.5 "/>
<text text-anchor="middle" x="73.5" y="-239.5" font-family="Helvetica,sans-Serif" font-size="10.00"> </text>
</g>
<!-- Node5&#45;&gt;Node3 -->
<g id="edge3" class="edge"><title>Node5&#45;&gt;Node3</title>
<path fill="none" stroke="#404040" d="M66.9641,-232.404C63.6391,-218.365 59.5379,-201.049 55.8823,-185.614"/>
<polygon fill="none" stroke="#404040" points="55.835,-185.414 50.5599,-180.498 53.0693,-173.737 58.3445,-178.654 55.835,-185.414"/>
<text text-anchor="middle" x="80.5" y="-200.5" font-family="Helvetica,sans-Serif" font-size="10.00"> +magic</text>
</g>
<!-- Node6 -->
<g id="node5" class="node"><title>Node6</title>
<polygon fill="none" stroke="#bfbfbf" points="100,-116.5 100,-173.5 135,-173.5 135,-116.5 100,-116.5"/>
<text text-anchor="middle" x="117.5" y="-161.5" font-family="Helvetica,sans-Serif" font-size="10.00">float</text>
<polyline fill="none" stroke="#bfbfbf" points="100,-154.5 135,-154.5 "/>
<text text-anchor="middle" x="117.5" y="-142.5" font-family="Helvetica,sans-Serif" font-size="10.00"> </text>
<polyline fill="none" stroke="#bfbfbf" points="100,-135.5 135,-135.5 "/>
<text text-anchor="middle" x="117.5" y="-123.5" font-family="Helvetica,sans-Serif" font-size="10.00"> </text>
</g>
<!-- Node6&#45;&gt;Node2 -->
<g id="edge4" class="edge"><title>Node6&#45;&gt;Node2</title>
<path fill="none" stroke="#404040" d="M112.911,-116.34C111.099,-105.416 108.969,-92.5798 106.948,-80.3935"/>
<polygon fill="none" stroke="#404040" points="106.942,-80.3568 102.014,-75.0923 104.978,-68.5186 109.906,-73.783 106.942,-80.3568"/>
<text text-anchor="middle" x="132.5" y="-90" font-family="Helvetica,sans-Serif" font-size="10.00"> +increase</text>
</g>
</g>
</svg>
