<?xml version="1.0" encoding="UTF-8" standalone="no"?>
<!DOCTYPE svg PUBLIC "-//W3C//DTD SVG 1.1//EN"
 "http://www.w3.org/Graphics/SVG/1.1/DTD/svg11.dtd">
<!-- Generated by graphviz version 2.38.0 (20140413.2041)
 -->
<!-- Title: QuestObjectives.WinBattleWithoutSpecials Pages: 1 -->
<!--zoomable 518 -->
<svg id="main" version="1.1" xmlns="http://www.w3.org/2000/svg" xmlns:xlink="http://www.w3.org/1999/xlink" xml:space="preserve" onload="init(evt)">
<style type="text/css"><![CDATA[
.edge:hover path { stroke: red; }
.edge:hover polygon { stroke: red; fill: red; }
]]></style>
<script type="text/javascript"><![CDATA[
var edges = document.getElementsByTagName('g');
if (edges && edges.length) {
  for (var i=0;i<edges.length;i++) {
    if (edges[i].id.substr(0,4)=='edge') {
      edges[i].setAttribute('class','edge');
    }
  }
}
]]></script>
        <defs>
                <circle id="rim" cx="0" cy="0" r="7"/>
                <circle id="rim2" cx="0" cy="0" r="3.5"/>
                <g id="zoomPlus">
                        <use xlink:href="#rim" fill="#404040">
                                <set attributeName="fill" to="#808080" begin="zoomplus.mouseover" end="zoomplus.mouseout"/>
                        </use>
                        <path d="M-4,0h8M0,-4v8" fill="none" stroke="white" stroke-width="1.5" pointer-events="none"/>
                </g>
                <g id="zoomMin">
                        <use xlink:href="#rim" fill="#404040">
                                <set attributeName="fill" to="#808080" begin="zoomminus.mouseover" end="zoomminus.mouseout"/>
                        </use>
                        <path d="M-4,0h8" fill="none" stroke="white" stroke-width="1.5" pointer-events="none"/>
                </g>
                <g id="dirArrow">
                        <path fill="none" stroke="white" stroke-width="1.5" d="M0,-3.0v7 M-2.5,-0.5L0,-3.0L2.5,-0.5"/>
                </g>
               <g id="resetDef">
                       <use xlink:href="#rim2" fill="#404040">
                               <set attributeName="fill" to="#808080" begin="reset.mouseover" end="reset.mouseout"/>
                       </use>
               </g>
        </defs>

<script type="text/javascript">
var viewWidth = 357;
var viewHeight = 518;
var sectionId = 'dynsection-1';
</script>
<script xlink:href="svgpan.js"/>
<svg id="graph" class="graph">
<g id="viewport">
<title>QuestObjectives.WinBattleWithoutSpecials</title>
<!-- Node3 -->
<g id="node1" class="node"><title>Node3</title>
<polygon fill="#bfbfbf" stroke="black" points="191,-0.5 191,-145.5 337,-145.5 337,-0.5 191,-0.5"/>
<text text-anchor="start" x="199" y="-133.5" font-family="Helvetica,sans-Serif" font-size="10.00">QuestObjectives.WinBattle</text>
<text text-anchor="middle" x="264" y="-122.5" font-family="Helvetica,sans-Serif" font-size="10.00">WithoutSpecials</text>
<polyline fill="none" stroke="black" points="191,-115.5 337,-115.5 "/>
<text text-anchor="middle" x="264" y="-103.5" font-family="Helvetica,sans-Serif" font-size="10.00"> </text>
<polyline fill="none" stroke="black" points="191,-96.5 337,-96.5 "/>
<text text-anchor="start" x="199" y="-84.5" font-family="Helvetica,sans-Serif" font-size="10.00">+ WinBattleWithoutSpecials()</text>
<text text-anchor="start" x="199" y="-73.5" font-family="Helvetica,sans-Serif" font-size="10.00">+ GetObjectData()</text>
<text text-anchor="start" x="199" y="-62.5" font-family="Helvetica,sans-Serif" font-size="10.00"># subscribeHandlers()</text>
<text text-anchor="start" x="199" y="-51.5" font-family="Helvetica,sans-Serif" font-size="10.00"># unsubscribeHandlers()</text>
<text text-anchor="start" x="199" y="-40.5" font-family="Helvetica,sans-Serif" font-size="10.00"># WinBattleWithoutSpecials()</text>
<text text-anchor="start" x="199" y="-29.5" font-family="Helvetica,sans-Serif" font-size="10.00">&#45; OnBattleStarted()</text>
<text text-anchor="start" x="199" y="-18.5" font-family="Helvetica,sans-Serif" font-size="10.00">&#45; OnMovePerformed()</text>
<text text-anchor="start" x="199" y="-7.5" font-family="Helvetica,sans-Serif" font-size="10.00">&#45; OnBattleWon()</text>
</g>
<!-- Node4 -->
<g id="node2" class="node"><title>Node4</title>
<g id="a_node2"><a xlink:href="class_quest_objective.html" target="_top" xlink:title="Base quest objective class to be extended by actual quest objectives ">
<polygon fill="none" stroke="black" points="128.5,-193.5 128.5,-393.5 253.5,-393.5 253.5,-193.5 128.5,-193.5"/>
<text text-anchor="middle" x="191" y="-381.5" font-family="Helvetica,sans-Serif" font-size="10.00">QuestObjective</text>
<polyline fill="none" stroke="black" points="128.5,-374.5 253.5,-374.5 "/>
<text text-anchor="start" x="136.5" y="-362.5" font-family="Helvetica,sans-Serif" font-size="10.00">+ State</text>
<polyline fill="none" stroke="black" points="128.5,-355.5 253.5,-355.5 "/>
<text text-anchor="start" x="136.5" y="-343.5" font-family="Helvetica,sans-Serif" font-size="10.00">+ ObjectiveCallback()</text>
<text text-anchor="start" x="136.5" y="-332.5" font-family="Helvetica,sans-Serif" font-size="10.00">+ isComplete()</text>
<text text-anchor="start" x="136.5" y="-321.5" font-family="Helvetica,sans-Serif" font-size="10.00">+ isFailed()</text>
<text text-anchor="start" x="136.5" y="-310.5" font-family="Helvetica,sans-Serif" font-size="10.00">+ inProgress()</text>
<text text-anchor="start" x="136.5" y="-299.5" font-family="Helvetica,sans-Serif" font-size="10.00">+ GetObjectData()</text>
<text text-anchor="start" x="136.5" y="-288.5" font-family="Helvetica,sans-Serif" font-size="10.00"># QuestObjective()</text>
<text text-anchor="start" x="136.5" y="-277.5" font-family="Helvetica,sans-Serif" font-size="10.00"># setComplete()</text>
<text text-anchor="start" x="136.5" y="-266.5" font-family="Helvetica,sans-Serif" font-size="10.00"># setFailed()</text>
<text text-anchor="start" x="136.5" y="-255.5" font-family="Helvetica,sans-Serif" font-size="10.00"># subscribeHandlers()</text>
<text text-anchor="start" x="136.5" y="-244.5" font-family="Helvetica,sans-Serif" font-size="10.00"># unsubscribeHandlers()</text>
<text text-anchor="start" x="136.5" y="-233.5" font-family="Helvetica,sans-Serif" font-size="10.00"># QuestObjective()</text>
<text text-anchor="start" x="136.5" y="-222.5" font-family="Helvetica,sans-Serif" font-size="10.00"># dispose()</text>
<text text-anchor="start" x="136.5" y="-211.5" font-family="Helvetica,sans-Serif" font-size="10.00">&#45; setState()</text>
<text text-anchor="start" x="136.5" y="-200.5" font-family="Helvetica,sans-Serif" font-size="10.00">&#45; OnExitedToMainMenu()</text>
</a>
</g>
</g>
<!-- Node4&#45;&gt;Node3 -->
<g id="edge1" class="edge"><title>Node4&#45;&gt;Node3</title>
<path fill="none" stroke="midnightblue" d="M227.251,-183.994C231.609,-170.95 235.972,-157.892 240.091,-145.564"/>
<polygon fill="none" stroke="midnightblue" points="223.932,-182.885 224.083,-193.479 230.571,-185.103 223.932,-182.885"/>
</g>
<!-- Node5 -->
<g id="node3" class="node"><title>Node5</title>
<polygon fill="none" stroke="#bfbfbf" points="0,-441.5 0,-509.5 152,-509.5 152,-441.5 0,-441.5"/>
<text text-anchor="start" x="8" y="-497.5" font-family="Helvetica,sans-Serif" font-size="10.00">System::Runtime::Serialization</text>
<text text-anchor="middle" x="76" y="-486.5" font-family="Helvetica,sans-Serif" font-size="10.00">::ISerializable</text>
<polyline fill="none" stroke="#bfbfbf" points="0,-479.5 152,-479.5 "/>
<text text-anchor="middle" x="76" y="-467.5" font-family="Helvetica,sans-Serif" font-size="10.00"> </text>
<polyline fill="none" stroke="#bfbfbf" points="0,-460.5 152,-460.5 "/>
<text text-anchor="middle" x="76" y="-448.5" font-family="Helvetica,sans-Serif" font-size="10.00"> </text>
</g>
<!-- Node5&#45;&gt;Node4 -->
<g id="edge2" class="edge"><title>Node5&#45;&gt;Node4</title>
<path fill="none" stroke="midnightblue" d="M102.593,-432.877C110.429,-420.612 119.354,-406.641 128.449,-392.405"/>
<polygon fill="none" stroke="midnightblue" points="99.5273,-431.174 97.0928,-441.485 105.426,-434.943 99.5273,-431.174"/>
</g>
<!-- Node6 -->
<g id="node4" class="node"><title>Node6</title>
<polygon fill="none" stroke="#bfbfbf" points="170.5,-447 170.5,-504 211.5,-504 211.5,-447 170.5,-447"/>
<text text-anchor="middle" x="191" y="-492" font-family="Helvetica,sans-Serif" font-size="10.00">string</text>
<polyline fill="none" stroke="#bfbfbf" points="170.5,-485 211.5,-485 "/>
<text text-anchor="middle" x="191" y="-473" font-family="Helvetica,sans-Serif" font-size="10.00"> </text>
<polyline fill="none" stroke="#bfbfbf" points="170.5,-466 211.5,-466 "/>
<text text-anchor="middle" x="191" y="-454" font-family="Helvetica,sans-Serif" font-size="10.00"> </text>
</g>
<!-- Node6&#45;&gt;Node4 -->
<g id="edge3" class="edge"><title>Node6&#45;&gt;Node4</title>
<path fill="none" stroke="#404040" d="M191,-446.769C191,-435.253 191,-421.068 191,-406.032"/>
<polygon fill="none" stroke="#404040" points="191,-405.825 187,-399.825 191,-393.825 195,-399.825 191,-405.825"/>
<text text-anchor="middle" x="219.5" y="-415" font-family="Helvetica,sans-Serif" font-size="10.00"> +description</text>
</g>
<!-- Node7 -->
<g id="node5" class="node"><title>Node7</title>
<polygon fill="none" stroke="#bfbfbf" points="231,-447 231,-504 311,-504 311,-447 231,-447"/>
<text text-anchor="middle" x="271" y="-492" font-family="Helvetica,sans-Serif" font-size="10.00">ObjectiveState</text>
<polyline fill="none" stroke="#bfbfbf" points="231,-485 311,-485 "/>
<text text-anchor="middle" x="271" y="-473" font-family="Helvetica,sans-Serif" font-size="10.00"> </text>
<polyline fill="none" stroke="#bfbfbf" points="231,-466 311,-466 "/>
<text text-anchor="middle" x="271" y="-454" font-family="Helvetica,sans-Serif" font-size="10.00"> </text>
</g>
<!-- Node7&#45;&gt;Node4 -->
<g id="edge4" class="edge"><title>Node7&#45;&gt;Node4</title>
<path fill="none" stroke="#404040" d="M262.065,-446.848C258.316,-435.885 253.731,-423.238 249,-412 248.017,-409.666 247.01,-407.312 245.983,-404.946"/>
<polygon fill="none" stroke="#404040" points="245.905,-404.769 239.817,-400.904 241.043,-393.798 247.131,-397.663 245.905,-404.769"/>
<text text-anchor="middle" x="268" y="-415" font-family="Helvetica,sans-Serif" font-size="10.00"> &#45;state</text>
</g>
<!-- Node8 -->
<g id="node6" class="node"><title>Node8</title>
<polygon fill="none" stroke="#bfbfbf" points="271.5,-265 271.5,-322 306.5,-322 306.5,-265 271.5,-265"/>
<text text-anchor="middle" x="289" y="-310" font-family="Helvetica,sans-Serif" font-size="10.00">bool</text>
<polyline fill="none" stroke="#bfbfbf" points="271.5,-303 306.5,-303 "/>
<text text-anchor="middle" x="289" y="-291" font-family="Helvetica,sans-Serif" font-size="10.00"> </text>
<polyline fill="none" stroke="#bfbfbf" points="271.5,-284 306.5,-284 "/>
<text text-anchor="middle" x="289" y="-272" font-family="Helvetica,sans-Serif" font-size="10.00"> </text>
</g>
<!-- Node8&#45;&gt;Node3 -->
<g id="edge5" class="edge"><title>Node8&#45;&gt;Node3</title>
<path fill="none" stroke="#404040" d="M285.834,-264.827C282.763,-237.989 277.947,-195.892 273.618,-158.059"/>
<polygon fill="none" stroke="#404040" points="273.596,-157.872 268.94,-152.365 272.232,-145.949 276.888,-151.456 273.596,-157.872"/>
<text text-anchor="middle" x="312.5" y="-167" font-family="Helvetica,sans-Serif" font-size="10.00"> &#45;failedThisBattle</text>
</g>
</g>
</svg>
        <g id="navigator" transform="translate(0 0)" fill="#404254">
                <rect fill="#f2f5e9" fill-opacity="0.5" stroke="#606060" stroke-width=".5" x="0" y="0" width="60" height="60"/>
                <use id="zoomplus" xlink:href="#zoomPlus" x="17" y="9" onmousedown="handleZoom(evt,'in')"/>
                <use id="zoomminus" xlink:href="#zoomMin" x="42" y="9" onmousedown="handleZoom(evt,'out')"/>
                <use id="reset" xlink:href="#resetDef" x="30" y="36" onmousedown="handleReset()"/>
                <g id="arrowUp" xlink:href="#dirArrow" transform="translate(30 24)" onmousedown="handlePan(0,-1)">
                  <use xlink:href="#rim" fill="#404040">
                        <set attributeName="fill" to="#808080" begin="arrowUp.mouseover" end="arrowUp.mouseout"/>
                  </use>
                  <path fill="none" stroke="white" stroke-width="1.5" d="M0,-3.0v7 M-2.5,-0.5L0,-3.0L2.5,-0.5"/>
                </g>
                <g id="arrowRight" xlink:href="#dirArrow" transform="rotate(90) translate(36 -43)" onmousedown="handlePan(1,0)">
                  <use xlink:href="#rim" fill="#404040">
                        <set attributeName="fill" to="#808080" begin="arrowRight.mouseover" end="arrowRight.mouseout"/>
                  </use>
                  <path fill="none" stroke="white" stroke-width="1.5" d="M0,-3.0v7 M-2.5,-0.5L0,-3.0L2.5,-0.5"/>
                </g>
                <g id="arrowDown" xlink:href="#dirArrow" transform="rotate(180) translate(-30 -48)" onmousedown="handlePan(0,1)">
                  <use xlink:href="#rim" fill="#404040">
                        <set attributeName="fill" to="#808080" begin="arrowDown.mouseover" end="arrowDown.mouseout"/>
                  </use>
                  <path fill="none" stroke="white" stroke-width="1.5" d="M0,-3.0v7 M-2.5,-0.5L0,-3.0L2.5,-0.5"/>
                </g>
                <g id="arrowLeft" xlink:href="#dirArrow" transform="rotate(270) translate(-36 17)" onmousedown="handlePan(-1,0)">
                  <use xlink:href="#rim" fill="#404040">
                        <set attributeName="fill" to="#808080" begin="arrowLeft.mouseover" end="arrowLeft.mouseout"/>
                  </use>
                  <path fill="none" stroke="white" stroke-width="1.5" d="M0,-3.0v7 M-2.5,-0.5L0,-3.0L2.5,-0.5"/>
                </g>
        </g>
        <svg viewBox="0 0 15 15" width="100%" height="30px" preserveAspectRatio="xMaxYMin meet">
         <g id="arrow_out" transform="scale(0.3 0.3)">
          <a xlink:href="class_quest_objectives_1_1_win_battle_without_specials__coll__graph_org.svg" target="_base">
           <rect id="button" ry="5" rx="5" y="6" x="6" height="38" width="38"
                fill="#f2f5e9" fill-opacity="0.5" stroke="#606060" stroke-width="1.0"/>
           <path id="arrow"
             d="M 11.500037,31.436501 C 11.940474,20.09759 22.043105,11.32322 32.158766,21.979434 L 37.068811,17.246167 C 37.068811,17.246167 37.088388,32 37.088388,32 L 22.160133,31.978069 C 22.160133,31.978069 26.997745,27.140456 26.997745,27.140456 C 18.528582,18.264221 13.291696,25.230495 11.500037,31.436501 z"
             style="fill:#404040;"/>
          </a>
         </g>
        </svg>
</svg>
