<?xml version="1.0" encoding="UTF-8" standalone="no"?>
<!DOCTYPE svg PUBLIC "-//W3C//DTD SVG 1.1//EN"
 "http://www.w3.org/Graphics/SVG/1.1/DTD/svg11.dtd">
<!-- Generated by graphviz version 2.38.0 (20140413.2041)
 -->
<!-- Title: BattleManager Pages: 1 -->
<!--zoomable 1054 -->
<svg id="main" version="1.1" xmlns="http://www.w3.org/2000/svg" xmlns:xlink="http://www.w3.org/1999/xlink" xml:space="preserve" onload="init(evt)">
<style type="text/css"><![CDATA[
.edge:hover path { stroke: red; }
.edge:hover polygon { stroke: red; fill: red; }
]]></style>
<script type="text/javascript"><![CDATA[
var edges = document.getElementsByTagName('g');
if (edges && edges.length) {
  for (var i=0;i<edges.length;i++) {
    if (edges[i].id.substr(0,4)=='edge') {
      edges[i].setAttribute('class','edge');
    }
  }
}
]]></script>
        <defs>
                <circle id="rim" cx="0" cy="0" r="7"/>
                <circle id="rim2" cx="0" cy="0" r="3.5"/>
                <g id="zoomPlus">
                        <use xlink:href="#rim" fill="#404040">
                                <set attributeName="fill" to="#808080" begin="zoomplus.mouseover" end="zoomplus.mouseout"/>
                        </use>
                        <path d="M-4,0h8M0,-4v8" fill="none" stroke="white" stroke-width="1.5" pointer-events="none"/>
                </g>
                <g id="zoomMin">
                        <use xlink:href="#rim" fill="#404040">
                                <set attributeName="fill" to="#808080" begin="zoomminus.mouseover" end="zoomminus.mouseout"/>
                        </use>
                        <path d="M-4,0h8" fill="none" stroke="white" stroke-width="1.5" pointer-events="none"/>
                </g>
                <g id="dirArrow">
                        <path fill="none" stroke="white" stroke-width="1.5" d="M0,-3.0v7 M-2.5,-0.5L0,-3.0L2.5,-0.5"/>
                </g>
               <g id="resetDef">
                       <use xlink:href="#rim2" fill="#404040">
                               <set attributeName="fill" to="#808080" begin="reset.mouseover" end="reset.mouseout"/>
                       </use>
               </g>
        </defs>

<script type="text/javascript">
var viewWidth = 645;
var viewHeight = 1054;
var sectionId = 'dynsection-0';
</script>
<script xlink:href="svgpan.js"/>
<svg id="graph" class="graph">
<g id="viewport">
<title>BattleManager</title>
<!-- Node1 -->
<g id="node1" class="node"><title>Node1</title>
<polygon fill="#bfbfbf" stroke="black" points="249,-740.5 249,-929.5 365,-929.5 365,-740.5 249,-740.5"/>
<text text-anchor="middle" x="307" y="-917.5" font-family="Helvetica,sans-Serif" font-size="10.00">BattleManager</text>
<polyline fill="none" stroke="black" points="249,-910.5 365,-910.5 "/>
<text text-anchor="start" x="257" y="-898.5" font-family="Helvetica,sans-Serif" font-size="10.00">+ Player</text>
<text text-anchor="start" x="257" y="-887.5" font-family="Helvetica,sans-Serif" font-size="10.00">+ Enemy</text>
<text text-anchor="start" x="257" y="-876.5" font-family="Helvetica,sans-Serif" font-size="10.00">+ WasCriticalHit</text>
<polyline fill="none" stroke="black" points="249,-869.5 365,-869.5 "/>
<text text-anchor="start" x="257" y="-857.5" font-family="Helvetica,sans-Serif" font-size="10.00">+ BattleManager()</text>
<text text-anchor="start" x="257" y="-846.5" font-family="Helvetica,sans-Serif" font-size="10.00">+ playerFirst()</text>
<text text-anchor="start" x="257" y="-835.5" font-family="Helvetica,sans-Serif" font-size="10.00">+ switchPlayers()</text>
<text text-anchor="start" x="257" y="-824.5" font-family="Helvetica,sans-Serif" font-size="10.00">+ isCriticalHit()</text>
<text text-anchor="start" x="257" y="-813.5" font-family="Helvetica,sans-Serif" font-size="10.00">+ ranAway()</text>
<text text-anchor="start" x="257" y="-802.5" font-family="Helvetica,sans-Serif" font-size="10.00">+ damageCalculation()</text>
<text text-anchor="start" x="257" y="-791.5" font-family="Helvetica,sans-Serif" font-size="10.00">+ enemyMove()</text>
<text text-anchor="start" x="257" y="-780.5" font-family="Helvetica,sans-Serif" font-size="10.00">+ enemySpecialMove()</text>
<text text-anchor="start" x="257" y="-769.5" font-family="Helvetica,sans-Serif" font-size="10.00">+ battleWon()</text>
<text text-anchor="start" x="257" y="-758.5" font-family="Helvetica,sans-Serif" font-size="10.00">+ playerFainted()</text>
<text text-anchor="start" x="257" y="-747.5" font-family="Helvetica,sans-Serif" font-size="10.00">&#45; characterFainted()</text>
</g>
<!-- Node7 -->
<g id="node7" class="node"><title>Node7</title>
<g id="a_node7"><a xlink:href="class_character_move.html" target="_top" xlink:title="Astract base class for character moves ">
<polygon fill="none" stroke="black" points="331,-540.5 331,-619.5 417,-619.5 417,-540.5 331,-540.5"/>
<text text-anchor="middle" x="374" y="-607.5" font-family="Helvetica,sans-Serif" font-size="10.00">CharacterMove</text>
<polyline fill="none" stroke="black" points="331,-600.5 417,-600.5 "/>
<text text-anchor="start" x="339" y="-588.5" font-family="Helvetica,sans-Serif" font-size="10.00">+ User</text>
<text text-anchor="start" x="339" y="-577.5" font-family="Helvetica,sans-Serif" font-size="10.00">+ Target</text>
<text text-anchor="start" x="339" y="-566.5" font-family="Helvetica,sans-Serif" font-size="10.00">+ Text</text>
<polyline fill="none" stroke="black" points="331,-559.5 417,-559.5 "/>
<text text-anchor="start" x="339" y="-547.5" font-family="Helvetica,sans-Serif" font-size="10.00">+ performMove()</text>
</a>
</g>
</g>
<!-- Node1&#45;&gt;Node7 -->
<g id="edge10" class="edge"><title>Node1&#45;&gt;Node7</title>
<path fill="none" stroke="#404040" d="M331.853,-740.152C341.618,-703.28 352.434,-662.435 360.665,-631.356"/>
<polygon fill="none" stroke="#404040" points="360.725,-631.128 358.394,-624.304 363.797,-619.528 366.128,-626.352 360.725,-631.128"/>
<text text-anchor="middle" x="381" y="-679.5" font-family="Helvetica,sans-Serif" font-size="10.00"> #manager</text>
</g>
<!-- Node2 -->
<g id="node2" class="node"><title>Node2</title>
<polygon fill="none" stroke="#bfbfbf" points="465.5,-988.5 465.5,-1045.5 506.5,-1045.5 506.5,-988.5 465.5,-988.5"/>
<text text-anchor="middle" x="486" y="-1033.5" font-family="Helvetica,sans-Serif" font-size="10.00">string</text>
<polyline fill="none" stroke="#bfbfbf" points="465.5,-1026.5 506.5,-1026.5 "/>
<text text-anchor="middle" x="486" y="-1014.5" font-family="Helvetica,sans-Serif" font-size="10.00"> </text>
<polyline fill="none" stroke="#bfbfbf" points="465.5,-1007.5 506.5,-1007.5 "/>
<text text-anchor="middle" x="486" y="-995.5" font-family="Helvetica,sans-Serif" font-size="10.00"> </text>
</g>
<!-- Node2&#45;&gt;Node1 -->
<g id="edge1" class="edge"><title>Node2&#45;&gt;Node1</title>
<path fill="none" stroke="#404040" d="M465.483,-1013.41C438.666,-1009.01 391.742,-997.671 363,-970 354.122,-961.453 346.592,-951.284 340.22,-940.425"/>
<polygon fill="none" stroke="#404040" points="340.193,-940.374 333.812,-937.015 334.459,-929.833 340.84,-933.192 340.193,-940.374"/>
<text text-anchor="middle" x="405" y="-962" font-family="Helvetica,sans-Serif" font-size="10.00"> +forceEnemyMove</text>
<text text-anchor="middle" x="405" y="-951" font-family="Helvetica,sans-Serif" font-size="10.00">+forceCriticalHits</text>
</g>
<!-- Node4 -->
<g id="node4" class="node"><title>Node4</title>
<g id="a_node4"><a xlink:href="class_character.html" target="_top" xlink:title="Base abstract class for Enemy and Player to inherit from. Defines all shared variables, their constructor and their setters and getters ">
<polygon fill="none" stroke="black" points="255.5,-150.5 255.5,-328.5 350.5,-328.5 350.5,-150.5 255.5,-150.5"/>
<text text-anchor="middle" x="303" y="-316.5" font-family="Helvetica,sans-Serif" font-size="10.00">Character</text>
<polyline fill="none" stroke="black" points="255.5,-309.5 350.5,-309.5 "/>
<text text-anchor="start" x="263.5" y="-297.5" font-family="Helvetica,sans-Serif" font-size="10.00">+ Name</text>
<text text-anchor="start" x="263.5" y="-286.5" font-family="Helvetica,sans-Serif" font-size="10.00">+ Level</text>
<text text-anchor="start" x="263.5" y="-275.5" font-family="Helvetica,sans-Serif" font-size="10.00">+ Health</text>
<text text-anchor="start" x="263.5" y="-264.5" font-family="Helvetica,sans-Serif" font-size="10.00">+ Attack</text>
<text text-anchor="start" x="263.5" y="-253.5" font-family="Helvetica,sans-Serif" font-size="10.00">+ Defence</text>
<text text-anchor="start" x="263.5" y="-242.5" font-family="Helvetica,sans-Serif" font-size="10.00">+ MaximumMagic</text>
<text text-anchor="start" x="263.5" y="-231.5" font-family="Helvetica,sans-Serif" font-size="10.00">+ Magic</text>
<text text-anchor="start" x="263.5" y="-220.5" font-family="Helvetica,sans-Serif" font-size="10.00">+ Luck</text>
<text text-anchor="start" x="263.5" y="-209.5" font-family="Helvetica,sans-Serif" font-size="10.00">+ Speed</text>
<text text-anchor="start" x="263.5" y="-198.5" font-family="Helvetica,sans-Serif" font-size="10.00">+ Special1</text>
<text text-anchor="start" x="263.5" y="-187.5" font-family="Helvetica,sans-Serif" font-size="10.00">+ Special2</text>
<text text-anchor="start" x="263.5" y="-176.5" font-family="Helvetica,sans-Serif" font-size="10.00">+ Image</text>
<polyline fill="none" stroke="black" points="255.5,-169.5 350.5,-169.5 "/>
<text text-anchor="start" x="263.5" y="-157.5" font-family="Helvetica,sans-Serif" font-size="10.00"># Character()</text>
</a>
</g>
</g>
<!-- Node2&#45;&gt;Node4 -->
<g id="edge4" class="edge"><title>Node2&#45;&gt;Node4</title>
<path fill="none" stroke="#404040" d="M497.193,-988.146C499.138,-982.243 500.889,-975.986 502,-970 525.665,-842.483 537.275,-500.765 475,-387 448.634,-338.834 399.67,-299.538 360.708,-273.814"/>
<polygon fill="none" stroke="#404040" points="360.61,-273.751 353.4,-273.86 350.526,-267.246 357.736,-267.137 360.61,-273.751"/>
<text text-anchor="middle" x="545.5" y="-583" font-family="Helvetica,sans-Serif" font-size="10.00"> #image_ref</text>
<text text-anchor="middle" x="545.5" y="-572" font-family="Helvetica,sans-Serif" font-size="10.00">#name</text>
</g>
<!-- Node6 -->
<g id="node6" class="node"><title>Node6</title>
<g id="a_node6"><a xlink:href="class_special_move.html" target="_top" xlink:title="Special move abstract base class that expands upon CharacterMove, adding magic properties ...">
<polygon fill="none" stroke="black" points="329,-387.5 329,-477.5 427,-477.5 427,-387.5 329,-387.5"/>
<text text-anchor="middle" x="378" y="-465.5" font-family="Helvetica,sans-Serif" font-size="10.00">SpecialMove</text>
<polyline fill="none" stroke="black" points="329,-458.5 427,-458.5 "/>
<text text-anchor="start" x="337" y="-446.5" font-family="Helvetica,sans-Serif" font-size="10.00">+ Magic</text>
<text text-anchor="start" x="337" y="-435.5" font-family="Helvetica,sans-Serif" font-size="10.00">+ Desc</text>
<polyline fill="none" stroke="black" points="329,-428.5 427,-428.5 "/>
<text text-anchor="start" x="337" y="-416.5" font-family="Helvetica,sans-Serif" font-size="10.00">+ setUp()</text>
<text text-anchor="start" x="337" y="-405.5" font-family="Helvetica,sans-Serif" font-size="10.00">+ decreaseMagic()</text>
<text text-anchor="start" x="337" y="-394.5" font-family="Helvetica,sans-Serif" font-size="10.00"># SpecialMove()</text>
</a>
</g>
</g>
<!-- Node2&#45;&gt;Node6 -->
<g id="edge11" class="edge"><title>Node2&#45;&gt;Node6</title>
<path fill="none" stroke="#404040" d="M487.034,-988.392C488.769,-925.897 489.705,-769.145 462,-642 451.407,-593.387 444.579,-582.155 426,-536 419.773,-520.53 412.399,-504.052 405.324,-488.935"/>
<polygon fill="none" stroke="#404040" points="405.13,-488.525 398.947,-484.814 399.995,-477.679 406.178,-481.391 405.13,-488.525"/>
<text text-anchor="middle" x="491" y="-679.5" font-family="Helvetica,sans-Serif" font-size="10.00"> #desc</text>
</g>
<!-- Node2&#45;&gt;Node7 -->
<g id="edge8" class="edge"><title>Node2&#45;&gt;Node7</title>
<path fill="none" stroke="#404040" d="M470.852,-988.125C462.553,-971.666 452.803,-950.166 447,-930 411.282,-805.868 448.821,-764.548 408,-642 406.755,-638.262 405.278,-634.489 403.648,-630.752"/>
<polygon fill="none" stroke="#404040" points="403.548,-630.543 397.353,-626.851 398.378,-619.713 404.573,-623.405 403.548,-630.543"/>
<text text-anchor="middle" x="459.5" y="-832.5" font-family="Helvetica,sans-Serif" font-size="10.00"> #text</text>
</g>
<!-- Node10 -->
<g id="node10" class="node"><title>Node10</title>
<g id="a_node10"><a xlink:href="class_item.html" target="_top" xlink:title="Abstract class for items that can be equipped to a player, increasing some of their stats ...">
<polygon fill="none" stroke="black" points="559.5,-642.5 559.5,-721.5 636.5,-721.5 636.5,-642.5 559.5,-642.5"/>
<text text-anchor="middle" x="598" y="-709.5" font-family="Helvetica,sans-Serif" font-size="10.00">Item</text>
<polyline fill="none" stroke="black" points="559.5,-702.5 636.5,-702.5 "/>
<text text-anchor="start" x="567.5" y="-690.5" font-family="Helvetica,sans-Serif" font-size="10.00">+ Name</text>
<text text-anchor="start" x="567.5" y="-679.5" font-family="Helvetica,sans-Serif" font-size="10.00">+ Desc</text>
<polyline fill="none" stroke="black" points="559.5,-672.5 636.5,-672.5 "/>
<text text-anchor="start" x="567.5" y="-660.5" font-family="Helvetica,sans-Serif" font-size="10.00">+ applyBuffs()</text>
<text text-anchor="start" x="567.5" y="-649.5" font-family="Helvetica,sans-Serif" font-size="10.00">+ revertBuffs()</text>
</a>
</g>
</g>
<!-- Node2&#45;&gt;Node10 -->
<g id="edge19" class="edge"><title>Node2&#45;&gt;Node10</title>
<path fill="none" stroke="#404040" d="M506.768,-1005.37C520.107,-997.444 536.632,-985.349 546,-970 590.701,-896.759 599.008,-794.736 599.516,-734.12"/>
<polygon fill="none" stroke="#404040" points="599.516,-733.839 595.516,-727.839 599.516,-721.839 603.516,-727.84 599.516,-733.839"/>
<text text-anchor="middle" x="572" y="-962" font-family="Helvetica,sans-Serif" font-size="10.00"> #desc</text>
<text text-anchor="middle" x="572" y="-951" font-family="Helvetica,sans-Serif" font-size="10.00">#name</text>
</g>
<!-- Node3 -->
<g id="node3" class="node"><title>Node3</title>
<g id="a_node3"><a xlink:href="class_enemy.html" target="_top" xlink:title="Defines an AI controller enemy to fight in battle scenes">
<polygon fill="none" stroke="black" points="100.5,-28 100.5,-85 167.5,-85 167.5,-28 100.5,-28"/>
<text text-anchor="middle" x="134" y="-73" font-family="Helvetica,sans-Serif" font-size="10.00">Enemy</text>
<polyline fill="none" stroke="black" points="100.5,-66 167.5,-66 "/>
<text text-anchor="start" x="108.5" y="-54" font-family="Helvetica,sans-Serif" font-size="10.00">+ ExpGiven</text>
<polyline fill="none" stroke="black" points="100.5,-47 167.5,-47 "/>
<text text-anchor="start" x="108.5" y="-35" font-family="Helvetica,sans-Serif" font-size="10.00">+ Enemy()</text>
</a>
</g>
</g>
<!-- Node3&#45;&gt;Node1 -->
<g id="edge2" class="edge"><title>Node3&#45;&gt;Node1</title>
<path fill="none" stroke="#404040" d="M140.148,-85.0968C162.908,-187.253 243.136,-547.35 283.475,-728.409"/>
<polygon fill="none" stroke="#404040" points="283.523,-728.623 288.732,-733.61 286.132,-740.336 280.923,-735.349 283.523,-728.623"/>
<text text-anchor="middle" x="246" y="-430" font-family="Helvetica,sans-Serif" font-size="10.00"> &#45;enemy</text>
</g>
<!-- Node4&#45;&gt;Node3 -->
<g id="edge3" class="edge"><title>Node4&#45;&gt;Node3</title>
<path fill="none" stroke="midnightblue" d="M248.434,-180.059C218.666,-148.178 183.206,-110.2 159.732,-85.0592"/>
<polygon fill="none" stroke="midnightblue" points="246.091,-182.679 255.474,-187.6 251.208,-177.902 246.091,-182.679"/>
</g>
<!-- Node4&#45;&gt;Node7 -->
<g id="edge9" class="edge"><title>Node4&#45;&gt;Node7</title>
<path fill="none" stroke="#404040" d="M279.363,-328.773C271.343,-374.618 268.311,-430.771 286,-478 293.705,-498.573 307.706,-517.715 322.306,-533.681"/>
<polygon fill="none" stroke="#404040" points="322.637,-534.027 329.675,-535.6 330.929,-542.701 323.892,-541.128 322.637,-534.027"/>
<text text-anchor="middle" x="303" y="-435.5" font-family="Helvetica,sans-Serif" font-size="10.00"> #target</text>
<text text-anchor="middle" x="303" y="-424.5" font-family="Helvetica,sans-Serif" font-size="10.00">#user</text>
</g>
<!-- Node9 -->
<g id="node9" class="node"><title>Node9</title>
<g id="a_node9"><a xlink:href="class_player.html" target="_top" xlink:title="Defines a playable character for use in battle scenes">
<polygon fill="none" stroke="black" points="360,-0.5 360,-112.5 472,-112.5 472,-0.5 360,-0.5"/>
<text text-anchor="middle" x="416" y="-100.5" font-family="Helvetica,sans-Serif" font-size="10.00">Player</text>
<polyline fill="none" stroke="black" points="360,-93.5 472,-93.5 "/>
<text text-anchor="start" x="368" y="-81.5" font-family="Helvetica,sans-Serif" font-size="10.00">+ Exp</text>
<text text-anchor="start" x="368" y="-70.5" font-family="Helvetica,sans-Serif" font-size="10.00">+ Item</text>
<text text-anchor="start" x="368" y="-59.5" font-family="Helvetica,sans-Serif" font-size="10.00">+ ExpToNextLevel</text>
<polyline fill="none" stroke="black" points="360,-52.5 472,-52.5 "/>
<text text-anchor="start" x="368" y="-40.5" font-family="Helvetica,sans-Serif" font-size="10.00">+ Player()</text>
<text text-anchor="start" x="368" y="-29.5" font-family="Helvetica,sans-Serif" font-size="10.00">+ gainExp()</text>
<text text-anchor="start" x="368" y="-18.5" font-family="Helvetica,sans-Serif" font-size="10.00">+ levelUp()</text>
<text text-anchor="start" x="368" y="-7.5" font-family="Helvetica,sans-Serif" font-size="10.00">&#45; setExpToNextLevel()</text>
</a>
</g>
</g>
<!-- Node4&#45;&gt;Node9 -->
<g id="edge17" class="edge"><title>Node4&#45;&gt;Node9</title>
<path fill="none" stroke="midnightblue" d="M355.973,-153.649C364.646,-139.757 373.43,-125.687 381.504,-112.755"/>
<polygon fill="none" stroke="midnightblue" points="352.922,-151.928 350.595,-162.264 358.859,-155.635 352.922,-151.928"/>
</g>
<!-- Node5 -->
<g id="node5" class="node"><title>Node5</title>
<polygon fill="none" stroke="#bfbfbf" points="138.5,-988.5 138.5,-1045.5 167.5,-1045.5 167.5,-988.5 138.5,-988.5"/>
<text text-anchor="middle" x="153" y="-1033.5" font-family="Helvetica,sans-Serif" font-size="10.00">int</text>
<polyline fill="none" stroke="#bfbfbf" points="138.5,-1026.5 167.5,-1026.5 "/>
<text text-anchor="middle" x="153" y="-1014.5" font-family="Helvetica,sans-Serif" font-size="10.00"> </text>
<polyline fill="none" stroke="#bfbfbf" points="138.5,-1007.5 167.5,-1007.5 "/>
<text text-anchor="middle" x="153" y="-995.5" font-family="Helvetica,sans-Serif" font-size="10.00"> </text>
</g>
<!-- Node5&#45;&gt;Node1 -->
<g id="edge14" class="edge"><title>Node5&#45;&gt;Node1</title>
<path fill="none" stroke="#404040" d="M167.766,-998.741C184.69,-978.959 213.596,-945.174 240.697,-913.496"/>
<polygon fill="none" stroke="#404040" points="240.856,-913.311 241.717,-906.151 248.657,-904.193 247.796,-911.352 240.856,-913.311"/>
<text text-anchor="middle" x="227.5" y="-956.5" font-family="Helvetica,sans-Serif" font-size="10.00"> +money</text>
</g>
<!-- Node5&#45;&gt;Node3 -->
<g id="edge13" class="edge"><title>Node5&#45;&gt;Node3</title>
<path fill="none" stroke="#404040" d="M138.384,-1012.72C117.298,-1007.29 78.3242,-994.505 55,-970 10.6163,-923.369 0,-900.377 0,-836 0,-836 0,-836 0,-238.5 0,-176.505 51.4074,-121.869 90.5403,-89.2599"/>
<polygon fill="none" stroke="#404040" points="90.8585,-89.0024 93.0058,-82.1184 100.186,-81.4528 98.0388,-88.3368 90.8585,-89.0024"/>
<text text-anchor="middle" x="23" y="-504.5" font-family="Helvetica,sans-Serif" font-size="10.00"> &#45;expGiven</text>
</g>
<!-- Node5&#45;&gt;Node4 -->
<g id="edge5" class="edge"><title>Node5&#45;&gt;Node4</title>
<path fill="none" stroke="#404040" d="M151.843,-988.4C147.753,-881.855 136.596,-497.796 183,-387 197.599,-352.142 223.282,-319.051 247.151,-293.169"/>
<polygon fill="none" stroke="#404040" points="247.261,-293.051 248.47,-285.942 255.497,-284.323 254.288,-291.432 247.261,-293.051"/>
<text text-anchor="middle" x="193.5" y="-616" font-family="Helvetica,sans-Serif" font-size="10.00"> #speed</text>
<text text-anchor="middle" x="193.5" y="-605" font-family="Helvetica,sans-Serif" font-size="10.00">#luck</text>
<text text-anchor="middle" x="193.5" y="-594" font-family="Helvetica,sans-Serif" font-size="10.00">#health</text>
<text text-anchor="middle" x="193.5" y="-583" font-family="Helvetica,sans-Serif" font-size="10.00">#magic</text>
<text text-anchor="middle" x="193.5" y="-572" font-family="Helvetica,sans-Serif" font-size="10.00">#maximumMagic</text>
<text text-anchor="middle" x="193.5" y="-561" font-family="Helvetica,sans-Serif" font-size="10.00">#attack</text>
<text text-anchor="middle" x="193.5" y="-550" font-family="Helvetica,sans-Serif" font-size="10.00">#defence</text>
<text text-anchor="middle" x="193.5" y="-539" font-family="Helvetica,sans-Serif" font-size="10.00">#level</text>
</g>
<!-- Node5&#45;&gt;Node6 -->
<g id="edge12" class="edge"><title>Node5&#45;&gt;Node6</title>
<path fill="none" stroke="#404040" d="M160.547,-988.423C181.463,-913.654 243.826,-701.573 322,-536 329.419,-520.286 338.147,-503.606 346.476,-488.368"/>
<polygon fill="none" stroke="#404040" points="346.643,-488.065 346.042,-480.879 352.445,-477.561 353.045,-484.747 346.643,-488.065"/>
<text text-anchor="middle" x="293.5" y="-679.5" font-family="Helvetica,sans-Serif" font-size="10.00"> #magic</text>
</g>
<!-- Node5&#45;&gt;Node9 -->
<g id="edge20" class="edge"><title>Node5&#45;&gt;Node9</title>
<path fill="none" stroke="#404040" d="M142.031,-988.36C112.538,-910.26 36.5607,-681.562 79,-496 117.069,-329.545 128.231,-273.641 246,-150 274.316,-120.272 314.329,-97.85 348.424,-82.5316"/>
<polygon fill="none" stroke="#404040" points="348.731,-82.398 352.636,-76.3357 359.734,-77.6087 355.829,-83.671 348.731,-82.398"/>
<text text-anchor="middle" x="116.5" y="-510" font-family="Helvetica,sans-Serif" font-size="10.00"> &#45;expToNextLevel</text>
<text text-anchor="middle" x="116.5" y="-499" font-family="Helvetica,sans-Serif" font-size="10.00">&#45;exp</text>
</g>
<!-- Node6&#45;&gt;Node4 -->
<g id="edge6" class="edge"><title>Node6&#45;&gt;Node4</title>
<path fill="none" stroke="#404040" d="M360.605,-387.201C355.015,-372.964 348.578,-356.572 342.078,-340.019"/>
<polygon fill="none" stroke="#404040" points="341.964,-339.727 336.047,-335.604 337.578,-328.557 343.494,-332.68 341.964,-339.727"/>
<text text-anchor="middle" x="374.5" y="-361" font-family="Helvetica,sans-Serif" font-size="10.00"> #special1</text>
<text text-anchor="middle" x="374.5" y="-350" font-family="Helvetica,sans-Serif" font-size="10.00">#special2</text>
</g>
<!-- Node7&#45;&gt;Node6 -->
<g id="edge7" class="edge"><title>Node7&#45;&gt;Node6</title>
<path fill="none" stroke="midnightblue" d="M375.344,-530.121C375.81,-513.163 376.33,-494.258 376.785,-477.699"/>
<polygon fill="none" stroke="midnightblue" points="371.838,-530.298 375.061,-540.391 378.835,-530.491 371.838,-530.298"/>
</g>
<!-- Node8 -->
<g id="node8" class="node"><title>Node8</title>
<polygon fill="none" stroke="#bfbfbf" points="255.5,-988.5 255.5,-1045.5 290.5,-1045.5 290.5,-988.5 255.5,-988.5"/>
<text text-anchor="middle" x="273" y="-1033.5" font-family="Helvetica,sans-Serif" font-size="10.00">bool</text>
<polyline fill="none" stroke="#bfbfbf" points="255.5,-1026.5 290.5,-1026.5 "/>
<text text-anchor="middle" x="273" y="-1014.5" font-family="Helvetica,sans-Serif" font-size="10.00"> </text>
<polyline fill="none" stroke="#bfbfbf" points="255.5,-1007.5 290.5,-1007.5 "/>
<text text-anchor="middle" x="273" y="-995.5" font-family="Helvetica,sans-Serif" font-size="10.00"> </text>
</g>
<!-- Node8&#45;&gt;Node1 -->
<g id="edge15" class="edge"><title>Node8&#45;&gt;Node1</title>
<path fill="none" stroke="#404040" d="M271.714,-988.398C271.569,-975.986 271.998,-961.191 274,-948 274.328,-945.839 274.687,-943.662 275.073,-941.473"/>
<polygon fill="none" stroke="#404040" points="275.075,-941.464 272.306,-934.806 277.387,-929.689 280.156,-936.347 275.075,-941.464"/>
<text text-anchor="middle" x="307" y="-956.5" font-family="Helvetica,sans-Serif" font-size="10.00"> &#45;wasCriticalHit</text>
</g>
<!-- Node9&#45;&gt;Node1 -->
<g id="edge16" class="edge"><title>Node9&#45;&gt;Node1</title>
<path fill="none" stroke="#404040" d="M422.178,-112.864C432.375,-214.577 449.396,-437.831 426,-624 420.478,-667.939 427.57,-682.274 408,-722 399.185,-739.895 386.671,-757.058 373.441,-772.341"/>
<polygon fill="none" stroke="#404040" points="373.147,-772.668 372.12,-779.805 365.137,-781.603 366.164,-774.465 373.147,-772.668"/>
<text text-anchor="middle" x="454.5" y="-430" font-family="Helvetica,sans-Serif" font-size="10.00"> &#45;player</text>
</g>
<!-- Node10&#45;&gt;Node9 -->
<g id="edge18" class="edge"><title>Node10&#45;&gt;Node9</title>
<path fill="none" stroke="#404040" d="M602.583,-642.242C606.326,-607.222 611,-554.233 611,-508 611,-508 611,-508 611,-238.5 611,-166.941 539.587,-115.705 483.193,-86.4019"/>
<polygon fill="none" stroke="#404040" points="482.857,-86.2328 475.699,-87.1058 472.14,-80.8341 479.299,-79.9611 482.857,-86.2328"/>
<text text-anchor="middle" x="623.5" y="-430" font-family="Helvetica,sans-Serif" font-size="10.00"> &#45;item</text>
</g>
</g>
</svg>
        <g id="navigator" transform="translate(0 0)" fill="#404254">
                <rect fill="#f2f5e9" fill-opacity="0.5" stroke="#606060" stroke-width=".5" x="0" y="0" width="60" height="60"/>
                <use id="zoomplus" xlink:href="#zoomPlus" x="17" y="9" onmousedown="handleZoom(evt,'in')"/>
                <use id="zoomminus" xlink:href="#zoomMin" x="42" y="9" onmousedown="handleZoom(evt,'out')"/>
                <use id="reset" xlink:href="#resetDef" x="30" y="36" onmousedown="handleReset()"/>
                <g id="arrowUp" xlink:href="#dirArrow" transform="translate(30 24)" onmousedown="handlePan(0,-1)">
                  <use xlink:href="#rim" fill="#404040">
                        <set attributeName="fill" to="#808080" begin="arrowUp.mouseover" end="arrowUp.mouseout"/>
                  </use>
                  <path fill="none" stroke="white" stroke-width="1.5" d="M0,-3.0v7 M-2.5,-0.5L0,-3.0L2.5,-0.5"/>
                </g>
                <g id="arrowRight" xlink:href="#dirArrow" transform="rotate(90) translate(36 -43)" onmousedown="handlePan(1,0)">
                  <use xlink:href="#rim" fill="#404040">
                        <set attributeName="fill" to="#808080" begin="arrowRight.mouseover" end="arrowRight.mouseout"/>
                  </use>
                  <path fill="none" stroke="white" stroke-width="1.5" d="M0,-3.0v7 M-2.5,-0.5L0,-3.0L2.5,-0.5"/>
                </g>
                <g id="arrowDown" xlink:href="#dirArrow" transform="rotate(180) translate(-30 -48)" onmousedown="handlePan(0,1)">
                  <use xlink:href="#rim" fill="#404040">
                        <set attributeName="fill" to="#808080" begin="arrowDown.mouseover" end="arrowDown.mouseout"/>
                  </use>
                  <path fill="none" stroke="white" stroke-width="1.5" d="M0,-3.0v7 M-2.5,-0.5L0,-3.0L2.5,-0.5"/>
                </g>
                <g id="arrowLeft" xlink:href="#dirArrow" transform="rotate(270) translate(-36 17)" onmousedown="handlePan(-1,0)">
                  <use xlink:href="#rim" fill="#404040">
                        <set attributeName="fill" to="#808080" begin="arrowLeft.mouseover" end="arrowLeft.mouseout"/>
                  </use>
                  <path fill="none" stroke="white" stroke-width="1.5" d="M0,-3.0v7 M-2.5,-0.5L0,-3.0L2.5,-0.5"/>
                </g>
        </g>
        <svg viewBox="0 0 15 15" width="100%" height="30px" preserveAspectRatio="xMaxYMin meet">
         <g id="arrow_out" transform="scale(0.3 0.3)">
          <a xlink:href="class_battle_manager__coll__graph_org.svg" target="_base">
           <rect id="button" ry="5" rx="5" y="6" x="6" height="38" width="38"
                fill="#f2f5e9" fill-opacity="0.5" stroke="#606060" stroke-width="1.0"/>
           <path id="arrow"
             d="M 11.500037,31.436501 C 11.940474,20.09759 22.043105,11.32322 32.158766,21.979434 L 37.068811,17.246167 C 37.068811,17.246167 37.088388,32 37.088388,32 L 22.160133,31.978069 C 22.160133,31.978069 26.997745,27.140456 26.997745,27.140456 C 18.528582,18.264221 13.291696,25.230495 11.500037,31.436501 z"
             style="fill:#404040;"/>
          </a>
         </g>
        </svg>
</svg>
