<?xml version="1.0" encoding="UTF-8" standalone="no"?>
<!DOCTYPE svg PUBLIC "-//W3C//DTD SVG 1.1//EN"
 "http://www.w3.org/Graphics/SVG/1.1/DTD/svg11.dtd">
<!-- Generated by graphviz version 2.38.0 (20140413.2041)
 -->
<!-- Title: IncreaseMoney Pages: 1 -->
<svg width="876pt" height="1028pt"
 viewBox="0.00 0.00 876.00 1028.00" xmlns="http://www.w3.org/2000/svg" xmlns:xlink="http://www.w3.org/1999/xlink">
<g id="graph0" class="graph" transform="scale(1 1) rotate(0) translate(4 1024)">
<title>IncreaseMoney</title>
<!-- Node3 -->
<g id="node1" class="node"><title>Node3</title>
<polygon fill="#bfbfbf" stroke="black" points="33,-607 33,-675 131,-675 131,-607 33,-607"/>
<text text-anchor="middle" x="82" y="-663" font-family="Helvetica,sans-Serif" font-size="10.00">IncreaseMoney</text>
<polyline fill="none" stroke="black" points="33,-656 131,-656 "/>
<text text-anchor="middle" x="82" y="-644" font-family="Helvetica,sans-Serif" font-size="10.00"> </text>
<polyline fill="none" stroke="black" points="33,-637 131,-637 "/>
<text text-anchor="start" x="41" y="-625" font-family="Helvetica,sans-Serif" font-size="10.00">+ IncreaseMoney()</text>
<text text-anchor="start" x="41" y="-614" font-family="Helvetica,sans-Serif" font-size="10.00">+ performMove()</text>
</g>
<!-- Node4 -->
<g id="node2" class="node"><title>Node4</title>
<g id="a_node2"><a xlink:href="class_special_move.html" target="_top" xlink:title="Special move abstract base class that expands upon CharacterMove, adding magic properties ...">
<polygon fill="none" stroke="black" points="82,-809.5 82,-899.5 180,-899.5 180,-809.5 82,-809.5"/>
<text text-anchor="middle" x="131" y="-887.5" font-family="Helvetica,sans-Serif" font-size="10.00">SpecialMove</text>
<polyline fill="none" stroke="black" points="82,-880.5 180,-880.5 "/>
<text text-anchor="start" x="90" y="-868.5" font-family="Helvetica,sans-Serif" font-size="10.00">+ Magic</text>
<text text-anchor="start" x="90" y="-857.5" font-family="Helvetica,sans-Serif" font-size="10.00">+ Desc</text>
<polyline fill="none" stroke="black" points="82,-850.5 180,-850.5 "/>
<text text-anchor="start" x="90" y="-838.5" font-family="Helvetica,sans-Serif" font-size="10.00">+ setUp()</text>
<text text-anchor="start" x="90" y="-827.5" font-family="Helvetica,sans-Serif" font-size="10.00">+ decreaseMagic()</text>
<text text-anchor="start" x="90" y="-816.5" font-family="Helvetica,sans-Serif" font-size="10.00"># SpecialMove()</text>
</a>
</g>
</g>
<!-- Node4&#45;&gt;Node3 -->
<g id="edge1" class="edge"><title>Node4&#45;&gt;Node3</title>
<path fill="none" stroke="midnightblue" d="M118.885,-799.521C116.302,-788.117 113.576,-776.159 111,-765 103.967,-734.537 95.778,-699.877 89.8992,-675.131"/>
<polygon fill="none" stroke="midnightblue" points="115.492,-800.384 121.111,-809.366 122.32,-798.841 115.492,-800.384"/>
</g>
<!-- Node7 -->
<g id="node5" class="node"><title>Node7</title>
<g id="a_node5"><a xlink:href="class_character.html" target="_top" xlink:title="Base abstract class for Enemy and Player to inherit from. Defines all shared variables, their constructor and their setters and getters ">
<polygon fill="none" stroke="black" points="343.5,-535.5 343.5,-746.5 438.5,-746.5 438.5,-535.5 343.5,-535.5"/>
<text text-anchor="middle" x="391" y="-734.5" font-family="Helvetica,sans-Serif" font-size="10.00">Character</text>
<polyline fill="none" stroke="black" points="343.5,-727.5 438.5,-727.5 "/>
<text text-anchor="start" x="351.5" y="-715.5" font-family="Helvetica,sans-Serif" font-size="10.00">+ Name</text>
<text text-anchor="start" x="351.5" y="-704.5" font-family="Helvetica,sans-Serif" font-size="10.00">+ Level</text>
<text text-anchor="start" x="351.5" y="-693.5" font-family="Helvetica,sans-Serif" font-size="10.00">+ Health</text>
<text text-anchor="start" x="351.5" y="-682.5" font-family="Helvetica,sans-Serif" font-size="10.00">+ Attack</text>
<text text-anchor="start" x="351.5" y="-671.5" font-family="Helvetica,sans-Serif" font-size="10.00">+ Defence</text>
<text text-anchor="start" x="351.5" y="-660.5" font-family="Helvetica,sans-Serif" font-size="10.00">+ MaximumMagic</text>
<text text-anchor="start" x="351.5" y="-649.5" font-family="Helvetica,sans-Serif" font-size="10.00">+ Magic</text>
<text text-anchor="start" x="351.5" y="-638.5" font-family="Helvetica,sans-Serif" font-size="10.00">+ Luck</text>
<text text-anchor="start" x="351.5" y="-627.5" font-family="Helvetica,sans-Serif" font-size="10.00">+ Speed</text>
<text text-anchor="start" x="351.5" y="-616.5" font-family="Helvetica,sans-Serif" font-size="10.00">+ Rage</text>
<text text-anchor="start" x="351.5" y="-605.5" font-family="Helvetica,sans-Serif" font-size="10.00">+ CanRage</text>
<text text-anchor="start" x="351.5" y="-594.5" font-family="Helvetica,sans-Serif" font-size="10.00">+ Special1</text>
<text text-anchor="start" x="351.5" y="-583.5" font-family="Helvetica,sans-Serif" font-size="10.00">+ Special2</text>
<text text-anchor="start" x="351.5" y="-572.5" font-family="Helvetica,sans-Serif" font-size="10.00">+ Image</text>
<polyline fill="none" stroke="black" points="343.5,-565.5 438.5,-565.5 "/>
<text text-anchor="start" x="351.5" y="-553.5" font-family="Helvetica,sans-Serif" font-size="10.00">+ IsEnraged()</text>
<text text-anchor="start" x="351.5" y="-542.5" font-family="Helvetica,sans-Serif" font-size="10.00"># Character()</text>
</a>
</g>
</g>
<!-- Node4&#45;&gt;Node7 -->
<g id="edge8" class="edge"><title>Node4&#45;&gt;Node7</title>
<path fill="none" stroke="#404040" d="M180.314,-811.5C183.222,-809.262 186.131,-807.081 189,-805 216.153,-785.306 222.441,-778.831 253,-765 278.364,-753.52 290.207,-762.987 313,-747 320.843,-741.499 328.22,-734.959 335.07,-727.873"/>
<polygon fill="none" stroke="#404040" points="335.39,-727.521 336.466,-720.39 343.462,-718.641 342.386,-725.772 335.39,-727.521"/>
<text text-anchor="middle" x="275.5" y="-779" font-family="Helvetica,sans-Serif" font-size="10.00"> #special1</text>
<text text-anchor="middle" x="275.5" y="-768" font-family="Helvetica,sans-Serif" font-size="10.00">#special2</text>
</g>
<!-- Node5 -->
<g id="node3" class="node"><title>Node5</title>
<g id="a_node3"><a xlink:href="class_character_move.html" target="_top" xlink:title="Astract base class for character moves ">
<polygon fill="none" stroke="black" points="201,-0.5 201,-79.5 287,-79.5 287,-0.5 201,-0.5"/>
<text text-anchor="middle" x="244" y="-67.5" font-family="Helvetica,sans-Serif" font-size="10.00">CharacterMove</text>
<polyline fill="none" stroke="black" points="201,-60.5 287,-60.5 "/>
<text text-anchor="start" x="209" y="-48.5" font-family="Helvetica,sans-Serif" font-size="10.00">+ User</text>
<text text-anchor="start" x="209" y="-37.5" font-family="Helvetica,sans-Serif" font-size="10.00">+ Target</text>
<text text-anchor="start" x="209" y="-26.5" font-family="Helvetica,sans-Serif" font-size="10.00">+ Text</text>
<polyline fill="none" stroke="black" points="201,-19.5 287,-19.5 "/>
<text text-anchor="start" x="209" y="-7.5" font-family="Helvetica,sans-Serif" font-size="10.00">+ performMove()</text>
</a>
</g>
</g>
<!-- Node5&#45;&gt;Node4 -->
<g id="edge2" class="edge"><title>Node5&#45;&gt;Node4</title>
<path fill="none" stroke="midnightblue" d="M208.601,-88.2691C186.031,-123.094 161,-172.621 161,-221 161,-642 161,-642 161,-642 161,-700.225 149.717,-766.582 140.99,-809.197"/>
<polygon fill="none" stroke="midnightblue" points="211.648,-90.0074 214.27,-79.7419 205.819,-86.1322 211.648,-90.0074"/>
</g>
<!-- Node6 -->
<g id="node4" class="node"><title>Node6</title>
<polygon fill="none" stroke="#bfbfbf" points="188.5,-962.5 188.5,-1019.5 229.5,-1019.5 229.5,-962.5 188.5,-962.5"/>
<text text-anchor="middle" x="209" y="-1007.5" font-family="Helvetica,sans-Serif" font-size="10.00">string</text>
<polyline fill="none" stroke="#bfbfbf" points="188.5,-1000.5 229.5,-1000.5 "/>
<text text-anchor="middle" x="209" y="-988.5" font-family="Helvetica,sans-Serif" font-size="10.00"> </text>
<polyline fill="none" stroke="#bfbfbf" points="188.5,-981.5 229.5,-981.5 "/>
<text text-anchor="middle" x="209" y="-969.5" font-family="Helvetica,sans-Serif" font-size="10.00"> </text>
</g>
<!-- Node6&#45;&gt;Node4 -->
<g id="edge23" class="edge"><title>Node6&#45;&gt;Node4</title>
<path fill="none" stroke="#404040" d="M188.447,-964.85C183.451,-958.248 178.311,-951.009 174,-944 167.557,-933.523 161.337,-921.939 155.724,-910.7"/>
<polygon fill="none" stroke="#404040" points="155.586,-910.415 149.361,-906.774 150.328,-899.628 156.552,-903.269 155.586,-910.415"/>
<text text-anchor="middle" x="189" y="-930.5" font-family="Helvetica,sans-Serif" font-size="10.00"> #desc</text>
</g>
<!-- Node6&#45;&gt;Node5 -->
<g id="edge3" class="edge"><title>Node6&#45;&gt;Node5</title>
<path fill="none" stroke="#404040" d="M188.196,-986.784C135.332,-977.313 0,-944.387 0,-855.5 0,-855.5 0,-855.5 0,-221 0,-127.504 117.451,-77.0986 189.378,-54.9964"/>
<polygon fill="none" stroke="#404040" points="189.435,-54.9795 194.049,-49.4378 200.939,-51.5656 196.325,-57.1073 189.435,-54.9795"/>
<text text-anchor="middle" x="12.5" y="-509" font-family="Helvetica,sans-Serif" font-size="10.00"> #text</text>
</g>
<!-- Node6&#45;&gt;Node7 -->
<g id="edge5" class="edge"><title>Node6&#45;&gt;Node7</title>
<path fill="none" stroke="#404040" d="M229.867,-985.053C250.573,-979.002 281.528,-966.646 298,-944 334.834,-893.361 303.406,-865.095 321,-805 325.922,-788.189 332.111,-770.803 338.763,-753.926"/>
<polygon fill="none" stroke="#404040" points="338.948,-753.468 337.48,-746.408 343.432,-742.337 344.9,-749.397 338.948,-753.468"/>
<text text-anchor="middle" x="337.5" y="-852" font-family="Helvetica,sans-Serif" font-size="10.00"> #name</text>
</g>
<!-- Node11 -->
<g id="node9" class="node"><title>Node11</title>
<g id="a_node9"><a xlink:href="class_battle_manager.html" target="_top" xlink:title="Holds current Player and Enemy objects in battle and provides functions for MainBattle and other obje...">
<polygon fill="none" stroke="black" points="545,-127.5 545,-316.5 661,-316.5 661,-127.5 545,-127.5"/>
<text text-anchor="middle" x="603" y="-304.5" font-family="Helvetica,sans-Serif" font-size="10.00">BattleManager</text>
<polyline fill="none" stroke="black" points="545,-297.5 661,-297.5 "/>
<text text-anchor="start" x="553" y="-285.5" font-family="Helvetica,sans-Serif" font-size="10.00">+ Player</text>
<text text-anchor="start" x="553" y="-274.5" font-family="Helvetica,sans-Serif" font-size="10.00">+ Enemy</text>
<text text-anchor="start" x="553" y="-263.5" font-family="Helvetica,sans-Serif" font-size="10.00">+ WasCriticalHit</text>
<polyline fill="none" stroke="black" points="545,-256.5 661,-256.5 "/>
<text text-anchor="start" x="553" y="-244.5" font-family="Helvetica,sans-Serif" font-size="10.00">+ BattleManager()</text>
<text text-anchor="start" x="553" y="-233.5" font-family="Helvetica,sans-Serif" font-size="10.00">+ playerFirst()</text>
<text text-anchor="start" x="553" y="-222.5" font-family="Helvetica,sans-Serif" font-size="10.00">+ switchPlayers()</text>
<text text-anchor="start" x="553" y="-211.5" font-family="Helvetica,sans-Serif" font-size="10.00">+ isCriticalHit()</text>
<text text-anchor="start" x="553" y="-200.5" font-family="Helvetica,sans-Serif" font-size="10.00">+ ranAway()</text>
<text text-anchor="start" x="553" y="-189.5" font-family="Helvetica,sans-Serif" font-size="10.00">+ damageCalculation()</text>
<text text-anchor="start" x="553" y="-178.5" font-family="Helvetica,sans-Serif" font-size="10.00">+ enemyMove()</text>
<text text-anchor="start" x="553" y="-167.5" font-family="Helvetica,sans-Serif" font-size="10.00">+ enemySpecialMove()</text>
<text text-anchor="start" x="553" y="-156.5" font-family="Helvetica,sans-Serif" font-size="10.00">+ battleWon()</text>
<text text-anchor="start" x="553" y="-145.5" font-family="Helvetica,sans-Serif" font-size="10.00">+ playerFainted()</text>
<text text-anchor="start" x="553" y="-134.5" font-family="Helvetica,sans-Serif" font-size="10.00">&#45; characterFainted()</text>
</a>
</g>
</g>
<!-- Node6&#45;&gt;Node11 -->
<g id="edge11" class="edge"><title>Node6&#45;&gt;Node11</title>
<path fill="none" stroke="#404040" d="M229.59,-988.876C306.949,-984.218 578.707,-963.784 636,-904 675.535,-862.746 656,-834.14 656,-777 656,-777 656,-777 656,-430.5 656,-396.724 649.326,-360.789 640.715,-328.482"/>
<polygon fill="none" stroke="#404040" points="640.669,-328.318 635.212,-323.605 637.463,-316.755 642.921,-321.468 640.669,-328.318"/>
<text text-anchor="middle" x="698" y="-644" font-family="Helvetica,sans-Serif" font-size="10.00"> +forceEnemyMove</text>
<text text-anchor="middle" x="698" y="-633" font-family="Helvetica,sans-Serif" font-size="10.00">+forceCriticalHits</text>
</g>
<!-- Node14 -->
<g id="node12" class="node"><title>Node14</title>
<g id="a_node12"><a xlink:href="class_item.html" target="_top" xlink:title="Abstract class for items that can be equipped to a player, increasing some of their stats ...">
<polygon fill="none" stroke="black" points="198.5,-809.5 198.5,-899.5 275.5,-899.5 275.5,-809.5 198.5,-809.5"/>
<text text-anchor="middle" x="237" y="-887.5" font-family="Helvetica,sans-Serif" font-size="10.00">Item</text>
<polyline fill="none" stroke="black" points="198.5,-880.5 275.5,-880.5 "/>
<text text-anchor="start" x="206.5" y="-868.5" font-family="Helvetica,sans-Serif" font-size="10.00">+ Name</text>
<text text-anchor="start" x="206.5" y="-857.5" font-family="Helvetica,sans-Serif" font-size="10.00">+ Desc</text>
<text text-anchor="start" x="206.5" y="-846.5" font-family="Helvetica,sans-Serif" font-size="10.00">+ Cost</text>
<polyline fill="none" stroke="black" points="198.5,-839.5 275.5,-839.5 "/>
<text text-anchor="start" x="206.5" y="-827.5" font-family="Helvetica,sans-Serif" font-size="10.00">+ applyBuffs()</text>
<text text-anchor="start" x="206.5" y="-816.5" font-family="Helvetica,sans-Serif" font-size="10.00">+ revertBuffs()</text>
</a>
</g>
</g>
<!-- Node6&#45;&gt;Node14 -->
<g id="edge20" class="edge"><title>Node6&#45;&gt;Node14</title>
<path fill="none" stroke="#404040" d="M207.104,-962.29C206.841,-949.857 207.347,-935.075 210,-922 210.732,-918.392 211.655,-914.731 212.715,-911.077"/>
<polygon fill="none" stroke="#404040" points="212.769,-910.911 210.832,-903.965 216.499,-899.506 218.436,-906.452 212.769,-910.911"/>
<text text-anchor="middle" x="225" y="-936" font-family="Helvetica,sans-Serif" font-size="10.00"> #desc</text>
<text text-anchor="middle" x="225" y="-925" font-family="Helvetica,sans-Serif" font-size="10.00">#name</text>
</g>
<!-- Node7&#45;&gt;Node5 -->
<g id="edge4" class="edge"><title>Node7&#45;&gt;Node5</title>
<path fill="none" stroke="#404040" d="M365.31,-535.32C333.425,-405.391 280.333,-189.052 256.386,-91.4723"/>
<polygon fill="none" stroke="#404040" points="256.338,-91.2738 251.023,-86.4001 253.478,-79.6196 258.792,-84.4933 256.338,-91.2738"/>
<text text-anchor="middle" x="338" y="-349" font-family="Helvetica,sans-Serif" font-size="10.00"> #target</text>
<text text-anchor="middle" x="338" y="-338" font-family="Helvetica,sans-Serif" font-size="10.00">#user</text>
</g>
<!-- Node12 -->
<g id="node10" class="node"><title>Node12</title>
<g id="a_node10"><a xlink:href="class_enemy.html" target="_top" xlink:title="Defines an AI controller enemy to fight in battle scenes">
<polygon fill="none" stroke="black" points="684.5,-403 684.5,-460 751.5,-460 751.5,-403 684.5,-403"/>
<text text-anchor="middle" x="718" y="-448" font-family="Helvetica,sans-Serif" font-size="10.00">Enemy</text>
<polyline fill="none" stroke="black" points="684.5,-441 751.5,-441 "/>
<text text-anchor="start" x="692.5" y="-429" font-family="Helvetica,sans-Serif" font-size="10.00">+ ExpGiven</text>
<polyline fill="none" stroke="black" points="684.5,-422 751.5,-422 "/>
<text text-anchor="start" x="692.5" y="-410" font-family="Helvetica,sans-Serif" font-size="10.00">+ Enemy()</text>
</a>
</g>
</g>
<!-- Node7&#45;&gt;Node12 -->
<g id="edge13" class="edge"><title>Node7&#45;&gt;Node12</title>
<path fill="none" stroke="midnightblue" d="M447.986,-612.935C494.81,-589.778 562.124,-554.345 617,-517 642.327,-499.764 668.812,-477.42 688.304,-460.038"/>
<polygon fill="none" stroke="midnightblue" points="446.334,-609.847 438.904,-617.4 449.422,-616.129 446.334,-609.847"/>
</g>
<!-- Node13 -->
<g id="node11" class="node"><title>Node13</title>
<g id="a_node11"><a xlink:href="class_player.html" target="_top" xlink:title="Defines a playable character for use in battle scenes">
<polygon fill="none" stroke="black" points="374,-375.5 374,-487.5 486,-487.5 486,-375.5 374,-375.5"/>
<text text-anchor="middle" x="430" y="-475.5" font-family="Helvetica,sans-Serif" font-size="10.00">Player</text>
<polyline fill="none" stroke="black" points="374,-468.5 486,-468.5 "/>
<text text-anchor="start" x="382" y="-456.5" font-family="Helvetica,sans-Serif" font-size="10.00">+ Exp</text>
<text text-anchor="start" x="382" y="-445.5" font-family="Helvetica,sans-Serif" font-size="10.00">+ Item</text>
<text text-anchor="start" x="382" y="-434.5" font-family="Helvetica,sans-Serif" font-size="10.00">+ ExpToNextLevel</text>
<polyline fill="none" stroke="black" points="374,-427.5 486,-427.5 "/>
<text text-anchor="start" x="382" y="-415.5" font-family="Helvetica,sans-Serif" font-size="10.00">+ Player()</text>
<text text-anchor="start" x="382" y="-404.5" font-family="Helvetica,sans-Serif" font-size="10.00">+ gainExp()</text>
<text text-anchor="start" x="382" y="-393.5" font-family="Helvetica,sans-Serif" font-size="10.00">+ levelUp()</text>
<text text-anchor="start" x="382" y="-382.5" font-family="Helvetica,sans-Serif" font-size="10.00">&#45; setExpToNextLevel()</text>
</a>
</g>
</g>
<!-- Node7&#45;&gt;Node13 -->
<g id="edge18" class="edge"><title>Node7&#45;&gt;Node13</title>
<path fill="none" stroke="midnightblue" d="M412.56,-525.29C415.022,-512.192 417.439,-499.33 419.653,-487.551"/>
<polygon fill="none" stroke="midnightblue" points="409.079,-524.864 410.671,-535.338 415.958,-526.157 409.079,-524.864"/>
</g>
<!-- Node8 -->
<g id="node6" class="node"><title>Node8</title>
<polygon fill="none" stroke="#bfbfbf" points="497.5,-962.5 497.5,-1019.5 526.5,-1019.5 526.5,-962.5 497.5,-962.5"/>
<text text-anchor="middle" x="512" y="-1007.5" font-family="Helvetica,sans-Serif" font-size="10.00">int</text>
<polyline fill="none" stroke="#bfbfbf" points="497.5,-1000.5 526.5,-1000.5 "/>
<text text-anchor="middle" x="512" y="-988.5" font-family="Helvetica,sans-Serif" font-size="10.00"> </text>
<polyline fill="none" stroke="#bfbfbf" points="497.5,-981.5 526.5,-981.5 "/>
<text text-anchor="middle" x="512" y="-969.5" font-family="Helvetica,sans-Serif" font-size="10.00"> </text>
</g>
<!-- Node8&#45;&gt;Node4 -->
<g id="edge24" class="edge"><title>Node8&#45;&gt;Node4</title>
<path fill="none" stroke="#404040" d="M497.322,-988.342C460.702,-983.925 362.675,-970.374 285,-944 263.92,-936.842 260.531,-930.608 240,-922 220.777,-913.94 212.247,-915.271 190.926,-904.427"/>
<polygon fill="none" stroke="#404040" points="190.666,-904.284 183.481,-904.903 180.146,-898.51 187.331,-897.89 190.666,-904.284"/>
<text text-anchor="middle" x="302.5" y="-930.5" font-family="Helvetica,sans-Serif" font-size="10.00"> #magic</text>
</g>
<!-- Node8&#45;&gt;Node7 -->
<g id="edge6" class="edge"><title>Node8&#45;&gt;Node7</title>
<path fill="none" stroke="#404040" d="M499.318,-962.389C491.835,-945.656 482.409,-923.788 475,-904 457.32,-856.782 439.939,-803.959 425.616,-758.181"/>
<polygon fill="none" stroke="#404040" points="425.609,-758.16 420.006,-753.62 422.042,-746.702 427.645,-751.242 425.609,-758.16"/>
<text text-anchor="middle" x="512.5" y="-896" font-family="Helvetica,sans-Serif" font-size="10.00"> #speed</text>
<text text-anchor="middle" x="512.5" y="-885" font-family="Helvetica,sans-Serif" font-size="10.00">#luck</text>
<text text-anchor="middle" x="512.5" y="-874" font-family="Helvetica,sans-Serif" font-size="10.00">#health</text>
<text text-anchor="middle" x="512.5" y="-863" font-family="Helvetica,sans-Serif" font-size="10.00">#magic</text>
<text text-anchor="middle" x="512.5" y="-852" font-family="Helvetica,sans-Serif" font-size="10.00">#maximumMagic</text>
<text text-anchor="middle" x="512.5" y="-841" font-family="Helvetica,sans-Serif" font-size="10.00">#attack</text>
<text text-anchor="middle" x="512.5" y="-830" font-family="Helvetica,sans-Serif" font-size="10.00">#defence</text>
<text text-anchor="middle" x="512.5" y="-819" font-family="Helvetica,sans-Serif" font-size="10.00">#level</text>
<text text-anchor="middle" x="512.5" y="-808" font-family="Helvetica,sans-Serif" font-size="10.00">#rage</text>
</g>
<!-- Node8&#45;&gt;Node11 -->
<g id="edge15" class="edge"><title>Node8&#45;&gt;Node11</title>
<path fill="none" stroke="#404040" d="M526.864,-990.527C589.536,-991.915 829,-988.518 829,-855.5 829,-855.5 829,-855.5 829,-430.5 829,-344.219 738.518,-284.05 672.057,-251.492"/>
<polygon fill="none" stroke="#404040" points="672.031,-251.48 664.893,-252.506 661.201,-246.312 668.338,-245.286 672.031,-251.48"/>
<text text-anchor="middle" x="848.5" y="-638.5" font-family="Helvetica,sans-Serif" font-size="10.00"> +money</text>
</g>
<!-- Node8&#45;&gt;Node12 -->
<g id="edge14" class="edge"><title>Node8&#45;&gt;Node12</title>
<path fill="none" stroke="#404040" d="M526.58,-985.532C556.973,-975.553 627.775,-948.748 670,-904 722.942,-847.895 727.149,-822.277 744,-747 764.583,-655.053 755.673,-628.496 744,-535 741.369,-513.929 735.808,-490.975 730.502,-472.14"/>
<polygon fill="none" stroke="#404040" points="730.443,-471.939 724.924,-467.299 727.085,-460.419 732.604,-465.06 730.443,-471.939"/>
<text text-anchor="middle" x="762" y="-773.5" font-family="Helvetica,sans-Serif" font-size="10.00"> &#45;expGiven</text>
</g>
<!-- Node8&#45;&gt;Node13 -->
<g id="edge22" class="edge"><title>Node8&#45;&gt;Node13</title>
<path fill="none" stroke="#404040" d="M526.612,-968.242C549.825,-930.701 588.736,-853.162 550,-805 526.615,-775.925 492.573,-815.078 468,-787 449.496,-765.857 450.468,-562.882 447,-535 445.579,-523.575 443.81,-511.475 441.954,-499.747"/>
<polygon fill="none" stroke="#404040" points="441.922,-499.549 437.013,-494.267 440,-487.704 444.91,-492.986 441.922,-499.549"/>
<text text-anchor="middle" x="505.5" y="-779" font-family="Helvetica,sans-Serif" font-size="10.00"> &#45;expToNextLevel</text>
<text text-anchor="middle" x="505.5" y="-768" font-family="Helvetica,sans-Serif" font-size="10.00">&#45;exp</text>
</g>
<!-- Node8&#45;&gt;Node14 -->
<g id="edge21" class="edge"><title>Node8&#45;&gt;Node14</title>
<path fill="none" stroke="#404040" d="M497.382,-986.37C460.562,-976.809 361.823,-948.564 290,-904 288.477,-903.055 286.957,-902.063 285.446,-901.032"/>
<polygon fill="none" stroke="#404040" points="285.278,-900.907 278.076,-900.546 275.64,-893.758 282.842,-894.12 285.278,-900.907"/>
<text text-anchor="middle" x="380" y="-930.5" font-family="Helvetica,sans-Serif" font-size="10.00"> #cost</text>
</g>
<!-- Node9 -->
<g id="node7" class="node"><title>Node9</title>
<polygon fill="none" stroke="#bfbfbf" points="592.5,-826 592.5,-883 627.5,-883 627.5,-826 592.5,-826"/>
<text text-anchor="middle" x="610" y="-871" font-family="Helvetica,sans-Serif" font-size="10.00">bool</text>
<polyline fill="none" stroke="#bfbfbf" points="592.5,-864 627.5,-864 "/>
<text text-anchor="middle" x="610" y="-852" font-family="Helvetica,sans-Serif" font-size="10.00"> </text>
<polyline fill="none" stroke="#bfbfbf" points="592.5,-845 627.5,-845 "/>
<text text-anchor="middle" x="610" y="-833" font-family="Helvetica,sans-Serif" font-size="10.00"> </text>
</g>
<!-- Node9&#45;&gt;Node7 -->
<g id="edge7" class="edge"><title>Node9&#45;&gt;Node7</title>
<path fill="none" stroke="#404040" d="M593.108,-825.638C581.362,-807.392 564.687,-783.576 547,-765 517.278,-733.784 479.397,-703.733 448.407,-681.148"/>
<polygon fill="none" stroke="#404040" points="448.342,-681.101 441.136,-680.839 438.607,-674.086 445.813,-674.348 448.342,-681.101"/>
<text text-anchor="middle" x="588.5" y="-773.5" font-family="Helvetica,sans-Serif" font-size="10.00"> #canRage</text>
</g>
<!-- Node9&#45;&gt;Node11 -->
<g id="edge16" class="edge"><title>Node9&#45;&gt;Node11</title>
<path fill="none" stroke="#404040" d="M613.957,-825.981C615.953,-808.506 617.636,-785.416 616,-765 606.697,-648.896 570.463,-622.344 576,-506 578.797,-447.228 584.844,-381.824 590.508,-328.709"/>
<polygon fill="none" stroke="#404040" points="590.535,-328.46 587.202,-322.065 591.823,-316.529 595.156,-322.924 590.535,-328.46"/>
<text text-anchor="middle" x="609" y="-509" font-family="Helvetica,sans-Serif" font-size="10.00"> &#45;wasCriticalHit</text>
</g>
<!-- Node10 -->
<g id="node8" class="node"><title>Node10</title>
<polygon fill="none" stroke="#bfbfbf" points="363.5,-826 363.5,-883 424.5,-883 424.5,-826 363.5,-826"/>
<text text-anchor="middle" x="394" y="-871" font-family="Helvetica,sans-Serif" font-size="10.00">Texture2D</text>
<polyline fill="none" stroke="#bfbfbf" points="363.5,-864 424.5,-864 "/>
<text text-anchor="middle" x="394" y="-852" font-family="Helvetica,sans-Serif" font-size="10.00"> </text>
<polyline fill="none" stroke="#bfbfbf" points="363.5,-845 424.5,-845 "/>
<text text-anchor="middle" x="394" y="-833" font-family="Helvetica,sans-Serif" font-size="10.00"> </text>
</g>
<!-- Node10&#45;&gt;Node7 -->
<g id="edge9" class="edge"><title>Node10&#45;&gt;Node7</title>
<path fill="none" stroke="#404040" d="M391.442,-825.701C390.468,-813.794 389.478,-799.727 389,-787 388.655,-777.802 388.449,-768.273 388.35,-758.696"/>
<polygon fill="none" stroke="#404040" points="388.349,-758.56 384.314,-752.584 388.278,-746.56 392.314,-752.537 388.349,-758.56"/>
<text text-anchor="middle" x="406.5" y="-773.5" font-family="Helvetica,sans-Serif" font-size="10.00"> #image</text>
</g>
<!-- Node11&#45;&gt;Node5 -->
<g id="edge10" class="edge"><title>Node11&#45;&gt;Node5</title>
<path fill="none" stroke="#404040" d="M544.921,-191.88C476.731,-157.69 364.529,-101.432 298.105,-68.1279"/>
<polygon fill="none" stroke="#404040" points="297.781,-67.9655 290.625,-68.852 287.054,-62.587 294.21,-61.7005 297.781,-67.9655"/>
<text text-anchor="middle" x="394" y="-101" font-family="Helvetica,sans-Serif" font-size="10.00"> #manager</text>
</g>
<!-- Node12&#45;&gt;Node11 -->
<g id="edge12" class="edge"><title>Node12&#45;&gt;Node11</title>
<path fill="none" stroke="#404040" d="M704.667,-402.639C695.316,-383.441 682.331,-357.443 670,-335 668.544,-332.35 667.058,-329.672 665.549,-326.977"/>
<polygon fill="none" stroke="#404040" points="665.537,-326.955 659.1,-323.703 659.627,-316.511 666.063,-319.763 665.537,-326.955"/>
<text text-anchor="middle" x="699" y="-343.5" font-family="Helvetica,sans-Serif" font-size="10.00"> &#45;enemy</text>
</g>
<!-- Node13&#45;&gt;Node11 -->
<g id="edge17" class="edge"><title>Node13&#45;&gt;Node11</title>
<path fill="none" stroke="#404040" d="M470.986,-375.396C481.246,-362.02 492.363,-347.868 503,-335 513.624,-322.147 525.184,-308.723 536.547,-295.818"/>
<polygon fill="none" stroke="#404040" points="536.817,-295.513 537.798,-288.369 544.77,-286.527 543.789,-293.671 536.817,-295.513"/>
<text text-anchor="middle" x="519.5" y="-343.5" font-family="Helvetica,sans-Serif" font-size="10.00"> &#45;player</text>
</g>
<!-- Node14&#45;&gt;Node13 -->
<g id="edge19" class="edge"><title>Node14&#45;&gt;Node13</title>
<path fill="none" stroke="#404040" d="M261.301,-809.209C264.608,-801.94 267.662,-794.371 270,-787 304.259,-678.969 253.598,-633.869 309,-535 322.245,-511.364 343.189,-490.752 363.954,-474.333"/>
<polygon fill="none" stroke="#404040" points="364.229,-474.124 366.579,-467.306 373.776,-466.852 371.426,-473.67 364.229,-474.124"/>
<text text-anchor="middle" x="321.5" y="-638.5" font-family="Helvetica,sans-Serif" font-size="10.00"> &#45;item</text>
</g>
<!-- Node15 -->
<g id="node13" class="node"><title>Node15</title>
<polygon fill="none" stroke="#bfbfbf" points="28.5,-826 28.5,-883 63.5,-883 63.5,-826 28.5,-826"/>
<text text-anchor="middle" x="46" y="-871" font-family="Helvetica,sans-Serif" font-size="10.00">float</text>
<polyline fill="none" stroke="#bfbfbf" points="28.5,-864 63.5,-864 "/>
<text text-anchor="middle" x="46" y="-852" font-family="Helvetica,sans-Serif" font-size="10.00"> </text>
<polyline fill="none" stroke="#bfbfbf" points="28.5,-845 63.5,-845 "/>
<text text-anchor="middle" x="46" y="-833" font-family="Helvetica,sans-Serif" font-size="10.00"> </text>
</g>
<!-- Node15&#45;&gt;Node3 -->
<g id="edge25" class="edge"><title>Node15&#45;&gt;Node3</title>
<path fill="none" stroke="#404040" d="M50.7064,-825.85C56.7083,-790.589 67.1657,-729.152 74.3271,-687.078"/>
<polygon fill="none" stroke="#404040" points="74.3304,-687.058 71.3939,-680.472 76.3441,-675.229 79.2805,-681.815 74.3304,-687.058"/>
<text text-anchor="middle" x="84" y="-773.5" font-family="Helvetica,sans-Serif" font-size="10.00"> +increase</text>
</g>
</g>
</svg>
