<?xml version="1.0" encoding="UTF-8" standalone="no"?>
<!DOCTYPE svg PUBLIC "-//W3C//DTD SVG 1.1//EN"
 "http://www.w3.org/Graphics/SVG/1.1/DTD/svg11.dtd">
<!-- Generated by graphviz version 2.38.0 (20140413.2041)
 -->
<!-- Title: DataManager.StoredData.SpecialMove Pages: 1 -->
<svg width="1218pt" height="193pt"
 viewBox="0.00 0.00 1217.50 193.00" xmlns="http://www.w3.org/2000/svg" xmlns:xlink="http://www.w3.org/1999/xlink">
<g id="graph0" class="graph" transform="scale(1 1) rotate(0) translate(4 189)">
<title>DataManager.StoredData.SpecialMove</title>
<!-- Node0 -->
<g id="node1" class="node"><title>Node0</title>
<polygon fill="#bfbfbf" stroke="black" points="522.5,-105.5 522.5,-184.5 706.5,-184.5 706.5,-105.5 522.5,-105.5"/>
<text text-anchor="middle" x="614.5" y="-172.5" font-family="Helvetica,sans-Serif" font-size="10.00">DataManager.StoredData.SpecialMove</text>
<polyline fill="none" stroke="black" points="522.5,-165.5 706.5,-165.5 "/>
<text text-anchor="start" x="530.5" y="-153.5" font-family="Helvetica,sans-Serif" font-size="10.00">+ text</text>
<text text-anchor="start" x="530.5" y="-142.5" font-family="Helvetica,sans-Serif" font-size="10.00">+ desc</text>
<text text-anchor="start" x="530.5" y="-131.5" font-family="Helvetica,sans-Serif" font-size="10.00">+ magic</text>
<polyline fill="none" stroke="black" points="522.5,-124.5 706.5,-124.5 "/>
<text text-anchor="middle" x="614.5" y="-112.5" font-family="Helvetica,sans-Serif" font-size="10.00"> </text>
</g>
<!-- Node1 -->
<g id="node2" class="node"><title>Node1</title>
<g id="a_node2"><a xlink:href="class_data_manager_1_1_stored_data_1_1_healing_spell.html" target="_top" xlink:title="{DataManager.StoredData.Healing\lSpell\n|+ increase\l|}">
<polygon fill="none" stroke="black" points="0,-0.5 0,-68.5 161,-68.5 161,-0.5 0,-0.5"/>
<text text-anchor="start" x="8" y="-56.5" font-family="Helvetica,sans-Serif" font-size="10.00">DataManager.StoredData.Healing</text>
<text text-anchor="middle" x="80.5" y="-45.5" font-family="Helvetica,sans-Serif" font-size="10.00">Spell</text>
<polyline fill="none" stroke="black" points="0,-38.5 161,-38.5 "/>
<text text-anchor="start" x="8" y="-26.5" font-family="Helvetica,sans-Serif" font-size="10.00">+ increase</text>
<polyline fill="none" stroke="black" points="0,-19.5 161,-19.5 "/>
<text text-anchor="middle" x="80.5" y="-7.5" font-family="Helvetica,sans-Serif" font-size="10.00"> </text>
</a>
</g>
</g>
<!-- Node0&#45;&gt;Node1 -->
<g id="edge1" class="edge"><title>Node0&#45;&gt;Node1</title>
<path fill="none" stroke="midnightblue" d="M512.415,-132.331C421.657,-120.642 285.86,-99.9152 170.5,-69 167.44,-68.18 164.339,-67.2972 161.219,-66.3654"/>
<polygon fill="none" stroke="midnightblue" points="512.066,-135.814 522.428,-133.607 512.951,-128.871 512.066,-135.814"/>
</g>
<!-- Node2 -->
<g id="node3" class="node"><title>Node2</title>
<g id="a_node3"><a xlink:href="class_data_manager_1_1_stored_data_1_1_increase_money.html" target="_top" xlink:title="{DataManager.StoredData.Increase\lMoney\n|+ increase\l|}">
<polygon fill="none" stroke="black" points="179.5,-0.5 179.5,-68.5 345.5,-68.5 345.5,-0.5 179.5,-0.5"/>
<text text-anchor="start" x="187.5" y="-56.5" font-family="Helvetica,sans-Serif" font-size="10.00">DataManager.StoredData.Increase</text>
<text text-anchor="middle" x="262.5" y="-45.5" font-family="Helvetica,sans-Serif" font-size="10.00">Money</text>
<polyline fill="none" stroke="black" points="179.5,-38.5 345.5,-38.5 "/>
<text text-anchor="start" x="187.5" y="-26.5" font-family="Helvetica,sans-Serif" font-size="10.00">+ increase</text>
<polyline fill="none" stroke="black" points="179.5,-19.5 345.5,-19.5 "/>
<text text-anchor="middle" x="262.5" y="-7.5" font-family="Helvetica,sans-Serif" font-size="10.00"> </text>
</a>
</g>
</g>
<!-- Node0&#45;&gt;Node2 -->
<g id="edge2" class="edge"><title>Node0&#45;&gt;Node2</title>
<path fill="none" stroke="midnightblue" d="M512.479,-116.312C464.329,-102.801 406.213,-85.852 354.5,-69 351.591,-68.052 348.636,-67.0717 345.656,-66.0683"/>
<polygon fill="none" stroke="midnightblue" points="511.71,-119.732 522.283,-119.055 513.596,-112.99 511.71,-119.732"/>
</g>
<!-- Node3 -->
<g id="node4" class="node"><title>Node3</title>
<g id="a_node4"><a xlink:href="class_data_manager_1_1_stored_data_1_1_lower_defence.html" target="_top" xlink:title="{DataManager.StoredData.Lower\lDefence\n|+ decrease\l|}">
<polygon fill="none" stroke="black" points="364,-0.5 364,-68.5 519,-68.5 519,-0.5 364,-0.5"/>
<text text-anchor="start" x="372" y="-56.5" font-family="Helvetica,sans-Serif" font-size="10.00">DataManager.StoredData.Lower</text>
<text text-anchor="middle" x="441.5" y="-45.5" font-family="Helvetica,sans-Serif" font-size="10.00">Defence</text>
<polyline fill="none" stroke="black" points="364,-38.5 519,-38.5 "/>
<text text-anchor="start" x="372" y="-26.5" font-family="Helvetica,sans-Serif" font-size="10.00">+ decrease</text>
<polyline fill="none" stroke="black" points="364,-19.5 519,-19.5 "/>
<text text-anchor="middle" x="441.5" y="-7.5" font-family="Helvetica,sans-Serif" font-size="10.00"> </text>
</a>
</g>
</g>
<!-- Node0&#45;&gt;Node3 -->
<g id="edge3" class="edge"><title>Node0&#45;&gt;Node3</title>
<path fill="none" stroke="midnightblue" d="M544.351,-100.005C527.6,-89.4989 509.999,-78.4604 494.188,-68.5439"/>
<polygon fill="none" stroke="midnightblue" points="542.688,-103.093 553.02,-105.441 546.407,-97.1631 542.688,-103.093"/>
</g>
<!-- Node4 -->
<g id="node5" class="node"><title>Node4</title>
<g id="a_node5"><a xlink:href="class_data_manager_1_1_stored_data_1_1_lower_speed.html" target="_top" xlink:title="{DataManager.StoredData.Lower\lSpeed\n|+ decrease\l|}">
<polygon fill="none" stroke="black" points="537,-0.5 537,-68.5 692,-68.5 692,-0.5 537,-0.5"/>
<text text-anchor="start" x="545" y="-56.5" font-family="Helvetica,sans-Serif" font-size="10.00">DataManager.StoredData.Lower</text>
<text text-anchor="middle" x="614.5" y="-45.5" font-family="Helvetica,sans-Serif" font-size="10.00">Speed</text>
<polyline fill="none" stroke="black" points="537,-38.5 692,-38.5 "/>
<text text-anchor="start" x="545" y="-26.5" font-family="Helvetica,sans-Serif" font-size="10.00">+ decrease</text>
<polyline fill="none" stroke="black" points="537,-19.5 692,-19.5 "/>
<text text-anchor="middle" x="614.5" y="-7.5" font-family="Helvetica,sans-Serif" font-size="10.00"> </text>
</a>
</g>
</g>
<!-- Node0&#45;&gt;Node4 -->
<g id="edge4" class="edge"><title>Node0&#45;&gt;Node4</title>
<path fill="none" stroke="midnightblue" d="M614.5,-95.3492C614.5,-86.2824 614.5,-77.0048 614.5,-68.5439"/>
<polygon fill="none" stroke="midnightblue" points="611,-95.4414 614.5,-105.441 618,-95.4415 611,-95.4414"/>
</g>
<!-- Node5 -->
<g id="node6" class="node"><title>Node5</title>
<g id="a_node6"><a xlink:href="class_data_manager_1_1_stored_data_1_1_magic_attack.html" target="_top" xlink:title="{DataManager.StoredData.Magic\lAttack\n|+ power\l|}">
<polygon fill="none" stroke="black" points="710,-0.5 710,-68.5 865,-68.5 865,-0.5 710,-0.5"/>
<text text-anchor="start" x="718" y="-56.5" font-family="Helvetica,sans-Serif" font-size="10.00">DataManager.StoredData.Magic</text>
<text text-anchor="middle" x="787.5" y="-45.5" font-family="Helvetica,sans-Serif" font-size="10.00">Attack</text>
<polyline fill="none" stroke="black" points="710,-38.5 865,-38.5 "/>
<text text-anchor="start" x="718" y="-26.5" font-family="Helvetica,sans-Serif" font-size="10.00">+ power</text>
<polyline fill="none" stroke="black" points="710,-19.5 865,-19.5 "/>
<text text-anchor="middle" x="787.5" y="-7.5" font-family="Helvetica,sans-Serif" font-size="10.00"> </text>
</a>
</g>
</g>
<!-- Node0&#45;&gt;Node5 -->
<g id="edge5" class="edge"><title>Node0&#45;&gt;Node5</title>
<path fill="none" stroke="midnightblue" d="M684.649,-100.005C701.4,-89.4989 719.001,-78.4604 734.812,-68.5439"/>
<polygon fill="none" stroke="midnightblue" points="682.593,-97.1631 675.98,-105.441 686.312,-103.093 682.593,-97.1631"/>
</g>
<!-- Node6 -->
<g id="node7" class="node"><title>Node6</title>
<g id="a_node7"><a xlink:href="class_data_manager_1_1_stored_data_1_1_raise_attack.html" target="_top" xlink:title="{DataManager.StoredData.Raise\lAttack\n|+ increase\l|}">
<polygon fill="none" stroke="black" points="883.5,-0.5 883.5,-68.5 1037.5,-68.5 1037.5,-0.5 883.5,-0.5"/>
<text text-anchor="start" x="891.5" y="-56.5" font-family="Helvetica,sans-Serif" font-size="10.00">DataManager.StoredData.Raise</text>
<text text-anchor="middle" x="960.5" y="-45.5" font-family="Helvetica,sans-Serif" font-size="10.00">Attack</text>
<polyline fill="none" stroke="black" points="883.5,-38.5 1037.5,-38.5 "/>
<text text-anchor="start" x="891.5" y="-26.5" font-family="Helvetica,sans-Serif" font-size="10.00">+ increase</text>
<polyline fill="none" stroke="black" points="883.5,-19.5 1037.5,-19.5 "/>
<text text-anchor="middle" x="960.5" y="-7.5" font-family="Helvetica,sans-Serif" font-size="10.00"> </text>
</a>
</g>
</g>
<!-- Node0&#45;&gt;Node6 -->
<g id="edge6" class="edge"><title>Node0&#45;&gt;Node6</title>
<path fill="none" stroke="midnightblue" d="M716.401,-116.91C764.645,-103.499 822.873,-86.4614 874.5,-69 877.384,-68.0246 880.314,-67.0094 883.266,-65.9658"/>
<polygon fill="none" stroke="midnightblue" points="715.281,-113.589 706.577,-119.63 717.148,-120.335 715.281,-113.589"/>
</g>
<!-- Node7 -->
<g id="node8" class="node"><title>Node7</title>
<g id="a_node8"><a xlink:href="class_data_manager_1_1_stored_data_1_1_raise_defence.html" target="_top" xlink:title="{DataManager.StoredData.Raise\lDefence\n|+ increase\l|}">
<polygon fill="none" stroke="black" points="1055.5,-0.5 1055.5,-68.5 1209.5,-68.5 1209.5,-0.5 1055.5,-0.5"/>
<text text-anchor="start" x="1063.5" y="-56.5" font-family="Helvetica,sans-Serif" font-size="10.00">DataManager.StoredData.Raise</text>
<text text-anchor="middle" x="1132.5" y="-45.5" font-family="Helvetica,sans-Serif" font-size="10.00">Defence</text>
<polyline fill="none" stroke="black" points="1055.5,-38.5 1209.5,-38.5 "/>
<text text-anchor="start" x="1063.5" y="-26.5" font-family="Helvetica,sans-Serif" font-size="10.00">+ increase</text>
<polyline fill="none" stroke="black" points="1055.5,-19.5 1209.5,-19.5 "/>
<text text-anchor="middle" x="1132.5" y="-7.5" font-family="Helvetica,sans-Serif" font-size="10.00"> </text>
</a>
</g>
</g>
<!-- Node0&#45;&gt;Node7 -->
<g id="edge7" class="edge"><title>Node0&#45;&gt;Node7</title>
<path fill="none" stroke="midnightblue" d="M716.72,-132.106C805.068,-120.443 935.644,-99.8802 1046.5,-69 1049.43,-68.183 1052.4,-67.3028 1055.39,-66.3732"/>
<polygon fill="none" stroke="midnightblue" points="716.16,-128.649 706.697,-133.415 717.066,-135.59 716.16,-128.649"/>
</g>
</g>
</svg>
