<?xml version="1.0" encoding="UTF-8" standalone="no"?>
<!DOCTYPE svg PUBLIC "-//W3C//DTD SVG 1.1//EN"
 "http://www.w3.org/Graphics/SVG/1.1/DTD/svg11.dtd">
<!-- Generated by graphviz version 2.38.0 (20140413.2041)
 -->
<!-- Title: QuestObjectives.ReachLevel Pages: 1 -->
<svg width="160pt" height="485pt"
 viewBox="0.00 0.00 160.00 485.00" xmlns="http://www.w3.org/2000/svg" xmlns:xlink="http://www.w3.org/1999/xlink">
<g id="graph0" class="graph" transform="scale(1 1) rotate(0) translate(4 481)">
<title>QuestObjectives.ReachLevel</title>
<!-- Node0 -->
<g id="node1" class="node"><title>Node0</title>
<polygon fill="#bfbfbf" stroke="black" points="6,-0.5 6,-112.5 146,-112.5 146,-0.5 6,-0.5"/>
<text text-anchor="middle" x="76" y="-100.5" font-family="Helvetica,sans-Serif" font-size="10.00">QuestObjectives.ReachLevel</text>
<polyline fill="none" stroke="black" points="6,-93.5 146,-93.5 "/>
<text text-anchor="start" x="14" y="-81.5" font-family="Helvetica,sans-Serif" font-size="10.00">&#45; level</text>
<polyline fill="none" stroke="black" points="6,-74.5 146,-74.5 "/>
<text text-anchor="start" x="14" y="-62.5" font-family="Helvetica,sans-Serif" font-size="10.00">+ ReachLevel()</text>
<text text-anchor="start" x="14" y="-51.5" font-family="Helvetica,sans-Serif" font-size="10.00">+ GetObjectData()</text>
<text text-anchor="start" x="14" y="-40.5" font-family="Helvetica,sans-Serif" font-size="10.00"># subscribeHandlers()</text>
<text text-anchor="start" x="14" y="-29.5" font-family="Helvetica,sans-Serif" font-size="10.00"># unsubscribeHandlers()</text>
<text text-anchor="start" x="14" y="-18.5" font-family="Helvetica,sans-Serif" font-size="10.00"># ReachLevel()</text>
<text text-anchor="start" x="14" y="-7.5" font-family="Helvetica,sans-Serif" font-size="10.00">&#45; OnLevelUp()</text>
</g>
<!-- Node1 -->
<g id="node2" class="node"><title>Node1</title>
<g id="a_node2"><a xlink:href="class_quest_objective.html" target="_top" xlink:title="Base quest objective class to be extended by actual quest objectives ">
<polygon fill="none" stroke="black" points="13.5,-149.5 13.5,-371.5 138.5,-371.5 138.5,-149.5 13.5,-149.5"/>
<text text-anchor="middle" x="76" y="-359.5" font-family="Helvetica,sans-Serif" font-size="10.00">QuestObjective</text>
<polyline fill="none" stroke="black" points="13.5,-352.5 138.5,-352.5 "/>
<text text-anchor="start" x="21.5" y="-340.5" font-family="Helvetica,sans-Serif" font-size="10.00">+ description</text>
<text text-anchor="start" x="21.5" y="-329.5" font-family="Helvetica,sans-Serif" font-size="10.00">+ State</text>
<text text-anchor="start" x="21.5" y="-318.5" font-family="Helvetica,sans-Serif" font-size="10.00">&#45; state</text>
<polyline fill="none" stroke="black" points="13.5,-311.5 138.5,-311.5 "/>
<text text-anchor="start" x="21.5" y="-299.5" font-family="Helvetica,sans-Serif" font-size="10.00">+ ObjectiveCallback()</text>
<text text-anchor="start" x="21.5" y="-288.5" font-family="Helvetica,sans-Serif" font-size="10.00">+ isComplete()</text>
<text text-anchor="start" x="21.5" y="-277.5" font-family="Helvetica,sans-Serif" font-size="10.00">+ isFailed()</text>
<text text-anchor="start" x="21.5" y="-266.5" font-family="Helvetica,sans-Serif" font-size="10.00">+ inProgress()</text>
<text text-anchor="start" x="21.5" y="-255.5" font-family="Helvetica,sans-Serif" font-size="10.00">+ GetObjectData()</text>
<text text-anchor="start" x="21.5" y="-244.5" font-family="Helvetica,sans-Serif" font-size="10.00"># QuestObjective()</text>
<text text-anchor="start" x="21.5" y="-233.5" font-family="Helvetica,sans-Serif" font-size="10.00"># setComplete()</text>
<text text-anchor="start" x="21.5" y="-222.5" font-family="Helvetica,sans-Serif" font-size="10.00"># setFailed()</text>
<text text-anchor="start" x="21.5" y="-211.5" font-family="Helvetica,sans-Serif" font-size="10.00"># subscribeHandlers()</text>
<text text-anchor="start" x="21.5" y="-200.5" font-family="Helvetica,sans-Serif" font-size="10.00"># unsubscribeHandlers()</text>
<text text-anchor="start" x="21.5" y="-189.5" font-family="Helvetica,sans-Serif" font-size="10.00"># QuestObjective()</text>
<text text-anchor="start" x="21.5" y="-178.5" font-family="Helvetica,sans-Serif" font-size="10.00"># dispose()</text>
<text text-anchor="start" x="21.5" y="-167.5" font-family="Helvetica,sans-Serif" font-size="10.00">&#45; setState()</text>
<text text-anchor="start" x="21.5" y="-156.5" font-family="Helvetica,sans-Serif" font-size="10.00">&#45; OnExitedToMainMenu()</text>
</a>
</g>
</g>
<!-- Node1&#45;&gt;Node0 -->
<g id="edge1" class="edge"><title>Node1&#45;&gt;Node0</title>
<path fill="none" stroke="midnightblue" d="M76,-139.243C76,-130.006 76,-120.992 76,-112.525"/>
<polygon fill="none" stroke="midnightblue" points="72.5001,-139.338 76,-149.338 79.5001,-139.338 72.5001,-139.338"/>
</g>
<!-- Node2 -->
<g id="node3" class="node"><title>Node2</title>
<polygon fill="none" stroke="#bfbfbf" points="0,-408.5 0,-476.5 152,-476.5 152,-408.5 0,-408.5"/>
<text text-anchor="start" x="8" y="-464.5" font-family="Helvetica,sans-Serif" font-size="10.00">System::Runtime::Serialization</text>
<text text-anchor="middle" x="76" y="-453.5" font-family="Helvetica,sans-Serif" font-size="10.00">::ISerializable</text>
<polyline fill="none" stroke="#bfbfbf" points="0,-446.5 152,-446.5 "/>
<text text-anchor="middle" x="76" y="-434.5" font-family="Helvetica,sans-Serif" font-size="10.00"> </text>
<polyline fill="none" stroke="#bfbfbf" points="0,-427.5 152,-427.5 "/>
<text text-anchor="middle" x="76" y="-415.5" font-family="Helvetica,sans-Serif" font-size="10.00"> </text>
</g>
<!-- Node2&#45;&gt;Node1 -->
<g id="edge2" class="edge"><title>Node2&#45;&gt;Node1</title>
<path fill="none" stroke="midnightblue" d="M76,-398.349C76,-390.006 76,-380.919 76,-371.525"/>
<polygon fill="none" stroke="midnightblue" points="72.5001,-398.485 76,-408.485 79.5001,-398.485 72.5001,-398.485"/>
</g>
</g>
</svg>
