<?xml version="1.0" encoding="UTF-8" standalone="no"?>
<!DOCTYPE svg PUBLIC "-//W3C//DTD SVG 1.1//EN"
 "http://www.w3.org/Graphics/SVG/1.1/DTD/svg11.dtd">
<!-- Generated by graphviz version 2.38.0 (20140413.2041)
 -->
<!-- Title: DuckAI Pages: 1 -->
<!--zoomable 667 -->
<svg id="main" version="1.1" xmlns="http://www.w3.org/2000/svg" xmlns:xlink="http://www.w3.org/1999/xlink" xml:space="preserve" onload="init(evt)">
<style type="text/css"><![CDATA[
.edge:hover path { stroke: red; }
.edge:hover polygon { stroke: red; fill: red; }
]]></style>
<script type="text/javascript"><![CDATA[
var edges = document.getElementsByTagName('g');
if (edges && edges.length) {
  for (var i=0;i<edges.length;i++) {
    if (edges[i].id.substr(0,4)=='edge') {
      edges[i].setAttribute('class','edge');
    }
  }
}
]]></script>
        <defs>
                <circle id="rim" cx="0" cy="0" r="7"/>
                <circle id="rim2" cx="0" cy="0" r="3.5"/>
                <g id="zoomPlus">
                        <use xlink:href="#rim" fill="#404040">
                                <set attributeName="fill" to="#808080" begin="zoomplus.mouseover" end="zoomplus.mouseout"/>
                        </use>
                        <path d="M-4,0h8M0,-4v8" fill="none" stroke="white" stroke-width="1.5" pointer-events="none"/>
                </g>
                <g id="zoomMin">
                        <use xlink:href="#rim" fill="#404040">
                                <set attributeName="fill" to="#808080" begin="zoomminus.mouseover" end="zoomminus.mouseout"/>
                        </use>
                        <path d="M-4,0h8" fill="none" stroke="white" stroke-width="1.5" pointer-events="none"/>
                </g>
                <g id="dirArrow">
                        <path fill="none" stroke="white" stroke-width="1.5" d="M0,-3.0v7 M-2.5,-0.5L0,-3.0L2.5,-0.5"/>
                </g>
               <g id="resetDef">
                       <use xlink:href="#rim2" fill="#404040">
                               <set attributeName="fill" to="#808080" begin="reset.mouseover" end="reset.mouseout"/>
                       </use>
               </g>
        </defs>

<script type="text/javascript">
var viewWidth = 1454;
var viewHeight = 667;
var sectionId = 'dynsection-1';
</script>
<script xlink:href="svgpan.js"/>
<svg id="graph" class="graph">
<g id="viewport">
<title>DuckAI</title>
<!-- Node2 -->
<g id="node1" class="node"><title>Node2</title>
<polygon fill="#bfbfbf" stroke="black" points="491.079,-364.5 491.079,-487.5 627.079,-487.5 627.079,-364.5 491.079,-364.5"/>
<text text-anchor="middle" x="559.079" y="-475.5" font-family="Helvetica,sans-Serif" font-size="10.00">DuckAI</text>
<polyline fill="none" stroke="black" points="491.079,-468.5 627.079,-468.5 "/>
<text text-anchor="middle" x="559.079" y="-456.5" font-family="Helvetica,sans-Serif" font-size="10.00"> </text>
<polyline fill="none" stroke="black" points="491.079,-449.5 627.079,-449.5 "/>
<text text-anchor="start" x="499.079" y="-437.5" font-family="Helvetica,sans-Serif" font-size="10.00">+ BoidReachedGoal()</text>
<text text-anchor="start" x="499.079" y="-426.5" font-family="Helvetica,sans-Serif" font-size="10.00">+ PlayerHitGoal()</text>
<text text-anchor="start" x="499.079" y="-415.5" font-family="Helvetica,sans-Serif" font-size="10.00">&#45; Start()</text>
<text text-anchor="start" x="499.079" y="-404.5" font-family="Helvetica,sans-Serif" font-size="10.00">&#45; LateUpdate()</text>
<text text-anchor="start" x="499.079" y="-393.5" font-family="Helvetica,sans-Serif" font-size="10.00">&#45; MoveTowardsOtherBoids()</text>
<text text-anchor="start" x="499.079" y="-382.5" font-family="Helvetica,sans-Serif" font-size="10.00">&#45; AvoidOtherBoids()</text>
<text text-anchor="start" x="499.079" y="-371.5" font-family="Helvetica,sans-Serif" font-size="10.00">&#45; MoveTowardsGoal()</text>
</g>
<!-- Node6 -->
<g id="node5" class="node"><title>Node6</title>
<g id="a_node5"><a xlink:href="class_goal.html" target="_top" xlink:title="{Goal\n||&#45; Start()\l&#45; OnTriggerEnter2D()\l}">
<polygon fill="none" stroke="black" points="166.079,-237.5 166.079,-305.5 272.079,-305.5 272.079,-237.5 166.079,-237.5"/>
<text text-anchor="middle" x="219.079" y="-293.5" font-family="Helvetica,sans-Serif" font-size="10.00">Goal</text>
<polyline fill="none" stroke="black" points="166.079,-286.5 272.079,-286.5 "/>
<text text-anchor="middle" x="219.079" y="-274.5" font-family="Helvetica,sans-Serif" font-size="10.00"> </text>
<polyline fill="none" stroke="black" points="166.079,-267.5 272.079,-267.5 "/>
<text text-anchor="start" x="174.079" y="-255.5" font-family="Helvetica,sans-Serif" font-size="10.00">&#45; Start()</text>
<text text-anchor="start" x="174.079" y="-244.5" font-family="Helvetica,sans-Serif" font-size="10.00">&#45; OnTriggerEnter2D()</text>
</a>
</g>
</g>
<!-- Node2&#45;&gt;Node6 -->
<g id="edge8" class="edge"><title>Node2&#45;&gt;Node6</title>
<path fill="none" stroke="#404040" d="M491.018,-423.745C423.496,-419.079 320.605,-402.311 253.079,-346 243.943,-338.381 237.132,-327.77 232.108,-316.976"/>
<polygon fill="none" stroke="#404040" points="232.066,-316.876 226.082,-312.852 227.495,-305.78 233.479,-309.804 232.066,-316.876"/>
<text text-anchor="middle" x="277.579" y="-332.5" font-family="Helvetica,sans-Serif" font-size="10.00"> +masterAI</text>
</g>
<!-- Node10 -->
<g id="node9" class="node"><title>Node10</title>
<g id="a_node9"><a xlink:href="class_race_manager.html" target="_top" xlink:title="{RaceManager\n||+ PlayerHitGoal()\l+ GetNextGoal()\l+ PositionInArray()\l&#45; Start()\l&#45; Update()\l&#45; UpdatePlayerTimingText()\l&#45; LapTimeToString()\l&#45; FindPlayerRacePosition()\l&#45; SetPlayerLapText()\l&#45; UpdatePlayerPositionText()\l&#45; EndMinigame()\l}">
<polygon fill="none" stroke="black" points="661.579,-0.5 661.579,-167.5 802.579,-167.5 802.579,-0.5 661.579,-0.5"/>
<text text-anchor="middle" x="732.079" y="-155.5" font-family="Helvetica,sans-Serif" font-size="10.00">RaceManager</text>
<polyline fill="none" stroke="black" points="661.579,-148.5 802.579,-148.5 "/>
<text text-anchor="middle" x="732.079" y="-136.5" font-family="Helvetica,sans-Serif" font-size="10.00"> </text>
<polyline fill="none" stroke="black" points="661.579,-129.5 802.579,-129.5 "/>
<text text-anchor="start" x="669.579" y="-117.5" font-family="Helvetica,sans-Serif" font-size="10.00">+ PlayerHitGoal()</text>
<text text-anchor="start" x="669.579" y="-106.5" font-family="Helvetica,sans-Serif" font-size="10.00">+ GetNextGoal()</text>
<text text-anchor="start" x="669.579" y="-95.5" font-family="Helvetica,sans-Serif" font-size="10.00">+ PositionInArray()</text>
<text text-anchor="start" x="669.579" y="-84.5" font-family="Helvetica,sans-Serif" font-size="10.00">&#45; Start()</text>
<text text-anchor="start" x="669.579" y="-73.5" font-family="Helvetica,sans-Serif" font-size="10.00">&#45; Update()</text>
<text text-anchor="start" x="669.579" y="-62.5" font-family="Helvetica,sans-Serif" font-size="10.00">&#45; UpdatePlayerTimingText()</text>
<text text-anchor="start" x="669.579" y="-51.5" font-family="Helvetica,sans-Serif" font-size="10.00">&#45; LapTimeToString()</text>
<text text-anchor="start" x="669.579" y="-40.5" font-family="Helvetica,sans-Serif" font-size="10.00">&#45; FindPlayerRacePosition()</text>
<text text-anchor="start" x="669.579" y="-29.5" font-family="Helvetica,sans-Serif" font-size="10.00">&#45; SetPlayerLapText()</text>
<text text-anchor="start" x="669.579" y="-18.5" font-family="Helvetica,sans-Serif" font-size="10.00">&#45; UpdatePlayerPositionText()</text>
<text text-anchor="start" x="669.579" y="-7.5" font-family="Helvetica,sans-Serif" font-size="10.00">&#45; EndMinigame()</text>
</a>
</g>
</g>
<!-- Node2&#45;&gt;Node10 -->
<g id="edge31" class="edge"><title>Node2&#45;&gt;Node10</title>
<path fill="none" stroke="#404040" d="M532.242,-364.457C519.355,-325.842 510.822,-275.924 532.079,-237 538.816,-224.665 546.73,-227.29 558.079,-219 588.922,-196.47 622.27,-171.054 651.44,-148.46"/>
<polygon fill="none" stroke="#404040" points="651.683,-148.272 653.97,-141.433 661.162,-140.914 658.875,-147.753 651.683,-148.272"/>
<text text-anchor="middle" x="556.579" y="-269" font-family="Helvetica,sans-Serif" font-size="10.00"> +masterAI</text>
</g>
<!-- Node3 -->
<g id="node2" class="node"><title>Node3</title>
<g id="a_node2"><a xlink:href="class_mono_behaviour.html" target="_top" xlink:title="{MonoBehaviour\n||}">
<polygon fill="none" stroke="black" points="421.579,-601.5 421.579,-658.5 504.579,-658.5 504.579,-601.5 421.579,-601.5"/>
<text text-anchor="middle" x="463.079" y="-646.5" font-family="Helvetica,sans-Serif" font-size="10.00">MonoBehaviour</text>
<polyline fill="none" stroke="black" points="421.579,-639.5 504.579,-639.5 "/>
<text text-anchor="middle" x="463.079" y="-627.5" font-family="Helvetica,sans-Serif" font-size="10.00"> </text>
<polyline fill="none" stroke="black" points="421.579,-620.5 504.579,-620.5 "/>
<text text-anchor="middle" x="463.079" y="-608.5" font-family="Helvetica,sans-Serif" font-size="10.00"> </text>
</a>
</g>
</g>
<!-- Node3&#45;&gt;Node2 -->
<g id="edge1" class="edge"><title>Node3&#45;&gt;Node2</title>
<path fill="none" stroke="midnightblue" d="M480.68,-591.964C494.499,-562.887 514.03,-521.791 530.14,-487.892"/>
<polygon fill="none" stroke="midnightblue" points="477.357,-590.802 476.226,-601.336 483.68,-593.807 477.357,-590.802"/>
</g>
<!-- Node5 -->
<g id="node4" class="node"><title>Node5</title>
<g id="a_node4"><a xlink:href="class_boid.html" target="_top" xlink:title="{Boid\n||&#45; Start()\l&#45; Update()\l&#45; FixedUpdate()\l}">
<polygon fill="none" stroke="black" points="94.5791,-44.5 94.5791,-123.5 177.579,-123.5 177.579,-44.5 94.5791,-44.5"/>
<text text-anchor="middle" x="136.079" y="-111.5" font-family="Helvetica,sans-Serif" font-size="10.00">Boid</text>
<polyline fill="none" stroke="black" points="94.5791,-104.5 177.579,-104.5 "/>
<text text-anchor="middle" x="136.079" y="-92.5" font-family="Helvetica,sans-Serif" font-size="10.00"> </text>
<polyline fill="none" stroke="black" points="94.5791,-85.5 177.579,-85.5 "/>
<text text-anchor="start" x="102.579" y="-73.5" font-family="Helvetica,sans-Serif" font-size="10.00">&#45; Start()</text>
<text text-anchor="start" x="102.579" y="-62.5" font-family="Helvetica,sans-Serif" font-size="10.00">&#45; Update()</text>
<text text-anchor="start" x="102.579" y="-51.5" font-family="Helvetica,sans-Serif" font-size="10.00">&#45; FixedUpdate()</text>
</a>
</g>
</g>
<!-- Node3&#45;&gt;Node5 -->
<g id="edge4" class="edge"><title>Node3&#45;&gt;Node5</title>
<path fill="none" stroke="midnightblue" d="M411.247,-626.159C326.161,-618.56 157.509,-590.632 69.0791,-488 -18.8103,-385.996 -17.363,-305.291 45.0791,-186 57.4476,-162.371 76.6274,-139.923 94.1956,-122.218"/>
<polygon fill="none" stroke="midnightblue" points="411.189,-629.666 421.445,-627.008 411.77,-622.69 411.189,-629.666"/>
</g>
<!-- Node3&#45;&gt;Node6 -->
<g id="edge6" class="edge"><title>Node3&#45;&gt;Node6</title>
<path fill="none" stroke="midnightblue" d="M425.058,-594.449C372.983,-544.824 280.54,-448.045 233.079,-346 227.272,-333.515 223.874,-318.768 221.885,-305.772"/>
<polygon fill="none" stroke="midnightblue" points="422.766,-597.099 432.438,-601.424 427.574,-592.011 422.766,-597.099"/>
</g>
<!-- Node3&#45;&gt;Node10 -->
<g id="edge14" class="edge"><title>Node3&#45;&gt;Node10</title>
<path fill="none" stroke="midnightblue" d="M459.429,-591.043C454.168,-517.586 451.304,-353.017 516.079,-237 521.443,-227.392 525.739,-227.198 533.079,-219 545.909,-204.67 546.372,-198.396 561.079,-186 591.397,-160.446 628.984,-137.469 661.19,-119.91"/>
<polygon fill="none" stroke="midnightblue" points="455.954,-591.503 460.215,-601.203 462.933,-590.963 455.954,-591.503"/>
</g>
<!-- Node11 -->
<g id="node10" class="node"><title>Node11</title>
<g id="a_node10"><a xlink:href="class_countdown.html" target="_top" xlink:title="{Countdown\n||+ StartCountdown()\l+ Update()\l}">
<polygon fill="none" stroke="black" points="1140.58,-237.5 1140.58,-305.5 1241.58,-305.5 1241.58,-237.5 1140.58,-237.5"/>
<text text-anchor="middle" x="1191.08" y="-293.5" font-family="Helvetica,sans-Serif" font-size="10.00">Countdown</text>
<polyline fill="none" stroke="black" points="1140.58,-286.5 1241.58,-286.5 "/>
<text text-anchor="middle" x="1191.08" y="-274.5" font-family="Helvetica,sans-Serif" font-size="10.00"> </text>
<polyline fill="none" stroke="black" points="1140.58,-267.5 1241.58,-267.5 "/>
<text text-anchor="start" x="1148.58" y="-255.5" font-family="Helvetica,sans-Serif" font-size="10.00">+ StartCountdown()</text>
<text text-anchor="start" x="1148.58" y="-244.5" font-family="Helvetica,sans-Serif" font-size="10.00">+ Update()</text>
</a>
</g>
</g>
<!-- Node3&#45;&gt;Node11 -->
<g id="edge16" class="edge"><title>Node3&#45;&gt;Node11</title>
<path fill="none" stroke="midnightblue" d="M514.381,-610.714C593.499,-583.301 750.558,-532.003 888.079,-506 930.839,-497.915 1045.73,-510.338 1083.08,-488 1148.03,-449.149 1148.55,-416.104 1177.08,-346 1182.22,-333.367 1185.5,-318.732 1187.58,-305.863"/>
<polygon fill="none" stroke="midnightblue" points="512.958,-607.503 504.664,-614.096 515.259,-614.114 512.958,-607.503"/>
</g>
<!-- Node4 -->
<g id="node3" class="node"><title>Node4</title>
<polygon fill="none" stroke="#bfbfbf" points="1188.58,-601.5 1188.58,-658.5 1223.58,-658.5 1223.58,-601.5 1188.58,-601.5"/>
<text text-anchor="middle" x="1206.08" y="-646.5" font-family="Helvetica,sans-Serif" font-size="10.00">float</text>
<polyline fill="none" stroke="#bfbfbf" points="1188.58,-639.5 1223.58,-639.5 "/>
<text text-anchor="middle" x="1206.08" y="-627.5" font-family="Helvetica,sans-Serif" font-size="10.00"> </text>
<polyline fill="none" stroke="#bfbfbf" points="1188.58,-620.5 1223.58,-620.5 "/>
<text text-anchor="middle" x="1206.08" y="-608.5" font-family="Helvetica,sans-Serif" font-size="10.00"> </text>
</g>
<!-- Node4&#45;&gt;Node2 -->
<g id="edge2" class="edge"><title>Node4&#45;&gt;Node2</title>
<path fill="none" stroke="#404040" d="M1188.25,-627.912C1141.45,-624.7 1011.51,-613.501 908.079,-583 811.701,-554.58 707.253,-505.213 637.99,-469.615"/>
<polygon fill="none" stroke="#404040" points="637.841,-469.538 630.674,-470.335 627.182,-464.025 634.349,-463.229 637.841,-469.538"/>
<text text-anchor="middle" x="955.079" y="-575" font-family="Helvetica,sans-Serif" font-size="10.00"> +boidVisualTurnRate</text>
<text text-anchor="middle" x="955.079" y="-564" font-family="Helvetica,sans-Serif" font-size="10.00">&#45;separationFactor</text>
<text text-anchor="middle" x="955.079" y="-553" font-family="Helvetica,sans-Serif" font-size="10.00">+maxSpeed</text>
<text text-anchor="middle" x="955.079" y="-542" font-family="Helvetica,sans-Serif" font-size="10.00">+cohesionFactor</text>
<text text-anchor="middle" x="955.079" y="-531" font-family="Helvetica,sans-Serif" font-size="10.00">&#45;goalFactor</text>
<text text-anchor="middle" x="955.079" y="-520" font-family="Helvetica,sans-Serif" font-size="10.00">+acceleration</text>
<text text-anchor="middle" x="955.079" y="-509" font-family="Helvetica,sans-Serif" font-size="10.00">+avoidanceDistance</text>
</g>
<!-- Node4&#45;&gt;Node5 -->
<g id="edge10" class="edge"><title>Node4&#45;&gt;Node5</title>
<path fill="none" stroke="#404040" d="M1188.56,-614.805C1154.8,-588.326 1077.41,-531.757 1002.08,-506 936.875,-483.705 913.43,-509.86 848.079,-488 744.561,-453.373 737.319,-404.811 636.079,-364 534.3,-322.972 481.345,-375.079 396.079,-306 369.666,-284.601 381.009,-265.88 363.079,-237 347.885,-212.526 345.103,-204.568 323.079,-186 282.424,-151.725 228.281,-124.033 188.719,-106.373"/>
<polygon fill="none" stroke="#404040" points="188.705,-106.367 181.604,-107.623 177.714,-101.551 184.815,-100.295 188.705,-106.367"/>
<text text-anchor="middle" x="555.079" y="-332.5" font-family="Helvetica,sans-Serif" font-size="10.00"> +dir</text>
</g>
<!-- Node4&#45;&gt;Node10 -->
<g id="edge26" class="edge"><title>Node4&#45;&gt;Node10</title>
<path fill="none" stroke="#404040" d="M1223.71,-623.924C1266.78,-610.401 1376.41,-568.897 1412.08,-488 1434.31,-437.574 1430.32,-416.004 1412.08,-364 1329.64,-128.996 977.684,-90.1547 815.063,-84.9654"/>
<polygon fill="none" stroke="#404040" points="814.742,-84.9567 808.634,-88.7896 802.747,-84.6255 808.855,-80.7926 814.742,-84.9567"/>
<text text-anchor="middle" x="1424.58" y="-338" font-family="Helvetica,sans-Serif" font-size="10.00"> &#45;lapTime</text>
<text text-anchor="middle" x="1424.58" y="-327" font-family="Helvetica,sans-Serif" font-size="10.00">&#45;bestTime</text>
</g>
<!-- Node4&#45;&gt;Node11 -->
<g id="edge18" class="edge"><title>Node4&#45;&gt;Node11</title>
<path fill="none" stroke="#404040" d="M1223.64,-614.987C1278,-569.927 1435.46,-425.77 1360.08,-324 1335.89,-291.337 1291.45,-278.69 1254.22,-274.089"/>
<polygon fill="none" stroke="#404040" points="1253.84,-274.05 1247.47,-277.414 1241.91,-272.82 1248.29,-269.456 1253.84,-274.05"/>
<text text-anchor="middle" x="1394.08" y="-423.5" font-family="Helvetica,sans-Serif" font-size="10.00"> &#45;timer</text>
</g>
<!-- Node5&#45;&gt;Node2 -->
<g id="edge3" class="edge"><title>Node5&#45;&gt;Node2</title>
<path fill="none" stroke="#404040" d="M177.784,-99.5331C215.972,-115.014 271.116,-143.238 302.079,-186 334.199,-230.358 296.484,-262.748 330.079,-306 367.37,-354.01 429.459,-384.557 479.586,-402.665"/>
<polygon fill="none" stroke="#404040" points="479.735,-402.717 486.718,-400.918 491.064,-406.673 484.081,-408.471 479.735,-402.717"/>
<text text-anchor="middle" x="346.579" y="-269" font-family="Helvetica,sans-Serif" font-size="10.00"> +boids</text>
</g>
<!-- Node6&#45;&gt;Node5 -->
<g id="edge5" class="edge"><title>Node6&#45;&gt;Node5</title>
<path fill="none" stroke="#404040" d="M165.876,-242.488C152.495,-234.304 140.846,-225.754 137.079,-219 123.139,-194.005 122.366,-162.089 125.324,-135.676"/>
<polygon fill="none" stroke="#404040" points="125.35,-135.48 122.198,-128.994 126.972,-123.59 130.125,-130.075 125.35,-135.48"/>
<text text-anchor="middle" x="167.079" y="-200" font-family="Helvetica,sans-Serif" font-size="10.00"> +currentGoal</text>
</g>
<!-- Node6&#45;&gt;Node10 -->
<g id="edge23" class="edge"><title>Node6&#45;&gt;Node10</title>
<path fill="none" stroke="#404040" d="M229.812,-237.431C237.257,-219.598 248.958,-198.703 266.079,-186 325.954,-141.577 532.276,-109.665 649.317,-94.6506"/>
<polygon fill="none" stroke="#404040" points="649.493,-94.6285 654.942,-89.9061 661.398,-93.1203 655.948,-97.8427 649.493,-94.6285"/>
<text text-anchor="middle" x="307.079" y="-205.5" font-family="Helvetica,sans-Serif" font-size="10.00"> +goals</text>
<text text-anchor="middle" x="307.079" y="-194.5" font-family="Helvetica,sans-Serif" font-size="10.00">&#45;currentPlayerGoal</text>
</g>
<!-- Node7 -->
<g id="node6" class="node"><title>Node7</title>
<polygon fill="none" stroke="#bfbfbf" points="78.0791,-397.5 78.0791,-454.5 128.079,-454.5 128.079,-397.5 78.0791,-397.5"/>
<text text-anchor="middle" x="103.079" y="-442.5" font-family="Helvetica,sans-Serif" font-size="10.00">Vector2</text>
<polyline fill="none" stroke="#bfbfbf" points="78.0791,-435.5 128.079,-435.5 "/>
<text text-anchor="middle" x="103.079" y="-423.5" font-family="Helvetica,sans-Serif" font-size="10.00"> </text>
<polyline fill="none" stroke="#bfbfbf" points="78.0791,-416.5 128.079,-416.5 "/>
<text text-anchor="middle" x="103.079" y="-404.5" font-family="Helvetica,sans-Serif" font-size="10.00"> </text>
</g>
<!-- Node7&#45;&gt;Node5 -->
<g id="edge11" class="edge"><title>Node7&#45;&gt;Node5</title>
<path fill="none" stroke="#404040" d="M83.9739,-397.165C69.2693,-373.955 50.141,-339.4 42.0791,-306 34.8837,-276.189 33.6948,-266.498 42.0791,-237 52.7696,-199.388 75.7145,-161.972 96.2579,-133.673"/>
<polygon fill="none" stroke="#404040" points="96.5307,-133.306 96.9008,-126.105 103.691,-123.677 103.321,-130.878 96.5307,-133.306"/>
<text text-anchor="middle" x="54.5791" y="-274.5" font-family="Helvetica,sans-Serif" font-size="10.00"> +pos</text>
<text text-anchor="middle" x="54.5791" y="-263.5" font-family="Helvetica,sans-Serif" font-size="10.00">+vel</text>
</g>
<!-- Node7&#45;&gt;Node6 -->
<g id="edge7" class="edge"><title>Node7&#45;&gt;Node6</title>
<path fill="none" stroke="#404040" d="M124.086,-397.383C141.454,-374.551 166.417,-341.732 186.395,-315.468"/>
<polygon fill="none" stroke="#404040" points="186.516,-315.309 186.965,-308.112 193.781,-305.758 193.333,-312.955 186.516,-315.309"/>
<text text-anchor="middle" x="191.579" y="-332.5" font-family="Helvetica,sans-Serif" font-size="10.00"> +pos</text>
</g>
<!-- Node8 -->
<g id="node7" class="node"><title>Node8</title>
<polygon fill="none" stroke="#bfbfbf" points="76.5791,-243 76.5791,-300 147.579,-300 147.579,-243 76.5791,-243"/>
<text text-anchor="middle" x="112.079" y="-288" font-family="Helvetica,sans-Serif" font-size="10.00">Rigidbody2D</text>
<polyline fill="none" stroke="#bfbfbf" points="76.5791,-281 147.579,-281 "/>
<text text-anchor="middle" x="112.079" y="-269" font-family="Helvetica,sans-Serif" font-size="10.00"> </text>
<polyline fill="none" stroke="#bfbfbf" points="76.5791,-262 147.579,-262 "/>
<text text-anchor="middle" x="112.079" y="-250" font-family="Helvetica,sans-Serif" font-size="10.00"> </text>
</g>
<!-- Node8&#45;&gt;Node5 -->
<g id="edge9" class="edge"><title>Node8&#45;&gt;Node5</title>
<path fill="none" stroke="#404040" d="M101.798,-242.794C99.4382,-235.189 97.2732,-226.868 96.0791,-219 93.8785,-204.499 93.3302,-200.407 96.0791,-186 99.3503,-168.857 105.483,-150.91 111.982,-134.98"/>
<polygon fill="none" stroke="#404040" points="112.049,-134.822 110.714,-127.736 116.742,-123.778 118.077,-130.865 112.049,-134.822"/>
<text text-anchor="middle" x="105.079" y="-200" font-family="Helvetica,sans-Serif" font-size="10.00"> +rb</text>
</g>
<!-- Node9 -->
<g id="node8" class="node"><title>Node9</title>
<polygon fill="none" stroke="#bfbfbf" points="405.579,-243 405.579,-300 434.579,-300 434.579,-243 405.579,-243"/>
<text text-anchor="middle" x="420.079" y="-288" font-family="Helvetica,sans-Serif" font-size="10.00">int</text>
<polyline fill="none" stroke="#bfbfbf" points="405.579,-281 434.579,-281 "/>
<text text-anchor="middle" x="420.079" y="-269" font-family="Helvetica,sans-Serif" font-size="10.00"> </text>
<polyline fill="none" stroke="#bfbfbf" points="405.579,-262 434.579,-262 "/>
<text text-anchor="middle" x="420.079" y="-250" font-family="Helvetica,sans-Serif" font-size="10.00"> </text>
</g>
<!-- Node9&#45;&gt;Node5 -->
<g id="edge12" class="edge"><title>Node9&#45;&gt;Node5</title>
<path fill="none" stroke="#404040" d="M405.369,-253.42C400.804,-248.143 395.746,-242.32 391.079,-237 384.021,-228.954 381.706,-227.405 375.079,-219 364.01,-204.961 365.756,-197.514 352.079,-186 303.718,-145.287 236.195,-117.207 189.578,-101.176"/>
<polygon fill="none" stroke="#404040" points="189.283,-101.077 182.323,-102.962 177.906,-97.2625 184.866,-95.3772 189.283,-101.077"/>
<text text-anchor="middle" x="402.579" y="-200" font-family="Helvetica,sans-Serif" font-size="10.00"> +currentLap</text>
</g>
<!-- Node9&#45;&gt;Node10 -->
<g id="edge27" class="edge"><title>Node9&#45;&gt;Node10</title>
<path fill="none" stroke="#404040" d="M424.732,-242.863C429.146,-224.544 437.52,-201.175 453.079,-186 506.322,-134.072 588.248,-108.591 649.571,-96.2433"/>
<polygon fill="none" stroke="#404040" points="649.761,-96.2068 654.9,-91.1475 661.546,-93.9448 656.408,-99.0041 649.761,-96.2068"/>
<text text-anchor="middle" x="493.079" y="-211" font-family="Helvetica,sans-Serif" font-size="10.00"> &#45;currentPlayerLap</text>
<text text-anchor="middle" x="493.079" y="-200" font-family="Helvetica,sans-Serif" font-size="10.00">&#45;playerPosition</text>
<text text-anchor="middle" x="493.079" y="-189" font-family="Helvetica,sans-Serif" font-size="10.00">+lapCount</text>
</g>
<!-- Node10&#45;&gt;Node2 -->
<g id="edge13" class="edge"><title>Node10&#45;&gt;Node2</title>
<path fill="none" stroke="#404040" d="M661.419,-154.135C639.912,-178.535 618.033,-207.328 603.079,-237 597.731,-247.612 584.807,-304.154 574.341,-352.486"/>
<polygon fill="none" stroke="#404040" points="574.335,-352.512 576.982,-359.22 571.808,-364.243 569.161,-357.535 574.335,-352.512"/>
<text text-anchor="middle" x="636.079" y="-269" font-family="Helvetica,sans-Serif" font-size="10.00"> +raceManager</text>
</g>
<!-- Node11&#45;&gt;Node10 -->
<g id="edge15" class="edge"><title>Node11&#45;&gt;Node10</title>
<path fill="none" stroke="#404040" d="M1148.67,-237.427C1125.08,-220.251 1094.59,-199.988 1065.08,-186 983.581,-147.372 883.893,-119.449 814.944,-102.882"/>
<polygon fill="none" stroke="#404040" points="814.545,-102.788 807.784,-105.297 802.868,-100.021 809.628,-97.5122 814.545,-102.788"/>
<text text-anchor="middle" x="1147.08" y="-200" font-family="Helvetica,sans-Serif" font-size="10.00"> +countdown</text>
</g>
<!-- Node12 -->
<g id="node11" class="node"><title>Node12</title>
<polygon fill="none" stroke="#bfbfbf" points="1270.08,-397.5 1270.08,-454.5 1328.08,-454.5 1328.08,-397.5 1270.08,-397.5"/>
<text text-anchor="middle" x="1299.08" y="-442.5" font-family="Helvetica,sans-Serif" font-size="10.00">AudioClip</text>
<polyline fill="none" stroke="#bfbfbf" points="1270.08,-435.5 1328.08,-435.5 "/>
<text text-anchor="middle" x="1299.08" y="-423.5" font-family="Helvetica,sans-Serif" font-size="10.00"> </text>
<polyline fill="none" stroke="#bfbfbf" points="1270.08,-416.5 1328.08,-416.5 "/>
<text text-anchor="middle" x="1299.08" y="-404.5" font-family="Helvetica,sans-Serif" font-size="10.00"> </text>
</g>
<!-- Node12&#45;&gt;Node11 -->
<g id="edge17" class="edge"><title>Node12&#45;&gt;Node11</title>
<path fill="none" stroke="#404040" d="M1290.72,-397.419C1283.34,-375.991 1271.09,-346.272 1254.08,-324 1251.51,-320.643 1248.69,-317.367 1245.7,-314.199"/>
<polygon fill="none" stroke="#404040" points="1245.48,-313.986 1238.4,-312.639 1236.92,-305.582 1244,-306.929 1245.48,-313.986"/>
<text text-anchor="middle" x="1311.58" y="-332.5" font-family="Helvetica,sans-Serif" font-size="10.00"> +countdownSounds</text>
</g>
<!-- Node13 -->
<g id="node12" class="node"><title>Node13</title>
<polygon fill="none" stroke="#bfbfbf" points="1026.08,-397.5 1026.08,-454.5 1074.08,-454.5 1074.08,-397.5 1026.08,-397.5"/>
<text text-anchor="middle" x="1050.08" y="-442.5" font-family="Helvetica,sans-Serif" font-size="10.00">Color []</text>
<polyline fill="none" stroke="#bfbfbf" points="1026.08,-435.5 1074.08,-435.5 "/>
<text text-anchor="middle" x="1050.08" y="-423.5" font-family="Helvetica,sans-Serif" font-size="10.00"> </text>
<polyline fill="none" stroke="#bfbfbf" points="1026.08,-416.5 1074.08,-416.5 "/>
<text text-anchor="middle" x="1050.08" y="-404.5" font-family="Helvetica,sans-Serif" font-size="10.00"> </text>
</g>
<!-- Node13&#45;&gt;Node10 -->
<g id="edge28" class="edge"><title>Node13&#45;&gt;Node10</title>
<path fill="none" stroke="#404040" d="M1026.02,-404.008C1000.87,-381.939 964.793,-349.871 963.079,-346 959.121,-337.059 957.733,-332.186 963.079,-324 973.961,-307.338 993.197,-322.662 1004.08,-306 1020.85,-280.324 1019.52,-263.496 1004.08,-237 963.696,-167.7 878.847,-127.686 814.588,-106.281"/>
<polygon fill="none" stroke="#404040" points="814.266,-106.177 807.329,-108.145 802.844,-102.497 809.782,-100.53 814.266,-106.177"/>
<text text-anchor="middle" x="1051.58" y="-269" font-family="Helvetica,sans-Serif" font-size="10.00"> +positionColors</text>
</g>
<!-- Node13&#45;&gt;Node11 -->
<g id="edge19" class="edge"><title>Node13&#45;&gt;Node11</title>
<path fill="none" stroke="#404040" d="M1054.63,-397.131C1059.53,-374.968 1069.3,-344.398 1088.08,-324 1100.74,-310.252 1109.33,-314.282 1126.08,-306 1127.25,-305.423 1128.42,-304.839 1129.61,-304.249"/>
<polygon fill="none" stroke="#404040" points="1129.7,-304.204 1133.26,-297.936 1140.42,-298.816 1136.85,-305.084 1129.7,-304.204"/>
<text text-anchor="middle" x="1132.58" y="-332.5" font-family="Helvetica,sans-Serif" font-size="10.00"> +countdownColours</text>
</g>
<!-- Node14 -->
<g id="node13" class="node"><title>Node14</title>
<polygon fill="none" stroke="#bfbfbf" points="935.579,-397.5 935.579,-454.5 970.579,-454.5 970.579,-397.5 935.579,-397.5"/>
<text text-anchor="middle" x="953.079" y="-442.5" font-family="Helvetica,sans-Serif" font-size="10.00">bool</text>
<polyline fill="none" stroke="#bfbfbf" points="935.579,-435.5 970.579,-435.5 "/>
<text text-anchor="middle" x="953.079" y="-423.5" font-family="Helvetica,sans-Serif" font-size="10.00"> </text>
<polyline fill="none" stroke="#bfbfbf" points="935.579,-416.5 970.579,-416.5 "/>
<text text-anchor="middle" x="953.079" y="-404.5" font-family="Helvetica,sans-Serif" font-size="10.00"> </text>
</g>
<!-- Node14&#45;&gt;Node10 -->
<g id="edge29" class="edge"><title>Node14&#45;&gt;Node10</title>
<path fill="none" stroke="#404040" d="M945.905,-397.379C942.209,-382.286 937.898,-363.214 935.079,-346 927.211,-297.949 947.46,-279.71 924.079,-237 898.914,-191.03 853.466,-154.088 813.104,-128.138"/>
<polygon fill="none" stroke="#404040" points="812.863,-127.987 805.654,-128.189 802.695,-121.613 809.904,-121.411 812.863,-127.987"/>
<text text-anchor="middle" x="968.079" y="-269" font-family="Helvetica,sans-Serif" font-size="10.00"> +raceRunning</text>
</g>
<!-- Node14&#45;&gt;Node11 -->
<g id="edge20" class="edge"><title>Node14&#45;&gt;Node11</title>
<path fill="none" stroke="#404040" d="M953.413,-397.443C955.278,-374.222 961.879,-341.989 983.079,-324 1007.5,-303.278 1095.49,-315.482 1126.08,-306 1126.97,-305.725 1127.85,-305.439 1128.75,-305.142"/>
<polygon fill="none" stroke="#404040" points="1129.12,-305 1133.31,-299.132 1140.34,-300.745 1136.15,-306.613 1129.12,-305"/>
<text text-anchor="middle" x="1025.58" y="-332.5" font-family="Helvetica,sans-Serif" font-size="10.00"> &#45;countdownStarted</text>
</g>
<!-- Node15 -->
<g id="node14" class="node"><title>Node15</title>
<polygon fill="none" stroke="#bfbfbf" points="1180.08,-397.5 1180.08,-454.5 1252.08,-454.5 1252.08,-397.5 1180.08,-397.5"/>
<text text-anchor="middle" x="1216.08" y="-442.5" font-family="Helvetica,sans-Serif" font-size="10.00">AudioSource</text>
<polyline fill="none" stroke="#bfbfbf" points="1180.08,-435.5 1252.08,-435.5 "/>
<text text-anchor="middle" x="1216.08" y="-423.5" font-family="Helvetica,sans-Serif" font-size="10.00"> </text>
<polyline fill="none" stroke="#bfbfbf" points="1180.08,-416.5 1252.08,-416.5 "/>
<text text-anchor="middle" x="1216.08" y="-404.5" font-family="Helvetica,sans-Serif" font-size="10.00"> </text>
</g>
<!-- Node15&#45;&gt;Node11 -->
<g id="edge21" class="edge"><title>Node15&#45;&gt;Node11</title>
<path fill="none" stroke="#404040" d="M1212.81,-397.481C1210.26,-377.125 1206.43,-348.757 1202.08,-324 1201.7,-321.864 1201.3,-319.682 1200.89,-317.481"/>
<polygon fill="none" stroke="#404040" points="1200.88,-317.444 1195.78,-312.34 1198.54,-305.675 1203.63,-310.779 1200.88,-317.444"/>
<text text-anchor="middle" x="1227.58" y="-332.5" font-family="Helvetica,sans-Serif" font-size="10.00"> &#45;audioSrc</text>
</g>
<!-- Node16 -->
<g id="node15" class="node"><title>Node16</title>
<polygon fill="none" stroke="#bfbfbf" points="857.579,-397.5 857.579,-454.5 892.579,-454.5 892.579,-397.5 857.579,-397.5"/>
<text text-anchor="middle" x="875.079" y="-442.5" font-family="Helvetica,sans-Serif" font-size="10.00">Text</text>
<polyline fill="none" stroke="#bfbfbf" points="857.579,-435.5 892.579,-435.5 "/>
<text text-anchor="middle" x="875.079" y="-423.5" font-family="Helvetica,sans-Serif" font-size="10.00"> </text>
<polyline fill="none" stroke="#bfbfbf" points="857.579,-416.5 892.579,-416.5 "/>
<text text-anchor="middle" x="875.079" y="-404.5" font-family="Helvetica,sans-Serif" font-size="10.00"> </text>
</g>
<!-- Node16&#45;&gt;Node10 -->
<g id="edge30" class="edge"><title>Node16&#45;&gt;Node10</title>
<path fill="none" stroke="#404040" d="M870.564,-397.307C862.377,-351.526 842.555,-257.972 807.079,-186 805.796,-183.397 804.444,-180.791 803.033,-178.192"/>
<polygon fill="none" stroke="#404040" points="802.902,-177.963 796.448,-174.746 796.934,-167.552 803.389,-170.768 802.902,-177.963"/>
<text text-anchor="middle" x="885.079" y="-296.5" font-family="Helvetica,sans-Serif" font-size="10.00"> &#45;positionSuffix</text>
<text text-anchor="middle" x="885.079" y="-285.5" font-family="Helvetica,sans-Serif" font-size="10.00">&#45;currentLapTime</text>
<text text-anchor="middle" x="885.079" y="-274.5" font-family="Helvetica,sans-Serif" font-size="10.00">&#45;totalLaps</text>
<text text-anchor="middle" x="885.079" y="-263.5" font-family="Helvetica,sans-Serif" font-size="10.00">+textPosition</text>
<text text-anchor="middle" x="885.079" y="-252.5" font-family="Helvetica,sans-Serif" font-size="10.00">&#45;bestLapTime</text>
<text text-anchor="middle" x="885.079" y="-241.5" font-family="Helvetica,sans-Serif" font-size="10.00">&#45;currentLap</text>
</g>
<!-- Node16&#45;&gt;Node11 -->
<g id="edge22" class="edge"><title>Node16&#45;&gt;Node11</title>
<path fill="none" stroke="#404040" d="M884.951,-397.175C894.945,-373.445 912.842,-340.614 940.079,-324 975.531,-302.376 1086.24,-317.722 1126.08,-306 1126.97,-305.738 1127.86,-305.464 1128.76,-305.178"/>
<polygon fill="none" stroke="#404040" points="1129.12,-305.042 1133.37,-299.214 1140.38,-300.892 1136.14,-306.72 1129.12,-305.042"/>
<text text-anchor="middle" x="951.579" y="-332.5" font-family="Helvetica,sans-Serif" font-size="10.00"> &#45;text</text>
</g>
<!-- Node17 -->
<g id="node16" class="node"><title>Node17</title>
<polygon fill="none" stroke="#bfbfbf" points="678.579,-243 678.579,-300 719.579,-300 719.579,-243 678.579,-243"/>
<text text-anchor="middle" x="699.079" y="-288" font-family="Helvetica,sans-Serif" font-size="10.00">string</text>
<polyline fill="none" stroke="#bfbfbf" points="678.579,-281 719.579,-281 "/>
<text text-anchor="middle" x="699.079" y="-269" font-family="Helvetica,sans-Serif" font-size="10.00"> </text>
<polyline fill="none" stroke="#bfbfbf" points="678.579,-262 719.579,-262 "/>
<text text-anchor="middle" x="699.079" y="-250" font-family="Helvetica,sans-Serif" font-size="10.00"> </text>
</g>
<!-- Node17&#45;&gt;Node10 -->
<g id="edge24" class="edge"><title>Node17&#45;&gt;Node10</title>
<path fill="none" stroke="#404040" d="M688.108,-242.988C682.926,-226.412 678.733,-204.917 683.079,-186 683.581,-183.816 684.137,-181.624 684.74,-179.429"/>
<polygon fill="none" stroke="#404040" points="684.825,-179.157 682.79,-172.239 688.392,-167.699 690.428,-174.617 684.825,-179.157"/>
<text text-anchor="middle" x="722.079" y="-200" font-family="Helvetica,sans-Serif" font-size="10.00"> +positionSuffixes</text>
</g>
<!-- Node18 -->
<g id="node17" class="node"><title>Node18</title>
<polygon fill="none" stroke="#bfbfbf" points="737.579,-243 737.579,-300 808.579,-300 808.579,-243 737.579,-243"/>
<text text-anchor="middle" x="773.079" y="-288" font-family="Helvetica,sans-Serif" font-size="10.00">GameObject</text>
<polyline fill="none" stroke="#bfbfbf" points="737.579,-281 808.579,-281 "/>
<text text-anchor="middle" x="773.079" y="-269" font-family="Helvetica,sans-Serif" font-size="10.00"> </text>
<polyline fill="none" stroke="#bfbfbf" points="737.579,-262 808.579,-262 "/>
<text text-anchor="middle" x="773.079" y="-250" font-family="Helvetica,sans-Serif" font-size="10.00"> </text>
</g>
<!-- Node18&#45;&gt;Node10 -->
<g id="edge25" class="edge"><title>Node18&#45;&gt;Node10</title>
<path fill="none" stroke="#404040" d="M770.143,-242.931C768.133,-226.334 765.101,-204.838 761.079,-186 760.621,-183.852 760.141,-181.683 759.643,-179.499"/>
<polygon fill="none" stroke="#404040" points="759.618,-179.391 754.332,-174.485 756.828,-167.719 762.113,-172.625 759.618,-179.391"/>
<text text-anchor="middle" x="785.079" y="-200" font-family="Helvetica,sans-Serif" font-size="10.00"> +player</text>
</g>
</g>
</svg>
        <g id="navigator" transform="translate(0 0)" fill="#404254">
                <rect fill="#f2f5e9" fill-opacity="0.5" stroke="#606060" stroke-width=".5" x="0" y="0" width="60" height="60"/>
                <use id="zoomplus" xlink:href="#zoomPlus" x="17" y="9" onmousedown="handleZoom(evt,'in')"/>
                <use id="zoomminus" xlink:href="#zoomMin" x="42" y="9" onmousedown="handleZoom(evt,'out')"/>
                <use id="reset" xlink:href="#resetDef" x="30" y="36" onmousedown="handleReset()"/>
                <g id="arrowUp" xlink:href="#dirArrow" transform="translate(30 24)" onmousedown="handlePan(0,-1)">
                  <use xlink:href="#rim" fill="#404040">
                        <set attributeName="fill" to="#808080" begin="arrowUp.mouseover" end="arrowUp.mouseout"/>
                  </use>
                  <path fill="none" stroke="white" stroke-width="1.5" d="M0,-3.0v7 M-2.5,-0.5L0,-3.0L2.5,-0.5"/>
                </g>
                <g id="arrowRight" xlink:href="#dirArrow" transform="rotate(90) translate(36 -43)" onmousedown="handlePan(1,0)">
                  <use xlink:href="#rim" fill="#404040">
                        <set attributeName="fill" to="#808080" begin="arrowRight.mouseover" end="arrowRight.mouseout"/>
                  </use>
                  <path fill="none" stroke="white" stroke-width="1.5" d="M0,-3.0v7 M-2.5,-0.5L0,-3.0L2.5,-0.5"/>
                </g>
                <g id="arrowDown" xlink:href="#dirArrow" transform="rotate(180) translate(-30 -48)" onmousedown="handlePan(0,1)">
                  <use xlink:href="#rim" fill="#404040">
                        <set attributeName="fill" to="#808080" begin="arrowDown.mouseover" end="arrowDown.mouseout"/>
                  </use>
                  <path fill="none" stroke="white" stroke-width="1.5" d="M0,-3.0v7 M-2.5,-0.5L0,-3.0L2.5,-0.5"/>
                </g>
                <g id="arrowLeft" xlink:href="#dirArrow" transform="rotate(270) translate(-36 17)" onmousedown="handlePan(-1,0)">
                  <use xlink:href="#rim" fill="#404040">
                        <set attributeName="fill" to="#808080" begin="arrowLeft.mouseover" end="arrowLeft.mouseout"/>
                  </use>
                  <path fill="none" stroke="white" stroke-width="1.5" d="M0,-3.0v7 M-2.5,-0.5L0,-3.0L2.5,-0.5"/>
                </g>
        </g>
        <svg viewBox="0 0 15 15" width="100%" height="30px" preserveAspectRatio="xMaxYMin meet">
         <g id="arrow_out" transform="scale(0.3 0.3)">
          <a xlink:href="class_duck_a_i__coll__graph_org.svg" target="_base">
           <rect id="button" ry="5" rx="5" y="6" x="6" height="38" width="38"
                fill="#f2f5e9" fill-opacity="0.5" stroke="#606060" stroke-width="1.0"/>
           <path id="arrow"
             d="M 11.500037,31.436501 C 11.940474,20.09759 22.043105,11.32322 32.158766,21.979434 L 37.068811,17.246167 C 37.068811,17.246167 37.088388,32 37.088388,32 L 22.160133,31.978069 C 22.160133,31.978069 26.997745,27.140456 26.997745,27.140456 C 18.528582,18.264221 13.291696,25.230495 11.500037,31.436501 z"
             style="fill:#404040;"/>
          </a>
         </g>
        </svg>
</svg>
