<?xml version="1.0" encoding="UTF-8" standalone="no"?>
<!DOCTYPE svg PUBLIC "-//W3C//DTD SVG 1.1//EN"
 "http://www.w3.org/Graphics/SVG/1.1/DTD/svg11.dtd">
<!-- Generated by graphviz version 2.38.0 (20140413.2041)
 -->
<!-- Title: ExplorationMenuScript Pages: 1 -->
<!--zoomable 463 -->
<svg id="main" version="1.1" xmlns="http://www.w3.org/2000/svg" xmlns:xlink="http://www.w3.org/1999/xlink" xml:space="preserve" onload="init(evt)">
<style type="text/css"><![CDATA[
.edge:hover path { stroke: red; }
.edge:hover polygon { stroke: red; fill: red; }
]]></style>
<script type="text/javascript"><![CDATA[
var edges = document.getElementsByTagName('g');
if (edges && edges.length) {
  for (var i=0;i<edges.length;i++) {
    if (edges[i].id.substr(0,4)=='edge') {
      edges[i].setAttribute('class','edge');
    }
  }
}
]]></script>
        <defs>
                <circle id="rim" cx="0" cy="0" r="7"/>
                <circle id="rim2" cx="0" cy="0" r="3.5"/>
                <g id="zoomPlus">
                        <use xlink:href="#rim" fill="#404040">
                                <set attributeName="fill" to="#808080" begin="zoomplus.mouseover" end="zoomplus.mouseout"/>
                        </use>
                        <path d="M-4,0h8M0,-4v8" fill="none" stroke="white" stroke-width="1.5" pointer-events="none"/>
                </g>
                <g id="zoomMin">
                        <use xlink:href="#rim" fill="#404040">
                                <set attributeName="fill" to="#808080" begin="zoomminus.mouseover" end="zoomminus.mouseout"/>
                        </use>
                        <path d="M-4,0h8" fill="none" stroke="white" stroke-width="1.5" pointer-events="none"/>
                </g>
                <g id="dirArrow">
                        <path fill="none" stroke="white" stroke-width="1.5" d="M0,-3.0v7 M-2.5,-0.5L0,-3.0L2.5,-0.5"/>
                </g>
               <g id="resetDef">
                       <use xlink:href="#rim2" fill="#404040">
                               <set attributeName="fill" to="#808080" begin="reset.mouseover" end="reset.mouseout"/>
                       </use>
               </g>
        </defs>

<script type="text/javascript">
var viewWidth = 760;
var viewHeight = 463;
var sectionId = 'dynsection-1';
</script>
<script xlink:href="svgpan.js"/>
<svg id="graph" class="graph">
<g id="viewport">
<title>ExplorationMenuScript</title>
<!-- Node2 -->
<g id="node1" class="node"><title>Node2</title>
<polygon fill="#bfbfbf" stroke="black" points="481,-0.5 481,-145.5 596,-145.5 596,-0.5 481,-0.5"/>
<text text-anchor="middle" x="538.5" y="-133.5" font-family="Helvetica,sans-Serif" font-size="10.00">ExplorationMenuScript</text>
<polyline fill="none" stroke="black" points="481,-126.5 596,-126.5 "/>
<text text-anchor="middle" x="538.5" y="-114.5" font-family="Helvetica,sans-Serif" font-size="10.00"> </text>
<polyline fill="none" stroke="black" points="481,-107.5 596,-107.5 "/>
<text text-anchor="start" x="489" y="-95.5" font-family="Helvetica,sans-Serif" font-size="10.00">+ inventPressed()</text>
<text text-anchor="start" x="489" y="-84.5" font-family="Helvetica,sans-Serif" font-size="10.00">+ partyPressed()</text>
<text text-anchor="start" x="489" y="-73.5" font-family="Helvetica,sans-Serif" font-size="10.00">+ questsPressed()</text>
<text text-anchor="start" x="489" y="-62.5" font-family="Helvetica,sans-Serif" font-size="10.00">+ savePressed()</text>
<text text-anchor="start" x="489" y="-51.5" font-family="Helvetica,sans-Serif" font-size="10.00">+ tradePressed()</text>
<text text-anchor="start" x="489" y="-40.5" font-family="Helvetica,sans-Serif" font-size="10.00">+ miniGamePressed()</text>
<text text-anchor="start" x="489" y="-29.5" font-family="Helvetica,sans-Serif" font-size="10.00">+ exitPressed()</text>
<text text-anchor="start" x="489" y="-18.5" font-family="Helvetica,sans-Serif" font-size="10.00">&#45; Start()</text>
<text text-anchor="start" x="489" y="-7.5" font-family="Helvetica,sans-Serif" font-size="10.00">&#45; setInactive()</text>
</g>
<!-- Node3 -->
<g id="node2" class="node"><title>Node3</title>
<g id="a_node2"><a xlink:href="class_mono_behaviour.html" target="_top" xlink:title="{MonoBehaviour\n||}">
<polygon fill="none" stroke="black" points="0,-397.5 0,-454.5 83,-454.5 83,-397.5 0,-397.5"/>
<text text-anchor="middle" x="41.5" y="-442.5" font-family="Helvetica,sans-Serif" font-size="10.00">MonoBehaviour</text>
<polyline fill="none" stroke="black" points="0,-435.5 83,-435.5 "/>
<text text-anchor="middle" x="41.5" y="-423.5" font-family="Helvetica,sans-Serif" font-size="10.00"> </text>
<polyline fill="none" stroke="black" points="0,-416.5 83,-416.5 "/>
<text text-anchor="middle" x="41.5" y="-404.5" font-family="Helvetica,sans-Serif" font-size="10.00"> </text>
</a>
</g>
</g>
<!-- Node3&#45;&gt;Node2 -->
<g id="edge1" class="edge"><title>Node3&#45;&gt;Node2</title>
<path fill="none" stroke="midnightblue" d="M63.2088,-388.439C95.1993,-337.575 159.703,-245.779 237.5,-193 314.344,-140.868 417.402,-106.454 480.812,-88.6067"/>
<polygon fill="none" stroke="midnightblue" points="60.1068,-386.8 57.8023,-397.141 66.0527,-390.494 60.1068,-386.8"/>
</g>
<!-- Node5 -->
<g id="node4" class="node"><title>Node5</title>
<g id="a_node4"><a xlink:href="class_player_movement.html" target="_top" xlink:title="A script to control the movement and animations of the player">
<polygon fill="none" stroke="black" points="247,-193.5 247,-327.5 352,-327.5 352,-193.5 247,-193.5"/>
<text text-anchor="middle" x="299.5" y="-315.5" font-family="Helvetica,sans-Serif" font-size="10.00">PlayerMovement</text>
<polyline fill="none" stroke="black" points="247,-308.5 352,-308.5 "/>
<text text-anchor="middle" x="299.5" y="-296.5" font-family="Helvetica,sans-Serif" font-size="10.00"> </text>
<polyline fill="none" stroke="black" points="247,-289.5 352,-289.5 "/>
<text text-anchor="start" x="255" y="-277.5" font-family="Helvetica,sans-Serif" font-size="10.00">+ move()</text>
<text text-anchor="start" x="255" y="-266.5" font-family="Helvetica,sans-Serif" font-size="10.00">+ setCanMove()</text>
<text text-anchor="start" x="255" y="-255.5" font-family="Helvetica,sans-Serif" font-size="10.00">&#45; Start()</text>
<text text-anchor="start" x="255" y="-244.5" font-family="Helvetica,sans-Serif" font-size="10.00">&#45; FixedUpdate()</text>
<text text-anchor="start" x="255" y="-233.5" font-family="Helvetica,sans-Serif" font-size="10.00">&#45; explorationMenu()</text>
<text text-anchor="start" x="255" y="-222.5" font-family="Helvetica,sans-Serif" font-size="10.00">&#45; randomEncounter()</text>
<text text-anchor="start" x="255" y="-211.5" font-family="Helvetica,sans-Serif" font-size="10.00">&#45; walkAnimation()</text>
<text text-anchor="start" x="255" y="-200.5" font-family="Helvetica,sans-Serif" font-size="10.00">&#45; setIdle()</text>
</a>
</g>
</g>
<!-- Node3&#45;&gt;Node5 -->
<g id="edge4" class="edge"><title>Node3&#45;&gt;Node5</title>
<path fill="none" stroke="midnightblue" d="M82.0923,-390.686C100.078,-376.164 121.814,-359.516 142.5,-346 176.057,-324.074 215.839,-302.708 246.961,-286.946"/>
<polygon fill="none" stroke="midnightblue" points="79.6514,-388.16 74.1095,-397.19 84.0729,-393.587 79.6514,-388.16"/>
</g>
<!-- Node4 -->
<g id="node3" class="node"><title>Node4</title>
<polygon fill="none" stroke="#bfbfbf" points="681,-232 681,-289 752,-289 752,-232 681,-232"/>
<text text-anchor="middle" x="716.5" y="-277" font-family="Helvetica,sans-Serif" font-size="10.00">GameObject</text>
<polyline fill="none" stroke="#bfbfbf" points="681,-270 752,-270 "/>
<text text-anchor="middle" x="716.5" y="-258" font-family="Helvetica,sans-Serif" font-size="10.00"> </text>
<polyline fill="none" stroke="#bfbfbf" points="681,-251 752,-251 "/>
<text text-anchor="middle" x="716.5" y="-239" font-family="Helvetica,sans-Serif" font-size="10.00"> </text>
</g>
<!-- Node4&#45;&gt;Node2 -->
<g id="edge2" class="edge"><title>Node4&#45;&gt;Node2</title>
<path fill="none" stroke="#404040" d="M697.352,-231.784C688.447,-219.505 677.424,-205.127 666.5,-193 647.572,-171.987 625.459,-150.501 604.989,-131.671"/>
<polygon fill="none" stroke="#404040" points="604.892,-131.582 597.763,-130.495 596.025,-123.496 603.154,-124.584 604.892,-131.582"/>
<text text-anchor="middle" x="671.5" y="-167" font-family="Helvetica,sans-Serif" font-size="10.00"> &#45;menuBox</text>
</g>
<!-- Node5&#45;&gt;Node2 -->
<g id="edge3" class="edge"><title>Node5&#45;&gt;Node2</title>
<path fill="none" stroke="#404040" d="M352.245,-218.562C387.2,-191.432 433.374,-155.593 471.003,-126.388"/>
<polygon fill="none" stroke="#404040" points="471.392,-126.086 473.679,-119.247 480.872,-118.728 478.584,-125.567 471.392,-126.086"/>
<text text-anchor="middle" x="457.5" y="-167" font-family="Helvetica,sans-Serif" font-size="10.00"> &#45;movementScript</text>
</g>
<!-- Node6 -->
<g id="node5" class="node"><title>Node6</title>
<polygon fill="none" stroke="#bfbfbf" points="391,-397.5 391,-454.5 432,-454.5 432,-397.5 391,-397.5"/>
<text text-anchor="middle" x="411.5" y="-442.5" font-family="Helvetica,sans-Serif" font-size="10.00">string</text>
<polyline fill="none" stroke="#bfbfbf" points="391,-435.5 432,-435.5 "/>
<text text-anchor="middle" x="411.5" y="-423.5" font-family="Helvetica,sans-Serif" font-size="10.00"> </text>
<polyline fill="none" stroke="#bfbfbf" points="391,-416.5 432,-416.5 "/>
<text text-anchor="middle" x="411.5" y="-404.5" font-family="Helvetica,sans-Serif" font-size="10.00"> </text>
</g>
<!-- Node6&#45;&gt;Node5 -->
<g id="edge5" class="edge"><title>Node6&#45;&gt;Node5</title>
<path fill="none" stroke="#404040" d="M399.949,-397.37C392.918,-381.758 383.235,-362.189 372.5,-346 368.588,-340.1 364.306,-334.164 359.841,-328.323"/>
<polygon fill="none" stroke="#404040" points="359.61,-328.03 352.755,-325.792 352.184,-318.603 359.039,-320.841 359.61,-328.03"/>
<text text-anchor="middle" x="413" y="-360" font-family="Helvetica,sans-Serif" font-size="10.00"> &#45;lastMove</text>
</g>
<!-- Node7 -->
<g id="node6" class="node"><title>Node7</title>
<polygon fill="none" stroke="#bfbfbf" points="101.5,-397.5 101.5,-454.5 157.5,-454.5 157.5,-397.5 101.5,-397.5"/>
<text text-anchor="middle" x="129.5" y="-442.5" font-family="Helvetica,sans-Serif" font-size="10.00">Animator</text>
<polyline fill="none" stroke="#bfbfbf" points="101.5,-435.5 157.5,-435.5 "/>
<text text-anchor="middle" x="129.5" y="-423.5" font-family="Helvetica,sans-Serif" font-size="10.00"> </text>
<polyline fill="none" stroke="#bfbfbf" points="101.5,-416.5 157.5,-416.5 "/>
<text text-anchor="middle" x="129.5" y="-404.5" font-family="Helvetica,sans-Serif" font-size="10.00"> </text>
</g>
<!-- Node7&#45;&gt;Node5 -->
<g id="edge6" class="edge"><title>Node7&#45;&gt;Node5</title>
<path fill="none" stroke="#404040" d="M137.711,-397.151C143.529,-380.9 152.611,-360.758 165.5,-346 184.963,-323.714 211.732,-305.237 236.229,-291.302"/>
<polygon fill="none" stroke="#404040" points="236.411,-291.202 239.739,-284.805 246.924,-285.417 243.596,-291.814 236.411,-291.202"/>
<text text-anchor="middle" x="179.5" y="-360" font-family="Helvetica,sans-Serif" font-size="10.00"> &#45;anim</text>
</g>
<!-- Node8 -->
<g id="node7" class="node"><title>Node8</title>
<polygon fill="none" stroke="#bfbfbf" points="176,-397.5 176,-454.5 211,-454.5 211,-397.5 176,-397.5"/>
<text text-anchor="middle" x="193.5" y="-442.5" font-family="Helvetica,sans-Serif" font-size="10.00">float</text>
<polyline fill="none" stroke="#bfbfbf" points="176,-435.5 211,-435.5 "/>
<text text-anchor="middle" x="193.5" y="-423.5" font-family="Helvetica,sans-Serif" font-size="10.00"> </text>
<polyline fill="none" stroke="#bfbfbf" points="176,-416.5 211,-416.5 "/>
<text text-anchor="middle" x="193.5" y="-404.5" font-family="Helvetica,sans-Serif" font-size="10.00"> </text>
</g>
<!-- Node8&#45;&gt;Node5 -->
<g id="edge7" class="edge"><title>Node8&#45;&gt;Node5</title>
<path fill="none" stroke="#404040" d="M194.07,-397.224C195.427,-381.383 198.927,-361.633 207.5,-346 215.228,-331.908 226.192,-318.894 237.87,-307.514"/>
<polygon fill="none" stroke="#404040" points="238.101,-307.3 239.779,-300.287 246.898,-299.139 245.22,-306.152 238.101,-307.3"/>
<text text-anchor="middle" x="224" y="-360" font-family="Helvetica,sans-Serif" font-size="10.00"> &#45;speed</text>
</g>
<!-- Node9 -->
<g id="node8" class="node"><title>Node9</title>
<polygon fill="none" stroke="#bfbfbf" points="229.5,-397.5 229.5,-454.5 279.5,-454.5 279.5,-397.5 229.5,-397.5"/>
<text text-anchor="middle" x="254.5" y="-442.5" font-family="Helvetica,sans-Serif" font-size="10.00">Vector2</text>
<polyline fill="none" stroke="#bfbfbf" points="229.5,-435.5 279.5,-435.5 "/>
<text text-anchor="middle" x="254.5" y="-423.5" font-family="Helvetica,sans-Serif" font-size="10.00"> </text>
<polyline fill="none" stroke="#bfbfbf" points="229.5,-416.5 279.5,-416.5 "/>
<text text-anchor="middle" x="254.5" y="-404.5" font-family="Helvetica,sans-Serif" font-size="10.00"> </text>
</g>
<!-- Node9&#45;&gt;Node5 -->
<g id="edge8" class="edge"><title>Node9&#45;&gt;Node5</title>
<path fill="none" stroke="#404040" d="M246.691,-397.488C243.561,-382.091 241.698,-362.693 246.5,-346 247.192,-343.595 247.975,-341.192 248.836,-338.798"/>
<polygon fill="none" stroke="#404040" points="248.836,-338.798 247.412,-331.729 253.39,-327.696 254.814,-334.765 248.836,-338.798"/>
<text text-anchor="middle" x="285" y="-360" font-family="Helvetica,sans-Serif" font-size="10.00"> &#45;previousPosition</text>
</g>
<!-- Node10 -->
<g id="node9" class="node"><title>Node10</title>
<polygon fill="none" stroke="#bfbfbf" points="456,-397.5 456,-454.5 491,-454.5 491,-397.5 456,-397.5"/>
<text text-anchor="middle" x="473.5" y="-442.5" font-family="Helvetica,sans-Serif" font-size="10.00">bool</text>
<polyline fill="none" stroke="#bfbfbf" points="456,-435.5 491,-435.5 "/>
<text text-anchor="middle" x="473.5" y="-423.5" font-family="Helvetica,sans-Serif" font-size="10.00"> </text>
<polyline fill="none" stroke="#bfbfbf" points="456,-416.5 491,-416.5 "/>
<text text-anchor="middle" x="473.5" y="-404.5" font-family="Helvetica,sans-Serif" font-size="10.00"> </text>
</g>
<!-- Node10&#45;&gt;Node2 -->
<g id="edge11" class="edge"><title>Node10&#45;&gt;Node2</title>
<path fill="none" stroke="#404040" d="M491.24,-422.993C515.535,-419.185 558.324,-408.449 577.5,-379 620.298,-313.272 601.123,-222.523 577.014,-157.125"/>
<polygon fill="none" stroke="#404040" points="576.906,-156.843 571.03,-152.662 572.63,-145.631 578.505,-149.811 576.906,-156.843"/>
<text text-anchor="middle" x="633.5" y="-258" font-family="Helvetica,sans-Serif" font-size="10.00"> +menuActive</text>
</g>
<!-- Node10&#45;&gt;Node5 -->
<g id="edge9" class="edge"><title>Node10&#45;&gt;Node5</title>
<path fill="none" stroke="#404040" d="M466.292,-397.434C460.957,-381.084 452.355,-360.743 439.5,-346 418.674,-322.115 389.394,-302.995 362.99,-289.024"/>
<polygon fill="none" stroke="#404040" points="362.955,-289.006 355.792,-289.837 352.27,-283.544 359.433,-282.713 362.955,-289.006"/>
<text text-anchor="middle" x="516.5" y="-371" font-family="Helvetica,sans-Serif" font-size="10.00"> &#45;playerExists</text>
<text text-anchor="middle" x="516.5" y="-360" font-family="Helvetica,sans-Serif" font-size="10.00">+pseudoEscapeKeyPress</text>
<text text-anchor="middle" x="516.5" y="-349" font-family="Helvetica,sans-Serif" font-size="10.00">&#45;canMove</text>
</g>
<!-- Node11 -->
<g id="node10" class="node"><title>Node11</title>
<polygon fill="none" stroke="#bfbfbf" points="314,-397.5 314,-454.5 373,-454.5 373,-397.5 314,-397.5"/>
<text text-anchor="middle" x="343.5" y="-442.5" font-family="Helvetica,sans-Serif" font-size="10.00">Transform</text>
<polyline fill="none" stroke="#bfbfbf" points="314,-435.5 373,-435.5 "/>
<text text-anchor="middle" x="343.5" y="-423.5" font-family="Helvetica,sans-Serif" font-size="10.00"> </text>
<polyline fill="none" stroke="#bfbfbf" points="314,-416.5 373,-416.5 "/>
<text text-anchor="middle" x="343.5" y="-404.5" font-family="Helvetica,sans-Serif" font-size="10.00"> </text>
</g>
<!-- Node11&#45;&gt;Node5 -->
<g id="edge10" class="edge"><title>Node11&#45;&gt;Node5</title>
<path fill="none" stroke="#404040" d="M338.75,-397.391C335.915,-382.136 331.995,-362.905 327.5,-346 326.929,-343.853 326.334,-341.681 325.719,-339.493"/>
<polygon fill="none" stroke="#404040" points="325.638,-339.214 320.115,-334.578 322.27,-327.696 327.793,-332.333 325.638,-339.214"/>
<text text-anchor="middle" x="352" y="-360" font-family="Helvetica,sans-Serif" font-size="10.00"> &#45;player</text>
</g>
</g>
</svg>
        <g id="navigator" transform="translate(0 0)" fill="#404254">
                <rect fill="#f2f5e9" fill-opacity="0.5" stroke="#606060" stroke-width=".5" x="0" y="0" width="60" height="60"/>
                <use id="zoomplus" xlink:href="#zoomPlus" x="17" y="9" onmousedown="handleZoom(evt,'in')"/>
                <use id="zoomminus" xlink:href="#zoomMin" x="42" y="9" onmousedown="handleZoom(evt,'out')"/>
                <use id="reset" xlink:href="#resetDef" x="30" y="36" onmousedown="handleReset()"/>
                <g id="arrowUp" xlink:href="#dirArrow" transform="translate(30 24)" onmousedown="handlePan(0,-1)">
                  <use xlink:href="#rim" fill="#404040">
                        <set attributeName="fill" to="#808080" begin="arrowUp.mouseover" end="arrowUp.mouseout"/>
                  </use>
                  <path fill="none" stroke="white" stroke-width="1.5" d="M0,-3.0v7 M-2.5,-0.5L0,-3.0L2.5,-0.5"/>
                </g>
                <g id="arrowRight" xlink:href="#dirArrow" transform="rotate(90) translate(36 -43)" onmousedown="handlePan(1,0)">
                  <use xlink:href="#rim" fill="#404040">
                        <set attributeName="fill" to="#808080" begin="arrowRight.mouseover" end="arrowRight.mouseout"/>
                  </use>
                  <path fill="none" stroke="white" stroke-width="1.5" d="M0,-3.0v7 M-2.5,-0.5L0,-3.0L2.5,-0.5"/>
                </g>
                <g id="arrowDown" xlink:href="#dirArrow" transform="rotate(180) translate(-30 -48)" onmousedown="handlePan(0,1)">
                  <use xlink:href="#rim" fill="#404040">
                        <set attributeName="fill" to="#808080" begin="arrowDown.mouseover" end="arrowDown.mouseout"/>
                  </use>
                  <path fill="none" stroke="white" stroke-width="1.5" d="M0,-3.0v7 M-2.5,-0.5L0,-3.0L2.5,-0.5"/>
                </g>
                <g id="arrowLeft" xlink:href="#dirArrow" transform="rotate(270) translate(-36 17)" onmousedown="handlePan(-1,0)">
                  <use xlink:href="#rim" fill="#404040">
                        <set attributeName="fill" to="#808080" begin="arrowLeft.mouseover" end="arrowLeft.mouseout"/>
                  </use>
                  <path fill="none" stroke="white" stroke-width="1.5" d="M0,-3.0v7 M-2.5,-0.5L0,-3.0L2.5,-0.5"/>
                </g>
        </g>
        <svg viewBox="0 0 15 15" width="100%" height="30px" preserveAspectRatio="xMaxYMin meet">
         <g id="arrow_out" transform="scale(0.3 0.3)">
          <a xlink:href="class_exploration_menu_script__coll__graph_org.svg" target="_base">
           <rect id="button" ry="5" rx="5" y="6" x="6" height="38" width="38"
                fill="#f2f5e9" fill-opacity="0.5" stroke="#606060" stroke-width="1.0"/>
           <path id="arrow"
             d="M 11.500037,31.436501 C 11.940474,20.09759 22.043105,11.32322 32.158766,21.979434 L 37.068811,17.246167 C 37.068811,17.246167 37.088388,32 37.088388,32 L 22.160133,31.978069 C 22.160133,31.978069 26.997745,27.140456 26.997745,27.140456 C 18.528582,18.264221 13.291696,25.230495 11.500037,31.436501 z"
             style="fill:#404040;"/>
          </a>
         </g>
        </svg>
</svg>
