<?xml version="1.0" encoding="UTF-8" standalone="no"?>
<!DOCTYPE svg PUBLIC "-//W3C//DTD SVG 1.1//EN"
 "http://www.w3.org/Graphics/SVG/1.1/DTD/svg11.dtd">
<!-- Generated by graphviz version 2.38.0 (20140413.2041)
 -->
<!-- Title: GameEvents.GameEvent&lt; TGameEventArgs &gt; Pages: 1 -->
<!--zoomable 193 -->
<svg id="main" version="1.1" xmlns="http://www.w3.org/2000/svg" xmlns:xlink="http://www.w3.org/1999/xlink" xml:space="preserve" onload="init(evt)">
<style type="text/css"><![CDATA[
.edge:hover path { stroke: red; }
.edge:hover polygon { stroke: red; fill: red; }
]]></style>
<script type="text/javascript"><![CDATA[
var edges = document.getElementsByTagName('g');
if (edges && edges.length) {
  for (var i=0;i<edges.length;i++) {
    if (edges[i].id.substr(0,4)=='edge') {
      edges[i].setAttribute('class','edge');
    }
  }
}
]]></script>
        <defs>
                <circle id="rim" cx="0" cy="0" r="7"/>
                <circle id="rim2" cx="0" cy="0" r="3.5"/>
                <g id="zoomPlus">
                        <use xlink:href="#rim" fill="#404040">
                                <set attributeName="fill" to="#808080" begin="zoomplus.mouseover" end="zoomplus.mouseout"/>
                        </use>
                        <path d="M-4,0h8M0,-4v8" fill="none" stroke="white" stroke-width="1.5" pointer-events="none"/>
                </g>
                <g id="zoomMin">
                        <use xlink:href="#rim" fill="#404040">
                                <set attributeName="fill" to="#808080" begin="zoomminus.mouseover" end="zoomminus.mouseout"/>
                        </use>
                        <path d="M-4,0h8" fill="none" stroke="white" stroke-width="1.5" pointer-events="none"/>
                </g>
                <g id="dirArrow">
                        <path fill="none" stroke="white" stroke-width="1.5" d="M0,-3.0v7 M-2.5,-0.5L0,-3.0L2.5,-0.5"/>
                </g>
               <g id="resetDef">
                       <use xlink:href="#rim2" fill="#404040">
                               <set attributeName="fill" to="#808080" begin="reset.mouseover" end="reset.mouseout"/>
                       </use>
               </g>
        </defs>

<script type="text/javascript">
var viewWidth = 1603;
var viewHeight = 193;
var sectionId = 'dynsection-0';
</script>
<script xlink:href="svgpan.js"/>
<svg id="graph" class="graph">
<g id="viewport">
<title>GameEvents.GameEvent&lt; TGameEventArgs &gt;</title>
<!-- Node0 -->
<g id="node1" class="node"><title>Node0</title>
<polygon fill="#bfbfbf" stroke="black" points="743,-116.5 743,-184.5 868,-184.5 868,-116.5 743,-116.5"/>
<text text-anchor="start" x="751" y="-172.5" font-family="Helvetica,sans-Serif" font-size="10.00">GameEvents.GameEvent</text>
<text text-anchor="middle" x="805.5" y="-161.5" font-family="Helvetica,sans-Serif" font-size="10.00">&lt; TGameEventArgs &gt;</text>
<polyline fill="none" stroke="black" points="743,-154.5 868,-154.5 "/>
<text text-anchor="middle" x="805.5" y="-142.5" font-family="Helvetica,sans-Serif" font-size="10.00"> </text>
<polyline fill="none" stroke="black" points="743,-135.5 868,-135.5 "/>
<text text-anchor="start" x="751" y="-123.5" font-family="Helvetica,sans-Serif" font-size="10.00">+ signal()</text>
</g>
<!-- Node1 -->
<g id="node2" class="node"><title>Node1</title>
<g id="a_node2"><a xlink:href="class_game_events_1_1_game_event.html" target="_top" xlink:title="{GameEvents.GameEvent\l\&lt; SceneChangedEventArgs \&gt;\n||+ signal()\l}">
<polygon fill="none" stroke="black" points="0,-0.5 0,-68.5 145,-68.5 145,-0.5 0,-0.5"/>
<text text-anchor="start" x="8" y="-56.5" font-family="Helvetica,sans-Serif" font-size="10.00">GameEvents.GameEvent</text>
<text text-anchor="middle" x="72.5" y="-45.5" font-family="Helvetica,sans-Serif" font-size="10.00">&lt; SceneChangedEventArgs &gt;</text>
<polyline fill="none" stroke="black" points="0,-38.5 145,-38.5 "/>
<text text-anchor="middle" x="72.5" y="-26.5" font-family="Helvetica,sans-Serif" font-size="10.00"> </text>
<polyline fill="none" stroke="black" points="0,-19.5 145,-19.5 "/>
<text text-anchor="start" x="8" y="-7.5" font-family="Helvetica,sans-Serif" font-size="10.00">+ signal()</text>
</a>
</g>
</g>
<!-- Node0&#45;&gt;Node1 -->
<g id="edge1" class="edge"><title>Node0&#45;&gt;Node1</title>
<path fill="none" stroke="orange" d="M732.879,-147.898C589.416,-144.03 274.712,-131.86 172.5,-98 152.483,-91.3689 132.385,-79.9562 115.512,-68.6831"/>
<polygon fill="orange" stroke="orange" points="732.818,-151.398 742.907,-148.162 733.003,-144.4 732.818,-151.398"/>
<text text-anchor="middle" x="238.5" y="-90" font-family="Helvetica,sans-Serif" font-size="10.00"> &lt; SceneChangedEventArgs &gt;</text>
</g>
<!-- Node2 -->
<g id="node3" class="node"><title>Node2</title>
<g id="a_node3"><a xlink:href="class_game_events_1_1_game_event.html" target="_top" xlink:title="{GameEvents.GameEvent\l\&lt; BattleEndedEventArgs \&gt;\n||+ signal()\l}">
<polygon fill="none" stroke="black" points="163.5,-0.5 163.5,-68.5 295.5,-68.5 295.5,-0.5 163.5,-0.5"/>
<text text-anchor="start" x="171.5" y="-56.5" font-family="Helvetica,sans-Serif" font-size="10.00">GameEvents.GameEvent</text>
<text text-anchor="middle" x="229.5" y="-45.5" font-family="Helvetica,sans-Serif" font-size="10.00">&lt; BattleEndedEventArgs &gt;</text>
<polyline fill="none" stroke="black" points="163.5,-38.5 295.5,-38.5 "/>
<text text-anchor="middle" x="229.5" y="-26.5" font-family="Helvetica,sans-Serif" font-size="10.00"> </text>
<polyline fill="none" stroke="black" points="163.5,-19.5 295.5,-19.5 "/>
<text text-anchor="start" x="171.5" y="-7.5" font-family="Helvetica,sans-Serif" font-size="10.00">+ signal()</text>
</a>
</g>
</g>
<!-- Node0&#45;&gt;Node2 -->
<g id="edge2" class="edge"><title>Node0&#45;&gt;Node2</title>
<path fill="none" stroke="orange" d="M732.633,-145.439C618.902,-138.45 404.734,-122.494 332.5,-98 312.196,-91.1151 291.639,-79.7239 274.286,-68.5388"/>
<polygon fill="orange" stroke="orange" points="732.456,-148.934 742.65,-146.047 732.88,-141.947 732.456,-148.934"/>
<text text-anchor="middle" x="392" y="-90" font-family="Helvetica,sans-Serif" font-size="10.00"> &lt; BattleEndedEventArgs &gt;</text>
</g>
<!-- Node3 -->
<g id="node4" class="node"><title>Node3</title>
<g id="a_node4"><a xlink:href="class_game_events_1_1_game_event.html" target="_top" xlink:title="{GameEvents.GameEvent\l\&lt; CharacterEventArgs \&gt;\n||+ signal()\l}">
<polygon fill="none" stroke="black" points="314,-0.5 314,-68.5 439,-68.5 439,-0.5 314,-0.5"/>
<text text-anchor="start" x="322" y="-56.5" font-family="Helvetica,sans-Serif" font-size="10.00">GameEvents.GameEvent</text>
<text text-anchor="middle" x="376.5" y="-45.5" font-family="Helvetica,sans-Serif" font-size="10.00">&lt; CharacterEventArgs &gt;</text>
<polyline fill="none" stroke="black" points="314,-38.5 439,-38.5 "/>
<text text-anchor="middle" x="376.5" y="-26.5" font-family="Helvetica,sans-Serif" font-size="10.00"> </text>
<polyline fill="none" stroke="black" points="314,-19.5 439,-19.5 "/>
<text text-anchor="start" x="322" y="-7.5" font-family="Helvetica,sans-Serif" font-size="10.00">+ signal()</text>
</a>
</g>
</g>
<!-- Node0&#45;&gt;Node3 -->
<g id="edge3" class="edge"><title>Node0&#45;&gt;Node3</title>
<path fill="none" stroke="orange" d="M732.616,-146.065C665.182,-141.023 563.047,-128.596 479.5,-98 459.663,-90.7354 439.446,-79.4746 422.237,-68.5016"/>
<polygon fill="orange" stroke="orange" points="732.497,-149.566 742.72,-146.785 732.994,-142.583 732.497,-149.566"/>
<text text-anchor="middle" x="533.5" y="-90" font-family="Helvetica,sans-Serif" font-size="10.00"> &lt; CharacterEventArgs &gt;</text>
</g>
<!-- Node4 -->
<g id="node5" class="node"><title>Node4</title>
<g id="a_node5"><a xlink:href="class_game_events_1_1_game_event.html" target="_top" xlink:title="{GameEvents.GameEvent\l\&lt; InteractionArgs \&gt;\n||+ signal()\l}">
<polygon fill="none" stroke="black" points="457,-0.5 457,-68.5 582,-68.5 582,-0.5 457,-0.5"/>
<text text-anchor="start" x="465" y="-56.5" font-family="Helvetica,sans-Serif" font-size="10.00">GameEvents.GameEvent</text>
<text text-anchor="middle" x="519.5" y="-45.5" font-family="Helvetica,sans-Serif" font-size="10.00">&lt; InteractionArgs &gt;</text>
<polyline fill="none" stroke="black" points="457,-38.5 582,-38.5 "/>
<text text-anchor="middle" x="519.5" y="-26.5" font-family="Helvetica,sans-Serif" font-size="10.00"> </text>
<polyline fill="none" stroke="black" points="457,-19.5 582,-19.5 "/>
<text text-anchor="start" x="465" y="-7.5" font-family="Helvetica,sans-Serif" font-size="10.00">+ signal()</text>
</a>
</g>
</g>
<!-- Node0&#45;&gt;Node4 -->
<g id="edge4" class="edge"><title>Node0&#45;&gt;Node4</title>
<path fill="none" stroke="orange" d="M732.738,-136.73C694.89,-128.527 648.509,-115.983 609.5,-98 592.57,-90.1951 575.413,-79.2067 560.683,-68.616"/>
<polygon fill="orange" stroke="orange" points="732.162,-140.185 742.669,-138.825 733.607,-133.336 732.162,-140.185"/>
<text text-anchor="middle" x="653" y="-90" font-family="Helvetica,sans-Serif" font-size="10.00"> &lt; InteractionArgs &gt;</text>
</g>
<!-- Node5 -->
<g id="node6" class="node"><title>Node5</title>
<g id="a_node6"><a xlink:href="class_game_events_1_1_game_event.html" target="_top" xlink:title="{GameEvents.GameEvent\l\&lt; IntChangedArgs \&gt;\n||+ signal()\l}">
<polygon fill="none" stroke="black" points="600,-0.5 600,-68.5 725,-68.5 725,-0.5 600,-0.5"/>
<text text-anchor="start" x="608" y="-56.5" font-family="Helvetica,sans-Serif" font-size="10.00">GameEvents.GameEvent</text>
<text text-anchor="middle" x="662.5" y="-45.5" font-family="Helvetica,sans-Serif" font-size="10.00">&lt; IntChangedArgs &gt;</text>
<polyline fill="none" stroke="black" points="600,-38.5 725,-38.5 "/>
<text text-anchor="middle" x="662.5" y="-26.5" font-family="Helvetica,sans-Serif" font-size="10.00"> </text>
<polyline fill="none" stroke="black" points="600,-19.5 725,-19.5 "/>
<text text-anchor="start" x="608" y="-7.5" font-family="Helvetica,sans-Serif" font-size="10.00">+ signal()</text>
</a>
</g>
</g>
<!-- Node0&#45;&gt;Node5 -->
<g id="edge5" class="edge"><title>Node0&#45;&gt;Node5</title>
<path fill="none" stroke="orange" d="M734.05,-115.099C725.758,-109.869 717.703,-104.145 710.5,-98 700.612,-89.5642 691.453,-78.7825 683.843,-68.5576"/>
<polygon fill="orange" stroke="orange" points="732.383,-118.181 742.75,-120.367 736.009,-112.193 732.383,-118.181"/>
<text text-anchor="middle" x="756" y="-90" font-family="Helvetica,sans-Serif" font-size="10.00"> &lt; IntChangedArgs &gt;</text>
</g>
<!-- Node6 -->
<g id="node7" class="node"><title>Node6</title>
<g id="a_node7"><a xlink:href="class_game_events_1_1_game_event.html" target="_top" xlink:title="{GameEvents.GameEvent\l\&lt; BattleMoveArgs \&gt;\n||+ signal()\l}">
<polygon fill="none" stroke="black" points="743,-0.5 743,-68.5 868,-68.5 868,-0.5 743,-0.5"/>
<text text-anchor="start" x="751" y="-56.5" font-family="Helvetica,sans-Serif" font-size="10.00">GameEvents.GameEvent</text>
<text text-anchor="middle" x="805.5" y="-45.5" font-family="Helvetica,sans-Serif" font-size="10.00">&lt; BattleMoveArgs &gt;</text>
<polyline fill="none" stroke="black" points="743,-38.5 868,-38.5 "/>
<text text-anchor="middle" x="805.5" y="-26.5" font-family="Helvetica,sans-Serif" font-size="10.00"> </text>
<polyline fill="none" stroke="black" points="743,-19.5 868,-19.5 "/>
<text text-anchor="start" x="751" y="-7.5" font-family="Helvetica,sans-Serif" font-size="10.00">+ signal()</text>
</a>
</g>
</g>
<!-- Node0&#45;&gt;Node6 -->
<g id="edge6" class="edge"><title>Node0&#45;&gt;Node6</title>
<path fill="none" stroke="orange" d="M805.5,-106.06C805.5,-93.644 805.5,-80.3162 805.5,-68.6243"/>
<polygon fill="orange" stroke="orange" points="802,-106.22 805.5,-116.22 809,-106.22 802,-106.22"/>
<text text-anchor="middle" x="850.5" y="-90" font-family="Helvetica,sans-Serif" font-size="10.00"> &lt; BattleMoveArgs &gt;</text>
</g>
<!-- Node7 -->
<g id="node8" class="node"><title>Node7</title>
<g id="a_node8"><a xlink:href="class_game_events_1_1_game_event.html" target="_top" xlink:title="{GameEvents.GameEvent\l\&lt; BattleEventArgs \&gt;\n||+ signal()\l}">
<polygon fill="none" stroke="black" points="886,-0.5 886,-68.5 1011,-68.5 1011,-0.5 886,-0.5"/>
<text text-anchor="start" x="894" y="-56.5" font-family="Helvetica,sans-Serif" font-size="10.00">GameEvents.GameEvent</text>
<text text-anchor="middle" x="948.5" y="-45.5" font-family="Helvetica,sans-Serif" font-size="10.00">&lt; BattleEventArgs &gt;</text>
<polyline fill="none" stroke="black" points="886,-38.5 1011,-38.5 "/>
<text text-anchor="middle" x="948.5" y="-26.5" font-family="Helvetica,sans-Serif" font-size="10.00"> </text>
<polyline fill="none" stroke="black" points="886,-19.5 1011,-19.5 "/>
<text text-anchor="start" x="894" y="-7.5" font-family="Helvetica,sans-Serif" font-size="10.00">+ signal()</text>
</a>
</g>
</g>
<!-- Node0&#45;&gt;Node7 -->
<g id="edge7" class="edge"><title>Node0&#45;&gt;Node7</title>
<path fill="none" stroke="orange" d="M876.75,-114.571C884.748,-109.472 892.518,-103.923 899.5,-98 909.488,-89.5262 918.811,-78.7347 926.587,-68.5125"/>
<polygon fill="orange" stroke="orange" points="874.708,-111.717 868.008,-119.925 878.364,-117.687 874.708,-111.717"/>
<text text-anchor="middle" x="956" y="-90" font-family="Helvetica,sans-Serif" font-size="10.00"> &lt; BattleEventArgs &gt;</text>
</g>
<!-- Node8 -->
<g id="node9" class="node"><title>Node8</title>
<g id="a_node9"><a xlink:href="class_game_events_1_1_game_event.html" target="_top" xlink:title="{GameEvents.GameEvent\l\&lt; BattleStartedEventArgs \&gt;\n||+ signal()\l}">
<polygon fill="none" stroke="black" points="1029.5,-0.5 1029.5,-68.5 1165.5,-68.5 1165.5,-0.5 1029.5,-0.5"/>
<text text-anchor="start" x="1037.5" y="-56.5" font-family="Helvetica,sans-Serif" font-size="10.00">GameEvents.GameEvent</text>
<text text-anchor="middle" x="1097.5" y="-45.5" font-family="Helvetica,sans-Serif" font-size="10.00">&lt; BattleStartedEventArgs &gt;</text>
<polyline fill="none" stroke="black" points="1029.5,-38.5 1165.5,-38.5 "/>
<text text-anchor="middle" x="1097.5" y="-26.5" font-family="Helvetica,sans-Serif" font-size="10.00"> </text>
<polyline fill="none" stroke="black" points="1029.5,-19.5 1165.5,-19.5 "/>
<text text-anchor="start" x="1037.5" y="-7.5" font-family="Helvetica,sans-Serif" font-size="10.00">+ signal()</text>
</a>
</g>
</g>
<!-- Node0&#45;&gt;Node8 -->
<g id="edge8" class="edge"><title>Node0&#45;&gt;Node8</title>
<path fill="none" stroke="orange" d="M878.373,-137.039C917.208,-128.853 965.158,-116.228 1005.5,-98 1022.74,-90.2083 1040.27,-79.2231 1055.33,-68.6311"/>
<polygon fill="orange" stroke="orange" points="877.284,-133.689 868.192,-139.128 878.691,-140.547 877.284,-133.689"/>
<text text-anchor="middle" x="1086" y="-90" font-family="Helvetica,sans-Serif" font-size="10.00"> &lt; BattleStartedEventArgs &gt;</text>
</g>
<!-- Node9 -->
<g id="node10" class="node"><title>Node9</title>
<g id="a_node10"><a xlink:href="class_game_events_1_1_game_event.html" target="_top" xlink:title="{GameEvents.GameEvent\l\&lt; ItemEventArgs \&gt;\n||+ signal()\l}">
<polygon fill="none" stroke="black" points="1184,-0.5 1184,-68.5 1309,-68.5 1309,-0.5 1184,-0.5"/>
<text text-anchor="start" x="1192" y="-56.5" font-family="Helvetica,sans-Serif" font-size="10.00">GameEvents.GameEvent</text>
<text text-anchor="middle" x="1246.5" y="-45.5" font-family="Helvetica,sans-Serif" font-size="10.00">&lt; ItemEventArgs &gt;</text>
<polyline fill="none" stroke="black" points="1184,-38.5 1309,-38.5 "/>
<text text-anchor="middle" x="1246.5" y="-26.5" font-family="Helvetica,sans-Serif" font-size="10.00"> </text>
<polyline fill="none" stroke="black" points="1184,-19.5 1309,-19.5 "/>
<text text-anchor="start" x="1192" y="-7.5" font-family="Helvetica,sans-Serif" font-size="10.00">+ signal()</text>
</a>
</g>
</g>
<!-- Node0&#45;&gt;Node9 -->
<g id="edge9" class="edge"><title>Node0&#45;&gt;Node9</title>
<path fill="none" stroke="orange" d="M878.44,-147.739C950.095,-143.931 1061.47,-132.387 1151.5,-98 1170.13,-90.8857 1188.84,-79.6565 1204.68,-68.6669"/>
<polygon fill="orange" stroke="orange" points="877.979,-144.257 868.164,-148.246 878.324,-151.249 877.979,-144.257"/>
<text text-anchor="middle" x="1217" y="-90" font-family="Helvetica,sans-Serif" font-size="10.00"> &lt; ItemEventArgs &gt;</text>
</g>
<!-- Node10 -->
<g id="node11" class="node"><title>Node10</title>
<g id="a_node11"><a xlink:href="class_game_events_1_1_game_event.html" target="_top" xlink:title="{GameEvents.GameEvent\l\&lt; BeatLevelArgs \&gt;\n||+ signal()\l}">
<polygon fill="none" stroke="black" points="1327,-0.5 1327,-68.5 1452,-68.5 1452,-0.5 1327,-0.5"/>
<text text-anchor="start" x="1335" y="-56.5" font-family="Helvetica,sans-Serif" font-size="10.00">GameEvents.GameEvent</text>
<text text-anchor="middle" x="1389.5" y="-45.5" font-family="Helvetica,sans-Serif" font-size="10.00">&lt; BeatLevelArgs &gt;</text>
<polyline fill="none" stroke="black" points="1327,-38.5 1452,-38.5 "/>
<text text-anchor="middle" x="1389.5" y="-26.5" font-family="Helvetica,sans-Serif" font-size="10.00"> </text>
<polyline fill="none" stroke="black" points="1327,-19.5 1452,-19.5 "/>
<text text-anchor="start" x="1335" y="-7.5" font-family="Helvetica,sans-Serif" font-size="10.00">+ signal()</text>
</a>
</g>
</g>
<!-- Node0&#45;&gt;Node10 -->
<g id="edge10" class="edge"><title>Node0&#45;&gt;Node10</title>
<path fill="none" stroke="orange" d="M878.348,-149.057C970.014,-146.753 1131.43,-136.867 1263.5,-98 1287.39,-90.9681 1312.25,-79.6177 1333.51,-68.5065"/>
<polygon fill="orange" stroke="orange" points="878.256,-145.558 868.338,-149.285 878.415,-152.556 878.256,-145.558"/>
<text text-anchor="middle" x="1334.5" y="-90" font-family="Helvetica,sans-Serif" font-size="10.00"> &lt; BeatLevelArgs &gt;</text>
</g>
<!-- Node11 -->
<g id="node12" class="node"><title>Node11</title>
<g id="a_node12"><a xlink:href="class_game_events_1_1_game_event.html" target="_top" xlink:title="{GameEvents.GameEvent\l\&lt; GameEventArgs \&gt;\n||+ signal()\l}">
<polygon fill="none" stroke="black" points="1470,-0.5 1470,-68.5 1595,-68.5 1595,-0.5 1470,-0.5"/>
<text text-anchor="start" x="1478" y="-56.5" font-family="Helvetica,sans-Serif" font-size="10.00">GameEvents.GameEvent</text>
<text text-anchor="middle" x="1532.5" y="-45.5" font-family="Helvetica,sans-Serif" font-size="10.00">&lt; GameEventArgs &gt;</text>
<polyline fill="none" stroke="black" points="1470,-38.5 1595,-38.5 "/>
<text text-anchor="middle" x="1532.5" y="-26.5" font-family="Helvetica,sans-Serif" font-size="10.00"> </text>
<polyline fill="none" stroke="black" points="1470,-19.5 1595,-19.5 "/>
<text text-anchor="start" x="1478" y="-7.5" font-family="Helvetica,sans-Serif" font-size="10.00">+ signal()</text>
</a>
</g>
</g>
<!-- Node0&#45;&gt;Node11 -->
<g id="edge11" class="edge"><title>Node0&#45;&gt;Node11</title>
<path fill="none" stroke="orange" d="M878.422,-148.969C988.494,-146.826 1203.07,-137.405 1380.5,-98 1410.86,-91.257 1442.92,-78.9255 1469.73,-66.9869"/>
<polygon fill="orange" stroke="orange" points="878.358,-145.469 868.423,-149.149 878.484,-152.468 878.358,-145.469"/>
<text text-anchor="middle" x="1461.5" y="-90" font-family="Helvetica,sans-Serif" font-size="10.00"> &lt; GameEventArgs &gt;</text>
</g>
</g>
</svg>
        <g id="navigator" transform="translate(0 0)" fill="#404254">
                <rect fill="#f2f5e9" fill-opacity="0.5" stroke="#606060" stroke-width=".5" x="0" y="0" width="60" height="60"/>
                <use id="zoomplus" xlink:href="#zoomPlus" x="17" y="9" onmousedown="handleZoom(evt,'in')"/>
                <use id="zoomminus" xlink:href="#zoomMin" x="42" y="9" onmousedown="handleZoom(evt,'out')"/>
                <use id="reset" xlink:href="#resetDef" x="30" y="36" onmousedown="handleReset()"/>
                <g id="arrowUp" xlink:href="#dirArrow" transform="translate(30 24)" onmousedown="handlePan(0,-1)">
                  <use xlink:href="#rim" fill="#404040">
                        <set attributeName="fill" to="#808080" begin="arrowUp.mouseover" end="arrowUp.mouseout"/>
                  </use>
                  <path fill="none" stroke="white" stroke-width="1.5" d="M0,-3.0v7 M-2.5,-0.5L0,-3.0L2.5,-0.5"/>
                </g>
                <g id="arrowRight" xlink:href="#dirArrow" transform="rotate(90) translate(36 -43)" onmousedown="handlePan(1,0)">
                  <use xlink:href="#rim" fill="#404040">
                        <set attributeName="fill" to="#808080" begin="arrowRight.mouseover" end="arrowRight.mouseout"/>
                  </use>
                  <path fill="none" stroke="white" stroke-width="1.5" d="M0,-3.0v7 M-2.5,-0.5L0,-3.0L2.5,-0.5"/>
                </g>
                <g id="arrowDown" xlink:href="#dirArrow" transform="rotate(180) translate(-30 -48)" onmousedown="handlePan(0,1)">
                  <use xlink:href="#rim" fill="#404040">
                        <set attributeName="fill" to="#808080" begin="arrowDown.mouseover" end="arrowDown.mouseout"/>
                  </use>
                  <path fill="none" stroke="white" stroke-width="1.5" d="M0,-3.0v7 M-2.5,-0.5L0,-3.0L2.5,-0.5"/>
                </g>
                <g id="arrowLeft" xlink:href="#dirArrow" transform="rotate(270) translate(-36 17)" onmousedown="handlePan(-1,0)">
                  <use xlink:href="#rim" fill="#404040">
                        <set attributeName="fill" to="#808080" begin="arrowLeft.mouseover" end="arrowLeft.mouseout"/>
                  </use>
                  <path fill="none" stroke="white" stroke-width="1.5" d="M0,-3.0v7 M-2.5,-0.5L0,-3.0L2.5,-0.5"/>
                </g>
        </g>
        <svg viewBox="0 0 15 15" width="100%" height="30px" preserveAspectRatio="xMaxYMin meet">
         <g id="arrow_out" transform="scale(0.3 0.3)">
          <a xlink:href="class_game_events_1_1_game_event__inherit__graph_org.svg" target="_base">
           <rect id="button" ry="5" rx="5" y="6" x="6" height="38" width="38"
                fill="#f2f5e9" fill-opacity="0.5" stroke="#606060" stroke-width="1.0"/>
           <path id="arrow"
             d="M 11.500037,31.436501 C 11.940474,20.09759 22.043105,11.32322 32.158766,21.979434 L 37.068811,17.246167 C 37.068811,17.246167 37.088388,32 37.088388,32 L 22.160133,31.978069 C 22.160133,31.978069 26.997745,27.140456 26.997745,27.140456 C 18.528582,18.264221 13.291696,25.230495 11.500037,31.436501 z"
             style="fill:#404040;"/>
          </a>
         </g>
        </svg>
</svg>
