<?xml version="1.0" encoding="UTF-8" standalone="no"?>
<!DOCTYPE svg PUBLIC "-//W3C//DTD SVG 1.1//EN"
 "http://www.w3.org/Graphics/SVG/1.1/DTD/svg11.dtd">
<!-- Generated by graphviz version 2.38.0 (20140413.2041)
 -->
<!-- Title: EndGameHandler Pages: 1 -->
<svg width="387pt" height="204pt"
 viewBox="0.00 0.00 386.50 204.00" xmlns="http://www.w3.org/2000/svg" xmlns:xlink="http://www.w3.org/1999/xlink">
<g id="graph0" class="graph" transform="scale(1 1) rotate(0) translate(4 200)">
<title>EndGameHandler</title>
<!-- Node2 -->
<g id="node1" class="node"><title>Node2</title>
<polygon fill="#bfbfbf" stroke="black" points="156,-0.5 156,-90.5 249,-90.5 249,-0.5 156,-0.5"/>
<text text-anchor="middle" x="202.5" y="-78.5" font-family="Helvetica,sans-Serif" font-size="10.00">EndGameHandler</text>
<polyline fill="none" stroke="black" points="156,-71.5 249,-71.5 "/>
<text text-anchor="middle" x="202.5" y="-59.5" font-family="Helvetica,sans-Serif" font-size="10.00"> </text>
<polyline fill="none" stroke="black" points="156,-52.5 249,-52.5 "/>
<text text-anchor="start" x="164" y="-40.5" font-family="Helvetica,sans-Serif" font-size="10.00">+ playAgain()</text>
<text text-anchor="start" x="164" y="-29.5" font-family="Helvetica,sans-Serif" font-size="10.00">+ endGame()</text>
<text text-anchor="start" x="164" y="-18.5" font-family="Helvetica,sans-Serif" font-size="10.00">&#45; Start()</text>
<text text-anchor="start" x="164" y="-7.5" font-family="Helvetica,sans-Serif" font-size="10.00">&#45; Update()</text>
</g>
<!-- Node3 -->
<g id="node2" class="node"><title>Node3</title>
<g id="a_node2"><a xlink:href="class_mono_behaviour.html" target="_top" xlink:title="{MonoBehaviour\n||}">
<polygon fill="none" stroke="black" points="0,-138.5 0,-195.5 83,-195.5 83,-138.5 0,-138.5"/>
<text text-anchor="middle" x="41.5" y="-183.5" font-family="Helvetica,sans-Serif" font-size="10.00">MonoBehaviour</text>
<polyline fill="none" stroke="black" points="0,-176.5 83,-176.5 "/>
<text text-anchor="middle" x="41.5" y="-164.5" font-family="Helvetica,sans-Serif" font-size="10.00"> </text>
<polyline fill="none" stroke="black" points="0,-157.5 83,-157.5 "/>
<text text-anchor="middle" x="41.5" y="-145.5" font-family="Helvetica,sans-Serif" font-size="10.00"> </text>
</a>
</g>
</g>
<!-- Node3&#45;&gt;Node2 -->
<g id="edge1" class="edge"><title>Node3&#45;&gt;Node2</title>
<path fill="none" stroke="midnightblue" d="M86.8774,-132.319C108.423,-116.327 134.145,-97.2358 155.851,-81.1245"/>
<polygon fill="none" stroke="midnightblue" points="84.7851,-129.513 78.8413,-138.284 88.9572,-135.134 84.7851,-129.513"/>
</g>
<!-- Node4 -->
<g id="node3" class="node"><title>Node4</title>
<polygon fill="none" stroke="#bfbfbf" points="101.5,-138.5 101.5,-195.5 149.5,-195.5 149.5,-138.5 101.5,-138.5"/>
<text text-anchor="middle" x="125.5" y="-183.5" font-family="Helvetica,sans-Serif" font-size="10.00">Canvas</text>
<polyline fill="none" stroke="#bfbfbf" points="101.5,-176.5 149.5,-176.5 "/>
<text text-anchor="middle" x="125.5" y="-164.5" font-family="Helvetica,sans-Serif" font-size="10.00"> </text>
<polyline fill="none" stroke="#bfbfbf" points="101.5,-157.5 149.5,-157.5 "/>
<text text-anchor="middle" x="125.5" y="-145.5" font-family="Helvetica,sans-Serif" font-size="10.00"> </text>
</g>
<!-- Node4&#45;&gt;Node2 -->
<g id="edge2" class="edge"><title>Node4&#45;&gt;Node2</title>
<path fill="none" stroke="#404040" d="M132.144,-138.295C135.12,-128.635 139.183,-117.974 144.5,-109 146.175,-106.172 147.997,-103.365 149.926,-100.596"/>
<polygon fill="none" stroke="#404040" points="150.103,-100.359 150.511,-93.1596 157.314,-90.7671 156.906,-97.9667 150.103,-100.359"/>
<text text-anchor="middle" x="171.5" y="-112" font-family="Helvetica,sans-Serif" font-size="10.00"> &#45;thisCanvas</text>
</g>
<!-- Node5 -->
<g id="node4" class="node"><title>Node5</title>
<polygon fill="none" stroke="#bfbfbf" points="188,-138.5 188,-195.5 217,-195.5 217,-138.5 188,-138.5"/>
<text text-anchor="middle" x="202.5" y="-183.5" font-family="Helvetica,sans-Serif" font-size="10.00">int</text>
<polyline fill="none" stroke="#bfbfbf" points="188,-176.5 217,-176.5 "/>
<text text-anchor="middle" x="202.5" y="-164.5" font-family="Helvetica,sans-Serif" font-size="10.00"> </text>
<polyline fill="none" stroke="#bfbfbf" points="188,-157.5 217,-157.5 "/>
<text text-anchor="middle" x="202.5" y="-145.5" font-family="Helvetica,sans-Serif" font-size="10.00"> </text>
</g>
<!-- Node5&#45;&gt;Node2 -->
<g id="edge3" class="edge"><title>Node5&#45;&gt;Node2</title>
<path fill="none" stroke="#404040" d="M202.5,-138.284C202.5,-127.735 202.5,-115.294 202.5,-103.035"/>
<polygon fill="none" stroke="#404040" points="202.5,-102.912 198.5,-96.9125 202.5,-90.9125 206.5,-96.9124 202.5,-102.912"/>
<text text-anchor="middle" x="218" y="-112" font-family="Helvetica,sans-Serif" font-size="10.00"> &#45;score</text>
</g>
<!-- Node6 -->
<g id="node5" class="node"><title>Node6</title>
<polygon fill="none" stroke="#bfbfbf" points="239,-138.5 239,-195.5 274,-195.5 274,-138.5 239,-138.5"/>
<text text-anchor="middle" x="256.5" y="-183.5" font-family="Helvetica,sans-Serif" font-size="10.00">Text</text>
<polyline fill="none" stroke="#bfbfbf" points="239,-176.5 274,-176.5 "/>
<text text-anchor="middle" x="256.5" y="-164.5" font-family="Helvetica,sans-Serif" font-size="10.00"> </text>
<polyline fill="none" stroke="#bfbfbf" points="239,-157.5 274,-157.5 "/>
<text text-anchor="middle" x="256.5" y="-145.5" font-family="Helvetica,sans-Serif" font-size="10.00"> </text>
</g>
<!-- Node6&#45;&gt;Node2 -->
<g id="edge4" class="edge"><title>Node6&#45;&gt;Node2</title>
<path fill="none" stroke="#404040" d="M246.446,-138.218C242.879,-128.85 238.703,-118.392 234.5,-109 233.408,-106.559 232.268,-104.077 231.096,-101.58"/>
<polygon fill="none" stroke="#404040" points="231.017,-101.417 224.809,-97.7491 225.807,-90.6074 232.015,-94.2754 231.017,-101.417"/>
<text text-anchor="middle" x="264" y="-112" font-family="Helvetica,sans-Serif" font-size="10.00"> &#45;scoreText</text>
</g>
<!-- Node7 -->
<g id="node6" class="node"><title>Node7</title>
<polygon fill="none" stroke="#bfbfbf" points="306,-138.5 306,-195.5 351,-195.5 351,-138.5 306,-138.5"/>
<text text-anchor="middle" x="328.5" y="-183.5" font-family="Helvetica,sans-Serif" font-size="10.00">Button</text>
<polyline fill="none" stroke="#bfbfbf" points="306,-176.5 351,-176.5 "/>
<text text-anchor="middle" x="328.5" y="-164.5" font-family="Helvetica,sans-Serif" font-size="10.00"> </text>
<polyline fill="none" stroke="#bfbfbf" points="306,-157.5 351,-157.5 "/>
<text text-anchor="middle" x="328.5" y="-145.5" font-family="Helvetica,sans-Serif" font-size="10.00"> </text>
</g>
<!-- Node7&#45;&gt;Node2 -->
<g id="edge5" class="edge"><title>Node7&#45;&gt;Node2</title>
<path fill="none" stroke="#404040" d="M314.053,-138.298C308.147,-128.425 300.755,-117.624 292.5,-109 282.733,-98.7967 271.06,-89.2544 259.409,-80.8481"/>
<polygon fill="none" stroke="#404040" points="259.076,-80.6166 251.867,-80.4747 249.225,-73.765 256.434,-73.9069 259.076,-80.6166"/>
<text text-anchor="middle" x="340" y="-112" font-family="Helvetica,sans-Serif" font-size="10.00"> &#45;endGameButton</text>
</g>
</g>
</svg>
