<?xml version="1.0" encoding="UTF-8" standalone="no"?>
<!DOCTYPE svg PUBLIC "-//W3C//DTD SVG 1.1//EN"
 "http://www.w3.org/Graphics/SVG/1.1/DTD/svg11.dtd">
<!-- Generated by graphviz version 2.38.0 (20140413.2041)
 -->
<!-- Title: MenuScript Pages: 1 -->
<svg width="91pt" height="292pt"
 viewBox="0.00 0.00 91.00 292.00" xmlns="http://www.w3.org/2000/svg" xmlns:xlink="http://www.w3.org/1999/xlink">
<g id="graph0" class="graph" transform="scale(1 1) rotate(0) translate(4 288)">
<title>MenuScript</title>
<!-- Node0 -->
<g id="node1" class="node"><title>Node0</title>
<polygon fill="#bfbfbf" stroke="black" points="2,-0.5 2,-189.5 81,-189.5 81,-0.5 2,-0.5"/>
<text text-anchor="middle" x="41.5" y="-177.5" font-family="Helvetica,sans-Serif" font-size="10.00">MenuScript</text>
<polyline fill="none" stroke="black" points="2,-170.5 81,-170.5 "/>
<text text-anchor="start" x="10" y="-158.5" font-family="Helvetica,sans-Serif" font-size="10.00">+ quitMenu</text>
<text text-anchor="start" x="10" y="-147.5" font-family="Helvetica,sans-Serif" font-size="10.00">+ exitText</text>
<text text-anchor="start" x="10" y="-136.5" font-family="Helvetica,sans-Serif" font-size="10.00">+ startText</text>
<text text-anchor="start" x="10" y="-125.5" font-family="Helvetica,sans-Serif" font-size="10.00">+ loadText</text>
<text text-anchor="start" x="10" y="-114.5" font-family="Helvetica,sans-Serif" font-size="10.00">&#45; player</text>
<text text-anchor="start" x="10" y="-103.5" font-family="Helvetica,sans-Serif" font-size="10.00">&#45; audioText</text>
<text text-anchor="start" x="10" y="-92.5" font-family="Helvetica,sans-Serif" font-size="10.00">&#45; soundOn</text>
<polyline fill="none" stroke="black" points="2,-85.5 81,-85.5 "/>
<text text-anchor="start" x="10" y="-73.5" font-family="Helvetica,sans-Serif" font-size="10.00">+ ExitPress()</text>
<text text-anchor="start" x="10" y="-62.5" font-family="Helvetica,sans-Serif" font-size="10.00">+ NoPress()</text>
<text text-anchor="start" x="10" y="-51.5" font-family="Helvetica,sans-Serif" font-size="10.00">+ StartLevel()</text>
<text text-anchor="start" x="10" y="-40.5" font-family="Helvetica,sans-Serif" font-size="10.00">+ LoadGame()</text>
<text text-anchor="start" x="10" y="-29.5" font-family="Helvetica,sans-Serif" font-size="10.00">+ ExitGame()</text>
<text text-anchor="start" x="10" y="-18.5" font-family="Helvetica,sans-Serif" font-size="10.00">+ sound()</text>
<text text-anchor="start" x="10" y="-7.5" font-family="Helvetica,sans-Serif" font-size="10.00">&#45; Start()</text>
</g>
<!-- Node1 -->
<g id="node2" class="node"><title>Node1</title>
<g id="a_node2"><a xlink:href="class_mono_behaviour.html" target="_top" xlink:title="{MonoBehaviour\n||}">
<polygon fill="none" stroke="black" points="0,-226.5 0,-283.5 83,-283.5 83,-226.5 0,-226.5"/>
<text text-anchor="middle" x="41.5" y="-271.5" font-family="Helvetica,sans-Serif" font-size="10.00">MonoBehaviour</text>
<polyline fill="none" stroke="black" points="0,-264.5 83,-264.5 "/>
<text text-anchor="middle" x="41.5" y="-252.5" font-family="Helvetica,sans-Serif" font-size="10.00"> </text>
<polyline fill="none" stroke="black" points="0,-245.5 83,-245.5 "/>
<text text-anchor="middle" x="41.5" y="-233.5" font-family="Helvetica,sans-Serif" font-size="10.00"> </text>
</a>
</g>
</g>
<!-- Node1&#45;&gt;Node0 -->
<g id="edge1" class="edge"><title>Node1&#45;&gt;Node0</title>
<path fill="none" stroke="midnightblue" d="M41.5,-216.215C41.5,-208.012 41.5,-198.986 41.5,-189.678"/>
<polygon fill="none" stroke="midnightblue" points="38.0001,-216.478 41.5,-226.479 45.0001,-216.479 38.0001,-216.478"/>
</g>
</g>
</svg>
