<?xml version="1.0" encoding="UTF-8" standalone="no"?>
<!DOCTYPE svg PUBLIC "-//W3C//DTD SVG 1.1//EN"
 "http://www.w3.org/Graphics/SVG/1.1/DTD/svg11.dtd">
<!-- Generated by graphviz version 2.38.0 (20140413.2041)
 -->
<!-- Title: Countdown Pages: 1 -->
<svg width="611pt" height="182pt"
 viewBox="0.00 0.00 611.00 182.00" xmlns="http://www.w3.org/2000/svg" xmlns:xlink="http://www.w3.org/1999/xlink">
<g id="graph0" class="graph" transform="scale(1 1) rotate(0) translate(4 178)">
<title>Countdown</title>
<!-- Node2 -->
<g id="node1" class="node"><title>Node2</title>
<polygon fill="#bfbfbf" stroke="black" points="243,-0.5 243,-68.5 344,-68.5 344,-0.5 243,-0.5"/>
<text text-anchor="middle" x="293.5" y="-56.5" font-family="Helvetica,sans-Serif" font-size="10.00">Countdown</text>
<polyline fill="none" stroke="black" points="243,-49.5 344,-49.5 "/>
<text text-anchor="middle" x="293.5" y="-37.5" font-family="Helvetica,sans-Serif" font-size="10.00"> </text>
<polyline fill="none" stroke="black" points="243,-30.5 344,-30.5 "/>
<text text-anchor="start" x="251" y="-18.5" font-family="Helvetica,sans-Serif" font-size="10.00">+ StartCountdown()</text>
<text text-anchor="start" x="251" y="-7.5" font-family="Helvetica,sans-Serif" font-size="10.00">+ Update()</text>
</g>
<!-- Node3 -->
<g id="node2" class="node"><title>Node3</title>
<g id="a_node2"><a xlink:href="class_mono_behaviour.html" target="_top" xlink:title="{MonoBehaviour\n||}">
<polygon fill="none" stroke="black" points="0,-116.5 0,-173.5 83,-173.5 83,-116.5 0,-116.5"/>
<text text-anchor="middle" x="41.5" y="-161.5" font-family="Helvetica,sans-Serif" font-size="10.00">MonoBehaviour</text>
<polyline fill="none" stroke="black" points="0,-154.5 83,-154.5 "/>
<text text-anchor="middle" x="41.5" y="-142.5" font-family="Helvetica,sans-Serif" font-size="10.00"> </text>
<polyline fill="none" stroke="black" points="0,-135.5 83,-135.5 "/>
<text text-anchor="middle" x="41.5" y="-123.5" font-family="Helvetica,sans-Serif" font-size="10.00"> </text>
</a>
</g>
</g>
<!-- Node3&#45;&gt;Node2 -->
<g id="edge1" class="edge"><title>Node3&#45;&gt;Node2</title>
<path fill="none" stroke="midnightblue" d="M92.2141,-116.149C92.3095,-116.099 92.4048,-116.05 92.5,-116 118.424,-102.521 124.615,-98.4424 151.5,-87 181.3,-74.317 215.395,-61.8854 242.706,-52.4145"/>
<polygon fill="none" stroke="midnightblue" points="90.3758,-113.161 83.1659,-120.925 93.6434,-119.352 90.3758,-113.161"/>
</g>
<!-- Node4 -->
<g id="node3" class="node"><title>Node4</title>
<polygon fill="none" stroke="#bfbfbf" points="101.5,-116.5 101.5,-173.5 159.5,-173.5 159.5,-116.5 101.5,-116.5"/>
<text text-anchor="middle" x="130.5" y="-161.5" font-family="Helvetica,sans-Serif" font-size="10.00">AudioClip</text>
<polyline fill="none" stroke="#bfbfbf" points="101.5,-154.5 159.5,-154.5 "/>
<text text-anchor="middle" x="130.5" y="-142.5" font-family="Helvetica,sans-Serif" font-size="10.00"> </text>
<polyline fill="none" stroke="#bfbfbf" points="101.5,-135.5 159.5,-135.5 "/>
<text text-anchor="middle" x="130.5" y="-123.5" font-family="Helvetica,sans-Serif" font-size="10.00"> </text>
</g>
<!-- Node4&#45;&gt;Node2 -->
<g id="edge2" class="edge"><title>Node4&#45;&gt;Node2</title>
<path fill="none" stroke="#404040" d="M142.27,-116.39C147.783,-106.063 155.209,-94.9281 164.5,-87 183.558,-70.7382 208.393,-59.1936 231.177,-51.2157"/>
<polygon fill="none" stroke="#404040" points="231.467,-51.1202 235.913,-45.4426 242.863,-47.3628 238.418,-53.0403 231.467,-51.1202"/>
<text text-anchor="middle" x="209" y="-90" font-family="Helvetica,sans-Serif" font-size="10.00"> +countdownSounds</text>
</g>
<!-- Node5 -->
<g id="node4" class="node"><title>Node5</title>
<polygon fill="none" stroke="#bfbfbf" points="221,-116.5 221,-173.5 256,-173.5 256,-116.5 221,-116.5"/>
<text text-anchor="middle" x="238.5" y="-161.5" font-family="Helvetica,sans-Serif" font-size="10.00">float</text>
<polyline fill="none" stroke="#bfbfbf" points="221,-154.5 256,-154.5 "/>
<text text-anchor="middle" x="238.5" y="-142.5" font-family="Helvetica,sans-Serif" font-size="10.00"> </text>
<polyline fill="none" stroke="#bfbfbf" points="221,-135.5 256,-135.5 "/>
<text text-anchor="middle" x="238.5" y="-123.5" font-family="Helvetica,sans-Serif" font-size="10.00"> </text>
</g>
<!-- Node5&#45;&gt;Node2 -->
<g id="edge3" class="edge"><title>Node5&#45;&gt;Node2</title>
<path fill="none" stroke="#404040" d="M249.194,-116.384C253.098,-106.932 257.733,-96.3807 262.5,-87 263.796,-84.4488 265.171,-81.8533 266.592,-79.2522"/>
<polygon fill="none" stroke="#404040" points="266.696,-79.0672 266.175,-71.875 272.613,-68.627 273.135,-75.8192 266.696,-79.0672"/>
<text text-anchor="middle" x="276.5" y="-90" font-family="Helvetica,sans-Serif" font-size="10.00"> &#45;timer</text>
</g>
<!-- Node6 -->
<g id="node5" class="node"><title>Node6</title>
<polygon fill="none" stroke="#bfbfbf" points="274.5,-116.5 274.5,-173.5 322.5,-173.5 322.5,-116.5 274.5,-116.5"/>
<text text-anchor="middle" x="298.5" y="-161.5" font-family="Helvetica,sans-Serif" font-size="10.00">Color []</text>
<polyline fill="none" stroke="#bfbfbf" points="274.5,-154.5 322.5,-154.5 "/>
<text text-anchor="middle" x="298.5" y="-142.5" font-family="Helvetica,sans-Serif" font-size="10.00"> </text>
<polyline fill="none" stroke="#bfbfbf" points="274.5,-135.5 322.5,-135.5 "/>
<text text-anchor="middle" x="298.5" y="-123.5" font-family="Helvetica,sans-Serif" font-size="10.00"> </text>
</g>
<!-- Node6&#45;&gt;Node2 -->
<g id="edge4" class="edge"><title>Node6&#45;&gt;Node2</title>
<path fill="none" stroke="#404040" d="M295.771,-116.292C295.267,-110.267 294.805,-103.924 294.5,-98 294.217,-92.4863 294.006,-86.6957 293.851,-80.956"/>
<polygon fill="none" stroke="#404040" points="293.844,-80.597 289.719,-74.6818 293.593,-68.5996 297.718,-74.5147 293.844,-80.597"/>
<text text-anchor="middle" x="339" y="-90" font-family="Helvetica,sans-Serif" font-size="10.00"> +countdownColours</text>
</g>
<!-- Node7 -->
<g id="node6" class="node"><title>Node7</title>
<polygon fill="none" stroke="#bfbfbf" points="388,-116.5 388,-173.5 423,-173.5 423,-116.5 388,-116.5"/>
<text text-anchor="middle" x="405.5" y="-161.5" font-family="Helvetica,sans-Serif" font-size="10.00">bool</text>
<polyline fill="none" stroke="#bfbfbf" points="388,-154.5 423,-154.5 "/>
<text text-anchor="middle" x="405.5" y="-142.5" font-family="Helvetica,sans-Serif" font-size="10.00"> </text>
<polyline fill="none" stroke="#bfbfbf" points="388,-135.5 423,-135.5 "/>
<text text-anchor="middle" x="405.5" y="-123.5" font-family="Helvetica,sans-Serif" font-size="10.00"> </text>
</g>
<!-- Node7&#45;&gt;Node2 -->
<g id="edge5" class="edge"><title>Node7&#45;&gt;Node2</title>
<path fill="none" stroke="#404040" d="M399.045,-116.429C395.667,-106.344 390.688,-95.3681 383.5,-87 375.494,-77.68 365.36,-69.669 354.802,-62.9314"/>
<polygon fill="none" stroke="#404040" points="354.484,-62.7427 347.282,-63.1195 344.165,-56.6171 351.366,-56.2403 354.484,-62.7427"/>
<text text-anchor="middle" x="434" y="-90" font-family="Helvetica,sans-Serif" font-size="10.00"> &#45;countdownStarted</text>
</g>
<!-- Node8 -->
<g id="node7" class="node"><title>Node8</title>
<polygon fill="none" stroke="#bfbfbf" points="477.5,-116.5 477.5,-173.5 549.5,-173.5 549.5,-116.5 477.5,-116.5"/>
<text text-anchor="middle" x="513.5" y="-161.5" font-family="Helvetica,sans-Serif" font-size="10.00">AudioSource</text>
<polyline fill="none" stroke="#bfbfbf" points="477.5,-154.5 549.5,-154.5 "/>
<text text-anchor="middle" x="513.5" y="-142.5" font-family="Helvetica,sans-Serif" font-size="10.00"> </text>
<polyline fill="none" stroke="#bfbfbf" points="477.5,-135.5 549.5,-135.5 "/>
<text text-anchor="middle" x="513.5" y="-123.5" font-family="Helvetica,sans-Serif" font-size="10.00"> </text>
</g>
<!-- Node8&#45;&gt;Node2 -->
<g id="edge6" class="edge"><title>Node8&#45;&gt;Node2</title>
<path fill="none" stroke="#404040" d="M502.966,-116.441C497.677,-105.87 490.276,-94.5459 480.5,-87 444.824,-59.4619 395.341,-46.6416 356.237,-40.677"/>
<polygon fill="none" stroke="#404040" points="356.086,-40.656 349.592,-43.7921 344.2,-39.0043 350.693,-35.8682 356.086,-40.656"/>
<text text-anchor="middle" x="514" y="-90" font-family="Helvetica,sans-Serif" font-size="10.00"> &#45;audioSrc</text>
</g>
<!-- Node9 -->
<g id="node8" class="node"><title>Node9</title>
<polygon fill="none" stroke="#bfbfbf" points="568,-116.5 568,-173.5 603,-173.5 603,-116.5 568,-116.5"/>
<text text-anchor="middle" x="585.5" y="-161.5" font-family="Helvetica,sans-Serif" font-size="10.00">Text</text>
<polyline fill="none" stroke="#bfbfbf" points="568,-154.5 603,-154.5 "/>
<text text-anchor="middle" x="585.5" y="-142.5" font-family="Helvetica,sans-Serif" font-size="10.00"> </text>
<polyline fill="none" stroke="#bfbfbf" points="568,-135.5 603,-135.5 "/>
<text text-anchor="middle" x="585.5" y="-123.5" font-family="Helvetica,sans-Serif" font-size="10.00"> </text>
</g>
<!-- Node9&#45;&gt;Node2 -->
<g id="edge7" class="edge"><title>Node9&#45;&gt;Node2</title>
<path fill="none" stroke="#404040" d="M569.588,-116.353C562.08,-105.637 552.187,-94.2303 540.5,-87 484.459,-52.3294 408.985,-40.6225 356.271,-36.863"/>
<polygon fill="none" stroke="#404040" points="356.031,-36.8482 349.794,-40.4686 344.054,-36.1043 350.29,-32.484 356.031,-36.8482"/>
<text text-anchor="middle" x="565" y="-90" font-family="Helvetica,sans-Serif" font-size="10.00"> &#45;text</text>
</g>
</g>
</svg>
