<?xml version="1.0" encoding="UTF-8" standalone="no"?>
<!DOCTYPE svg PUBLIC "-//W3C//DTD SVG 1.1//EN"
 "http://www.w3.org/Graphics/SVG/1.1/DTD/svg11.dtd">
<!-- Generated by graphviz version 2.38.0 (20140413.2041)
 -->
<!-- Title: Player Pages: 1 -->
<svg width="839pt" height="1243pt"
 viewBox="0.00 0.00 838.50 1243.00" xmlns="http://www.w3.org/2000/svg" xmlns:xlink="http://www.w3.org/1999/xlink">
<g id="graph0" class="graph" transform="scale(1 1) rotate(0) translate(4 1239)">
<title>Player</title>
<!-- Node2 -->
<g id="node1" class="node"><title>Node2</title>
<polygon fill="#bfbfbf" stroke="black" points="485.5,-857.5 485.5,-969.5 597.5,-969.5 597.5,-857.5 485.5,-857.5"/>
<text text-anchor="middle" x="541.5" y="-957.5" font-family="Helvetica,sans-Serif" font-size="10.00">Player</text>
<polyline fill="none" stroke="black" points="485.5,-950.5 597.5,-950.5 "/>
<text text-anchor="start" x="493.5" y="-938.5" font-family="Helvetica,sans-Serif" font-size="10.00">+ Exp</text>
<text text-anchor="start" x="493.5" y="-927.5" font-family="Helvetica,sans-Serif" font-size="10.00">+ Item</text>
<text text-anchor="start" x="493.5" y="-916.5" font-family="Helvetica,sans-Serif" font-size="10.00">+ ExpToNextLevel</text>
<polyline fill="none" stroke="black" points="485.5,-909.5 597.5,-909.5 "/>
<text text-anchor="start" x="493.5" y="-897.5" font-family="Helvetica,sans-Serif" font-size="10.00">+ Player()</text>
<text text-anchor="start" x="493.5" y="-886.5" font-family="Helvetica,sans-Serif" font-size="10.00">+ gainExp()</text>
<text text-anchor="start" x="493.5" y="-875.5" font-family="Helvetica,sans-Serif" font-size="10.00">+ levelUp()</text>
<text text-anchor="start" x="493.5" y="-864.5" font-family="Helvetica,sans-Serif" font-size="10.00">&#45; setExpToNextLevel()</text>
</g>
<!-- Node9 -->
<g id="node8" class="node"><title>Node9</title>
<g id="a_node8"><a xlink:href="class_battle_manager.html" target="_top" xlink:title="Holds current Player and Enemy objects in battle and provides functions for MainBattle and other obje...">
<polygon fill="none" stroke="black" points="396.5,-620.5 396.5,-809.5 512.5,-809.5 512.5,-620.5 396.5,-620.5"/>
<text text-anchor="middle" x="454.5" y="-797.5" font-family="Helvetica,sans-Serif" font-size="10.00">BattleManager</text>
<polyline fill="none" stroke="black" points="396.5,-790.5 512.5,-790.5 "/>
<text text-anchor="start" x="404.5" y="-778.5" font-family="Helvetica,sans-Serif" font-size="10.00">+ Player</text>
<text text-anchor="start" x="404.5" y="-767.5" font-family="Helvetica,sans-Serif" font-size="10.00">+ Enemy</text>
<text text-anchor="start" x="404.5" y="-756.5" font-family="Helvetica,sans-Serif" font-size="10.00">+ WasCriticalHit</text>
<polyline fill="none" stroke="black" points="396.5,-749.5 512.5,-749.5 "/>
<text text-anchor="start" x="404.5" y="-737.5" font-family="Helvetica,sans-Serif" font-size="10.00">+ BattleManager()</text>
<text text-anchor="start" x="404.5" y="-726.5" font-family="Helvetica,sans-Serif" font-size="10.00">+ playerFirst()</text>
<text text-anchor="start" x="404.5" y="-715.5" font-family="Helvetica,sans-Serif" font-size="10.00">+ switchPlayers()</text>
<text text-anchor="start" x="404.5" y="-704.5" font-family="Helvetica,sans-Serif" font-size="10.00">+ isCriticalHit()</text>
<text text-anchor="start" x="404.5" y="-693.5" font-family="Helvetica,sans-Serif" font-size="10.00">+ ranAway()</text>
<text text-anchor="start" x="404.5" y="-682.5" font-family="Helvetica,sans-Serif" font-size="10.00">+ damageCalculation()</text>
<text text-anchor="start" x="404.5" y="-671.5" font-family="Helvetica,sans-Serif" font-size="10.00">+ enemyMove()</text>
<text text-anchor="start" x="404.5" y="-660.5" font-family="Helvetica,sans-Serif" font-size="10.00">+ enemySpecialMove()</text>
<text text-anchor="start" x="404.5" y="-649.5" font-family="Helvetica,sans-Serif" font-size="10.00">+ battleWon()</text>
<text text-anchor="start" x="404.5" y="-638.5" font-family="Helvetica,sans-Serif" font-size="10.00">+ playerFainted()</text>
<text text-anchor="start" x="404.5" y="-627.5" font-family="Helvetica,sans-Serif" font-size="10.00">&#45; characterFainted()</text>
</a>
</g>
</g>
<!-- Node2&#45;&gt;Node9 -->
<g id="edge16" class="edge"><title>Node2&#45;&gt;Node9</title>
<path fill="none" stroke="#404040" d="M512.278,-857.402C509.228,-851.236 506.243,-845.011 503.5,-839 500.816,-833.119 498.13,-827.045 495.476,-820.892"/>
<polygon fill="none" stroke="#404040" points="495.436,-820.799 489.406,-816.843 490.738,-809.756 496.768,-813.711 495.436,-820.799"/>
<text text-anchor="middle" x="520" y="-831" font-family="Helvetica,sans-Serif" font-size="10.00"> &#45;player</text>
</g>
<!-- Node3 -->
<g id="node2" class="node"><title>Node3</title>
<g id="a_node2"><a xlink:href="class_character.html" target="_top" xlink:title="Base abstract class for Enemy and Player to inherit from. Defines all shared variables, their constructor and their setters and getters ">
<polygon fill="none" stroke="black" points="261,-95.5 261,-306.5 356,-306.5 356,-95.5 261,-95.5"/>
<text text-anchor="middle" x="308.5" y="-294.5" font-family="Helvetica,sans-Serif" font-size="10.00">Character</text>
<polyline fill="none" stroke="black" points="261,-287.5 356,-287.5 "/>
<text text-anchor="start" x="269" y="-275.5" font-family="Helvetica,sans-Serif" font-size="10.00">+ Name</text>
<text text-anchor="start" x="269" y="-264.5" font-family="Helvetica,sans-Serif" font-size="10.00">+ Level</text>
<text text-anchor="start" x="269" y="-253.5" font-family="Helvetica,sans-Serif" font-size="10.00">+ Health</text>
<text text-anchor="start" x="269" y="-242.5" font-family="Helvetica,sans-Serif" font-size="10.00">+ Attack</text>
<text text-anchor="start" x="269" y="-231.5" font-family="Helvetica,sans-Serif" font-size="10.00">+ Defence</text>
<text text-anchor="start" x="269" y="-220.5" font-family="Helvetica,sans-Serif" font-size="10.00">+ MaximumMagic</text>
<text text-anchor="start" x="269" y="-209.5" font-family="Helvetica,sans-Serif" font-size="10.00">+ Magic</text>
<text text-anchor="start" x="269" y="-198.5" font-family="Helvetica,sans-Serif" font-size="10.00">+ Luck</text>
<text text-anchor="start" x="269" y="-187.5" font-family="Helvetica,sans-Serif" font-size="10.00">+ Speed</text>
<text text-anchor="start" x="269" y="-176.5" font-family="Helvetica,sans-Serif" font-size="10.00">+ Rage</text>
<text text-anchor="start" x="269" y="-165.5" font-family="Helvetica,sans-Serif" font-size="10.00">+ CanRage</text>
<text text-anchor="start" x="269" y="-154.5" font-family="Helvetica,sans-Serif" font-size="10.00">+ Special1</text>
<text text-anchor="start" x="269" y="-143.5" font-family="Helvetica,sans-Serif" font-size="10.00">+ Special2</text>
<text text-anchor="start" x="269" y="-132.5" font-family="Helvetica,sans-Serif" font-size="10.00">+ Image</text>
<polyline fill="none" stroke="black" points="261,-125.5 356,-125.5 "/>
<text text-anchor="start" x="269" y="-113.5" font-family="Helvetica,sans-Serif" font-size="10.00">+ IsEnraged()</text>
<text text-anchor="start" x="269" y="-102.5" font-family="Helvetica,sans-Serif" font-size="10.00"># Character()</text>
</a>
</g>
</g>
<!-- Node3&#45;&gt;Node2 -->
<g id="edge1" class="edge"><title>Node3&#45;&gt;Node2</title>
<path fill="none" stroke="midnightblue" d="M365.39,-221.899C436.927,-250.983 550.5,-312.441 550.5,-409.5 550.5,-716 550.5,-716 550.5,-716 550.5,-763.81 547.808,-818.096 545.369,-857.476"/>
<polygon fill="none" stroke="midnightblue" points="366.608,-218.617 356.023,-218.177 364.024,-225.122 366.608,-218.617"/>
</g>
<!-- Node8 -->
<g id="node7" class="node"><title>Node8</title>
<g id="a_node7"><a xlink:href="class_character_move.html" target="_top" xlink:title="Astract base class for character moves ">
<polygon fill="none" stroke="black" points="166.5,-493.5 166.5,-572.5 252.5,-572.5 252.5,-493.5 166.5,-493.5"/>
<text text-anchor="middle" x="209.5" y="-560.5" font-family="Helvetica,sans-Serif" font-size="10.00">CharacterMove</text>
<polyline fill="none" stroke="black" points="166.5,-553.5 252.5,-553.5 "/>
<text text-anchor="start" x="174.5" y="-541.5" font-family="Helvetica,sans-Serif" font-size="10.00">+ User</text>
<text text-anchor="start" x="174.5" y="-530.5" font-family="Helvetica,sans-Serif" font-size="10.00">+ Target</text>
<text text-anchor="start" x="174.5" y="-519.5" font-family="Helvetica,sans-Serif" font-size="10.00">+ Text</text>
<polyline fill="none" stroke="black" points="166.5,-512.5 252.5,-512.5 "/>
<text text-anchor="start" x="174.5" y="-500.5" font-family="Helvetica,sans-Serif" font-size="10.00">+ performMove()</text>
</a>
</g>
</g>
<!-- Node3&#45;&gt;Node8 -->
<g id="edge8" class="edge"><title>Node3&#45;&gt;Node8</title>
<path fill="none" stroke="#404040" d="M260.874,-241.02C228.243,-271.03 187.696,-315.621 169.5,-365 155.516,-402.95 159.798,-416.736 169.5,-456 171.688,-464.857 175.116,-473.822 179.065,-482.337"/>
<polygon fill="none" stroke="#404040" points="179.14,-482.487 185.398,-486.07 184.497,-493.225 178.239,-489.641 179.14,-482.487"/>
<text text-anchor="middle" x="186.5" y="-413.5" font-family="Helvetica,sans-Serif" font-size="10.00"> #target</text>
<text text-anchor="middle" x="186.5" y="-402.5" font-family="Helvetica,sans-Serif" font-size="10.00">#user</text>
</g>
<!-- Node10 -->
<g id="node9" class="node"><title>Node10</title>
<g id="a_node9"><a xlink:href="class_enemy.html" target="_top" xlink:title="Defines an AI controller enemy to fight in battle scenes">
<polygon fill="none" stroke="black" points="563,-0.5 563,-57.5 630,-57.5 630,-0.5 563,-0.5"/>
<text text-anchor="middle" x="596.5" y="-45.5" font-family="Helvetica,sans-Serif" font-size="10.00">Enemy</text>
<polyline fill="none" stroke="black" points="563,-38.5 630,-38.5 "/>
<text text-anchor="start" x="571" y="-26.5" font-family="Helvetica,sans-Serif" font-size="10.00">+ ExpGiven</text>
<polyline fill="none" stroke="black" points="563,-19.5 630,-19.5 "/>
<text text-anchor="start" x="571" y="-7.5" font-family="Helvetica,sans-Serif" font-size="10.00">+ Enemy()</text>
</a>
</g>
</g>
<!-- Node3&#45;&gt;Node10 -->
<g id="edge12" class="edge"><title>Node3&#45;&gt;Node10</title>
<path fill="none" stroke="midnightblue" d="M364.869,-166.727C423.77,-131.959 514.234,-78.5598 562.842,-49.8678"/>
<polygon fill="none" stroke="midnightblue" points="362.89,-163.831 356.057,-171.928 366.448,-169.859 362.89,-163.831"/>
</g>
<!-- Node4 -->
<g id="node3" class="node"><title>Node4</title>
<polygon fill="none" stroke="#bfbfbf" points="189,-1177.5 189,-1234.5 230,-1234.5 230,-1177.5 189,-1177.5"/>
<text text-anchor="middle" x="209.5" y="-1222.5" font-family="Helvetica,sans-Serif" font-size="10.00">string</text>
<polyline fill="none" stroke="#bfbfbf" points="189,-1215.5 230,-1215.5 "/>
<text text-anchor="middle" x="209.5" y="-1203.5" font-family="Helvetica,sans-Serif" font-size="10.00"> </text>
<polyline fill="none" stroke="#bfbfbf" points="189,-1196.5 230,-1196.5 "/>
<text text-anchor="middle" x="209.5" y="-1184.5" font-family="Helvetica,sans-Serif" font-size="10.00"> </text>
</g>
<!-- Node4&#45;&gt;Node3 -->
<g id="edge2" class="edge"><title>Node4&#45;&gt;Node3</title>
<path fill="none" stroke="#404040" d="M188.871,-1194.67C154.561,-1175.85 89.5,-1132.52 89.5,-1074.5 89.5,-1074.5 89.5,-1074.5 89.5,-409.5 89.5,-320.873 185.18,-258.751 250.055,-226.817"/>
<polygon fill="none" stroke="#404040" points="250.16,-226.767 253.841,-220.566 260.98,-221.579 257.299,-227.78 250.16,-226.767"/>
<text text-anchor="middle" x="106" y="-712.5" font-family="Helvetica,sans-Serif" font-size="10.00"> #name</text>
</g>
<!-- Node7 -->
<g id="node6" class="node"><title>Node7</title>
<g id="a_node6"><a xlink:href="class_special_move.html" target="_top" xlink:title="Special move abstract base class that expands upon CharacterMove, adding magic properties ...">
<polygon fill="none" stroke="black" points="212.5,-365.5 212.5,-455.5 310.5,-455.5 310.5,-365.5 212.5,-365.5"/>
<text text-anchor="middle" x="261.5" y="-443.5" font-family="Helvetica,sans-Serif" font-size="10.00">SpecialMove</text>
<polyline fill="none" stroke="black" points="212.5,-436.5 310.5,-436.5 "/>
<text text-anchor="start" x="220.5" y="-424.5" font-family="Helvetica,sans-Serif" font-size="10.00">+ Magic</text>
<text text-anchor="start" x="220.5" y="-413.5" font-family="Helvetica,sans-Serif" font-size="10.00">+ Desc</text>
<polyline fill="none" stroke="black" points="212.5,-406.5 310.5,-406.5 "/>
<text text-anchor="start" x="220.5" y="-394.5" font-family="Helvetica,sans-Serif" font-size="10.00">+ setUp()</text>
<text text-anchor="start" x="220.5" y="-383.5" font-family="Helvetica,sans-Serif" font-size="10.00">+ decreaseMagic()</text>
<text text-anchor="start" x="220.5" y="-372.5" font-family="Helvetica,sans-Serif" font-size="10.00"># SpecialMove()</text>
</a>
</g>
</g>
<!-- Node4&#45;&gt;Node7 -->
<g id="edge17" class="edge"><title>Node4&#45;&gt;Node7</title>
<path fill="none" stroke="#404040" d="M188.865,-1177.59C171.851,-1152.24 150.5,-1112.79 150.5,-1074.5 150.5,-1074.5 150.5,-1074.5 150.5,-832.5 150.5,-757.04 122.843,-560.031 157.5,-493 168.51,-471.704 181.642,-472.317 202.364,-459.222"/>
<polygon fill="none" stroke="#404040" points="202.634,-459.032 205.23,-452.304 212.438,-452.113 209.842,-458.841 202.634,-459.032"/>
<text text-anchor="middle" x="165.5" y="-831" font-family="Helvetica,sans-Serif" font-size="10.00"> #desc</text>
</g>
<!-- Node4&#45;&gt;Node8 -->
<g id="edge7" class="edge"><title>Node4&#45;&gt;Node8</title>
<path fill="none" stroke="#404040" d="M209.5,-1177.25C209.5,-1150.83 209.5,-1109.96 209.5,-1074.5 209.5,-1074.5 209.5,-1074.5 209.5,-714 209.5,-670.392 209.5,-620.84 209.5,-584.783"/>
<polygon fill="none" stroke="#404040" points="209.5,-584.624 205.5,-578.624 209.5,-572.624 213.5,-578.624 209.5,-584.624"/>
<text text-anchor="middle" x="222" y="-911" font-family="Helvetica,sans-Serif" font-size="10.00"> #text</text>
</g>
<!-- Node4&#45;&gt;Node9 -->
<g id="edge10" class="edge"><title>Node4&#45;&gt;Node9</title>
<path fill="none" stroke="#404040" d="M230.204,-1180.45C276.124,-1124.34 385.955,-980.613 430.5,-839 432.31,-833.246 434.01,-827.295 435.601,-821.258"/>
<polygon fill="none" stroke="#404040" points="435.613,-821.21 433.191,-814.418 438.53,-809.57 440.952,-816.363 435.613,-821.21"/>
<text text-anchor="middle" x="404.5" y="-1002" font-family="Helvetica,sans-Serif" font-size="10.00"> +forceEnemyMove</text>
<text text-anchor="middle" x="404.5" y="-991" font-family="Helvetica,sans-Serif" font-size="10.00">+forceCriticalHits</text>
</g>
<!-- Node12 -->
<g id="node11" class="node"><title>Node12</title>
<g id="a_node11"><a xlink:href="class_item.html" target="_top" xlink:title="Abstract class for items that can be equipped to a player, increasing some of their stats ...">
<polygon fill="none" stroke="black" points="465,-1028.5 465,-1118.5 542,-1118.5 542,-1028.5 465,-1028.5"/>
<text text-anchor="middle" x="503.5" y="-1106.5" font-family="Helvetica,sans-Serif" font-size="10.00">Item</text>
<polyline fill="none" stroke="black" points="465,-1099.5 542,-1099.5 "/>
<text text-anchor="start" x="473" y="-1087.5" font-family="Helvetica,sans-Serif" font-size="10.00">+ Name</text>
<text text-anchor="start" x="473" y="-1076.5" font-family="Helvetica,sans-Serif" font-size="10.00">+ Desc</text>
<text text-anchor="start" x="473" y="-1065.5" font-family="Helvetica,sans-Serif" font-size="10.00">+ Cost</text>
<polyline fill="none" stroke="black" points="465,-1058.5 542,-1058.5 "/>
<text text-anchor="start" x="473" y="-1046.5" font-family="Helvetica,sans-Serif" font-size="10.00">+ applyBuffs()</text>
<text text-anchor="start" x="473" y="-1035.5" font-family="Helvetica,sans-Serif" font-size="10.00">+ revertBuffs()</text>
</a>
</g>
</g>
<!-- Node4&#45;&gt;Node12 -->
<g id="edge21" class="edge"><title>Node4&#45;&gt;Node12</title>
<path fill="none" stroke="#404040" d="M230.174,-1195.82C276.165,-1175.41 388.037,-1125.75 453.514,-1096.69"/>
<polygon fill="none" stroke="#404040" points="453.814,-1096.55 457.676,-1090.46 464.782,-1091.69 460.921,-1097.78 453.814,-1096.55"/>
<text text-anchor="middle" x="371.5" y="-1151" font-family="Helvetica,sans-Serif" font-size="10.00"> #desc</text>
<text text-anchor="middle" x="371.5" y="-1140" font-family="Helvetica,sans-Serif" font-size="10.00">#name</text>
</g>
<!-- Node5 -->
<g id="node4" class="node"><title>Node5</title>
<polygon fill="none" stroke="#bfbfbf" points="534,-1177.5 534,-1234.5 563,-1234.5 563,-1177.5 534,-1177.5"/>
<text text-anchor="middle" x="548.5" y="-1222.5" font-family="Helvetica,sans-Serif" font-size="10.00">int</text>
<polyline fill="none" stroke="#bfbfbf" points="534,-1215.5 563,-1215.5 "/>
<text text-anchor="middle" x="548.5" y="-1203.5" font-family="Helvetica,sans-Serif" font-size="10.00"> </text>
<polyline fill="none" stroke="#bfbfbf" points="534,-1196.5 563,-1196.5 "/>
<text text-anchor="middle" x="548.5" y="-1184.5" font-family="Helvetica,sans-Serif" font-size="10.00"> </text>
</g>
<!-- Node5&#45;&gt;Node2 -->
<g id="edge23" class="edge"><title>Node5&#45;&gt;Node2</title>
<path fill="none" stroke="#404040" d="M558.43,-1177.08C560.121,-1171.18 561.615,-1164.94 562.5,-1159 563.939,-1149.33 562.828,-1146.77 562.5,-1137 560.277,-1070.67 559.64,-1053.99 552.5,-988 552.281,-985.972 552.046,-983.913 551.8,-981.837"/>
<polygon fill="none" stroke="#404040" points="551.786,-981.726 547.061,-976.278 550.273,-969.821 554.998,-975.269 551.786,-981.726"/>
<text text-anchor="middle" x="599" y="-1076.5" font-family="Helvetica,sans-Serif" font-size="10.00"> &#45;expToNextLevel</text>
<text text-anchor="middle" x="599" y="-1065.5" font-family="Helvetica,sans-Serif" font-size="10.00">&#45;exp</text>
</g>
<!-- Node5&#45;&gt;Node3 -->
<g id="edge3" class="edge"><title>Node5&#45;&gt;Node3</title>
<path fill="none" stroke="#404040" d="M563.241,-1198.98C597.87,-1183.75 681.5,-1140.17 681.5,-1074.5 681.5,-1074.5 681.5,-1074.5 681.5,-409.5 681.5,-267.83 473.475,-222.034 368.13,-207.925"/>
<polygon fill="none" stroke="#404040" points="368.023,-207.911 361.566,-211.12 356.12,-206.394 362.577,-203.185 368.023,-207.911"/>
<text text-anchor="middle" x="719" y="-756.5" font-family="Helvetica,sans-Serif" font-size="10.00"> #speed</text>
<text text-anchor="middle" x="719" y="-745.5" font-family="Helvetica,sans-Serif" font-size="10.00">#luck</text>
<text text-anchor="middle" x="719" y="-734.5" font-family="Helvetica,sans-Serif" font-size="10.00">#health</text>
<text text-anchor="middle" x="719" y="-723.5" font-family="Helvetica,sans-Serif" font-size="10.00">#magic</text>
<text text-anchor="middle" x="719" y="-712.5" font-family="Helvetica,sans-Serif" font-size="10.00">#maximumMagic</text>
<text text-anchor="middle" x="719" y="-701.5" font-family="Helvetica,sans-Serif" font-size="10.00">#attack</text>
<text text-anchor="middle" x="719" y="-690.5" font-family="Helvetica,sans-Serif" font-size="10.00">#defence</text>
<text text-anchor="middle" x="719" y="-679.5" font-family="Helvetica,sans-Serif" font-size="10.00">#level</text>
<text text-anchor="middle" x="719" y="-668.5" font-family="Helvetica,sans-Serif" font-size="10.00">#rage</text>
</g>
<!-- Node5&#45;&gt;Node7 -->
<g id="edge18" class="edge"><title>Node5&#45;&gt;Node7</title>
<path fill="none" stroke="#404040" d="M533.8,-1203.28C495.114,-1198.46 391.912,-1183.51 369.5,-1159 317.527,-1102.17 380.012,-1054.69 341.5,-988 335.182,-977.06 325.493,-981.121 319.5,-970 273.281,-884.233 263.878,-591.91 261.976,-467.877"/>
<polygon fill="none" stroke="#404040" points="261.974,-467.708 257.89,-461.764 261.806,-455.709 265.89,-461.652 261.974,-467.708"/>
<text text-anchor="middle" x="304" y="-831" font-family="Helvetica,sans-Serif" font-size="10.00"> #magic</text>
</g>
<!-- Node5&#45;&gt;Node9 -->
<g id="edge14" class="edge"><title>Node5&#45;&gt;Node9</title>
<path fill="none" stroke="#404040" d="M533.7,-1196.79C511.776,-1183.67 471.536,-1155.67 455.5,-1119 455.5,-1119 455.5,-828 455.5,-828 455.491,-825.928 455.481,-823.834 455.469,-821.724"/>
<polygon fill="none" stroke="#404040" points="455.468,-821.501 451.433,-815.525 455.397,-809.501 459.433,-815.478 455.468,-821.501"/>
<text text-anchor="middle" x="475" y="-996.5" font-family="Helvetica,sans-Serif" font-size="10.00"> +money</text>
</g>
<!-- Node5&#45;&gt;Node10 -->
<g id="edge13" class="edge"><title>Node5&#45;&gt;Node10</title>
<path fill="none" stroke="#404040" d="M563.263,-1203.91C614.929,-1199.22 784.5,-1176.1 784.5,-1074.5 784.5,-1074.5 784.5,-1074.5 784.5,-200 784.5,-123.177 697.067,-72.0723 641.452,-47.3366"/>
<polygon fill="none" stroke="#404040" points="641.134,-47.1999 634.042,-48.5038 630.111,-42.4587 637.203,-41.1547 641.134,-47.1999"/>
<text text-anchor="middle" x="807.5" y="-594" font-family="Helvetica,sans-Serif" font-size="10.00"> &#45;expGiven</text>
</g>
<!-- Node5&#45;&gt;Node12 -->
<g id="edge22" class="edge"><title>Node5&#45;&gt;Node12</title>
<path fill="none" stroke="#404040" d="M538.957,-1177.32C534.223,-1163.6 528.329,-1146.51 522.714,-1130.22"/>
<polygon fill="none" stroke="#404040" points="522.608,-1129.91 516.87,-1125.54 518.696,-1118.57 524.433,-1122.94 522.608,-1129.91"/>
<text text-anchor="middle" x="544.5" y="-1145.5" font-family="Helvetica,sans-Serif" font-size="10.00"> #cost</text>
</g>
<!-- Node6 -->
<g id="node5" class="node"><title>Node6</title>
<polygon fill="none" stroke="#bfbfbf" points="329,-885 329,-942 364,-942 364,-885 329,-885"/>
<text text-anchor="middle" x="346.5" y="-930" font-family="Helvetica,sans-Serif" font-size="10.00">bool</text>
<polyline fill="none" stroke="#bfbfbf" points="329,-923 364,-923 "/>
<text text-anchor="middle" x="346.5" y="-911" font-family="Helvetica,sans-Serif" font-size="10.00"> </text>
<polyline fill="none" stroke="#bfbfbf" points="329,-904 364,-904 "/>
<text text-anchor="middle" x="346.5" y="-892" font-family="Helvetica,sans-Serif" font-size="10.00"> </text>
</g>
<!-- Node6&#45;&gt;Node3 -->
<g id="edge4" class="edge"><title>Node6&#45;&gt;Node3</title>
<path fill="none" stroke="#404040" d="M346.367,-884.916C345.768,-800.793 342.481,-540.124 324.5,-325 324.327,-322.935 324.145,-320.851 323.954,-318.752"/>
<polygon fill="none" stroke="#404040" points="323.935,-318.553 319.372,-312.969 322.773,-306.609 327.335,-312.194 323.935,-318.553"/>
<text text-anchor="middle" x="363" y="-530.5" font-family="Helvetica,sans-Serif" font-size="10.00"> #canRage</text>
</g>
<!-- Node6&#45;&gt;Node9 -->
<g id="edge15" class="edge"><title>Node6&#45;&gt;Node9</title>
<path fill="none" stroke="#404040" d="M349.1,-884.818C351.486,-867.792 356.006,-845.884 364.5,-828 371.109,-814.085 379.767,-800.365 389.101,-787.557"/>
<polygon fill="none" stroke="#404040" points="389.12,-787.531 389.541,-780.332 396.347,-777.951 395.927,-785.15 389.12,-787.531"/>
<text text-anchor="middle" x="397.5" y="-831" font-family="Helvetica,sans-Serif" font-size="10.00"> &#45;wasCriticalHit</text>
</g>
<!-- Node7&#45;&gt;Node3 -->
<g id="edge5" class="edge"><title>Node7&#45;&gt;Node3</title>
<path fill="none" stroke="#404040" d="M270.755,-365.167C273.511,-352.207 276.577,-338.026 279.5,-325 279.983,-322.846 280.473,-320.671 280.969,-318.481"/>
<polygon fill="none" stroke="#404040" points="281,-318.344 278.433,-311.606 283.665,-306.644 286.233,-313.382 281,-318.344"/>
<text text-anchor="middle" x="302" y="-339" font-family="Helvetica,sans-Serif" font-size="10.00"> #special1</text>
<text text-anchor="middle" x="302" y="-328" font-family="Helvetica,sans-Serif" font-size="10.00">#special2</text>
</g>
<!-- Node8&#45;&gt;Node7 -->
<g id="edge6" class="edge"><title>Node8&#45;&gt;Node7</title>
<path fill="none" stroke="midnightblue" d="M230.204,-484.023C234.243,-474.663 238.46,-464.891 242.443,-455.661"/>
<polygon fill="none" stroke="midnightblue" points="226.988,-482.641 226.239,-493.21 233.415,-485.415 226.988,-482.641"/>
</g>
<!-- Node9&#45;&gt;Node8 -->
<g id="edge9" class="edge"><title>Node9&#45;&gt;Node8</title>
<path fill="none" stroke="#404040" d="M396.438,-671.343C355.738,-641.441 301.772,-601.792 262.288,-572.783"/>
<polygon fill="none" stroke="#404040" points="262.25,-572.755 255.046,-572.426 252.579,-565.65 259.783,-565.979 262.25,-572.755"/>
<text text-anchor="middle" x="319.5" y="-594" font-family="Helvetica,sans-Serif" font-size="10.00"> #manager</text>
</g>
<!-- Node10&#45;&gt;Node9 -->
<g id="edge11" class="edge"><title>Node10&#45;&gt;Node9</title>
<path fill="none" stroke="#404040" d="M596.5,-57.6786C596.5,-91.3232 596.5,-149.826 596.5,-200 596.5,-534 596.5,-534 596.5,-534 596.5,-586.656 558.581,-632.958 521.933,-665.411"/>
<polygon fill="none" stroke="#404040" points="521.775,-665.547 519.825,-672.489 512.667,-673.36 514.616,-666.417 521.775,-665.547"/>
<text text-anchor="middle" x="614.5" y="-408" font-family="Helvetica,sans-Serif" font-size="10.00"> &#45;enemy</text>
</g>
<!-- Node11 -->
<g id="node10" class="node"><title>Node11</title>
<polygon fill="none" stroke="#bfbfbf" points="0,-382 0,-439 61,-439 61,-382 0,-382"/>
<text text-anchor="middle" x="30.5" y="-427" font-family="Helvetica,sans-Serif" font-size="10.00">Texture2D</text>
<polyline fill="none" stroke="#bfbfbf" points="0,-420 61,-420 "/>
<text text-anchor="middle" x="30.5" y="-408" font-family="Helvetica,sans-Serif" font-size="10.00"> </text>
<polyline fill="none" stroke="#bfbfbf" points="0,-401 61,-401 "/>
<text text-anchor="middle" x="30.5" y="-389" font-family="Helvetica,sans-Serif" font-size="10.00"> </text>
</g>
<!-- Node11&#45;&gt;Node3 -->
<g id="edge19" class="edge"><title>Node11&#45;&gt;Node3</title>
<path fill="none" stroke="#404040" d="M27.2386,-381.913C26.594,-364.077 28.6774,-341.244 40.5,-325 89.9253,-257.092 186.071,-225.706 248.755,-211.922"/>
<polygon fill="none" stroke="#404040" points="249.077,-211.855 254.129,-206.709 260.822,-209.394 255.769,-214.539 249.077,-211.855"/>
<text text-anchor="middle" x="58" y="-333.5" font-family="Helvetica,sans-Serif" font-size="10.00"> #image</text>
</g>
<!-- Node12&#45;&gt;Node2 -->
<g id="edge20" class="edge"><title>Node12&#45;&gt;Node2</title>
<path fill="none" stroke="#404040" d="M514.085,-1028.49C517.585,-1013.94 521.563,-997.398 525.381,-981.521"/>
<polygon fill="none" stroke="#404040" points="525.453,-981.22 522.967,-974.451 528.259,-969.553 530.745,-976.322 525.453,-981.22"/>
<text text-anchor="middle" x="536" y="-996.5" font-family="Helvetica,sans-Serif" font-size="10.00"> &#45;item</text>
</g>
</g>
</svg>
