<?xml version="1.0" encoding="UTF-8" standalone="no"?>
<!DOCTYPE svg PUBLIC "-//W3C//DTD SVG 1.1//EN"
 "http://www.w3.org/Graphics/SVG/1.1/DTD/svg11.dtd">
<!-- Generated by graphviz version 2.38.0 (20140413.2041)
 -->
<!-- Title: BattleEventArgs Pages: 1 -->
<!--zoomable 1087 -->
<svg id="main" version="1.1" xmlns="http://www.w3.org/2000/svg" xmlns:xlink="http://www.w3.org/1999/xlink" xml:space="preserve" onload="init(evt)">
<style type="text/css"><![CDATA[
.edge:hover path { stroke: red; }
.edge:hover polygon { stroke: red; fill: red; }
]]></style>
<script type="text/javascript"><![CDATA[
var edges = document.getElementsByTagName('g');
if (edges && edges.length) {
  for (var i=0;i<edges.length;i++) {
    if (edges[i].id.substr(0,4)=='edge') {
      edges[i].setAttribute('class','edge');
    }
  }
}
]]></script>
        <defs>
                <circle id="rim" cx="0" cy="0" r="7"/>
                <circle id="rim2" cx="0" cy="0" r="3.5"/>
                <g id="zoomPlus">
                        <use xlink:href="#rim" fill="#404040">
                                <set attributeName="fill" to="#808080" begin="zoomplus.mouseover" end="zoomplus.mouseout"/>
                        </use>
                        <path d="M-4,0h8M0,-4v8" fill="none" stroke="white" stroke-width="1.5" pointer-events="none"/>
                </g>
                <g id="zoomMin">
                        <use xlink:href="#rim" fill="#404040">
                                <set attributeName="fill" to="#808080" begin="zoomminus.mouseover" end="zoomminus.mouseout"/>
                        </use>
                        <path d="M-4,0h8" fill="none" stroke="white" stroke-width="1.5" pointer-events="none"/>
                </g>
                <g id="dirArrow">
                        <path fill="none" stroke="white" stroke-width="1.5" d="M0,-3.0v7 M-2.5,-0.5L0,-3.0L2.5,-0.5"/>
                </g>
               <g id="resetDef">
                       <use xlink:href="#rim2" fill="#404040">
                               <set attributeName="fill" to="#808080" begin="reset.mouseover" end="reset.mouseout"/>
                       </use>
               </g>
        </defs>

<script type="text/javascript">
var viewWidth = 854;
var viewHeight = 1087;
var sectionId = 'dynsection-1';
</script>
<script xlink:href="svgpan.js"/>
<svg id="graph" class="graph">
<g id="viewport">
<title>BattleEventArgs</title>
<!-- Node3 -->
<g id="node1" class="node"><title>Node3</title>
<polygon fill="#bfbfbf" stroke="black" points="149.741,-321.5 149.741,-378.5 250.741,-378.5 250.741,-321.5 149.741,-321.5"/>
<text text-anchor="middle" x="200.241" y="-366.5" font-family="Helvetica,sans-Serif" font-size="10.00">BattleEventArgs</text>
<polyline fill="none" stroke="black" points="149.741,-359.5 250.741,-359.5 "/>
<text text-anchor="middle" x="200.241" y="-347.5" font-family="Helvetica,sans-Serif" font-size="10.00"> </text>
<polyline fill="none" stroke="black" points="149.741,-340.5 250.741,-340.5 "/>
<text text-anchor="start" x="157.741" y="-328.5" font-family="Helvetica,sans-Serif" font-size="10.00">+ BattleEventArgs()</text>
</g>
<!-- Node4 -->
<g id="node2" class="node"><title>Node4</title>
<g id="a_node2"><a xlink:href="class_game_event_args.html" target="_top" xlink:title="Base class for passing arguments with game events ">
<polygon fill="none" stroke="black" points="127.741,-531 127.741,-588 214.741,-588 214.741,-531 127.741,-531"/>
<text text-anchor="middle" x="171.241" y="-576" font-family="Helvetica,sans-Serif" font-size="10.00">GameEventArgs</text>
<polyline fill="none" stroke="black" points="127.741,-569 214.741,-569 "/>
<text text-anchor="middle" x="171.241" y="-557" font-family="Helvetica,sans-Serif" font-size="10.00"> </text>
<polyline fill="none" stroke="black" points="127.741,-550 214.741,-550 "/>
<text text-anchor="middle" x="171.241" y="-538" font-family="Helvetica,sans-Serif" font-size="10.00"> </text>
</a>
</g>
</g>
<!-- Node4&#45;&gt;Node3 -->
<g id="edge1" class="edge"><title>Node4&#45;&gt;Node3</title>
<path fill="none" stroke="midnightblue" d="M176.508,-520.808C182.239,-479.805 191.263,-415.236 196.374,-378.668"/>
<polygon fill="none" stroke="midnightblue" points="173.01,-520.557 175.092,-530.946 179.942,-521.526 173.01,-520.557"/>
</g>
<!-- Node4&#45;&gt;Node4 -->
<g id="edge3" class="edge"><title>Node4&#45;&gt;Node4</title>
<path fill="none" stroke="#404040" d="M214.91,-574.939C225.171,-573.67 232.741,-568.523 232.741,-559.5 232.741,-554.424 230.345,-550.575 226.423,-547.953"/>
<polygon fill="none" stroke="#404040" points="226.278,-547.904 219.313,-549.772 214.91,-544.061 221.875,-542.193 226.278,-547.904"/>
<text text-anchor="middle" x="251.741" y="-557" font-family="Helvetica,sans-Serif" font-size="10.00"> +Empty</text>
</g>
<!-- Node5 -->
<g id="node3" class="node"><title>Node5</title>
<g id="a_node3"><a xlink:href="class_event_args.html" target="_top" xlink:title="{EventArgs\n||}">
<polygon fill="none" stroke="black" points="127.741,-751.5 127.741,-808.5 188.741,-808.5 188.741,-751.5 127.741,-751.5"/>
<text text-anchor="middle" x="158.241" y="-796.5" font-family="Helvetica,sans-Serif" font-size="10.00">EventArgs</text>
<polyline fill="none" stroke="black" points="127.741,-789.5 188.741,-789.5 "/>
<text text-anchor="middle" x="158.241" y="-777.5" font-family="Helvetica,sans-Serif" font-size="10.00"> </text>
<polyline fill="none" stroke="black" points="127.741,-770.5 188.741,-770.5 "/>
<text text-anchor="middle" x="158.241" y="-758.5" font-family="Helvetica,sans-Serif" font-size="10.00"> </text>
</a>
</g>
</g>
<!-- Node5&#45;&gt;Node4 -->
<g id="edge2" class="edge"><title>Node5&#45;&gt;Node4</title>
<path fill="none" stroke="midnightblue" d="M160.494,-741.134C163.085,-697.572 167.279,-627.08 169.587,-588.293"/>
<polygon fill="none" stroke="midnightblue" points="156.987,-741.137 159.887,-751.327 163.975,-741.552 156.987,-741.137"/>
</g>
<!-- Node6 -->
<g id="node4" class="node"><title>Node6</title>
<polygon fill="none" stroke="#bfbfbf" points="137.741,-1021.5 137.741,-1078.5 178.741,-1078.5 178.741,-1021.5 137.741,-1021.5"/>
<text text-anchor="middle" x="158.241" y="-1066.5" font-family="Helvetica,sans-Serif" font-size="10.00">string</text>
<polyline fill="none" stroke="#bfbfbf" points="137.741,-1059.5 178.741,-1059.5 "/>
<text text-anchor="middle" x="158.241" y="-1047.5" font-family="Helvetica,sans-Serif" font-size="10.00"> </text>
<polyline fill="none" stroke="#bfbfbf" points="137.741,-1040.5 178.741,-1040.5 "/>
<text text-anchor="middle" x="158.241" y="-1028.5" font-family="Helvetica,sans-Serif" font-size="10.00"> </text>
</g>
<!-- Node6&#45;&gt;Node3 -->
<g id="edge4" class="edge"><title>Node6&#45;&gt;Node3</title>
<path fill="none" stroke="#404040" d="M149.305,-1021.4C139.415,-989.282 124.099,-934.454 118.241,-886 97.8086,-717.008 76.5621,-668.041 118.241,-503 128.8,-461.185 153.38,-418.374 172.892,-388.887"/>
<polygon fill="none" stroke="#404040" points="173.092,-388.591 173.141,-381.38 179.816,-378.652 179.767,-385.863 173.092,-388.591"/>
<text text-anchor="middle" x="117.741" y="-642.5" font-family="Helvetica,sans-Serif" font-size="10.00"> +location</text>
</g>
<!-- Node8 -->
<g id="node6" class="node"><title>Node8</title>
<g id="a_node6"><a xlink:href="class_character.html" target="_top" xlink:title="Base abstract class for Enemy and Player to inherit from. Defines all shared variables, their constructor and their setters and getters ">
<polygon fill="none" stroke="black" points="393.741,-674.5 393.741,-885.5 488.741,-885.5 488.741,-674.5 393.741,-674.5"/>
<text text-anchor="middle" x="441.241" y="-873.5" font-family="Helvetica,sans-Serif" font-size="10.00">Character</text>
<polyline fill="none" stroke="black" points="393.741,-866.5 488.741,-866.5 "/>
<text text-anchor="start" x="401.741" y="-854.5" font-family="Helvetica,sans-Serif" font-size="10.00">+ Name</text>
<text text-anchor="start" x="401.741" y="-843.5" font-family="Helvetica,sans-Serif" font-size="10.00">+ Level</text>
<text text-anchor="start" x="401.741" y="-832.5" font-family="Helvetica,sans-Serif" font-size="10.00">+ Health</text>
<text text-anchor="start" x="401.741" y="-821.5" font-family="Helvetica,sans-Serif" font-size="10.00">+ Attack</text>
<text text-anchor="start" x="401.741" y="-810.5" font-family="Helvetica,sans-Serif" font-size="10.00">+ Defence</text>
<text text-anchor="start" x="401.741" y="-799.5" font-family="Helvetica,sans-Serif" font-size="10.00">+ MaximumMagic</text>
<text text-anchor="start" x="401.741" y="-788.5" font-family="Helvetica,sans-Serif" font-size="10.00">+ Magic</text>
<text text-anchor="start" x="401.741" y="-777.5" font-family="Helvetica,sans-Serif" font-size="10.00">+ Luck</text>
<text text-anchor="start" x="401.741" y="-766.5" font-family="Helvetica,sans-Serif" font-size="10.00">+ Speed</text>
<text text-anchor="start" x="401.741" y="-755.5" font-family="Helvetica,sans-Serif" font-size="10.00">+ Rage</text>
<text text-anchor="start" x="401.741" y="-744.5" font-family="Helvetica,sans-Serif" font-size="10.00">+ CanRage</text>
<text text-anchor="start" x="401.741" y="-733.5" font-family="Helvetica,sans-Serif" font-size="10.00">+ Special1</text>
<text text-anchor="start" x="401.741" y="-722.5" font-family="Helvetica,sans-Serif" font-size="10.00">+ Special2</text>
<text text-anchor="start" x="401.741" y="-711.5" font-family="Helvetica,sans-Serif" font-size="10.00">+ Image</text>
<polyline fill="none" stroke="black" points="393.741,-704.5 488.741,-704.5 "/>
<text text-anchor="start" x="401.741" y="-692.5" font-family="Helvetica,sans-Serif" font-size="10.00">+ IsEnraged()</text>
<text text-anchor="start" x="401.741" y="-681.5" font-family="Helvetica,sans-Serif" font-size="10.00"># Character()</text>
</a>
</g>
</g>
<!-- Node6&#45;&gt;Node8 -->
<g id="edge7" class="edge"><title>Node6&#45;&gt;Node8</title>
<path fill="none" stroke="#404040" d="M178.765,-1046.94C206.029,-1043.11 253.921,-1032.39 281.241,-1003 312.457,-969.42 277.078,-935.66 310.241,-904 334.723,-880.627 357.419,-906.646 384.241,-886 384.343,-885.921 384.446,-885.842 384.548,-885.762"/>
<polygon fill="none" stroke="#404040" points="384.632,-885.688 386.468,-878.714 393.611,-877.726 391.776,-884.7 384.632,-885.688"/>
<text text-anchor="middle" x="326.741" y="-951" font-family="Helvetica,sans-Serif" font-size="10.00"> #name</text>
</g>
<!-- Node11 -->
<g id="node9" class="node"><title>Node11</title>
<g id="a_node9"><a xlink:href="class_special_move.html" target="_top" xlink:title="Special move abstract base class that expands upon CharacterMove, adding magic properties ...">
<polygon fill="none" stroke="black" points="557.241,-0.5 557.241,-90.5 655.241,-90.5 655.241,-0.5 557.241,-0.5"/>
<text text-anchor="middle" x="606.241" y="-78.5" font-family="Helvetica,sans-Serif" font-size="10.00">SpecialMove</text>
<polyline fill="none" stroke="black" points="557.241,-71.5 655.241,-71.5 "/>
<text text-anchor="start" x="565.241" y="-59.5" font-family="Helvetica,sans-Serif" font-size="10.00">+ Magic</text>
<text text-anchor="start" x="565.241" y="-48.5" font-family="Helvetica,sans-Serif" font-size="10.00">+ Desc</text>
<polyline fill="none" stroke="black" points="557.241,-41.5 655.241,-41.5 "/>
<text text-anchor="start" x="565.241" y="-29.5" font-family="Helvetica,sans-Serif" font-size="10.00">+ setUp()</text>
<text text-anchor="start" x="565.241" y="-18.5" font-family="Helvetica,sans-Serif" font-size="10.00">+ decreaseMagic()</text>
<text text-anchor="start" x="565.241" y="-7.5" font-family="Helvetica,sans-Serif" font-size="10.00"># SpecialMove()</text>
</a>
</g>
</g>
<!-- Node6&#45;&gt;Node11 -->
<g id="edge25" class="edge"><title>Node6&#45;&gt;Node11</title>
<path fill="none" stroke="#404040" d="M137.505,-1044.44C115.642,-1038.57 81.7234,-1026.22 62.2406,-1003 -3.60922,-924.526 0.240614,-883.442 0.240614,-781 0.240614,-781 0.240614,-781 0.240614,-167 0.240614,-56.7962 390.636,-45.8703 544.74,-45.8503"/>
<polygon fill="none" stroke="#404040" points="545.162,-45.851 551.17,-41.8618 557.162,-45.8726 551.155,-49.8618 545.162,-45.851"/>
<text text-anchor="middle" x="15.2406" y="-471.5" font-family="Helvetica,sans-Serif" font-size="10.00"> #desc</text>
</g>
<!-- Node12 -->
<g id="node10" class="node"><title>Node12</title>
<g id="a_node10"><a xlink:href="class_character_move.html" target="_top" xlink:title="Astract base class for character moves ">
<polygon fill="none" stroke="black" points="309.241,-128.5 309.241,-207.5 395.241,-207.5 395.241,-128.5 309.241,-128.5"/>
<text text-anchor="middle" x="352.241" y="-195.5" font-family="Helvetica,sans-Serif" font-size="10.00">CharacterMove</text>
<polyline fill="none" stroke="black" points="309.241,-188.5 395.241,-188.5 "/>
<text text-anchor="start" x="317.241" y="-176.5" font-family="Helvetica,sans-Serif" font-size="10.00">+ User</text>
<text text-anchor="start" x="317.241" y="-165.5" font-family="Helvetica,sans-Serif" font-size="10.00">+ Target</text>
<text text-anchor="start" x="317.241" y="-154.5" font-family="Helvetica,sans-Serif" font-size="10.00">+ Text</text>
<polyline fill="none" stroke="black" points="309.241,-147.5 395.241,-147.5 "/>
<text text-anchor="start" x="317.241" y="-135.5" font-family="Helvetica,sans-Serif" font-size="10.00">+ performMove()</text>
</a>
</g>
</g>
<!-- Node6&#45;&gt;Node12 -->
<g id="edge12" class="edge"><title>Node6&#45;&gt;Node12</title>
<path fill="none" stroke="#404040" d="M137.454,-1029.38C130.259,-1021.7 122.651,-1012.48 117.241,-1003 65.8799,-913.039 46.2406,-884.59 46.2406,-781 46.2406,-781 46.2406,-781 46.2406,-349 46.2406,-233.917 209.025,-190.954 297.135,-176.128"/>
<polygon fill="none" stroke="#404040" points="297.199,-176.118 302.49,-171.219 309.047,-174.218 303.756,-179.118 297.199,-176.118"/>
<text text-anchor="middle" x="58.7406" y="-557" font-family="Helvetica,sans-Serif" font-size="10.00"> #text</text>
</g>
<!-- Node13 -->
<g id="node11" class="node"><title>Node13</title>
<g id="a_node11"><a xlink:href="class_battle_manager.html" target="_top" xlink:title="Holds current Player and Enemy objects in battle and provides functions for MainBattle and other obje...">
<polygon fill="none" stroke="black" points="456.241,-255.5 456.241,-444.5 572.241,-444.5 572.241,-255.5 456.241,-255.5"/>
<text text-anchor="middle" x="514.241" y="-432.5" font-family="Helvetica,sans-Serif" font-size="10.00">BattleManager</text>
<polyline fill="none" stroke="black" points="456.241,-425.5 572.241,-425.5 "/>
<text text-anchor="start" x="464.241" y="-413.5" font-family="Helvetica,sans-Serif" font-size="10.00">+ Player</text>
<text text-anchor="start" x="464.241" y="-402.5" font-family="Helvetica,sans-Serif" font-size="10.00">+ Enemy</text>
<text text-anchor="start" x="464.241" y="-391.5" font-family="Helvetica,sans-Serif" font-size="10.00">+ WasCriticalHit</text>
<polyline fill="none" stroke="black" points="456.241,-384.5 572.241,-384.5 "/>
<text text-anchor="start" x="464.241" y="-372.5" font-family="Helvetica,sans-Serif" font-size="10.00">+ BattleManager()</text>
<text text-anchor="start" x="464.241" y="-361.5" font-family="Helvetica,sans-Serif" font-size="10.00">+ playerFirst()</text>
<text text-anchor="start" x="464.241" y="-350.5" font-family="Helvetica,sans-Serif" font-size="10.00">+ switchPlayers()</text>
<text text-anchor="start" x="464.241" y="-339.5" font-family="Helvetica,sans-Serif" font-size="10.00">+ isCriticalHit()</text>
<text text-anchor="start" x="464.241" y="-328.5" font-family="Helvetica,sans-Serif" font-size="10.00">+ ranAway()</text>
<text text-anchor="start" x="464.241" y="-317.5" font-family="Helvetica,sans-Serif" font-size="10.00">+ damageCalculation()</text>
<text text-anchor="start" x="464.241" y="-306.5" font-family="Helvetica,sans-Serif" font-size="10.00">+ enemyMove()</text>
<text text-anchor="start" x="464.241" y="-295.5" font-family="Helvetica,sans-Serif" font-size="10.00">+ enemySpecialMove()</text>
<text text-anchor="start" x="464.241" y="-284.5" font-family="Helvetica,sans-Serif" font-size="10.00">+ battleWon()</text>
<text text-anchor="start" x="464.241" y="-273.5" font-family="Helvetica,sans-Serif" font-size="10.00">+ playerFainted()</text>
<text text-anchor="start" x="464.241" y="-262.5" font-family="Helvetica,sans-Serif" font-size="10.00">&#45; characterFainted()</text>
</a>
</g>
</g>
<!-- Node6&#45;&gt;Node13 -->
<g id="edge15" class="edge"><title>Node6&#45;&gt;Node13</title>
<path fill="none" stroke="#404040" d="M164.846,-1021.34C189.865,-918.147 280.952,-556.725 351.241,-463 375.764,-430.3 412.726,-403.794 445.256,-384.791"/>
<polygon fill="none" stroke="#404040" points="445.659,-384.563 448.901,-378.121 456.094,-378.637 452.852,-385.078 445.659,-384.563"/>
<text text-anchor="middle" x="316.241" y="-648" font-family="Helvetica,sans-Serif" font-size="10.00"> +forceEnemyMove</text>
<text text-anchor="middle" x="316.241" y="-637" font-family="Helvetica,sans-Serif" font-size="10.00">+forceCriticalHits</text>
</g>
<!-- Node15 -->
<g id="node13" class="node"><title>Node15</title>
<g id="a_node13"><a xlink:href="class_item.html" target="_top" xlink:title="Abstract class for items that can be equipped to a player, increasing some of their stats ...">
<polygon fill="none" stroke="black" points="298.741,-735 298.741,-825 375.741,-825 375.741,-735 298.741,-735"/>
<text text-anchor="middle" x="337.241" y="-813" font-family="Helvetica,sans-Serif" font-size="10.00">Item</text>
<polyline fill="none" stroke="black" points="298.741,-806 375.741,-806 "/>
<text text-anchor="start" x="306.741" y="-794" font-family="Helvetica,sans-Serif" font-size="10.00">+ Name</text>
<text text-anchor="start" x="306.741" y="-783" font-family="Helvetica,sans-Serif" font-size="10.00">+ Desc</text>
<text text-anchor="start" x="306.741" y="-772" font-family="Helvetica,sans-Serif" font-size="10.00">+ Cost</text>
<polyline fill="none" stroke="black" points="298.741,-765 375.741,-765 "/>
<text text-anchor="start" x="306.741" y="-753" font-family="Helvetica,sans-Serif" font-size="10.00">+ applyBuffs()</text>
<text text-anchor="start" x="306.741" y="-742" font-family="Helvetica,sans-Serif" font-size="10.00">+ revertBuffs()</text>
</a>
</g>
</g>
<!-- Node6&#45;&gt;Node15 -->
<g id="edge22" class="edge"><title>Node6&#45;&gt;Node15</title>
<path fill="none" stroke="#404040" d="M178.856,-1040.62C194.749,-1033.1 216.015,-1020.54 228.241,-1003 254.075,-965.945 232.853,-945.26 251.241,-904 261.996,-879.866 277.725,-855.551 292.799,-834.987"/>
<polygon fill="none" stroke="#404040" points="292.928,-834.815 293.324,-827.614 300.122,-825.21 299.727,-832.41 292.928,-834.815"/>
<text text-anchor="middle" x="266.241" y="-956.5" font-family="Helvetica,sans-Serif" font-size="10.00"> #desc</text>
<text text-anchor="middle" x="266.241" y="-945.5" font-family="Helvetica,sans-Serif" font-size="10.00">#name</text>
</g>
<!-- Node7 -->
<g id="node5" class="node"><title>Node7</title>
<g id="a_node5"><a xlink:href="class_enemy.html" target="_top" xlink:title="Defines an AI controller enemy to fight in battle scenes">
<polygon fill="none" stroke="black" points="519.741,-531 519.741,-588 586.741,-588 586.741,-531 519.741,-531"/>
<text text-anchor="middle" x="553.241" y="-576" font-family="Helvetica,sans-Serif" font-size="10.00">Enemy</text>
<polyline fill="none" stroke="black" points="519.741,-569 586.741,-569 "/>
<text text-anchor="start" x="527.741" y="-557" font-family="Helvetica,sans-Serif" font-size="10.00">+ ExpGiven</text>
<polyline fill="none" stroke="black" points="519.741,-550 586.741,-550 "/>
<text text-anchor="start" x="527.741" y="-538" font-family="Helvetica,sans-Serif" font-size="10.00">+ Enemy()</text>
</a>
</g>
</g>
<!-- Node7&#45;&gt;Node3 -->
<g id="edge5" class="edge"><title>Node7&#45;&gt;Node3</title>
<path fill="none" stroke="#404040" d="M537.137,-530.622C522.501,-506.063 501.394,-472.729 489.241,-463 484.552,-459.246 345.742,-406.217 262.235,-374.494"/>
<polygon fill="none" stroke="#404040" points="262.056,-374.427 255.027,-376.036 250.838,-370.167 257.867,-368.557 262.056,-374.427"/>
<text text-anchor="middle" x="526.741" y="-471.5" font-family="Helvetica,sans-Serif" font-size="10.00"> +enemy</text>
</g>
<!-- Node7&#45;&gt;Node13 -->
<g id="edge16" class="edge"><title>Node7&#45;&gt;Node13</title>
<path fill="none" stroke="#404040" d="M554.825,-530.711C555.391,-511.544 555.112,-485.555 551.241,-463 550.867,-460.824 550.459,-458.633 550.021,-456.431"/>
<polygon fill="none" stroke="#404040" points="549.994,-456.307 544.794,-451.311 547.405,-444.59 552.605,-449.585 549.994,-456.307"/>
<text text-anchor="middle" x="572.241" y="-471.5" font-family="Helvetica,sans-Serif" font-size="10.00"> &#45;enemy</text>
</g>
<!-- Node8&#45;&gt;Node7 -->
<g id="edge6" class="edge"><title>Node8&#45;&gt;Node7</title>
<path fill="none" stroke="midnightblue" d="M493.589,-676.874C510.267,-644.337 527.379,-610.953 538.974,-588.333"/>
<polygon fill="none" stroke="midnightblue" points="490.348,-675.524 488.901,-686.019 496.577,-678.717 490.348,-675.524"/>
</g>
<!-- Node8&#45;&gt;Node12 -->
<g id="edge13" class="edge"><title>Node8&#45;&gt;Node12</title>
<path fill="none" stroke="#404040" d="M393.618,-687.084C353.62,-609.042 302.197,-506.386 297.241,-485 275.686,-391.991 307.672,-281.827 331.152,-219.203"/>
<polygon fill="none" stroke="#404040" points="331.266,-218.907 329.683,-211.871 335.569,-207.705 337.151,-214.74 331.266,-218.907"/>
<text text-anchor="middle" x="314.241" y="-477" font-family="Helvetica,sans-Serif" font-size="10.00"> #target</text>
<text text-anchor="middle" x="314.241" y="-466" font-family="Helvetica,sans-Serif" font-size="10.00">#user</text>
</g>
<!-- Node14 -->
<g id="node12" class="node"><title>Node14</title>
<g id="a_node12"><a xlink:href="class_player.html" target="_top" xlink:title="Defines a playable character for use in battle scenes">
<polygon fill="none" stroke="black" points="385.241,-503.5 385.241,-615.5 497.241,-615.5 497.241,-503.5 385.241,-503.5"/>
<text text-anchor="middle" x="441.241" y="-603.5" font-family="Helvetica,sans-Serif" font-size="10.00">Player</text>
<polyline fill="none" stroke="black" points="385.241,-596.5 497.241,-596.5 "/>
<text text-anchor="start" x="393.241" y="-584.5" font-family="Helvetica,sans-Serif" font-size="10.00">+ Exp</text>
<text text-anchor="start" x="393.241" y="-573.5" font-family="Helvetica,sans-Serif" font-size="10.00">+ Item</text>
<text text-anchor="start" x="393.241" y="-562.5" font-family="Helvetica,sans-Serif" font-size="10.00">+ ExpToNextLevel</text>
<polyline fill="none" stroke="black" points="385.241,-555.5 497.241,-555.5 "/>
<text text-anchor="start" x="393.241" y="-543.5" font-family="Helvetica,sans-Serif" font-size="10.00">+ Player()</text>
<text text-anchor="start" x="393.241" y="-532.5" font-family="Helvetica,sans-Serif" font-size="10.00">+ gainExp()</text>
<text text-anchor="start" x="393.241" y="-521.5" font-family="Helvetica,sans-Serif" font-size="10.00">+ levelUp()</text>
<text text-anchor="start" x="393.241" y="-510.5" font-family="Helvetica,sans-Serif" font-size="10.00">&#45; setExpToNextLevel()</text>
</a>
</g>
</g>
<!-- Node8&#45;&gt;Node14 -->
<g id="edge20" class="edge"><title>Node8&#45;&gt;Node14</title>
<path fill="none" stroke="midnightblue" d="M441.241,-663.778C441.241,-647.008 441.241,-630.427 441.241,-615.62"/>
<polygon fill="none" stroke="midnightblue" points="437.741,-664.23 441.241,-674.23 444.741,-664.23 437.741,-664.23"/>
</g>
<!-- Node9 -->
<g id="node7" class="node"><title>Node9</title>
<polygon fill="none" stroke="#bfbfbf" points="650.741,-1021.5 650.741,-1078.5 679.741,-1078.5 679.741,-1021.5 650.741,-1021.5"/>
<text text-anchor="middle" x="665.241" y="-1066.5" font-family="Helvetica,sans-Serif" font-size="10.00">int</text>
<polyline fill="none" stroke="#bfbfbf" points="650.741,-1059.5 679.741,-1059.5 "/>
<text text-anchor="middle" x="665.241" y="-1047.5" font-family="Helvetica,sans-Serif" font-size="10.00"> </text>
<polyline fill="none" stroke="#bfbfbf" points="650.741,-1040.5 679.741,-1040.5 "/>
<text text-anchor="middle" x="665.241" y="-1028.5" font-family="Helvetica,sans-Serif" font-size="10.00"> </text>
</g>
<!-- Node9&#45;&gt;Node7 -->
<g id="edge28" class="edge"><title>Node9&#45;&gt;Node7</title>
<path fill="none" stroke="#404040" d="M668.559,-1021.22C678.776,-933.639 707.914,-667.111 688.241,-634 668.901,-601.451 629.534,-582.405 598.278,-571.892"/>
<polygon fill="none" stroke="#404040" points="598.202,-571.868 591.279,-573.885 586.754,-568.27 593.678,-566.253 598.202,-571.868"/>
<text text-anchor="middle" x="718.241" y="-777.5" font-family="Helvetica,sans-Serif" font-size="10.00"> &#45;expGiven</text>
</g>
<!-- Node9&#45;&gt;Node8 -->
<g id="edge8" class="edge"><title>Node9&#45;&gt;Node8</title>
<path fill="none" stroke="#404040" d="M650.739,-1045.74C629.352,-1040.27 589.196,-1027.36 564.241,-1003 529.25,-968.842 541.317,-945.98 516.241,-904 511.18,-895.528 508.644,-894.257 503.241,-886 500.61,-881.98 497.958,-877.847 495.31,-873.653"/>
<polygon fill="none" stroke="#404040" points="495.099,-873.315 488.53,-870.341 488.749,-863.133 495.318,-866.107 495.099,-873.315"/>
<text text-anchor="middle" x="601.741" y="-995" font-family="Helvetica,sans-Serif" font-size="10.00"> #speed</text>
<text text-anchor="middle" x="601.741" y="-984" font-family="Helvetica,sans-Serif" font-size="10.00">#luck</text>
<text text-anchor="middle" x="601.741" y="-973" font-family="Helvetica,sans-Serif" font-size="10.00">#health</text>
<text text-anchor="middle" x="601.741" y="-962" font-family="Helvetica,sans-Serif" font-size="10.00">#magic</text>
<text text-anchor="middle" x="601.741" y="-951" font-family="Helvetica,sans-Serif" font-size="10.00">#maximumMagic</text>
<text text-anchor="middle" x="601.741" y="-940" font-family="Helvetica,sans-Serif" font-size="10.00">#attack</text>
<text text-anchor="middle" x="601.741" y="-929" font-family="Helvetica,sans-Serif" font-size="10.00">#defence</text>
<text text-anchor="middle" x="601.741" y="-918" font-family="Helvetica,sans-Serif" font-size="10.00">#level</text>
<text text-anchor="middle" x="601.741" y="-907" font-family="Helvetica,sans-Serif" font-size="10.00">#rage</text>
</g>
<!-- Node9&#45;&gt;Node11 -->
<g id="edge26" class="edge"><title>Node9&#45;&gt;Node11</title>
<path fill="none" stroke="#404040" d="M679.834,-1042.21C694.702,-1034.61 717.476,-1020.96 731.241,-1003 795.044,-919.763 811.241,-885.878 811.241,-781 811.241,-781 811.241,-781 811.241,-167 811.241,-99.6036 727.873,-69.1618 667.466,-55.9502"/>
<polygon fill="none" stroke="#404040" points="667.098,-55.8745 660.415,-58.5846 655.343,-53.4585 662.026,-50.7484 667.098,-55.8745"/>
<text text-anchor="middle" x="828.741" y="-471.5" font-family="Helvetica,sans-Serif" font-size="10.00"> #magic</text>
</g>
<!-- Node9&#45;&gt;Node13 -->
<g id="edge17" class="edge"><title>Node9&#45;&gt;Node13</title>
<path fill="none" stroke="#404040" d="M679.754,-1027.26C698.905,-997.097 731.553,-940.124 743.241,-886 763.128,-793.901 769.081,-764.61 743.241,-674 714.282,-572.454 637.621,-476.473 580.934,-415.942"/>
<polygon fill="none" stroke="#404040" points="580.624,-415.615 573.594,-414.011 572.371,-406.904 579.401,-408.508 580.624,-415.615"/>
<text text-anchor="middle" x="756.741" y="-642.5" font-family="Helvetica,sans-Serif" font-size="10.00"> +money</text>
</g>
<!-- Node9&#45;&gt;Node14 -->
<g id="edge24" class="edge"><title>Node9&#45;&gt;Node14</title>
<path fill="none" stroke="#404040" d="M667.198,-1021.34C667.979,-989.892 664.707,-938.447 639.241,-904 628.842,-889.934 616.543,-898.435 604.241,-886 601.719,-883.451 520.785,-720.792 473.931,-626.412"/>
<polygon fill="none" stroke="#404040" points="473.869,-626.286 467.618,-622.69 468.533,-615.537 474.784,-619.133 473.869,-626.286"/>
<text text-anchor="middle" x="641.741" y="-783" font-family="Helvetica,sans-Serif" font-size="10.00"> &#45;expToNextLevel</text>
<text text-anchor="middle" x="641.741" y="-772" font-family="Helvetica,sans-Serif" font-size="10.00">&#45;exp</text>
</g>
<!-- Node9&#45;&gt;Node15 -->
<g id="edge23" class="edge"><title>Node9&#45;&gt;Node15</title>
<path fill="none" stroke="#404040" d="M650.48,-1043.98C631.455,-1037.7 597.252,-1027.04 567.241,-1021 534.111,-1014.34 441.191,-1025.79 416.241,-1003 383.031,-972.664 411.874,-945.791 395.241,-904 391.774,-895.289 388.609,-894.296 384.241,-886 375.848,-870.063 367.535,-852.323 360.288,-836.028"/>
<polygon fill="none" stroke="#404040" points="360.278,-836.006 354.203,-832.121 355.453,-825.019 361.528,-828.904 360.278,-836.006"/>
<text text-anchor="middle" x="430.241" y="-951" font-family="Helvetica,sans-Serif" font-size="10.00"> #cost</text>
</g>
<!-- Node10 -->
<g id="node8" class="node"><title>Node10</title>
<polygon fill="none" stroke="#bfbfbf" points="523.741,-1021.5 523.741,-1078.5 558.741,-1078.5 558.741,-1021.5 523.741,-1021.5"/>
<text text-anchor="middle" x="541.241" y="-1066.5" font-family="Helvetica,sans-Serif" font-size="10.00">bool</text>
<polyline fill="none" stroke="#bfbfbf" points="523.741,-1059.5 558.741,-1059.5 "/>
<text text-anchor="middle" x="541.241" y="-1047.5" font-family="Helvetica,sans-Serif" font-size="10.00"> </text>
<polyline fill="none" stroke="#bfbfbf" points="523.741,-1040.5 558.741,-1040.5 "/>
<text text-anchor="middle" x="541.241" y="-1028.5" font-family="Helvetica,sans-Serif" font-size="10.00"> </text>
</g>
<!-- Node10&#45;&gt;Node8 -->
<g id="edge9" class="edge"><title>Node10&#45;&gt;Node8</title>
<path fill="none" stroke="#404040" d="M523.492,-1042.78C506.568,-1035.85 481.846,-1022.93 469.241,-1003 457.83,-984.955 451.056,-941.476 447.04,-897.732"/>
<polygon fill="none" stroke="#404040" points="447.035,-897.669 442.534,-892.035 446.004,-885.713 450.505,-891.347 447.035,-897.669"/>
<text text-anchor="middle" x="492.741" y="-951" font-family="Helvetica,sans-Serif" font-size="10.00"> #canRage</text>
</g>
<!-- Node10&#45;&gt;Node13 -->
<g id="edge18" class="edge"><title>Node10&#45;&gt;Node13</title>
<path fill="none" stroke="#404040" d="M558.797,-1043.54C576.397,-1037.02 602.516,-1024.25 614.241,-1003 672.259,-897.864 636.248,-575.495 594.241,-463 590.208,-452.201 584.854,-441.494 578.821,-431.229"/>
<polygon fill="none" stroke="#404040" points="578.625,-430.913 572.067,-427.913 572.314,-420.706 578.871,-423.706 578.625,-430.913"/>
<text text-anchor="middle" x="667.241" y="-642.5" font-family="Helvetica,sans-Serif" font-size="10.00"> &#45;wasCriticalHit</text>
</g>
<!-- Node11&#45;&gt;Node8 -->
<g id="edge10" class="edge"><title>Node11&#45;&gt;Node8</title>
<path fill="none" stroke="#404040" d="M655.464,-83.9586C677.772,-105.409 699.241,-134.496 699.241,-167 699.241,-560.5 699.241,-560.5 699.241,-560.5 699.241,-603.398 716.347,-626.459 685.241,-656 656.742,-683.064 548.396,-655.109 499.831,-672.565"/>
<polygon fill="none" stroke="#404040" points="499.594,-672.684 496.012,-678.942 488.857,-678.043 492.439,-671.784 499.594,-672.684"/>
<text text-anchor="middle" x="721.741" y="-353" font-family="Helvetica,sans-Serif" font-size="10.00"> #special1</text>
<text text-anchor="middle" x="721.741" y="-342" font-family="Helvetica,sans-Serif" font-size="10.00">#special2</text>
</g>
<!-- Node12&#45;&gt;Node11 -->
<g id="edge11" class="edge"><title>Node12&#45;&gt;Node11</title>
<path fill="none" stroke="midnightblue" d="M404.557,-142.181C449.231,-120.987 513.029,-90.7205 556.843,-69.9346"/>
<polygon fill="none" stroke="midnightblue" points="402.863,-139.11 395.328,-146.559 405.863,-145.435 402.863,-139.11"/>
</g>
<!-- Node13&#45;&gt;Node12 -->
<g id="edge14" class="edge"><title>Node13&#45;&gt;Node12</title>
<path fill="none" stroke="#404040" d="M456.212,-284.524C436.046,-262.117 413.807,-237.408 395.091,-216.612"/>
<polygon fill="none" stroke="#404040" points="395.059,-216.576 388.072,-214.792 387.032,-207.657 394.019,-209.441 395.059,-216.576"/>
<text text-anchor="middle" x="433.241" y="-229" font-family="Helvetica,sans-Serif" font-size="10.00"> #manager</text>
</g>
<!-- Node14&#45;&gt;Node3 -->
<g id="edge29" class="edge"><title>Node14&#45;&gt;Node3</title>
<path fill="none" stroke="#404040" d="M385.041,-510.112C341.132,-472.307 281.113,-420.631 241.544,-386.562"/>
<polygon fill="none" stroke="#404040" points="241.534,-386.554 234.378,-385.67 232.441,-378.724 239.597,-379.608 241.534,-386.554"/>
<text text-anchor="middle" x="381.241" y="-471.5" font-family="Helvetica,sans-Serif" font-size="10.00"> +activePlayer</text>
</g>
<!-- Node14&#45;&gt;Node13 -->
<g id="edge19" class="edge"><title>Node14&#45;&gt;Node13</title>
<path fill="none" stroke="#404040" d="M446.789,-503.491C448.986,-490.045 452.032,-475.838 456.241,-463 456.982,-460.737 457.766,-458.465 458.586,-456.187"/>
<polygon fill="none" stroke="#404040" points="458.665,-455.981 457.085,-448.946 462.971,-444.781 464.552,-451.816 458.665,-455.981"/>
<text text-anchor="middle" x="472.741" y="-471.5" font-family="Helvetica,sans-Serif" font-size="10.00"> &#45;player</text>
</g>
<!-- Node15&#45;&gt;Node14 -->
<g id="edge21" class="edge"><title>Node15&#45;&gt;Node14</title>
<path fill="none" stroke="#404040" d="M356.473,-734.865C364.818,-716.025 374.821,-693.847 384.241,-674 391.544,-658.612 399.63,-642.175 407.362,-626.725"/>
<polygon fill="none" stroke="#404040" points="407.525,-626.4 406.644,-619.243 412.912,-615.678 413.793,-622.835 407.525,-626.4"/>
<text text-anchor="middle" x="415.741" y="-642.5" font-family="Helvetica,sans-Serif" font-size="10.00"> &#45;item</text>
</g>
<!-- Node16 -->
<g id="node14" class="node"><title>Node16</title>
<polygon fill="none" stroke="#bfbfbf" points="328.741,-1021.5 328.741,-1078.5 389.741,-1078.5 389.741,-1021.5 328.741,-1021.5"/>
<text text-anchor="middle" x="359.241" y="-1066.5" font-family="Helvetica,sans-Serif" font-size="10.00">Texture2D</text>
<polyline fill="none" stroke="#bfbfbf" points="328.741,-1059.5 389.741,-1059.5 "/>
<text text-anchor="middle" x="359.241" y="-1047.5" font-family="Helvetica,sans-Serif" font-size="10.00"> </text>
<polyline fill="none" stroke="#bfbfbf" points="328.741,-1040.5 389.741,-1040.5 "/>
<text text-anchor="middle" x="359.241" y="-1028.5" font-family="Helvetica,sans-Serif" font-size="10.00"> </text>
</g>
<!-- Node16&#45;&gt;Node8 -->
<g id="edge27" class="edge"><title>Node16&#45;&gt;Node8</title>
<path fill="none" stroke="#404040" d="M352.493,-1021.4C346.558,-990.903 341.48,-941.2 360.241,-904 366.245,-892.095 375.526,-896.091 384.241,-886 384.851,-885.294 385.457,-884.58 386.059,-883.858"/>
<polygon fill="none" stroke="#404040" points="386.278,-883.578 386.82,-876.387 393.666,-874.121 393.124,-881.312 386.278,-883.578"/>
<text text-anchor="middle" x="377.741" y="-951" font-family="Helvetica,sans-Serif" font-size="10.00"> #image</text>
</g>
</g>
</svg>
        <g id="navigator" transform="translate(0 0)" fill="#404254">
                <rect fill="#f2f5e9" fill-opacity="0.5" stroke="#606060" stroke-width=".5" x="0" y="0" width="60" height="60"/>
                <use id="zoomplus" xlink:href="#zoomPlus" x="17" y="9" onmousedown="handleZoom(evt,'in')"/>
                <use id="zoomminus" xlink:href="#zoomMin" x="42" y="9" onmousedown="handleZoom(evt,'out')"/>
                <use id="reset" xlink:href="#resetDef" x="30" y="36" onmousedown="handleReset()"/>
                <g id="arrowUp" xlink:href="#dirArrow" transform="translate(30 24)" onmousedown="handlePan(0,-1)">
                  <use xlink:href="#rim" fill="#404040">
                        <set attributeName="fill" to="#808080" begin="arrowUp.mouseover" end="arrowUp.mouseout"/>
                  </use>
                  <path fill="none" stroke="white" stroke-width="1.5" d="M0,-3.0v7 M-2.5,-0.5L0,-3.0L2.5,-0.5"/>
                </g>
                <g id="arrowRight" xlink:href="#dirArrow" transform="rotate(90) translate(36 -43)" onmousedown="handlePan(1,0)">
                  <use xlink:href="#rim" fill="#404040">
                        <set attributeName="fill" to="#808080" begin="arrowRight.mouseover" end="arrowRight.mouseout"/>
                  </use>
                  <path fill="none" stroke="white" stroke-width="1.5" d="M0,-3.0v7 M-2.5,-0.5L0,-3.0L2.5,-0.5"/>
                </g>
                <g id="arrowDown" xlink:href="#dirArrow" transform="rotate(180) translate(-30 -48)" onmousedown="handlePan(0,1)">
                  <use xlink:href="#rim" fill="#404040">
                        <set attributeName="fill" to="#808080" begin="arrowDown.mouseover" end="arrowDown.mouseout"/>
                  </use>
                  <path fill="none" stroke="white" stroke-width="1.5" d="M0,-3.0v7 M-2.5,-0.5L0,-3.0L2.5,-0.5"/>
                </g>
                <g id="arrowLeft" xlink:href="#dirArrow" transform="rotate(270) translate(-36 17)" onmousedown="handlePan(-1,0)">
                  <use xlink:href="#rim" fill="#404040">
                        <set attributeName="fill" to="#808080" begin="arrowLeft.mouseover" end="arrowLeft.mouseout"/>
                  </use>
                  <path fill="none" stroke="white" stroke-width="1.5" d="M0,-3.0v7 M-2.5,-0.5L0,-3.0L2.5,-0.5"/>
                </g>
        </g>
        <svg viewBox="0 0 15 15" width="100%" height="30px" preserveAspectRatio="xMaxYMin meet">
         <g id="arrow_out" transform="scale(0.3 0.3)">
          <a xlink:href="class_battle_event_args__coll__graph_org.svg" target="_base">
           <rect id="button" ry="5" rx="5" y="6" x="6" height="38" width="38"
                fill="#f2f5e9" fill-opacity="0.5" stroke="#606060" stroke-width="1.0"/>
           <path id="arrow"
             d="M 11.500037,31.436501 C 11.940474,20.09759 22.043105,11.32322 32.158766,21.979434 L 37.068811,17.246167 C 37.068811,17.246167 37.088388,32 37.088388,32 L 22.160133,31.978069 C 22.160133,31.978069 26.997745,27.140456 26.997745,27.140456 C 18.528582,18.264221 13.291696,25.230495 11.500037,31.436501 z"
             style="fill:#404040;"/>
          </a>
         </g>
        </svg>
</svg>
