<?xml version="1.0" encoding="UTF-8" standalone="no"?>
<!DOCTYPE svg PUBLIC "-//W3C//DTD SVG 1.1//EN"
 "http://www.w3.org/Graphics/SVG/1.1/DTD/svg11.dtd">
<!-- Generated by graphviz version 2.38.0 (20140413.2041)
 -->
<!-- Title: ShopItem Pages: 1 -->
<svg width="133pt" height="309pt"
 viewBox="0.00 0.00 132.50 309.00" xmlns="http://www.w3.org/2000/svg" xmlns:xlink="http://www.w3.org/1999/xlink">
<g id="graph0" class="graph" transform="scale(1 1) rotate(0) translate(4 305)">
<title>ShopItem</title>
<!-- Node1 -->
<g id="node1" class="node"><title>Node1</title>
<polygon fill="#bfbfbf" stroke="black" points="47,-0.5 47,-57.5 120,-57.5 120,-0.5 47,-0.5"/>
<text text-anchor="middle" x="83.5" y="-45.5" font-family="Helvetica,sans-Serif" font-size="10.00">ShopItem</text>
<polyline fill="none" stroke="black" points="47,-38.5 120,-38.5 "/>
<text text-anchor="middle" x="83.5" y="-26.5" font-family="Helvetica,sans-Serif" font-size="10.00"> </text>
<polyline fill="none" stroke="black" points="47,-19.5 120,-19.5 "/>
<text text-anchor="start" x="55" y="-7.5" font-family="Helvetica,sans-Serif" font-size="10.00">+ ShopItem()</text>
</g>
<!-- Node2 -->
<g id="node2" class="node"><title>Node2</title>
<g id="a_node2"><a xlink:href="class_item.html" target="_top" xlink:title="Abstract class for items that can be equipped to a player, increasing some of their stats ...">
<polygon fill="none" stroke="black" points="0,-105.5 0,-184.5 77,-184.5 77,-105.5 0,-105.5"/>
<text text-anchor="middle" x="38.5" y="-172.5" font-family="Helvetica,sans-Serif" font-size="10.00">Item</text>
<polyline fill="none" stroke="black" points="0,-165.5 77,-165.5 "/>
<text text-anchor="start" x="8" y="-153.5" font-family="Helvetica,sans-Serif" font-size="10.00">+ Name</text>
<text text-anchor="start" x="8" y="-142.5" font-family="Helvetica,sans-Serif" font-size="10.00">+ Desc</text>
<polyline fill="none" stroke="black" points="0,-135.5 77,-135.5 "/>
<text text-anchor="start" x="8" y="-123.5" font-family="Helvetica,sans-Serif" font-size="10.00">+ applyBuffs()</text>
<text text-anchor="start" x="8" y="-112.5" font-family="Helvetica,sans-Serif" font-size="10.00">+ revertBuffs()</text>
</a>
</g>
</g>
<!-- Node2&#45;&gt;Node1 -->
<g id="edge1" class="edge"><title>Node2&#45;&gt;Node1</title>
<path fill="none" stroke="#404040" d="M50.7197,-105.225C53.9997,-95.5929 57.6983,-85.3514 61.5,-76 62.4377,-73.6936 63.4348,-71.3387 64.4671,-68.9739"/>
<polygon fill="none" stroke="#404040" points="64.4982,-68.9052 63.3383,-61.788 69.462,-57.9799 70.6219,-65.0972 64.4982,-68.9052"/>
<text text-anchor="middle" x="75.5" y="-79" font-family="Helvetica,sans-Serif" font-size="10.00"> +item</text>
</g>
<!-- Node3 -->
<g id="node3" class="node"><title>Node3</title>
<polygon fill="none" stroke="#bfbfbf" points="18,-243.5 18,-300.5 59,-300.5 59,-243.5 18,-243.5"/>
<text text-anchor="middle" x="38.5" y="-288.5" font-family="Helvetica,sans-Serif" font-size="10.00">string</text>
<polyline fill="none" stroke="#bfbfbf" points="18,-281.5 59,-281.5 "/>
<text text-anchor="middle" x="38.5" y="-269.5" font-family="Helvetica,sans-Serif" font-size="10.00"> </text>
<polyline fill="none" stroke="#bfbfbf" points="18,-262.5 59,-262.5 "/>
<text text-anchor="middle" x="38.5" y="-250.5" font-family="Helvetica,sans-Serif" font-size="10.00"> </text>
</g>
<!-- Node3&#45;&gt;Node2 -->
<g id="edge2" class="edge"><title>Node3&#45;&gt;Node2</title>
<path fill="none" stroke="#404040" d="M38.5,-243.258C38.5,-229.637 38.5,-212.787 38.5,-196.96"/>
<polygon fill="none" stroke="#404040" points="38.5001,-196.567 34.5,-190.567 38.5,-184.567 42.5,-190.567 38.5001,-196.567"/>
<text text-anchor="middle" x="53.5" y="-217" font-family="Helvetica,sans-Serif" font-size="10.00"> #desc</text>
<text text-anchor="middle" x="53.5" y="-206" font-family="Helvetica,sans-Serif" font-size="10.00">#name</text>
</g>
<!-- Node4 -->
<g id="node4" class="node"><title>Node4</title>
<polygon fill="none" stroke="#bfbfbf" points="95,-116.5 95,-173.5 124,-173.5 124,-116.5 95,-116.5"/>
<text text-anchor="middle" x="109.5" y="-161.5" font-family="Helvetica,sans-Serif" font-size="10.00">int</text>
<polyline fill="none" stroke="#bfbfbf" points="95,-154.5 124,-154.5 "/>
<text text-anchor="middle" x="109.5" y="-142.5" font-family="Helvetica,sans-Serif" font-size="10.00"> </text>
<polyline fill="none" stroke="#bfbfbf" points="95,-135.5 124,-135.5 "/>
<text text-anchor="middle" x="109.5" y="-123.5" font-family="Helvetica,sans-Serif" font-size="10.00"> </text>
</g>
<!-- Node4&#45;&gt;Node1 -->
<g id="edge3" class="edge"><title>Node4&#45;&gt;Node1</title>
<path fill="none" stroke="#404040" d="M103.206,-116.404C100.004,-102.365 96.055,-85.049 92.5348,-69.614"/>
<polygon fill="none" stroke="#404040" points="92.4944,-69.4368 87.2604,-64.4765 89.826,-57.7372 95.0601,-62.6975 92.4944,-69.4368"/>
<text text-anchor="middle" x="110.5" y="-79" font-family="Helvetica,sans-Serif" font-size="10.00"> +cost</text>
</g>
</g>
</svg>
