<?xml version="1.0" encoding="UTF-8" standalone="no"?>
<!DOCTYPE svg PUBLIC "-//W3C//DTD SVG 1.1//EN"
 "http://www.w3.org/Graphics/SVG/1.1/DTD/svg11.dtd">
<!-- Generated by graphviz version 2.38.0 (20140413.2041)
 -->
<!-- Title: QuestScript Pages: 1 -->
<svg width="211pt" height="215pt"
 viewBox="0.00 0.00 210.50 215.00" xmlns="http://www.w3.org/2000/svg" xmlns:xlink="http://www.w3.org/1999/xlink">
<g id="graph0" class="graph" transform="scale(1 1) rotate(0) translate(4 211)">
<title>QuestScript</title>
<!-- Node2 -->
<g id="node1" class="node"><title>Node2</title>
<polygon fill="#bfbfbf" stroke="black" points="41,-0.5 41,-79.5 136,-79.5 136,-0.5 41,-0.5"/>
<text text-anchor="middle" x="88.5" y="-67.5" font-family="Helvetica,sans-Serif" font-size="10.00">QuestScript</text>
<polyline fill="none" stroke="black" points="41,-60.5 136,-60.5 "/>
<text text-anchor="middle" x="88.5" y="-48.5" font-family="Helvetica,sans-Serif" font-size="10.00"> </text>
<polyline fill="none" stroke="black" points="41,-41.5 136,-41.5 "/>
<text text-anchor="start" x="49" y="-29.5" font-family="Helvetica,sans-Serif" font-size="10.00">+ buttonPressed()</text>
<text text-anchor="start" x="49" y="-18.5" font-family="Helvetica,sans-Serif" font-size="10.00">+ back()</text>
<text text-anchor="start" x="49" y="-7.5" font-family="Helvetica,sans-Serif" font-size="10.00">&#45; Start()</text>
</g>
<!-- Node3 -->
<g id="node2" class="node"><title>Node3</title>
<g id="a_node2"><a xlink:href="class_mono_behaviour.html" target="_top" xlink:title="{MonoBehaviour\n||}">
<polygon fill="none" stroke="black" points="0,-149.5 0,-206.5 83,-206.5 83,-149.5 0,-149.5"/>
<text text-anchor="middle" x="41.5" y="-194.5" font-family="Helvetica,sans-Serif" font-size="10.00">MonoBehaviour</text>
<polyline fill="none" stroke="black" points="0,-187.5 83,-187.5 "/>
<text text-anchor="middle" x="41.5" y="-175.5" font-family="Helvetica,sans-Serif" font-size="10.00"> </text>
<polyline fill="none" stroke="black" points="0,-168.5 83,-168.5 "/>
<text text-anchor="middle" x="41.5" y="-156.5" font-family="Helvetica,sans-Serif" font-size="10.00"> </text>
</a>
</g>
</g>
<!-- Node3&#45;&gt;Node2 -->
<g id="edge1" class="edge"><title>Node3&#45;&gt;Node2</title>
<path fill="none" stroke="midnightblue" d="M54.3494,-139.819C60.8145,-121.111 68.6438,-98.4563 75.1741,-79.5601"/>
<polygon fill="none" stroke="midnightblue" points="50.9695,-138.884 51.0112,-149.478 57.5856,-141.17 50.9695,-138.884"/>
</g>
<!-- Node4 -->
<g id="node3" class="node"><title>Node4</title>
<polygon fill="none" stroke="#bfbfbf" points="101,-149.5 101,-206.5 172,-206.5 172,-149.5 101,-149.5"/>
<text text-anchor="middle" x="136.5" y="-194.5" font-family="Helvetica,sans-Serif" font-size="10.00">GameObject</text>
<polyline fill="none" stroke="#bfbfbf" points="101,-187.5 172,-187.5 "/>
<text text-anchor="middle" x="136.5" y="-175.5" font-family="Helvetica,sans-Serif" font-size="10.00"> </text>
<polyline fill="none" stroke="#bfbfbf" points="101,-168.5 172,-168.5 "/>
<text text-anchor="middle" x="136.5" y="-156.5" font-family="Helvetica,sans-Serif" font-size="10.00"> </text>
</g>
<!-- Node4&#45;&gt;Node2 -->
<g id="edge2" class="edge"><title>Node4&#45;&gt;Node2</title>
<path fill="none" stroke="#404040" d="M126.786,-149.478C120.855,-132.674 113.094,-110.684 106.111,-90.8986"/>
<polygon fill="none" stroke="#404040" points="106.103,-90.876 100.334,-86.5494 102.109,-79.5601 107.878,-83.8868 106.103,-90.876"/>
<text text-anchor="middle" x="161" y="-123" font-family="Helvetica,sans-Serif" font-size="10.00"> +outerListElement</text>
<text text-anchor="middle" x="161" y="-112" font-family="Helvetica,sans-Serif" font-size="10.00">&#45;player</text>
<text text-anchor="middle" x="161" y="-101" font-family="Helvetica,sans-Serif" font-size="10.00">+innerListElement</text>
</g>
</g>
</svg>
