<?xml version="1.0" encoding="UTF-8" standalone="no"?>
<!DOCTYPE svg PUBLIC "-//W3C//DTD SVG 1.1//EN"
 "http://www.w3.org/Graphics/SVG/1.1/DTD/svg11.dtd">
<!-- Generated by graphviz version 2.38.0 (20140413.2041)
 -->
<!-- Title: EnemyAI Pages: 1 -->
<svg width="331pt" height="204pt"
 viewBox="0.00 0.00 330.50 204.00" xmlns="http://www.w3.org/2000/svg" xmlns:xlink="http://www.w3.org/1999/xlink">
<g id="graph0" class="graph" transform="scale(1 1) rotate(0) translate(4 200)">
<title>EnemyAI</title>
<!-- Node2 -->
<g id="node1" class="node"><title>Node2</title>
<polygon fill="#bfbfbf" stroke="black" points="127,-0.5 127,-68.5 210,-68.5 210,-0.5 127,-0.5"/>
<text text-anchor="middle" x="168.5" y="-56.5" font-family="Helvetica,sans-Serif" font-size="10.00">EnemyAI</text>
<polyline fill="none" stroke="black" points="127,-49.5 210,-49.5 "/>
<text text-anchor="middle" x="168.5" y="-37.5" font-family="Helvetica,sans-Serif" font-size="10.00"> </text>
<polyline fill="none" stroke="black" points="127,-30.5 210,-30.5 "/>
<text text-anchor="start" x="135" y="-18.5" font-family="Helvetica,sans-Serif" font-size="10.00">&#45; Start()</text>
<text text-anchor="start" x="135" y="-7.5" font-family="Helvetica,sans-Serif" font-size="10.00">&#45; FixedUpdate()</text>
</g>
<!-- Node3 -->
<g id="node2" class="node"><title>Node3</title>
<g id="a_node2"><a xlink:href="class_mono_behaviour.html" target="_top" xlink:title="{MonoBehaviour\n||}">
<polygon fill="none" stroke="black" points="0,-138.5 0,-195.5 83,-195.5 83,-138.5 0,-138.5"/>
<text text-anchor="middle" x="41.5" y="-183.5" font-family="Helvetica,sans-Serif" font-size="10.00">MonoBehaviour</text>
<polyline fill="none" stroke="black" points="0,-176.5 83,-176.5 "/>
<text text-anchor="middle" x="41.5" y="-164.5" font-family="Helvetica,sans-Serif" font-size="10.00"> </text>
<polyline fill="none" stroke="black" points="0,-157.5 83,-157.5 "/>
<text text-anchor="middle" x="41.5" y="-145.5" font-family="Helvetica,sans-Serif" font-size="10.00"> </text>
</a>
</g>
</g>
<!-- Node3&#45;&gt;Node2 -->
<g id="edge1" class="edge"><title>Node3&#45;&gt;Node2</title>
<path fill="none" stroke="midnightblue" d="M75.4219,-131.143C94.2788,-111.767 117.617,-87.7855 136.206,-68.6838"/>
<polygon fill="none" stroke="midnightblue" points="72.8995,-128.717 68.4334,-138.324 77.9161,-133.599 72.8995,-128.717"/>
</g>
<!-- Node4 -->
<g id="node3" class="node"><title>Node4</title>
<polygon fill="none" stroke="#bfbfbf" points="101,-138.5 101,-195.5 172,-195.5 172,-138.5 101,-138.5"/>
<text text-anchor="middle" x="136.5" y="-183.5" font-family="Helvetica,sans-Serif" font-size="10.00">GameObject</text>
<polyline fill="none" stroke="#bfbfbf" points="101,-176.5 172,-176.5 "/>
<text text-anchor="middle" x="136.5" y="-164.5" font-family="Helvetica,sans-Serif" font-size="10.00"> </text>
<polyline fill="none" stroke="#bfbfbf" points="101,-157.5 172,-157.5 "/>
<text text-anchor="middle" x="136.5" y="-145.5" font-family="Helvetica,sans-Serif" font-size="10.00"> </text>
</g>
<!-- Node4&#45;&gt;Node2 -->
<g id="edge2" class="edge"><title>Node4&#45;&gt;Node2</title>
<path fill="none" stroke="#404040" d="M136.515,-138.142C137.13,-122.811 138.907,-103.587 143.5,-87 144.163,-84.6054 144.935,-82.1874 145.788,-79.7733"/>
<polygon fill="none" stroke="#404040" points="145.8,-79.7446 144.323,-72.6863 150.271,-68.6086 151.747,-75.6669 145.8,-79.7446"/>
<text text-anchor="middle" x="161.5" y="-101" font-family="Helvetica,sans-Serif" font-size="10.00"> +player</text>
</g>
<!-- Node5 -->
<g id="node4" class="node"><title>Node5</title>
<polygon fill="none" stroke="#bfbfbf" points="190,-138.5 190,-195.5 225,-195.5 225,-138.5 190,-138.5"/>
<text text-anchor="middle" x="207.5" y="-183.5" font-family="Helvetica,sans-Serif" font-size="10.00">float</text>
<polyline fill="none" stroke="#bfbfbf" points="190,-176.5 225,-176.5 "/>
<text text-anchor="middle" x="207.5" y="-164.5" font-family="Helvetica,sans-Serif" font-size="10.00"> </text>
<polyline fill="none" stroke="#bfbfbf" points="190,-157.5 225,-157.5 "/>
<text text-anchor="middle" x="207.5" y="-145.5" font-family="Helvetica,sans-Serif" font-size="10.00"> </text>
</g>
<!-- Node5&#45;&gt;Node2 -->
<g id="edge3" class="edge"><title>Node5&#45;&gt;Node2</title>
<path fill="none" stroke="#404040" d="M199.229,-138.324C194.193,-121.471 187.64,-99.5456 181.88,-80.2723"/>
<polygon fill="none" stroke="#404040" points="181.853,-80.1814 176.303,-75.578 178.417,-68.6838 183.968,-73.2872 181.853,-80.1814"/>
<text text-anchor="middle" x="227.5" y="-112" font-family="Helvetica,sans-Serif" font-size="10.00"> +smoothTimeX</text>
<text text-anchor="middle" x="227.5" y="-101" font-family="Helvetica,sans-Serif" font-size="10.00">+smoothTimeY</text>
<text text-anchor="middle" x="227.5" y="-90" font-family="Helvetica,sans-Serif" font-size="10.00">+speed</text>
</g>
<!-- Node6 -->
<g id="node5" class="node"><title>Node6</title>
<polygon fill="none" stroke="#bfbfbf" points="267.5,-138.5 267.5,-195.5 317.5,-195.5 317.5,-138.5 267.5,-138.5"/>
<text text-anchor="middle" x="292.5" y="-183.5" font-family="Helvetica,sans-Serif" font-size="10.00">Vector2</text>
<polyline fill="none" stroke="#bfbfbf" points="267.5,-176.5 317.5,-176.5 "/>
<text text-anchor="middle" x="292.5" y="-164.5" font-family="Helvetica,sans-Serif" font-size="10.00"> </text>
<polyline fill="none" stroke="#bfbfbf" points="267.5,-157.5 317.5,-157.5 "/>
<text text-anchor="middle" x="292.5" y="-145.5" font-family="Helvetica,sans-Serif" font-size="10.00"> </text>
</g>
<!-- Node6&#45;&gt;Node2 -->
<g id="edge4" class="edge"><title>Node6&#45;&gt;Node2</title>
<path fill="none" stroke="#404040" d="M288.286,-138.223C284.601,-121.796 277.819,-101.448 265.5,-87 253.74,-73.2076 237.339,-62.5571 221.364,-54.6169"/>
<polygon fill="none" stroke="#404040" points="221.321,-54.5971 214.195,-55.7009 210.435,-49.5475 217.562,-48.4436 221.321,-54.5971"/>
<text text-anchor="middle" x="303" y="-101" font-family="Helvetica,sans-Serif" font-size="10.00"> &#45;velocity</text>
</g>
</g>
</svg>
