<?xml version="1.0" encoding="UTF-8" standalone="no"?>
<!DOCTYPE svg PUBLIC "-//W3C//DTD SVG 1.1//EN"
 "http://www.w3.org/Graphics/SVG/1.1/DTD/svg11.dtd">
<!-- Generated by graphviz version 2.38.0 (20140413.2041)
 -->
<!-- Title: Player Pages: 1 -->
<!--zoomable 1276 -->
<svg id="main" version="1.1" xmlns="http://www.w3.org/2000/svg" xmlns:xlink="http://www.w3.org/1999/xlink" xml:space="preserve" onload="init(evt)">
<style type="text/css"><![CDATA[
.edge:hover path { stroke: red; }
.edge:hover polygon { stroke: red; fill: red; }
]]></style>
<script type="text/javascript"><![CDATA[
var edges = document.getElementsByTagName('g');
if (edges && edges.length) {
  for (var i=0;i<edges.length;i++) {
    if (edges[i].id.substr(0,4)=='edge') {
      edges[i].setAttribute('class','edge');
    }
  }
}
]]></script>
        <defs>
                <circle id="rim" cx="0" cy="0" r="7"/>
                <circle id="rim2" cx="0" cy="0" r="3.5"/>
                <g id="zoomPlus">
                        <use xlink:href="#rim" fill="#404040">
                                <set attributeName="fill" to="#808080" begin="zoomplus.mouseover" end="zoomplus.mouseout"/>
                        </use>
                        <path d="M-4,0h8M0,-4v8" fill="none" stroke="white" stroke-width="1.5" pointer-events="none"/>
                </g>
                <g id="zoomMin">
                        <use xlink:href="#rim" fill="#404040">
                                <set attributeName="fill" to="#808080" begin="zoomminus.mouseover" end="zoomminus.mouseout"/>
                        </use>
                        <path d="M-4,0h8" fill="none" stroke="white" stroke-width="1.5" pointer-events="none"/>
                </g>
                <g id="dirArrow">
                        <path fill="none" stroke="white" stroke-width="1.5" d="M0,-3.0v7 M-2.5,-0.5L0,-3.0L2.5,-0.5"/>
                </g>
               <g id="resetDef">
                       <use xlink:href="#rim2" fill="#404040">
                               <set attributeName="fill" to="#808080" begin="reset.mouseover" end="reset.mouseout"/>
                       </use>
               </g>
        </defs>

<script type="text/javascript">
var viewWidth = 639;
var viewHeight = 1276;
var sectionId = 'dynsection-1';
</script>
<script xlink:href="svgpan.js"/>
<svg id="graph" class="graph">
<g id="viewport">
<title>Player</title>
<!-- Node2 -->
<g id="node1" class="node"><title>Node2</title>
<polygon fill="#bfbfbf" stroke="black" points="432,-901.5 432,-1013.5 544,-1013.5 544,-901.5 432,-901.5"/>
<text text-anchor="middle" x="488" y="-1001.5" font-family="Helvetica,sans-Serif" font-size="10.00">Player</text>
<polyline fill="none" stroke="black" points="432,-994.5 544,-994.5 "/>
<text text-anchor="start" x="440" y="-982.5" font-family="Helvetica,sans-Serif" font-size="10.00">+ Exp</text>
<text text-anchor="start" x="440" y="-971.5" font-family="Helvetica,sans-Serif" font-size="10.00">+ Item</text>
<text text-anchor="start" x="440" y="-960.5" font-family="Helvetica,sans-Serif" font-size="10.00">+ ExpToNextLevel</text>
<polyline fill="none" stroke="black" points="432,-953.5 544,-953.5 "/>
<text text-anchor="start" x="440" y="-941.5" font-family="Helvetica,sans-Serif" font-size="10.00">+ Player()</text>
<text text-anchor="start" x="440" y="-930.5" font-family="Helvetica,sans-Serif" font-size="10.00">+ gainExp()</text>
<text text-anchor="start" x="440" y="-919.5" font-family="Helvetica,sans-Serif" font-size="10.00">+ levelUp()</text>
<text text-anchor="start" x="440" y="-908.5" font-family="Helvetica,sans-Serif" font-size="10.00">&#45; setExpToNextLevel()</text>
</g>
<!-- Node8 -->
<g id="node7" class="node"><title>Node8</title>
<g id="a_node7"><a xlink:href="class_battle_manager.html" target="_top" xlink:title="Holds current Player and Enemy objects in battle and provides functions for MainBattle and other obje...">
<polygon fill="none" stroke="black" points="348,-664.5 348,-853.5 464,-853.5 464,-664.5 348,-664.5"/>
<text text-anchor="middle" x="406" y="-841.5" font-family="Helvetica,sans-Serif" font-size="10.00">BattleManager</text>
<polyline fill="none" stroke="black" points="348,-834.5 464,-834.5 "/>
<text text-anchor="start" x="356" y="-822.5" font-family="Helvetica,sans-Serif" font-size="10.00">+ Player</text>
<text text-anchor="start" x="356" y="-811.5" font-family="Helvetica,sans-Serif" font-size="10.00">+ Enemy</text>
<text text-anchor="start" x="356" y="-800.5" font-family="Helvetica,sans-Serif" font-size="10.00">+ WasCriticalHit</text>
<polyline fill="none" stroke="black" points="348,-793.5 464,-793.5 "/>
<text text-anchor="start" x="356" y="-781.5" font-family="Helvetica,sans-Serif" font-size="10.00">+ BattleManager()</text>
<text text-anchor="start" x="356" y="-770.5" font-family="Helvetica,sans-Serif" font-size="10.00">+ playerFirst()</text>
<text text-anchor="start" x="356" y="-759.5" font-family="Helvetica,sans-Serif" font-size="10.00">+ switchPlayers()</text>
<text text-anchor="start" x="356" y="-748.5" font-family="Helvetica,sans-Serif" font-size="10.00">+ isCriticalHit()</text>
<text text-anchor="start" x="356" y="-737.5" font-family="Helvetica,sans-Serif" font-size="10.00">+ ranAway()</text>
<text text-anchor="start" x="356" y="-726.5" font-family="Helvetica,sans-Serif" font-size="10.00">+ damageCalculation()</text>
<text text-anchor="start" x="356" y="-715.5" font-family="Helvetica,sans-Serif" font-size="10.00">+ enemyMove()</text>
<text text-anchor="start" x="356" y="-704.5" font-family="Helvetica,sans-Serif" font-size="10.00">+ enemySpecialMove()</text>
<text text-anchor="start" x="356" y="-693.5" font-family="Helvetica,sans-Serif" font-size="10.00">+ battleWon()</text>
<text text-anchor="start" x="356" y="-682.5" font-family="Helvetica,sans-Serif" font-size="10.00">+ playerFainted()</text>
<text text-anchor="start" x="356" y="-671.5" font-family="Helvetica,sans-Serif" font-size="10.00">&#45; characterFainted()</text>
</a>
</g>
</g>
<!-- Node2&#45;&gt;Node8 -->
<g id="edge15" class="edge"><title>Node2&#45;&gt;Node8</title>
<path fill="none" stroke="#404040" d="M459.425,-901.441C456.478,-895.267 453.611,-889.031 451,-883 448.523,-877.278 446.06,-871.37 443.637,-865.383"/>
<polygon fill="none" stroke="#404040" points="443.465,-864.949 437.532,-860.85 439.033,-853.797 444.966,-857.896 443.465,-864.949"/>
<text text-anchor="middle" x="467.5" y="-875" font-family="Helvetica,sans-Serif" font-size="10.00"> &#45;player</text>
</g>
<!-- Node3 -->
<g id="node2" class="node"><title>Node3</title>
<g id="a_node2"><a xlink:href="class_character.html" target="_top" xlink:title="Base abstract class for Enemy and Player to inherit from. Defines all shared variables, their constructor and their setters and getters ">
<polygon fill="none" stroke="black" points="239.5,-95.5 239.5,-273.5 334.5,-273.5 334.5,-95.5 239.5,-95.5"/>
<text text-anchor="middle" x="287" y="-261.5" font-family="Helvetica,sans-Serif" font-size="10.00">Character</text>
<polyline fill="none" stroke="black" points="239.5,-254.5 334.5,-254.5 "/>
<text text-anchor="start" x="247.5" y="-242.5" font-family="Helvetica,sans-Serif" font-size="10.00">+ Name</text>
<text text-anchor="start" x="247.5" y="-231.5" font-family="Helvetica,sans-Serif" font-size="10.00">+ Level</text>
<text text-anchor="start" x="247.5" y="-220.5" font-family="Helvetica,sans-Serif" font-size="10.00">+ Health</text>
<text text-anchor="start" x="247.5" y="-209.5" font-family="Helvetica,sans-Serif" font-size="10.00">+ Attack</text>
<text text-anchor="start" x="247.5" y="-198.5" font-family="Helvetica,sans-Serif" font-size="10.00">+ Defence</text>
<text text-anchor="start" x="247.5" y="-187.5" font-family="Helvetica,sans-Serif" font-size="10.00">+ MaximumMagic</text>
<text text-anchor="start" x="247.5" y="-176.5" font-family="Helvetica,sans-Serif" font-size="10.00">+ Magic</text>
<text text-anchor="start" x="247.5" y="-165.5" font-family="Helvetica,sans-Serif" font-size="10.00">+ Luck</text>
<text text-anchor="start" x="247.5" y="-154.5" font-family="Helvetica,sans-Serif" font-size="10.00">+ Speed</text>
<text text-anchor="start" x="247.5" y="-143.5" font-family="Helvetica,sans-Serif" font-size="10.00">+ Special1</text>
<text text-anchor="start" x="247.5" y="-132.5" font-family="Helvetica,sans-Serif" font-size="10.00">+ Special2</text>
<text text-anchor="start" x="247.5" y="-121.5" font-family="Helvetica,sans-Serif" font-size="10.00">+ Image</text>
<polyline fill="none" stroke="black" points="239.5,-114.5 334.5,-114.5 "/>
<text text-anchor="start" x="247.5" y="-102.5" font-family="Helvetica,sans-Serif" font-size="10.00"># Character()</text>
</a>
</g>
</g>
<!-- Node3&#45;&gt;Node2 -->
<g id="edge1" class="edge"><title>Node3&#45;&gt;Node2</title>
<path fill="none" stroke="midnightblue" d="M343.994,-207.959C406.485,-236.775 498,-293.195 498,-376.5 498,-760 498,-760 498,-760 498,-807.822 495.009,-862.107 492.299,-901.483"/>
<polygon fill="none" stroke="midnightblue" points="345.171,-204.651 334.616,-203.739 342.299,-211.034 345.171,-204.651"/>
</g>
<!-- Node7 -->
<g id="node6" class="node"><title>Node7</title>
<g id="a_node6"><a xlink:href="class_character_move.html" target="_top" xlink:title="Astract base class for character moves ">
<polygon fill="none" stroke="black" points="235,-460.5 235,-539.5 321,-539.5 321,-460.5 235,-460.5"/>
<text text-anchor="middle" x="278" y="-527.5" font-family="Helvetica,sans-Serif" font-size="10.00">CharacterMove</text>
<polyline fill="none" stroke="black" points="235,-520.5 321,-520.5 "/>
<text text-anchor="start" x="243" y="-508.5" font-family="Helvetica,sans-Serif" font-size="10.00">+ User</text>
<text text-anchor="start" x="243" y="-497.5" font-family="Helvetica,sans-Serif" font-size="10.00">+ Target</text>
<text text-anchor="start" x="243" y="-486.5" font-family="Helvetica,sans-Serif" font-size="10.00">+ Text</text>
<polyline fill="none" stroke="black" points="235,-479.5 321,-479.5 "/>
<text text-anchor="start" x="243" y="-467.5" font-family="Helvetica,sans-Serif" font-size="10.00">+ performMove()</text>
</a>
</g>
</g>
<!-- Node3&#45;&gt;Node7 -->
<g id="edge7" class="edge"><title>Node3&#45;&gt;Node7</title>
<path fill="none" stroke="#404040" d="M284.467,-273.722C282.849,-330.077 280.809,-401.145 279.458,-448.225"/>
<polygon fill="none" stroke="#404040" points="279.457,-448.249 283.283,-454.362 279.113,-460.244 275.286,-454.132 279.457,-448.249"/>
<text text-anchor="middle" x="300" y="-380.5" font-family="Helvetica,sans-Serif" font-size="10.00"> #target</text>
<text text-anchor="middle" x="300" y="-369.5" font-family="Helvetica,sans-Serif" font-size="10.00">#user</text>
</g>
<!-- Node9 -->
<g id="node8" class="node"><title>Node9</title>
<g id="a_node8"><a xlink:href="class_enemy.html" target="_top" xlink:title="Defines an AI controller enemy to fight in battle scenes">
<polygon fill="none" stroke="black" points="253.5,-0.5 253.5,-57.5 320.5,-57.5 320.5,-0.5 253.5,-0.5"/>
<text text-anchor="middle" x="287" y="-45.5" font-family="Helvetica,sans-Serif" font-size="10.00">Enemy</text>
<polyline fill="none" stroke="black" points="253.5,-38.5 320.5,-38.5 "/>
<text text-anchor="start" x="261.5" y="-26.5" font-family="Helvetica,sans-Serif" font-size="10.00">+ ExpGiven</text>
<polyline fill="none" stroke="black" points="253.5,-19.5 320.5,-19.5 "/>
<text text-anchor="start" x="261.5" y="-7.5" font-family="Helvetica,sans-Serif" font-size="10.00">+ Enemy()</text>
</a>
</g>
</g>
<!-- Node3&#45;&gt;Node9 -->
<g id="edge11" class="edge"><title>Node3&#45;&gt;Node9</title>
<path fill="none" stroke="midnightblue" d="M287,-85.0224C287,-75.0956 287,-65.6973 287,-57.5701"/>
<polygon fill="none" stroke="midnightblue" points="283.5,-85.0978 287,-95.0978 290.5,-85.0979 283.5,-85.0978"/>
</g>
<!-- Node4 -->
<g id="node3" class="node"><title>Node4</title>
<polygon fill="none" stroke="#bfbfbf" points="145.5,-1210.5 145.5,-1267.5 186.5,-1267.5 186.5,-1210.5 145.5,-1210.5"/>
<text text-anchor="middle" x="166" y="-1255.5" font-family="Helvetica,sans-Serif" font-size="10.00">string</text>
<polyline fill="none" stroke="#bfbfbf" points="145.5,-1248.5 186.5,-1248.5 "/>
<text text-anchor="middle" x="166" y="-1236.5" font-family="Helvetica,sans-Serif" font-size="10.00"> </text>
<polyline fill="none" stroke="#bfbfbf" points="145.5,-1229.5 186.5,-1229.5 "/>
<text text-anchor="middle" x="166" y="-1217.5" font-family="Helvetica,sans-Serif" font-size="10.00"> </text>
</g>
<!-- Node4&#45;&gt;Node3 -->
<g id="edge2" class="edge"><title>Node4&#45;&gt;Node3</title>
<path fill="none" stroke="#404040" d="M145.312,-1232.94C100.812,-1220.68 0,-1184.97 0,-1113 0,-1113 0,-1113 0,-376.5 0,-268.144 143.534,-217.522 227.59,-197.167"/>
<polygon fill="none" stroke="#404040" points="227.6,-197.165 232.533,-191.905 239.286,-194.436 234.352,-199.696 227.6,-197.165"/>
<text text-anchor="middle" x="25.5" y="-762" font-family="Helvetica,sans-Serif" font-size="10.00"> #image_ref</text>
<text text-anchor="middle" x="25.5" y="-751" font-family="Helvetica,sans-Serif" font-size="10.00">#name</text>
</g>
<!-- Node6 -->
<g id="node5" class="node"><title>Node6</title>
<g id="a_node5"><a xlink:href="class_special_move.html" target="_top" xlink:title="Special move abstract base class that expands upon CharacterMove, adding magic properties ...">
<polygon fill="none" stroke="black" points="153,-332.5 153,-422.5 251,-422.5 251,-332.5 153,-332.5"/>
<text text-anchor="middle" x="202" y="-410.5" font-family="Helvetica,sans-Serif" font-size="10.00">SpecialMove</text>
<polyline fill="none" stroke="black" points="153,-403.5 251,-403.5 "/>
<text text-anchor="start" x="161" y="-391.5" font-family="Helvetica,sans-Serif" font-size="10.00">+ Magic</text>
<text text-anchor="start" x="161" y="-380.5" font-family="Helvetica,sans-Serif" font-size="10.00">+ Desc</text>
<polyline fill="none" stroke="black" points="153,-373.5 251,-373.5 "/>
<text text-anchor="start" x="161" y="-361.5" font-family="Helvetica,sans-Serif" font-size="10.00">+ setUp()</text>
<text text-anchor="start" x="161" y="-350.5" font-family="Helvetica,sans-Serif" font-size="10.00">+ decreaseMagic()</text>
<text text-anchor="start" x="161" y="-339.5" font-family="Helvetica,sans-Serif" font-size="10.00"># SpecialMove()</text>
</a>
</g>
</g>
<!-- Node4&#45;&gt;Node6 -->
<g id="edge16" class="edge"><title>Node4&#45;&gt;Node6</title>
<path fill="none" stroke="#404040" d="M145.382,-1222.27C119.655,-1200.69 79,-1159.27 79,-1113 79,-1113 79,-1113 79,-499 79,-460.056 110.852,-429.543 142.138,-408.965"/>
<polygon fill="none" stroke="#404040" points="142.507,-408.735 145.472,-402.161 152.68,-402.37 149.715,-408.943 142.507,-408.735"/>
<text text-anchor="middle" x="94" y="-875" font-family="Helvetica,sans-Serif" font-size="10.00"> #desc</text>
</g>
<!-- Node4&#45;&gt;Node7 -->
<g id="edge6" class="edge"><title>Node4&#45;&gt;Node7</title>
<path fill="none" stroke="#404040" d="M166,-1210.2C166,-1184.87 166,-1146.42 166,-1113 166,-1113 166,-1113 166,-758 166,-680.3 209.556,-599.564 242.344,-549.796"/>
<polygon fill="none" stroke="#404040" points="242.463,-549.617 242.49,-542.406 249.157,-539.658 249.13,-546.869 242.463,-549.617"/>
<text text-anchor="middle" x="178.5" y="-955" font-family="Helvetica,sans-Serif" font-size="10.00"> #text</text>
</g>
<!-- Node4&#45;&gt;Node8 -->
<g id="edge9" class="edge"><title>Node4&#45;&gt;Node8</title>
<path fill="none" stroke="#404040" d="M186.691,-1237.49C239.909,-1235.17 383.615,-1222.34 473,-1152 528.711,-1108.16 534.591,-1082.46 553,-1014 566.041,-965.501 572.701,-947.197 553,-901 536.664,-862.696 504.254,-829.797 474.014,-805.435"/>
<polygon fill="none" stroke="#404040" points="473.745,-805.225 466.555,-804.677 464.295,-797.829 471.485,-798.377 473.745,-805.225"/>
<text text-anchor="middle" x="589" y="-1046" font-family="Helvetica,sans-Serif" font-size="10.00"> +forceEnemyMove</text>
<text text-anchor="middle" x="589" y="-1035" font-family="Helvetica,sans-Serif" font-size="10.00">+forceCriticalHits</text>
</g>
<!-- Node11 -->
<g id="node10" class="node"><title>Node11</title>
<g id="a_node10"><a xlink:href="class_item.html" target="_top" xlink:title="Abstract class for items that can be equipped to a player, increasing some of their stats ...">
<polygon fill="none" stroke="black" points="387.5,-1072.5 387.5,-1151.5 464.5,-1151.5 464.5,-1072.5 387.5,-1072.5"/>
<text text-anchor="middle" x="426" y="-1139.5" font-family="Helvetica,sans-Serif" font-size="10.00">Item</text>
<polyline fill="none" stroke="black" points="387.5,-1132.5 464.5,-1132.5 "/>
<text text-anchor="start" x="395.5" y="-1120.5" font-family="Helvetica,sans-Serif" font-size="10.00">+ Name</text>
<text text-anchor="start" x="395.5" y="-1109.5" font-family="Helvetica,sans-Serif" font-size="10.00">+ Desc</text>
<polyline fill="none" stroke="black" points="387.5,-1102.5 464.5,-1102.5 "/>
<text text-anchor="start" x="395.5" y="-1090.5" font-family="Helvetica,sans-Serif" font-size="10.00">+ applyBuffs()</text>
<text text-anchor="start" x="395.5" y="-1079.5" font-family="Helvetica,sans-Serif" font-size="10.00">+ revertBuffs()</text>
</a>
</g>
</g>
<!-- Node4&#45;&gt;Node11 -->
<g id="edge19" class="edge"><title>Node4&#45;&gt;Node11</title>
<path fill="none" stroke="#404040" d="M186.837,-1227.98C227.62,-1208.38 318.986,-1164.45 376.243,-1136.92"/>
<polygon fill="none" stroke="#404040" points="376.4,-1136.85 380.074,-1130.64 387.215,-1131.65 383.54,-1137.85 376.4,-1136.85"/>
<text text-anchor="middle" x="319" y="-1184" font-family="Helvetica,sans-Serif" font-size="10.00"> #desc</text>
<text text-anchor="middle" x="319" y="-1173" font-family="Helvetica,sans-Serif" font-size="10.00">#name</text>
</g>
<!-- Node5 -->
<g id="node4" class="node"><title>Node5</title>
<polygon fill="none" stroke="#bfbfbf" points="260.5,-1083.5 260.5,-1140.5 289.5,-1140.5 289.5,-1083.5 260.5,-1083.5"/>
<text text-anchor="middle" x="275" y="-1128.5" font-family="Helvetica,sans-Serif" font-size="10.00">int</text>
<polyline fill="none" stroke="#bfbfbf" points="260.5,-1121.5 289.5,-1121.5 "/>
<text text-anchor="middle" x="275" y="-1109.5" font-family="Helvetica,sans-Serif" font-size="10.00"> </text>
<polyline fill="none" stroke="#bfbfbf" points="260.5,-1102.5 289.5,-1102.5 "/>
<text text-anchor="middle" x="275" y="-1090.5" font-family="Helvetica,sans-Serif" font-size="10.00"> </text>
</g>
<!-- Node5&#45;&gt;Node2 -->
<g id="edge20" class="edge"><title>Node5&#45;&gt;Node2</title>
<path fill="none" stroke="#404040" d="M289.694,-1105.57C311.98,-1096.9 355.009,-1078.37 386,-1054 396.155,-1046.01 395.921,-1041.19 405,-1032 410.634,-1026.3 416.632,-1020.5 422.727,-1014.8"/>
<polygon fill="none" stroke="#404040" points="422.873,-1014.66 424.572,-1007.65 431.694,-1006.53 429.996,-1013.54 422.873,-1014.66"/>
<text text-anchor="middle" x="442.5" y="-1046" font-family="Helvetica,sans-Serif" font-size="10.00"> &#45;expToNextLevel</text>
<text text-anchor="middle" x="442.5" y="-1035" font-family="Helvetica,sans-Serif" font-size="10.00">&#45;exp</text>
</g>
<!-- Node5&#45;&gt;Node3 -->
<g id="edge3" class="edge"><title>Node5&#45;&gt;Node3</title>
<path fill="none" stroke="#404040" d="M273.937,-1083.28C269.873,-974.172 256.304,-579.305 272,-558 288.009,-536.27 313.991,-561.73 330,-540 351.089,-511.374 331.248,-495.534 330,-460 327.999,-403.006 329.473,-388.396 321,-332 318.728,-316.877 315.716,-301.005 312.421,-285.519"/>
<polygon fill="none" stroke="#404040" points="312.416,-285.495 307.227,-280.487 309.854,-273.771 315.043,-278.779 312.416,-285.495"/>
<text text-anchor="middle" x="309.5" y="-638" font-family="Helvetica,sans-Serif" font-size="10.00"> #speed</text>
<text text-anchor="middle" x="309.5" y="-627" font-family="Helvetica,sans-Serif" font-size="10.00">#luck</text>
<text text-anchor="middle" x="309.5" y="-616" font-family="Helvetica,sans-Serif" font-size="10.00">#health</text>
<text text-anchor="middle" x="309.5" y="-605" font-family="Helvetica,sans-Serif" font-size="10.00">#magic</text>
<text text-anchor="middle" x="309.5" y="-594" font-family="Helvetica,sans-Serif" font-size="10.00">#maximumMagic</text>
<text text-anchor="middle" x="309.5" y="-583" font-family="Helvetica,sans-Serif" font-size="10.00">#attack</text>
<text text-anchor="middle" x="309.5" y="-572" font-family="Helvetica,sans-Serif" font-size="10.00">#defence</text>
<text text-anchor="middle" x="309.5" y="-561" font-family="Helvetica,sans-Serif" font-size="10.00">#level</text>
</g>
<!-- Node5&#45;&gt;Node6 -->
<g id="edge17" class="edge"><title>Node5&#45;&gt;Node6</title>
<path fill="none" stroke="#404040" d="M267.786,-1083.25C265.482,-1073.98 263.011,-1063.57 261,-1054 242.449,-965.688 236.071,-943.676 226,-854 209.057,-703.137 204.072,-523.995 202.607,-434.803"/>
<polygon fill="none" stroke="#404040" points="202.604,-434.567 198.512,-428.629 202.42,-422.569 206.511,-428.506 202.604,-434.567"/>
<text text-anchor="middle" x="243.5" y="-756.5" font-family="Helvetica,sans-Serif" font-size="10.00"> #magic</text>
</g>
<!-- Node5&#45;&gt;Node8 -->
<g id="edge13" class="edge"><title>Node5&#45;&gt;Node8</title>
<path fill="none" stroke="#404040" d="M289.575,-1095.44C305.85,-1077.25 331.885,-1045.59 347,-1014 359.658,-987.542 374.617,-922.797 386.305,-865.3"/>
<polygon fill="none" stroke="#404040" points="386.306,-865.299 383.568,-858.628 388.673,-853.535 391.411,-860.206 386.306,-865.299"/>
<text text-anchor="middle" x="398.5" y="-955" font-family="Helvetica,sans-Serif" font-size="10.00"> +money</text>
</g>
<!-- Node5&#45;&gt;Node9 -->
<g id="edge12" class="edge"><title>Node5&#45;&gt;Node9</title>
<path fill="none" stroke="#404040" d="M260.176,-1105.23C231.634,-1093.23 169.606,-1062.56 144,-1014 90.7931,-913.09 125,-615.078 125,-501 125,-501 125,-501 125,-183.5 125,-118.576 194.408,-72.8786 242.361,-49.0544"/>
<polygon fill="none" stroke="#404040" points="242.612,-48.9341 246.294,-42.7337 253.433,-43.7476 249.752,-49.948 242.612,-48.9341"/>
<text text-anchor="middle" x="148" y="-497.5" font-family="Helvetica,sans-Serif" font-size="10.00"> &#45;expGiven</text>
</g>
<!-- Node6&#45;&gt;Node3 -->
<g id="edge4" class="edge"><title>Node6&#45;&gt;Node3</title>
<path fill="none" stroke="#404040" d="M213.666,-332.459C217.667,-319.245 222.533,-304.853 228,-292 229.878,-287.586 231.886,-283.117 233.988,-278.638"/>
<polygon fill="none" stroke="#404040" points="234.147,-278.309 233.165,-271.165 239.381,-267.51 240.364,-274.654 234.147,-278.309"/>
<text text-anchor="middle" x="250.5" y="-306" font-family="Helvetica,sans-Serif" font-size="10.00"> #special1</text>
<text text-anchor="middle" x="250.5" y="-295" font-family="Helvetica,sans-Serif" font-size="10.00">#special2</text>
</g>
<!-- Node7&#45;&gt;Node6 -->
<g id="edge5" class="edge"><title>Node7&#45;&gt;Node6</title>
<path fill="none" stroke="midnightblue" d="M248.109,-451.607C242.094,-442.07 235.795,-432.083 229.853,-422.661"/>
<polygon fill="none" stroke="midnightblue" points="245.24,-453.619 253.535,-460.21 251.16,-449.884 245.24,-453.619"/>
</g>
<!-- Node8&#45;&gt;Node7 -->
<g id="edge8" class="edge"><title>Node8&#45;&gt;Node7</title>
<path fill="none" stroke="#404040" d="M379.042,-664.239C377.321,-658.071 375.627,-651.949 374,-646 363.335,-607.007 373.213,-591.775 351,-558 345.412,-549.503 338.128,-541.725 330.329,-534.83"/>
<polygon fill="none" stroke="#404040" points="330.269,-534.78 323.095,-534.053 321.007,-527.15 328.181,-527.878 330.269,-534.78"/>
<text text-anchor="middle" x="397" y="-599.5" font-family="Helvetica,sans-Serif" font-size="10.00"> #manager</text>
</g>
<!-- Node9&#45;&gt;Node8 -->
<g id="edge10" class="edge"><title>Node9&#45;&gt;Node8</title>
<path fill="none" stroke="#404040" d="M320.725,-46.3739C364.124,-70.0852 434,-118.374 434,-183.5 434,-501 434,-501 434,-501 434,-550.852 428.729,-605.826 422.761,-652.092"/>
<polygon fill="none" stroke="#404040" points="422.723,-652.381 425.9,-658.854 421.147,-664.277 417.97,-657.804 422.723,-652.381"/>
<text text-anchor="middle" x="452" y="-375" font-family="Helvetica,sans-Serif" font-size="10.00"> &#45;enemy</text>
</g>
<!-- Node10 -->
<g id="node9" class="node"><title>Node10</title>
<polygon fill="none" stroke="#bfbfbf" points="303.5,-929 303.5,-986 338.5,-986 338.5,-929 303.5,-929"/>
<text text-anchor="middle" x="321" y="-974" font-family="Helvetica,sans-Serif" font-size="10.00">bool</text>
<polyline fill="none" stroke="#bfbfbf" points="303.5,-967 338.5,-967 "/>
<text text-anchor="middle" x="321" y="-955" font-family="Helvetica,sans-Serif" font-size="10.00"> </text>
<polyline fill="none" stroke="#bfbfbf" points="303.5,-948 338.5,-948 "/>
<text text-anchor="middle" x="321" y="-936" font-family="Helvetica,sans-Serif" font-size="10.00"> </text>
</g>
<!-- Node10&#45;&gt;Node8 -->
<g id="edge14" class="edge"><title>Node10&#45;&gt;Node8</title>
<path fill="none" stroke="#404040" d="M313.495,-928.721C310.276,-911.857 308.554,-890.156 315,-872 320.789,-855.695 330.078,-840.035 340.556,-825.861"/>
<polygon fill="none" stroke="#404040" points="340.62,-825.779 341.134,-818.586 347.972,-816.295 347.457,-823.488 340.62,-825.779"/>
<text text-anchor="middle" x="348" y="-875" font-family="Helvetica,sans-Serif" font-size="10.00"> &#45;wasCriticalHit</text>
</g>
<!-- Node11&#45;&gt;Node2 -->
<g id="edge18" class="edge"><title>Node11&#45;&gt;Node2</title>
<path fill="none" stroke="#404040" d="M464.645,-1081.25C472.4,-1073.29 479.53,-1064.06 484,-1054 487.884,-1045.26 490.221,-1035.61 491.511,-1025.9"/>
<polygon fill="none" stroke="#404040" points="491.539,-1025.6 488.097,-1019.26 492.623,-1013.65 496.065,-1019.98 491.539,-1025.6"/>
<text text-anchor="middle" x="503.5" y="-1040.5" font-family="Helvetica,sans-Serif" font-size="10.00"> &#45;item</text>
</g>
</g>
</svg>
        <g id="navigator" transform="translate(0 0)" fill="#404254">
                <rect fill="#f2f5e9" fill-opacity="0.5" stroke="#606060" stroke-width=".5" x="0" y="0" width="60" height="60"/>
                <use id="zoomplus" xlink:href="#zoomPlus" x="17" y="9" onmousedown="handleZoom(evt,'in')"/>
                <use id="zoomminus" xlink:href="#zoomMin" x="42" y="9" onmousedown="handleZoom(evt,'out')"/>
                <use id="reset" xlink:href="#resetDef" x="30" y="36" onmousedown="handleReset()"/>
                <g id="arrowUp" xlink:href="#dirArrow" transform="translate(30 24)" onmousedown="handlePan(0,-1)">
                  <use xlink:href="#rim" fill="#404040">
                        <set attributeName="fill" to="#808080" begin="arrowUp.mouseover" end="arrowUp.mouseout"/>
                  </use>
                  <path fill="none" stroke="white" stroke-width="1.5" d="M0,-3.0v7 M-2.5,-0.5L0,-3.0L2.5,-0.5"/>
                </g>
                <g id="arrowRight" xlink:href="#dirArrow" transform="rotate(90) translate(36 -43)" onmousedown="handlePan(1,0)">
                  <use xlink:href="#rim" fill="#404040">
                        <set attributeName="fill" to="#808080" begin="arrowRight.mouseover" end="arrowRight.mouseout"/>
                  </use>
                  <path fill="none" stroke="white" stroke-width="1.5" d="M0,-3.0v7 M-2.5,-0.5L0,-3.0L2.5,-0.5"/>
                </g>
                <g id="arrowDown" xlink:href="#dirArrow" transform="rotate(180) translate(-30 -48)" onmousedown="handlePan(0,1)">
                  <use xlink:href="#rim" fill="#404040">
                        <set attributeName="fill" to="#808080" begin="arrowDown.mouseover" end="arrowDown.mouseout"/>
                  </use>
                  <path fill="none" stroke="white" stroke-width="1.5" d="M0,-3.0v7 M-2.5,-0.5L0,-3.0L2.5,-0.5"/>
                </g>
                <g id="arrowLeft" xlink:href="#dirArrow" transform="rotate(270) translate(-36 17)" onmousedown="handlePan(-1,0)">
                  <use xlink:href="#rim" fill="#404040">
                        <set attributeName="fill" to="#808080" begin="arrowLeft.mouseover" end="arrowLeft.mouseout"/>
                  </use>
                  <path fill="none" stroke="white" stroke-width="1.5" d="M0,-3.0v7 M-2.5,-0.5L0,-3.0L2.5,-0.5"/>
                </g>
        </g>
        <svg viewBox="0 0 15 15" width="100%" height="30px" preserveAspectRatio="xMaxYMin meet">
         <g id="arrow_out" transform="scale(0.3 0.3)">
          <a xlink:href="class_player__coll__graph_org.svg" target="_base">
           <rect id="button" ry="5" rx="5" y="6" x="6" height="38" width="38"
                fill="#f2f5e9" fill-opacity="0.5" stroke="#606060" stroke-width="1.0"/>
           <path id="arrow"
             d="M 11.500037,31.436501 C 11.940474,20.09759 22.043105,11.32322 32.158766,21.979434 L 37.068811,17.246167 C 37.068811,17.246167 37.088388,32 37.088388,32 L 22.160133,31.978069 C 22.160133,31.978069 26.997745,27.140456 26.997745,27.140456 C 18.528582,18.264221 13.291696,25.230495 11.500037,31.436501 z"
             style="fill:#404040;"/>
          </a>
         </g>
        </svg>
</svg>
