<?xml version="1.0" encoding="UTF-8" standalone="no"?>
<!DOCTYPE svg PUBLIC "-//W3C//DTD SVG 1.1//EN"
 "http://www.w3.org/Graphics/SVG/1.1/DTD/svg11.dtd">
<!-- Generated by graphviz version 2.38.0 (20140413.2041)
 -->
<!-- Title: LowerDefence Pages: 1 -->
<svg width="727pt" height="1045pt"
 viewBox="0.00 0.00 727.00 1045.00" xmlns="http://www.w3.org/2000/svg" xmlns:xlink="http://www.w3.org/1999/xlink">
<g id="graph0" class="graph" transform="scale(1 1) rotate(0) translate(4 1041)">
<title>LowerDefence</title>
<!-- Node3 -->
<g id="node1" class="node"><title>Node3</title>
<polygon fill="#bfbfbf" stroke="black" points="454,-590.5 454,-658.5 546,-658.5 546,-590.5 454,-590.5"/>
<text text-anchor="middle" x="500" y="-646.5" font-family="Helvetica,sans-Serif" font-size="10.00">LowerDefence</text>
<polyline fill="none" stroke="black" points="454,-639.5 546,-639.5 "/>
<text text-anchor="middle" x="500" y="-627.5" font-family="Helvetica,sans-Serif" font-size="10.00"> </text>
<polyline fill="none" stroke="black" points="454,-620.5 546,-620.5 "/>
<text text-anchor="start" x="462" y="-608.5" font-family="Helvetica,sans-Serif" font-size="10.00">+ LowerDefence()</text>
<text text-anchor="start" x="462" y="-597.5" font-family="Helvetica,sans-Serif" font-size="10.00">+ performMove()</text>
</g>
<!-- Node4 -->
<g id="node2" class="node"><title>Node4</title>
<g id="a_node2"><a xlink:href="class_special_move.html" target="_top" xlink:title="Special move abstract base class that expands upon CharacterMove, adding magic properties ...">
<polygon fill="none" stroke="black" points="401,-830.5 401,-920.5 499,-920.5 499,-830.5 401,-830.5"/>
<text text-anchor="middle" x="450" y="-908.5" font-family="Helvetica,sans-Serif" font-size="10.00">SpecialMove</text>
<polyline fill="none" stroke="black" points="401,-901.5 499,-901.5 "/>
<text text-anchor="start" x="409" y="-889.5" font-family="Helvetica,sans-Serif" font-size="10.00">+ Magic</text>
<text text-anchor="start" x="409" y="-878.5" font-family="Helvetica,sans-Serif" font-size="10.00">+ Desc</text>
<polyline fill="none" stroke="black" points="401,-871.5 499,-871.5 "/>
<text text-anchor="start" x="409" y="-859.5" font-family="Helvetica,sans-Serif" font-size="10.00">+ setUp()</text>
<text text-anchor="start" x="409" y="-848.5" font-family="Helvetica,sans-Serif" font-size="10.00">+ decreaseMagic()</text>
<text text-anchor="start" x="409" y="-837.5" font-family="Helvetica,sans-Serif" font-size="10.00"># SpecialMove()</text>
</a>
</g>
</g>
<!-- Node4&#45;&gt;Node3 -->
<g id="edge1" class="edge"><title>Node4&#45;&gt;Node3</title>
<path fill="none" stroke="midnightblue" d="M460.861,-820.413C470.759,-771.122 485.062,-699.893 493.357,-658.581"/>
<polygon fill="none" stroke="midnightblue" points="457.419,-819.777 458.881,-830.271 464.282,-821.156 457.419,-819.777"/>
</g>
<!-- Node7 -->
<g id="node5" class="node"><title>Node7</title>
<g id="a_node5"><a xlink:href="class_character.html" target="_top" xlink:title="Base abstract class for Enemy and Player to inherit from. Defines all shared variables, their constructor and their setters and getters ">
<polygon fill="none" stroke="black" points="196.5,-535.5 196.5,-713.5 291.5,-713.5 291.5,-535.5 196.5,-535.5"/>
<text text-anchor="middle" x="244" y="-701.5" font-family="Helvetica,sans-Serif" font-size="10.00">Character</text>
<polyline fill="none" stroke="black" points="196.5,-694.5 291.5,-694.5 "/>
<text text-anchor="start" x="204.5" y="-682.5" font-family="Helvetica,sans-Serif" font-size="10.00">+ Name</text>
<text text-anchor="start" x="204.5" y="-671.5" font-family="Helvetica,sans-Serif" font-size="10.00">+ Level</text>
<text text-anchor="start" x="204.5" y="-660.5" font-family="Helvetica,sans-Serif" font-size="10.00">+ Health</text>
<text text-anchor="start" x="204.5" y="-649.5" font-family="Helvetica,sans-Serif" font-size="10.00">+ Attack</text>
<text text-anchor="start" x="204.5" y="-638.5" font-family="Helvetica,sans-Serif" font-size="10.00">+ Defence</text>
<text text-anchor="start" x="204.5" y="-627.5" font-family="Helvetica,sans-Serif" font-size="10.00">+ MaximumMagic</text>
<text text-anchor="start" x="204.5" y="-616.5" font-family="Helvetica,sans-Serif" font-size="10.00">+ Magic</text>
<text text-anchor="start" x="204.5" y="-605.5" font-family="Helvetica,sans-Serif" font-size="10.00">+ Luck</text>
<text text-anchor="start" x="204.5" y="-594.5" font-family="Helvetica,sans-Serif" font-size="10.00">+ Speed</text>
<text text-anchor="start" x="204.5" y="-583.5" font-family="Helvetica,sans-Serif" font-size="10.00">+ Special1</text>
<text text-anchor="start" x="204.5" y="-572.5" font-family="Helvetica,sans-Serif" font-size="10.00">+ Special2</text>
<text text-anchor="start" x="204.5" y="-561.5" font-family="Helvetica,sans-Serif" font-size="10.00">+ Image</text>
<polyline fill="none" stroke="black" points="196.5,-554.5 291.5,-554.5 "/>
<text text-anchor="start" x="204.5" y="-542.5" font-family="Helvetica,sans-Serif" font-size="10.00"># Character()</text>
</a>
</g>
</g>
<!-- Node4&#45;&gt;Node7 -->
<g id="edge7" class="edge"><title>Node4&#45;&gt;Node7</title>
<path fill="none" stroke="#404040" d="M400.8,-851.228C384.239,-843.882 365.516,-836.099 348,-830 318.476,-819.719 301.341,-834.846 280,-812 276.656,-808.421 268.66,-767.982 261.051,-725.673"/>
<polygon fill="none" stroke="#404040" points="261.027,-725.532 256.035,-720.328 258.92,-713.719 263.911,-718.923 261.027,-725.532"/>
<text text-anchor="middle" x="302.5" y="-775" font-family="Helvetica,sans-Serif" font-size="10.00"> #special1</text>
<text text-anchor="middle" x="302.5" y="-764" font-family="Helvetica,sans-Serif" font-size="10.00">#special2</text>
</g>
<!-- Node5 -->
<g id="node3" class="node"><title>Node5</title>
<g id="a_node3"><a xlink:href="class_character_move.html" target="_top" xlink:title="Astract base class for character moves ">
<polygon fill="none" stroke="black" points="358,-0.5 358,-79.5 444,-79.5 444,-0.5 358,-0.5"/>
<text text-anchor="middle" x="401" y="-67.5" font-family="Helvetica,sans-Serif" font-size="10.00">CharacterMove</text>
<polyline fill="none" stroke="black" points="358,-60.5 444,-60.5 "/>
<text text-anchor="start" x="366" y="-48.5" font-family="Helvetica,sans-Serif" font-size="10.00">+ User</text>
<text text-anchor="start" x="366" y="-37.5" font-family="Helvetica,sans-Serif" font-size="10.00">+ Target</text>
<text text-anchor="start" x="366" y="-26.5" font-family="Helvetica,sans-Serif" font-size="10.00">+ Text</text>
<polyline fill="none" stroke="black" points="358,-19.5 444,-19.5 "/>
<text text-anchor="start" x="366" y="-7.5" font-family="Helvetica,sans-Serif" font-size="10.00">+ performMove()</text>
</a>
</g>
</g>
<!-- Node5&#45;&gt;Node4 -->
<g id="edge2" class="edge"><title>Node5&#45;&gt;Node4</title>
<path fill="none" stroke="midnightblue" d="M411.526,-90C418.359,-126.052 426,-176.348 426,-221 426,-512.5 426,-512.5 426,-512.5 426,-627.291 438.164,-762.108 445.172,-830.26"/>
<polygon fill="none" stroke="midnightblue" points="414.879,-88.907 409.534,-79.7592 408.007,-90.2435 414.879,-88.907"/>
</g>
<!-- Node6 -->
<g id="node4" class="node"><title>Node6</title>
<polygon fill="none" stroke="#bfbfbf" points="429.5,-979.5 429.5,-1036.5 470.5,-1036.5 470.5,-979.5 429.5,-979.5"/>
<text text-anchor="middle" x="450" y="-1024.5" font-family="Helvetica,sans-Serif" font-size="10.00">string</text>
<polyline fill="none" stroke="#bfbfbf" points="429.5,-1017.5 470.5,-1017.5 "/>
<text text-anchor="middle" x="450" y="-1005.5" font-family="Helvetica,sans-Serif" font-size="10.00"> </text>
<polyline fill="none" stroke="#bfbfbf" points="429.5,-998.5 470.5,-998.5 "/>
<text text-anchor="middle" x="450" y="-986.5" font-family="Helvetica,sans-Serif" font-size="10.00"> </text>
</g>
<!-- Node6&#45;&gt;Node4 -->
<g id="edge20" class="edge"><title>Node6&#45;&gt;Node4</title>
<path fill="none" stroke="#404040" d="M450,-979.324C450,-965.731 450,-948.837 450,-932.696"/>
<polygon fill="none" stroke="#404040" points="450,-932.568 446,-926.568 450,-920.568 454,-926.568 450,-932.568"/>
<text text-anchor="middle" x="465" y="-947.5" font-family="Helvetica,sans-Serif" font-size="10.00"> #desc</text>
</g>
<!-- Node6&#45;&gt;Node5 -->
<g id="edge3" class="edge"><title>Node6&#45;&gt;Node5</title>
<path fill="none" stroke="#404040" d="M470.803,-1005.65C529.809,-1000.57 694,-977.382 694,-876.5 694,-876.5 694,-876.5 694,-221 694,-110.61 541.141,-65.7809 456.24,-49.3953"/>
<polygon fill="none" stroke="#404040" points="456.034,-49.3573 449.408,-52.2021 444.233,-47.1797 450.859,-44.3349 456.034,-49.3573"/>
<text text-anchor="middle" x="706.5" y="-509" font-family="Helvetica,sans-Serif" font-size="10.00"> #text</text>
</g>
<!-- Node6&#45;&gt;Node7 -->
<g id="edge5" class="edge"><title>Node6&#45;&gt;Node7</title>
<path fill="none" stroke="#404040" d="M429.292,-1006.28C398.258,-1004.07 339.832,-995.277 307,-961 265.233,-917.396 288.553,-887.773 271,-830 268.549,-821.931 266.815,-820.235 265,-812 258.921,-784.421 254.552,-754.138 251.43,-726.144"/>
<polygon fill="none" stroke="#404040" points="251.395,-725.816 246.783,-720.273 250.125,-713.883 254.738,-719.426 251.395,-725.816"/>
<text text-anchor="middle" x="309.5" y="-878.5" font-family="Helvetica,sans-Serif" font-size="10.00"> #image_ref</text>
<text text-anchor="middle" x="309.5" y="-867.5" font-family="Helvetica,sans-Serif" font-size="10.00">#name</text>
</g>
<!-- Node9 -->
<g id="node7" class="node"><title>Node9</title>
<g id="a_node7"><a xlink:href="class_battle_manager.html" target="_top" xlink:title="Holds current Player and Enemy objects in battle and provides functions for MainBattle and other obje...">
<polygon fill="none" stroke="black" points="124,-127.5 124,-316.5 240,-316.5 240,-127.5 124,-127.5"/>
<text text-anchor="middle" x="182" y="-304.5" font-family="Helvetica,sans-Serif" font-size="10.00">BattleManager</text>
<polyline fill="none" stroke="black" points="124,-297.5 240,-297.5 "/>
<text text-anchor="start" x="132" y="-285.5" font-family="Helvetica,sans-Serif" font-size="10.00">+ Player</text>
<text text-anchor="start" x="132" y="-274.5" font-family="Helvetica,sans-Serif" font-size="10.00">+ Enemy</text>
<text text-anchor="start" x="132" y="-263.5" font-family="Helvetica,sans-Serif" font-size="10.00">+ WasCriticalHit</text>
<polyline fill="none" stroke="black" points="124,-256.5 240,-256.5 "/>
<text text-anchor="start" x="132" y="-244.5" font-family="Helvetica,sans-Serif" font-size="10.00">+ BattleManager()</text>
<text text-anchor="start" x="132" y="-233.5" font-family="Helvetica,sans-Serif" font-size="10.00">+ playerFirst()</text>
<text text-anchor="start" x="132" y="-222.5" font-family="Helvetica,sans-Serif" font-size="10.00">+ switchPlayers()</text>
<text text-anchor="start" x="132" y="-211.5" font-family="Helvetica,sans-Serif" font-size="10.00">+ isCriticalHit()</text>
<text text-anchor="start" x="132" y="-200.5" font-family="Helvetica,sans-Serif" font-size="10.00">+ ranAway()</text>
<text text-anchor="start" x="132" y="-189.5" font-family="Helvetica,sans-Serif" font-size="10.00">+ damageCalculation()</text>
<text text-anchor="start" x="132" y="-178.5" font-family="Helvetica,sans-Serif" font-size="10.00">+ enemyMove()</text>
<text text-anchor="start" x="132" y="-167.5" font-family="Helvetica,sans-Serif" font-size="10.00">+ enemySpecialMove()</text>
<text text-anchor="start" x="132" y="-156.5" font-family="Helvetica,sans-Serif" font-size="10.00">+ battleWon()</text>
<text text-anchor="start" x="132" y="-145.5" font-family="Helvetica,sans-Serif" font-size="10.00">+ playerFainted()</text>
<text text-anchor="start" x="132" y="-134.5" font-family="Helvetica,sans-Serif" font-size="10.00">&#45; characterFainted()</text>
</a>
</g>
</g>
<!-- Node6&#45;&gt;Node9 -->
<g id="edge9" class="edge"><title>Node6&#45;&gt;Node9</title>
<path fill="none" stroke="#404040" d="M470.75,-997.715C496.983,-984.733 541.117,-958.469 561,-921 601.214,-845.221 593.856,-611.484 555,-535 546.147,-517.574 354.853,-362.043 249.747,-277.369"/>
<polygon fill="none" stroke="#404040" points="249.51,-277.179 242.328,-276.531 240.163,-269.653 247.345,-270.3 249.51,-277.179"/>
<text text-anchor="middle" x="630" y="-627.5" font-family="Helvetica,sans-Serif" font-size="10.00"> +forceEnemyMove</text>
<text text-anchor="middle" x="630" y="-616.5" font-family="Helvetica,sans-Serif" font-size="10.00">+forceCriticalHits</text>
</g>
<!-- Node13 -->
<g id="node11" class="node"><title>Node13</title>
<g id="a_node11"><a xlink:href="class_item.html" target="_top" xlink:title="Abstract class for items that can be equipped to a player, increasing some of their stats ...">
<polygon fill="none" stroke="black" points="334.5,-732.5 334.5,-811.5 411.5,-811.5 411.5,-732.5 334.5,-732.5"/>
<text text-anchor="middle" x="373" y="-799.5" font-family="Helvetica,sans-Serif" font-size="10.00">Item</text>
<polyline fill="none" stroke="black" points="334.5,-792.5 411.5,-792.5 "/>
<text text-anchor="start" x="342.5" y="-780.5" font-family="Helvetica,sans-Serif" font-size="10.00">+ Name</text>
<text text-anchor="start" x="342.5" y="-769.5" font-family="Helvetica,sans-Serif" font-size="10.00">+ Desc</text>
<polyline fill="none" stroke="black" points="334.5,-762.5 411.5,-762.5 "/>
<text text-anchor="start" x="342.5" y="-750.5" font-family="Helvetica,sans-Serif" font-size="10.00">+ applyBuffs()</text>
<text text-anchor="start" x="342.5" y="-739.5" font-family="Helvetica,sans-Serif" font-size="10.00">+ revertBuffs()</text>
</a>
</g>
</g>
<!-- Node6&#45;&gt;Node13 -->
<g id="edge18" class="edge"><title>Node6&#45;&gt;Node13</title>
<path fill="none" stroke="#404040" d="M429.297,-983.637C416.131,-967.299 400.089,-944.308 392,-921 381.198,-889.875 376.439,-853.148 374.386,-824.067"/>
<polygon fill="none" stroke="#404040" points="374.362,-823.681 370.009,-817.932 373.641,-811.702 377.994,-817.451 374.362,-823.681"/>
<text text-anchor="middle" x="428" y="-953" font-family="Helvetica,sans-Serif" font-size="10.00"> #desc</text>
<text text-anchor="middle" x="428" y="-942" font-family="Helvetica,sans-Serif" font-size="10.00">#name</text>
</g>
<!-- Node7&#45;&gt;Node5 -->
<g id="edge4" class="edge"><title>Node7&#45;&gt;Node5</title>
<path fill="none" stroke="#404040" d="M276.672,-535.366C282.071,-519.68 287.4,-503.426 292,-488 334.383,-345.876 372.624,-174.779 390.436,-91.4955"/>
<polygon fill="none" stroke="#404040" points="390.466,-91.356 387.803,-84.6545 392.965,-79.6191 395.628,-86.3206 390.466,-91.356"/>
<text text-anchor="middle" x="351" y="-349" font-family="Helvetica,sans-Serif" font-size="10.00"> #target</text>
<text text-anchor="middle" x="351" y="-338" font-family="Helvetica,sans-Serif" font-size="10.00">#user</text>
</g>
<!-- Node10 -->
<g id="node8" class="node"><title>Node10</title>
<g id="a_node8"><a xlink:href="class_enemy.html" target="_top" xlink:title="Defines an AI controller enemy to fight in battle scenes">
<polygon fill="none" stroke="black" points="83.5,-403 83.5,-460 150.5,-460 150.5,-403 83.5,-403"/>
<text text-anchor="middle" x="117" y="-448" font-family="Helvetica,sans-Serif" font-size="10.00">Enemy</text>
<polyline fill="none" stroke="black" points="83.5,-441 150.5,-441 "/>
<text text-anchor="start" x="91.5" y="-429" font-family="Helvetica,sans-Serif" font-size="10.00">+ ExpGiven</text>
<polyline fill="none" stroke="black" points="83.5,-422 150.5,-422 "/>
<text text-anchor="start" x="91.5" y="-410" font-family="Helvetica,sans-Serif" font-size="10.00">+ Enemy()</text>
</a>
</g>
</g>
<!-- Node7&#45;&gt;Node10 -->
<g id="edge11" class="edge"><title>Node7&#45;&gt;Node10</title>
<path fill="none" stroke="midnightblue" d="M190.566,-543.138C170.882,-513.535 149.873,-481.94 135.368,-460.125"/>
<polygon fill="none" stroke="midnightblue" points="187.897,-545.446 196.349,-551.835 193.726,-541.57 187.897,-545.446"/>
</g>
<!-- Node12 -->
<g id="node10" class="node"><title>Node12</title>
<g id="a_node10"><a xlink:href="class_player.html" target="_top" xlink:title="Defines a playable character for use in battle scenes">
<polygon fill="none" stroke="black" points="171,-375.5 171,-487.5 283,-487.5 283,-375.5 171,-375.5"/>
<text text-anchor="middle" x="227" y="-475.5" font-family="Helvetica,sans-Serif" font-size="10.00">Player</text>
<polyline fill="none" stroke="black" points="171,-468.5 283,-468.5 "/>
<text text-anchor="start" x="179" y="-456.5" font-family="Helvetica,sans-Serif" font-size="10.00">+ Exp</text>
<text text-anchor="start" x="179" y="-445.5" font-family="Helvetica,sans-Serif" font-size="10.00">+ Item</text>
<text text-anchor="start" x="179" y="-434.5" font-family="Helvetica,sans-Serif" font-size="10.00">+ ExpToNextLevel</text>
<polyline fill="none" stroke="black" points="171,-427.5 283,-427.5 "/>
<text text-anchor="start" x="179" y="-415.5" font-family="Helvetica,sans-Serif" font-size="10.00">+ Player()</text>
<text text-anchor="start" x="179" y="-404.5" font-family="Helvetica,sans-Serif" font-size="10.00">+ gainExp()</text>
<text text-anchor="start" x="179" y="-393.5" font-family="Helvetica,sans-Serif" font-size="10.00">+ levelUp()</text>
<text text-anchor="start" x="179" y="-382.5" font-family="Helvetica,sans-Serif" font-size="10.00">&#45; setExpToNextLevel()</text>
</a>
</g>
</g>
<!-- Node7&#45;&gt;Node12 -->
<g id="edge16" class="edge"><title>Node7&#45;&gt;Node12</title>
<path fill="none" stroke="midnightblue" d="M235.231,-524.981C234.089,-512.15 232.954,-499.392 231.907,-487.635"/>
<polygon fill="none" stroke="midnightblue" points="231.774,-525.618 236.147,-535.268 238.746,-524.997 231.774,-525.618"/>
</g>
<!-- Node8 -->
<g id="node6" class="node"><title>Node8</title>
<polygon fill="none" stroke="#bfbfbf" points="121.5,-979.5 121.5,-1036.5 150.5,-1036.5 150.5,-979.5 121.5,-979.5"/>
<text text-anchor="middle" x="136" y="-1024.5" font-family="Helvetica,sans-Serif" font-size="10.00">int</text>
<polyline fill="none" stroke="#bfbfbf" points="121.5,-1017.5 150.5,-1017.5 "/>
<text text-anchor="middle" x="136" y="-1005.5" font-family="Helvetica,sans-Serif" font-size="10.00"> </text>
<polyline fill="none" stroke="#bfbfbf" points="121.5,-998.5 150.5,-998.5 "/>
<text text-anchor="middle" x="136" y="-986.5" font-family="Helvetica,sans-Serif" font-size="10.00"> </text>
</g>
<!-- Node8&#45;&gt;Node4 -->
<g id="edge21" class="edge"><title>Node8&#45;&gt;Node4</title>
<path fill="none" stroke="#404040" d="M150.704,-1001.19C185.249,-987.5 274.234,-952.047 348,-921 361.495,-915.32 375.938,-909.104 389.586,-903.166"/>
<polygon fill="none" stroke="#404040" points="389.826,-903.061 393.725,-896.995 400.825,-898.262 396.925,-904.328 389.826,-903.061"/>
<text text-anchor="middle" x="319.5" y="-947.5" font-family="Helvetica,sans-Serif" font-size="10.00"> #magic</text>
</g>
<!-- Node8&#45;&gt;Node7 -->
<g id="edge6" class="edge"><title>Node8&#45;&gt;Node7</title>
<path fill="none" stroke="#404040" d="M144.711,-979.329C159.416,-932.936 188.313,-843.218 196,-830 201.381,-820.747 207.361,-821.646 212,-812 224.77,-785.447 232.52,-754.609 237.2,-725.747"/>
<polygon fill="none" stroke="#404040" points="237.254,-725.385 234.183,-718.861 239.024,-713.516 242.095,-720.041 237.254,-725.385"/>
<text text-anchor="middle" x="233.5" y="-911.5" font-family="Helvetica,sans-Serif" font-size="10.00"> #speed</text>
<text text-anchor="middle" x="233.5" y="-900.5" font-family="Helvetica,sans-Serif" font-size="10.00">#luck</text>
<text text-anchor="middle" x="233.5" y="-889.5" font-family="Helvetica,sans-Serif" font-size="10.00">#health</text>
<text text-anchor="middle" x="233.5" y="-878.5" font-family="Helvetica,sans-Serif" font-size="10.00">#magic</text>
<text text-anchor="middle" x="233.5" y="-867.5" font-family="Helvetica,sans-Serif" font-size="10.00">#maximumMagic</text>
<text text-anchor="middle" x="233.5" y="-856.5" font-family="Helvetica,sans-Serif" font-size="10.00">#attack</text>
<text text-anchor="middle" x="233.5" y="-845.5" font-family="Helvetica,sans-Serif" font-size="10.00">#defence</text>
<text text-anchor="middle" x="233.5" y="-834.5" font-family="Helvetica,sans-Serif" font-size="10.00">#level</text>
</g>
<!-- Node8&#45;&gt;Node9 -->
<g id="edge13" class="edge"><title>Node8&#45;&gt;Node9</title>
<path fill="none" stroke="#404040" d="M121.446,-1001.3C86.3613,-986.488 0,-943.255 0,-876.5 0,-876.5 0,-876.5 0,-430.5 0,-358.848 62.0948,-300.106 113.744,-263.638"/>
<polygon fill="none" stroke="#404040" points="114.026,-263.444 116.703,-256.749 123.914,-256.644 121.237,-263.34 114.026,-263.444"/>
<text text-anchor="middle" x="19.5" y="-622" font-family="Helvetica,sans-Serif" font-size="10.00"> +money</text>
</g>
<!-- Node8&#45;&gt;Node10 -->
<g id="edge12" class="edge"><title>Node8&#45;&gt;Node10</title>
<path fill="none" stroke="#404040" d="M123.032,-979.368C106.406,-942.271 78.477,-873.863 68,-812 47.0708,-688.421 83.6065,-540.865 104.272,-471.798"/>
<polygon fill="none" stroke="#404040" points="104.3,-471.705 102.228,-464.798 107.807,-460.229 109.879,-467.136 104.3,-471.705"/>
<text text-anchor="middle" x="91" y="-769.5" font-family="Helvetica,sans-Serif" font-size="10.00"> &#45;expGiven</text>
</g>
<!-- Node8&#45;&gt;Node12 -->
<g id="edge19" class="edge"><title>Node8&#45;&gt;Node12</title>
<path fill="none" stroke="#404040" d="M135.438,-979.231C134.704,-941.411 133.458,-871.589 133,-812 132.727,-776.445 128.258,-767.238 133,-732 145.108,-642.026 158.459,-621.182 187,-535 190.891,-523.251 195.375,-510.883 199.902,-498.962"/>
<polygon fill="none" stroke="#404040" points="199.925,-498.903 198.349,-491.866 204.238,-487.705 205.814,-494.742 199.925,-498.903"/>
<text text-anchor="middle" x="170.5" y="-775" font-family="Helvetica,sans-Serif" font-size="10.00"> &#45;expToNextLevel</text>
<text text-anchor="middle" x="170.5" y="-764" font-family="Helvetica,sans-Serif" font-size="10.00">&#45;exp</text>
</g>
<!-- Node9&#45;&gt;Node5 -->
<g id="edge8" class="edge"><title>Node9&#45;&gt;Node5</title>
<path fill="none" stroke="#404040" d="M240.326,-163.884C263.236,-142.416 290.19,-118.308 316,-98 325.947,-90.1734 336.939,-82.2891 347.626,-74.9851"/>
<polygon fill="none" stroke="#404040" points="347.779,-74.8822 350.522,-68.2134 357.733,-68.181 354.99,-74.8498 347.779,-74.8822"/>
<text text-anchor="middle" x="339" y="-101" font-family="Helvetica,sans-Serif" font-size="10.00"> #manager</text>
</g>
<!-- Node10&#45;&gt;Node9 -->
<g id="edge10" class="edge"><title>Node10&#45;&gt;Node9</title>
<path fill="none" stroke="#404040" d="M125.631,-402.946C131.763,-383.373 140.419,-355.738 149.113,-327.985"/>
<polygon fill="none" stroke="#404040" points="149.115,-327.979 147.091,-321.058 152.702,-316.528 154.726,-323.449 149.115,-327.979"/>
<text text-anchor="middle" x="164" y="-343.5" font-family="Helvetica,sans-Serif" font-size="10.00"> &#45;enemy</text>
</g>
<!-- Node11 -->
<g id="node9" class="node"><title>Node11</title>
<polygon fill="none" stroke="#bfbfbf" points="30.5,-403 30.5,-460 65.5,-460 65.5,-403 30.5,-403"/>
<text text-anchor="middle" x="48" y="-448" font-family="Helvetica,sans-Serif" font-size="10.00">bool</text>
<polyline fill="none" stroke="#bfbfbf" points="30.5,-441 65.5,-441 "/>
<text text-anchor="middle" x="48" y="-429" font-family="Helvetica,sans-Serif" font-size="10.00"> </text>
<polyline fill="none" stroke="#bfbfbf" points="30.5,-422 65.5,-422 "/>
<text text-anchor="middle" x="48" y="-410" font-family="Helvetica,sans-Serif" font-size="10.00"> </text>
</g>
<!-- Node11&#45;&gt;Node9 -->
<g id="edge14" class="edge"><title>Node11&#45;&gt;Node9</title>
<path fill="none" stroke="#404040" d="M51.0378,-402.726C54.1226,-382.858 60.2054,-356.022 72,-335 83.1958,-315.045 98.8785,-296.134 114.901,-279.727"/>
<polygon fill="none" stroke="#404040" points="115.296,-279.334 116.735,-272.268 123.811,-270.879 122.372,-277.945 115.296,-279.334"/>
<text text-anchor="middle" x="105" y="-343.5" font-family="Helvetica,sans-Serif" font-size="10.00"> &#45;wasCriticalHit</text>
</g>
<!-- Node12&#45;&gt;Node9 -->
<g id="edge15" class="edge"><title>Node12&#45;&gt;Node9</title>
<path fill="none" stroke="#404040" d="M215.059,-375.439C211.916,-360.946 208.418,-344.815 204.906,-328.623"/>
<polygon fill="none" stroke="#404040" points="204.895,-328.572 199.714,-323.556 202.352,-316.845 207.533,-321.86 204.895,-328.572"/>
<text text-anchor="middle" x="226.5" y="-343.5" font-family="Helvetica,sans-Serif" font-size="10.00"> &#45;player</text>
</g>
<!-- Node13&#45;&gt;Node12 -->
<g id="edge17" class="edge"><title>Node13&#45;&gt;Node12</title>
<path fill="none" stroke="#404040" d="M365.051,-732.385C354.293,-684.437 332.615,-600.925 300,-535 293.756,-522.379 286.029,-509.616 277.961,-497.582"/>
<polygon fill="none" stroke="#404040" points="277.937,-497.547 271.239,-494.875 271.129,-487.665 277.827,-490.337 277.937,-497.547"/>
<text text-anchor="middle" x="373.5" y="-622" font-family="Helvetica,sans-Serif" font-size="10.00"> &#45;item</text>
</g>
<!-- Node14 -->
<g id="node12" class="node"><title>Node14</title>
<polygon fill="none" stroke="#bfbfbf" points="517.5,-847 517.5,-904 552.5,-904 552.5,-847 517.5,-847"/>
<text text-anchor="middle" x="535" y="-892" font-family="Helvetica,sans-Serif" font-size="10.00">float</text>
<polyline fill="none" stroke="#bfbfbf" points="517.5,-885 552.5,-885 "/>
<text text-anchor="middle" x="535" y="-873" font-family="Helvetica,sans-Serif" font-size="10.00"> </text>
<polyline fill="none" stroke="#bfbfbf" points="517.5,-866 552.5,-866 "/>
<text text-anchor="middle" x="535" y="-854" font-family="Helvetica,sans-Serif" font-size="10.00"> </text>
</g>
<!-- Node14&#45;&gt;Node3 -->
<g id="edge22" class="edge"><title>Node14&#45;&gt;Node3</title>
<path fill="none" stroke="#404040" d="M528.717,-846.906C526.391,-836.064 523.868,-823.486 522,-812 514.193,-764.006 508.016,-708.635 504.219,-670.771"/>
<polygon fill="none" stroke="#404040" points="504.2,-670.58 499.631,-665.001 503.024,-658.637 507.593,-664.216 504.2,-670.58"/>
<text text-anchor="middle" x="545" y="-769.5" font-family="Helvetica,sans-Serif" font-size="10.00"> &#45;decrease</text>
</g>
</g>
</svg>
