<?xml version="1.0" encoding="UTF-8" standalone="no"?>
<!DOCTYPE svg PUBLIC "-//W3C//DTD SVG 1.1//EN"
 "http://www.w3.org/Graphics/SVG/1.1/DTD/svg11.dtd">
<!-- Generated by graphviz version 2.38.0 (20140413.2041)
 -->
<!-- Title: HealingSpell Pages: 1 -->
<svg width="859pt" height="1028pt"
 viewBox="0.00 0.00 859.00 1028.00" xmlns="http://www.w3.org/2000/svg" xmlns:xlink="http://www.w3.org/1999/xlink">
<g id="graph0" class="graph" transform="scale(1 1) rotate(0) translate(4 1024)">
<title>HealingSpell</title>
<!-- Node3 -->
<g id="node1" class="node"><title>Node3</title>
<polygon fill="#bfbfbf" stroke="black" points="363,-607 363,-675 449,-675 449,-607 363,-607"/>
<text text-anchor="middle" x="406" y="-663" font-family="Helvetica,sans-Serif" font-size="10.00">HealingSpell</text>
<polyline fill="none" stroke="black" points="363,-656 449,-656 "/>
<text text-anchor="middle" x="406" y="-644" font-family="Helvetica,sans-Serif" font-size="10.00"> </text>
<polyline fill="none" stroke="black" points="363,-637 449,-637 "/>
<text text-anchor="start" x="371" y="-625" font-family="Helvetica,sans-Serif" font-size="10.00">+ HealingSpell()</text>
<text text-anchor="start" x="371" y="-614" font-family="Helvetica,sans-Serif" font-size="10.00">+ performMove()</text>
</g>
<!-- Node4 -->
<g id="node2" class="node"><title>Node4</title>
<g id="a_node2"><a xlink:href="class_special_move.html" target="_top" xlink:title="Special move abstract base class that expands upon CharacterMove, adding magic properties ...">
<polygon fill="none" stroke="black" points="215,-809.5 215,-899.5 313,-899.5 313,-809.5 215,-809.5"/>
<text text-anchor="middle" x="264" y="-887.5" font-family="Helvetica,sans-Serif" font-size="10.00">SpecialMove</text>
<polyline fill="none" stroke="black" points="215,-880.5 313,-880.5 "/>
<text text-anchor="start" x="223" y="-868.5" font-family="Helvetica,sans-Serif" font-size="10.00">+ Magic</text>
<text text-anchor="start" x="223" y="-857.5" font-family="Helvetica,sans-Serif" font-size="10.00">+ Desc</text>
<polyline fill="none" stroke="black" points="215,-850.5 313,-850.5 "/>
<text text-anchor="start" x="223" y="-838.5" font-family="Helvetica,sans-Serif" font-size="10.00">+ setUp()</text>
<text text-anchor="start" x="223" y="-827.5" font-family="Helvetica,sans-Serif" font-size="10.00">+ decreaseMagic()</text>
<text text-anchor="start" x="223" y="-816.5" font-family="Helvetica,sans-Serif" font-size="10.00"># SpecialMove()</text>
</a>
</g>
</g>
<!-- Node4&#45;&gt;Node3 -->
<g id="edge1" class="edge"><title>Node4&#45;&gt;Node3</title>
<path fill="none" stroke="midnightblue" d="M321.727,-805.168C321.818,-805.112 321.909,-805.056 322,-805 339.307,-794.373 350.549,-802.216 364,-787 391.6,-755.779 401.118,-707.406 404.367,-675.23"/>
<polygon fill="none" stroke="midnightblue" points="319.714,-802.303 313.284,-810.723 323.562,-808.15 319.714,-802.303"/>
</g>
<!-- Node7 -->
<g id="node5" class="node"><title>Node7</title>
<g id="a_node5"><a xlink:href="class_character.html" target="_top" xlink:title="Base abstract class for Enemy and Player to inherit from. Defines all shared variables, their constructor and their setters and getters ">
<polygon fill="none" stroke="black" points="247.5,-535.5 247.5,-746.5 342.5,-746.5 342.5,-535.5 247.5,-535.5"/>
<text text-anchor="middle" x="295" y="-734.5" font-family="Helvetica,sans-Serif" font-size="10.00">Character</text>
<polyline fill="none" stroke="black" points="247.5,-727.5 342.5,-727.5 "/>
<text text-anchor="start" x="255.5" y="-715.5" font-family="Helvetica,sans-Serif" font-size="10.00">+ Name</text>
<text text-anchor="start" x="255.5" y="-704.5" font-family="Helvetica,sans-Serif" font-size="10.00">+ Level</text>
<text text-anchor="start" x="255.5" y="-693.5" font-family="Helvetica,sans-Serif" font-size="10.00">+ Health</text>
<text text-anchor="start" x="255.5" y="-682.5" font-family="Helvetica,sans-Serif" font-size="10.00">+ Attack</text>
<text text-anchor="start" x="255.5" y="-671.5" font-family="Helvetica,sans-Serif" font-size="10.00">+ Defence</text>
<text text-anchor="start" x="255.5" y="-660.5" font-family="Helvetica,sans-Serif" font-size="10.00">+ MaximumMagic</text>
<text text-anchor="start" x="255.5" y="-649.5" font-family="Helvetica,sans-Serif" font-size="10.00">+ Magic</text>
<text text-anchor="start" x="255.5" y="-638.5" font-family="Helvetica,sans-Serif" font-size="10.00">+ Luck</text>
<text text-anchor="start" x="255.5" y="-627.5" font-family="Helvetica,sans-Serif" font-size="10.00">+ Speed</text>
<text text-anchor="start" x="255.5" y="-616.5" font-family="Helvetica,sans-Serif" font-size="10.00">+ Rage</text>
<text text-anchor="start" x="255.5" y="-605.5" font-family="Helvetica,sans-Serif" font-size="10.00">+ CanRage</text>
<text text-anchor="start" x="255.5" y="-594.5" font-family="Helvetica,sans-Serif" font-size="10.00">+ Special1</text>
<text text-anchor="start" x="255.5" y="-583.5" font-family="Helvetica,sans-Serif" font-size="10.00">+ Special2</text>
<text text-anchor="start" x="255.5" y="-572.5" font-family="Helvetica,sans-Serif" font-size="10.00">+ Image</text>
<polyline fill="none" stroke="black" points="247.5,-565.5 342.5,-565.5 "/>
<text text-anchor="start" x="255.5" y="-553.5" font-family="Helvetica,sans-Serif" font-size="10.00">+ IsEnraged()</text>
<text text-anchor="start" x="255.5" y="-542.5" font-family="Helvetica,sans-Serif" font-size="10.00"># Character()</text>
</a>
</g>
</g>
<!-- Node4&#45;&gt;Node7 -->
<g id="edge8" class="edge"><title>Node4&#45;&gt;Node7</title>
<path fill="none" stroke="#404040" d="M252.613,-809.376C251.111,-801.954 249.812,-794.293 249,-787 247.962,-777.68 248.097,-768.156 249.099,-758.664"/>
<polygon fill="none" stroke="#404040" points="249.115,-758.554 246.002,-752.049 250.81,-746.675 253.922,-753.18 249.115,-758.554"/>
<text text-anchor="middle" x="271.5" y="-779" font-family="Helvetica,sans-Serif" font-size="10.00"> #special1</text>
<text text-anchor="middle" x="271.5" y="-768" font-family="Helvetica,sans-Serif" font-size="10.00">#special2</text>
</g>
<!-- Node5 -->
<g id="node3" class="node"><title>Node5</title>
<g id="a_node3"><a xlink:href="class_character_move.html" target="_top" xlink:title="Astract base class for character moves ">
<polygon fill="none" stroke="black" points="210,-0.5 210,-79.5 296,-79.5 296,-0.5 210,-0.5"/>
<text text-anchor="middle" x="253" y="-67.5" font-family="Helvetica,sans-Serif" font-size="10.00">CharacterMove</text>
<polyline fill="none" stroke="black" points="210,-60.5 296,-60.5 "/>
<text text-anchor="start" x="218" y="-48.5" font-family="Helvetica,sans-Serif" font-size="10.00">+ User</text>
<text text-anchor="start" x="218" y="-37.5" font-family="Helvetica,sans-Serif" font-size="10.00">+ Target</text>
<text text-anchor="start" x="218" y="-26.5" font-family="Helvetica,sans-Serif" font-size="10.00">+ Text</text>
<polyline fill="none" stroke="black" points="210,-19.5 296,-19.5 "/>
<text text-anchor="start" x="218" y="-7.5" font-family="Helvetica,sans-Serif" font-size="10.00">+ performMove()</text>
</a>
</g>
</g>
<!-- Node5&#45;&gt;Node4 -->
<g id="edge2" class="edge"><title>Node5&#45;&gt;Node4</title>
<path fill="none" stroke="midnightblue" d="M237.034,-89.5555C226.639,-125.453 215,-175.749 215,-221 215,-642 215,-642 215,-642 215,-700.987 233.312,-766.895 247.547,-809.218"/>
<polygon fill="none" stroke="midnightblue" points="240.431,-90.4113 239.923,-79.8286 233.721,-88.4186 240.431,-90.4113"/>
</g>
<!-- Node6 -->
<g id="node4" class="node"><title>Node6</title>
<polygon fill="none" stroke="#bfbfbf" points="63.5,-962.5 63.5,-1019.5 104.5,-1019.5 104.5,-962.5 63.5,-962.5"/>
<text text-anchor="middle" x="84" y="-1007.5" font-family="Helvetica,sans-Serif" font-size="10.00">string</text>
<polyline fill="none" stroke="#bfbfbf" points="63.5,-1000.5 104.5,-1000.5 "/>
<text text-anchor="middle" x="84" y="-988.5" font-family="Helvetica,sans-Serif" font-size="10.00"> </text>
<polyline fill="none" stroke="#bfbfbf" points="63.5,-981.5 104.5,-981.5 "/>
<text text-anchor="middle" x="84" y="-969.5" font-family="Helvetica,sans-Serif" font-size="10.00"> </text>
</g>
<!-- Node6&#45;&gt;Node4 -->
<g id="edge23" class="edge"><title>Node6&#45;&gt;Node4</title>
<path fill="none" stroke="#404040" d="M104.873,-975.825C129.246,-959.122 170.609,-930.305 205,-904 205.102,-903.922 205.204,-903.844 205.306,-903.766"/>
<polygon fill="none" stroke="#404040" points="205.486,-903.626 207.761,-896.783 214.952,-896.251 212.677,-903.094 205.486,-903.626"/>
<text text-anchor="middle" x="194" y="-930.5" font-family="Helvetica,sans-Serif" font-size="10.00"> #desc</text>
</g>
<!-- Node6&#45;&gt;Node5 -->
<g id="edge3" class="edge"><title>Node6&#45;&gt;Node5</title>
<path fill="none" stroke="#404040" d="M63.2359,-971.772C38.3611,-947.807 0,-903.128 0,-855.5 0,-855.5 0,-855.5 0,-221 0,-124.618 123.412,-75.0639 197.849,-53.9408"/>
<polygon fill="none" stroke="#404040" points="198.22,-53.8393 202.953,-48.3984 209.795,-50.6742 205.063,-56.1151 198.22,-53.8393"/>
<text text-anchor="middle" x="12.5" y="-509" font-family="Helvetica,sans-Serif" font-size="10.00"> #text</text>
</g>
<!-- Node6&#45;&gt;Node7 -->
<g id="edge5" class="edge"><title>Node6&#45;&gt;Node7</title>
<path fill="none" stroke="#404040" d="M78.6249,-962.195C72.7503,-924.363 67.2848,-855.595 93,-805 97.2066,-796.723 179.733,-731.535 237.983,-686.151"/>
<polygon fill="none" stroke="#404040" points="237.999,-686.139 240.277,-679.297 247.468,-678.768 245.19,-685.61 237.999,-686.139"/>
<text text-anchor="middle" x="109.5" y="-852" font-family="Helvetica,sans-Serif" font-size="10.00"> #name</text>
</g>
<!-- Node11 -->
<g id="node9" class="node"><title>Node11</title>
<g id="a_node9"><a xlink:href="class_battle_manager.html" target="_top" xlink:title="Holds current Player and Enemy objects in battle and provides functions for MainBattle and other obje...">
<polygon fill="none" stroke="black" points="398,-127.5 398,-316.5 514,-316.5 514,-127.5 398,-127.5"/>
<text text-anchor="middle" x="456" y="-304.5" font-family="Helvetica,sans-Serif" font-size="10.00">BattleManager</text>
<polyline fill="none" stroke="black" points="398,-297.5 514,-297.5 "/>
<text text-anchor="start" x="406" y="-285.5" font-family="Helvetica,sans-Serif" font-size="10.00">+ Player</text>
<text text-anchor="start" x="406" y="-274.5" font-family="Helvetica,sans-Serif" font-size="10.00">+ Enemy</text>
<text text-anchor="start" x="406" y="-263.5" font-family="Helvetica,sans-Serif" font-size="10.00">+ WasCriticalHit</text>
<polyline fill="none" stroke="black" points="398,-256.5 514,-256.5 "/>
<text text-anchor="start" x="406" y="-244.5" font-family="Helvetica,sans-Serif" font-size="10.00">+ BattleManager()</text>
<text text-anchor="start" x="406" y="-233.5" font-family="Helvetica,sans-Serif" font-size="10.00">+ playerFirst()</text>
<text text-anchor="start" x="406" y="-222.5" font-family="Helvetica,sans-Serif" font-size="10.00">+ switchPlayers()</text>
<text text-anchor="start" x="406" y="-211.5" font-family="Helvetica,sans-Serif" font-size="10.00">+ isCriticalHit()</text>
<text text-anchor="start" x="406" y="-200.5" font-family="Helvetica,sans-Serif" font-size="10.00">+ ranAway()</text>
<text text-anchor="start" x="406" y="-189.5" font-family="Helvetica,sans-Serif" font-size="10.00">+ damageCalculation()</text>
<text text-anchor="start" x="406" y="-178.5" font-family="Helvetica,sans-Serif" font-size="10.00">+ enemyMove()</text>
<text text-anchor="start" x="406" y="-167.5" font-family="Helvetica,sans-Serif" font-size="10.00">+ enemySpecialMove()</text>
<text text-anchor="start" x="406" y="-156.5" font-family="Helvetica,sans-Serif" font-size="10.00">+ battleWon()</text>
<text text-anchor="start" x="406" y="-145.5" font-family="Helvetica,sans-Serif" font-size="10.00">+ playerFainted()</text>
<text text-anchor="start" x="406" y="-134.5" font-family="Helvetica,sans-Serif" font-size="10.00">&#45; characterFainted()</text>
</a>
</g>
</g>
<!-- Node6&#45;&gt;Node11 -->
<g id="edge11" class="edge"><title>Node6&#45;&gt;Node11</title>
<path fill="none" stroke="#404040" d="M74.8923,-962.025C73.3137,-956.131 71.8942,-949.908 71,-944 68.3388,-926.417 70.2222,-921.782 70,-904 69.4501,-860.003 63.3895,-848.501 70,-805 88.881,-680.753 103.491,-650.076 154,-535 195.299,-440.907 197.938,-408.255 270,-335 303.442,-301.004 349.256,-273.256 387.046,-253.884"/>
<polygon fill="none" stroke="#404040" points="387.259,-253.777 390.826,-247.51 397.983,-248.393 394.416,-254.66 387.259,-253.777"/>
<text text-anchor="middle" x="196" y="-644" font-family="Helvetica,sans-Serif" font-size="10.00"> +forceEnemyMove</text>
<text text-anchor="middle" x="196" y="-633" font-family="Helvetica,sans-Serif" font-size="10.00">+forceCriticalHits</text>
</g>
<!-- Node14 -->
<g id="node12" class="node"><title>Node14</title>
<g id="a_node12"><a xlink:href="class_item.html" target="_top" xlink:title="Abstract class for items that can be equipped to a player, increasing some of their stats ...">
<polygon fill="none" stroke="black" points="616.5,-809.5 616.5,-899.5 693.5,-899.5 693.5,-809.5 616.5,-809.5"/>
<text text-anchor="middle" x="655" y="-887.5" font-family="Helvetica,sans-Serif" font-size="10.00">Item</text>
<polyline fill="none" stroke="black" points="616.5,-880.5 693.5,-880.5 "/>
<text text-anchor="start" x="624.5" y="-868.5" font-family="Helvetica,sans-Serif" font-size="10.00">+ Name</text>
<text text-anchor="start" x="624.5" y="-857.5" font-family="Helvetica,sans-Serif" font-size="10.00">+ Desc</text>
<text text-anchor="start" x="624.5" y="-846.5" font-family="Helvetica,sans-Serif" font-size="10.00">+ Cost</text>
<polyline fill="none" stroke="black" points="616.5,-839.5 693.5,-839.5 "/>
<text text-anchor="start" x="624.5" y="-827.5" font-family="Helvetica,sans-Serif" font-size="10.00">+ applyBuffs()</text>
<text text-anchor="start" x="624.5" y="-816.5" font-family="Helvetica,sans-Serif" font-size="10.00">+ revertBuffs()</text>
</a>
</g>
</g>
<!-- Node6&#45;&gt;Node14 -->
<g id="edge20" class="edge"><title>Node6&#45;&gt;Node14</title>
<path fill="none" stroke="#404040" d="M104.827,-988.965C172.938,-985.023 394.423,-967.777 564,-904 577.876,-898.781 592.298,-891.864 605.459,-884.892"/>
<polygon fill="none" stroke="#404040" points="605.638,-884.795 608.997,-878.414 616.179,-879.06 612.82,-885.441 605.638,-884.795"/>
<text text-anchor="middle" x="517" y="-936" font-family="Helvetica,sans-Serif" font-size="10.00"> #desc</text>
<text text-anchor="middle" x="517" y="-925" font-family="Helvetica,sans-Serif" font-size="10.00">#name</text>
</g>
<!-- Node7&#45;&gt;Node5 -->
<g id="edge4" class="edge"><title>Node7&#45;&gt;Node5</title>
<path fill="none" stroke="#404040" d="M287.66,-535.32C278.559,-405.523 263.412,-189.493 256.56,-91.7708"/>
<polygon fill="none" stroke="#404040" points="256.547,-91.5902 252.137,-85.8847 255.708,-79.6196 260.118,-85.3251 256.547,-91.5902"/>
<text text-anchor="middle" x="292" y="-349" font-family="Helvetica,sans-Serif" font-size="10.00"> #target</text>
<text text-anchor="middle" x="292" y="-338" font-family="Helvetica,sans-Serif" font-size="10.00">#user</text>
</g>
<!-- Node12 -->
<g id="node10" class="node"><title>Node12</title>
<g id="a_node10"><a xlink:href="class_enemy.html" target="_top" xlink:title="Defines an AI controller enemy to fight in battle scenes">
<polygon fill="none" stroke="black" points="386.5,-403 386.5,-460 453.5,-460 453.5,-403 386.5,-403"/>
<text text-anchor="middle" x="420" y="-448" font-family="Helvetica,sans-Serif" font-size="10.00">Enemy</text>
<polyline fill="none" stroke="black" points="386.5,-441 453.5,-441 "/>
<text text-anchor="start" x="394.5" y="-429" font-family="Helvetica,sans-Serif" font-size="10.00">+ ExpGiven</text>
<polyline fill="none" stroke="black" points="386.5,-422 453.5,-422 "/>
<text text-anchor="start" x="394.5" y="-410" font-family="Helvetica,sans-Serif" font-size="10.00">+ Enemy()</text>
</a>
</g>
</g>
<!-- Node7&#45;&gt;Node12 -->
<g id="edge13" class="edge"><title>Node7&#45;&gt;Node12</title>
<path fill="none" stroke="midnightblue" d="M347.758,-545.478C349.85,-541.932 351.935,-538.429 354,-535 369.504,-509.253 388.115,-480.532 401.616,-460.058"/>
<polygon fill="none" stroke="midnightblue" points="344.585,-543.97 342.552,-554.369 350.626,-547.507 344.585,-543.97"/>
</g>
<!-- Node13 -->
<g id="node11" class="node"><title>Node13</title>
<g id="a_node11"><a xlink:href="class_player.html" target="_top" xlink:title="Defines a playable character for use in battle scenes">
<polygon fill="none" stroke="black" points="553,-375.5 553,-487.5 665,-487.5 665,-375.5 553,-375.5"/>
<text text-anchor="middle" x="609" y="-475.5" font-family="Helvetica,sans-Serif" font-size="10.00">Player</text>
<polyline fill="none" stroke="black" points="553,-468.5 665,-468.5 "/>
<text text-anchor="start" x="561" y="-456.5" font-family="Helvetica,sans-Serif" font-size="10.00">+ Exp</text>
<text text-anchor="start" x="561" y="-445.5" font-family="Helvetica,sans-Serif" font-size="10.00">+ Item</text>
<text text-anchor="start" x="561" y="-434.5" font-family="Helvetica,sans-Serif" font-size="10.00">+ ExpToNextLevel</text>
<polyline fill="none" stroke="black" points="553,-427.5 665,-427.5 "/>
<text text-anchor="start" x="561" y="-415.5" font-family="Helvetica,sans-Serif" font-size="10.00">+ Player()</text>
<text text-anchor="start" x="561" y="-404.5" font-family="Helvetica,sans-Serif" font-size="10.00">+ gainExp()</text>
<text text-anchor="start" x="561" y="-393.5" font-family="Helvetica,sans-Serif" font-size="10.00">+ levelUp()</text>
<text text-anchor="start" x="561" y="-382.5" font-family="Helvetica,sans-Serif" font-size="10.00">&#45; setExpToNextLevel()</text>
</a>
</g>
</g>
<!-- Node7&#45;&gt;Node13 -->
<g id="edge18" class="edge"><title>Node7&#45;&gt;Node13</title>
<path fill="none" stroke="midnightblue" d="M350.654,-537.296C351.75,-536.502 352.865,-535.736 354,-535 427.018,-487.634 473.586,-560.45 549,-517 561.316,-509.904 571.744,-499.141 580.278,-487.649"/>
<polygon fill="none" stroke="midnightblue" points="348.131,-534.84 342.63,-543.895 352.577,-540.246 348.131,-534.84"/>
</g>
<!-- Node8 -->
<g id="node6" class="node"><title>Node8</title>
<polygon fill="none" stroke="#bfbfbf" points="577.5,-962.5 577.5,-1019.5 606.5,-1019.5 606.5,-962.5 577.5,-962.5"/>
<text text-anchor="middle" x="592" y="-1007.5" font-family="Helvetica,sans-Serif" font-size="10.00">int</text>
<polyline fill="none" stroke="#bfbfbf" points="577.5,-1000.5 606.5,-1000.5 "/>
<text text-anchor="middle" x="592" y="-988.5" font-family="Helvetica,sans-Serif" font-size="10.00"> </text>
<polyline fill="none" stroke="#bfbfbf" points="577.5,-981.5 606.5,-981.5 "/>
<text text-anchor="middle" x="592" y="-969.5" font-family="Helvetica,sans-Serif" font-size="10.00"> </text>
</g>
<!-- Node8&#45;&gt;Node3 -->
<g id="edge25" class="edge"><title>Node8&#45;&gt;Node3</title>
<path fill="none" stroke="#404040" d="M577.489,-983.032C562.994,-975.371 541.043,-961.754 528,-944 489.474,-891.558 506.012,-865.48 482,-805 465.716,-763.984 444.247,-718.574 428.282,-686.124"/>
<polygon fill="none" stroke="#404040" points="428.205,-685.969 421.959,-682.366 422.882,-675.214 429.129,-678.817 428.205,-685.969"/>
<text text-anchor="middle" x="530" y="-852" font-family="Helvetica,sans-Serif" font-size="10.00"> +increase</text>
</g>
<!-- Node8&#45;&gt;Node4 -->
<g id="edge24" class="edge"><title>Node8&#45;&gt;Node4</title>
<path fill="none" stroke="#404040" d="M577.374,-990.041C538.607,-989.568 430.924,-984.435 354,-944 337.134,-935.134 321.342,-922.081 307.84,-908.708"/>
<polygon fill="none" stroke="#404040" points="307.665,-908.527 300.617,-907.006 299.31,-899.914 306.359,-901.436 307.665,-908.527"/>
<text text-anchor="middle" x="371.5" y="-930.5" font-family="Helvetica,sans-Serif" font-size="10.00"> #magic</text>
</g>
<!-- Node8&#45;&gt;Node7 -->
<g id="edge6" class="edge"><title>Node8&#45;&gt;Node7</title>
<path fill="none" stroke="#404040" d="M577.234,-988.08C540.939,-982.515 447.115,-962.84 403,-904 365.56,-854.063 417.158,-817.238 383,-765 374.698,-752.304 364.491,-757.958 354,-747 352.757,-745.702 351.532,-744.373 350.323,-743.016"/>
<polygon fill="none" stroke="#404040" points="350.257,-742.937 343.349,-740.87 342.6,-733.698 349.508,-735.765 350.257,-742.937"/>
<text text-anchor="middle" x="440.5" y="-896" font-family="Helvetica,sans-Serif" font-size="10.00"> #speed</text>
<text text-anchor="middle" x="440.5" y="-885" font-family="Helvetica,sans-Serif" font-size="10.00">#luck</text>
<text text-anchor="middle" x="440.5" y="-874" font-family="Helvetica,sans-Serif" font-size="10.00">#health</text>
<text text-anchor="middle" x="440.5" y="-863" font-family="Helvetica,sans-Serif" font-size="10.00">#magic</text>
<text text-anchor="middle" x="440.5" y="-852" font-family="Helvetica,sans-Serif" font-size="10.00">#maximumMagic</text>
<text text-anchor="middle" x="440.5" y="-841" font-family="Helvetica,sans-Serif" font-size="10.00">#attack</text>
<text text-anchor="middle" x="440.5" y="-830" font-family="Helvetica,sans-Serif" font-size="10.00">#defence</text>
<text text-anchor="middle" x="440.5" y="-819" font-family="Helvetica,sans-Serif" font-size="10.00">#level</text>
<text text-anchor="middle" x="440.5" y="-808" font-family="Helvetica,sans-Serif" font-size="10.00">#rage</text>
</g>
<!-- Node8&#45;&gt;Node11 -->
<g id="edge15" class="edge"><title>Node8&#45;&gt;Node11</title>
<path fill="none" stroke="#404040" d="M606.776,-988.21C656.103,-981.334 812,-951.973 812,-855.5 812,-855.5 812,-855.5 812,-430.5 812,-299.583 630.075,-249.803 526.327,-232.059"/>
<polygon fill="none" stroke="#404040" points="526.229,-232.043 519.66,-235.018 514.388,-230.098 520.956,-227.123 526.229,-232.043"/>
<text text-anchor="middle" x="831.5" y="-638.5" font-family="Helvetica,sans-Serif" font-size="10.00"> +money</text>
</g>
<!-- Node8&#45;&gt;Node12 -->
<g id="edge14" class="edge"><title>Node8&#45;&gt;Node12</title>
<path fill="none" stroke="#404040" d="M592.618,-962.378C594.566,-865.38 599.05,-544.123 574,-506 570.68,-500.947 508.942,-472.437 464.66,-452.45"/>
<polygon fill="none" stroke="#404040" points="464.485,-452.371 457.372,-453.556 453.542,-447.445 460.656,-446.261 464.485,-452.371"/>
<text text-anchor="middle" x="618" y="-773.5" font-family="Helvetica,sans-Serif" font-size="10.00"> &#45;expGiven</text>
</g>
<!-- Node8&#45;&gt;Node13 -->
<g id="edge22" class="edge"><title>Node8&#45;&gt;Node13</title>
<path fill="none" stroke="#404040" d="M606.858,-984.006C632.382,-972.768 683.674,-945.825 703,-904 733.276,-838.477 711.22,-644.999 673,-535 668.677,-522.559 662.625,-510.055 655.953,-498.268"/>
<polygon fill="none" stroke="#404040" points="655.792,-497.995 649.294,-494.867 649.682,-487.666 656.18,-490.794 655.792,-497.995"/>
<text text-anchor="middle" x="753.5" y="-779" font-family="Helvetica,sans-Serif" font-size="10.00"> &#45;expToNextLevel</text>
<text text-anchor="middle" x="753.5" y="-768" font-family="Helvetica,sans-Serif" font-size="10.00">&#45;exp</text>
</g>
<!-- Node8&#45;&gt;Node14 -->
<g id="edge21" class="edge"><title>Node8&#45;&gt;Node14</title>
<path fill="none" stroke="#404040" d="M604.901,-962.457C611.907,-947.501 620.825,-928.461 629.189,-910.604"/>
<polygon fill="none" stroke="#404040" points="629.213,-910.552 628.136,-903.422 634.304,-899.685 635.381,-906.815 629.213,-910.552"/>
<text text-anchor="middle" x="638" y="-930.5" font-family="Helvetica,sans-Serif" font-size="10.00"> #cost</text>
</g>
<!-- Node9 -->
<g id="node7" class="node"><title>Node9</title>
<polygon fill="none" stroke="#bfbfbf" points="331.5,-826 331.5,-883 366.5,-883 366.5,-826 331.5,-826"/>
<text text-anchor="middle" x="349" y="-871" font-family="Helvetica,sans-Serif" font-size="10.00">bool</text>
<polyline fill="none" stroke="#bfbfbf" points="331.5,-864 366.5,-864 "/>
<text text-anchor="middle" x="349" y="-852" font-family="Helvetica,sans-Serif" font-size="10.00"> </text>
<polyline fill="none" stroke="#bfbfbf" points="331.5,-845 366.5,-845 "/>
<text text-anchor="middle" x="349" y="-833" font-family="Helvetica,sans-Serif" font-size="10.00"> </text>
</g>
<!-- Node9&#45;&gt;Node7 -->
<g id="edge7" class="edge"><title>Node9&#45;&gt;Node7</title>
<path fill="none" stroke="#404040" d="M341.94,-825.85C337.404,-808.081 331.17,-783.664 324.726,-758.428"/>
<polygon fill="none" stroke="#404040" points="324.725,-758.423 319.365,-753.599 321.757,-746.796 327.117,-751.62 324.725,-758.423"/>
<text text-anchor="middle" x="355.5" y="-773.5" font-family="Helvetica,sans-Serif" font-size="10.00"> #canRage</text>
</g>
<!-- Node9&#45;&gt;Node11 -->
<g id="edge16" class="edge"><title>Node9&#45;&gt;Node11</title>
<path fill="none" stroke="#404040" d="M366.502,-827.323C372.039,-819.79 378.437,-811.782 385,-805 413.816,-775.221 439.51,-784.084 458,-747 523.994,-614.64 505.361,-439.062 482.972,-328.54"/>
<polygon fill="none" stroke="#404040" points="482.957,-328.471 477.819,-323.412 480.513,-316.723 485.651,-321.782 482.957,-328.471"/>
<text text-anchor="middle" x="537" y="-509" font-family="Helvetica,sans-Serif" font-size="10.00"> &#45;wasCriticalHit</text>
</g>
<!-- Node10 -->
<g id="node8" class="node"><title>Node10</title>
<polygon fill="none" stroke="#bfbfbf" points="135.5,-826 135.5,-883 196.5,-883 196.5,-826 135.5,-826"/>
<text text-anchor="middle" x="166" y="-871" font-family="Helvetica,sans-Serif" font-size="10.00">Texture2D</text>
<polyline fill="none" stroke="#bfbfbf" points="135.5,-864 196.5,-864 "/>
<text text-anchor="middle" x="166" y="-852" font-family="Helvetica,sans-Serif" font-size="10.00"> </text>
<polyline fill="none" stroke="#bfbfbf" points="135.5,-845 196.5,-845 "/>
<text text-anchor="middle" x="166" y="-833" font-family="Helvetica,sans-Serif" font-size="10.00"> </text>
</g>
<!-- Node10&#45;&gt;Node7 -->
<g id="edge9" class="edge"><title>Node10&#45;&gt;Node7</title>
<path fill="none" stroke="#404040" d="M178.494,-825.851C186.808,-808.122 198.316,-784.803 210,-765 219.305,-749.229 229.937,-732.809 240.457,-717.296"/>
<polygon fill="none" stroke="#404040" points="240.558,-717.148 240.649,-709.938 247.34,-707.248 247.249,-714.459 240.558,-717.148"/>
<text text-anchor="middle" x="227.5" y="-773.5" font-family="Helvetica,sans-Serif" font-size="10.00"> #image</text>
</g>
<!-- Node11&#45;&gt;Node5 -->
<g id="edge10" class="edge"><title>Node11&#45;&gt;Node5</title>
<path fill="none" stroke="#404040" d="M397.828,-169.419C368.671,-143.565 333.641,-112.504 305.336,-87.4065"/>
<polygon fill="none" stroke="#404040" points="304.992,-87.1012 297.849,-86.1134 296.013,-79.1398 303.156,-80.1276 304.992,-87.1012"/>
<text text-anchor="middle" x="348" y="-101" font-family="Helvetica,sans-Serif" font-size="10.00"> #manager</text>
</g>
<!-- Node12&#45;&gt;Node11 -->
<g id="edge12" class="edge"><title>Node12&#45;&gt;Node11</title>
<path fill="none" stroke="#404040" d="M422.84,-402.826C424.957,-383.71 428.143,-357.735 432,-335 432.365,-332.851 432.742,-330.681 433.13,-328.495"/>
<polygon fill="none" stroke="#404040" points="433.131,-328.492 430.282,-321.867 435.302,-316.69 438.15,-323.315 433.131,-328.492"/>
<text text-anchor="middle" x="450" y="-343.5" font-family="Helvetica,sans-Serif" font-size="10.00"> &#45;enemy</text>
</g>
<!-- Node13&#45;&gt;Node11 -->
<g id="edge17" class="edge"><title>Node13&#45;&gt;Node11</title>
<path fill="none" stroke="#404040" d="M568.4,-375.439C553.967,-355.864 537.329,-333.3 521.354,-311.634"/>
<polygon fill="none" stroke="#404040" points="521.193,-311.415 514.412,-308.96 514.071,-301.757 520.851,-304.212 521.193,-311.415"/>
<text text-anchor="middle" x="567.5" y="-343.5" font-family="Helvetica,sans-Serif" font-size="10.00"> &#45;player</text>
</g>
<!-- Node14&#45;&gt;Node13 -->
<g id="edge19" class="edge"><title>Node14&#45;&gt;Node13</title>
<path fill="none" stroke="#404040" d="M650.164,-809.241C642.098,-735.42 625.849,-586.705 616.357,-499.83"/>
<polygon fill="none" stroke="#404040" points="616.339,-499.666 611.711,-494.136 615.035,-487.737 619.663,-493.267 616.339,-499.666"/>
<text text-anchor="middle" x="656.5" y="-638.5" font-family="Helvetica,sans-Serif" font-size="10.00"> &#45;item</text>
</g>
</g>
</svg>
