<?xml version="1.0" encoding="UTF-8" standalone="no"?>
<!DOCTYPE svg PUBLIC "-//W3C//DTD SVG 1.1//EN"
 "http://www.w3.org/Graphics/SVG/1.1/DTD/svg11.dtd">
<!-- Generated by graphviz version 2.38.0 (20140413.2041)
 -->
<!-- Title: SpecialMove Pages: 1 -->
<svg width="635pt" height="1045pt"
 viewBox="0.00 0.00 635.00 1045.00" xmlns="http://www.w3.org/2000/svg" xmlns:xlink="http://www.w3.org/1999/xlink">
<g id="graph0" class="graph" transform="scale(1 1) rotate(0) translate(4 1041)">
<title>SpecialMove</title>
<!-- Node9 -->
<g id="node1" class="node"><title>Node9</title>
<polygon fill="#bfbfbf" stroke="black" points="153,-830.5 153,-920.5 251,-920.5 251,-830.5 153,-830.5"/>
<text text-anchor="middle" x="202" y="-908.5" font-family="Helvetica,sans-Serif" font-size="10.00">SpecialMove</text>
<polyline fill="none" stroke="black" points="153,-901.5 251,-901.5 "/>
<text text-anchor="start" x="161" y="-889.5" font-family="Helvetica,sans-Serif" font-size="10.00">+ Magic</text>
<text text-anchor="start" x="161" y="-878.5" font-family="Helvetica,sans-Serif" font-size="10.00">+ Desc</text>
<polyline fill="none" stroke="black" points="153,-871.5 251,-871.5 "/>
<text text-anchor="start" x="161" y="-859.5" font-family="Helvetica,sans-Serif" font-size="10.00">+ setUp()</text>
<text text-anchor="start" x="161" y="-848.5" font-family="Helvetica,sans-Serif" font-size="10.00">+ decreaseMagic()</text>
<text text-anchor="start" x="161" y="-837.5" font-family="Helvetica,sans-Serif" font-size="10.00"># SpecialMove()</text>
</g>
<!-- Node12 -->
<g id="node4" class="node"><title>Node12</title>
<g id="a_node4"><a xlink:href="class_character.html" target="_top" xlink:title="Base abstract class for Enemy and Player to inherit from. Defines all shared variables, their constructor and their setters and getters ">
<polygon fill="none" stroke="black" points="238.5,-535.5 238.5,-713.5 333.5,-713.5 333.5,-535.5 238.5,-535.5"/>
<text text-anchor="middle" x="286" y="-701.5" font-family="Helvetica,sans-Serif" font-size="10.00">Character</text>
<polyline fill="none" stroke="black" points="238.5,-694.5 333.5,-694.5 "/>
<text text-anchor="start" x="246.5" y="-682.5" font-family="Helvetica,sans-Serif" font-size="10.00">+ Name</text>
<text text-anchor="start" x="246.5" y="-671.5" font-family="Helvetica,sans-Serif" font-size="10.00">+ Level</text>
<text text-anchor="start" x="246.5" y="-660.5" font-family="Helvetica,sans-Serif" font-size="10.00">+ Health</text>
<text text-anchor="start" x="246.5" y="-649.5" font-family="Helvetica,sans-Serif" font-size="10.00">+ Attack</text>
<text text-anchor="start" x="246.5" y="-638.5" font-family="Helvetica,sans-Serif" font-size="10.00">+ Defence</text>
<text text-anchor="start" x="246.5" y="-627.5" font-family="Helvetica,sans-Serif" font-size="10.00">+ MaximumMagic</text>
<text text-anchor="start" x="246.5" y="-616.5" font-family="Helvetica,sans-Serif" font-size="10.00">+ Magic</text>
<text text-anchor="start" x="246.5" y="-605.5" font-family="Helvetica,sans-Serif" font-size="10.00">+ Luck</text>
<text text-anchor="start" x="246.5" y="-594.5" font-family="Helvetica,sans-Serif" font-size="10.00">+ Speed</text>
<text text-anchor="start" x="246.5" y="-583.5" font-family="Helvetica,sans-Serif" font-size="10.00">+ Special1</text>
<text text-anchor="start" x="246.5" y="-572.5" font-family="Helvetica,sans-Serif" font-size="10.00">+ Special2</text>
<text text-anchor="start" x="246.5" y="-561.5" font-family="Helvetica,sans-Serif" font-size="10.00">+ Image</text>
<polyline fill="none" stroke="black" points="238.5,-554.5 333.5,-554.5 "/>
<text text-anchor="start" x="246.5" y="-542.5" font-family="Helvetica,sans-Serif" font-size="10.00"># Character()</text>
</a>
</g>
</g>
<!-- Node9&#45;&gt;Node12 -->
<g id="edge6" class="edge"><title>Node9&#45;&gt;Node12</title>
<path fill="none" stroke="#404040" d="M206.397,-830.224C210.129,-801.608 216.734,-763.893 228,-732 229.676,-727.254 231.546,-722.466 233.557,-717.685"/>
<polygon fill="none" stroke="#404040" points="233.623,-717.536 232.396,-710.43 238.484,-706.565 239.71,-713.671 233.623,-717.536"/>
<text text-anchor="middle" x="250.5" y="-775" font-family="Helvetica,sans-Serif" font-size="10.00"> #special1</text>
<text text-anchor="middle" x="250.5" y="-764" font-family="Helvetica,sans-Serif" font-size="10.00">#special2</text>
</g>
<!-- Node10 -->
<g id="node2" class="node"><title>Node10</title>
<g id="a_node2"><a xlink:href="class_character_move.html" target="_top" xlink:title="Astract base class for character moves ">
<polygon fill="none" stroke="black" points="77,-0.5 77,-79.5 163,-79.5 163,-0.5 77,-0.5"/>
<text text-anchor="middle" x="120" y="-67.5" font-family="Helvetica,sans-Serif" font-size="10.00">CharacterMove</text>
<polyline fill="none" stroke="black" points="77,-60.5 163,-60.5 "/>
<text text-anchor="start" x="85" y="-48.5" font-family="Helvetica,sans-Serif" font-size="10.00">+ User</text>
<text text-anchor="start" x="85" y="-37.5" font-family="Helvetica,sans-Serif" font-size="10.00">+ Target</text>
<text text-anchor="start" x="85" y="-26.5" font-family="Helvetica,sans-Serif" font-size="10.00">+ Text</text>
<polyline fill="none" stroke="black" points="77,-19.5 163,-19.5 "/>
<text text-anchor="start" x="85" y="-7.5" font-family="Helvetica,sans-Serif" font-size="10.00">+ performMove()</text>
</a>
</g>
</g>
<!-- Node10&#45;&gt;Node9 -->
<g id="edge1" class="edge"><title>Node10&#45;&gt;Node9</title>
<path fill="none" stroke="midnightblue" d="M107.475,-89.426C99.2481,-125.454 90,-175.97 90,-221 90,-512.5 90,-512.5 90,-512.5 90,-602.689 86.484,-628.111 114,-714 127.38,-755.763 151.906,-799.14 171.674,-830.254"/>
<polygon fill="none" stroke="midnightblue" points="110.888,-90.1995 109.76,-79.665 104.073,-88.6041 110.888,-90.1995"/>
</g>
<!-- Node11 -->
<g id="node3" class="node"><title>Node11</title>
<polygon fill="none" stroke="#bfbfbf" points="63.5,-979.5 63.5,-1036.5 104.5,-1036.5 104.5,-979.5 63.5,-979.5"/>
<text text-anchor="middle" x="84" y="-1024.5" font-family="Helvetica,sans-Serif" font-size="10.00">string</text>
<polyline fill="none" stroke="#bfbfbf" points="63.5,-1017.5 104.5,-1017.5 "/>
<text text-anchor="middle" x="84" y="-1005.5" font-family="Helvetica,sans-Serif" font-size="10.00"> </text>
<polyline fill="none" stroke="#bfbfbf" points="63.5,-998.5 104.5,-998.5 "/>
<text text-anchor="middle" x="84" y="-986.5" font-family="Helvetica,sans-Serif" font-size="10.00"> </text>
</g>
<!-- Node11&#45;&gt;Node9 -->
<g id="edge19" class="edge"><title>Node11&#45;&gt;Node9</title>
<path fill="none" stroke="#404040" d="M104.554,-984.269C118.235,-969.139 136.8,-948.606 154.057,-929.522"/>
<polygon fill="none" stroke="#404040" points="154.085,-929.491 155.142,-922.358 162.133,-920.59 161.076,-927.724 154.085,-929.491"/>
<text text-anchor="middle" x="158" y="-947.5" font-family="Helvetica,sans-Serif" font-size="10.00"> #desc</text>
</g>
<!-- Node11&#45;&gt;Node10 -->
<g id="edge2" class="edge"><title>Node11&#45;&gt;Node10</title>
<path fill="none" stroke="#404040" d="M63.2359,-989.441C38.3611,-966.322 0,-923.113 0,-876.5 0,-876.5 0,-876.5 0,-221 0,-168.595 35.6487,-119.843 68.086,-86.3299"/>
<polygon fill="none" stroke="#404040" points="68.2017,-86.214 69.6078,-79.1413 76.6772,-77.7189 75.2711,-84.7916 68.2017,-86.214"/>
<text text-anchor="middle" x="12.5" y="-509" font-family="Helvetica,sans-Serif" font-size="10.00"> #text</text>
</g>
<!-- Node11&#45;&gt;Node12 -->
<g id="edge4" class="edge"><title>Node11&#45;&gt;Node12</title>
<path fill="none" stroke="#404040" d="M79.0779,-979.315C73.9968,-943.047 69.722,-878.383 93,-830 126.716,-759.921 172.222,-772.024 224,-714 226.283,-711.441 228.557,-708.796 230.81,-706.091"/>
<polygon fill="none" stroke="#404040" points="230.85,-706.042 231.5,-698.86 238.379,-696.697 237.729,-703.879 230.85,-706.042"/>
<text text-anchor="middle" x="118.5" y="-878.5" font-family="Helvetica,sans-Serif" font-size="10.00"> #image_ref</text>
<text text-anchor="middle" x="118.5" y="-867.5" font-family="Helvetica,sans-Serif" font-size="10.00">#name</text>
</g>
<!-- Node14 -->
<g id="node6" class="node"><title>Node14</title>
<g id="a_node6"><a xlink:href="class_battle_manager.html" target="_top" xlink:title="Holds current Player and Enemy objects in battle and provides functions for MainBattle and other obje...">
<polygon fill="none" stroke="black" points="275,-127.5 275,-316.5 391,-316.5 391,-127.5 275,-127.5"/>
<text text-anchor="middle" x="333" y="-304.5" font-family="Helvetica,sans-Serif" font-size="10.00">BattleManager</text>
<polyline fill="none" stroke="black" points="275,-297.5 391,-297.5 "/>
<text text-anchor="start" x="283" y="-285.5" font-family="Helvetica,sans-Serif" font-size="10.00">+ Player</text>
<text text-anchor="start" x="283" y="-274.5" font-family="Helvetica,sans-Serif" font-size="10.00">+ Enemy</text>
<text text-anchor="start" x="283" y="-263.5" font-family="Helvetica,sans-Serif" font-size="10.00">+ WasCriticalHit</text>
<polyline fill="none" stroke="black" points="275,-256.5 391,-256.5 "/>
<text text-anchor="start" x="283" y="-244.5" font-family="Helvetica,sans-Serif" font-size="10.00">+ BattleManager()</text>
<text text-anchor="start" x="283" y="-233.5" font-family="Helvetica,sans-Serif" font-size="10.00">+ playerFirst()</text>
<text text-anchor="start" x="283" y="-222.5" font-family="Helvetica,sans-Serif" font-size="10.00">+ switchPlayers()</text>
<text text-anchor="start" x="283" y="-211.5" font-family="Helvetica,sans-Serif" font-size="10.00">+ isCriticalHit()</text>
<text text-anchor="start" x="283" y="-200.5" font-family="Helvetica,sans-Serif" font-size="10.00">+ ranAway()</text>
<text text-anchor="start" x="283" y="-189.5" font-family="Helvetica,sans-Serif" font-size="10.00">+ damageCalculation()</text>
<text text-anchor="start" x="283" y="-178.5" font-family="Helvetica,sans-Serif" font-size="10.00">+ enemyMove()</text>
<text text-anchor="start" x="283" y="-167.5" font-family="Helvetica,sans-Serif" font-size="10.00">+ enemySpecialMove()</text>
<text text-anchor="start" x="283" y="-156.5" font-family="Helvetica,sans-Serif" font-size="10.00">+ battleWon()</text>
<text text-anchor="start" x="283" y="-145.5" font-family="Helvetica,sans-Serif" font-size="10.00">+ playerFainted()</text>
<text text-anchor="start" x="283" y="-134.5" font-family="Helvetica,sans-Serif" font-size="10.00">&#45; characterFainted()</text>
</a>
</g>
</g>
<!-- Node11&#45;&gt;Node14 -->
<g id="edge8" class="edge"><title>Node11&#45;&gt;Node14</title>
<path fill="none" stroke="#404040" d="M75.6068,-979.494C74.1077,-973.457 72.7772,-967.058 72,-961 64.5915,-903.251 64.9554,-887.794 72,-830 88.3423,-695.927 94.9196,-660.438 145,-535 175.333,-459.023 193.76,-445.059 236,-375 246.173,-358.127 257.207,-340.364 268.063,-323.167"/>
<polygon fill="none" stroke="#404040" points="268.369,-322.683 268.201,-315.474 274.791,-312.546 274.959,-319.755 268.369,-322.683"/>
<text text-anchor="middle" x="187" y="-627.5" font-family="Helvetica,sans-Serif" font-size="10.00"> +forceEnemyMove</text>
<text text-anchor="middle" x="187" y="-616.5" font-family="Helvetica,sans-Serif" font-size="10.00">+forceCriticalHits</text>
</g>
<!-- Node18 -->
<g id="node10" class="node"><title>Node18</title>
<g id="a_node10"><a xlink:href="class_item.html" target="_top" xlink:title="Abstract class for items that can be equipped to a player, increasing some of their stats ...">
<polygon fill="none" stroke="black" points="328.5,-732.5 328.5,-811.5 405.5,-811.5 405.5,-732.5 328.5,-732.5"/>
<text text-anchor="middle" x="367" y="-799.5" font-family="Helvetica,sans-Serif" font-size="10.00">Item</text>
<polyline fill="none" stroke="black" points="328.5,-792.5 405.5,-792.5 "/>
<text text-anchor="start" x="336.5" y="-780.5" font-family="Helvetica,sans-Serif" font-size="10.00">+ Name</text>
<text text-anchor="start" x="336.5" y="-769.5" font-family="Helvetica,sans-Serif" font-size="10.00">+ Desc</text>
<polyline fill="none" stroke="black" points="328.5,-762.5 405.5,-762.5 "/>
<text text-anchor="start" x="336.5" y="-750.5" font-family="Helvetica,sans-Serif" font-size="10.00">+ applyBuffs()</text>
<text text-anchor="start" x="336.5" y="-739.5" font-family="Helvetica,sans-Serif" font-size="10.00">+ revertBuffs()</text>
</a>
</g>
</g>
<!-- Node11&#45;&gt;Node18 -->
<g id="edge17" class="edge"><title>Node11&#45;&gt;Node18</title>
<path fill="none" stroke="#404040" d="M104.771,-1004.09C164.878,-995.19 336.586,-966.133 366,-921 384.496,-892.62 384.207,-854.219 379.575,-823.646"/>
<polygon fill="none" stroke="#404040" points="379.519,-823.322 374.545,-818.101 377.452,-811.501 382.425,-816.723 379.519,-823.322"/>
<text text-anchor="middle" x="358" y="-953" font-family="Helvetica,sans-Serif" font-size="10.00"> #desc</text>
<text text-anchor="middle" x="358" y="-942" font-family="Helvetica,sans-Serif" font-size="10.00">#name</text>
</g>
<!-- Node12&#45;&gt;Node10 -->
<g id="edge3" class="edge"><title>Node12&#45;&gt;Node10</title>
<path fill="none" stroke="#404040" d="M252.042,-535.378C246.41,-519.691 240.837,-503.433 236,-488 191.482,-345.953 150.521,-174.822 131.375,-91.5129"/>
<polygon fill="none" stroke="#404040" points="131.333,-91.3304 126.096,-86.374 128.656,-79.6328 133.894,-84.5891 131.333,-91.3304"/>
<text text-anchor="middle" x="215" y="-349" font-family="Helvetica,sans-Serif" font-size="10.00"> #target</text>
<text text-anchor="middle" x="215" y="-338" font-family="Helvetica,sans-Serif" font-size="10.00">#user</text>
</g>
<!-- Node15 -->
<g id="node7" class="node"><title>Node15</title>
<g id="a_node7"><a xlink:href="class_enemy.html" target="_top" xlink:title="Defines an AI controller enemy to fight in battle scenes">
<polygon fill="none" stroke="black" points="245.5,-403 245.5,-460 312.5,-460 312.5,-403 245.5,-403"/>
<text text-anchor="middle" x="279" y="-448" font-family="Helvetica,sans-Serif" font-size="10.00">Enemy</text>
<polyline fill="none" stroke="black" points="245.5,-441 312.5,-441 "/>
<text text-anchor="start" x="253.5" y="-429" font-family="Helvetica,sans-Serif" font-size="10.00">+ ExpGiven</text>
<polyline fill="none" stroke="black" points="245.5,-422 312.5,-422 "/>
<text text-anchor="start" x="253.5" y="-410" font-family="Helvetica,sans-Serif" font-size="10.00">+ Enemy()</text>
</a>
</g>
</g>
<!-- Node12&#45;&gt;Node15 -->
<g id="edge10" class="edge"><title>Node12&#45;&gt;Node15</title>
<path fill="none" stroke="midnightblue" d="M282.392,-525.059C281.519,-501.231 280.655,-477.647 280.017,-460.249"/>
<polygon fill="none" stroke="midnightblue" points="278.902,-525.403 282.766,-535.268 285.898,-525.147 278.902,-525.403"/>
</g>
<!-- Node17 -->
<g id="node9" class="node"><title>Node17</title>
<g id="a_node9"><a xlink:href="class_player.html" target="_top" xlink:title="Defines a playable character for use in battle scenes">
<polygon fill="none" stroke="black" points="331,-375.5 331,-487.5 443,-487.5 443,-375.5 331,-375.5"/>
<text text-anchor="middle" x="387" y="-475.5" font-family="Helvetica,sans-Serif" font-size="10.00">Player</text>
<polyline fill="none" stroke="black" points="331,-468.5 443,-468.5 "/>
<text text-anchor="start" x="339" y="-456.5" font-family="Helvetica,sans-Serif" font-size="10.00">+ Exp</text>
<text text-anchor="start" x="339" y="-445.5" font-family="Helvetica,sans-Serif" font-size="10.00">+ Item</text>
<text text-anchor="start" x="339" y="-434.5" font-family="Helvetica,sans-Serif" font-size="10.00">+ ExpToNextLevel</text>
<polyline fill="none" stroke="black" points="331,-427.5 443,-427.5 "/>
<text text-anchor="start" x="339" y="-415.5" font-family="Helvetica,sans-Serif" font-size="10.00">+ Player()</text>
<text text-anchor="start" x="339" y="-404.5" font-family="Helvetica,sans-Serif" font-size="10.00">+ gainExp()</text>
<text text-anchor="start" x="339" y="-393.5" font-family="Helvetica,sans-Serif" font-size="10.00">+ levelUp()</text>
<text text-anchor="start" x="339" y="-382.5" font-family="Helvetica,sans-Serif" font-size="10.00">&#45; setExpToNextLevel()</text>
</a>
</g>
</g>
<!-- Node12&#45;&gt;Node17 -->
<g id="edge15" class="edge"><title>Node12&#45;&gt;Node17</title>
<path fill="none" stroke="midnightblue" d="M337.492,-526.124C344.48,-512.909 351.443,-499.742 357.845,-487.635"/>
<polygon fill="none" stroke="midnightblue" points="334.237,-524.792 332.657,-535.268 340.425,-528.064 334.237,-524.792"/>
</g>
<!-- Node13 -->
<g id="node5" class="node"><title>Node13</title>
<polygon fill="none" stroke="#bfbfbf" points="414.5,-979.5 414.5,-1036.5 443.5,-1036.5 443.5,-979.5 414.5,-979.5"/>
<text text-anchor="middle" x="429" y="-1024.5" font-family="Helvetica,sans-Serif" font-size="10.00">int</text>
<polyline fill="none" stroke="#bfbfbf" points="414.5,-1017.5 443.5,-1017.5 "/>
<text text-anchor="middle" x="429" y="-1005.5" font-family="Helvetica,sans-Serif" font-size="10.00"> </text>
<polyline fill="none" stroke="#bfbfbf" points="414.5,-998.5 443.5,-998.5 "/>
<text text-anchor="middle" x="429" y="-986.5" font-family="Helvetica,sans-Serif" font-size="10.00"> </text>
</g>
<!-- Node13&#45;&gt;Node9 -->
<g id="edge20" class="edge"><title>Node13&#45;&gt;Node9</title>
<path fill="none" stroke="#404040" d="M414.37,-1007.66C379.549,-1008.43 290.729,-1005.61 238,-961 228.965,-953.356 222.143,-943.042 217.01,-932.248"/>
<polygon fill="none" stroke="#404040" points="216.898,-931.982 210.886,-927.999 212.25,-920.918 218.262,-924.901 216.898,-931.982"/>
<text text-anchor="middle" x="255.5" y="-947.5" font-family="Helvetica,sans-Serif" font-size="10.00"> #magic</text>
</g>
<!-- Node13&#45;&gt;Node12 -->
<g id="edge5" class="edge"><title>Node13&#45;&gt;Node12</title>
<path fill="none" stroke="#404040" d="M414.473,-1006.68C387.062,-1005.2 328.042,-997.684 301,-961 274.387,-924.898 274.344,-811.017 278.547,-725.882"/>
<polygon fill="none" stroke="#404040" points="278.552,-725.79 274.871,-719.589 279.18,-713.807 282.86,-720.008 278.552,-725.79"/>
<text text-anchor="middle" x="323.5" y="-911.5" font-family="Helvetica,sans-Serif" font-size="10.00"> #speed</text>
<text text-anchor="middle" x="323.5" y="-900.5" font-family="Helvetica,sans-Serif" font-size="10.00">#luck</text>
<text text-anchor="middle" x="323.5" y="-889.5" font-family="Helvetica,sans-Serif" font-size="10.00">#health</text>
<text text-anchor="middle" x="323.5" y="-878.5" font-family="Helvetica,sans-Serif" font-size="10.00">#magic</text>
<text text-anchor="middle" x="323.5" y="-867.5" font-family="Helvetica,sans-Serif" font-size="10.00">#maximumMagic</text>
<text text-anchor="middle" x="323.5" y="-856.5" font-family="Helvetica,sans-Serif" font-size="10.00">#attack</text>
<text text-anchor="middle" x="323.5" y="-845.5" font-family="Helvetica,sans-Serif" font-size="10.00">#defence</text>
<text text-anchor="middle" x="323.5" y="-834.5" font-family="Helvetica,sans-Serif" font-size="10.00">#level</text>
</g>
<!-- Node13&#45;&gt;Node14 -->
<g id="edge12" class="edge"><title>Node13&#45;&gt;Node14</title>
<path fill="none" stroke="#404040" d="M443.673,-1002.79C483.035,-990.505 588,-950.779 588,-876.5 588,-876.5 588,-876.5 588,-430.5 588,-334.544 478.024,-275.13 402.519,-245.646"/>
<polygon fill="none" stroke="#404040" points="402.401,-245.601 395.372,-247.211 391.183,-241.341 398.212,-239.732 402.401,-245.601"/>
<text text-anchor="middle" x="607.5" y="-622" font-family="Helvetica,sans-Serif" font-size="10.00"> +money</text>
</g>
<!-- Node13&#45;&gt;Node15 -->
<g id="edge11" class="edge"><title>Node13&#45;&gt;Node15</title>
<path fill="none" stroke="#404040" d="M428.644,-979.466C427.279,-881.388 421.848,-553.888 410,-535 386.438,-497.438 355.882,-516.601 322,-488 315.679,-482.665 309.688,-476.258 304.296,-469.723"/>
<polygon fill="none" stroke="#404040" points="304.228,-469.635 297.386,-467.358 296.856,-460.167 303.698,-462.444 304.228,-469.635"/>
<text text-anchor="middle" x="449" y="-769.5" font-family="Helvetica,sans-Serif" font-size="10.00"> &#45;expGiven</text>
</g>
<!-- Node13&#45;&gt;Node17 -->
<g id="edge18" class="edge"><title>Node13&#45;&gt;Node17</title>
<path fill="none" stroke="#404040" d="M438.048,-979.303C449.731,-941.853 469.353,-872.753 476,-812 489.485,-688.754 483.527,-652.171 443,-535 438.762,-522.749 433.149,-510.224 427.111,-498.327"/>
<polygon fill="none" stroke="#404040" points="427.058,-498.225 420.725,-494.775 421.474,-487.603 427.807,-491.053 427.058,-498.225"/>
<text text-anchor="middle" x="520.5" y="-775" font-family="Helvetica,sans-Serif" font-size="10.00"> &#45;expToNextLevel</text>
<text text-anchor="middle" x="520.5" y="-764" font-family="Helvetica,sans-Serif" font-size="10.00">&#45;exp</text>
</g>
<!-- Node14&#45;&gt;Node10 -->
<g id="edge7" class="edge"><title>Node14&#45;&gt;Node10</title>
<path fill="none" stroke="#404040" d="M274.797,-171.814C242.872,-144.835 203.6,-111.648 172.602,-85.452"/>
<polygon fill="none" stroke="#404040" points="172.43,-85.3068 165.265,-84.4892 163.264,-77.5612 170.429,-78.3788 172.43,-85.3068"/>
<text text-anchor="middle" x="218" y="-101" font-family="Helvetica,sans-Serif" font-size="10.00"> #manager</text>
</g>
<!-- Node15&#45;&gt;Node14 -->
<g id="edge9" class="edge"><title>Node15&#45;&gt;Node14</title>
<path fill="none" stroke="#404040" d="M286.171,-402.946C291.242,-383.46 298.392,-355.983 305.582,-328.355"/>
<polygon fill="none" stroke="#404040" points="305.638,-328.141 303.278,-321.327 308.66,-316.528 311.02,-323.342 305.638,-328.141"/>
<text text-anchor="middle" x="321" y="-343.5" font-family="Helvetica,sans-Serif" font-size="10.00"> &#45;enemy</text>
</g>
<!-- Node16 -->
<g id="node8" class="node"><title>Node16</title>
<polygon fill="none" stroke="#bfbfbf" points="461.5,-403 461.5,-460 496.5,-460 496.5,-403 461.5,-403"/>
<text text-anchor="middle" x="479" y="-448" font-family="Helvetica,sans-Serif" font-size="10.00">bool</text>
<polyline fill="none" stroke="#bfbfbf" points="461.5,-441 496.5,-441 "/>
<text text-anchor="middle" x="479" y="-429" font-family="Helvetica,sans-Serif" font-size="10.00"> </text>
<polyline fill="none" stroke="#bfbfbf" points="461.5,-422 496.5,-422 "/>
<text text-anchor="middle" x="479" y="-410" font-family="Helvetica,sans-Serif" font-size="10.00"> </text>
</g>
<!-- Node16&#45;&gt;Node14 -->
<g id="edge13" class="edge"><title>Node16&#45;&gt;Node14</title>
<path fill="none" stroke="#404040" d="M466.931,-402.783C462.611,-393.709 457.451,-383.723 452,-375 436.157,-349.645 416.905,-323.504 398.544,-300.202"/>
<polygon fill="none" stroke="#404040" points="398.488,-300.132 391.622,-297.928 391.017,-290.742 397.882,-292.947 398.488,-300.132"/>
<text text-anchor="middle" x="471" y="-343.5" font-family="Helvetica,sans-Serif" font-size="10.00"> &#45;wasCriticalHit</text>
</g>
<!-- Node17&#45;&gt;Node14 -->
<g id="edge14" class="edge"><title>Node17&#45;&gt;Node14</title>
<path fill="none" stroke="#404040" d="M372.671,-375.439C368.899,-360.946 364.701,-344.815 360.487,-328.623"/>
<polygon fill="none" stroke="#404040" points="360.444,-328.458 355.062,-323.659 357.422,-316.845 362.804,-321.644 360.444,-328.458"/>
<text text-anchor="middle" x="383.5" y="-343.5" font-family="Helvetica,sans-Serif" font-size="10.00"> &#45;player</text>
</g>
<!-- Node18&#45;&gt;Node17 -->
<g id="edge16" class="edge"><title>Node18&#45;&gt;Node17</title>
<path fill="none" stroke="#404040" d="M369.275,-732.499C372.617,-675.94 378.901,-569.571 383.019,-499.886"/>
<polygon fill="none" stroke="#404040" points="383.028,-499.729 379.389,-493.504 383.736,-487.75 387.375,-493.975 383.028,-499.729"/>
<text text-anchor="middle" x="393.5" y="-622" font-family="Helvetica,sans-Serif" font-size="10.00"> &#45;item</text>
</g>
</g>
</svg>
