<?xml version="1.0" encoding="UTF-8" standalone="no"?>
<!DOCTYPE svg PUBLIC "-//W3C//DTD SVG 1.1//EN"
 "http://www.w3.org/Graphics/SVG/1.1/DTD/svg11.dtd">
<!-- Generated by graphviz version 2.38.0 (20140413.2041)
 -->
<!-- Title: BeatLevelArgs Pages: 1 -->
<svg width="282pt" height="277pt"
 viewBox="0.00 0.00 281.50 277.00" xmlns="http://www.w3.org/2000/svg" xmlns:xlink="http://www.w3.org/1999/xlink">
<g id="graph0" class="graph" transform="scale(1 1) rotate(0) translate(4 273)">
<title>BeatLevelArgs</title>
<!-- Node3 -->
<g id="node1" class="node"><title>Node3</title>
<polygon fill="#bfbfbf" stroke="black" points="134.5,-0.5 134.5,-57.5 228.5,-57.5 228.5,-0.5 134.5,-0.5"/>
<text text-anchor="middle" x="181.5" y="-45.5" font-family="Helvetica,sans-Serif" font-size="10.00">BeatLevelArgs</text>
<polyline fill="none" stroke="black" points="134.5,-38.5 228.5,-38.5 "/>
<text text-anchor="middle" x="181.5" y="-26.5" font-family="Helvetica,sans-Serif" font-size="10.00"> </text>
<polyline fill="none" stroke="black" points="134.5,-19.5 228.5,-19.5 "/>
<text text-anchor="start" x="142.5" y="-7.5" font-family="Helvetica,sans-Serif" font-size="10.00">+ BeatLevelArgs()</text>
</g>
<!-- Node4 -->
<g id="node2" class="node"><title>Node4</title>
<g id="a_node2"><a xlink:href="class_game_event_args.html" target="_top" xlink:title="Base class for passing arguments with game events ">
<polygon fill="none" stroke="black" points="0,-116.5 0,-173.5 87,-173.5 87,-116.5 0,-116.5"/>
<text text-anchor="middle" x="43.5" y="-161.5" font-family="Helvetica,sans-Serif" font-size="10.00">GameEventArgs</text>
<polyline fill="none" stroke="black" points="0,-154.5 87,-154.5 "/>
<text text-anchor="middle" x="43.5" y="-142.5" font-family="Helvetica,sans-Serif" font-size="10.00"> </text>
<polyline fill="none" stroke="black" points="0,-135.5 87,-135.5 "/>
<text text-anchor="middle" x="43.5" y="-123.5" font-family="Helvetica,sans-Serif" font-size="10.00"> </text>
</a>
</g>
</g>
<!-- Node4&#45;&gt;Node3 -->
<g id="edge1" class="edge"><title>Node4&#45;&gt;Node3</title>
<path fill="none" stroke="midnightblue" d="M84.7198,-109.949C104.898,-93.2803 128.88,-73.4685 147.923,-57.7372"/>
<polygon fill="none" stroke="midnightblue" points="82.3865,-107.337 76.906,-116.404 86.8447,-112.733 82.3865,-107.337"/>
</g>
<!-- Node4&#45;&gt;Node4 -->
<g id="edge3" class="edge"><title>Node4&#45;&gt;Node4</title>
<path fill="none" stroke="#404040" d="M87.1694,-153.454C97.4301,-152.76 105,-149.941 105,-145 105,-142.298 102.736,-140.23 99.0062,-138.798"/>
<polygon fill="none" stroke="#404040" points="98.9578,-138.789 92.3158,-141.597 87.1694,-136.546 93.8114,-133.738 98.9578,-138.789"/>
<text text-anchor="middle" x="124" y="-142.5" font-family="Helvetica,sans-Serif" font-size="10.00"> +Empty</text>
</g>
<!-- Node5 -->
<g id="node3" class="node"><title>Node5</title>
<g id="a_node3"><a xlink:href="class_event_args.html" target="_top" xlink:title="{EventArgs\n||}">
<polygon fill="none" stroke="black" points="13,-211.5 13,-268.5 74,-268.5 74,-211.5 13,-211.5"/>
<text text-anchor="middle" x="43.5" y="-256.5" font-family="Helvetica,sans-Serif" font-size="10.00">EventArgs</text>
<polyline fill="none" stroke="black" points="13,-249.5 74,-249.5 "/>
<text text-anchor="middle" x="43.5" y="-237.5" font-family="Helvetica,sans-Serif" font-size="10.00"> </text>
<polyline fill="none" stroke="black" points="13,-230.5 74,-230.5 "/>
<text text-anchor="middle" x="43.5" y="-218.5" font-family="Helvetica,sans-Serif" font-size="10.00"> </text>
</a>
</g>
</g>
<!-- Node5&#45;&gt;Node4 -->
<g id="edge2" class="edge"><title>Node5&#45;&gt;Node4</title>
<path fill="none" stroke="midnightblue" d="M43.5,-201.235C43.5,-192.028 43.5,-182.346 43.5,-173.705"/>
<polygon fill="none" stroke="midnightblue" points="40.0001,-201.349 43.5,-211.349 47.0001,-201.349 40.0001,-201.349"/>
</g>
<!-- Node6 -->
<g id="node4" class="node"><title>Node6</title>
<polygon fill="none" stroke="#bfbfbf" points="161,-116.5 161,-173.5 202,-173.5 202,-116.5 161,-116.5"/>
<text text-anchor="middle" x="181.5" y="-161.5" font-family="Helvetica,sans-Serif" font-size="10.00">string</text>
<polyline fill="none" stroke="#bfbfbf" points="161,-154.5 202,-154.5 "/>
<text text-anchor="middle" x="181.5" y="-142.5" font-family="Helvetica,sans-Serif" font-size="10.00"> </text>
<polyline fill="none" stroke="#bfbfbf" points="161,-135.5 202,-135.5 "/>
<text text-anchor="middle" x="181.5" y="-123.5" font-family="Helvetica,sans-Serif" font-size="10.00"> </text>
</g>
<!-- Node6&#45;&gt;Node3 -->
<g id="edge4" class="edge"><title>Node6&#45;&gt;Node3</title>
<path fill="none" stroke="#404040" d="M181.5,-116.404C181.5,-102.504 181.5,-85.3915 181.5,-70.073"/>
<polygon fill="none" stroke="#404040" points="181.5,-69.7372 177.5,-63.7372 181.5,-57.7372 185.5,-63.7372 181.5,-69.7372"/>
<text text-anchor="middle" x="198" y="-90" font-family="Helvetica,sans-Serif" font-size="10.00"> +level</text>
<text text-anchor="middle" x="198" y="-79" font-family="Helvetica,sans-Serif" font-size="10.00">+scene</text>
</g>
<!-- Node7 -->
<g id="node5" class="node"><title>Node7</title>
<polygon fill="none" stroke="#bfbfbf" points="223,-116.5 223,-173.5 252,-173.5 252,-116.5 223,-116.5"/>
<text text-anchor="middle" x="237.5" y="-161.5" font-family="Helvetica,sans-Serif" font-size="10.00">int</text>
<polyline fill="none" stroke="#bfbfbf" points="223,-154.5 252,-154.5 "/>
<text text-anchor="middle" x="237.5" y="-142.5" font-family="Helvetica,sans-Serif" font-size="10.00"> </text>
<polyline fill="none" stroke="#bfbfbf" points="223,-135.5 252,-135.5 "/>
<text text-anchor="middle" x="237.5" y="-123.5" font-family="Helvetica,sans-Serif" font-size="10.00"> </text>
</g>
<!-- Node7&#45;&gt;Node3 -->
<g id="edge5" class="edge"><title>Node7&#45;&gt;Node3</title>
<path fill="none" stroke="#404040" d="M230.766,-116.388C227.124,-103.703 222.022,-88.6915 215.5,-76 214.11,-73.295 212.566,-70.5788 210.924,-67.893"/>
<polygon fill="none" stroke="#404040" points="210.85,-67.7809 204.205,-64.9822 204.232,-57.7711 210.878,-60.5699 210.85,-67.7809"/>
<text text-anchor="middle" x="249" y="-84.5" font-family="Helvetica,sans-Serif" font-size="10.00"> +levelNum</text>
</g>
</g>
</svg>
