<?xml version="1.0" encoding="UTF-8" standalone="no"?>
<!DOCTYPE svg PUBLIC "-//W3C//DTD SVG 1.1//EN"
 "http://www.w3.org/Graphics/SVG/1.1/DTD/svg11.dtd">
<!-- Generated by graphviz version 2.38.0 (20140413.2041)
 -->
<!-- Title: DataManager.StoredData.HealingSpell Pages: 1 -->
<svg width="193pt" height="288pt"
 viewBox="0.00 0.00 193.00 288.00" xmlns="http://www.w3.org/2000/svg" xmlns:xlink="http://www.w3.org/1999/xlink">
<g id="graph0" class="graph" transform="scale(1 1) rotate(0) translate(4 284)">
<title>DataManager.StoredData.HealingSpell</title>
<!-- Node2 -->
<g id="node1" class="node"><title>Node2</title>
<polygon fill="#bfbfbf" stroke="black" points="24,-0.5 24,-68.5 185,-68.5 185,-0.5 24,-0.5"/>
<text text-anchor="start" x="32" y="-56.5" font-family="Helvetica,sans-Serif" font-size="10.00">DataManager.StoredData.Healing</text>
<text text-anchor="middle" x="104.5" y="-45.5" font-family="Helvetica,sans-Serif" font-size="10.00">Spell</text>
<polyline fill="none" stroke="black" points="24,-38.5 185,-38.5 "/>
<text text-anchor="middle" x="104.5" y="-26.5" font-family="Helvetica,sans-Serif" font-size="10.00"> </text>
<polyline fill="none" stroke="black" points="24,-19.5 185,-19.5 "/>
<text text-anchor="middle" x="104.5" y="-7.5" font-family="Helvetica,sans-Serif" font-size="10.00"> </text>
</g>
<!-- Node3 -->
<g id="node2" class="node"><title>Node3</title>
<g id="a_node2"><a xlink:href="class_data_manager_1_1_stored_data_1_1_special_move.html" target="_top" xlink:title="{SpecialMove\n||}">
<polygon fill="none" stroke="black" points="15,-106.5 15,-163.5 86,-163.5 86,-106.5 15,-106.5"/>
<text text-anchor="middle" x="50.5" y="-151.5" font-family="Helvetica,sans-Serif" font-size="10.00">SpecialMove</text>
<polyline fill="none" stroke="black" points="15,-144.5 86,-144.5 "/>
<text text-anchor="middle" x="50.5" y="-132.5" font-family="Helvetica,sans-Serif" font-size="10.00"> </text>
<polyline fill="none" stroke="black" points="15,-125.5 86,-125.5 "/>
<text text-anchor="middle" x="50.5" y="-113.5" font-family="Helvetica,sans-Serif" font-size="10.00"> </text>
</a>
</g>
</g>
<!-- Node3&#45;&gt;Node2 -->
<g id="edge1" class="edge"><title>Node3&#45;&gt;Node2</title>
<path fill="none" stroke="midnightblue" d="M70.523,-97.4767C75.715,-88.0059 81.2767,-77.8611 86.3656,-68.5784"/>
<polygon fill="none" stroke="midnightblue" points="67.4239,-95.8488 65.6857,-106.3 73.562,-99.2139 67.4239,-95.8488"/>
</g>
<!-- Node4 -->
<g id="node3" class="node"><title>Node4</title>
<polygon fill="none" stroke="#bfbfbf" points="0,-222.5 0,-279.5 41,-279.5 41,-222.5 0,-222.5"/>
<text text-anchor="middle" x="20.5" y="-267.5" font-family="Helvetica,sans-Serif" font-size="10.00">string</text>
<polyline fill="none" stroke="#bfbfbf" points="0,-260.5 41,-260.5 "/>
<text text-anchor="middle" x="20.5" y="-248.5" font-family="Helvetica,sans-Serif" font-size="10.00"> </text>
<polyline fill="none" stroke="#bfbfbf" points="0,-241.5 41,-241.5 "/>
<text text-anchor="middle" x="20.5" y="-229.5" font-family="Helvetica,sans-Serif" font-size="10.00"> </text>
</g>
<!-- Node4&#45;&gt;Node3 -->
<g id="edge2" class="edge"><title>Node4&#45;&gt;Node3</title>
<path fill="none" stroke="#404040" d="M17.5457,-222.354C17.0519,-209.799 17.6692,-194.903 21.5,-182 22.2641,-179.426 23.2163,-176.857 24.3053,-174.322"/>
<polygon fill="none" stroke="#404040" points="24.355,-174.225 23.5114,-167.063 29.7977,-163.53 30.6412,-170.692 24.355,-174.225"/>
<text text-anchor="middle" x="35.5" y="-196" font-family="Helvetica,sans-Serif" font-size="10.00"> +text</text>
<text text-anchor="middle" x="35.5" y="-185" font-family="Helvetica,sans-Serif" font-size="10.00">+desc</text>
</g>
<!-- Node5 -->
<g id="node4" class="node"><title>Node5</title>
<polygon fill="none" stroke="#bfbfbf" points="83,-222.5 83,-279.5 112,-279.5 112,-222.5 83,-222.5"/>
<text text-anchor="middle" x="97.5" y="-267.5" font-family="Helvetica,sans-Serif" font-size="10.00">int</text>
<polyline fill="none" stroke="#bfbfbf" points="83,-260.5 112,-260.5 "/>
<text text-anchor="middle" x="97.5" y="-248.5" font-family="Helvetica,sans-Serif" font-size="10.00"> </text>
<polyline fill="none" stroke="#bfbfbf" points="83,-241.5 112,-241.5 "/>
<text text-anchor="middle" x="97.5" y="-229.5" font-family="Helvetica,sans-Serif" font-size="10.00"> </text>
</g>
<!-- Node5&#45;&gt;Node2 -->
<g id="edge4" class="edge"><title>Node5&#45;&gt;Node2</title>
<path fill="none" stroke="#404040" d="M105.195,-222.459C106.569,-216.424 107.789,-210.035 108.5,-204 113.391,-162.513 111.583,-114.896 109.027,-80.8879"/>
<polygon fill="none" stroke="#404040" points="108.997,-80.5219 104.523,-74.8665 108.023,-68.5615 112.497,-74.2169 108.997,-80.5219"/>
<text text-anchor="middle" x="135.5" y="-132.5" font-family="Helvetica,sans-Serif" font-size="10.00"> +increase</text>
</g>
<!-- Node5&#45;&gt;Node3 -->
<g id="edge3" class="edge"><title>Node5&#45;&gt;Node3</title>
<path fill="none" stroke="#404040" d="M82.886,-225.11C79.2375,-218.381 75.5109,-211.016 72.5,-204 68.5779,-194.86 64.955,-184.777 61.8285,-175.238"/>
<polygon fill="none" stroke="#404040" points="61.7545,-175.003 56.1365,-170.482 58.1487,-163.558 63.7667,-168.078 61.7545,-175.003"/>
<text text-anchor="middle" x="90.5" y="-190.5" font-family="Helvetica,sans-Serif" font-size="10.00"> +magic</text>
</g>
</g>
</svg>
