<?xml version="1.0" encoding="UTF-8" standalone="no"?>
<!DOCTYPE svg PUBLIC "-//W3C//DTD SVG 1.1//EN"
 "http://www.w3.org/Graphics/SVG/1.1/DTD/svg11.dtd">
<!-- Generated by graphviz version 2.38.0 (20140413.2041)
 -->
<!-- Title: DataManager.StoredData.HealingSpell Pages: 1 -->
<svg width="169pt" height="193pt"
 viewBox="0.00 0.00 169.00 193.00" xmlns="http://www.w3.org/2000/svg" xmlns:xlink="http://www.w3.org/1999/xlink">
<g id="graph0" class="graph" transform="scale(1 1) rotate(0) translate(4 189)">
<title>DataManager.StoredData.HealingSpell</title>
<!-- Node0 -->
<g id="node1" class="node"><title>Node0</title>
<polygon fill="#bfbfbf" stroke="black" points="0,-0.5 0,-68.5 161,-68.5 161,-0.5 0,-0.5"/>
<text text-anchor="start" x="8" y="-56.5" font-family="Helvetica,sans-Serif" font-size="10.00">DataManager.StoredData.Healing</text>
<text text-anchor="middle" x="80.5" y="-45.5" font-family="Helvetica,sans-Serif" font-size="10.00">Spell</text>
<polyline fill="none" stroke="black" points="0,-38.5 161,-38.5 "/>
<text text-anchor="start" x="8" y="-26.5" font-family="Helvetica,sans-Serif" font-size="10.00">+ increase</text>
<polyline fill="none" stroke="black" points="0,-19.5 161,-19.5 "/>
<text text-anchor="middle" x="80.5" y="-7.5" font-family="Helvetica,sans-Serif" font-size="10.00"> </text>
</g>
<!-- Node1 -->
<g id="node2" class="node"><title>Node1</title>
<g id="a_node2"><a xlink:href="class_data_manager_1_1_stored_data_1_1_special_move.html" target="_top" xlink:title="{SpecialMove\n|+ text\l+ desc\l+ magic\l|}">
<polygon fill="none" stroke="black" points="45,-105.5 45,-184.5 116,-184.5 116,-105.5 45,-105.5"/>
<text text-anchor="middle" x="80.5" y="-172.5" font-family="Helvetica,sans-Serif" font-size="10.00">SpecialMove</text>
<polyline fill="none" stroke="black" points="45,-165.5 116,-165.5 "/>
<text text-anchor="start" x="53" y="-153.5" font-family="Helvetica,sans-Serif" font-size="10.00">+ text</text>
<text text-anchor="start" x="53" y="-142.5" font-family="Helvetica,sans-Serif" font-size="10.00">+ desc</text>
<text text-anchor="start" x="53" y="-131.5" font-family="Helvetica,sans-Serif" font-size="10.00">+ magic</text>
<polyline fill="none" stroke="black" points="45,-124.5 116,-124.5 "/>
<text text-anchor="middle" x="80.5" y="-112.5" font-family="Helvetica,sans-Serif" font-size="10.00"> </text>
</a>
</g>
</g>
<!-- Node1&#45;&gt;Node0 -->
<g id="edge1" class="edge"><title>Node1&#45;&gt;Node0</title>
<path fill="none" stroke="midnightblue" d="M80.5,-95.3492C80.5,-86.2824 80.5,-77.0048 80.5,-68.5439"/>
<polygon fill="none" stroke="midnightblue" points="77.0001,-95.4414 80.5,-105.441 84.0001,-95.4415 77.0001,-95.4414"/>
</g>
</g>
</svg>
