<?xml version="1.0" encoding="UTF-8" standalone="no"?>
<!DOCTYPE svg PUBLIC "-//W3C//DTD SVG 1.1//EN"
 "http://www.w3.org/Graphics/SVG/1.1/DTD/svg11.dtd">
<!-- Generated by graphviz version 2.38.0 (20140413.2041)
 -->
<!-- Title: RaceManager Pages: 1 -->
<svg width="1155pt" height="877pt"
 viewBox="0.00 0.00 1155.00 877.00" xmlns="http://www.w3.org/2000/svg" xmlns:xlink="http://www.w3.org/1999/xlink">
<g id="graph0" class="graph" transform="scale(1 1) rotate(0) translate(4 873)">
<title>RaceManager</title>
<!-- Node2 -->
<g id="node1" class="node"><title>Node2</title>
<polygon fill="#bfbfbf" stroke="black" points="479.5,-414.5 479.5,-581.5 620.5,-581.5 620.5,-414.5 479.5,-414.5"/>
<text text-anchor="middle" x="550" y="-569.5" font-family="Helvetica,sans-Serif" font-size="10.00">RaceManager</text>
<polyline fill="none" stroke="black" points="479.5,-562.5 620.5,-562.5 "/>
<text text-anchor="middle" x="550" y="-550.5" font-family="Helvetica,sans-Serif" font-size="10.00"> </text>
<polyline fill="none" stroke="black" points="479.5,-543.5 620.5,-543.5 "/>
<text text-anchor="start" x="487.5" y="-531.5" font-family="Helvetica,sans-Serif" font-size="10.00">+ PlayerHitGoal()</text>
<text text-anchor="start" x="487.5" y="-520.5" font-family="Helvetica,sans-Serif" font-size="10.00">+ GetNextGoal()</text>
<text text-anchor="start" x="487.5" y="-509.5" font-family="Helvetica,sans-Serif" font-size="10.00">+ PositionInArray()</text>
<text text-anchor="start" x="487.5" y="-498.5" font-family="Helvetica,sans-Serif" font-size="10.00">&#45; Start()</text>
<text text-anchor="start" x="487.5" y="-487.5" font-family="Helvetica,sans-Serif" font-size="10.00">&#45; Update()</text>
<text text-anchor="start" x="487.5" y="-476.5" font-family="Helvetica,sans-Serif" font-size="10.00">&#45; UpdatePlayerTimingText()</text>
<text text-anchor="start" x="487.5" y="-465.5" font-family="Helvetica,sans-Serif" font-size="10.00">&#45; LapTimeToString()</text>
<text text-anchor="start" x="487.5" y="-454.5" font-family="Helvetica,sans-Serif" font-size="10.00">&#45; FindPlayerRacePosition()</text>
<text text-anchor="start" x="487.5" y="-443.5" font-family="Helvetica,sans-Serif" font-size="10.00">&#45; SetPlayerLapText()</text>
<text text-anchor="start" x="487.5" y="-432.5" font-family="Helvetica,sans-Serif" font-size="10.00">&#45; UpdatePlayerPositionText()</text>
<text text-anchor="start" x="487.5" y="-421.5" font-family="Helvetica,sans-Serif" font-size="10.00">&#45; EndMinigame()</text>
</g>
<!-- Node13 -->
<g id="node12" class="node"><title>Node13</title>
<g id="a_node12"><a xlink:href="class_duck_a_i.html" target="_top" xlink:title="{DuckAI\n||+ BoidReachedGoal()\l+ PlayerHitGoal()\l&#45; Start()\l&#45; LateUpdate()\l&#45; MoveTowardsOtherBoids()\l&#45; AvoidOtherBoids()\l&#45; MoveTowardsGoal()\l}">
<polygon fill="none" stroke="black" points="407,-243.5 407,-366.5 543,-366.5 543,-243.5 407,-243.5"/>
<text text-anchor="middle" x="475" y="-354.5" font-family="Helvetica,sans-Serif" font-size="10.00">DuckAI</text>
<polyline fill="none" stroke="black" points="407,-347.5 543,-347.5 "/>
<text text-anchor="middle" x="475" y="-335.5" font-family="Helvetica,sans-Serif" font-size="10.00"> </text>
<polyline fill="none" stroke="black" points="407,-328.5 543,-328.5 "/>
<text text-anchor="start" x="415" y="-316.5" font-family="Helvetica,sans-Serif" font-size="10.00">+ BoidReachedGoal()</text>
<text text-anchor="start" x="415" y="-305.5" font-family="Helvetica,sans-Serif" font-size="10.00">+ PlayerHitGoal()</text>
<text text-anchor="start" x="415" y="-294.5" font-family="Helvetica,sans-Serif" font-size="10.00">&#45; Start()</text>
<text text-anchor="start" x="415" y="-283.5" font-family="Helvetica,sans-Serif" font-size="10.00">&#45; LateUpdate()</text>
<text text-anchor="start" x="415" y="-272.5" font-family="Helvetica,sans-Serif" font-size="10.00">&#45; MoveTowardsOtherBoids()</text>
<text text-anchor="start" x="415" y="-261.5" font-family="Helvetica,sans-Serif" font-size="10.00">&#45; AvoidOtherBoids()</text>
<text text-anchor="start" x="415" y="-250.5" font-family="Helvetica,sans-Serif" font-size="10.00">&#45; MoveTowardsGoal()</text>
</a>
</g>
</g>
<!-- Node2&#45;&gt;Node13 -->
<g id="edge23" class="edge"><title>Node2&#45;&gt;Node13</title>
<path fill="none" stroke="#404040" d="M480.873,-414.489C477.794,-408.452 475.116,-402.267 473,-396 471.159,-390.549 469.889,-384.805 469.064,-378.964"/>
<polygon fill="none" stroke="#404040" points="469.054,-378.853 464.52,-373.245 467.954,-366.904 472.487,-372.512 469.054,-378.853"/>
<text text-anchor="middle" x="506" y="-388" font-family="Helvetica,sans-Serif" font-size="10.00"> +raceManager</text>
</g>
<!-- Node3 -->
<g id="node2" class="node"><title>Node3</title>
<g id="a_node2"><a xlink:href="class_mono_behaviour.html" target="_top" xlink:title="{MonoBehaviour\n||}">
<polygon fill="none" stroke="black" points="286.5,-811.5 286.5,-868.5 369.5,-868.5 369.5,-811.5 286.5,-811.5"/>
<text text-anchor="middle" x="328" y="-856.5" font-family="Helvetica,sans-Serif" font-size="10.00">MonoBehaviour</text>
<polyline fill="none" stroke="black" points="286.5,-849.5 369.5,-849.5 "/>
<text text-anchor="middle" x="328" y="-837.5" font-family="Helvetica,sans-Serif" font-size="10.00"> </text>
<polyline fill="none" stroke="black" points="286.5,-830.5 369.5,-830.5 "/>
<text text-anchor="middle" x="328" y="-818.5" font-family="Helvetica,sans-Serif" font-size="10.00"> </text>
</a>
</g>
</g>
<!-- Node3&#45;&gt;Node2 -->
<g id="edge1" class="edge"><title>Node3&#45;&gt;Node2</title>
<path fill="none" stroke="midnightblue" d="M368.245,-805.29C378.877,-797.152 390.581,-788.839 402,-782 418.725,-771.984 428.464,-778.03 442,-764 468.173,-736.872 501.265,-648.789 523.878,-581.549"/>
<polygon fill="none" stroke="midnightblue" points="366.078,-802.542 360.346,-811.453 370.384,-808.061 366.078,-802.542"/>
</g>
<!-- Node4 -->
<g id="node3" class="node"><title>Node4</title>
<g id="a_node3"><a xlink:href="class_countdown.html" target="_top" xlink:title="{Countdown\n||+ StartCountdown()\l+ Update()\l}">
<polygon fill="none" stroke="black" points="496.5,-695.5 496.5,-763.5 597.5,-763.5 597.5,-695.5 496.5,-695.5"/>
<text text-anchor="middle" x="547" y="-751.5" font-family="Helvetica,sans-Serif" font-size="10.00">Countdown</text>
<polyline fill="none" stroke="black" points="496.5,-744.5 597.5,-744.5 "/>
<text text-anchor="middle" x="547" y="-732.5" font-family="Helvetica,sans-Serif" font-size="10.00"> </text>
<polyline fill="none" stroke="black" points="496.5,-725.5 597.5,-725.5 "/>
<text text-anchor="start" x="504.5" y="-713.5" font-family="Helvetica,sans-Serif" font-size="10.00">+ StartCountdown()</text>
<text text-anchor="start" x="504.5" y="-702.5" font-family="Helvetica,sans-Serif" font-size="10.00">+ Update()</text>
</a>
</g>
</g>
<!-- Node3&#45;&gt;Node4 -->
<g id="edge3" class="edge"><title>Node3&#45;&gt;Node4</title>
<path fill="none" stroke="midnightblue" d="M378.467,-806.875C393.163,-798.203 409.453,-789.23 425,-782 446.796,-771.864 453.769,-773.14 476,-764 482.681,-761.253 489.639,-758.208 496.473,-755.105"/>
<polygon fill="none" stroke="midnightblue" points="376.327,-804.077 369.544,-812.217 379.922,-810.083 376.327,-804.077"/>
</g>
<!-- Node11 -->
<g id="node10" class="node"><title>Node11</title>
<g id="a_node10"><a xlink:href="class_goal.html" target="_top" xlink:title="{Goal\n||&#45; Start()\l&#45; OnTriggerEnter2D()\l}">
<polygon fill="none" stroke="black" points="245,-127.5 245,-195.5 351,-195.5 351,-127.5 245,-127.5"/>
<text text-anchor="middle" x="298" y="-183.5" font-family="Helvetica,sans-Serif" font-size="10.00">Goal</text>
<polyline fill="none" stroke="black" points="245,-176.5 351,-176.5 "/>
<text text-anchor="middle" x="298" y="-164.5" font-family="Helvetica,sans-Serif" font-size="10.00"> </text>
<polyline fill="none" stroke="black" points="245,-157.5 351,-157.5 "/>
<text text-anchor="start" x="253" y="-145.5" font-family="Helvetica,sans-Serif" font-size="10.00">&#45; Start()</text>
<text text-anchor="start" x="253" y="-134.5" font-family="Helvetica,sans-Serif" font-size="10.00">&#45; OnTriggerEnter2D()</text>
</a>
</g>
</g>
<!-- Node3&#45;&gt;Node11 -->
<g id="edge11" class="edge"><title>Node3&#45;&gt;Node11</title>
<path fill="none" stroke="midnightblue" d="M323.395,-801.328C313.889,-721.438 292.366,-529.054 285,-367 281.912,-299.069 277.07,-281.413 286,-214 286.796,-207.993 287.979,-201.661 289.296,-195.57"/>
<polygon fill="none" stroke="midnightblue" points="319.937,-801.883 324.601,-811.395 326.887,-801.05 319.937,-801.883"/>
</g>
<!-- Node3&#45;&gt;Node13 -->
<g id="edge14" class="edge"><title>Node3&#45;&gt;Node13</title>
<path fill="none" stroke="midnightblue" d="M333.159,-801.261C337.486,-772.048 344.346,-730.689 353,-695 381.606,-577.034 426.638,-442.543 453.249,-366.61"/>
<polygon fill="none" stroke="midnightblue" points="329.654,-801.041 331.68,-811.441 336.581,-802.048 329.654,-801.041"/>
</g>
<!-- Node14 -->
<g id="node13" class="node"><title>Node14</title>
<g id="a_node13"><a xlink:href="class_boid.html" target="_top" xlink:title="{Boid\n||&#45; Start()\l&#45; Update()\l&#45; FixedUpdate()\l}">
<polygon fill="none" stroke="black" points="256.5,-0.5 256.5,-79.5 339.5,-79.5 339.5,-0.5 256.5,-0.5"/>
<text text-anchor="middle" x="298" y="-67.5" font-family="Helvetica,sans-Serif" font-size="10.00">Boid</text>
<polyline fill="none" stroke="black" points="256.5,-60.5 339.5,-60.5 "/>
<text text-anchor="middle" x="298" y="-48.5" font-family="Helvetica,sans-Serif" font-size="10.00"> </text>
<polyline fill="none" stroke="black" points="256.5,-41.5 339.5,-41.5 "/>
<text text-anchor="start" x="264.5" y="-29.5" font-family="Helvetica,sans-Serif" font-size="10.00">&#45; Start()</text>
<text text-anchor="start" x="264.5" y="-18.5" font-family="Helvetica,sans-Serif" font-size="10.00">&#45; Update()</text>
<text text-anchor="start" x="264.5" y="-7.5" font-family="Helvetica,sans-Serif" font-size="10.00">&#45; FixedUpdate()</text>
</a>
</g>
</g>
<!-- Node3&#45;&gt;Node14 -->
<g id="edge17" class="edge"><title>Node3&#45;&gt;Node14</title>
<path fill="none" stroke="midnightblue" d="M276.714,-823.854C246.722,-812.307 210.783,-793.302 190,-764 120.972,-666.676 147,-618.318 147,-499 147,-499 147,-499 147,-160.5 147,-104.502 211.644,-70.6244 256.339,-53.8933"/>
<polygon fill="none" stroke="midnightblue" points="275.622,-827.182 286.216,-827.344 278.036,-820.611 275.622,-827.182"/>
</g>
<!-- Node4&#45;&gt;Node2 -->
<g id="edge2" class="edge"><title>Node4&#45;&gt;Node2</title>
<path fill="none" stroke="#404040" d="M547.436,-695.129C547.784,-668.546 548.288,-629.958 548.758,-594.03"/>
<polygon fill="none" stroke="#404040" points="548.758,-593.968 544.837,-587.916 548.915,-581.969 552.837,-588.021 548.758,-593.968"/>
<text text-anchor="middle" x="577" y="-636" font-family="Helvetica,sans-Serif" font-size="10.00"> +countdown</text>
</g>
<!-- Node5 -->
<g id="node4" class="node"><title>Node5</title>
<polygon fill="none" stroke="#bfbfbf" points="388,-811.5 388,-868.5 446,-868.5 446,-811.5 388,-811.5"/>
<text text-anchor="middle" x="417" y="-856.5" font-family="Helvetica,sans-Serif" font-size="10.00">AudioClip</text>
<polyline fill="none" stroke="#bfbfbf" points="388,-849.5 446,-849.5 "/>
<text text-anchor="middle" x="417" y="-837.5" font-family="Helvetica,sans-Serif" font-size="10.00"> </text>
<polyline fill="none" stroke="#bfbfbf" points="388,-830.5 446,-830.5 "/>
<text text-anchor="middle" x="417" y="-818.5" font-family="Helvetica,sans-Serif" font-size="10.00"> </text>
</g>
<!-- Node5&#45;&gt;Node4 -->
<g id="edge4" class="edge"><title>Node5&#45;&gt;Node4</title>
<path fill="none" stroke="#404040" d="M421.368,-811.383C424.141,-801.175 428.657,-790.126 436,-782 449.071,-767.536 458.295,-772.16 476,-764 478.973,-762.63 482.013,-761.222 485.081,-759.796"/>
<polygon fill="none" stroke="#404040" points="485.372,-759.66 489.116,-753.497 496.245,-754.583 492.501,-760.746 485.372,-759.66"/>
<text text-anchor="middle" x="480.5" y="-785" font-family="Helvetica,sans-Serif" font-size="10.00"> +countdownSounds</text>
</g>
<!-- Node6 -->
<g id="node5" class="node"><title>Node6</title>
<polygon fill="none" stroke="#bfbfbf" points="92.5,-811.5 92.5,-868.5 127.5,-868.5 127.5,-811.5 92.5,-811.5"/>
<text text-anchor="middle" x="110" y="-856.5" font-family="Helvetica,sans-Serif" font-size="10.00">float</text>
<polyline fill="none" stroke="#bfbfbf" points="92.5,-849.5 127.5,-849.5 "/>
<text text-anchor="middle" x="110" y="-837.5" font-family="Helvetica,sans-Serif" font-size="10.00"> </text>
<polyline fill="none" stroke="#bfbfbf" points="92.5,-830.5 127.5,-830.5 "/>
<text text-anchor="middle" x="110" y="-818.5" font-family="Helvetica,sans-Serif" font-size="10.00"> </text>
</g>
<!-- Node6&#45;&gt;Node2 -->
<g id="edge26" class="edge"><title>Node6&#45;&gt;Node2</title>
<path fill="none" stroke="#404040" d="M127.69,-822.431C170.98,-782.231 286.361,-677.156 391,-600 415.637,-581.834 443.515,-563.449 468.969,-547.434"/>
<polygon fill="none" stroke="#404040" points="469.161,-547.315 472.13,-540.744 479.338,-540.957 476.369,-547.528 469.161,-547.315"/>
<text text-anchor="middle" x="289.5" y="-732.5" font-family="Helvetica,sans-Serif" font-size="10.00"> &#45;lapTime</text>
<text text-anchor="middle" x="289.5" y="-721.5" font-family="Helvetica,sans-Serif" font-size="10.00">&#45;bestTime</text>
</g>
<!-- Node6&#45;&gt;Node4 -->
<g id="edge5" class="edge"><title>Node6&#45;&gt;Node4</title>
<path fill="none" stroke="#404040" d="M127.769,-835.551C177.654,-825.747 323.112,-796.329 442,-764 455.92,-760.215 470.748,-755.754 484.741,-751.343"/>
<polygon fill="none" stroke="#404040" points="484.829,-751.315 489.329,-745.68 496.261,-747.666 491.762,-753.301 484.829,-751.315"/>
<text text-anchor="middle" x="384" y="-785" font-family="Helvetica,sans-Serif" font-size="10.00"> &#45;timer</text>
</g>
<!-- Node6&#45;&gt;Node13 -->
<g id="edge15" class="edge"><title>Node6&#45;&gt;Node13</title>
<path fill="none" stroke="#404040" d="M110.062,-811.239C110.986,-781.514 114.977,-733.436 130,-695 158.85,-621.188 310.424,-465.63 402.802,-375.185"/>
<polygon fill="none" stroke="#404040" points="402.966,-375.025 404.464,-367.971 411.551,-366.641 410.054,-373.695 402.966,-375.025"/>
<text text-anchor="middle" x="238" y="-669" font-family="Helvetica,sans-Serif" font-size="10.00"> +boidVisualTurnRate</text>
<text text-anchor="middle" x="238" y="-658" font-family="Helvetica,sans-Serif" font-size="10.00">&#45;separationFactor</text>
<text text-anchor="middle" x="238" y="-647" font-family="Helvetica,sans-Serif" font-size="10.00">+maxSpeed</text>
<text text-anchor="middle" x="238" y="-636" font-family="Helvetica,sans-Serif" font-size="10.00">+cohesionFactor</text>
<text text-anchor="middle" x="238" y="-625" font-family="Helvetica,sans-Serif" font-size="10.00">&#45;goalFactor</text>
<text text-anchor="middle" x="238" y="-614" font-family="Helvetica,sans-Serif" font-size="10.00">+acceleration</text>
<text text-anchor="middle" x="238" y="-603" font-family="Helvetica,sans-Serif" font-size="10.00">+avoidanceDistance</text>
</g>
<!-- Node6&#45;&gt;Node14 -->
<g id="edge20" class="edge"><title>Node6&#45;&gt;Node14</title>
<path fill="none" stroke="#404040" d="M92.3266,-831.477C61.2321,-816.914 0,-781.734 0,-730.5 0,-730.5 0,-730.5 0,-160.5 0,-108.448 158.609,-68.7417 244.401,-51.0721"/>
<polygon fill="none" stroke="#404040" points="244.489,-51.0544 249.577,-45.9446 256.251,-48.6761 251.162,-53.7859 244.489,-51.0544"/>
<text text-anchor="middle" x="10" y="-388" font-family="Helvetica,sans-Serif" font-size="10.00"> +dir</text>
</g>
<!-- Node7 -->
<g id="node6" class="node"><title>Node7</title>
<polygon fill="none" stroke="#bfbfbf" points="736,-811.5 736,-868.5 784,-868.5 784,-811.5 736,-811.5"/>
<text text-anchor="middle" x="760" y="-856.5" font-family="Helvetica,sans-Serif" font-size="10.00">Color []</text>
<polyline fill="none" stroke="#bfbfbf" points="736,-849.5 784,-849.5 "/>
<text text-anchor="middle" x="760" y="-837.5" font-family="Helvetica,sans-Serif" font-size="10.00"> </text>
<polyline fill="none" stroke="#bfbfbf" points="736,-830.5 784,-830.5 "/>
<text text-anchor="middle" x="760" y="-818.5" font-family="Helvetica,sans-Serif" font-size="10.00"> </text>
</g>
<!-- Node7&#45;&gt;Node2 -->
<g id="edge28" class="edge"><title>Node7&#45;&gt;Node2</title>
<path fill="none" stroke="#404040" d="M784.271,-834.461C817.892,-827.041 872.425,-810.24 853,-782 840.323,-763.57 824.276,-776.898 806,-764 773.034,-740.735 774.435,-724.587 747,-695 709.342,-654.389 665.844,-610.787 629.315,-575.043"/>
<polygon fill="none" stroke="#404040" points="629.258,-574.987 622.17,-573.657 620.671,-566.604 627.759,-567.933 629.258,-574.987"/>
<text text-anchor="middle" x="841.5" y="-727" font-family="Helvetica,sans-Serif" font-size="10.00"> +positionColors</text>
</g>
<!-- Node7&#45;&gt;Node4 -->
<g id="edge6" class="edge"><title>Node7&#45;&gt;Node4</title>
<path fill="none" stroke="#404040" d="M735.687,-816.896C722.095,-805.37 704.423,-791.694 687,-782 662.676,-768.467 634.1,-757.22 609.129,-748.725"/>
<polygon fill="none" stroke="#404040" points="608.959,-748.669 602.006,-750.58 597.567,-744.897 604.52,-742.986 608.959,-748.669"/>
<text text-anchor="middle" x="749.5" y="-785" font-family="Helvetica,sans-Serif" font-size="10.00"> +countdownColours</text>
</g>
<!-- Node8 -->
<g id="node7" class="node"><title>Node8</title>
<polygon fill="none" stroke="#bfbfbf" points="648.5,-811.5 648.5,-868.5 683.5,-868.5 683.5,-811.5 648.5,-811.5"/>
<text text-anchor="middle" x="666" y="-856.5" font-family="Helvetica,sans-Serif" font-size="10.00">bool</text>
<polyline fill="none" stroke="#bfbfbf" points="648.5,-849.5 683.5,-849.5 "/>
<text text-anchor="middle" x="666" y="-837.5" font-family="Helvetica,sans-Serif" font-size="10.00"> </text>
<polyline fill="none" stroke="#bfbfbf" points="648.5,-830.5 683.5,-830.5 "/>
<text text-anchor="middle" x="666" y="-818.5" font-family="Helvetica,sans-Serif" font-size="10.00"> </text>
</g>
<!-- Node8&#45;&gt;Node2 -->
<g id="edge29" class="edge"><title>Node8&#45;&gt;Node2</title>
<path fill="none" stroke="#404040" d="M679.85,-811.437C682.987,-802.177 684.902,-791.729 683,-782 669.916,-715.084 637.657,-645.709 608.188,-592.395"/>
<polygon fill="none" stroke="#404040" points="608.01,-592.079 601.588,-588.8 602.144,-581.611 608.566,-584.889 608.01,-592.079"/>
<text text-anchor="middle" x="711" y="-727" font-family="Helvetica,sans-Serif" font-size="10.00"> +raceRunning</text>
</g>
<!-- Node8&#45;&gt;Node4 -->
<g id="edge7" class="edge"><title>Node8&#45;&gt;Node4</title>
<path fill="none" stroke="#404040" d="M648.217,-828.946C633.864,-820.383 613.57,-807.233 598,-793 591.391,-786.958 584.902,-780.036 578.885,-773.05"/>
<polygon fill="none" stroke="#404040" points="578.672,-772.793 571.762,-770.732 571.006,-763.56 577.917,-765.621 578.672,-772.793"/>
<text text-anchor="middle" x="640.5" y="-785" font-family="Helvetica,sans-Serif" font-size="10.00"> &#45;countdownStarted</text>
</g>
<!-- Node9 -->
<g id="node8" class="node"><title>Node9</title>
<polygon fill="none" stroke="#bfbfbf" points="493,-811.5 493,-868.5 565,-868.5 565,-811.5 493,-811.5"/>
<text text-anchor="middle" x="529" y="-856.5" font-family="Helvetica,sans-Serif" font-size="10.00">AudioSource</text>
<polyline fill="none" stroke="#bfbfbf" points="493,-849.5 565,-849.5 "/>
<text text-anchor="middle" x="529" y="-837.5" font-family="Helvetica,sans-Serif" font-size="10.00"> </text>
<polyline fill="none" stroke="#bfbfbf" points="493,-830.5 565,-830.5 "/>
<text text-anchor="middle" x="529" y="-818.5" font-family="Helvetica,sans-Serif" font-size="10.00"> </text>
</g>
<!-- Node9&#45;&gt;Node4 -->
<g id="edge8" class="edge"><title>Node9&#45;&gt;Node4</title>
<path fill="none" stroke="#404040" d="M527.818,-811.302C527.86,-801.941 528.393,-791.465 530,-782 530.368,-779.832 530.811,-777.63 531.311,-775.42"/>
<polygon fill="none" stroke="#404040" points="531.357,-775.246 529.034,-768.419 534.442,-763.65 536.765,-770.476 531.357,-775.246"/>
<text text-anchor="middle" x="552.5" y="-785" font-family="Helvetica,sans-Serif" font-size="10.00"> &#45;audioSrc</text>
</g>
<!-- Node10 -->
<g id="node9" class="node"><title>Node10</title>
<polygon fill="none" stroke="#bfbfbf" points="885.5,-811.5 885.5,-868.5 920.5,-868.5 920.5,-811.5 885.5,-811.5"/>
<text text-anchor="middle" x="903" y="-856.5" font-family="Helvetica,sans-Serif" font-size="10.00">Text</text>
<polyline fill="none" stroke="#bfbfbf" points="885.5,-849.5 920.5,-849.5 "/>
<text text-anchor="middle" x="903" y="-837.5" font-family="Helvetica,sans-Serif" font-size="10.00"> </text>
<polyline fill="none" stroke="#bfbfbf" points="885.5,-830.5 920.5,-830.5 "/>
<text text-anchor="middle" x="903" y="-818.5" font-family="Helvetica,sans-Serif" font-size="10.00"> </text>
</g>
<!-- Node10&#45;&gt;Node2 -->
<g id="edge30" class="edge"><title>Node10&#45;&gt;Node2</title>
<path fill="none" stroke="#404040" d="M920.606,-812.174C949.568,-764.336 999.372,-663.388 950,-600 911.475,-550.538 738.575,-521.492 633.105,-508.07"/>
<polygon fill="none" stroke="#404040" points="632.814,-508.034 626.365,-511.261 620.906,-506.549 627.355,-503.322 632.814,-508.034"/>
<text text-anchor="middle" x="1003" y="-754.5" font-family="Helvetica,sans-Serif" font-size="10.00"> &#45;positionSuffix</text>
<text text-anchor="middle" x="1003" y="-743.5" font-family="Helvetica,sans-Serif" font-size="10.00">&#45;currentLapTime</text>
<text text-anchor="middle" x="1003" y="-732.5" font-family="Helvetica,sans-Serif" font-size="10.00">&#45;totalLaps</text>
<text text-anchor="middle" x="1003" y="-721.5" font-family="Helvetica,sans-Serif" font-size="10.00">+textPosition</text>
<text text-anchor="middle" x="1003" y="-710.5" font-family="Helvetica,sans-Serif" font-size="10.00">&#45;bestLapTime</text>
<text text-anchor="middle" x="1003" y="-699.5" font-family="Helvetica,sans-Serif" font-size="10.00">&#45;currentLap</text>
</g>
<!-- Node10&#45;&gt;Node4 -->
<g id="edge9" class="edge"><title>Node10&#45;&gt;Node4</title>
<path fill="none" stroke="#404040" d="M885.306,-826.851C865.12,-813.613 830.669,-792.874 798,-782 745.579,-764.551 729.141,-775.011 675,-764 653.549,-759.637 630.331,-753.88 609.634,-748.372"/>
<polygon fill="none" stroke="#404040" points="609.357,-748.297 602.522,-750.595 597.772,-745.17 604.607,-742.872 609.357,-748.297"/>
<text text-anchor="middle" x="837.5" y="-785" font-family="Helvetica,sans-Serif" font-size="10.00"> &#45;text</text>
</g>
<!-- Node11&#45;&gt;Node2 -->
<g id="edge10" class="edge"><title>Node11&#45;&gt;Node2</title>
<path fill="none" stroke="#404040" d="M292.016,-195.621C286.076,-238.767 282.138,-314.833 316,-367 350.712,-420.476 415.417,-453.97 468.002,-473.542"/>
<polygon fill="none" stroke="#404040" points="468.073,-473.567 475.073,-471.833 479.365,-477.627 472.366,-479.361 468.073,-473.567"/>
<text text-anchor="middle" x="357" y="-308" font-family="Helvetica,sans-Serif" font-size="10.00"> +goals</text>
<text text-anchor="middle" x="357" y="-297" font-family="Helvetica,sans-Serif" font-size="10.00">&#45;currentPlayerGoal</text>
</g>
<!-- Node11&#45;&gt;Node14 -->
<g id="edge18" class="edge"><title>Node11&#45;&gt;Node14</title>
<path fill="none" stroke="#404040" d="M298,-127.213C298,-116.244 298,-103.784 298,-91.8137"/>
<polygon fill="none" stroke="#404040" points="298,-91.5997 294,-85.5997 298,-79.5997 302,-85.5997 298,-91.5997"/>
<text text-anchor="middle" x="328" y="-101" font-family="Helvetica,sans-Serif" font-size="10.00"> +currentGoal</text>
</g>
<!-- Node12 -->
<g id="node11" class="node"><title>Node12</title>
<polygon fill="none" stroke="#bfbfbf" points="178,-276.5 178,-333.5 228,-333.5 228,-276.5 178,-276.5"/>
<text text-anchor="middle" x="203" y="-321.5" font-family="Helvetica,sans-Serif" font-size="10.00">Vector2</text>
<polyline fill="none" stroke="#bfbfbf" points="178,-314.5 228,-314.5 "/>
<text text-anchor="middle" x="203" y="-302.5" font-family="Helvetica,sans-Serif" font-size="10.00"> </text>
<polyline fill="none" stroke="#bfbfbf" points="178,-295.5 228,-295.5 "/>
<text text-anchor="middle" x="203" y="-283.5" font-family="Helvetica,sans-Serif" font-size="10.00"> </text>
</g>
<!-- Node12&#45;&gt;Node11 -->
<g id="edge12" class="edge"><title>Node12&#45;&gt;Node11</title>
<path fill="none" stroke="#404040" d="M205.481,-276.396C208.291,-257.468 214.272,-232.527 227,-214 229.688,-210.088 232.774,-206.364 236.121,-202.842"/>
<polygon fill="none" stroke="#404040" points="236.198,-202.769 237.796,-195.738 244.902,-194.508 243.303,-201.54 236.198,-202.769"/>
<text text-anchor="middle" x="239.5" y="-217" font-family="Helvetica,sans-Serif" font-size="10.00"> +pos</text>
</g>
<!-- Node12&#45;&gt;Node14 -->
<g id="edge21" class="edge"><title>Node12&#45;&gt;Node14</title>
<path fill="none" stroke="#404040" d="M198.246,-276.208C193.38,-240.103 189.265,-175.911 211,-127 219.142,-108.678 233.111,-92.1733 247.501,-78.6379"/>
<polygon fill="none" stroke="#404040" points="247.53,-78.6121 249.329,-71.629 256.467,-70.6042 254.668,-77.5872 247.53,-78.6121"/>
<text text-anchor="middle" x="223.5" y="-164.5" font-family="Helvetica,sans-Serif" font-size="10.00"> +pos</text>
<text text-anchor="middle" x="223.5" y="-153.5" font-family="Helvetica,sans-Serif" font-size="10.00">+vel</text>
</g>
<!-- Node13&#45;&gt;Node2 -->
<g id="edge31" class="edge"><title>Node13&#45;&gt;Node2</title>
<path fill="none" stroke="#404040" d="M529.649,-366.795C533.253,-372.691 536.454,-378.795 539,-385 541.305,-390.617 543.213,-396.522 544.785,-402.56"/>
<polygon fill="none" stroke="#404040" points="544.791,-402.588 550.005,-407.569 547.413,-414.298 542.199,-409.317 544.791,-402.588"/>
<text text-anchor="middle" x="567.5" y="-388" font-family="Helvetica,sans-Serif" font-size="10.00"> +masterAI</text>
</g>
<!-- Node13&#45;&gt;Node11 -->
<g id="edge13" class="edge"><title>Node13&#45;&gt;Node11</title>
<path fill="none" stroke="#404040" d="M406.648,-250.845C402.119,-248.048 397.549,-245.405 393,-243 371.38,-231.568 360.459,-239.815 341,-225 333.94,-219.625 327.617,-212.75 322.133,-205.537"/>
<polygon fill="none" stroke="#404040" points="322.062,-205.434 315.345,-202.81 315.184,-195.6 321.901,-198.225 322.062,-205.434"/>
<text text-anchor="middle" x="365.5" y="-217" font-family="Helvetica,sans-Serif" font-size="10.00"> +masterAI</text>
</g>
<!-- Node14&#45;&gt;Node13 -->
<g id="edge16" class="edge"><title>Node14&#45;&gt;Node13</title>
<path fill="none" stroke="#404040" d="M339.795,-74.2192C347.698,-81.5678 355.51,-89.6643 362,-98 392.163,-136.743 389.439,-152.922 413,-196 419.54,-207.957 426.618,-220.573 433.573,-232.8"/>
<polygon fill="none" stroke="#404040" points="433.685,-232.997 440.134,-236.223 439.636,-243.417 433.187,-240.191 433.685,-232.997"/>
<text text-anchor="middle" x="429.5" y="-159" font-family="Helvetica,sans-Serif" font-size="10.00"> +boids</text>
</g>
<!-- Node15 -->
<g id="node14" class="node"><title>Node15</title>
<polygon fill="none" stroke="#bfbfbf" points="455.5,-133 455.5,-190 526.5,-190 526.5,-133 455.5,-133"/>
<text text-anchor="middle" x="491" y="-178" font-family="Helvetica,sans-Serif" font-size="10.00">Rigidbody2D</text>
<polyline fill="none" stroke="#bfbfbf" points="455.5,-171 526.5,-171 "/>
<text text-anchor="middle" x="491" y="-159" font-family="Helvetica,sans-Serif" font-size="10.00"> </text>
<polyline fill="none" stroke="#bfbfbf" points="455.5,-152 526.5,-152 "/>
<text text-anchor="middle" x="491" y="-140" font-family="Helvetica,sans-Serif" font-size="10.00"> </text>
</g>
<!-- Node15&#45;&gt;Node14 -->
<g id="edge19" class="edge"><title>Node15&#45;&gt;Node14</title>
<path fill="none" stroke="#404040" d="M462.222,-132.766C449.321,-121.173 433.534,-108.083 418,-98 397.092,-84.4281 372.45,-72.1565 350.953,-62.5062"/>
<polygon fill="none" stroke="#404040" points="350.694,-62.3922 343.591,-63.6405 339.707,-57.5647 346.81,-56.3164 350.694,-62.3922"/>
<text text-anchor="middle" x="443" y="-101" font-family="Helvetica,sans-Serif" font-size="10.00"> +rb</text>
</g>
<!-- Node16 -->
<g id="node15" class="node"><title>Node16</title>
<polygon fill="none" stroke="#bfbfbf" points="1064.5,-701 1064.5,-758 1093.5,-758 1093.5,-701 1064.5,-701"/>
<text text-anchor="middle" x="1079" y="-746" font-family="Helvetica,sans-Serif" font-size="10.00">int</text>
<polyline fill="none" stroke="#bfbfbf" points="1064.5,-739 1093.5,-739 "/>
<text text-anchor="middle" x="1079" y="-727" font-family="Helvetica,sans-Serif" font-size="10.00"> </text>
<polyline fill="none" stroke="#bfbfbf" points="1064.5,-720 1093.5,-720 "/>
<text text-anchor="middle" x="1079" y="-708" font-family="Helvetica,sans-Serif" font-size="10.00"> </text>
</g>
<!-- Node16&#45;&gt;Node2 -->
<g id="edge27" class="edge"><title>Node16&#45;&gt;Node2</title>
<path fill="none" stroke="#404040" d="M1064.14,-714.765C1056.66,-708.269 1047.22,-700.706 1038,-695 1021.42,-684.745 1010.84,-691.668 998,-677 974.473,-650.127 1000.96,-624.526 975,-600 926.244,-553.945 741.99,-523.317 632.741,-508.783"/>
<polygon fill="none" stroke="#404040" points="632.681,-508.775 626.212,-511.962 620.782,-507.217 627.251,-504.03 632.681,-508.775"/>
<text text-anchor="middle" x="1038" y="-647" font-family="Helvetica,sans-Serif" font-size="10.00"> &#45;currentPlayerLap</text>
<text text-anchor="middle" x="1038" y="-636" font-family="Helvetica,sans-Serif" font-size="10.00">&#45;playerPosition</text>
<text text-anchor="middle" x="1038" y="-625" font-family="Helvetica,sans-Serif" font-size="10.00">+lapCount</text>
</g>
<!-- Node16&#45;&gt;Node14 -->
<g id="edge22" class="edge"><title>Node16&#45;&gt;Node14</title>
<path fill="none" stroke="#404040" d="M1081.57,-700.974C1085.36,-657.925 1092,-572.031 1092,-499 1092,-499 1092,-499 1092,-160.5 1092,-85.457 530.231,-52.1091 351.746,-43.4076"/>
<polygon fill="none" stroke="#404040" points="351.557,-43.3986 345.372,-47.1065 339.571,-42.8235 345.756,-39.1157 351.557,-43.3986"/>
<text text-anchor="middle" x="1119.5" y="-302.5" font-family="Helvetica,sans-Serif" font-size="10.00"> +currentLap</text>
</g>
<!-- Node17 -->
<g id="node16" class="node"><title>Node17</title>
<polygon fill="none" stroke="#bfbfbf" points="886.5,-701 886.5,-758 927.5,-758 927.5,-701 886.5,-701"/>
<text text-anchor="middle" x="907" y="-746" font-family="Helvetica,sans-Serif" font-size="10.00">string</text>
<polyline fill="none" stroke="#bfbfbf" points="886.5,-739 927.5,-739 "/>
<text text-anchor="middle" x="907" y="-727" font-family="Helvetica,sans-Serif" font-size="10.00"> </text>
<polyline fill="none" stroke="#bfbfbf" points="886.5,-720 927.5,-720 "/>
<text text-anchor="middle" x="907" y="-708" font-family="Helvetica,sans-Serif" font-size="10.00"> </text>
</g>
<!-- Node17&#45;&gt;Node2 -->
<g id="edge24" class="edge"><title>Node17&#45;&gt;Node2</title>
<path fill="none" stroke="#404040" d="M887.594,-700.867C862.475,-665.366 820.76,-607.407 811,-600 757.996,-559.773 687.007,-533.681 632.446,-518.113"/>
<polygon fill="none" stroke="#404040" points="632.277,-518.067 625.425,-520.315 620.714,-514.855 627.566,-512.607 632.277,-518.067"/>
<text text-anchor="middle" x="909" y="-636" font-family="Helvetica,sans-Serif" font-size="10.00"> +positionSuffixes</text>
</g>
<!-- Node18 -->
<g id="node17" class="node"><title>Node18</title>
<polygon fill="none" stroke="#bfbfbf" points="362.5,-701 362.5,-758 433.5,-758 433.5,-701 362.5,-701"/>
<text text-anchor="middle" x="398" y="-746" font-family="Helvetica,sans-Serif" font-size="10.00">GameObject</text>
<polyline fill="none" stroke="#bfbfbf" points="362.5,-739 433.5,-739 "/>
<text text-anchor="middle" x="398" y="-727" font-family="Helvetica,sans-Serif" font-size="10.00"> </text>
<polyline fill="none" stroke="#bfbfbf" points="362.5,-720 433.5,-720 "/>
<text text-anchor="middle" x="398" y="-708" font-family="Helvetica,sans-Serif" font-size="10.00"> </text>
</g>
<!-- Node18&#45;&gt;Node2 -->
<g id="edge25" class="edge"><title>Node18&#45;&gt;Node2</title>
<path fill="none" stroke="#404040" d="M394.854,-700.959C393.063,-673.515 394.042,-631.092 412,-600 425.585,-576.479 447.085,-556.87 469.108,-541.381"/>
<polygon fill="none" stroke="#404040" points="469.285,-541.261 472.026,-534.591 479.237,-534.555 476.496,-541.225 469.285,-541.261"/>
<text text-anchor="middle" x="430" y="-636" font-family="Helvetica,sans-Serif" font-size="10.00"> +player</text>
</g>
</g>
</svg>
