<?xml version="1.0" encoding="UTF-8" standalone="no"?>
<!DOCTYPE svg PUBLIC "-//W3C//DTD SVG 1.1//EN"
 "http://www.w3.org/Graphics/SVG/1.1/DTD/svg11.dtd">
<!-- Generated by graphviz version 2.38.0 (20140413.2041)
 -->
<!-- Title: Enemy Pages: 1 -->
<svg width="713pt" height="1138pt"
 viewBox="0.00 0.00 713.00 1138.00" xmlns="http://www.w3.org/2000/svg" xmlns:xlink="http://www.w3.org/1999/xlink">
<g id="graph0" class="graph" transform="scale(1 1) rotate(0) translate(4 1134)">
<title>Enemy</title>
<!-- Node2 -->
<g id="node1" class="node"><title>Node2</title>
<polygon fill="#bfbfbf" stroke="black" points="400.5,-967.5 400.5,-1024.5 467.5,-1024.5 467.5,-967.5 400.5,-967.5"/>
<text text-anchor="middle" x="434" y="-1012.5" font-family="Helvetica,sans-Serif" font-size="10.00">Enemy</text>
<polyline fill="none" stroke="black" points="400.5,-1005.5 467.5,-1005.5 "/>
<text text-anchor="start" x="408.5" y="-993.5" font-family="Helvetica,sans-Serif" font-size="10.00">+ ExpGiven</text>
<polyline fill="none" stroke="black" points="400.5,-986.5 467.5,-986.5 "/>
<text text-anchor="start" x="408.5" y="-974.5" font-family="Helvetica,sans-Serif" font-size="10.00">+ Enemy()</text>
</g>
<!-- Node8 -->
<g id="node7" class="node"><title>Node8</title>
<g id="a_node7"><a xlink:href="class_battle_manager.html" target="_top" xlink:title="Holds current Player and Enemy objects in battle and provides functions for MainBattle and other obje...">
<polygon fill="none" stroke="black" points="457,-719.5 457,-908.5 573,-908.5 573,-719.5 457,-719.5"/>
<text text-anchor="middle" x="515" y="-896.5" font-family="Helvetica,sans-Serif" font-size="10.00">BattleManager</text>
<polyline fill="none" stroke="black" points="457,-889.5 573,-889.5 "/>
<text text-anchor="start" x="465" y="-877.5" font-family="Helvetica,sans-Serif" font-size="10.00">+ Player</text>
<text text-anchor="start" x="465" y="-866.5" font-family="Helvetica,sans-Serif" font-size="10.00">+ Enemy</text>
<text text-anchor="start" x="465" y="-855.5" font-family="Helvetica,sans-Serif" font-size="10.00">+ WasCriticalHit</text>
<polyline fill="none" stroke="black" points="457,-848.5 573,-848.5 "/>
<text text-anchor="start" x="465" y="-836.5" font-family="Helvetica,sans-Serif" font-size="10.00">+ BattleManager()</text>
<text text-anchor="start" x="465" y="-825.5" font-family="Helvetica,sans-Serif" font-size="10.00">+ playerFirst()</text>
<text text-anchor="start" x="465" y="-814.5" font-family="Helvetica,sans-Serif" font-size="10.00">+ switchPlayers()</text>
<text text-anchor="start" x="465" y="-803.5" font-family="Helvetica,sans-Serif" font-size="10.00">+ isCriticalHit()</text>
<text text-anchor="start" x="465" y="-792.5" font-family="Helvetica,sans-Serif" font-size="10.00">+ ranAway()</text>
<text text-anchor="start" x="465" y="-781.5" font-family="Helvetica,sans-Serif" font-size="10.00">+ damageCalculation()</text>
<text text-anchor="start" x="465" y="-770.5" font-family="Helvetica,sans-Serif" font-size="10.00">+ enemyMove()</text>
<text text-anchor="start" x="465" y="-759.5" font-family="Helvetica,sans-Serif" font-size="10.00">+ enemySpecialMove()</text>
<text text-anchor="start" x="465" y="-748.5" font-family="Helvetica,sans-Serif" font-size="10.00">+ battleWon()</text>
<text text-anchor="start" x="465" y="-737.5" font-family="Helvetica,sans-Serif" font-size="10.00">+ playerFainted()</text>
<text text-anchor="start" x="465" y="-726.5" font-family="Helvetica,sans-Serif" font-size="10.00">&#45; characterFainted()</text>
</a>
</g>
</g>
<!-- Node2&#45;&gt;Node8 -->
<g id="edge10" class="edge"><title>Node2&#45;&gt;Node8</title>
<path fill="none" stroke="#404040" d="M445.515,-967.453C450.759,-955.051 457.101,-940.249 463,-927 464.08,-924.573 465.178,-922.119 466.289,-919.646"/>
<polygon fill="none" stroke="#404040" points="466.291,-919.642 465.114,-912.527 471.229,-908.705 472.405,-915.82 466.291,-919.642"/>
<text text-anchor="middle" x="481" y="-935.5" font-family="Helvetica,sans-Serif" font-size="10.00"> &#45;enemy</text>
</g>
<!-- Node3 -->
<g id="node2" class="node"><title>Node3</title>
<g id="a_node2"><a xlink:href="class_character.html" target="_top" xlink:title="Base abstract class for Enemy and Player to inherit from. Defines all shared variables, their constructor and their setters and getters ">
<polygon fill="none" stroke="black" points="277.5,-150.5 277.5,-328.5 372.5,-328.5 372.5,-150.5 277.5,-150.5"/>
<text text-anchor="middle" x="325" y="-316.5" font-family="Helvetica,sans-Serif" font-size="10.00">Character</text>
<polyline fill="none" stroke="black" points="277.5,-309.5 372.5,-309.5 "/>
<text text-anchor="start" x="285.5" y="-297.5" font-family="Helvetica,sans-Serif" font-size="10.00">+ Name</text>
<text text-anchor="start" x="285.5" y="-286.5" font-family="Helvetica,sans-Serif" font-size="10.00">+ Level</text>
<text text-anchor="start" x="285.5" y="-275.5" font-family="Helvetica,sans-Serif" font-size="10.00">+ Health</text>
<text text-anchor="start" x="285.5" y="-264.5" font-family="Helvetica,sans-Serif" font-size="10.00">+ Attack</text>
<text text-anchor="start" x="285.5" y="-253.5" font-family="Helvetica,sans-Serif" font-size="10.00">+ Defence</text>
<text text-anchor="start" x="285.5" y="-242.5" font-family="Helvetica,sans-Serif" font-size="10.00">+ MaximumMagic</text>
<text text-anchor="start" x="285.5" y="-231.5" font-family="Helvetica,sans-Serif" font-size="10.00">+ Magic</text>
<text text-anchor="start" x="285.5" y="-220.5" font-family="Helvetica,sans-Serif" font-size="10.00">+ Luck</text>
<text text-anchor="start" x="285.5" y="-209.5" font-family="Helvetica,sans-Serif" font-size="10.00">+ Speed</text>
<text text-anchor="start" x="285.5" y="-198.5" font-family="Helvetica,sans-Serif" font-size="10.00">+ Special1</text>
<text text-anchor="start" x="285.5" y="-187.5" font-family="Helvetica,sans-Serif" font-size="10.00">+ Special2</text>
<text text-anchor="start" x="285.5" y="-176.5" font-family="Helvetica,sans-Serif" font-size="10.00">+ Image</text>
<polyline fill="none" stroke="black" points="277.5,-169.5 372.5,-169.5 "/>
<text text-anchor="start" x="285.5" y="-157.5" font-family="Helvetica,sans-Serif" font-size="10.00"># Character()</text>
</a>
</g>
</g>
<!-- Node3&#45;&gt;Node2 -->
<g id="edge1" class="edge"><title>Node3&#45;&gt;Node2</title>
<path fill="none" stroke="midnightblue" d="M373.663,-337.985C380.515,-354.096 386.936,-370.824 392,-387 459.246,-601.826 443.729,-879.504 436.567,-967.197"/>
<polygon fill="none" stroke="midnightblue" points="376.774,-336.362 369.586,-328.579 370.352,-339.146 376.774,-336.362"/>
</g>
<!-- Node7 -->
<g id="node6" class="node"><title>Node7</title>
<g id="a_node6"><a xlink:href="class_character_move.html" target="_top" xlink:title="Astract base class for character moves ">
<polygon fill="none" stroke="black" points="320,-515.5 320,-594.5 406,-594.5 406,-515.5 320,-515.5"/>
<text text-anchor="middle" x="363" y="-582.5" font-family="Helvetica,sans-Serif" font-size="10.00">CharacterMove</text>
<polyline fill="none" stroke="black" points="320,-575.5 406,-575.5 "/>
<text text-anchor="start" x="328" y="-563.5" font-family="Helvetica,sans-Serif" font-size="10.00">+ User</text>
<text text-anchor="start" x="328" y="-552.5" font-family="Helvetica,sans-Serif" font-size="10.00">+ Target</text>
<text text-anchor="start" x="328" y="-541.5" font-family="Helvetica,sans-Serif" font-size="10.00">+ Text</text>
<polyline fill="none" stroke="black" points="320,-534.5 406,-534.5 "/>
<text text-anchor="start" x="328" y="-522.5" font-family="Helvetica,sans-Serif" font-size="10.00">+ performMove()</text>
</a>
</g>
</g>
<!-- Node3&#45;&gt;Node7 -->
<g id="edge7" class="edge"><title>Node3&#45;&gt;Node7</title>
<path fill="none" stroke="#404040" d="M335.694,-328.722C342.524,-385.077 351.139,-456.145 356.845,-503.225"/>
<polygon fill="none" stroke="#404040" points="356.858,-503.332 361.551,-508.807 358.302,-515.244 353.609,-509.769 356.858,-503.332"/>
<text text-anchor="middle" x="371" y="-435.5" font-family="Helvetica,sans-Serif" font-size="10.00"> #target</text>
<text text-anchor="middle" x="371" y="-424.5" font-family="Helvetica,sans-Serif" font-size="10.00">#user</text>
</g>
<!-- Node10 -->
<g id="node9" class="node"><title>Node10</title>
<g id="a_node9"><a xlink:href="class_player.html" target="_top" xlink:title="Defines a playable character for use in battle scenes">
<polygon fill="none" stroke="black" points="411,-0.5 411,-112.5 523,-112.5 523,-0.5 411,-0.5"/>
<text text-anchor="middle" x="467" y="-100.5" font-family="Helvetica,sans-Serif" font-size="10.00">Player</text>
<polyline fill="none" stroke="black" points="411,-93.5 523,-93.5 "/>
<text text-anchor="start" x="419" y="-81.5" font-family="Helvetica,sans-Serif" font-size="10.00">+ Exp</text>
<text text-anchor="start" x="419" y="-70.5" font-family="Helvetica,sans-Serif" font-size="10.00">+ Item</text>
<text text-anchor="start" x="419" y="-59.5" font-family="Helvetica,sans-Serif" font-size="10.00">+ ExpToNextLevel</text>
<polyline fill="none" stroke="black" points="411,-52.5 523,-52.5 "/>
<text text-anchor="start" x="419" y="-40.5" font-family="Helvetica,sans-Serif" font-size="10.00">+ Player()</text>
<text text-anchor="start" x="419" y="-29.5" font-family="Helvetica,sans-Serif" font-size="10.00">+ gainExp()</text>
<text text-anchor="start" x="419" y="-18.5" font-family="Helvetica,sans-Serif" font-size="10.00">+ levelUp()</text>
<text text-anchor="start" x="419" y="-7.5" font-family="Helvetica,sans-Serif" font-size="10.00">&#45; setExpToNextLevel()</text>
</a>
</g>
</g>
<!-- Node3&#45;&gt;Node10 -->
<g id="edge14" class="edge"><title>Node3&#45;&gt;Node10</title>
<path fill="none" stroke="midnightblue" d="M378.954,-169.728C393.763,-150.851 409.625,-130.633 423.748,-112.631"/>
<polygon fill="none" stroke="midnightblue" points="376.098,-167.698 372.679,-177.726 381.605,-172.019 376.098,-167.698"/>
</g>
<!-- Node4 -->
<g id="node3" class="node"><title>Node4</title>
<polygon fill="none" stroke="#bfbfbf" points="230.5,-967.5 230.5,-1024.5 271.5,-1024.5 271.5,-967.5 230.5,-967.5"/>
<text text-anchor="middle" x="251" y="-1012.5" font-family="Helvetica,sans-Serif" font-size="10.00">string</text>
<polyline fill="none" stroke="#bfbfbf" points="230.5,-1005.5 271.5,-1005.5 "/>
<text text-anchor="middle" x="251" y="-993.5" font-family="Helvetica,sans-Serif" font-size="10.00"> </text>
<polyline fill="none" stroke="#bfbfbf" points="230.5,-986.5 271.5,-986.5 "/>
<text text-anchor="middle" x="251" y="-974.5" font-family="Helvetica,sans-Serif" font-size="10.00"> </text>
</g>
<!-- Node4&#45;&gt;Node3 -->
<g id="edge2" class="edge"><title>Node4&#45;&gt;Node3</title>
<path fill="none" stroke="#404040" d="M249.965,-967.482C246.875,-878.873 239.168,-601.715 260,-515 264.272,-497.219 272.177,-495.335 278,-478 292.803,-433.932 303.588,-383.611 311.064,-340.666"/>
<polygon fill="none" stroke="#404040" points="311.077,-340.59 308.137,-334.006 313.085,-328.76 316.025,-335.345 311.077,-340.59"/>
<text text-anchor="middle" x="285.5" y="-558" font-family="Helvetica,sans-Serif" font-size="10.00"> #image_ref</text>
<text text-anchor="middle" x="285.5" y="-547" font-family="Helvetica,sans-Serif" font-size="10.00">#name</text>
</g>
<!-- Node6 -->
<g id="node5" class="node"><title>Node6</title>
<g id="a_node5"><a xlink:href="class_special_move.html" target="_top" xlink:title="Special move abstract base class that expands upon CharacterMove, adding magic properties ...">
<polygon fill="none" stroke="black" points="171,-387.5 171,-477.5 269,-477.5 269,-387.5 171,-387.5"/>
<text text-anchor="middle" x="220" y="-465.5" font-family="Helvetica,sans-Serif" font-size="10.00">SpecialMove</text>
<polyline fill="none" stroke="black" points="171,-458.5 269,-458.5 "/>
<text text-anchor="start" x="179" y="-446.5" font-family="Helvetica,sans-Serif" font-size="10.00">+ Magic</text>
<text text-anchor="start" x="179" y="-435.5" font-family="Helvetica,sans-Serif" font-size="10.00">+ Desc</text>
<polyline fill="none" stroke="black" points="171,-428.5 269,-428.5 "/>
<text text-anchor="start" x="179" y="-416.5" font-family="Helvetica,sans-Serif" font-size="10.00">+ setUp()</text>
<text text-anchor="start" x="179" y="-405.5" font-family="Helvetica,sans-Serif" font-size="10.00">+ decreaseMagic()</text>
<text text-anchor="start" x="179" y="-394.5" font-family="Helvetica,sans-Serif" font-size="10.00"># SpecialMove()</text>
</a>
</g>
</g>
<!-- Node4&#45;&gt;Node6 -->
<g id="edge18" class="edge"><title>Node4&#45;&gt;Node6</title>
<path fill="none" stroke="#404040" d="M241.767,-967.474C239.983,-961.438 238.275,-955.044 237,-949 206.052,-802.301 201.582,-762.829 207,-613 208.495,-571.662 211.92,-525.073 214.88,-489.721"/>
<polygon fill="none" stroke="#404040" points="214.884,-489.668 211.408,-483.35 215.903,-477.712 219.379,-484.03 214.884,-489.668"/>
<text text-anchor="middle" x="222" y="-654.5" font-family="Helvetica,sans-Serif" font-size="10.00"> #desc</text>
</g>
<!-- Node4&#45;&gt;Node7 -->
<g id="edge6" class="edge"><title>Node4&#45;&gt;Node7</title>
<path fill="none" stroke="#404040" d="M259.669,-967.336C261.488,-961.309 263.353,-954.954 265,-949 298.835,-826.702 333.664,-681.544 351.274,-606.523"/>
<polygon fill="none" stroke="#404040" points="351.315,-606.345 348.789,-599.591 354.051,-594.661 356.578,-601.415 351.315,-606.345"/>
<text text-anchor="middle" x="337.5" y="-811.5" font-family="Helvetica,sans-Serif" font-size="10.00"> #text</text>
</g>
<!-- Node4&#45;&gt;Node8 -->
<g id="edge9" class="edge"><title>Node4&#45;&gt;Node8</title>
<path fill="none" stroke="#404040" d="M271.716,-980.876C308.926,-955.505 388.608,-901.176 446.674,-861.586"/>
<polygon fill="none" stroke="#404040" points="446.971,-861.384 449.675,-854.699 456.885,-854.624 454.181,-861.309 446.971,-861.384"/>
<text text-anchor="middle" x="386" y="-941" font-family="Helvetica,sans-Serif" font-size="10.00"> +forceEnemyMove</text>
<text text-anchor="middle" x="386" y="-930" font-family="Helvetica,sans-Serif" font-size="10.00">+forceCriticalHits</text>
</g>
<!-- Node11 -->
<g id="node10" class="node"><title>Node11</title>
<g id="a_node10"><a xlink:href="class_item.html" target="_top" xlink:title="Abstract class for items that can be equipped to a player, increasing some of their stats ...">
<polygon fill="none" stroke="black" points="105.5,-617.5 105.5,-696.5 182.5,-696.5 182.5,-617.5 105.5,-617.5"/>
<text text-anchor="middle" x="144" y="-684.5" font-family="Helvetica,sans-Serif" font-size="10.00">Item</text>
<polyline fill="none" stroke="black" points="105.5,-677.5 182.5,-677.5 "/>
<text text-anchor="start" x="113.5" y="-665.5" font-family="Helvetica,sans-Serif" font-size="10.00">+ Name</text>
<text text-anchor="start" x="113.5" y="-654.5" font-family="Helvetica,sans-Serif" font-size="10.00">+ Desc</text>
<polyline fill="none" stroke="black" points="105.5,-647.5 182.5,-647.5 "/>
<text text-anchor="start" x="113.5" y="-635.5" font-family="Helvetica,sans-Serif" font-size="10.00">+ applyBuffs()</text>
<text text-anchor="start" x="113.5" y="-624.5" font-family="Helvetica,sans-Serif" font-size="10.00">+ revertBuffs()</text>
</a>
</g>
</g>
<!-- Node4&#45;&gt;Node11 -->
<g id="edge16" class="edge"><title>Node4&#45;&gt;Node11</title>
<path fill="none" stroke="#404040" d="M230.427,-990.601C209.332,-984.904 177.484,-972.749 162,-949 137.01,-910.671 138.339,-781.346 141.277,-708.666"/>
<polygon fill="none" stroke="#404040" points="141.278,-708.639 137.542,-702.471 141.799,-696.65 145.535,-702.818 141.278,-708.639"/>
<text text-anchor="middle" x="177" y="-941" font-family="Helvetica,sans-Serif" font-size="10.00"> #desc</text>
<text text-anchor="middle" x="177" y="-930" font-family="Helvetica,sans-Serif" font-size="10.00">#name</text>
</g>
<!-- Node5 -->
<g id="node4" class="node"><title>Node5</title>
<polygon fill="none" stroke="#bfbfbf" points="419.5,-1072.5 419.5,-1129.5 448.5,-1129.5 448.5,-1072.5 419.5,-1072.5"/>
<text text-anchor="middle" x="434" y="-1117.5" font-family="Helvetica,sans-Serif" font-size="10.00">int</text>
<polyline fill="none" stroke="#bfbfbf" points="419.5,-1110.5 448.5,-1110.5 "/>
<text text-anchor="middle" x="434" y="-1098.5" font-family="Helvetica,sans-Serif" font-size="10.00"> </text>
<polyline fill="none" stroke="#bfbfbf" points="419.5,-1091.5 448.5,-1091.5 "/>
<text text-anchor="middle" x="434" y="-1079.5" font-family="Helvetica,sans-Serif" font-size="10.00"> </text>
</g>
<!-- Node5&#45;&gt;Node2 -->
<g id="edge20" class="edge"><title>Node5&#45;&gt;Node2</title>
<path fill="none" stroke="#404040" d="M434,-1072.4C434,-1061.55 434,-1048.87 434,-1037.05"/>
<polygon fill="none" stroke="#404040" points="434,-1036.68 430,-1030.68 434,-1024.68 438,-1030.68 434,-1036.68"/>
<text text-anchor="middle" x="457" y="-1046" font-family="Helvetica,sans-Serif" font-size="10.00"> &#45;expGiven</text>
</g>
<!-- Node5&#45;&gt;Node3 -->
<g id="edge3" class="edge"><title>Node5&#45;&gt;Node3</title>
<path fill="none" stroke="#404040" d="M419.311,-1099.74C343.5,-1097.98 0,-1085.18 0,-997 0,-997 0,-997 0,-431.5 0,-309.709 171.737,-264.056 265.531,-248.204"/>
<polygon fill="none" stroke="#404040" points="265.548,-248.201 270.833,-243.296 277.394,-246.287 272.109,-251.193 265.548,-248.201"/>
<text text-anchor="middle" x="37.5" y="-693" font-family="Helvetica,sans-Serif" font-size="10.00"> #speed</text>
<text text-anchor="middle" x="37.5" y="-682" font-family="Helvetica,sans-Serif" font-size="10.00">#luck</text>
<text text-anchor="middle" x="37.5" y="-671" font-family="Helvetica,sans-Serif" font-size="10.00">#health</text>
<text text-anchor="middle" x="37.5" y="-660" font-family="Helvetica,sans-Serif" font-size="10.00">#magic</text>
<text text-anchor="middle" x="37.5" y="-649" font-family="Helvetica,sans-Serif" font-size="10.00">#maximumMagic</text>
<text text-anchor="middle" x="37.5" y="-638" font-family="Helvetica,sans-Serif" font-size="10.00">#attack</text>
<text text-anchor="middle" x="37.5" y="-627" font-family="Helvetica,sans-Serif" font-size="10.00">#defence</text>
<text text-anchor="middle" x="37.5" y="-616" font-family="Helvetica,sans-Serif" font-size="10.00">#level</text>
</g>
<!-- Node5&#45;&gt;Node6 -->
<g id="edge19" class="edge"><title>Node5&#45;&gt;Node6</title>
<path fill="none" stroke="#404040" d="M419.219,-1098.85C353.375,-1093.32 90,-1066.82 90,-997 90,-997 90,-997 90,-554 90,-543.522 126.795,-510.087 161.234,-481.087"/>
<polygon fill="none" stroke="#404040" points="161.645,-480.744 163.684,-473.827 170.853,-473.048 168.814,-479.965 161.645,-480.744"/>
<text text-anchor="middle" x="107.5" y="-811.5" font-family="Helvetica,sans-Serif" font-size="10.00"> #magic</text>
</g>
<!-- Node5&#45;&gt;Node8 -->
<g id="edge11" class="edge"><title>Node5&#45;&gt;Node8</title>
<path fill="none" stroke="#404040" d="M448.847,-1090.6C460.429,-1082.41 475.87,-1069.45 484,-1054 505.286,-1013.56 514.051,-964.114 517.104,-920.716"/>
<polygon fill="none" stroke="#404040" points="517.11,-920.627 513.472,-914.401 517.82,-908.648 521.458,-914.874 517.11,-920.627"/>
<text text-anchor="middle" x="531.5" y="-993.5" font-family="Helvetica,sans-Serif" font-size="10.00"> +money</text>
</g>
<!-- Node5&#45;&gt;Node10 -->
<g id="edge17" class="edge"><title>Node5&#45;&gt;Node10</title>
<path fill="none" stroke="#404040" d="M448.732,-1099.19C494.314,-1095.81 630,-1078.88 630,-997 630,-997 630,-997 630,-238.5 630,-177.563 578.353,-127.878 533.203,-96.0857"/>
<polygon fill="none" stroke="#404040" points="533.005,-95.9503 525.794,-95.8694 523.095,-89.1822 530.306,-89.2632 533.005,-95.9503"/>
<text text-anchor="middle" x="667.5" y="-558" font-family="Helvetica,sans-Serif" font-size="10.00"> &#45;expToNextLevel</text>
<text text-anchor="middle" x="667.5" y="-547" font-family="Helvetica,sans-Serif" font-size="10.00">&#45;exp</text>
</g>
<!-- Node6&#45;&gt;Node3 -->
<g id="edge4" class="edge"><title>Node6&#45;&gt;Node3</title>
<path fill="none" stroke="#404040" d="M225.346,-387.213C228.026,-373.853 232.03,-359.441 238,-347 246.177,-329.961 257.615,-313.277 269.516,-298.356"/>
<polygon fill="none" stroke="#404040" points="269.743,-298.081 270.472,-290.907 277.375,-288.821 276.646,-295.995 269.743,-298.081"/>
<text text-anchor="middle" x="260.5" y="-361" font-family="Helvetica,sans-Serif" font-size="10.00"> #special1</text>
<text text-anchor="middle" x="260.5" y="-350" font-family="Helvetica,sans-Serif" font-size="10.00">#special2</text>
</g>
<!-- Node7&#45;&gt;Node6 -->
<g id="edge5" class="edge"><title>Node7&#45;&gt;Node6</title>
<path fill="none" stroke="midnightblue" d="M311.696,-510.768C297.842,-499.094 282.887,-486.492 269.155,-474.921"/>
<polygon fill="none" stroke="midnightblue" points="309.805,-513.752 319.707,-517.519 314.316,-508.399 309.805,-513.752"/>
</g>
<!-- Node8&#45;&gt;Node7 -->
<g id="edge8" class="edge"><title>Node8&#45;&gt;Node7</title>
<path fill="none" stroke="#404040" d="M459.695,-719.49C436.816,-680.807 411.228,-637.544 392.124,-605.243"/>
<polygon fill="none" stroke="#404040" points="392.016,-605.061 385.519,-601.933 385.908,-594.732 392.405,-597.86 392.016,-605.061"/>
<text text-anchor="middle" x="472" y="-654.5" font-family="Helvetica,sans-Serif" font-size="10.00"> #manager</text>
</g>
<!-- Node9 -->
<g id="node8" class="node"><title>Node9</title>
<polygon fill="none" stroke="#bfbfbf" points="566.5,-967.5 566.5,-1024.5 601.5,-1024.5 601.5,-967.5 566.5,-967.5"/>
<text text-anchor="middle" x="584" y="-1012.5" font-family="Helvetica,sans-Serif" font-size="10.00">bool</text>
<polyline fill="none" stroke="#bfbfbf" points="566.5,-1005.5 601.5,-1005.5 "/>
<text text-anchor="middle" x="584" y="-993.5" font-family="Helvetica,sans-Serif" font-size="10.00"> </text>
<polyline fill="none" stroke="#bfbfbf" points="566.5,-986.5 601.5,-986.5 "/>
<text text-anchor="middle" x="584" y="-974.5" font-family="Helvetica,sans-Serif" font-size="10.00"> </text>
</g>
<!-- Node9&#45;&gt;Node8 -->
<g id="edge12" class="edge"><title>Node9&#45;&gt;Node8</title>
<path fill="none" stroke="#404040" d="M566.283,-974.554C560.409,-966.938 554.284,-957.959 550,-949 545.639,-939.879 541.766,-930.139 538.339,-920.23"/>
<polygon fill="none" stroke="#404040" points="538.249,-919.953 532.582,-915.493 534.518,-908.547 540.185,-913.006 538.249,-919.953"/>
<text text-anchor="middle" x="583" y="-935.5" font-family="Helvetica,sans-Serif" font-size="10.00"> &#45;wasCriticalHit</text>
</g>
<!-- Node10&#45;&gt;Node8 -->
<g id="edge13" class="edge"><title>Node10&#45;&gt;Node8</title>
<path fill="none" stroke="#404040" d="M493.524,-112.8C507.998,-147.961 523,-194.916 523,-238.5 523,-556 523,-556 523,-556 523,-605.686 521.488,-660.748 519.778,-707.12"/>
<polygon fill="none" stroke="#404040" points="519.77,-707.342 523.54,-713.489 519.316,-719.333 515.546,-713.186 519.77,-707.342"/>
<text text-anchor="middle" x="539.5" y="-430" font-family="Helvetica,sans-Serif" font-size="10.00"> &#45;player</text>
</g>
<!-- Node11&#45;&gt;Node10 -->
<g id="edge15" class="edge"><title>Node11&#45;&gt;Node10</title>
<path fill="none" stroke="#404040" d="M137.905,-617.23C133.384,-585.103 128,-538.199 128,-497 128,-497 128,-497 128,-238.5 128,-116.972 299.629,-76.7498 398.647,-63.657"/>
<polygon fill="none" stroke="#404040" points="398.733,-63.6463 404.19,-58.9323 410.641,-62.1564 405.184,-66.8704 398.733,-63.6463"/>
<text text-anchor="middle" x="140.5" y="-430" font-family="Helvetica,sans-Serif" font-size="10.00"> &#45;item</text>
</g>
</g>
</svg>
