<?xml version="1.0" encoding="UTF-8" standalone="no"?>
<!DOCTYPE svg PUBLIC "-//W3C//DTD SVG 1.1//EN"
 "http://www.w3.org/Graphics/SVG/1.1/DTD/svg11.dtd">
<!-- Generated by graphviz version 2.38.0 (20140413.2041)
 -->
<!-- Title: IntChangedArgs Pages: 1 -->
<svg width="219pt" height="277pt"
 viewBox="0.00 0.00 218.50 277.00" xmlns="http://www.w3.org/2000/svg" xmlns:xlink="http://www.w3.org/1999/xlink">
<g id="graph0" class="graph" transform="scale(1 1) rotate(0) translate(4 273)">
<title>IntChangedArgs</title>
<!-- Node3 -->
<g id="node1" class="node"><title>Node3</title>
<polygon fill="#bfbfbf" stroke="black" points="92,-0.5 92,-57.5 193,-57.5 193,-0.5 92,-0.5"/>
<text text-anchor="middle" x="142.5" y="-45.5" font-family="Helvetica,sans-Serif" font-size="10.00">IntChangedArgs</text>
<polyline fill="none" stroke="black" points="92,-38.5 193,-38.5 "/>
<text text-anchor="middle" x="142.5" y="-26.5" font-family="Helvetica,sans-Serif" font-size="10.00"> </text>
<polyline fill="none" stroke="black" points="92,-19.5 193,-19.5 "/>
<text text-anchor="start" x="100" y="-7.5" font-family="Helvetica,sans-Serif" font-size="10.00">+ IntChangedArgs()</text>
</g>
<!-- Node4 -->
<g id="node2" class="node"><title>Node4</title>
<g id="a_node2"><a xlink:href="class_game_event_args.html" target="_top" xlink:title="Base class for passing arguments with game events ">
<polygon fill="none" stroke="black" points="0,-116.5 0,-173.5 87,-173.5 87,-116.5 0,-116.5"/>
<text text-anchor="middle" x="43.5" y="-161.5" font-family="Helvetica,sans-Serif" font-size="10.00">GameEventArgs</text>
<polyline fill="none" stroke="black" points="0,-154.5 87,-154.5 "/>
<text text-anchor="middle" x="43.5" y="-142.5" font-family="Helvetica,sans-Serif" font-size="10.00"> </text>
<polyline fill="none" stroke="black" points="0,-135.5 87,-135.5 "/>
<text text-anchor="middle" x="43.5" y="-123.5" font-family="Helvetica,sans-Serif" font-size="10.00"> </text>
</a>
</g>
</g>
<!-- Node4&#45;&gt;Node3 -->
<g id="edge1" class="edge"><title>Node4&#45;&gt;Node3</title>
<path fill="none" stroke="midnightblue" d="M74.2293,-108.615C88.4571,-92.2312 105.114,-73.0509 118.412,-57.7372"/>
<polygon fill="none" stroke="midnightblue" points="71.3794,-106.559 67.4651,-116.404 76.6647,-111.148 71.3794,-106.559"/>
</g>
<!-- Node4&#45;&gt;Node4 -->
<g id="edge3" class="edge"><title>Node4&#45;&gt;Node4</title>
<path fill="none" stroke="#404040" d="M87.1694,-153.454C97.4301,-152.76 105,-149.941 105,-145 105,-142.298 102.736,-140.23 99.0062,-138.798"/>
<polygon fill="none" stroke="#404040" points="98.9578,-138.789 92.3158,-141.597 87.1694,-136.546 93.8114,-133.738 98.9578,-138.789"/>
<text text-anchor="middle" x="124" y="-142.5" font-family="Helvetica,sans-Serif" font-size="10.00"> +Empty</text>
</g>
<!-- Node5 -->
<g id="node3" class="node"><title>Node5</title>
<g id="a_node3"><a xlink:href="class_event_args.html" target="_top" xlink:title="{EventArgs\n||}">
<polygon fill="none" stroke="black" points="13,-211.5 13,-268.5 74,-268.5 74,-211.5 13,-211.5"/>
<text text-anchor="middle" x="43.5" y="-256.5" font-family="Helvetica,sans-Serif" font-size="10.00">EventArgs</text>
<polyline fill="none" stroke="black" points="13,-249.5 74,-249.5 "/>
<text text-anchor="middle" x="43.5" y="-237.5" font-family="Helvetica,sans-Serif" font-size="10.00"> </text>
<polyline fill="none" stroke="black" points="13,-230.5 74,-230.5 "/>
<text text-anchor="middle" x="43.5" y="-218.5" font-family="Helvetica,sans-Serif" font-size="10.00"> </text>
</a>
</g>
</g>
<!-- Node5&#45;&gt;Node4 -->
<g id="edge2" class="edge"><title>Node5&#45;&gt;Node4</title>
<path fill="none" stroke="midnightblue" d="M43.5,-201.235C43.5,-192.028 43.5,-182.346 43.5,-173.705"/>
<polygon fill="none" stroke="midnightblue" points="40.0001,-201.349 43.5,-211.349 47.0001,-201.349 40.0001,-201.349"/>
</g>
<!-- Node6 -->
<g id="node4" class="node"><title>Node6</title>
<polygon fill="none" stroke="#bfbfbf" points="161,-116.5 161,-173.5 190,-173.5 190,-116.5 161,-116.5"/>
<text text-anchor="middle" x="175.5" y="-161.5" font-family="Helvetica,sans-Serif" font-size="10.00">int</text>
<polyline fill="none" stroke="#bfbfbf" points="161,-154.5 190,-154.5 "/>
<text text-anchor="middle" x="175.5" y="-142.5" font-family="Helvetica,sans-Serif" font-size="10.00"> </text>
<polyline fill="none" stroke="#bfbfbf" points="161,-135.5 190,-135.5 "/>
<text text-anchor="middle" x="175.5" y="-123.5" font-family="Helvetica,sans-Serif" font-size="10.00"> </text>
</g>
<!-- Node6&#45;&gt;Node3 -->
<g id="edge4" class="edge"><title>Node6&#45;&gt;Node3</title>
<path fill="none" stroke="#404040" d="M167.512,-116.404C163.448,-102.365 158.435,-85.049 153.967,-69.614"/>
<polygon fill="none" stroke="#404040" points="153.866,-69.264 148.355,-64.6129 150.529,-57.7372 156.04,-62.3883 153.866,-69.264"/>
<text text-anchor="middle" x="186" y="-90" font-family="Helvetica,sans-Serif" font-size="10.00"> &#45;newValue</text>
<text text-anchor="middle" x="186" y="-79" font-family="Helvetica,sans-Serif" font-size="10.00">+oldValue</text>
</g>
</g>
</svg>
