<?xml version="1.0" encoding="UTF-8" standalone="no"?>
<!DOCTYPE svg PUBLIC "-//W3C//DTD SVG 1.1//EN"
 "http://www.w3.org/Graphics/SVG/1.1/DTD/svg11.dtd">
<!-- Generated by graphviz version 2.38.0 (20140413.2041)
 -->
<!-- Title: CharacterEventArgs Pages: 1 -->
<svg width="126pt" height="254pt"
 viewBox="0.00 0.00 126.00 254.00" xmlns="http://www.w3.org/2000/svg" xmlns:xlink="http://www.w3.org/1999/xlink">
<g id="graph0" class="graph" transform="scale(1 1) rotate(0) translate(4 250)">
<title>CharacterEventArgs</title>
<!-- Node0 -->
<g id="node1" class="node"><title>Node0</title>
<polygon fill="#bfbfbf" stroke="black" points="0,-0.5 0,-57.5 118,-57.5 118,-0.5 0,-0.5"/>
<text text-anchor="middle" x="59" y="-45.5" font-family="Helvetica,sans-Serif" font-size="10.00">CharacterEventArgs</text>
<polyline fill="none" stroke="black" points="0,-38.5 118,-38.5 "/>
<text text-anchor="start" x="8" y="-26.5" font-family="Helvetica,sans-Serif" font-size="10.00">+ character</text>
<polyline fill="none" stroke="black" points="0,-19.5 118,-19.5 "/>
<text text-anchor="start" x="8" y="-7.5" font-family="Helvetica,sans-Serif" font-size="10.00">+ CharacterEventArgs()</text>
</g>
<!-- Node1 -->
<g id="node2" class="node"><title>Node1</title>
<g id="a_node2"><a xlink:href="class_game_event_args.html" target="_top" xlink:title="Base class for passing arguments with game events ">
<polygon fill="none" stroke="black" points="15.5,-94.5 15.5,-151.5 102.5,-151.5 102.5,-94.5 15.5,-94.5"/>
<text text-anchor="middle" x="59" y="-139.5" font-family="Helvetica,sans-Serif" font-size="10.00">GameEventArgs</text>
<polyline fill="none" stroke="black" points="15.5,-132.5 102.5,-132.5 "/>
<text text-anchor="start" x="23.5" y="-120.5" font-family="Helvetica,sans-Serif" font-size="10.00">+ Empty</text>
<polyline fill="none" stroke="black" points="15.5,-113.5 102.5,-113.5 "/>
<text text-anchor="middle" x="59" y="-101.5" font-family="Helvetica,sans-Serif" font-size="10.00"> </text>
</a>
</g>
</g>
<!-- Node1&#45;&gt;Node0 -->
<g id="edge1" class="edge"><title>Node1&#45;&gt;Node0</title>
<path fill="none" stroke="midnightblue" d="M59,-84.2092C59,-75.2929 59,-65.9513 59,-57.5836"/>
<polygon fill="none" stroke="midnightblue" points="55.5001,-84.3969 59,-94.397 62.5001,-84.397 55.5001,-84.3969"/>
</g>
<!-- Node2 -->
<g id="node3" class="node"><title>Node2</title>
<g id="a_node3"><a xlink:href="class_event_args.html" target="_top" xlink:title="{EventArgs\n||}">
<polygon fill="none" stroke="black" points="28.5,-188.5 28.5,-245.5 89.5,-245.5 89.5,-188.5 28.5,-188.5"/>
<text text-anchor="middle" x="59" y="-233.5" font-family="Helvetica,sans-Serif" font-size="10.00">EventArgs</text>
<polyline fill="none" stroke="black" points="28.5,-226.5 89.5,-226.5 "/>
<text text-anchor="middle" x="59" y="-214.5" font-family="Helvetica,sans-Serif" font-size="10.00"> </text>
<polyline fill="none" stroke="black" points="28.5,-207.5 89.5,-207.5 "/>
<text text-anchor="middle" x="59" y="-195.5" font-family="Helvetica,sans-Serif" font-size="10.00"> </text>
</a>
</g>
</g>
<!-- Node2&#45;&gt;Node1 -->
<g id="edge2" class="edge"><title>Node2&#45;&gt;Node1</title>
<path fill="none" stroke="midnightblue" d="M59,-178.209C59,-169.293 59,-159.951 59,-151.584"/>
<polygon fill="none" stroke="midnightblue" points="55.5001,-178.397 59,-188.397 62.5001,-178.397 55.5001,-178.397"/>
</g>
</g>
</svg>
