<?xml version="1.0" encoding="UTF-8" standalone="no"?>
<!DOCTYPE svg PUBLIC "-//W3C//DTD SVG 1.1//EN"
 "http://www.w3.org/Graphics/SVG/1.1/DTD/svg11.dtd">
<!-- Generated by graphviz version 2.38.0 (20140413.2041)
 -->
<!-- Title: QuestObjectives.WinBattleWithinXTurns Pages: 1 -->
<svg width="453pt" height="529pt"
 viewBox="0.00 0.00 453.00 529.00" xmlns="http://www.w3.org/2000/svg" xmlns:xlink="http://www.w3.org/1999/xlink">
<g id="graph0" class="graph" transform="scale(1 1) rotate(0) translate(4 525)">
<title>QuestObjectives.WinBattleWithinXTurns</title>
<!-- Node3 -->
<g id="node1" class="node"><title>Node3</title>
<polygon fill="#bfbfbf" stroke="black" points="219,-0.5 219,-145.5 353,-145.5 353,-0.5 219,-0.5"/>
<text text-anchor="start" x="227" y="-133.5" font-family="Helvetica,sans-Serif" font-size="10.00">QuestObjectives.WinBattle</text>
<text text-anchor="middle" x="286" y="-122.5" font-family="Helvetica,sans-Serif" font-size="10.00">WithinXTurns</text>
<polyline fill="none" stroke="black" points="219,-115.5 353,-115.5 "/>
<text text-anchor="middle" x="286" y="-103.5" font-family="Helvetica,sans-Serif" font-size="10.00"> </text>
<polyline fill="none" stroke="black" points="219,-96.5 353,-96.5 "/>
<text text-anchor="start" x="227" y="-84.5" font-family="Helvetica,sans-Serif" font-size="10.00">+ WinBattleWithinXTurns()</text>
<text text-anchor="start" x="227" y="-73.5" font-family="Helvetica,sans-Serif" font-size="10.00">+ GetObjectData()</text>
<text text-anchor="start" x="227" y="-62.5" font-family="Helvetica,sans-Serif" font-size="10.00"># subscribeHandlers()</text>
<text text-anchor="start" x="227" y="-51.5" font-family="Helvetica,sans-Serif" font-size="10.00"># unsubscribeHandlers()</text>
<text text-anchor="start" x="227" y="-40.5" font-family="Helvetica,sans-Serif" font-size="10.00"># WinBattleWithinXTurns()</text>
<text text-anchor="start" x="227" y="-29.5" font-family="Helvetica,sans-Serif" font-size="10.00">&#45; OnBattleStarted()</text>
<text text-anchor="start" x="227" y="-18.5" font-family="Helvetica,sans-Serif" font-size="10.00">&#45; OnBattleMove()</text>
<text text-anchor="start" x="227" y="-7.5" font-family="Helvetica,sans-Serif" font-size="10.00">&#45; OnBattleWon()</text>
</g>
<!-- Node4 -->
<g id="node2" class="node"><title>Node4</title>
<g id="a_node2"><a xlink:href="class_quest_objective.html" target="_top" xlink:title="Base quest objective class to be extended by actual quest objectives ">
<polygon fill="none" stroke="black" points="128.5,-204.5 128.5,-404.5 253.5,-404.5 253.5,-204.5 128.5,-204.5"/>
<text text-anchor="middle" x="191" y="-392.5" font-family="Helvetica,sans-Serif" font-size="10.00">QuestObjective</text>
<polyline fill="none" stroke="black" points="128.5,-385.5 253.5,-385.5 "/>
<text text-anchor="start" x="136.5" y="-373.5" font-family="Helvetica,sans-Serif" font-size="10.00">+ State</text>
<polyline fill="none" stroke="black" points="128.5,-366.5 253.5,-366.5 "/>
<text text-anchor="start" x="136.5" y="-354.5" font-family="Helvetica,sans-Serif" font-size="10.00">+ ObjectiveCallback()</text>
<text text-anchor="start" x="136.5" y="-343.5" font-family="Helvetica,sans-Serif" font-size="10.00">+ isComplete()</text>
<text text-anchor="start" x="136.5" y="-332.5" font-family="Helvetica,sans-Serif" font-size="10.00">+ isFailed()</text>
<text text-anchor="start" x="136.5" y="-321.5" font-family="Helvetica,sans-Serif" font-size="10.00">+ inProgress()</text>
<text text-anchor="start" x="136.5" y="-310.5" font-family="Helvetica,sans-Serif" font-size="10.00">+ GetObjectData()</text>
<text text-anchor="start" x="136.5" y="-299.5" font-family="Helvetica,sans-Serif" font-size="10.00"># QuestObjective()</text>
<text text-anchor="start" x="136.5" y="-288.5" font-family="Helvetica,sans-Serif" font-size="10.00"># setComplete()</text>
<text text-anchor="start" x="136.5" y="-277.5" font-family="Helvetica,sans-Serif" font-size="10.00"># setFailed()</text>
<text text-anchor="start" x="136.5" y="-266.5" font-family="Helvetica,sans-Serif" font-size="10.00"># subscribeHandlers()</text>
<text text-anchor="start" x="136.5" y="-255.5" font-family="Helvetica,sans-Serif" font-size="10.00"># unsubscribeHandlers()</text>
<text text-anchor="start" x="136.5" y="-244.5" font-family="Helvetica,sans-Serif" font-size="10.00"># QuestObjective()</text>
<text text-anchor="start" x="136.5" y="-233.5" font-family="Helvetica,sans-Serif" font-size="10.00"># dispose()</text>
<text text-anchor="start" x="136.5" y="-222.5" font-family="Helvetica,sans-Serif" font-size="10.00">&#45; setState()</text>
<text text-anchor="start" x="136.5" y="-211.5" font-family="Helvetica,sans-Serif" font-size="10.00">&#45; OnExitedToMainMenu()</text>
</a>
</g>
</g>
<!-- Node4&#45;&gt;Node3 -->
<g id="edge1" class="edge"><title>Node4&#45;&gt;Node3</title>
<path fill="none" stroke="midnightblue" d="M236.13,-194.474C242.969,-177.954 249.873,-161.275 256.274,-145.811"/>
<polygon fill="none" stroke="midnightblue" points="232.707,-193.594 232.116,-204.173 239.175,-196.272 232.707,-193.594"/>
</g>
<!-- Node5 -->
<g id="node3" class="node"><title>Node5</title>
<polygon fill="none" stroke="#bfbfbf" points="0,-452.5 0,-520.5 152,-520.5 152,-452.5 0,-452.5"/>
<text text-anchor="start" x="8" y="-508.5" font-family="Helvetica,sans-Serif" font-size="10.00">System::Runtime::Serialization</text>
<text text-anchor="middle" x="76" y="-497.5" font-family="Helvetica,sans-Serif" font-size="10.00">::ISerializable</text>
<polyline fill="none" stroke="#bfbfbf" points="0,-490.5 152,-490.5 "/>
<text text-anchor="middle" x="76" y="-478.5" font-family="Helvetica,sans-Serif" font-size="10.00"> </text>
<polyline fill="none" stroke="#bfbfbf" points="0,-471.5 152,-471.5 "/>
<text text-anchor="middle" x="76" y="-459.5" font-family="Helvetica,sans-Serif" font-size="10.00"> </text>
</g>
<!-- Node5&#45;&gt;Node4 -->
<g id="edge2" class="edge"><title>Node5&#45;&gt;Node4</title>
<path fill="none" stroke="midnightblue" d="M102.593,-443.877C110.429,-431.612 119.354,-417.641 128.449,-403.405"/>
<polygon fill="none" stroke="midnightblue" points="99.5273,-442.174 97.0928,-452.485 105.426,-445.943 99.5273,-442.174"/>
</g>
<!-- Node6 -->
<g id="node4" class="node"><title>Node6</title>
<polygon fill="none" stroke="#bfbfbf" points="170.5,-458 170.5,-515 211.5,-515 211.5,-458 170.5,-458"/>
<text text-anchor="middle" x="191" y="-503" font-family="Helvetica,sans-Serif" font-size="10.00">string</text>
<polyline fill="none" stroke="#bfbfbf" points="170.5,-496 211.5,-496 "/>
<text text-anchor="middle" x="191" y="-484" font-family="Helvetica,sans-Serif" font-size="10.00"> </text>
<polyline fill="none" stroke="#bfbfbf" points="170.5,-477 211.5,-477 "/>
<text text-anchor="middle" x="191" y="-465" font-family="Helvetica,sans-Serif" font-size="10.00"> </text>
</g>
<!-- Node6&#45;&gt;Node4 -->
<g id="edge3" class="edge"><title>Node6&#45;&gt;Node4</title>
<path fill="none" stroke="#404040" d="M191,-457.769C191,-446.253 191,-432.068 191,-417.032"/>
<polygon fill="none" stroke="#404040" points="191,-416.825 187,-410.825 191,-404.825 195,-410.825 191,-416.825"/>
<text text-anchor="middle" x="219.5" y="-426" font-family="Helvetica,sans-Serif" font-size="10.00"> +description</text>
</g>
<!-- Node7 -->
<g id="node5" class="node"><title>Node7</title>
<polygon fill="none" stroke="#bfbfbf" points="231,-458 231,-515 311,-515 311,-458 231,-458"/>
<text text-anchor="middle" x="271" y="-503" font-family="Helvetica,sans-Serif" font-size="10.00">ObjectiveState</text>
<polyline fill="none" stroke="#bfbfbf" points="231,-496 311,-496 "/>
<text text-anchor="middle" x="271" y="-484" font-family="Helvetica,sans-Serif" font-size="10.00"> </text>
<polyline fill="none" stroke="#bfbfbf" points="231,-477 311,-477 "/>
<text text-anchor="middle" x="271" y="-465" font-family="Helvetica,sans-Serif" font-size="10.00"> </text>
</g>
<!-- Node7&#45;&gt;Node4 -->
<g id="edge4" class="edge"><title>Node7&#45;&gt;Node4</title>
<path fill="none" stroke="#404040" d="M262.065,-457.848C258.316,-446.885 253.731,-434.238 249,-423 248.017,-420.666 247.01,-418.312 245.983,-415.946"/>
<polygon fill="none" stroke="#404040" points="245.905,-415.769 239.817,-411.904 241.043,-404.798 247.131,-408.663 245.905,-415.769"/>
<text text-anchor="middle" x="268" y="-426" font-family="Helvetica,sans-Serif" font-size="10.00"> &#45;state</text>
</g>
<!-- Node8 -->
<g id="node6" class="node"><title>Node8</title>
<polygon fill="none" stroke="#bfbfbf" points="271.5,-276 271.5,-333 300.5,-333 300.5,-276 271.5,-276"/>
<text text-anchor="middle" x="286" y="-321" font-family="Helvetica,sans-Serif" font-size="10.00">int</text>
<polyline fill="none" stroke="#bfbfbf" points="271.5,-314 300.5,-314 "/>
<text text-anchor="middle" x="286" y="-302" font-family="Helvetica,sans-Serif" font-size="10.00"> </text>
<polyline fill="none" stroke="#bfbfbf" points="271.5,-295 300.5,-295 "/>
<text text-anchor="middle" x="286" y="-283" font-family="Helvetica,sans-Serif" font-size="10.00"> </text>
</g>
<!-- Node8&#45;&gt;Node3 -->
<g id="edge5" class="edge"><title>Node8&#45;&gt;Node3</title>
<path fill="none" stroke="#404040" d="M286,-275.817C286,-246.628 286,-199.207 286,-157.664"/>
<polygon fill="none" stroke="#404040" points="286,-157.557 282,-151.557 286,-145.557 290,-151.557 286,-157.557"/>
<text text-anchor="middle" x="315" y="-178" font-family="Helvetica,sans-Serif" font-size="10.00"> &#45;turns</text>
<text text-anchor="middle" x="315" y="-167" font-family="Helvetica,sans-Serif" font-size="10.00">&#45;currentTurns</text>
</g>
<!-- Node9 -->
<g id="node7" class="node"><title>Node9</title>
<polygon fill="none" stroke="#bfbfbf" points="349.5,-276 349.5,-333 384.5,-333 384.5,-276 349.5,-276"/>
<text text-anchor="middle" x="367" y="-321" font-family="Helvetica,sans-Serif" font-size="10.00">bool</text>
<polyline fill="none" stroke="#bfbfbf" points="349.5,-314 384.5,-314 "/>
<text text-anchor="middle" x="367" y="-302" font-family="Helvetica,sans-Serif" font-size="10.00"> </text>
<polyline fill="none" stroke="#bfbfbf" points="349.5,-295 384.5,-295 "/>
<text text-anchor="middle" x="367" y="-283" font-family="Helvetica,sans-Serif" font-size="10.00"> </text>
</g>
<!-- Node9&#45;&gt;Node3 -->
<g id="edge6" class="edge"><title>Node9&#45;&gt;Node3</title>
<path fill="none" stroke="#404040" d="M366.065,-275.875C364.313,-247.075 359.302,-201.055 345,-164 344.03,-161.486 342.982,-158.97 341.867,-156.46"/>
<polygon fill="none" stroke="#404040" points="341.804,-156.327 335.596,-152.658 336.596,-145.516 342.803,-149.186 341.804,-156.327"/>
<text text-anchor="middle" x="399" y="-172.5" font-family="Helvetica,sans-Serif" font-size="10.00"> &#45;includeEnemyTurns</text>
</g>
</g>
</svg>
