<?xml version="1.0" encoding="UTF-8" standalone="no"?>
<!DOCTYPE svg PUBLIC "-//W3C//DTD SVG 1.1//EN"
 "http://www.w3.org/Graphics/SVG/1.1/DTD/svg11.dtd">
<!-- Generated by graphviz version 2.38.0 (20140413.2041)
 -->
<!-- Title: ItemEventArgs Pages: 1 -->
<svg width="252pt" height="320pt"
 viewBox="0.00 0.00 251.50 320.00" xmlns="http://www.w3.org/2000/svg" xmlns:xlink="http://www.w3.org/1999/xlink">
<g id="graph0" class="graph" transform="scale(1 1) rotate(0) translate(4 316)">
<title>ItemEventArgs</title>
<!-- Node3 -->
<g id="node1" class="node"><title>Node3</title>
<polygon fill="#bfbfbf" stroke="black" points="89,-0.5 89,-57.5 184,-57.5 184,-0.5 89,-0.5"/>
<text text-anchor="middle" x="136.5" y="-45.5" font-family="Helvetica,sans-Serif" font-size="10.00">ItemEventArgs</text>
<polyline fill="none" stroke="black" points="89,-38.5 184,-38.5 "/>
<text text-anchor="middle" x="136.5" y="-26.5" font-family="Helvetica,sans-Serif" font-size="10.00"> </text>
<polyline fill="none" stroke="black" points="89,-19.5 184,-19.5 "/>
<text text-anchor="start" x="97" y="-7.5" font-family="Helvetica,sans-Serif" font-size="10.00">+ ItemEventArgs()</text>
</g>
<!-- Node4 -->
<g id="node2" class="node"><title>Node4</title>
<g id="a_node2"><a xlink:href="class_game_event_args.html" target="_top" xlink:title="Base class for passing arguments with game events ">
<polygon fill="none" stroke="black" points="0,-122 0,-179 87,-179 87,-122 0,-122"/>
<text text-anchor="middle" x="43.5" y="-167" font-family="Helvetica,sans-Serif" font-size="10.00">GameEventArgs</text>
<polyline fill="none" stroke="black" points="0,-160 87,-160 "/>
<text text-anchor="middle" x="43.5" y="-148" font-family="Helvetica,sans-Serif" font-size="10.00"> </text>
<polyline fill="none" stroke="black" points="0,-141 87,-141 "/>
<text text-anchor="middle" x="43.5" y="-129" font-family="Helvetica,sans-Serif" font-size="10.00"> </text>
</a>
</g>
</g>
<!-- Node4&#45;&gt;Node3 -->
<g id="edge1" class="edge"><title>Node4&#45;&gt;Node3</title>
<path fill="none" stroke="midnightblue" d="M71.2938,-113.786C85.3071,-95.7801 102.04,-74.2787 115.047,-57.5658"/>
<polygon fill="none" stroke="midnightblue" points="68.4494,-111.743 65.0698,-121.784 73.9737,-116.042 68.4494,-111.743"/>
</g>
<!-- Node4&#45;&gt;Node4 -->
<g id="edge3" class="edge"><title>Node4&#45;&gt;Node4</title>
<path fill="none" stroke="#404040" d="M87.1694,-162.998C97.4301,-161.971 105,-157.805 105,-150.5 105,-146.505 102.736,-143.449 99.0062,-141.332"/>
<polygon fill="none" stroke="#404040" points="98.721,-141.252 91.862,-143.477 87.1694,-138.002 94.0284,-135.776 98.721,-141.252"/>
<text text-anchor="middle" x="124" y="-148" font-family="Helvetica,sans-Serif" font-size="10.00"> +Empty</text>
</g>
<!-- Node5 -->
<g id="node3" class="node"><title>Node5</title>
<g id="a_node3"><a xlink:href="class_event_args.html" target="_top" xlink:title="{EventArgs\n||}">
<polygon fill="none" stroke="black" points="13,-254.5 13,-311.5 74,-311.5 74,-254.5 13,-254.5"/>
<text text-anchor="middle" x="43.5" y="-299.5" font-family="Helvetica,sans-Serif" font-size="10.00">EventArgs</text>
<polyline fill="none" stroke="black" points="13,-292.5 74,-292.5 "/>
<text text-anchor="middle" x="43.5" y="-280.5" font-family="Helvetica,sans-Serif" font-size="10.00"> </text>
<polyline fill="none" stroke="black" points="13,-273.5 74,-273.5 "/>
<text text-anchor="middle" x="43.5" y="-261.5" font-family="Helvetica,sans-Serif" font-size="10.00"> </text>
</a>
</g>
</g>
<!-- Node5&#45;&gt;Node4 -->
<g id="edge2" class="edge"><title>Node5&#45;&gt;Node4</title>
<path fill="none" stroke="midnightblue" d="M43.5,-244.226C43.5,-223.427 43.5,-198.072 43.5,-179.136"/>
<polygon fill="none" stroke="midnightblue" points="40.0001,-244.324 43.5,-254.324 47.0001,-244.324 40.0001,-244.324"/>
</g>
<!-- Node6 -->
<g id="node4" class="node"><title>Node6</title>
<g id="a_node4"><a xlink:href="class_item.html" target="_top" xlink:title="Abstract class for items that can be equipped to a player, increasing some of their stats ...">
<polygon fill="none" stroke="black" points="161,-105.5 161,-195.5 238,-195.5 238,-105.5 161,-105.5"/>
<text text-anchor="middle" x="199.5" y="-183.5" font-family="Helvetica,sans-Serif" font-size="10.00">Item</text>
<polyline fill="none" stroke="black" points="161,-176.5 238,-176.5 "/>
<text text-anchor="start" x="169" y="-164.5" font-family="Helvetica,sans-Serif" font-size="10.00">+ Name</text>
<text text-anchor="start" x="169" y="-153.5" font-family="Helvetica,sans-Serif" font-size="10.00">+ Desc</text>
<text text-anchor="start" x="169" y="-142.5" font-family="Helvetica,sans-Serif" font-size="10.00">+ Cost</text>
<polyline fill="none" stroke="black" points="161,-135.5 238,-135.5 "/>
<text text-anchor="start" x="169" y="-123.5" font-family="Helvetica,sans-Serif" font-size="10.00">+ applyBuffs()</text>
<text text-anchor="start" x="169" y="-112.5" font-family="Helvetica,sans-Serif" font-size="10.00">+ revertBuffs()</text>
</a>
</g>
</g>
<!-- Node6&#45;&gt;Node3 -->
<g id="edge4" class="edge"><title>Node6&#45;&gt;Node3</title>
<path fill="none" stroke="#404040" d="M176.22,-105.342C169.845,-93.2499 162.987,-80.2416 156.794,-68.4938"/>
<polygon fill="none" stroke="#404040" points="156.693,-68.303 150.357,-64.8609 151.097,-57.6879 157.434,-61.13 156.693,-68.303"/>
<text text-anchor="middle" x="179.5" y="-79" font-family="Helvetica,sans-Serif" font-size="10.00"> +item</text>
</g>
<!-- Node7 -->
<g id="node5" class="node"><title>Node7</title>
<polygon fill="none" stroke="#bfbfbf" points="152,-254.5 152,-311.5 193,-311.5 193,-254.5 152,-254.5"/>
<text text-anchor="middle" x="172.5" y="-299.5" font-family="Helvetica,sans-Serif" font-size="10.00">string</text>
<polyline fill="none" stroke="#bfbfbf" points="152,-292.5 193,-292.5 "/>
<text text-anchor="middle" x="172.5" y="-280.5" font-family="Helvetica,sans-Serif" font-size="10.00"> </text>
<polyline fill="none" stroke="#bfbfbf" points="152,-273.5 193,-273.5 "/>
<text text-anchor="middle" x="172.5" y="-261.5" font-family="Helvetica,sans-Serif" font-size="10.00"> </text>
</g>
<!-- Node7&#45;&gt;Node6 -->
<g id="edge5" class="edge"><title>Node7&#45;&gt;Node6</title>
<path fill="none" stroke="#404040" d="M173.46,-254.322C174.27,-241.894 175.76,-227.109 178.5,-214 178.974,-211.731 179.505,-209.43 180.08,-207.116"/>
<polygon fill="none" stroke="#404040" points="180.085,-207.098 177.822,-200.251 183.271,-195.529 185.535,-202.376 180.085,-207.098"/>
<text text-anchor="middle" x="193.5" y="-228" font-family="Helvetica,sans-Serif" font-size="10.00"> #desc</text>
<text text-anchor="middle" x="193.5" y="-217" font-family="Helvetica,sans-Serif" font-size="10.00">#name</text>
</g>
<!-- Node8 -->
<g id="node6" class="node"><title>Node8</title>
<polygon fill="none" stroke="#bfbfbf" points="211,-254.5 211,-311.5 240,-311.5 240,-254.5 211,-254.5"/>
<text text-anchor="middle" x="225.5" y="-299.5" font-family="Helvetica,sans-Serif" font-size="10.00">int</text>
<polyline fill="none" stroke="#bfbfbf" points="211,-292.5 240,-292.5 "/>
<text text-anchor="middle" x="225.5" y="-280.5" font-family="Helvetica,sans-Serif" font-size="10.00"> </text>
<polyline fill="none" stroke="#bfbfbf" points="211,-273.5 240,-273.5 "/>
<text text-anchor="middle" x="225.5" y="-261.5" font-family="Helvetica,sans-Serif" font-size="10.00"> </text>
</g>
<!-- Node8&#45;&gt;Node6 -->
<g id="edge6" class="edge"><title>Node8&#45;&gt;Node6</title>
<path fill="none" stroke="#404040" d="M219.986,-254.324C217.278,-240.731 213.912,-223.837 210.696,-207.696"/>
<polygon fill="none" stroke="#404040" points="210.625,-207.336 205.529,-202.234 208.28,-195.568 213.375,-200.67 210.625,-207.336"/>
<text text-anchor="middle" x="229.5" y="-222.5" font-family="Helvetica,sans-Serif" font-size="10.00"> #cost</text>
</g>
</g>
</svg>
