<?xml version="1.0" encoding="UTF-8" standalone="no"?>
<!DOCTYPE svg PUBLIC "-//W3C//DTD SVG 1.1//EN"
 "http://www.w3.org/Graphics/SVG/1.1/DTD/svg11.dtd">
<!-- Generated by graphviz version 2.38.0 (20140413.2041)
 -->
<!-- Title: HealingSpell Pages: 1 -->
<svg width="707pt" height="1045pt"
 viewBox="0.00 0.00 707.00 1045.00" xmlns="http://www.w3.org/2000/svg" xmlns:xlink="http://www.w3.org/1999/xlink">
<g id="graph0" class="graph" transform="scale(1 1) rotate(0) translate(4 1041)">
<title>HealingSpell</title>
<!-- Node3 -->
<g id="node1" class="node"><title>Node3</title>
<polygon fill="#bfbfbf" stroke="black" points="366,-590.5 366,-658.5 452,-658.5 452,-590.5 366,-590.5"/>
<text text-anchor="middle" x="409" y="-646.5" font-family="Helvetica,sans-Serif" font-size="10.00">HealingSpell</text>
<polyline fill="none" stroke="black" points="366,-639.5 452,-639.5 "/>
<text text-anchor="middle" x="409" y="-627.5" font-family="Helvetica,sans-Serif" font-size="10.00"> </text>
<polyline fill="none" stroke="black" points="366,-620.5 452,-620.5 "/>
<text text-anchor="start" x="374" y="-608.5" font-family="Helvetica,sans-Serif" font-size="10.00">+ HealingSpell()</text>
<text text-anchor="start" x="374" y="-597.5" font-family="Helvetica,sans-Serif" font-size="10.00">+ performMove()</text>
</g>
<!-- Node4 -->
<g id="node2" class="node"><title>Node4</title>
<g id="a_node2"><a xlink:href="class_special_move.html" target="_top" xlink:title="Special move abstract base class that expands upon CharacterMove, adding magic properties ...">
<polygon fill="none" stroke="black" points="203,-830.5 203,-920.5 301,-920.5 301,-830.5 203,-830.5"/>
<text text-anchor="middle" x="252" y="-908.5" font-family="Helvetica,sans-Serif" font-size="10.00">SpecialMove</text>
<polyline fill="none" stroke="black" points="203,-901.5 301,-901.5 "/>
<text text-anchor="start" x="211" y="-889.5" font-family="Helvetica,sans-Serif" font-size="10.00">+ Magic</text>
<text text-anchor="start" x="211" y="-878.5" font-family="Helvetica,sans-Serif" font-size="10.00">+ Desc</text>
<polyline fill="none" stroke="black" points="203,-871.5 301,-871.5 "/>
<text text-anchor="start" x="211" y="-859.5" font-family="Helvetica,sans-Serif" font-size="10.00">+ setUp()</text>
<text text-anchor="start" x="211" y="-848.5" font-family="Helvetica,sans-Serif" font-size="10.00">+ decreaseMagic()</text>
<text text-anchor="start" x="211" y="-837.5" font-family="Helvetica,sans-Serif" font-size="10.00"># SpecialMove()</text>
</a>
</g>
</g>
<!-- Node4&#45;&gt;Node3 -->
<g id="edge1" class="edge"><title>Node4&#45;&gt;Node3</title>
<path fill="none" stroke="midnightblue" d="M291.141,-822.087C293.497,-818.698 295.801,-815.316 298,-812 332.678,-759.719 369.201,-696.554 390.501,-658.777"/>
<polygon fill="none" stroke="midnightblue" points="288.116,-820.305 285.212,-830.494 293.836,-824.34 288.116,-820.305"/>
</g>
<!-- Node7 -->
<g id="node5" class="node"><title>Node7</title>
<g id="a_node5"><a xlink:href="class_character.html" target="_top" xlink:title="Base abstract class for Enemy and Player to inherit from. Defines all shared variables, their constructor and their setters and getters ">
<polygon fill="none" stroke="black" points="249.5,-535.5 249.5,-713.5 344.5,-713.5 344.5,-535.5 249.5,-535.5"/>
<text text-anchor="middle" x="297" y="-701.5" font-family="Helvetica,sans-Serif" font-size="10.00">Character</text>
<polyline fill="none" stroke="black" points="249.5,-694.5 344.5,-694.5 "/>
<text text-anchor="start" x="257.5" y="-682.5" font-family="Helvetica,sans-Serif" font-size="10.00">+ Name</text>
<text text-anchor="start" x="257.5" y="-671.5" font-family="Helvetica,sans-Serif" font-size="10.00">+ Level</text>
<text text-anchor="start" x="257.5" y="-660.5" font-family="Helvetica,sans-Serif" font-size="10.00">+ Health</text>
<text text-anchor="start" x="257.5" y="-649.5" font-family="Helvetica,sans-Serif" font-size="10.00">+ Attack</text>
<text text-anchor="start" x="257.5" y="-638.5" font-family="Helvetica,sans-Serif" font-size="10.00">+ Defence</text>
<text text-anchor="start" x="257.5" y="-627.5" font-family="Helvetica,sans-Serif" font-size="10.00">+ MaximumMagic</text>
<text text-anchor="start" x="257.5" y="-616.5" font-family="Helvetica,sans-Serif" font-size="10.00">+ Magic</text>
<text text-anchor="start" x="257.5" y="-605.5" font-family="Helvetica,sans-Serif" font-size="10.00">+ Luck</text>
<text text-anchor="start" x="257.5" y="-594.5" font-family="Helvetica,sans-Serif" font-size="10.00">+ Speed</text>
<text text-anchor="start" x="257.5" y="-583.5" font-family="Helvetica,sans-Serif" font-size="10.00">+ Special1</text>
<text text-anchor="start" x="257.5" y="-572.5" font-family="Helvetica,sans-Serif" font-size="10.00">+ Special2</text>
<text text-anchor="start" x="257.5" y="-561.5" font-family="Helvetica,sans-Serif" font-size="10.00">+ Image</text>
<polyline fill="none" stroke="black" points="249.5,-554.5 344.5,-554.5 "/>
<text text-anchor="start" x="257.5" y="-542.5" font-family="Helvetica,sans-Serif" font-size="10.00"># Character()</text>
</a>
</g>
</g>
<!-- Node4&#45;&gt;Node7 -->
<g id="edge7" class="edge"><title>Node4&#45;&gt;Node7</title>
<path fill="none" stroke="#404040" d="M247.991,-830.396C246.467,-802.015 246.433,-764.495 253,-732 253.441,-729.815 253.928,-727.619 254.454,-725.417"/>
<polygon fill="none" stroke="#404040" points="254.514,-725.195 252.207,-718.363 257.626,-713.606 259.933,-720.438 254.514,-725.195"/>
<text text-anchor="middle" x="275.5" y="-775" font-family="Helvetica,sans-Serif" font-size="10.00"> #special1</text>
<text text-anchor="middle" x="275.5" y="-764" font-family="Helvetica,sans-Serif" font-size="10.00">#special2</text>
</g>
<!-- Node5 -->
<g id="node3" class="node"><title>Node5</title>
<g id="a_node3"><a xlink:href="class_character_move.html" target="_top" xlink:title="Astract base class for character moves ">
<polygon fill="none" stroke="black" points="111,-0.5 111,-79.5 197,-79.5 197,-0.5 111,-0.5"/>
<text text-anchor="middle" x="154" y="-67.5" font-family="Helvetica,sans-Serif" font-size="10.00">CharacterMove</text>
<polyline fill="none" stroke="black" points="111,-60.5 197,-60.5 "/>
<text text-anchor="start" x="119" y="-48.5" font-family="Helvetica,sans-Serif" font-size="10.00">+ User</text>
<text text-anchor="start" x="119" y="-37.5" font-family="Helvetica,sans-Serif" font-size="10.00">+ Target</text>
<text text-anchor="start" x="119" y="-26.5" font-family="Helvetica,sans-Serif" font-size="10.00">+ Text</text>
<polyline fill="none" stroke="black" points="111,-19.5 197,-19.5 "/>
<text text-anchor="start" x="119" y="-7.5" font-family="Helvetica,sans-Serif" font-size="10.00">+ performMove()</text>
</a>
</g>
</g>
<!-- Node5&#45;&gt;Node4 -->
<g id="edge2" class="edge"><title>Node5&#45;&gt;Node4</title>
<path fill="none" stroke="midnightblue" d="M150.981,-89.5293C147.519,-147.797 142.058,-248.496 140,-335 139.767,-344.775 138.297,-347.372 140,-357 141.834,-367.367 202.458,-524.784 205,-535 208.529,-549.183 234.332,-741.618 246.135,-830.304"/>
<polygon fill="none" stroke="midnightblue" points="154.477,-89.6965 151.581,-79.5051 147.489,-89.2778 154.477,-89.6965"/>
</g>
<!-- Node6 -->
<g id="node4" class="node"><title>Node6</title>
<polygon fill="none" stroke="#bfbfbf" points="67.5,-979.5 67.5,-1036.5 108.5,-1036.5 108.5,-979.5 67.5,-979.5"/>
<text text-anchor="middle" x="88" y="-1024.5" font-family="Helvetica,sans-Serif" font-size="10.00">string</text>
<polyline fill="none" stroke="#bfbfbf" points="67.5,-1017.5 108.5,-1017.5 "/>
<text text-anchor="middle" x="88" y="-1005.5" font-family="Helvetica,sans-Serif" font-size="10.00"> </text>
<polyline fill="none" stroke="#bfbfbf" points="67.5,-998.5 108.5,-998.5 "/>
<text text-anchor="middle" x="88" y="-986.5" font-family="Helvetica,sans-Serif" font-size="10.00"> </text>
</g>
<!-- Node6&#45;&gt;Node4 -->
<g id="edge20" class="edge"><title>Node6&#45;&gt;Node4</title>
<path fill="none" stroke="#404040" d="M108.66,-991.388C120.281,-982.55 135.018,-971.247 148,-961 162.755,-949.354 178.556,-936.641 193.274,-924.696"/>
<polygon fill="none" stroke="#404040" points="193.457,-924.547 195.588,-917.658 202.767,-916.975 200.635,-923.864 193.457,-924.547"/>
<text text-anchor="middle" x="189" y="-947.5" font-family="Helvetica,sans-Serif" font-size="10.00"> #desc</text>
</g>
<!-- Node6&#45;&gt;Node5 -->
<g id="edge3" class="edge"><title>Node6&#45;&gt;Node5</title>
<path fill="none" stroke="#404040" d="M67.1452,-990.436C41.1224,-967.744 0,-924.321 0,-876.5 0,-876.5 0,-876.5 0,-221 0,-157.473 56.0682,-105.075 100.543,-73.5043"/>
<polygon fill="none" stroke="#404040" points="100.811,-73.3192 103.482,-66.6211 110.693,-66.5104 108.022,-73.2086 100.811,-73.3192"/>
<text text-anchor="middle" x="12.5" y="-509" font-family="Helvetica,sans-Serif" font-size="10.00"> #text</text>
</g>
<!-- Node6&#45;&gt;Node7 -->
<g id="edge5" class="edge"><title>Node6&#45;&gt;Node7</title>
<path fill="none" stroke="#404040" d="M108.706,-981.385C113.01,-975.027 117.109,-968.016 120,-961 142.518,-906.344 117.55,-883.353 143,-830 170.822,-771.675 200.409,-769.394 242.005,-716.202"/>
<polygon fill="none" stroke="#404040" points="242.135,-716.03 242.544,-708.83 249.347,-706.439 248.938,-713.639 242.135,-716.03"/>
<text text-anchor="middle" x="168.5" y="-878.5" font-family="Helvetica,sans-Serif" font-size="10.00"> #image_ref</text>
<text text-anchor="middle" x="168.5" y="-867.5" font-family="Helvetica,sans-Serif" font-size="10.00">#name</text>
</g>
<!-- Node9 -->
<g id="node7" class="node"><title>Node9</title>
<g id="a_node7"><a xlink:href="class_battle_manager.html" target="_top" xlink:title="Holds current Player and Enemy objects in battle and provides functions for MainBattle and other obje...">
<polygon fill="none" stroke="black" points="250,-127.5 250,-316.5 366,-316.5 366,-127.5 250,-127.5"/>
<text text-anchor="middle" x="308" y="-304.5" font-family="Helvetica,sans-Serif" font-size="10.00">BattleManager</text>
<polyline fill="none" stroke="black" points="250,-297.5 366,-297.5 "/>
<text text-anchor="start" x="258" y="-285.5" font-family="Helvetica,sans-Serif" font-size="10.00">+ Player</text>
<text text-anchor="start" x="258" y="-274.5" font-family="Helvetica,sans-Serif" font-size="10.00">+ Enemy</text>
<text text-anchor="start" x="258" y="-263.5" font-family="Helvetica,sans-Serif" font-size="10.00">+ WasCriticalHit</text>
<polyline fill="none" stroke="black" points="250,-256.5 366,-256.5 "/>
<text text-anchor="start" x="258" y="-244.5" font-family="Helvetica,sans-Serif" font-size="10.00">+ BattleManager()</text>
<text text-anchor="start" x="258" y="-233.5" font-family="Helvetica,sans-Serif" font-size="10.00">+ playerFirst()</text>
<text text-anchor="start" x="258" y="-222.5" font-family="Helvetica,sans-Serif" font-size="10.00">+ switchPlayers()</text>
<text text-anchor="start" x="258" y="-211.5" font-family="Helvetica,sans-Serif" font-size="10.00">+ isCriticalHit()</text>
<text text-anchor="start" x="258" y="-200.5" font-family="Helvetica,sans-Serif" font-size="10.00">+ ranAway()</text>
<text text-anchor="start" x="258" y="-189.5" font-family="Helvetica,sans-Serif" font-size="10.00">+ damageCalculation()</text>
<text text-anchor="start" x="258" y="-178.5" font-family="Helvetica,sans-Serif" font-size="10.00">+ enemyMove()</text>
<text text-anchor="start" x="258" y="-167.5" font-family="Helvetica,sans-Serif" font-size="10.00">+ enemySpecialMove()</text>
<text text-anchor="start" x="258" y="-156.5" font-family="Helvetica,sans-Serif" font-size="10.00">+ battleWon()</text>
<text text-anchor="start" x="258" y="-145.5" font-family="Helvetica,sans-Serif" font-size="10.00">+ playerFainted()</text>
<text text-anchor="start" x="258" y="-134.5" font-family="Helvetica,sans-Serif" font-size="10.00">&#45; characterFainted()</text>
</a>
</g>
</g>
<!-- Node6&#45;&gt;Node9 -->
<g id="edge9" class="edge"><title>Node6&#45;&gt;Node9</title>
<path fill="none" stroke="#404040" d="M78.4724,-979.392C54.4657,-905.507 -3.19526,-697.82 46,-535 78.9532,-425.936 174.165,-330.598 240.241,-274.891"/>
<polygon fill="none" stroke="#404040" points="240.544,-274.639 242.597,-267.727 249.768,-266.963 247.715,-273.876 240.544,-274.639"/>
<text text-anchor="middle" x="88" y="-627.5" font-family="Helvetica,sans-Serif" font-size="10.00"> +forceEnemyMove</text>
<text text-anchor="middle" x="88" y="-616.5" font-family="Helvetica,sans-Serif" font-size="10.00">+forceCriticalHits</text>
</g>
<!-- Node13 -->
<g id="node11" class="node"><title>Node13</title>
<g id="a_node11"><a xlink:href="class_item.html" target="_top" xlink:title="Abstract class for items that can be equipped to a player, increasing some of their stats ...">
<polygon fill="none" stroke="black" points="61.5,-732.5 61.5,-811.5 138.5,-811.5 138.5,-732.5 61.5,-732.5"/>
<text text-anchor="middle" x="100" y="-799.5" font-family="Helvetica,sans-Serif" font-size="10.00">Item</text>
<polyline fill="none" stroke="black" points="61.5,-792.5 138.5,-792.5 "/>
<text text-anchor="start" x="69.5" y="-780.5" font-family="Helvetica,sans-Serif" font-size="10.00">+ Name</text>
<text text-anchor="start" x="69.5" y="-769.5" font-family="Helvetica,sans-Serif" font-size="10.00">+ Desc</text>
<polyline fill="none" stroke="black" points="61.5,-762.5 138.5,-762.5 "/>
<text text-anchor="start" x="69.5" y="-750.5" font-family="Helvetica,sans-Serif" font-size="10.00">+ applyBuffs()</text>
<text text-anchor="start" x="69.5" y="-739.5" font-family="Helvetica,sans-Serif" font-size="10.00">+ revertBuffs()</text>
</a>
</g>
</g>
<!-- Node6&#45;&gt;Node13 -->
<g id="edge18" class="edge"><title>Node6&#45;&gt;Node13</title>
<path fill="none" stroke="#404040" d="M88.6244,-979.202C88.9509,-966.882 89.4078,-952.215 90,-939 91.7365,-900.253 94.4042,-856.46 96.5476,-823.587"/>
<polygon fill="none" stroke="#404040" points="96.5513,-823.53 92.9545,-817.28 97.3404,-811.556 100.937,-817.806 96.5513,-823.53"/>
<text text-anchor="middle" x="105" y="-953" font-family="Helvetica,sans-Serif" font-size="10.00"> #desc</text>
<text text-anchor="middle" x="105" y="-942" font-family="Helvetica,sans-Serif" font-size="10.00">#name</text>
</g>
<!-- Node7&#45;&gt;Node5 -->
<g id="edge4" class="edge"><title>Node7&#45;&gt;Node5</title>
<path fill="none" stroke="#404040" d="M249.329,-549.8C238.539,-530.346 228.166,-508.924 221,-488 173.671,-349.81 159.747,-176.248 155.671,-91.8168"/>
<polygon fill="none" stroke="#404040" points="155.669,-91.7662 151.403,-85.9525 155.129,-79.7784 159.395,-85.5921 155.669,-91.7662"/>
<text text-anchor="middle" x="204" y="-349" font-family="Helvetica,sans-Serif" font-size="10.00"> #target</text>
<text text-anchor="middle" x="204" y="-338" font-family="Helvetica,sans-Serif" font-size="10.00">#user</text>
</g>
<!-- Node10 -->
<g id="node8" class="node"><title>Node10</title>
<g id="a_node8"><a xlink:href="class_enemy.html" target="_top" xlink:title="Defines an AI controller enemy to fight in battle scenes">
<polygon fill="none" stroke="black" points="584.5,-403 584.5,-460 651.5,-460 651.5,-403 584.5,-403"/>
<text text-anchor="middle" x="618" y="-448" font-family="Helvetica,sans-Serif" font-size="10.00">Enemy</text>
<polyline fill="none" stroke="black" points="584.5,-441 651.5,-441 "/>
<text text-anchor="start" x="592.5" y="-429" font-family="Helvetica,sans-Serif" font-size="10.00">+ ExpGiven</text>
<polyline fill="none" stroke="black" points="584.5,-422 651.5,-422 "/>
<text text-anchor="start" x="592.5" y="-410" font-family="Helvetica,sans-Serif" font-size="10.00">+ Enemy()</text>
</a>
</g>
</g>
<!-- Node7&#45;&gt;Node10 -->
<g id="edge11" class="edge"><title>Node7&#45;&gt;Node10</title>
<path fill="none" stroke="midnightblue" d="M351.797,-539.428C353.499,-537.892 355.233,-536.413 357,-535 426.953,-479.052 531.181,-450.578 584.277,-438.986"/>
<polygon fill="none" stroke="midnightblue" points="349.268,-537.006 344.553,-546.494 354.156,-542.017 349.268,-537.006"/>
</g>
<!-- Node12 -->
<g id="node10" class="node"><title>Node12</title>
<g id="a_node10"><a xlink:href="class_player.html" target="_top" xlink:title="Defines a playable character for use in battle scenes">
<polygon fill="none" stroke="black" points="284,-375.5 284,-487.5 396,-487.5 396,-375.5 284,-375.5"/>
<text text-anchor="middle" x="340" y="-475.5" font-family="Helvetica,sans-Serif" font-size="10.00">Player</text>
<polyline fill="none" stroke="black" points="284,-468.5 396,-468.5 "/>
<text text-anchor="start" x="292" y="-456.5" font-family="Helvetica,sans-Serif" font-size="10.00">+ Exp</text>
<text text-anchor="start" x="292" y="-445.5" font-family="Helvetica,sans-Serif" font-size="10.00">+ Item</text>
<text text-anchor="start" x="292" y="-434.5" font-family="Helvetica,sans-Serif" font-size="10.00">+ ExpToNextLevel</text>
<polyline fill="none" stroke="black" points="284,-427.5 396,-427.5 "/>
<text text-anchor="start" x="292" y="-415.5" font-family="Helvetica,sans-Serif" font-size="10.00">+ Player()</text>
<text text-anchor="start" x="292" y="-404.5" font-family="Helvetica,sans-Serif" font-size="10.00">+ gainExp()</text>
<text text-anchor="start" x="292" y="-393.5" font-family="Helvetica,sans-Serif" font-size="10.00">+ levelUp()</text>
<text text-anchor="start" x="292" y="-382.5" font-family="Helvetica,sans-Serif" font-size="10.00">&#45; setExpToNextLevel()</text>
</a>
</g>
</g>
<!-- Node7&#45;&gt;Node12 -->
<g id="edge16" class="edge"><title>Node7&#45;&gt;Node12</title>
<path fill="none" stroke="midnightblue" d="M319.094,-525.362C322.011,-512.403 324.914,-499.509 327.587,-487.635"/>
<polygon fill="none" stroke="midnightblue" points="315.646,-524.744 316.864,-535.268 322.475,-526.281 315.646,-524.744"/>
</g>
<!-- Node8 -->
<g id="node6" class="node"><title>Node8</title>
<polygon fill="none" stroke="#bfbfbf" points="468.5,-979.5 468.5,-1036.5 497.5,-1036.5 497.5,-979.5 468.5,-979.5"/>
<text text-anchor="middle" x="483" y="-1024.5" font-family="Helvetica,sans-Serif" font-size="10.00">int</text>
<polyline fill="none" stroke="#bfbfbf" points="468.5,-1017.5 497.5,-1017.5 "/>
<text text-anchor="middle" x="483" y="-1005.5" font-family="Helvetica,sans-Serif" font-size="10.00"> </text>
<polyline fill="none" stroke="#bfbfbf" points="468.5,-998.5 497.5,-998.5 "/>
<text text-anchor="middle" x="483" y="-986.5" font-family="Helvetica,sans-Serif" font-size="10.00"> </text>
</g>
<!-- Node8&#45;&gt;Node3 -->
<g id="edge22" class="edge"><title>Node8&#45;&gt;Node3</title>
<path fill="none" stroke="#404040" d="M475.751,-979.214C471.486,-962.419 466.135,-940.547 462,-921 443.357,-832.876 425.731,-729.065 416.245,-670.908"/>
<polygon fill="none" stroke="#404040" points="416.214,-670.713 411.304,-665.431 414.292,-658.868 419.201,-664.149 416.214,-670.713"/>
<text text-anchor="middle" x="483.5" y="-873" font-family="Helvetica,sans-Serif" font-size="10.00"> &#45;increase</text>
</g>
<!-- Node8&#45;&gt;Node4 -->
<g id="edge21" class="edge"><title>Node8&#45;&gt;Node4</title>
<path fill="none" stroke="#404040" d="M468.332,-1007.75C432.98,-1008.76 342.012,-1006.48 288,-961 278.76,-953.22 271.837,-942.645 266.667,-931.612"/>
<polygon fill="none" stroke="#404040" points="266.661,-931.595 260.667,-927.586 262.062,-920.511 268.056,-924.52 266.661,-931.595"/>
<text text-anchor="middle" x="305.5" y="-947.5" font-family="Helvetica,sans-Serif" font-size="10.00"> #magic</text>
</g>
<!-- Node8&#45;&gt;Node7 -->
<g id="edge6" class="edge"><title>Node8&#45;&gt;Node7</title>
<path fill="none" stroke="#404040" d="M468.144,-1000.39C442.964,-988.397 392.098,-960.561 366,-921 327.72,-862.974 310.57,-786.257 302.938,-725.534"/>
<polygon fill="none" stroke="#404040" points="302.938,-725.531 298.264,-720.04 301.535,-713.613 306.209,-719.105 302.938,-725.531"/>
<text text-anchor="middle" x="403.5" y="-911.5" font-family="Helvetica,sans-Serif" font-size="10.00"> #speed</text>
<text text-anchor="middle" x="403.5" y="-900.5" font-family="Helvetica,sans-Serif" font-size="10.00">#luck</text>
<text text-anchor="middle" x="403.5" y="-889.5" font-family="Helvetica,sans-Serif" font-size="10.00">#health</text>
<text text-anchor="middle" x="403.5" y="-878.5" font-family="Helvetica,sans-Serif" font-size="10.00">#magic</text>
<text text-anchor="middle" x="403.5" y="-867.5" font-family="Helvetica,sans-Serif" font-size="10.00">#maximumMagic</text>
<text text-anchor="middle" x="403.5" y="-856.5" font-family="Helvetica,sans-Serif" font-size="10.00">#attack</text>
<text text-anchor="middle" x="403.5" y="-845.5" font-family="Helvetica,sans-Serif" font-size="10.00">#defence</text>
<text text-anchor="middle" x="403.5" y="-834.5" font-family="Helvetica,sans-Serif" font-size="10.00">#level</text>
</g>
<!-- Node8&#45;&gt;Node9 -->
<g id="edge13" class="edge"><title>Node8&#45;&gt;Node9</title>
<path fill="none" stroke="#404040" d="M497.69,-988.102C503.393,-980.083 509.598,-970.423 514,-961 557.826,-867.174 575.05,-833.971 557,-732 529.219,-575.056 436.869,-412.893 372.806,-314.979"/>
<polygon fill="none" stroke="#404040" points="372.719,-314.847 366.077,-312.039 366.115,-304.828 372.757,-307.636 372.719,-314.847"/>
<text text-anchor="middle" x="572.5" y="-622" font-family="Helvetica,sans-Serif" font-size="10.00"> +money</text>
</g>
<!-- Node8&#45;&gt;Node10 -->
<g id="edge12" class="edge"><title>Node8&#45;&gt;Node10</title>
<path fill="none" stroke="#404040" d="M497.844,-1005.11C520.875,-1001.3 564.678,-990.404 585,-961 690.922,-807.739 649.826,-565.943 628.098,-471.821"/>
<polygon fill="none" stroke="#404040" points="628.077,-471.733 622.798,-466.82 625.303,-460.058 630.582,-464.971 628.077,-471.733"/>
<text text-anchor="middle" x="676" y="-769.5" font-family="Helvetica,sans-Serif" font-size="10.00"> &#45;expGiven</text>
</g>
<!-- Node8&#45;&gt;Node12 -->
<g id="edge19" class="edge"><title>Node8&#45;&gt;Node12</title>
<path fill="none" stroke="#404040" d="M491.924,-979.454C496.864,-962.744 502.498,-940.878 505,-921 510.051,-880.872 522.715,-866.359 505,-830 499.315,-818.331 488.123,-823.446 482,-812 423.763,-703.134 517.116,-644.975 461,-535 448.467,-510.438 427.218,-489.405 405.993,-472.9"/>
<polygon fill="none" stroke="#404040" points="405.887,-472.821 398.687,-472.434 396.274,-465.639 403.475,-466.025 405.887,-472.821"/>
<text text-anchor="middle" x="519.5" y="-775" font-family="Helvetica,sans-Serif" font-size="10.00"> &#45;expToNextLevel</text>
<text text-anchor="middle" x="519.5" y="-764" font-family="Helvetica,sans-Serif" font-size="10.00">&#45;exp</text>
</g>
<!-- Node9&#45;&gt;Node5 -->
<g id="edge8" class="edge"><title>Node9&#45;&gt;Node5</title>
<path fill="none" stroke="#404040" d="M249.774,-149.624C235.604,-132.578 220.384,-114.535 206,-98 203.406,-95.0187 200.72,-91.9675 197.997,-88.9023"/>
<polygon fill="none" stroke="#404040" points="197.778,-88.6584 190.796,-86.8579 189.772,-79.7198 196.755,-81.5203 197.778,-88.6584"/>
<text text-anchor="middle" x="238" y="-101" font-family="Helvetica,sans-Serif" font-size="10.00"> #manager</text>
</g>
<!-- Node10&#45;&gt;Node9 -->
<g id="edge10" class="edge"><title>Node10&#45;&gt;Node9</title>
<path fill="none" stroke="#404040" d="M609.81,-402.601C602.4,-381.62 589.604,-353.429 570,-335 515.993,-284.23 435.448,-254.522 377.934,-238.614"/>
<polygon fill="none" stroke="#404040" points="377.62,-238.53 370.79,-240.842 366.028,-235.427 372.859,-233.115 377.62,-238.53"/>
<text text-anchor="middle" x="604" y="-343.5" font-family="Helvetica,sans-Serif" font-size="10.00"> &#45;enemy</text>
</g>
<!-- Node11 -->
<g id="node9" class="node"><title>Node11</title>
<polygon fill="none" stroke="#bfbfbf" points="230.5,-403 230.5,-460 265.5,-460 265.5,-403 230.5,-403"/>
<text text-anchor="middle" x="248" y="-448" font-family="Helvetica,sans-Serif" font-size="10.00">bool</text>
<polyline fill="none" stroke="#bfbfbf" points="230.5,-441 265.5,-441 "/>
<text text-anchor="middle" x="248" y="-429" font-family="Helvetica,sans-Serif" font-size="10.00"> </text>
<polyline fill="none" stroke="#bfbfbf" points="230.5,-422 265.5,-422 "/>
<text text-anchor="middle" x="248" y="-410" font-family="Helvetica,sans-Serif" font-size="10.00"> </text>
</g>
<!-- Node11&#45;&gt;Node9 -->
<g id="edge14" class="edge"><title>Node11&#45;&gt;Node9</title>
<path fill="none" stroke="#404040" d="M247.772,-402.898C248.225,-383.588 250.074,-357.355 256,-335 256.608,-332.708 257.26,-330.404 257.952,-328.095"/>
<polygon fill="none" stroke="#404040" points="258.004,-327.936 256.057,-320.992 261.718,-316.525 263.664,-323.468 258.004,-327.936"/>
<text text-anchor="middle" x="289" y="-343.5" font-family="Helvetica,sans-Serif" font-size="10.00"> &#45;wasCriticalHit</text>
</g>
<!-- Node12&#45;&gt;Node9 -->
<g id="edge15" class="edge"><title>Node12&#45;&gt;Node9</title>
<path fill="none" stroke="#404040" d="M331.509,-375.439C329.295,-361.087 326.834,-345.128 324.362,-329.095"/>
<polygon fill="none" stroke="#404040" points="324.301,-328.704 319.434,-323.384 322.472,-316.845 327.34,-322.165 324.301,-328.704"/>
<text text-anchor="middle" x="344.5" y="-343.5" font-family="Helvetica,sans-Serif" font-size="10.00"> &#45;player</text>
</g>
<!-- Node13&#45;&gt;Node12 -->
<g id="edge17" class="edge"><title>Node13&#45;&gt;Node12</title>
<path fill="none" stroke="#404040" d="M123.823,-732.392C127.35,-726.302 130.852,-720.026 134,-714 174.431,-636.602 161.356,-603.901 215,-535 235.596,-508.547 248.057,-509.235 274,-488 274.203,-487.834 274.406,-487.668 274.609,-487.501"/>
<polygon fill="none" stroke="#404040" points="274.653,-487.465 276.741,-480.563 283.915,-479.835 281.827,-486.737 274.653,-487.465"/>
<text text-anchor="middle" x="227.5" y="-622" font-family="Helvetica,sans-Serif" font-size="10.00"> &#45;item</text>
</g>
</g>
</svg>
