<?xml version="1.0" encoding="UTF-8" standalone="no"?>
<!DOCTYPE svg PUBLIC "-//W3C//DTD SVG 1.1//EN"
 "http://www.w3.org/Graphics/SVG/1.1/DTD/svg11.dtd">
<!-- Generated by graphviz version 2.38.0 (20140413.2041)
 -->
<!-- Title: BattleDescriptor Pages: 1 -->
<!--zoomable 1683 -->
<svg id="main" version="1.1" xmlns="http://www.w3.org/2000/svg" xmlns:xlink="http://www.w3.org/1999/xlink" xml:space="preserve" onload="init(evt)">
<style type="text/css"><![CDATA[
.edge:hover path { stroke: red; }
.edge:hover polygon { stroke: red; fill: red; }
]]></style>
<script type="text/javascript"><![CDATA[
var edges = document.getElementsByTagName('g');
if (edges && edges.length) {
  for (var i=0;i<edges.length;i++) {
    if (edges[i].id.substr(0,4)=='edge') {
      edges[i].setAttribute('class','edge');
    }
  }
}
]]></script>
        <defs>
                <circle id="rim" cx="0" cy="0" r="7"/>
                <circle id="rim2" cx="0" cy="0" r="3.5"/>
                <g id="zoomPlus">
                        <use xlink:href="#rim" fill="#404040">
                                <set attributeName="fill" to="#808080" begin="zoomplus.mouseover" end="zoomplus.mouseout"/>
                        </use>
                        <path d="M-4,0h8M0,-4v8" fill="none" stroke="white" stroke-width="1.5" pointer-events="none"/>
                </g>
                <g id="zoomMin">
                        <use xlink:href="#rim" fill="#404040">
                                <set attributeName="fill" to="#808080" begin="zoomminus.mouseover" end="zoomminus.mouseout"/>
                        </use>
                        <path d="M-4,0h8" fill="none" stroke="white" stroke-width="1.5" pointer-events="none"/>
                </g>
                <g id="dirArrow">
                        <path fill="none" stroke="white" stroke-width="1.5" d="M0,-3.0v7 M-2.5,-0.5L0,-3.0L2.5,-0.5"/>
                </g>
               <g id="resetDef">
                       <use xlink:href="#rim2" fill="#404040">
                               <set attributeName="fill" to="#808080" begin="reset.mouseover" end="reset.mouseout"/>
                       </use>
               </g>
        </defs>

<script type="text/javascript">
var viewWidth = 1235;
var viewHeight = 1683;
var sectionId = 'dynsection-1';
</script>
<script xlink:href="svgpan.js"/>
<svg id="graph" class="graph">
<g id="viewport">
<title>BattleDescriptor</title>
<!-- Node2 -->
<g id="node1" class="node"><title>Node2</title>
<polygon fill="#bfbfbf" stroke="black" points="835,-0.5 835,-68.5 945,-68.5 945,-0.5 835,-0.5"/>
<text text-anchor="middle" x="890" y="-56.5" font-family="Helvetica,sans-Serif" font-size="10.00">BattleDescriptor</text>
<polyline fill="none" stroke="black" points="835,-49.5 945,-49.5 "/>
<text text-anchor="middle" x="890" y="-37.5" font-family="Helvetica,sans-Serif" font-size="10.00"> </text>
<polyline fill="none" stroke="black" points="835,-30.5 945,-30.5 "/>
<text text-anchor="start" x="843" y="-18.5" font-family="Helvetica,sans-Serif" font-size="10.00">+ createBattle()</text>
<text text-anchor="start" x="843" y="-7.5" font-family="Helvetica,sans-Serif" font-size="10.00">&#45; createSpecialMove()</text>
</g>
<!-- Node3 -->
<g id="node2" class="node"><title>Node3</title>
<g id="a_node2"><a xlink:href="class_mono_behaviour.html" target="_top" xlink:title="{MonoBehaviour\n||}">
<polygon fill="none" stroke="black" points="28.5,-315 28.5,-372 111.5,-372 111.5,-315 28.5,-315"/>
<text text-anchor="middle" x="70" y="-360" font-family="Helvetica,sans-Serif" font-size="10.00">MonoBehaviour</text>
<polyline fill="none" stroke="black" points="28.5,-353 111.5,-353 "/>
<text text-anchor="middle" x="70" y="-341" font-family="Helvetica,sans-Serif" font-size="10.00"> </text>
<polyline fill="none" stroke="black" points="28.5,-334 111.5,-334 "/>
<text text-anchor="middle" x="70" y="-322" font-family="Helvetica,sans-Serif" font-size="10.00"> </text>
</a>
</g>
</g>
<!-- Node3&#45;&gt;Node2 -->
<g id="edge1" class="edge"><title>Node3&#45;&gt;Node2</title>
<path fill="none" stroke="midnightblue" d="M86.67,-306.019C92.3597,-296.563 99.482,-287.065 108,-280 331.894,-94.2874 697.097,-49.2578 834.973,-38.6562"/>
<polygon fill="none" stroke="midnightblue" points="83.4792,-304.554 81.6551,-314.991 89.5894,-307.969 83.4792,-304.554"/>
</g>
<!-- Node5 -->
<g id="node4" class="node"><title>Node5</title>
<g id="a_node4"><a xlink:href="class_global_functions.html" target="_top" xlink:title="Provides functions and variables to be accessed by any game object to allow data to be passed between...">
<polygon fill="none" stroke="black" points="523,-127.5 523,-261.5 633,-261.5 633,-127.5 523,-127.5"/>
<text text-anchor="middle" x="578" y="-249.5" font-family="Helvetica,sans-Serif" font-size="10.00">GlobalFunctions</text>
<polyline fill="none" stroke="black" points="523,-242.5 633,-242.5 "/>
<text text-anchor="middle" x="578" y="-230.5" font-family="Helvetica,sans-Serif" font-size="10.00"> </text>
<polyline fill="none" stroke="black" points="523,-223.5 633,-223.5 "/>
<text text-anchor="start" x="531" y="-211.5" font-family="Helvetica,sans-Serif" font-size="10.00">+ createBattle()</text>
<text text-anchor="start" x="531" y="-200.5" font-family="Helvetica,sans-Serif" font-size="10.00">+ getEnemy()</text>
<text text-anchor="start" x="531" y="-189.5" font-family="Helvetica,sans-Serif" font-size="10.00">+ getMoney()</text>
<text text-anchor="start" x="531" y="-178.5" font-family="Helvetica,sans-Serif" font-size="10.00">+ getItem()</text>
<text text-anchor="start" x="531" y="-167.5" font-family="Helvetica,sans-Serif" font-size="10.00">+ getPreviousScene()</text>
<text text-anchor="start" x="531" y="-156.5" font-family="Helvetica,sans-Serif" font-size="10.00">+ endBattle()</text>
<text text-anchor="start" x="531" y="-145.5" font-family="Helvetica,sans-Serif" font-size="10.00">+ createItem()</text>
<text text-anchor="start" x="531" y="-134.5" font-family="Helvetica,sans-Serif" font-size="10.00">&#45; Awake()</text>
</a>
</g>
</g>
<!-- Node3&#45;&gt;Node5 -->
<g id="edge4" class="edge"><title>Node3&#45;&gt;Node5</title>
<path fill="none" stroke="midnightblue" d="M94.5464,-307.17C103.337,-296.933 114.061,-286.718 126,-280 254.713,-207.579 433.445,-195.7 522.684,-194.682"/>
<polygon fill="none" stroke="midnightblue" points="91.8152,-304.981 88.2131,-314.944 97.2425,-309.402 91.8152,-304.981"/>
</g>
<!-- Node4 -->
<g id="node3" class="node"><title>Node4</title>
<polygon fill="none" stroke="#bfbfbf" points="654.5,-1617.5 654.5,-1674.5 695.5,-1674.5 695.5,-1617.5 654.5,-1617.5"/>
<text text-anchor="middle" x="675" y="-1662.5" font-family="Helvetica,sans-Serif" font-size="10.00">string</text>
<polyline fill="none" stroke="#bfbfbf" points="654.5,-1655.5 695.5,-1655.5 "/>
<text text-anchor="middle" x="675" y="-1643.5" font-family="Helvetica,sans-Serif" font-size="10.00"> </text>
<polyline fill="none" stroke="#bfbfbf" points="654.5,-1636.5 695.5,-1636.5 "/>
<text text-anchor="middle" x="675" y="-1624.5" font-family="Helvetica,sans-Serif" font-size="10.00"> </text>
</g>
<!-- Node4&#45;&gt;Node2 -->
<g id="edge2" class="edge"><title>Node4&#45;&gt;Node2</title>
<path fill="none" stroke="#404040" d="M695.723,-1644.32C740.881,-1642.21 850.856,-1633.63 935,-1599 995.994,-1573.9 1057,-1580.46 1057,-1514.5 1057,-1514.5 1057,-1514.5 1057,-193.5 1057,-135.18 1002.59,-91.9615 955.889,-65.6049"/>
<polygon fill="none" stroke="#404040" points="955.683,-65.4928 948.501,-66.136 945.145,-59.7536 952.327,-59.1103 955.683,-65.4928"/>
<text text-anchor="middle" x="1089" y="-863" font-family="Helvetica,sans-Serif" font-size="10.00"> +special1Text</text>
<text text-anchor="middle" x="1089" y="-852" font-family="Helvetica,sans-Serif" font-size="10.00">+name</text>
<text text-anchor="middle" x="1089" y="-841" font-family="Helvetica,sans-Serif" font-size="10.00">+special2Text</text>
</g>
<!-- Node4&#45;&gt;Node5 -->
<g id="edge9" class="edge"><title>Node4&#45;&gt;Node5</title>
<path fill="none" stroke="#404040" d="M695.883,-1644.98C761.469,-1643.73 959,-1630.35 959,-1514.5 959,-1514.5 959,-1514.5 959,-853.5 959,-745.933 833.372,-487.6 754,-415 722.693,-386.364 696.713,-407.271 666,-378 641.392,-354.548 647.745,-339.629 633,-309 627.364,-297.293 621.386,-284.916 615.528,-272.808"/>
<polygon fill="none" stroke="#404040" points="615.423,-272.591 609.208,-268.934 610.194,-261.791 616.409,-265.448 615.423,-272.591"/>
<text text-anchor="middle" x="994" y="-976" font-family="Helvetica,sans-Serif" font-size="10.00"> &#45;previousScene</text>
<text text-anchor="middle" x="994" y="-965" font-family="Helvetica,sans-Serif" font-size="10.00">+levelOrder</text>
</g>
<!-- Node7 -->
<g id="node6" class="node"><title>Node7</title>
<g id="a_node6"><a xlink:href="class_item.html" target="_top" xlink:title="Abstract class for items that can be equipped to a player, increasing some of their stats ...">
<polygon fill="none" stroke="black" points="418.5,-1468.5 418.5,-1558.5 495.5,-1558.5 495.5,-1468.5 418.5,-1468.5"/>
<text text-anchor="middle" x="457" y="-1546.5" font-family="Helvetica,sans-Serif" font-size="10.00">Item</text>
<polyline fill="none" stroke="black" points="418.5,-1539.5 495.5,-1539.5 "/>
<text text-anchor="start" x="426.5" y="-1527.5" font-family="Helvetica,sans-Serif" font-size="10.00">+ Name</text>
<text text-anchor="start" x="426.5" y="-1516.5" font-family="Helvetica,sans-Serif" font-size="10.00">+ Desc</text>
<text text-anchor="start" x="426.5" y="-1505.5" font-family="Helvetica,sans-Serif" font-size="10.00">+ Cost</text>
<polyline fill="none" stroke="black" points="418.5,-1498.5 495.5,-1498.5 "/>
<text text-anchor="start" x="426.5" y="-1486.5" font-family="Helvetica,sans-Serif" font-size="10.00">+ applyBuffs()</text>
<text text-anchor="start" x="426.5" y="-1475.5" font-family="Helvetica,sans-Serif" font-size="10.00">+ revertBuffs()</text>
</a>
</g>
</g>
<!-- Node4&#45;&gt;Node7 -->
<g id="edge7" class="edge"><title>Node4&#45;&gt;Node7</title>
<path fill="none" stroke="#404040" d="M654.495,-1643.16C622.832,-1639.44 561.286,-1628.7 519,-1599 507.483,-1590.91 497.266,-1580 488.615,-1568.7"/>
<polygon fill="none" stroke="#404040" points="488.447,-1568.47 481.691,-1565.95 481.422,-1558.74 488.177,-1561.27 488.447,-1568.47"/>
<text text-anchor="middle" x="534" y="-1591" font-family="Helvetica,sans-Serif" font-size="10.00"> #desc</text>
<text text-anchor="middle" x="534" y="-1580" font-family="Helvetica,sans-Serif" font-size="10.00">#name</text>
</g>
<!-- Node11 -->
<g id="node10" class="node"><title>Node11</title>
<g id="a_node10"><a xlink:href="class_character.html" target="_top" xlink:title="Base abstract class for Enemy and Player to inherit from. Defines all shared variables, their constructor and their setters and getters ">
<polygon fill="none" stroke="black" points="518.5,-415.5 518.5,-626.5 613.5,-626.5 613.5,-415.5 518.5,-415.5"/>
<text text-anchor="middle" x="566" y="-614.5" font-family="Helvetica,sans-Serif" font-size="10.00">Character</text>
<polyline fill="none" stroke="black" points="518.5,-607.5 613.5,-607.5 "/>
<text text-anchor="start" x="526.5" y="-595.5" font-family="Helvetica,sans-Serif" font-size="10.00">+ Name</text>
<text text-anchor="start" x="526.5" y="-584.5" font-family="Helvetica,sans-Serif" font-size="10.00">+ Level</text>
<text text-anchor="start" x="526.5" y="-573.5" font-family="Helvetica,sans-Serif" font-size="10.00">+ Health</text>
<text text-anchor="start" x="526.5" y="-562.5" font-family="Helvetica,sans-Serif" font-size="10.00">+ Attack</text>
<text text-anchor="start" x="526.5" y="-551.5" font-family="Helvetica,sans-Serif" font-size="10.00">+ Defence</text>
<text text-anchor="start" x="526.5" y="-540.5" font-family="Helvetica,sans-Serif" font-size="10.00">+ MaximumMagic</text>
<text text-anchor="start" x="526.5" y="-529.5" font-family="Helvetica,sans-Serif" font-size="10.00">+ Magic</text>
<text text-anchor="start" x="526.5" y="-518.5" font-family="Helvetica,sans-Serif" font-size="10.00">+ Luck</text>
<text text-anchor="start" x="526.5" y="-507.5" font-family="Helvetica,sans-Serif" font-size="10.00">+ Speed</text>
<text text-anchor="start" x="526.5" y="-496.5" font-family="Helvetica,sans-Serif" font-size="10.00">+ Rage</text>
<text text-anchor="start" x="526.5" y="-485.5" font-family="Helvetica,sans-Serif" font-size="10.00">+ CanRage</text>
<text text-anchor="start" x="526.5" y="-474.5" font-family="Helvetica,sans-Serif" font-size="10.00">+ Special1</text>
<text text-anchor="start" x="526.5" y="-463.5" font-family="Helvetica,sans-Serif" font-size="10.00">+ Special2</text>
<text text-anchor="start" x="526.5" y="-452.5" font-family="Helvetica,sans-Serif" font-size="10.00">+ Image</text>
<polyline fill="none" stroke="black" points="518.5,-445.5 613.5,-445.5 "/>
<text text-anchor="start" x="526.5" y="-433.5" font-family="Helvetica,sans-Serif" font-size="10.00">+ IsEnraged()</text>
<text text-anchor="start" x="526.5" y="-422.5" font-family="Helvetica,sans-Serif" font-size="10.00"># Character()</text>
</a>
</g>
</g>
<!-- Node4&#45;&gt;Node11 -->
<g id="edge13" class="edge"><title>Node4&#45;&gt;Node11</title>
<path fill="none" stroke="#404040" d="M687.971,-1617.42C698.979,-1591.46 713,-1551.19 713,-1514.5 713,-1514.5 713,-1514.5 713,-1272.5 713,-1008.86 698.733,-939.793 631,-685 626.946,-669.749 621.871,-653.997 616.355,-638.571"/>
<polygon fill="none" stroke="#404040" points="616.19,-638.119 610.369,-633.861 612.061,-626.851 617.881,-631.109 616.19,-638.119"/>
<text text-anchor="middle" x="729.5" y="-1152.5" font-family="Helvetica,sans-Serif" font-size="10.00"> #name</text>
</g>
<!-- Node13 -->
<g id="node12" class="node"><title>Node13</title>
<g id="a_node12"><a xlink:href="class_special_move.html" target="_top" xlink:title="Special move abstract base class that expands upon CharacterMove, adding magic properties ...">
<polygon fill="none" stroke="black" points="466,-685.5 466,-775.5 564,-775.5 564,-685.5 466,-685.5"/>
<text text-anchor="middle" x="515" y="-763.5" font-family="Helvetica,sans-Serif" font-size="10.00">SpecialMove</text>
<polyline fill="none" stroke="black" points="466,-756.5 564,-756.5 "/>
<text text-anchor="start" x="474" y="-744.5" font-family="Helvetica,sans-Serif" font-size="10.00">+ Magic</text>
<text text-anchor="start" x="474" y="-733.5" font-family="Helvetica,sans-Serif" font-size="10.00">+ Desc</text>
<polyline fill="none" stroke="black" points="466,-726.5 564,-726.5 "/>
<text text-anchor="start" x="474" y="-714.5" font-family="Helvetica,sans-Serif" font-size="10.00">+ setUp()</text>
<text text-anchor="start" x="474" y="-703.5" font-family="Helvetica,sans-Serif" font-size="10.00">+ decreaseMagic()</text>
<text text-anchor="start" x="474" y="-692.5" font-family="Helvetica,sans-Serif" font-size="10.00"># SpecialMove()</text>
</a>
</g>
</g>
<!-- Node4&#45;&gt;Node13 -->
<g id="edge29" class="edge"><title>Node4&#45;&gt;Node13</title>
<path fill="none" stroke="#404040" d="M674.348,-1617.25C671.306,-1489.89 658.223,-966.214 648,-933 630.95,-877.603 593.514,-823.26 562.689,-784.996"/>
<polygon fill="none" stroke="#404040" points="562.616,-784.906 555.719,-782.799 555.012,-775.623 561.908,-777.73 562.616,-784.906"/>
<text text-anchor="middle" x="681" y="-1271" font-family="Helvetica,sans-Serif" font-size="10.00"> #desc</text>
</g>
<!-- Node14 -->
<g id="node13" class="node"><title>Node14</title>
<g id="a_node13"><a xlink:href="class_character_move.html" target="_top" xlink:title="Astract base class for character moves ">
<polygon fill="none" stroke="black" points="553,-933.5 553,-1012.5 639,-1012.5 639,-933.5 553,-933.5"/>
<text text-anchor="middle" x="596" y="-1000.5" font-family="Helvetica,sans-Serif" font-size="10.00">CharacterMove</text>
<polyline fill="none" stroke="black" points="553,-993.5 639,-993.5 "/>
<text text-anchor="start" x="561" y="-981.5" font-family="Helvetica,sans-Serif" font-size="10.00">+ User</text>
<text text-anchor="start" x="561" y="-970.5" font-family="Helvetica,sans-Serif" font-size="10.00">+ Target</text>
<text text-anchor="start" x="561" y="-959.5" font-family="Helvetica,sans-Serif" font-size="10.00">+ Text</text>
<polyline fill="none" stroke="black" points="553,-952.5 639,-952.5 "/>
<text text-anchor="start" x="561" y="-940.5" font-family="Helvetica,sans-Serif" font-size="10.00">+ performMove()</text>
</a>
</g>
</g>
<!-- Node4&#45;&gt;Node14 -->
<g id="edge18" class="edge"><title>Node4&#45;&gt;Node14</title>
<path fill="none" stroke="#404040" d="M665.818,-1617.46C664.031,-1611.43 662.309,-1605.04 661,-1599 643.049,-1516.19 645.428,-1494.21 636,-1410 631.805,-1372.53 610.088,-1131.28 600.527,-1024.6"/>
<polygon fill="none" stroke="#404040" points="600.522,-1024.54 596.002,-1018.92 599.451,-1012.59 603.97,-1018.2 600.522,-1024.54"/>
<text text-anchor="middle" x="648.5" y="-1351" font-family="Helvetica,sans-Serif" font-size="10.00"> #text</text>
</g>
<!-- Node15 -->
<g id="node14" class="node"><title>Node15</title>
<g id="a_node14"><a xlink:href="class_battle_manager.html" target="_top" xlink:title="Holds current Player and Enemy objects in battle and provides functions for MainBattle and other obje...">
<polygon fill="none" stroke="black" points="396,-1060.5 396,-1249.5 512,-1249.5 512,-1060.5 396,-1060.5"/>
<text text-anchor="middle" x="454" y="-1237.5" font-family="Helvetica,sans-Serif" font-size="10.00">BattleManager</text>
<polyline fill="none" stroke="black" points="396,-1230.5 512,-1230.5 "/>
<text text-anchor="start" x="404" y="-1218.5" font-family="Helvetica,sans-Serif" font-size="10.00">+ Player</text>
<text text-anchor="start" x="404" y="-1207.5" font-family="Helvetica,sans-Serif" font-size="10.00">+ Enemy</text>
<text text-anchor="start" x="404" y="-1196.5" font-family="Helvetica,sans-Serif" font-size="10.00">+ WasCriticalHit</text>
<polyline fill="none" stroke="black" points="396,-1189.5 512,-1189.5 "/>
<text text-anchor="start" x="404" y="-1177.5" font-family="Helvetica,sans-Serif" font-size="10.00">+ BattleManager()</text>
<text text-anchor="start" x="404" y="-1166.5" font-family="Helvetica,sans-Serif" font-size="10.00">+ playerFirst()</text>
<text text-anchor="start" x="404" y="-1155.5" font-family="Helvetica,sans-Serif" font-size="10.00">+ switchPlayers()</text>
<text text-anchor="start" x="404" y="-1144.5" font-family="Helvetica,sans-Serif" font-size="10.00">+ isCriticalHit()</text>
<text text-anchor="start" x="404" y="-1133.5" font-family="Helvetica,sans-Serif" font-size="10.00">+ ranAway()</text>
<text text-anchor="start" x="404" y="-1122.5" font-family="Helvetica,sans-Serif" font-size="10.00">+ damageCalculation()</text>
<text text-anchor="start" x="404" y="-1111.5" font-family="Helvetica,sans-Serif" font-size="10.00">+ enemyMove()</text>
<text text-anchor="start" x="404" y="-1100.5" font-family="Helvetica,sans-Serif" font-size="10.00">+ enemySpecialMove()</text>
<text text-anchor="start" x="404" y="-1089.5" font-family="Helvetica,sans-Serif" font-size="10.00">+ battleWon()</text>
<text text-anchor="start" x="404" y="-1078.5" font-family="Helvetica,sans-Serif" font-size="10.00">+ playerFainted()</text>
<text text-anchor="start" x="404" y="-1067.5" font-family="Helvetica,sans-Serif" font-size="10.00">&#45; characterFainted()</text>
</a>
</g>
</g>
<!-- Node4&#45;&gt;Node15 -->
<g id="edge21" class="edge"><title>Node4&#45;&gt;Node15</title>
<path fill="none" stroke="#404040" d="M654.413,-1634.2C640.125,-1625.96 621.338,-1613.57 608,-1599 504.236,-1485.64 511.518,-1428.75 477,-1279 475.696,-1273.34 474.414,-1267.53 473.163,-1261.65"/>
<polygon fill="none" stroke="#404040" points="473.084,-1261.27 467.947,-1256.21 470.643,-1249.52 475.78,-1254.58 473.084,-1261.27"/>
<text text-anchor="middle" x="558" y="-1442" font-family="Helvetica,sans-Serif" font-size="10.00"> +forceEnemyMove</text>
<text text-anchor="middle" x="558" y="-1431" font-family="Helvetica,sans-Serif" font-size="10.00">+forceCriticalHits</text>
</g>
<!-- Node5&#45;&gt;Node2 -->
<g id="edge3" class="edge"><title>Node5&#45;&gt;Node2</title>
<path fill="none" stroke="#404040" d="M633.061,-165.616C686.363,-138.624 767.217,-97.6786 823.955,-68.946"/>
<polygon fill="none" stroke="#404040" points="824.26,-68.7915 827.806,-62.5123 834.965,-63.3701 831.42,-69.6493 824.26,-68.7915"/>
<text text-anchor="middle" x="807" y="-95.5" font-family="Helvetica,sans-Serif" font-size="10.00"> +battleItem</text>
</g>
<!-- Node5&#45;&gt;Node5 -->
<g id="edge33" class="edge"><title>Node5&#45;&gt;Node5</title>
<path fill="none" stroke="#404040" d="M633.073,-210.568C643.574,-208.645 651,-203.289 651,-194.5 651,-189.419 648.518,-185.485 644.395,-182.699"/>
<polygon fill="none" stroke="#404040" points="644.302,-182.664 637.277,-184.291 633.073,-178.432 640.098,-176.805 644.302,-182.664"/>
<text text-anchor="middle" x="674" y="-192" font-family="Helvetica,sans-Serif" font-size="10.00"> +instance</text>
</g>
<!-- Node6 -->
<g id="node5" class="node"><title>Node6</title>
<polygon fill="none" stroke="#bfbfbf" points="675,-315 675,-372 733,-372 733,-315 675,-315"/>
<text text-anchor="middle" x="704" y="-360" font-family="Helvetica,sans-Serif" font-size="10.00">AudioClip</text>
<polyline fill="none" stroke="#bfbfbf" points="675,-353 733,-353 "/>
<text text-anchor="middle" x="704" y="-341" font-family="Helvetica,sans-Serif" font-size="10.00"> </text>
<polyline fill="none" stroke="#bfbfbf" points="675,-334 733,-334 "/>
<text text-anchor="middle" x="704" y="-322" font-family="Helvetica,sans-Serif" font-size="10.00"> </text>
</g>
<!-- Node6&#45;&gt;Node5 -->
<g id="edge5" class="edge"><title>Node6&#45;&gt;Node5</title>
<path fill="none" stroke="#404040" d="M686.575,-314.99C679.116,-303.813 670.049,-290.975 661,-280 654.929,-272.637 648.332,-265.167 641.598,-257.871"/>
<polygon fill="none" stroke="#404040" points="641.241,-257.49 634.218,-255.855 633.026,-248.743 640.049,-250.378 641.241,-257.49"/>
<text text-anchor="middle" x="702.5" y="-283" font-family="Helvetica,sans-Serif" font-size="10.00"> +previousBGM</text>
</g>
<!-- Node7&#45;&gt;Node5 -->
<g id="edge6" class="edge"><title>Node7&#45;&gt;Node5</title>
<path fill="none" stroke="#404040" d="M418.394,-1472.39C416.604,-1470.87 414.802,-1469.4 413,-1468 372.73,-1436.71 345.742,-1449.91 314,-1410 216.192,-1287.02 257.226,-1216.99 264,-1060 278.701,-719.324 226.438,-589.039 421,-309 444.19,-275.622 480.469,-248.466 512.313,-229.094"/>
<polygon fill="none" stroke="#404040" points="512.587,-228.933 515.716,-222.436 522.917,-222.826 519.787,-229.322 512.587,-228.933"/>
<text text-anchor="middle" x="280.5" y="-852" font-family="Helvetica,sans-Serif" font-size="10.00"> &#45;item</text>
</g>
<!-- Node16 -->
<g id="node15" class="node"><title>Node16</title>
<g id="a_node15"><a xlink:href="class_player.html" target="_top" xlink:title="Defines a playable character for use in battle scenes">
<polygon fill="none" stroke="black" points="323,-1297.5 323,-1409.5 435,-1409.5 435,-1297.5 323,-1297.5"/>
<text text-anchor="middle" x="379" y="-1397.5" font-family="Helvetica,sans-Serif" font-size="10.00">Player</text>
<polyline fill="none" stroke="black" points="323,-1390.5 435,-1390.5 "/>
<text text-anchor="start" x="331" y="-1378.5" font-family="Helvetica,sans-Serif" font-size="10.00">+ Exp</text>
<text text-anchor="start" x="331" y="-1367.5" font-family="Helvetica,sans-Serif" font-size="10.00">+ Item</text>
<text text-anchor="start" x="331" y="-1356.5" font-family="Helvetica,sans-Serif" font-size="10.00">+ ExpToNextLevel</text>
<polyline fill="none" stroke="black" points="323,-1349.5 435,-1349.5 "/>
<text text-anchor="start" x="331" y="-1337.5" font-family="Helvetica,sans-Serif" font-size="10.00">+ Player()</text>
<text text-anchor="start" x="331" y="-1326.5" font-family="Helvetica,sans-Serif" font-size="10.00">+ gainExp()</text>
<text text-anchor="start" x="331" y="-1315.5" font-family="Helvetica,sans-Serif" font-size="10.00">+ levelUp()</text>
<text text-anchor="start" x="331" y="-1304.5" font-family="Helvetica,sans-Serif" font-size="10.00">&#45; setExpToNextLevel()</text>
</a>
</g>
</g>
<!-- Node7&#45;&gt;Node16 -->
<g id="edge27" class="edge"><title>Node7&#45;&gt;Node16</title>
<path fill="none" stroke="#404040" d="M426.479,-1468.46C422.747,-1462.38 419.146,-1456.12 416,-1450 411.243,-1440.75 406.728,-1430.75 402.593,-1420.81"/>
<polygon fill="none" stroke="#404040" points="402.586,-1420.79 396.631,-1416.72 398.094,-1409.66 404.049,-1413.73 402.586,-1420.79"/>
<text text-anchor="middle" x="428.5" y="-1436.5" font-family="Helvetica,sans-Serif" font-size="10.00"> &#45;item</text>
</g>
<!-- Node8 -->
<g id="node7" class="node"><title>Node8</title>
<polygon fill="none" stroke="#bfbfbf" points="245.5,-1617.5 245.5,-1674.5 274.5,-1674.5 274.5,-1617.5 245.5,-1617.5"/>
<text text-anchor="middle" x="260" y="-1662.5" font-family="Helvetica,sans-Serif" font-size="10.00">int</text>
<polyline fill="none" stroke="#bfbfbf" points="245.5,-1655.5 274.5,-1655.5 "/>
<text text-anchor="middle" x="260" y="-1643.5" font-family="Helvetica,sans-Serif" font-size="10.00"> </text>
<polyline fill="none" stroke="#bfbfbf" points="245.5,-1636.5 274.5,-1636.5 "/>
<text text-anchor="middle" x="260" y="-1624.5" font-family="Helvetica,sans-Serif" font-size="10.00"> </text>
</g>
<!-- Node8&#45;&gt;Node2 -->
<g id="edge38" class="edge"><title>Node8&#45;&gt;Node2</title>
<path fill="none" stroke="#404040" d="M245.276,-1644.54C190.275,-1641.98 0,-1625.11 0,-1514.5 0,-1514.5 0,-1514.5 0,-193.5 0,-127.412 69.7402,-146.127 133,-127 379.679,-52.4146 688.938,-38.353 822.954,-35.8962"/>
<polygon fill="none" stroke="#404040" points="822.987,-35.8958 828.921,-31.7977 834.986,-35.6986 829.052,-39.7966 822.987,-35.8958"/>
<text text-anchor="middle" x="39.5" y="-907" font-family="Helvetica,sans-Serif" font-size="10.00"> +maximumMagic</text>
<text text-anchor="middle" x="39.5" y="-896" font-family="Helvetica,sans-Serif" font-size="10.00">+attack</text>
<text text-anchor="middle" x="39.5" y="-885" font-family="Helvetica,sans-Serif" font-size="10.00">+defence</text>
<text text-anchor="middle" x="39.5" y="-874" font-family="Helvetica,sans-Serif" font-size="10.00">+level</text>
<text text-anchor="middle" x="39.5" y="-863" font-family="Helvetica,sans-Serif" font-size="10.00">+special1Magic</text>
<text text-anchor="middle" x="39.5" y="-852" font-family="Helvetica,sans-Serif" font-size="10.00">+battleMoney</text>
<text text-anchor="middle" x="39.5" y="-841" font-family="Helvetica,sans-Serif" font-size="10.00">+special2Magic</text>
<text text-anchor="middle" x="39.5" y="-830" font-family="Helvetica,sans-Serif" font-size="10.00">+speed</text>
<text text-anchor="middle" x="39.5" y="-819" font-family="Helvetica,sans-Serif" font-size="10.00">+luck</text>
<text text-anchor="middle" x="39.5" y="-808" font-family="Helvetica,sans-Serif" font-size="10.00">+health</text>
<text text-anchor="middle" x="39.5" y="-797" font-family="Helvetica,sans-Serif" font-size="10.00">...</text>
</g>
<!-- Node8&#45;&gt;Node5 -->
<g id="edge34" class="edge"><title>Node8&#45;&gt;Node5</title>
<path fill="none" stroke="#404040" d="M245.286,-1637.84C213.242,-1621.08 140,-1576.06 140,-1514.5 140,-1514.5 140,-1514.5 140,-342.5 140,-301.778 169.239,-295.245 207,-280 221.141,-274.291 407.973,-232.84 510.964,-210.189"/>
<polygon fill="none" stroke="#404040" points="511.068,-210.166 516.069,-204.972 522.788,-207.59 517.786,-212.785 511.068,-210.166"/>
<text text-anchor="middle" x="170.5" y="-976" font-family="Helvetica,sans-Serif" font-size="10.00"> +currentLevel</text>
<text text-anchor="middle" x="170.5" y="-965" font-family="Helvetica,sans-Serif" font-size="10.00">&#45;money</text>
</g>
<!-- Node8&#45;&gt;Node7 -->
<g id="edge8" class="edge"><title>Node8&#45;&gt;Node7</title>
<path fill="none" stroke="#404040" d="M274.832,-1637.25C301.545,-1623.06 359.134,-1591.37 404,-1559 405.641,-1557.82 407.296,-1556.59 408.955,-1555.35"/>
<polygon fill="none" stroke="#404040" points="408.968,-1555.34 411.254,-1548.5 418.446,-1547.98 416.161,-1554.82 408.968,-1555.34"/>
<text text-anchor="middle" x="392" y="-1585.5" font-family="Helvetica,sans-Serif" font-size="10.00"> #cost</text>
</g>
<!-- Node10 -->
<g id="node9" class="node"><title>Node10</title>
<g id="a_node9"><a xlink:href="class_enemy.html" target="_top" xlink:title="Defines an AI controller enemy to fight in battle scenes">
<polygon fill="none" stroke="black" points="430.5,-315 430.5,-372 497.5,-372 497.5,-315 430.5,-315"/>
<text text-anchor="middle" x="464" y="-360" font-family="Helvetica,sans-Serif" font-size="10.00">Enemy</text>
<polyline fill="none" stroke="black" points="430.5,-353 497.5,-353 "/>
<text text-anchor="start" x="438.5" y="-341" font-family="Helvetica,sans-Serif" font-size="10.00">+ ExpGiven</text>
<polyline fill="none" stroke="black" points="430.5,-334 497.5,-334 "/>
<text text-anchor="start" x="438.5" y="-322" font-family="Helvetica,sans-Serif" font-size="10.00">+ Enemy()</text>
</a>
</g>
</g>
<!-- Node8&#45;&gt;Node10 -->
<g id="edge32" class="edge"><title>Node8&#45;&gt;Node10</title>
<path fill="none" stroke="#404040" d="M245.141,-1631.76C222.256,-1609.83 181,-1563.5 181,-1514.5 181,-1514.5 181,-1514.5 181,-1272.5 181,-1075.77 300.181,-583.929 401,-415 408.085,-403.129 417.326,-391.439 426.539,-381.095"/>
<polygon fill="none" stroke="#404040" points="426.788,-380.825 427.919,-373.703 434.928,-372.008 433.797,-379.129 426.788,-380.825"/>
<text text-anchor="middle" x="233" y="-1034" font-family="Helvetica,sans-Serif" font-size="10.00"> &#45;expGiven</text>
</g>
<!-- Node8&#45;&gt;Node11 -->
<g id="edge14" class="edge"><title>Node8&#45;&gt;Node11</title>
<path fill="none" stroke="#404040" d="M256.5,-1617.31C255.875,-1611.28 255.322,-1604.94 255,-1599 251.85,-1540.86 252.156,-1526.15 255,-1468 263.9,-1286.01 262.53,-1239.29 295,-1060 325.739,-890.27 307.061,-833.391 395,-685 423.792,-636.416 471.082,-592.939 508.642,-563.131"/>
<polygon fill="none" stroke="#404040" points="508.997,-562.854 511.267,-556.01 518.458,-555.473 516.188,-562.318 508.997,-562.854"/>
<text text-anchor="middle" x="332.5" y="-1196.5" font-family="Helvetica,sans-Serif" font-size="10.00"> #speed</text>
<text text-anchor="middle" x="332.5" y="-1185.5" font-family="Helvetica,sans-Serif" font-size="10.00">#luck</text>
<text text-anchor="middle" x="332.5" y="-1174.5" font-family="Helvetica,sans-Serif" font-size="10.00">#health</text>
<text text-anchor="middle" x="332.5" y="-1163.5" font-family="Helvetica,sans-Serif" font-size="10.00">#magic</text>
<text text-anchor="middle" x="332.5" y="-1152.5" font-family="Helvetica,sans-Serif" font-size="10.00">#maximumMagic</text>
<text text-anchor="middle" x="332.5" y="-1141.5" font-family="Helvetica,sans-Serif" font-size="10.00">#attack</text>
<text text-anchor="middle" x="332.5" y="-1130.5" font-family="Helvetica,sans-Serif" font-size="10.00">#defence</text>
<text text-anchor="middle" x="332.5" y="-1119.5" font-family="Helvetica,sans-Serif" font-size="10.00">#level</text>
<text text-anchor="middle" x="332.5" y="-1108.5" font-family="Helvetica,sans-Serif" font-size="10.00">#rage</text>
</g>
<!-- Node8&#45;&gt;Node13 -->
<g id="edge30" class="edge"><title>Node8&#45;&gt;Node13</title>
<path fill="none" stroke="#404040" d="M274.702,-1644.17C316.645,-1640.99 438.086,-1626.15 504,-1559 540.595,-1521.72 538.04,-1501.28 548,-1450 549.864,-1440.4 548.748,-1437.75 548,-1428 542.874,-1361.19 530.736,-1345.76 525,-1279 525,-1279 518.584,-927.706 516.03,-787.905"/>
<polygon fill="none" stroke="#404040" points="516.029,-787.838 511.92,-781.913 515.81,-775.84 519.919,-781.766 516.029,-787.838"/>
<text text-anchor="middle" x="542.5" y="-1271" font-family="Helvetica,sans-Serif" font-size="10.00"> #magic</text>
</g>
<!-- Node8&#45;&gt;Node15 -->
<g id="edge23" class="edge"><title>Node8&#45;&gt;Node15</title>
<path fill="none" stroke="#404040" d="M258.678,-1617.08C256.934,-1555.64 259.127,-1405.59 314,-1297 331.263,-1262.84 359.861,-1231.8 386.726,-1207.6"/>
<polygon fill="none" stroke="#404040" points="386.742,-1207.58 388.605,-1200.62 395.752,-1199.66 393.889,-1206.62 386.742,-1207.58"/>
<text text-anchor="middle" x="291.5" y="-1436.5" font-family="Helvetica,sans-Serif" font-size="10.00"> +money</text>
</g>
<!-- Node8&#45;&gt;Node16 -->
<g id="edge28" class="edge"><title>Node8&#45;&gt;Node16</title>
<path fill="none" stroke="#404040" d="M274.579,-1627.5C280.906,-1619.24 287.998,-1609.03 293,-1599 320.238,-1544.41 313.632,-1525.51 334,-1468 339.414,-1452.71 345.61,-1436.43 351.639,-1421.11"/>
<polygon fill="none" stroke="#404040" points="351.774,-1420.76 350.269,-1413.71 356.2,-1409.61 357.705,-1416.66 351.774,-1420.76"/>
<text text-anchor="middle" x="371.5" y="-1516.5" font-family="Helvetica,sans-Serif" font-size="10.00"> &#45;expToNextLevel</text>
<text text-anchor="middle" x="371.5" y="-1505.5" font-family="Helvetica,sans-Serif" font-size="10.00">&#45;exp</text>
</g>
<!-- Node9 -->
<g id="node8" class="node"><title>Node9</title>
<polygon fill="none" stroke="#bfbfbf" points="751.5,-315 751.5,-372 822.5,-372 822.5,-315 751.5,-315"/>
<text text-anchor="middle" x="787" y="-360" font-family="Helvetica,sans-Serif" font-size="10.00">GameObject</text>
<polyline fill="none" stroke="#bfbfbf" points="751.5,-353 822.5,-353 "/>
<text text-anchor="middle" x="787" y="-341" font-family="Helvetica,sans-Serif" font-size="10.00"> </text>
<polyline fill="none" stroke="#bfbfbf" points="751.5,-334 822.5,-334 "/>
<text text-anchor="middle" x="787" y="-322" font-family="Helvetica,sans-Serif" font-size="10.00"> </text>
</g>
<!-- Node9&#45;&gt;Node5 -->
<g id="edge10" class="edge"><title>Node9&#45;&gt;Node5</title>
<path fill="none" stroke="#404040" d="M770.124,-314.757C762.042,-303.027 751.596,-289.835 740,-280 711.667,-255.97 675.352,-236.242 644.288,-221.908"/>
<polygon fill="none" stroke="#404040" points="644.048,-221.8 636.935,-222.984 633.106,-216.873 640.219,-215.689 644.048,-221.8"/>
<text text-anchor="middle" x="769" y="-283" font-family="Helvetica,sans-Serif" font-size="10.00"> +player</text>
</g>
<!-- Node10&#45;&gt;Node5 -->
<g id="edge11" class="edge"><title>Node10&#45;&gt;Node5</title>
<path fill="none" stroke="#404040" d="M485.443,-314.85C495.11,-302.384 507.05,-286.988 519.103,-271.446"/>
<polygon fill="none" stroke="#404040" points="519.249,-271.258 519.765,-264.065 526.603,-261.775 526.087,-268.968 519.249,-271.258"/>
<text text-anchor="middle" x="529" y="-283" font-family="Helvetica,sans-Serif" font-size="10.00"> &#45;enemy</text>
</g>
<!-- Node10&#45;&gt;Node15 -->
<g id="edge22" class="edge"><title>Node10&#45;&gt;Node15</title>
<path fill="none" stroke="#404040" d="M456.385,-372.385C442.421,-425.12 413.218,-543.302 403,-645 388.994,-784.4 411.616,-945.281 431.043,-1048.23"/>
<polygon fill="none" stroke="#404040" points="431.074,-1048.4 436.132,-1053.54 433.333,-1060.19 428.275,-1055.05 431.074,-1048.4"/>
<text text-anchor="middle" x="418" y="-728" font-family="Helvetica,sans-Serif" font-size="10.00"> &#45;enemy</text>
</g>
<!-- Node11&#45;&gt;Node10 -->
<g id="edge12" class="edge"><title>Node11&#45;&gt;Node10</title>
<path fill="none" stroke="midnightblue" d="M513.408,-429.51C501.246,-408.585 489.205,-387.868 480.055,-372.125"/>
<polygon fill="none" stroke="midnightblue" points="510.383,-431.272 518.434,-438.159 516.435,-427.754 510.383,-431.272"/>
</g>
<!-- Node11&#45;&gt;Node14 -->
<g id="edge19" class="edge"><title>Node11&#45;&gt;Node14</title>
<path fill="none" stroke="#404040" d="M582.094,-626.587C582.807,-632.809 583.451,-638.982 584,-645 592.893,-742.458 595.251,-856.824 595.843,-921.212"/>
<polygon fill="none" stroke="#404040" points="595.844,-921.404 599.891,-927.373 595.939,-933.404 591.891,-927.436 595.844,-921.404"/>
<text text-anchor="middle" x="610" y="-733.5" font-family="Helvetica,sans-Serif" font-size="10.00"> #target</text>
<text text-anchor="middle" x="610" y="-722.5" font-family="Helvetica,sans-Serif" font-size="10.00">#user</text>
</g>
<!-- Node11&#45;&gt;Node16 -->
<g id="edge26" class="edge"><title>Node11&#45;&gt;Node16</title>
<path fill="none" stroke="midnightblue" d="M512.404,-588.781C492.203,-617.005 470.798,-651.142 457,-685 370.037,-898.391 370.83,-1179.81 375.734,-1297.29"/>
<polygon fill="none" stroke="midnightblue" points="515.299,-590.75 518.342,-580.602 509.635,-586.637 515.299,-590.75"/>
</g>
<!-- Node12 -->
<g id="node11" class="node"><title>Node12</title>
<polygon fill="none" stroke="#bfbfbf" points="782.5,-1325 782.5,-1382 817.5,-1382 817.5,-1325 782.5,-1325"/>
<text text-anchor="middle" x="800" y="-1370" font-family="Helvetica,sans-Serif" font-size="10.00">bool</text>
<polyline fill="none" stroke="#bfbfbf" points="782.5,-1363 817.5,-1363 "/>
<text text-anchor="middle" x="800" y="-1351" font-family="Helvetica,sans-Serif" font-size="10.00"> </text>
<polyline fill="none" stroke="#bfbfbf" points="782.5,-1344 817.5,-1344 "/>
<text text-anchor="middle" x="800" y="-1332" font-family="Helvetica,sans-Serif" font-size="10.00"> </text>
</g>
<!-- Node12&#45;&gt;Node2 -->
<g id="edge39" class="edge"><title>Node12&#45;&gt;Node2</title>
<path fill="none" stroke="#404040" d="M812.4,-1324.94C818.241,-1311.3 825.005,-1294.48 830,-1279 834.072,-1266.38 834.512,-1263.02 837,-1250 886.953,-988.543 921,-923.187 921,-657 921,-657 921,-657 921,-193.5 921,-154.879 911.971,-111.925 903.658,-80.564"/>
<polygon fill="none" stroke="#404040" points="903.585,-80.2971 898.14,-75.5699 900.409,-68.7251 905.854,-73.4523 903.585,-80.2971"/>
<text text-anchor="middle" x="954.5" y="-659" font-family="Helvetica,sans-Serif" font-size="10.00"> +canRunAway</text>
<text text-anchor="middle" x="954.5" y="-648" font-family="Helvetica,sans-Serif" font-size="10.00">&#45;canRage</text>
</g>
<!-- Node12&#45;&gt;Node5 -->
<g id="edge35" class="edge"><title>Node12&#45;&gt;Node5</title>
<path fill="none" stroke="#404040" d="M805.965,-1324.99C813.641,-1287.13 826,-1216.74 826,-1156 826,-1156 826,-1156 826,-655 826,-504.953 698.35,-513.069 633,-378 617.083,-345.103 604.664,-306.625 595.686,-273.504"/>
<polygon fill="none" stroke="#404040" points="595.597,-273.167 590.198,-268.387 592.534,-261.564 597.933,-266.345 595.597,-273.167"/>
<text text-anchor="middle" x="859.5" y="-728" font-family="Helvetica,sans-Serif" font-size="10.00"> +canRunAway</text>
</g>
<!-- Node12&#45;&gt;Node11 -->
<g id="edge15" class="edge"><title>Node12&#45;&gt;Node11</title>
<path fill="none" stroke="#404040" d="M797.225,-1324.96C785.344,-1210.11 736.589,-769.454 676,-645 662.888,-618.067 642.136,-592.616 622.172,-571.928"/>
<polygon fill="none" stroke="#404040" points="622.134,-571.89 615.07,-570.442 613.69,-563.364 620.754,-564.812 622.134,-571.89"/>
<text text-anchor="middle" x="781.5" y="-970.5" font-family="Helvetica,sans-Serif" font-size="10.00"> #canRage</text>
</g>
<!-- Node12&#45;&gt;Node15 -->
<g id="edge24" class="edge"><title>Node12&#45;&gt;Node15</title>
<path fill="none" stroke="#404040" d="M782.326,-1345.21C754.642,-1333.94 699.223,-1312.05 651,-1297 619.924,-1287.3 608.398,-1294.92 580,-1279 558.881,-1267.16 538.77,-1250.88 521.064,-1234.03"/>
<polygon fill="none" stroke="#404040" points="520.608,-1233.59 513.522,-1232.25 512.032,-1225.19 519.118,-1226.53 520.608,-1233.59"/>
<text text-anchor="middle" x="613" y="-1271" font-family="Helvetica,sans-Serif" font-size="10.00"> &#45;wasCriticalHit</text>
</g>
<!-- Node13&#45;&gt;Node11 -->
<g id="edge16" class="edge"><title>Node13&#45;&gt;Node11</title>
<path fill="none" stroke="#404040" d="M525.816,-685.495C529.284,-671.382 533.303,-655.033 537.43,-638.241"/>
<polygon fill="none" stroke="#404040" points="537.435,-638.22 534.983,-631.439 540.299,-626.567 542.752,-633.348 537.435,-638.22"/>
<text text-anchor="middle" x="557.5" y="-659" font-family="Helvetica,sans-Serif" font-size="10.00"> #special1</text>
<text text-anchor="middle" x="557.5" y="-648" font-family="Helvetica,sans-Serif" font-size="10.00">#special2</text>
</g>
<!-- Node14&#45;&gt;Node13 -->
<g id="edge17" class="edge"><title>Node14&#45;&gt;Node13</title>
<path fill="none" stroke="midnightblue" d="M567.942,-924.268C566.518,-921.174 565.189,-918.069 564,-915 544.066,-863.526 551.03,-847.113 536,-794 534.317,-788.052 532.409,-781.833 530.447,-775.721"/>
<polygon fill="none" stroke="midnightblue" points="564.907,-926.027 572.449,-933.467 571.193,-922.947 564.907,-926.027"/>
</g>
<!-- Node15&#45;&gt;Node14 -->
<g id="edge20" class="edge"><title>Node15&#45;&gt;Node14</title>
<path fill="none" stroke="#404040" d="M512.167,-1080.27C527.547,-1060.77 543.759,-1040.22 557.784,-1022.44"/>
<polygon fill="none" stroke="#404040" points="557.899,-1022.3 558.475,-1015.11 565.332,-1012.88 564.756,-1020.06 557.899,-1022.3"/>
<text text-anchor="middle" x="574" y="-1034" font-family="Helvetica,sans-Serif" font-size="10.00"> #manager</text>
</g>
<!-- Node16&#45;&gt;Node15 -->
<g id="edge25" class="edge"><title>Node16&#45;&gt;Node15</title>
<path fill="none" stroke="#404040" d="M400.091,-1297.24C404.437,-1285.86 409.148,-1273.51 413.916,-1261.02"/>
<polygon fill="none" stroke="#404040" points="414.022,-1260.74 412.425,-1253.71 418.301,-1249.53 419.899,-1256.56 414.022,-1260.74"/>
<text text-anchor="middle" x="426.5" y="-1271" font-family="Helvetica,sans-Serif" font-size="10.00"> &#45;player</text>
</g>
<!-- Node17 -->
<g id="node16" class="node"><title>Node17</title>
<polygon fill="none" stroke="#bfbfbf" points="728.5,-702 728.5,-759 789.5,-759 789.5,-702 728.5,-702"/>
<text text-anchor="middle" x="759" y="-747" font-family="Helvetica,sans-Serif" font-size="10.00">Texture2D</text>
<polyline fill="none" stroke="#bfbfbf" points="728.5,-740 789.5,-740 "/>
<text text-anchor="middle" x="759" y="-728" font-family="Helvetica,sans-Serif" font-size="10.00"> </text>
<polyline fill="none" stroke="#bfbfbf" points="728.5,-721 789.5,-721 "/>
<text text-anchor="middle" x="759" y="-709" font-family="Helvetica,sans-Serif" font-size="10.00"> </text>
</g>
<!-- Node17&#45;&gt;Node2 -->
<g id="edge41" class="edge"><title>Node17&#45;&gt;Node2</title>
<path fill="none" stroke="#404040" d="M764.991,-701.763C777.731,-642.462 808.211,-498.896 831,-378 851.055,-271.607 871.982,-146.093 882.706,-80.533"/>
<polygon fill="none" stroke="#404040" points="882.717,-80.4687 879.735,-73.9027 884.649,-68.6254 887.631,-75.1913 882.717,-80.4687"/>
<text text-anchor="middle" x="861" y="-341" font-family="Helvetica,sans-Serif" font-size="10.00"> +sprite</text>
</g>
<!-- Node17&#45;&gt;Node11 -->
<g id="edge31" class="edge"><title>Node17&#45;&gt;Node11</title>
<path fill="none" stroke="#404040" d="M747.662,-701.986C739.733,-684.613 728.063,-662.271 714,-645 688.13,-613.228 653.081,-583.669 623.585,-561.495"/>
<polygon fill="none" stroke="#404040" points="623.463,-561.404 616.26,-561.05 613.817,-554.266 621.019,-554.62 623.463,-561.404"/>
<text text-anchor="middle" x="746.5" y="-653.5" font-family="Helvetica,sans-Serif" font-size="10.00"> #image</text>
</g>
<!-- Node18 -->
<g id="node17" class="node"><title>Node18</title>
<polygon fill="none" stroke="#bfbfbf" points="168,-309.5 168,-377.5 266,-377.5 266,-309.5 168,-309.5"/>
<text text-anchor="start" x="176" y="-365.5" font-family="Helvetica,sans-Serif" font-size="10.00">IDictionary&lt; string,</text>
<text text-anchor="middle" x="217" y="-354.5" font-family="Helvetica,sans-Serif" font-size="10.00"> bool &gt;</text>
<polyline fill="none" stroke="#bfbfbf" points="168,-347.5 266,-347.5 "/>
<text text-anchor="middle" x="217" y="-335.5" font-family="Helvetica,sans-Serif" font-size="10.00"> </text>
<polyline fill="none" stroke="#bfbfbf" points="168,-328.5 266,-328.5 "/>
<text text-anchor="middle" x="217" y="-316.5" font-family="Helvetica,sans-Serif" font-size="10.00"> </text>
</g>
<!-- Node18&#45;&gt;Node5 -->
<g id="edge36" class="edge"><title>Node18&#45;&gt;Node5</title>
<path fill="none" stroke="#404040" d="M208.728,-309.339C208.046,-298.99 209.525,-288.161 216,-280 252.124,-234.473 416.596,-211.182 510.941,-201.373"/>
<polygon fill="none" stroke="#404040" points="510.987,-201.368 516.554,-196.784 522.926,-200.16 517.359,-204.744 510.987,-201.368"/>
<text text-anchor="middle" x="249.5" y="-283" font-family="Helvetica,sans-Serif" font-size="10.00"> +objectsActive</text>
</g>
<!-- Node19 -->
<g id="node18" class="node"><title>Node19</title>
<polygon fill="none" stroke="#bfbfbf" points="1085.5,-166 1085.5,-223 1120.5,-223 1120.5,-166 1085.5,-166"/>
<text text-anchor="middle" x="1103" y="-211" font-family="Helvetica,sans-Serif" font-size="10.00">float</text>
<polyline fill="none" stroke="#bfbfbf" points="1085.5,-204 1120.5,-204 "/>
<text text-anchor="middle" x="1103" y="-192" font-family="Helvetica,sans-Serif" font-size="10.00"> </text>
<polyline fill="none" stroke="#bfbfbf" points="1085.5,-185 1120.5,-185 "/>
<text text-anchor="middle" x="1103" y="-173" font-family="Helvetica,sans-Serif" font-size="10.00"> </text>
</g>
<!-- Node19&#45;&gt;Node2 -->
<g id="edge37" class="edge"><title>Node19&#45;&gt;Node2</title>
<path fill="none" stroke="#404040" d="M1101.85,-165.721C1099.36,-141.725 1092.04,-107.733 1071,-87 1040.97,-57.4102 995.231,-44.5654 957.244,-39.1028"/>
<polygon fill="none" stroke="#404040" points="957.118,-39.0869 950.662,-42.3 945.213,-37.5767 951.669,-34.3636 957.118,-39.0869"/>
<text text-anchor="middle" x="1122" y="-101" font-family="Helvetica,sans-Serif" font-size="10.00"> +special2Value</text>
<text text-anchor="middle" x="1122" y="-90" font-family="Helvetica,sans-Serif" font-size="10.00">+special1Value</text>
</g>
<!-- Node20 -->
<g id="node19" class="node"><title>Node20</title>
<polygon fill="none" stroke="#bfbfbf" points="1151.5,-166 1151.5,-223 1226.5,-223 1226.5,-166 1151.5,-166"/>
<text text-anchor="middle" x="1189" y="-211" font-family="Helvetica,sans-Serif" font-size="10.00">EnemyMoves</text>
<polyline fill="none" stroke="#bfbfbf" points="1151.5,-204 1226.5,-204 "/>
<text text-anchor="middle" x="1189" y="-192" font-family="Helvetica,sans-Serif" font-size="10.00"> </text>
<polyline fill="none" stroke="#bfbfbf" points="1151.5,-185 1226.5,-185 "/>
<text text-anchor="middle" x="1189" y="-173" font-family="Helvetica,sans-Serif" font-size="10.00"> </text>
</g>
<!-- Node20&#45;&gt;Node2 -->
<g id="edge40" class="edge"><title>Node20&#45;&gt;Node2</title>
<path fill="none" stroke="#404040" d="M1189.46,-165.817C1188.29,-141.545 1182.53,-107.085 1161,-87 1132.1,-60.0326 1027.77,-46.4294 957.321,-40.1687"/>
<polygon fill="none" stroke="#404040" points="956.978,-40.1395 950.659,-43.6148 945.021,-39.1191 951.339,-35.6438 956.978,-40.1395"/>
<text text-anchor="middle" x="1200" y="-101" font-family="Helvetica,sans-Serif" font-size="10.00"> +special1</text>
<text text-anchor="middle" x="1200" y="-90" font-family="Helvetica,sans-Serif" font-size="10.00">+special2</text>
</g>
</g>
</svg>
        <g id="navigator" transform="translate(0 0)" fill="#404254">
                <rect fill="#f2f5e9" fill-opacity="0.5" stroke="#606060" stroke-width=".5" x="0" y="0" width="60" height="60"/>
                <use id="zoomplus" xlink:href="#zoomPlus" x="17" y="9" onmousedown="handleZoom(evt,'in')"/>
                <use id="zoomminus" xlink:href="#zoomMin" x="42" y="9" onmousedown="handleZoom(evt,'out')"/>
                <use id="reset" xlink:href="#resetDef" x="30" y="36" onmousedown="handleReset()"/>
                <g id="arrowUp" xlink:href="#dirArrow" transform="translate(30 24)" onmousedown="handlePan(0,-1)">
                  <use xlink:href="#rim" fill="#404040">
                        <set attributeName="fill" to="#808080" begin="arrowUp.mouseover" end="arrowUp.mouseout"/>
                  </use>
                  <path fill="none" stroke="white" stroke-width="1.5" d="M0,-3.0v7 M-2.5,-0.5L0,-3.0L2.5,-0.5"/>
                </g>
                <g id="arrowRight" xlink:href="#dirArrow" transform="rotate(90) translate(36 -43)" onmousedown="handlePan(1,0)">
                  <use xlink:href="#rim" fill="#404040">
                        <set attributeName="fill" to="#808080" begin="arrowRight.mouseover" end="arrowRight.mouseout"/>
                  </use>
                  <path fill="none" stroke="white" stroke-width="1.5" d="M0,-3.0v7 M-2.5,-0.5L0,-3.0L2.5,-0.5"/>
                </g>
                <g id="arrowDown" xlink:href="#dirArrow" transform="rotate(180) translate(-30 -48)" onmousedown="handlePan(0,1)">
                  <use xlink:href="#rim" fill="#404040">
                        <set attributeName="fill" to="#808080" begin="arrowDown.mouseover" end="arrowDown.mouseout"/>
                  </use>
                  <path fill="none" stroke="white" stroke-width="1.5" d="M0,-3.0v7 M-2.5,-0.5L0,-3.0L2.5,-0.5"/>
                </g>
                <g id="arrowLeft" xlink:href="#dirArrow" transform="rotate(270) translate(-36 17)" onmousedown="handlePan(-1,0)">
                  <use xlink:href="#rim" fill="#404040">
                        <set attributeName="fill" to="#808080" begin="arrowLeft.mouseover" end="arrowLeft.mouseout"/>
                  </use>
                  <path fill="none" stroke="white" stroke-width="1.5" d="M0,-3.0v7 M-2.5,-0.5L0,-3.0L2.5,-0.5"/>
                </g>
        </g>
        <svg viewBox="0 0 15 15" width="100%" height="30px" preserveAspectRatio="xMaxYMin meet">
         <g id="arrow_out" transform="scale(0.3 0.3)">
          <a xlink:href="class_battle_descriptor__coll__graph_org.svg" target="_base">
           <rect id="button" ry="5" rx="5" y="6" x="6" height="38" width="38"
                fill="#f2f5e9" fill-opacity="0.5" stroke="#606060" stroke-width="1.0"/>
           <path id="arrow"
             d="M 11.500037,31.436501 C 11.940474,20.09759 22.043105,11.32322 32.158766,21.979434 L 37.068811,17.246167 C 37.068811,17.246167 37.088388,32 37.088388,32 L 22.160133,31.978069 C 22.160133,31.978069 26.997745,27.140456 26.997745,27.140456 C 18.528582,18.264221 13.291696,25.230495 11.500037,31.436501 z"
             style="fill:#404040;"/>
          </a>
         </g>
        </svg>
</svg>
