<?xml version="1.0" encoding="UTF-8" standalone="no"?>
<!DOCTYPE svg PUBLIC "-//W3C//DTD SVG 1.1//EN"
 "http://www.w3.org/Graphics/SVG/1.1/DTD/svg11.dtd">
<!-- Generated by graphviz version 2.38.0 (20140413.2041)
 -->
<!-- Title: DataManager.StoredData.SpecialMove Pages: 1 -->
<svg width="192pt" height="182pt"
 viewBox="0.00 0.00 192.00 182.00" xmlns="http://www.w3.org/2000/svg" xmlns:xlink="http://www.w3.org/1999/xlink">
<g id="graph0" class="graph" transform="scale(1 1) rotate(0) translate(4 178)">
<title>DataManager.StoredData.SpecialMove</title>
<!-- Node8 -->
<g id="node1" class="node"><title>Node8</title>
<polygon fill="#bfbfbf" stroke="black" points="0,-0.5 0,-57.5 184,-57.5 184,-0.5 0,-0.5"/>
<text text-anchor="middle" x="92" y="-45.5" font-family="Helvetica,sans-Serif" font-size="10.00">DataManager.StoredData.SpecialMove</text>
<polyline fill="none" stroke="black" points="0,-38.5 184,-38.5 "/>
<text text-anchor="middle" x="92" y="-26.5" font-family="Helvetica,sans-Serif" font-size="10.00"> </text>
<polyline fill="none" stroke="black" points="0,-19.5 184,-19.5 "/>
<text text-anchor="middle" x="92" y="-7.5" font-family="Helvetica,sans-Serif" font-size="10.00"> </text>
</g>
<!-- Node9 -->
<g id="node2" class="node"><title>Node9</title>
<polygon fill="none" stroke="#bfbfbf" points="45.5,-116.5 45.5,-173.5 86.5,-173.5 86.5,-116.5 45.5,-116.5"/>
<text text-anchor="middle" x="66" y="-161.5" font-family="Helvetica,sans-Serif" font-size="10.00">string</text>
<polyline fill="none" stroke="#bfbfbf" points="45.5,-154.5 86.5,-154.5 "/>
<text text-anchor="middle" x="66" y="-142.5" font-family="Helvetica,sans-Serif" font-size="10.00"> </text>
<polyline fill="none" stroke="#bfbfbf" points="45.5,-135.5 86.5,-135.5 "/>
<text text-anchor="middle" x="66" y="-123.5" font-family="Helvetica,sans-Serif" font-size="10.00"> </text>
</g>
<!-- Node9&#45;&gt;Node8 -->
<g id="edge1" class="edge"><title>Node9&#45;&gt;Node8</title>
<path fill="none" stroke="#404040" d="M64.6222,-116.48C64.6517,-103.95 65.6166,-89.0396 69,-76 69.5886,-73.7313 70.2984,-71.4443 71.0982,-69.1664"/>
<polygon fill="none" stroke="#404040" points="71.1347,-69.0778 69.721,-62.0066 75.7045,-57.982 77.1182,-65.0531 71.1347,-69.0778"/>
<text text-anchor="middle" x="83" y="-90" font-family="Helvetica,sans-Serif" font-size="10.00"> +text</text>
<text text-anchor="middle" x="83" y="-79" font-family="Helvetica,sans-Serif" font-size="10.00">+desc</text>
</g>
<!-- Node10 -->
<g id="node3" class="node"><title>Node10</title>
<polygon fill="none" stroke="#bfbfbf" points="104.5,-116.5 104.5,-173.5 133.5,-173.5 133.5,-116.5 104.5,-116.5"/>
<text text-anchor="middle" x="119" y="-161.5" font-family="Helvetica,sans-Serif" font-size="10.00">int</text>
<polyline fill="none" stroke="#bfbfbf" points="104.5,-154.5 133.5,-154.5 "/>
<text text-anchor="middle" x="119" y="-142.5" font-family="Helvetica,sans-Serif" font-size="10.00"> </text>
<polyline fill="none" stroke="#bfbfbf" points="104.5,-135.5 133.5,-135.5 "/>
<text text-anchor="middle" x="119" y="-123.5" font-family="Helvetica,sans-Serif" font-size="10.00"> </text>
</g>
<!-- Node10&#45;&gt;Node8 -->
<g id="edge2" class="edge"><title>Node10&#45;&gt;Node8</title>
<path fill="none" stroke="#404040" d="M112.464,-116.404C109.139,-102.365 105.038,-85.049 101.382,-69.614"/>
<polygon fill="none" stroke="#404040" points="101.335,-69.4142 96.0599,-64.4976 98.5693,-57.7372 103.844,-62.6538 101.335,-69.4142"/>
<text text-anchor="middle" x="125" y="-84.5" font-family="Helvetica,sans-Serif" font-size="10.00"> +magic</text>
</g>
</g>
</svg>
