<?xml version="1.0" encoding="UTF-8" standalone="no"?>
<!DOCTYPE svg PUBLIC "-//W3C//DTD SVG 1.1//EN"
 "http://www.w3.org/Graphics/SVG/1.1/DTD/svg11.dtd">
<!-- Generated by graphviz version 2.38.0 (20140413.2041)
 -->
<!-- Title: ScoreScript Pages: 1 -->
<svg width="222pt" height="182pt"
 viewBox="0.00 0.00 222.00 182.00" xmlns="http://www.w3.org/2000/svg" xmlns:xlink="http://www.w3.org/1999/xlink">
<g id="graph0" class="graph" transform="scale(1 1) rotate(0) translate(4 178)">
<title>ScoreScript</title>
<!-- Node2 -->
<g id="node1" class="node"><title>Node2</title>
<polygon fill="#bfbfbf" stroke="black" points="81.5,-0.5 81.5,-68.5 149.5,-68.5 149.5,-0.5 81.5,-0.5"/>
<text text-anchor="middle" x="115.5" y="-56.5" font-family="Helvetica,sans-Serif" font-size="10.00">ScoreScript</text>
<polyline fill="none" stroke="black" points="81.5,-49.5 149.5,-49.5 "/>
<text text-anchor="middle" x="115.5" y="-37.5" font-family="Helvetica,sans-Serif" font-size="10.00"> </text>
<polyline fill="none" stroke="black" points="81.5,-30.5 149.5,-30.5 "/>
<text text-anchor="start" x="89.5" y="-18.5" font-family="Helvetica,sans-Serif" font-size="10.00">&#45; Start()</text>
<text text-anchor="start" x="89.5" y="-7.5" font-family="Helvetica,sans-Serif" font-size="10.00">&#45; Update()</text>
</g>
<!-- Node3 -->
<g id="node2" class="node"><title>Node3</title>
<g id="a_node2"><a xlink:href="class_mono_behaviour.html" target="_top" xlink:title="{MonoBehaviour\n||}">
<polygon fill="none" stroke="black" points="0,-116.5 0,-173.5 83,-173.5 83,-116.5 0,-116.5"/>
<text text-anchor="middle" x="41.5" y="-161.5" font-family="Helvetica,sans-Serif" font-size="10.00">MonoBehaviour</text>
<polyline fill="none" stroke="black" points="0,-154.5 83,-154.5 "/>
<text text-anchor="middle" x="41.5" y="-142.5" font-family="Helvetica,sans-Serif" font-size="10.00"> </text>
<polyline fill="none" stroke="black" points="0,-135.5 83,-135.5 "/>
<text text-anchor="middle" x="41.5" y="-123.5" font-family="Helvetica,sans-Serif" font-size="10.00"> </text>
</a>
</g>
</g>
<!-- Node3&#45;&gt;Node2 -->
<g id="edge1" class="edge"><title>Node3&#45;&gt;Node2</title>
<path fill="none" stroke="midnightblue" d="M66.1701,-107.828C74.8296,-95.1315 84.5066,-80.943 92.9804,-68.5186"/>
<polygon fill="none" stroke="midnightblue" points="63.1079,-106.107 60.3648,-116.34 68.8909,-110.051 63.1079,-106.107"/>
</g>
<!-- Node4 -->
<g id="node3" class="node"><title>Node4</title>
<polygon fill="none" stroke="#bfbfbf" points="101,-116.5 101,-173.5 130,-173.5 130,-116.5 101,-116.5"/>
<text text-anchor="middle" x="115.5" y="-161.5" font-family="Helvetica,sans-Serif" font-size="10.00">int</text>
<polyline fill="none" stroke="#bfbfbf" points="101,-154.5 130,-154.5 "/>
<text text-anchor="middle" x="115.5" y="-142.5" font-family="Helvetica,sans-Serif" font-size="10.00"> </text>
<polyline fill="none" stroke="#bfbfbf" points="101,-135.5 130,-135.5 "/>
<text text-anchor="middle" x="115.5" y="-123.5" font-family="Helvetica,sans-Serif" font-size="10.00"> </text>
</g>
<!-- Node4&#45;&gt;Node2 -->
<g id="edge2" class="edge"><title>Node4&#45;&gt;Node2</title>
<path fill="none" stroke="#404040" d="M115.5,-116.34C115.5,-105.529 115.5,-92.847 115.5,-80.7745"/>
<polygon fill="none" stroke="#404040" points="115.5,-80.5186 111.5,-74.5186 115.5,-68.5186 119.5,-74.5185 115.5,-80.5186"/>
<text text-anchor="middle" x="144.5" y="-90" font-family="Helvetica,sans-Serif" font-size="10.00"> +scoreValue</text>
</g>
<!-- Node5 -->
<g id="node4" class="node"><title>Node5</title>
<polygon fill="none" stroke="#bfbfbf" points="179,-116.5 179,-173.5 214,-173.5 214,-116.5 179,-116.5"/>
<text text-anchor="middle" x="196.5" y="-161.5" font-family="Helvetica,sans-Serif" font-size="10.00">Text</text>
<polyline fill="none" stroke="#bfbfbf" points="179,-154.5 214,-154.5 "/>
<text text-anchor="middle" x="196.5" y="-142.5" font-family="Helvetica,sans-Serif" font-size="10.00"> </text>
<polyline fill="none" stroke="#bfbfbf" points="179,-135.5 214,-135.5 "/>
<text text-anchor="middle" x="196.5" y="-123.5" font-family="Helvetica,sans-Serif" font-size="10.00"> </text>
</g>
<!-- Node5&#45;&gt;Node2 -->
<g id="edge3" class="edge"><title>Node5&#45;&gt;Node2</title>
<path fill="none" stroke="#404040" d="M188.828,-116.268C185.364,-106.5 180.644,-95.7766 174.5,-87 169.997,-80.5676 164.523,-74.4166 158.746,-68.7472"/>
<polygon fill="none" stroke="#404040" points="158.349,-68.3828 151.225,-67.2687 149.513,-60.2636 156.637,-61.3778 158.349,-68.3828"/>
<text text-anchor="middle" x="196" y="-90" font-family="Helvetica,sans-Serif" font-size="10.00"> &#45;score</text>
</g>
</g>
</svg>
