<?xml version="1.0" encoding="UTF-8" standalone="no"?>
<!DOCTYPE svg PUBLIC "-//W3C//DTD SVG 1.1//EN"
 "http://www.w3.org/Graphics/SVG/1.1/DTD/svg11.dtd">
<!-- Generated by graphviz version 2.38.0 (20140413.2041)
 -->
<!-- Title: QuestObjectives.SpeedrunLevel Pages: 1 -->
<!--zoomable 562 -->
<svg id="main" version="1.1" xmlns="http://www.w3.org/2000/svg" xmlns:xlink="http://www.w3.org/1999/xlink" xml:space="preserve" onload="init(evt)">
<style type="text/css"><![CDATA[
.edge:hover path { stroke: red; }
.edge:hover polygon { stroke: red; fill: red; }
]]></style>
<script type="text/javascript"><![CDATA[
var edges = document.getElementsByTagName('g');
if (edges && edges.length) {
  for (var i=0;i<edges.length;i++) {
    if (edges[i].id.substr(0,4)=='edge') {
      edges[i].setAttribute('class','edge');
    }
  }
}
]]></script>
        <defs>
                <circle id="rim" cx="0" cy="0" r="7"/>
                <circle id="rim2" cx="0" cy="0" r="3.5"/>
                <g id="zoomPlus">
                        <use xlink:href="#rim" fill="#404040">
                                <set attributeName="fill" to="#808080" begin="zoomplus.mouseover" end="zoomplus.mouseout"/>
                        </use>
                        <path d="M-4,0h8M0,-4v8" fill="none" stroke="white" stroke-width="1.5" pointer-events="none"/>
                </g>
                <g id="zoomMin">
                        <use xlink:href="#rim" fill="#404040">
                                <set attributeName="fill" to="#808080" begin="zoomminus.mouseover" end="zoomminus.mouseout"/>
                        </use>
                        <path d="M-4,0h8" fill="none" stroke="white" stroke-width="1.5" pointer-events="none"/>
                </g>
                <g id="dirArrow">
                        <path fill="none" stroke="white" stroke-width="1.5" d="M0,-3.0v7 M-2.5,-0.5L0,-3.0L2.5,-0.5"/>
                </g>
               <g id="resetDef">
                       <use xlink:href="#rim2" fill="#404040">
                               <set attributeName="fill" to="#808080" begin="reset.mouseover" end="reset.mouseout"/>
                       </use>
               </g>
        </defs>

<script type="text/javascript">
var viewWidth = 522;
var viewHeight = 562;
var sectionId = 'dynsection-1';
</script>
<script xlink:href="svgpan.js"/>
<svg id="graph" class="graph">
<g id="viewport">
<title>QuestObjectives.SpeedrunLevel</title>
<!-- Node3 -->
<g id="node1" class="node"><title>Node3</title>
<polygon fill="#bfbfbf" stroke="black" points="268,-0.5 268,-178.5 400,-178.5 400,-0.5 268,-0.5"/>
<text text-anchor="start" x="276" y="-166.5" font-family="Helvetica,sans-Serif" font-size="10.00">QuestObjectives.Speedrun</text>
<text text-anchor="middle" x="334" y="-155.5" font-family="Helvetica,sans-Serif" font-size="10.00">Level</text>
<polyline fill="none" stroke="black" points="268,-148.5 400,-148.5 "/>
<text text-anchor="middle" x="334" y="-136.5" font-family="Helvetica,sans-Serif" font-size="10.00"> </text>
<polyline fill="none" stroke="black" points="268,-129.5 400,-129.5 "/>
<text text-anchor="start" x="276" y="-117.5" font-family="Helvetica,sans-Serif" font-size="10.00">+ SpeedrunLevel()</text>
<text text-anchor="start" x="276" y="-106.5" font-family="Helvetica,sans-Serif" font-size="10.00">+ SpeedrunLevel()</text>
<text text-anchor="start" x="276" y="-95.5" font-family="Helvetica,sans-Serif" font-size="10.00">+ GetObjectData()</text>
<text text-anchor="start" x="276" y="-84.5" font-family="Helvetica,sans-Serif" font-size="10.00"># subscribeHandlers()</text>
<text text-anchor="start" x="276" y="-73.5" font-family="Helvetica,sans-Serif" font-size="10.00"># unsubscribeHandlers()</text>
<text text-anchor="start" x="276" y="-62.5" font-family="Helvetica,sans-Serif" font-size="10.00"># dispose()</text>
<text text-anchor="start" x="276" y="-51.5" font-family="Helvetica,sans-Serif" font-size="10.00"># SpeedrunLevel()</text>
<text text-anchor="start" x="276" y="-40.5" font-family="Helvetica,sans-Serif" font-size="10.00">&#45; StartTimer()</text>
<text text-anchor="start" x="276" y="-29.5" font-family="Helvetica,sans-Serif" font-size="10.00">&#45; OnBeatLevel()</text>
<text text-anchor="start" x="276" y="-18.5" font-family="Helvetica,sans-Serif" font-size="10.00">&#45; OnSceneChange()</text>
<text text-anchor="start" x="276" y="-7.5" font-family="Helvetica,sans-Serif" font-size="10.00">&#45; OnTimeUp()</text>
</g>
<!-- Node4 -->
<g id="node2" class="node"><title>Node4</title>
<g id="a_node2"><a xlink:href="class_quest_objective.html" target="_top" xlink:title="Base quest objective class to be extended by actual quest objectives ">
<polygon fill="none" stroke="black" points="128.5,-237.5 128.5,-437.5 253.5,-437.5 253.5,-237.5 128.5,-237.5"/>
<text text-anchor="middle" x="191" y="-425.5" font-family="Helvetica,sans-Serif" font-size="10.00">QuestObjective</text>
<polyline fill="none" stroke="black" points="128.5,-418.5 253.5,-418.5 "/>
<text text-anchor="start" x="136.5" y="-406.5" font-family="Helvetica,sans-Serif" font-size="10.00">+ State</text>
<polyline fill="none" stroke="black" points="128.5,-399.5 253.5,-399.5 "/>
<text text-anchor="start" x="136.5" y="-387.5" font-family="Helvetica,sans-Serif" font-size="10.00">+ ObjectiveCallback()</text>
<text text-anchor="start" x="136.5" y="-376.5" font-family="Helvetica,sans-Serif" font-size="10.00">+ isComplete()</text>
<text text-anchor="start" x="136.5" y="-365.5" font-family="Helvetica,sans-Serif" font-size="10.00">+ isFailed()</text>
<text text-anchor="start" x="136.5" y="-354.5" font-family="Helvetica,sans-Serif" font-size="10.00">+ inProgress()</text>
<text text-anchor="start" x="136.5" y="-343.5" font-family="Helvetica,sans-Serif" font-size="10.00">+ GetObjectData()</text>
<text text-anchor="start" x="136.5" y="-332.5" font-family="Helvetica,sans-Serif" font-size="10.00"># QuestObjective()</text>
<text text-anchor="start" x="136.5" y="-321.5" font-family="Helvetica,sans-Serif" font-size="10.00"># setComplete()</text>
<text text-anchor="start" x="136.5" y="-310.5" font-family="Helvetica,sans-Serif" font-size="10.00"># setFailed()</text>
<text text-anchor="start" x="136.5" y="-299.5" font-family="Helvetica,sans-Serif" font-size="10.00"># subscribeHandlers()</text>
<text text-anchor="start" x="136.5" y="-288.5" font-family="Helvetica,sans-Serif" font-size="10.00"># unsubscribeHandlers()</text>
<text text-anchor="start" x="136.5" y="-277.5" font-family="Helvetica,sans-Serif" font-size="10.00"># QuestObjective()</text>
<text text-anchor="start" x="136.5" y="-266.5" font-family="Helvetica,sans-Serif" font-size="10.00"># dispose()</text>
<text text-anchor="start" x="136.5" y="-255.5" font-family="Helvetica,sans-Serif" font-size="10.00">&#45; setState()</text>
<text text-anchor="start" x="136.5" y="-244.5" font-family="Helvetica,sans-Serif" font-size="10.00">&#45; OnExitedToMainMenu()</text>
</a>
</g>
</g>
<!-- Node4&#45;&gt;Node3 -->
<g id="edge1" class="edge"><title>Node4&#45;&gt;Node3</title>
<path fill="none" stroke="midnightblue" d="M253.784,-228.494C263.452,-211.862 273.337,-194.858 282.715,-178.724"/>
<polygon fill="none" stroke="midnightblue" points="250.751,-226.747 248.751,-237.151 256.803,-230.265 250.751,-226.747"/>
</g>
<!-- Node5 -->
<g id="node3" class="node"><title>Node5</title>
<polygon fill="none" stroke="#bfbfbf" points="0,-485.5 0,-553.5 152,-553.5 152,-485.5 0,-485.5"/>
<text text-anchor="start" x="8" y="-541.5" font-family="Helvetica,sans-Serif" font-size="10.00">System::Runtime::Serialization</text>
<text text-anchor="middle" x="76" y="-530.5" font-family="Helvetica,sans-Serif" font-size="10.00">::ISerializable</text>
<polyline fill="none" stroke="#bfbfbf" points="0,-523.5 152,-523.5 "/>
<text text-anchor="middle" x="76" y="-511.5" font-family="Helvetica,sans-Serif" font-size="10.00"> </text>
<polyline fill="none" stroke="#bfbfbf" points="0,-504.5 152,-504.5 "/>
<text text-anchor="middle" x="76" y="-492.5" font-family="Helvetica,sans-Serif" font-size="10.00"> </text>
</g>
<!-- Node5&#45;&gt;Node4 -->
<g id="edge2" class="edge"><title>Node5&#45;&gt;Node4</title>
<path fill="none" stroke="midnightblue" d="M102.593,-476.877C110.429,-464.612 119.354,-450.641 128.449,-436.405"/>
<polygon fill="none" stroke="midnightblue" points="99.5273,-475.174 97.0928,-485.485 105.426,-478.943 99.5273,-475.174"/>
</g>
<!-- Node6 -->
<g id="node4" class="node"><title>Node6</title>
<polygon fill="none" stroke="#bfbfbf" points="170.5,-491 170.5,-548 211.5,-548 211.5,-491 170.5,-491"/>
<text text-anchor="middle" x="191" y="-536" font-family="Helvetica,sans-Serif" font-size="10.00">string</text>
<polyline fill="none" stroke="#bfbfbf" points="170.5,-529 211.5,-529 "/>
<text text-anchor="middle" x="191" y="-517" font-family="Helvetica,sans-Serif" font-size="10.00"> </text>
<polyline fill="none" stroke="#bfbfbf" points="170.5,-510 211.5,-510 "/>
<text text-anchor="middle" x="191" y="-498" font-family="Helvetica,sans-Serif" font-size="10.00"> </text>
</g>
<!-- Node6&#45;&gt;Node4 -->
<g id="edge3" class="edge"><title>Node6&#45;&gt;Node4</title>
<path fill="none" stroke="#404040" d="M191,-490.769C191,-479.253 191,-465.068 191,-450.032"/>
<polygon fill="none" stroke="#404040" points="191,-449.825 187,-443.825 191,-437.825 195,-443.825 191,-449.825"/>
<text text-anchor="middle" x="219.5" y="-459" font-family="Helvetica,sans-Serif" font-size="10.00"> +description</text>
</g>
<!-- Node7 -->
<g id="node5" class="node"><title>Node7</title>
<polygon fill="none" stroke="#bfbfbf" points="231,-491 231,-548 311,-548 311,-491 231,-491"/>
<text text-anchor="middle" x="271" y="-536" font-family="Helvetica,sans-Serif" font-size="10.00">ObjectiveState</text>
<polyline fill="none" stroke="#bfbfbf" points="231,-529 311,-529 "/>
<text text-anchor="middle" x="271" y="-517" font-family="Helvetica,sans-Serif" font-size="10.00"> </text>
<polyline fill="none" stroke="#bfbfbf" points="231,-510 311,-510 "/>
<text text-anchor="middle" x="271" y="-498" font-family="Helvetica,sans-Serif" font-size="10.00"> </text>
</g>
<!-- Node7&#45;&gt;Node4 -->
<g id="edge4" class="edge"><title>Node7&#45;&gt;Node4</title>
<path fill="none" stroke="#404040" d="M262.065,-490.848C258.316,-479.885 253.731,-467.238 249,-456 248.017,-453.666 247.01,-451.312 245.983,-448.946"/>
<polygon fill="none" stroke="#404040" points="245.905,-448.769 239.817,-444.904 241.043,-437.798 247.131,-441.663 245.905,-448.769"/>
<text text-anchor="middle" x="268" y="-459" font-family="Helvetica,sans-Serif" font-size="10.00"> &#45;state</text>
</g>
<!-- Node8 -->
<g id="node6" class="node"><title>Node8</title>
<polygon fill="none" stroke="#bfbfbf" points="272,-309 272,-366 330,-366 330,-309 272,-309"/>
<text text-anchor="middle" x="301" y="-354" font-family="Helvetica,sans-Serif" font-size="10.00">DateTime</text>
<polyline fill="none" stroke="#bfbfbf" points="272,-347 330,-347 "/>
<text text-anchor="middle" x="301" y="-335" font-family="Helvetica,sans-Serif" font-size="10.00"> </text>
<polyline fill="none" stroke="#bfbfbf" points="272,-328 330,-328 "/>
<text text-anchor="middle" x="301" y="-316" font-family="Helvetica,sans-Serif" font-size="10.00"> </text>
</g>
<!-- Node8&#45;&gt;Node3 -->
<g id="edge5" class="edge"><title>Node8&#45;&gt;Node3</title>
<path fill="none" stroke="#404040" d="M298.896,-308.792C297.286,-280.512 296.209,-235.438 302,-197 302.326,-194.839 302.685,-192.661 303.074,-190.471"/>
<polygon fill="none" stroke="#404040" points="303.078,-190.454 300.328,-183.787 305.424,-178.685 308.174,-185.352 303.078,-190.454"/>
<text text-anchor="middle" x="323.5" y="-205.5" font-family="Helvetica,sans-Serif" font-size="10.00"> &#45;endTime</text>
</g>
<!-- Node9 -->
<g id="node7" class="node"><title>Node9</title>
<polygon fill="none" stroke="#bfbfbf" points="352.5,-309 352.5,-366 381.5,-366 381.5,-309 352.5,-309"/>
<text text-anchor="middle" x="367" y="-354" font-family="Helvetica,sans-Serif" font-size="10.00">int</text>
<polyline fill="none" stroke="#bfbfbf" points="352.5,-347 381.5,-347 "/>
<text text-anchor="middle" x="367" y="-335" font-family="Helvetica,sans-Serif" font-size="10.00"> </text>
<polyline fill="none" stroke="#bfbfbf" points="352.5,-328 381.5,-328 "/>
<text text-anchor="middle" x="367" y="-316" font-family="Helvetica,sans-Serif" font-size="10.00"> </text>
</g>
<!-- Node9&#45;&gt;Node3 -->
<g id="edge6" class="edge"><title>Node9&#45;&gt;Node3</title>
<path fill="none" stroke="#404040" d="M363.279,-308.759C359.419,-279.987 353.156,-233.298 347.411,-190.472"/>
<polygon fill="none" stroke="#404040" points="347.402,-190.407 342.64,-184.992 345.807,-178.513 350.569,-183.928 347.402,-190.407"/>
<text text-anchor="middle" x="400.5" y="-211" font-family="Helvetica,sans-Serif" font-size="10.00"> &#45;level</text>
<text text-anchor="middle" x="400.5" y="-200" font-family="Helvetica,sans-Serif" font-size="10.00">&#45;timeToBeatInSeconds</text>
</g>
<!-- Node10 -->
<g id="node8" class="node"><title>Node10</title>
<polygon fill="none" stroke="#bfbfbf" points="464,-309 464,-366 514,-366 514,-309 464,-309"/>
<text text-anchor="middle" x="489" y="-354" font-family="Helvetica,sans-Serif" font-size="10.00">System</text>
<polyline fill="none" stroke="#bfbfbf" points="464,-347 514,-347 "/>
<text text-anchor="middle" x="489" y="-335" font-family="Helvetica,sans-Serif" font-size="10.00"> </text>
<polyline fill="none" stroke="#bfbfbf" points="464,-328 514,-328 "/>
<text text-anchor="middle" x="489" y="-316" font-family="Helvetica,sans-Serif" font-size="10.00"> </text>
</g>
<!-- Node10&#45;&gt;Node3 -->
<g id="edge7" class="edge"><title>Node10&#45;&gt;Node3</title>
<path fill="none" stroke="#404040" d="M486.918,-308.964C483.632,-279.414 475.242,-232.009 454,-197 442.357,-177.811 426.155,-160.151 409.417,-144.958"/>
<polygon fill="none" stroke="#404040" points="409.11,-144.689 401.962,-143.74 400.088,-136.777 407.237,-137.726 409.11,-144.689"/>
<text text-anchor="middle" x="479" y="-205.5" font-family="Helvetica,sans-Serif" font-size="10.00"> &#45;timer</text>
</g>
</g>
</svg>
        <g id="navigator" transform="translate(0 0)" fill="#404254">
                <rect fill="#f2f5e9" fill-opacity="0.5" stroke="#606060" stroke-width=".5" x="0" y="0" width="60" height="60"/>
                <use id="zoomplus" xlink:href="#zoomPlus" x="17" y="9" onmousedown="handleZoom(evt,'in')"/>
                <use id="zoomminus" xlink:href="#zoomMin" x="42" y="9" onmousedown="handleZoom(evt,'out')"/>
                <use id="reset" xlink:href="#resetDef" x="30" y="36" onmousedown="handleReset()"/>
                <g id="arrowUp" xlink:href="#dirArrow" transform="translate(30 24)" onmousedown="handlePan(0,-1)">
                  <use xlink:href="#rim" fill="#404040">
                        <set attributeName="fill" to="#808080" begin="arrowUp.mouseover" end="arrowUp.mouseout"/>
                  </use>
                  <path fill="none" stroke="white" stroke-width="1.5" d="M0,-3.0v7 M-2.5,-0.5L0,-3.0L2.5,-0.5"/>
                </g>
                <g id="arrowRight" xlink:href="#dirArrow" transform="rotate(90) translate(36 -43)" onmousedown="handlePan(1,0)">
                  <use xlink:href="#rim" fill="#404040">
                        <set attributeName="fill" to="#808080" begin="arrowRight.mouseover" end="arrowRight.mouseout"/>
                  </use>
                  <path fill="none" stroke="white" stroke-width="1.5" d="M0,-3.0v7 M-2.5,-0.5L0,-3.0L2.5,-0.5"/>
                </g>
                <g id="arrowDown" xlink:href="#dirArrow" transform="rotate(180) translate(-30 -48)" onmousedown="handlePan(0,1)">
                  <use xlink:href="#rim" fill="#404040">
                        <set attributeName="fill" to="#808080" begin="arrowDown.mouseover" end="arrowDown.mouseout"/>
                  </use>
                  <path fill="none" stroke="white" stroke-width="1.5" d="M0,-3.0v7 M-2.5,-0.5L0,-3.0L2.5,-0.5"/>
                </g>
                <g id="arrowLeft" xlink:href="#dirArrow" transform="rotate(270) translate(-36 17)" onmousedown="handlePan(-1,0)">
                  <use xlink:href="#rim" fill="#404040">
                        <set attributeName="fill" to="#808080" begin="arrowLeft.mouseover" end="arrowLeft.mouseout"/>
                  </use>
                  <path fill="none" stroke="white" stroke-width="1.5" d="M0,-3.0v7 M-2.5,-0.5L0,-3.0L2.5,-0.5"/>
                </g>
        </g>
        <svg viewBox="0 0 15 15" width="100%" height="30px" preserveAspectRatio="xMaxYMin meet">
         <g id="arrow_out" transform="scale(0.3 0.3)">
          <a xlink:href="class_quest_objectives_1_1_speedrun_level__coll__graph_org.svg" target="_base">
           <rect id="button" ry="5" rx="5" y="6" x="6" height="38" width="38"
                fill="#f2f5e9" fill-opacity="0.5" stroke="#606060" stroke-width="1.0"/>
           <path id="arrow"
             d="M 11.500037,31.436501 C 11.940474,20.09759 22.043105,11.32322 32.158766,21.979434 L 37.068811,17.246167 C 37.068811,17.246167 37.088388,32 37.088388,32 L 22.160133,31.978069 C 22.160133,31.978069 26.997745,27.140456 26.997745,27.140456 C 18.528582,18.264221 13.291696,25.230495 11.500037,31.436501 z"
             style="fill:#404040;"/>
          </a>
         </g>
        </svg>
</svg>
