<?xml version="1.0" encoding="UTF-8" standalone="no"?>
<!DOCTYPE svg PUBLIC "-//W3C//DTD SVG 1.1//EN"
 "http://www.w3.org/Graphics/SVG/1.1/DTD/svg11.dtd">
<!-- Generated by graphviz version 2.38.0 (20140413.2041)
 -->
<!-- Title: Character Pages: 1 -->
<svg width="622pt" height="1043pt"
 viewBox="0.00 0.00 622.00 1043.00" xmlns="http://www.w3.org/2000/svg" xmlns:xlink="http://www.w3.org/1999/xlink">
<g id="graph0" class="graph" transform="scale(1 1) rotate(0) translate(4 1039)">
<title>Character</title>
<!-- Node3 -->
<g id="node1" class="node"><title>Node3</title>
<polygon fill="#bfbfbf" stroke="black" points="319.5,-674.5 319.5,-852.5 414.5,-852.5 414.5,-674.5 319.5,-674.5"/>
<text text-anchor="middle" x="367" y="-840.5" font-family="Helvetica,sans-Serif" font-size="10.00">Character</text>
<polyline fill="none" stroke="black" points="319.5,-833.5 414.5,-833.5 "/>
<text text-anchor="start" x="327.5" y="-821.5" font-family="Helvetica,sans-Serif" font-size="10.00">+ Name</text>
<text text-anchor="start" x="327.5" y="-810.5" font-family="Helvetica,sans-Serif" font-size="10.00">+ Level</text>
<text text-anchor="start" x="327.5" y="-799.5" font-family="Helvetica,sans-Serif" font-size="10.00">+ Health</text>
<text text-anchor="start" x="327.5" y="-788.5" font-family="Helvetica,sans-Serif" font-size="10.00">+ Attack</text>
<text text-anchor="start" x="327.5" y="-777.5" font-family="Helvetica,sans-Serif" font-size="10.00">+ Defence</text>
<text text-anchor="start" x="327.5" y="-766.5" font-family="Helvetica,sans-Serif" font-size="10.00">+ MaximumMagic</text>
<text text-anchor="start" x="327.5" y="-755.5" font-family="Helvetica,sans-Serif" font-size="10.00">+ Magic</text>
<text text-anchor="start" x="327.5" y="-744.5" font-family="Helvetica,sans-Serif" font-size="10.00">+ Luck</text>
<text text-anchor="start" x="327.5" y="-733.5" font-family="Helvetica,sans-Serif" font-size="10.00">+ Speed</text>
<text text-anchor="start" x="327.5" y="-722.5" font-family="Helvetica,sans-Serif" font-size="10.00">+ Special1</text>
<text text-anchor="start" x="327.5" y="-711.5" font-family="Helvetica,sans-Serif" font-size="10.00">+ Special2</text>
<text text-anchor="start" x="327.5" y="-700.5" font-family="Helvetica,sans-Serif" font-size="10.00">+ Image</text>
<polyline fill="none" stroke="black" points="319.5,-693.5 414.5,-693.5 "/>
<text text-anchor="start" x="327.5" y="-681.5" font-family="Helvetica,sans-Serif" font-size="10.00"># Character()</text>
</g>
<!-- Node7 -->
<g id="node5" class="node"><title>Node7</title>
<g id="a_node5"><a xlink:href="class_character_move.html" target="_top" xlink:title="Astract base class for character moves ">
<polygon fill="none" stroke="black" points="329,-128.5 329,-207.5 415,-207.5 415,-128.5 329,-128.5"/>
<text text-anchor="middle" x="372" y="-195.5" font-family="Helvetica,sans-Serif" font-size="10.00">CharacterMove</text>
<polyline fill="none" stroke="black" points="329,-188.5 415,-188.5 "/>
<text text-anchor="start" x="337" y="-176.5" font-family="Helvetica,sans-Serif" font-size="10.00">+ User</text>
<text text-anchor="start" x="337" y="-165.5" font-family="Helvetica,sans-Serif" font-size="10.00">+ Target</text>
<text text-anchor="start" x="337" y="-154.5" font-family="Helvetica,sans-Serif" font-size="10.00">+ Text</text>
<polyline fill="none" stroke="black" points="329,-147.5 415,-147.5 "/>
<text text-anchor="start" x="337" y="-135.5" font-family="Helvetica,sans-Serif" font-size="10.00">+ performMove()</text>
</a>
</g>
</g>
<!-- Node3&#45;&gt;Node7 -->
<g id="edge6" class="edge"><title>Node3&#45;&gt;Node7</title>
<path fill="none" stroke="#404040" d="M396.582,-674.265C401.742,-655.258 406.312,-635.127 409,-616 420.065,-537.254 416.019,-284.877 401,-226 400.413,-223.7 399.723,-221.387 398.949,-219.079"/>
<polygon fill="none" stroke="#404040" points="398.857,-218.842 392.948,-214.708 394.491,-207.664 400.4,-211.798 398.857,-218.842"/>
<text text-anchor="middle" x="433" y="-477" font-family="Helvetica,sans-Serif" font-size="10.00"> #target</text>
<text text-anchor="middle" x="433" y="-466" font-family="Helvetica,sans-Serif" font-size="10.00">#user</text>
</g>
<!-- Node9 -->
<g id="node7" class="node"><title>Node9</title>
<g id="a_node7"><a xlink:href="class_enemy.html" target="_top" xlink:title="Defines an AI controller enemy to fight in battle scenes">
<polygon fill="none" stroke="black" points="333.5,-531 333.5,-588 400.5,-588 400.5,-531 333.5,-531"/>
<text text-anchor="middle" x="367" y="-576" font-family="Helvetica,sans-Serif" font-size="10.00">Enemy</text>
<polyline fill="none" stroke="black" points="333.5,-569 400.5,-569 "/>
<text text-anchor="start" x="341.5" y="-557" font-family="Helvetica,sans-Serif" font-size="10.00">+ ExpGiven</text>
<polyline fill="none" stroke="black" points="333.5,-550 400.5,-550 "/>
<text text-anchor="start" x="341.5" y="-538" font-family="Helvetica,sans-Serif" font-size="10.00">+ Enemy()</text>
</a>
</g>
</g>
<!-- Node3&#45;&gt;Node9 -->
<g id="edge10" class="edge"><title>Node3&#45;&gt;Node9</title>
<path fill="none" stroke="midnightblue" d="M367,-664.257C367,-636.411 367,-608.286 367,-588.355"/>
<polygon fill="none" stroke="midnightblue" points="363.5,-664.487 367,-674.487 370.5,-664.488 363.5,-664.487"/>
</g>
<!-- Node11 -->
<g id="node9" class="node"><title>Node11</title>
<g id="a_node9"><a xlink:href="class_player.html" target="_top" xlink:title="Defines a playable character for use in battle scenes">
<polygon fill="none" stroke="black" points="203,-503.5 203,-615.5 315,-615.5 315,-503.5 203,-503.5"/>
<text text-anchor="middle" x="259" y="-603.5" font-family="Helvetica,sans-Serif" font-size="10.00">Player</text>
<polyline fill="none" stroke="black" points="203,-596.5 315,-596.5 "/>
<text text-anchor="start" x="211" y="-584.5" font-family="Helvetica,sans-Serif" font-size="10.00">+ Exp</text>
<text text-anchor="start" x="211" y="-573.5" font-family="Helvetica,sans-Serif" font-size="10.00">+ Item</text>
<text text-anchor="start" x="211" y="-562.5" font-family="Helvetica,sans-Serif" font-size="10.00">+ ExpToNextLevel</text>
<polyline fill="none" stroke="black" points="203,-555.5 315,-555.5 "/>
<text text-anchor="start" x="211" y="-543.5" font-family="Helvetica,sans-Serif" font-size="10.00">+ Player()</text>
<text text-anchor="start" x="211" y="-532.5" font-family="Helvetica,sans-Serif" font-size="10.00">+ gainExp()</text>
<text text-anchor="start" x="211" y="-521.5" font-family="Helvetica,sans-Serif" font-size="10.00">+ levelUp()</text>
<text text-anchor="start" x="211" y="-510.5" font-family="Helvetica,sans-Serif" font-size="10.00">&#45; setExpToNextLevel()</text>
</a>
</g>
</g>
<!-- Node3&#45;&gt;Node11 -->
<g id="edge15" class="edge"><title>Node3&#45;&gt;Node11</title>
<path fill="none" stroke="midnightblue" d="M315.166,-665.552C306.005,-648.416 296.76,-631.125 288.489,-615.656"/>
<polygon fill="none" stroke="midnightblue" points="312.142,-667.319 319.944,-674.487 318.315,-664.019 312.142,-667.319"/>
</g>
<!-- Node4 -->
<g id="node2" class="node"><title>Node4</title>
<polygon fill="none" stroke="#bfbfbf" points="63.5,-977.5 63.5,-1034.5 104.5,-1034.5 104.5,-977.5 63.5,-977.5"/>
<text text-anchor="middle" x="84" y="-1022.5" font-family="Helvetica,sans-Serif" font-size="10.00">string</text>
<polyline fill="none" stroke="#bfbfbf" points="63.5,-1015.5 104.5,-1015.5 "/>
<text text-anchor="middle" x="84" y="-1003.5" font-family="Helvetica,sans-Serif" font-size="10.00"> </text>
<polyline fill="none" stroke="#bfbfbf" points="63.5,-996.5 104.5,-996.5 "/>
<text text-anchor="middle" x="84" y="-984.5" font-family="Helvetica,sans-Serif" font-size="10.00"> </text>
</g>
<!-- Node4&#45;&gt;Node3 -->
<g id="edge1" class="edge"><title>Node4&#45;&gt;Node3</title>
<path fill="none" stroke="#404040" d="M104.767,-994.199C146.284,-971.903 241.024,-917.441 305,-853 307.14,-850.845 309.256,-848.609 311.345,-846.31"/>
<polygon fill="none" stroke="#404040" points="311.397,-846.249 312.297,-839.095 319.248,-837.174 318.348,-844.328 311.397,-846.249"/>
<text text-anchor="middle" x="309.5" y="-918" font-family="Helvetica,sans-Serif" font-size="10.00"> #image_ref</text>
<text text-anchor="middle" x="309.5" y="-907" font-family="Helvetica,sans-Serif" font-size="10.00">#name</text>
</g>
<!-- Node6 -->
<g id="node4" class="node"><title>Node6</title>
<g id="a_node4"><a xlink:href="class_special_move.html" target="_top" xlink:title="Special move abstract base class that expands upon CharacterMove, adding magic properties ...">
<polygon fill="none" stroke="black" points="396,-0.5 396,-90.5 494,-90.5 494,-0.5 396,-0.5"/>
<text text-anchor="middle" x="445" y="-78.5" font-family="Helvetica,sans-Serif" font-size="10.00">SpecialMove</text>
<polyline fill="none" stroke="black" points="396,-71.5 494,-71.5 "/>
<text text-anchor="start" x="404" y="-59.5" font-family="Helvetica,sans-Serif" font-size="10.00">+ Magic</text>
<text text-anchor="start" x="404" y="-48.5" font-family="Helvetica,sans-Serif" font-size="10.00">+ Desc</text>
<polyline fill="none" stroke="black" points="396,-41.5 494,-41.5 "/>
<text text-anchor="start" x="404" y="-29.5" font-family="Helvetica,sans-Serif" font-size="10.00">+ setUp()</text>
<text text-anchor="start" x="404" y="-18.5" font-family="Helvetica,sans-Serif" font-size="10.00">+ decreaseMagic()</text>
<text text-anchor="start" x="404" y="-7.5" font-family="Helvetica,sans-Serif" font-size="10.00"># SpecialMove()</text>
</a>
</g>
</g>
<!-- Node4&#45;&gt;Node6 -->
<g id="edge19" class="edge"><title>Node4&#45;&gt;Node6</title>
<path fill="none" stroke="#404040" d="M63.2882,-985.542C56.2217,-977.887 48.8803,-968.629 44,-959 3.93158,-879.946 0,-853.129 0,-764.5 0,-764.5 0,-764.5 0,-167 0,-88.4575 261.543,-59.5204 383.61,-50.292"/>
<polygon fill="none" stroke="#404040" points="383.709,-50.2849 389.401,-45.8579 395.677,-49.4097 389.985,-53.8366 383.709,-50.2849"/>
<text text-anchor="middle" x="15" y="-471.5" font-family="Helvetica,sans-Serif" font-size="10.00"> #desc</text>
</g>
<!-- Node4&#45;&gt;Node7 -->
<g id="edge5" class="edge"><title>Node4&#45;&gt;Node7</title>
<path fill="none" stroke="#404040" d="M70.2716,-977.282C67.8224,-971.369 65.5585,-965.073 64,-959 42.4206,-874.911 46,-851.314 46,-764.5 46,-764.5 46,-764.5 46,-349 46,-226.8 223.715,-186.924 316.719,-174.423"/>
<polygon fill="none" stroke="#404040" points="316.805,-174.412 322.253,-169.688 328.71,-172.899 323.262,-177.624 316.805,-174.412"/>
<text text-anchor="middle" x="58.5" y="-557" font-family="Helvetica,sans-Serif" font-size="10.00"> #text</text>
</g>
<!-- Node8 -->
<g id="node6" class="node"><title>Node8</title>
<g id="a_node6"><a xlink:href="class_battle_manager.html" target="_top" xlink:title="Holds current Player and Enemy objects in battle and provides functions for MainBattle and other obje...">
<polygon fill="none" stroke="black" points="248,-255.5 248,-444.5 364,-444.5 364,-255.5 248,-255.5"/>
<text text-anchor="middle" x="306" y="-432.5" font-family="Helvetica,sans-Serif" font-size="10.00">BattleManager</text>
<polyline fill="none" stroke="black" points="248,-425.5 364,-425.5 "/>
<text text-anchor="start" x="256" y="-413.5" font-family="Helvetica,sans-Serif" font-size="10.00">+ Player</text>
<text text-anchor="start" x="256" y="-402.5" font-family="Helvetica,sans-Serif" font-size="10.00">+ Enemy</text>
<text text-anchor="start" x="256" y="-391.5" font-family="Helvetica,sans-Serif" font-size="10.00">+ WasCriticalHit</text>
<polyline fill="none" stroke="black" points="248,-384.5 364,-384.5 "/>
<text text-anchor="start" x="256" y="-372.5" font-family="Helvetica,sans-Serif" font-size="10.00">+ BattleManager()</text>
<text text-anchor="start" x="256" y="-361.5" font-family="Helvetica,sans-Serif" font-size="10.00">+ playerFirst()</text>
<text text-anchor="start" x="256" y="-350.5" font-family="Helvetica,sans-Serif" font-size="10.00">+ switchPlayers()</text>
<text text-anchor="start" x="256" y="-339.5" font-family="Helvetica,sans-Serif" font-size="10.00">+ isCriticalHit()</text>
<text text-anchor="start" x="256" y="-328.5" font-family="Helvetica,sans-Serif" font-size="10.00">+ ranAway()</text>
<text text-anchor="start" x="256" y="-317.5" font-family="Helvetica,sans-Serif" font-size="10.00">+ damageCalculation()</text>
<text text-anchor="start" x="256" y="-306.5" font-family="Helvetica,sans-Serif" font-size="10.00">+ enemyMove()</text>
<text text-anchor="start" x="256" y="-295.5" font-family="Helvetica,sans-Serif" font-size="10.00">+ enemySpecialMove()</text>
<text text-anchor="start" x="256" y="-284.5" font-family="Helvetica,sans-Serif" font-size="10.00">+ battleWon()</text>
<text text-anchor="start" x="256" y="-273.5" font-family="Helvetica,sans-Serif" font-size="10.00">+ playerFainted()</text>
<text text-anchor="start" x="256" y="-262.5" font-family="Helvetica,sans-Serif" font-size="10.00">&#45; characterFainted()</text>
</a>
</g>
</g>
<!-- Node4&#45;&gt;Node8 -->
<g id="edge8" class="edge"><title>Node4&#45;&gt;Node8</title>
<path fill="none" stroke="#404040" d="M79.0431,-977.408C66.1048,-896.725 38.9365,-657.209 140,-503 166.025,-463.289 204.742,-427.032 238.239,-399.897"/>
<polygon fill="none" stroke="#404040" points="238.601,-399.608 240.803,-392.741 247.989,-392.133 245.787,-399 238.601,-399.608"/>
<text text-anchor="middle" x="127" y="-648" font-family="Helvetica,sans-Serif" font-size="10.00"> +forceEnemyMove</text>
<text text-anchor="middle" x="127" y="-637" font-family="Helvetica,sans-Serif" font-size="10.00">+forceCriticalHits</text>
</g>
<!-- Node12 -->
<g id="node10" class="node"><title>Node12</title>
<g id="a_node10"><a xlink:href="class_item.html" target="_top" xlink:title="Abstract class for items that can be equipped to a player, increasing some of their stats ...">
<polygon fill="none" stroke="black" points="112.5,-724 112.5,-803 189.5,-803 189.5,-724 112.5,-724"/>
<text text-anchor="middle" x="151" y="-791" font-family="Helvetica,sans-Serif" font-size="10.00">Item</text>
<polyline fill="none" stroke="black" points="112.5,-784 189.5,-784 "/>
<text text-anchor="start" x="120.5" y="-772" font-family="Helvetica,sans-Serif" font-size="10.00">+ Name</text>
<text text-anchor="start" x="120.5" y="-761" font-family="Helvetica,sans-Serif" font-size="10.00">+ Desc</text>
<polyline fill="none" stroke="black" points="112.5,-754 189.5,-754 "/>
<text text-anchor="start" x="120.5" y="-742" font-family="Helvetica,sans-Serif" font-size="10.00">+ applyBuffs()</text>
<text text-anchor="start" x="120.5" y="-731" font-family="Helvetica,sans-Serif" font-size="10.00">+ revertBuffs()</text>
</a>
</g>
</g>
<!-- Node4&#45;&gt;Node12 -->
<g id="edge17" class="edge"><title>Node4&#45;&gt;Node12</title>
<path fill="none" stroke="#404040" d="M92.5717,-977.309C94.3966,-971.283 96.2885,-964.936 98,-959 112.06,-910.239 127.196,-854.316 137.679,-814.988"/>
<polygon fill="none" stroke="#404040" points="137.692,-814.939 135.368,-808.112 140.776,-803.342 143.099,-810.168 137.692,-814.939"/>
<text text-anchor="middle" x="137" y="-918" font-family="Helvetica,sans-Serif" font-size="10.00"> #desc</text>
<text text-anchor="middle" x="137" y="-907" font-family="Helvetica,sans-Serif" font-size="10.00">#name</text>
</g>
<!-- Node5 -->
<g id="node3" class="node"><title>Node5</title>
<polygon fill="none" stroke="#bfbfbf" points="436.5,-977.5 436.5,-1034.5 465.5,-1034.5 465.5,-977.5 436.5,-977.5"/>
<text text-anchor="middle" x="451" y="-1022.5" font-family="Helvetica,sans-Serif" font-size="10.00">int</text>
<polyline fill="none" stroke="#bfbfbf" points="436.5,-1015.5 465.5,-1015.5 "/>
<text text-anchor="middle" x="451" y="-1003.5" font-family="Helvetica,sans-Serif" font-size="10.00"> </text>
<polyline fill="none" stroke="#bfbfbf" points="436.5,-996.5 465.5,-996.5 "/>
<text text-anchor="middle" x="451" y="-984.5" font-family="Helvetica,sans-Serif" font-size="10.00"> </text>
</g>
<!-- Node5&#45;&gt;Node3 -->
<g id="edge2" class="edge"><title>Node5&#45;&gt;Node3</title>
<path fill="none" stroke="#404040" d="M436.43,-1002.32C415.667,-997.62 378.281,-985.742 362,-959 345.1,-931.242 341.609,-896.877 343.835,-864.791"/>
<polygon fill="none" stroke="#404040" points="343.855,-864.574 340.42,-858.234 344.952,-852.624 348.387,-858.965 343.855,-864.574"/>
<text text-anchor="middle" x="399.5" y="-951" font-family="Helvetica,sans-Serif" font-size="10.00"> #speed</text>
<text text-anchor="middle" x="399.5" y="-940" font-family="Helvetica,sans-Serif" font-size="10.00">#luck</text>
<text text-anchor="middle" x="399.5" y="-929" font-family="Helvetica,sans-Serif" font-size="10.00">#health</text>
<text text-anchor="middle" x="399.5" y="-918" font-family="Helvetica,sans-Serif" font-size="10.00">#magic</text>
<text text-anchor="middle" x="399.5" y="-907" font-family="Helvetica,sans-Serif" font-size="10.00">#maximumMagic</text>
<text text-anchor="middle" x="399.5" y="-896" font-family="Helvetica,sans-Serif" font-size="10.00">#attack</text>
<text text-anchor="middle" x="399.5" y="-885" font-family="Helvetica,sans-Serif" font-size="10.00">#defence</text>
<text text-anchor="middle" x="399.5" y="-874" font-family="Helvetica,sans-Serif" font-size="10.00">#level</text>
</g>
<!-- Node5&#45;&gt;Node6 -->
<g id="edge20" class="edge"><title>Node5&#45;&gt;Node6</title>
<path fill="none" stroke="#404040" d="M465.683,-993.377C475.82,-984.751 489.036,-972.234 498,-959 550.516,-881.471 579,-858.141 579,-764.5 579,-764.5 579,-764.5 579,-167 579,-124.186 540.711,-92.7125 505.067,-72.6891"/>
<polygon fill="none" stroke="#404040" points="504.717,-72.5021 497.54,-73.1996 494.136,-66.8427 501.313,-66.1452 504.717,-72.5021"/>
<text text-anchor="middle" x="596.5" y="-471.5" font-family="Helvetica,sans-Serif" font-size="10.00"> #magic</text>
</g>
<!-- Node5&#45;&gt;Node8 -->
<g id="edge12" class="edge"><title>Node5&#45;&gt;Node8</title>
<path fill="none" stroke="#404040" d="M462.824,-977.349C474.949,-947.367 492.993,-897.787 500,-853 526.978,-680.563 548.306,-609.863 454,-463 434.307,-432.332 403.124,-406.9 374.448,-388.064"/>
<polygon fill="none" stroke="#404040" points="374.145,-387.871 366.936,-388.022 364.023,-381.425 371.233,-381.274 374.145,-387.871"/>
<text text-anchor="middle" x="542.5" y="-642.5" font-family="Helvetica,sans-Serif" font-size="10.00"> +money</text>
</g>
<!-- Node5&#45;&gt;Node9 -->
<g id="edge11" class="edge"><title>Node5&#45;&gt;Node9</title>
<path fill="none" stroke="#404040" d="M452.088,-977.363C453.617,-919.767 453.376,-783.176 423,-674 415.677,-647.681 402.259,-620.156 390.393,-598.804"/>
<polygon fill="none" stroke="#404040" points="390.313,-598.664 383.867,-595.433 384.37,-588.239 390.816,-591.471 390.313,-598.664"/>
<text text-anchor="middle" x="473" y="-761" font-family="Helvetica,sans-Serif" font-size="10.00"> &#45;expGiven</text>
</g>
<!-- Node5&#45;&gt;Node11 -->
<g id="edge18" class="edge"><title>Node5&#45;&gt;Node11</title>
<path fill="none" stroke="#404040" d="M436.41,-1004.06C392.917,-1000.93 265.592,-989.283 240,-959 225.953,-942.379 228.874,-732.58 235,-674 236.587,-658.826 239.336,-642.695 242.42,-627.501"/>
<polygon fill="none" stroke="#404040" points="242.464,-627.292 239.794,-620.594 244.95,-615.553 247.621,-622.251 242.464,-627.292"/>
<text text-anchor="middle" x="272.5" y="-766.5" font-family="Helvetica,sans-Serif" font-size="10.00"> &#45;expToNextLevel</text>
<text text-anchor="middle" x="272.5" y="-755.5" font-family="Helvetica,sans-Serif" font-size="10.00">&#45;exp</text>
</g>
<!-- Node6&#45;&gt;Node3 -->
<g id="edge3" class="edge"><title>Node6&#45;&gt;Node3</title>
<path fill="none" stroke="#404040" d="M463.141,-90.635C470.809,-113.102 478,-141.08 478,-167 478,-560.5 478,-560.5 478,-560.5 478,-567.049 448.962,-619.743 420.59,-669.664"/>
<polygon fill="none" stroke="#404040" points="420.496,-669.83 421.002,-677.023 414.557,-680.257 414.051,-673.064 420.496,-669.83"/>
<text text-anchor="middle" x="500.5" y="-353" font-family="Helvetica,sans-Serif" font-size="10.00"> #special1</text>
<text text-anchor="middle" x="500.5" y="-342" font-family="Helvetica,sans-Serif" font-size="10.00">#special2</text>
</g>
<!-- Node7&#45;&gt;Node6 -->
<g id="edge4" class="edge"><title>Node7&#45;&gt;Node6</title>
<path fill="none" stroke="midnightblue" d="M400.711,-119.607C406.488,-110.07 412.539,-100.083 418.247,-90.6615"/>
<polygon fill="none" stroke="midnightblue" points="397.687,-117.843 395.499,-128.21 403.675,-121.47 397.687,-117.843"/>
</g>
<!-- Node8&#45;&gt;Node7 -->
<g id="edge7" class="edge"><title>Node8&#45;&gt;Node7</title>
<path fill="none" stroke="#404040" d="M340.353,-255.31C344.91,-242.883 349.431,-230.551 353.571,-219.262"/>
<polygon fill="none" stroke="#404040" points="353.6,-219.182 351.91,-212.172 357.731,-207.915 359.421,-214.926 353.6,-219.182"/>
<text text-anchor="middle" x="374" y="-229" font-family="Helvetica,sans-Serif" font-size="10.00"> #manager</text>
</g>
<!-- Node9&#45;&gt;Node8 -->
<g id="edge9" class="edge"><title>Node9&#45;&gt;Node8</title>
<path fill="none" stroke="#404040" d="M358.9,-530.946C353.171,-511.46 345.094,-483.983 336.972,-456.355"/>
<polygon fill="none" stroke="#404040" points="336.879,-456.04 331.35,-451.412 333.495,-444.528 339.025,-449.156 336.879,-456.04"/>
<text text-anchor="middle" x="362" y="-471.5" font-family="Helvetica,sans-Serif" font-size="10.00"> &#45;enemy</text>
</g>
<!-- Node10 -->
<g id="node8" class="node"><title>Node10</title>
<polygon fill="none" stroke="#bfbfbf" points="149.5,-531 149.5,-588 184.5,-588 184.5,-531 149.5,-531"/>
<text text-anchor="middle" x="167" y="-576" font-family="Helvetica,sans-Serif" font-size="10.00">bool</text>
<polyline fill="none" stroke="#bfbfbf" points="149.5,-569 184.5,-569 "/>
<text text-anchor="middle" x="167" y="-557" font-family="Helvetica,sans-Serif" font-size="10.00"> </text>
<polyline fill="none" stroke="#bfbfbf" points="149.5,-550 184.5,-550 "/>
<text text-anchor="middle" x="167" y="-538" font-family="Helvetica,sans-Serif" font-size="10.00"> </text>
</g>
<!-- Node10&#45;&gt;Node8 -->
<g id="edge13" class="edge"><title>Node10&#45;&gt;Node8</title>
<path fill="none" stroke="#404040" d="M175.81,-530.998C182.765,-511.261 193.531,-484.471 207,-463 216.468,-447.906 227.979,-432.853 239.755,-418.904"/>
<polygon fill="none" stroke="#404040" points="240.086,-418.52 240.979,-411.364 247.928,-409.436 247.035,-416.592 240.086,-418.52"/>
<text text-anchor="middle" x="240" y="-471.5" font-family="Helvetica,sans-Serif" font-size="10.00"> &#45;wasCriticalHit</text>
</g>
<!-- Node11&#45;&gt;Node8 -->
<g id="edge14" class="edge"><title>Node11&#45;&gt;Node8</title>
<path fill="none" stroke="#404040" d="M271.472,-503.439C274.754,-488.946 278.408,-472.815 282.076,-456.623"/>
<polygon fill="none" stroke="#404040" points="282.093,-456.548 279.517,-449.813 284.744,-444.845 287.319,-451.58 282.093,-456.548"/>
<text text-anchor="middle" x="296.5" y="-471.5" font-family="Helvetica,sans-Serif" font-size="10.00"> &#45;player</text>
</g>
<!-- Node12&#45;&gt;Node11 -->
<g id="edge16" class="edge"><title>Node12&#45;&gt;Node11</title>
<path fill="none" stroke="#404040" d="M158.727,-723.885C165.103,-697.389 175.772,-662.081 192,-634 193.644,-631.155 195.414,-628.327 197.282,-625.528"/>
<polygon fill="none" stroke="#404040" points="197.44,-625.308 197.68,-618.101 204.425,-615.551 204.185,-622.758 197.44,-625.308"/>
<text text-anchor="middle" x="204.5" y="-642.5" font-family="Helvetica,sans-Serif" font-size="10.00"> &#45;item</text>
</g>
</g>
</svg>
