<?xml version="1.0" encoding="UTF-8" standalone="no"?>
<!DOCTYPE svg PUBLIC "-//W3C//DTD SVG 1.1//EN"
 "http://www.w3.org/Graphics/SVG/1.1/DTD/svg11.dtd">
<!-- Generated by graphviz version 2.38.0 (20140413.2041)
 -->
<!-- Title: ItemsMenuScript Pages: 1 -->
<svg width="1157pt" height="1298pt"
 viewBox="0.00 0.00 1157.00 1298.00" xmlns="http://www.w3.org/2000/svg" xmlns:xlink="http://www.w3.org/1999/xlink">
<g id="graph0" class="graph" transform="scale(1 1) rotate(0) translate(4 1294)">
<title>ItemsMenuScript</title>
<!-- Node2 -->
<g id="node1" class="node"><title>Node2</title>
<polygon fill="#bfbfbf" stroke="black" points="281.5,-493.5 281.5,-583.5 372.5,-583.5 372.5,-493.5 281.5,-493.5"/>
<text text-anchor="middle" x="327" y="-571.5" font-family="Helvetica,sans-Serif" font-size="10.00">ItemsMenuScript</text>
<polyline fill="none" stroke="black" points="281.5,-564.5 372.5,-564.5 "/>
<text text-anchor="middle" x="327" y="-552.5" font-family="Helvetica,sans-Serif" font-size="10.00"> </text>
<polyline fill="none" stroke="black" points="281.5,-545.5 372.5,-545.5 "/>
<text text-anchor="start" x="289.5" y="-533.5" font-family="Helvetica,sans-Serif" font-size="10.00">+ OnItemPlace()</text>
<text text-anchor="start" x="289.5" y="-522.5" font-family="Helvetica,sans-Serif" font-size="10.00">+ back()</text>
<text text-anchor="start" x="289.5" y="-511.5" font-family="Helvetica,sans-Serif" font-size="10.00">&#45; Start()</text>
<text text-anchor="start" x="289.5" y="-500.5" font-family="Helvetica,sans-Serif" font-size="10.00">&#45; createItemCell()</text>
</g>
<!-- Node3 -->
<g id="node2" class="node"><title>Node3</title>
<g id="a_node2"><a xlink:href="class_mono_behaviour.html" target="_top" xlink:title="{MonoBehaviour\n||}">
<polygon fill="none" stroke="black" points="28.5,-725 28.5,-782 111.5,-782 111.5,-725 28.5,-725"/>
<text text-anchor="middle" x="70" y="-770" font-family="Helvetica,sans-Serif" font-size="10.00">MonoBehaviour</text>
<polyline fill="none" stroke="black" points="28.5,-763 111.5,-763 "/>
<text text-anchor="middle" x="70" y="-751" font-family="Helvetica,sans-Serif" font-size="10.00"> </text>
<polyline fill="none" stroke="black" points="28.5,-744 111.5,-744 "/>
<text text-anchor="middle" x="70" y="-732" font-family="Helvetica,sans-Serif" font-size="10.00"> </text>
</a>
</g>
</g>
<!-- Node3&#45;&gt;Node2 -->
<g id="edge1" class="edge"><title>Node3&#45;&gt;Node2</title>
<path fill="none" stroke="midnightblue" d="M79.7594,-715.352C87.4757,-691.949 100.289,-662.41 120,-642 164.851,-595.558 235.161,-566.99 281.168,-552.183"/>
<polygon fill="none" stroke="midnightblue" points="76.3985,-714.373 76.7592,-724.961 83.0804,-716.459 76.3985,-714.373"/>
</g>
<!-- Node4 -->
<g id="node3" class="node"><title>Node4</title>
<g id="a_node3"><a xlink:href="class_item.html" target="_top" xlink:title="Abstract class for items that can be equipped to a player, increasing some of their stats ...">
<polygon fill="none" stroke="black" points="520.5,-1083.5 520.5,-1173.5 597.5,-1173.5 597.5,-1083.5 520.5,-1083.5"/>
<text text-anchor="middle" x="559" y="-1161.5" font-family="Helvetica,sans-Serif" font-size="10.00">Item</text>
<polyline fill="none" stroke="black" points="520.5,-1154.5 597.5,-1154.5 "/>
<text text-anchor="start" x="528.5" y="-1142.5" font-family="Helvetica,sans-Serif" font-size="10.00">+ Name</text>
<text text-anchor="start" x="528.5" y="-1131.5" font-family="Helvetica,sans-Serif" font-size="10.00">+ Desc</text>
<text text-anchor="start" x="528.5" y="-1120.5" font-family="Helvetica,sans-Serif" font-size="10.00">+ Cost</text>
<polyline fill="none" stroke="black" points="520.5,-1113.5 597.5,-1113.5 "/>
<text text-anchor="start" x="528.5" y="-1101.5" font-family="Helvetica,sans-Serif" font-size="10.00">+ applyBuffs()</text>
<text text-anchor="start" x="528.5" y="-1090.5" font-family="Helvetica,sans-Serif" font-size="10.00">+ revertBuffs()</text>
</a>
</g>
</g>
<!-- Node4&#45;&gt;Node2 -->
<g id="edge2" class="edge"><title>Node4&#45;&gt;Node2</title>
<path fill="none" stroke="#404040" d="M573.009,-1083.44C601.993,-982.685 655.725,-734.025 528,-602 490.527,-563.265 429.522,-548.418 384.535,-542.79"/>
<polygon fill="none" stroke="#404040" points="384.522,-542.788 378.117,-546.101 372.595,-541.463 379,-538.15 384.522,-542.788"/>
<text text-anchor="middle" x="624.5" y="-886" font-family="Helvetica,sans-Serif" font-size="10.00"> &#45;items</text>
</g>
<!-- Node9 -->
<g id="node8" class="node"><title>Node9</title>
<g id="a_node8"><a xlink:href="class_player.html" target="_top" xlink:title="Defines a playable character for use in battle scenes">
<polygon fill="none" stroke="black" points="390,-912.5 390,-1024.5 502,-1024.5 502,-912.5 390,-912.5"/>
<text text-anchor="middle" x="446" y="-1012.5" font-family="Helvetica,sans-Serif" font-size="10.00">Player</text>
<polyline fill="none" stroke="black" points="390,-1005.5 502,-1005.5 "/>
<text text-anchor="start" x="398" y="-993.5" font-family="Helvetica,sans-Serif" font-size="10.00">+ Exp</text>
<text text-anchor="start" x="398" y="-982.5" font-family="Helvetica,sans-Serif" font-size="10.00">+ Item</text>
<text text-anchor="start" x="398" y="-971.5" font-family="Helvetica,sans-Serif" font-size="10.00">+ ExpToNextLevel</text>
<polyline fill="none" stroke="black" points="390,-964.5 502,-964.5 "/>
<text text-anchor="start" x="398" y="-952.5" font-family="Helvetica,sans-Serif" font-size="10.00">+ Player()</text>
<text text-anchor="start" x="398" y="-941.5" font-family="Helvetica,sans-Serif" font-size="10.00">+ gainExp()</text>
<text text-anchor="start" x="398" y="-930.5" font-family="Helvetica,sans-Serif" font-size="10.00">+ levelUp()</text>
<text text-anchor="start" x="398" y="-919.5" font-family="Helvetica,sans-Serif" font-size="10.00">&#45; setExpToNextLevel()</text>
</a>
</g>
</g>
<!-- Node4&#45;&gt;Node9 -->
<g id="edge27" class="edge"><title>Node4&#45;&gt;Node9</title>
<path fill="none" stroke="#404040" d="M527.523,-1083.49C516.707,-1068.36 504.358,-1051.1 492.599,-1034.66"/>
<polygon fill="none" stroke="#404040" points="492.354,-1034.31 485.61,-1031.76 485.373,-1024.55 492.117,-1027.11 492.354,-1034.31"/>
<text text-anchor="middle" x="525.5" y="-1051.5" font-family="Helvetica,sans-Serif" font-size="10.00"> &#45;item</text>
</g>
<!-- Node17 -->
<g id="node16" class="node"><title>Node17</title>
<g id="a_node16"><a xlink:href="class_data_manager.html" target="_top" xlink:title="An object to store all player data including players, items and money and provide useful functions ...">
<polygon fill="none" stroke="black" points="129.5,-642.5 129.5,-864.5 248.5,-864.5 248.5,-642.5 129.5,-642.5"/>
<text text-anchor="middle" x="189" y="-852.5" font-family="Helvetica,sans-Serif" font-size="10.00">DataManager</text>
<polyline fill="none" stroke="black" points="129.5,-845.5 248.5,-845.5 "/>
<text text-anchor="start" x="137.5" y="-833.5" font-family="Helvetica,sans-Serif" font-size="10.00">+ Players</text>
<text text-anchor="start" x="137.5" y="-822.5" font-family="Helvetica,sans-Serif" font-size="10.00">+ Items</text>
<text text-anchor="start" x="137.5" y="-811.5" font-family="Helvetica,sans-Serif" font-size="10.00">+ Quests</text>
<text text-anchor="start" x="137.5" y="-800.5" font-family="Helvetica,sans-Serif" font-size="10.00">+ Money</text>
<polyline fill="none" stroke="black" points="129.5,-793.5 248.5,-793.5 "/>
<text text-anchor="start" x="137.5" y="-781.5" font-family="Helvetica,sans-Serif" font-size="10.00">+ DataManager()</text>
<text text-anchor="start" x="137.5" y="-770.5" font-family="Helvetica,sans-Serif" font-size="10.00">+ getFirstPlayer()</text>
<text text-anchor="start" x="137.5" y="-759.5" font-family="Helvetica,sans-Serif" font-size="10.00">+ playersAlive()</text>
<text text-anchor="start" x="137.5" y="-748.5" font-family="Helvetica,sans-Serif" font-size="10.00">+ addPlayer()</text>
<text text-anchor="start" x="137.5" y="-737.5" font-family="Helvetica,sans-Serif" font-size="10.00">+ swapPlayers()</text>
<text text-anchor="start" x="137.5" y="-726.5" font-family="Helvetica,sans-Serif" font-size="10.00">+ addItem()</text>
<text text-anchor="start" x="137.5" y="-715.5" font-family="Helvetica,sans-Serif" font-size="10.00">+ removeItem()</text>
<text text-anchor="start" x="137.5" y="-704.5" font-family="Helvetica,sans-Serif" font-size="10.00">+ countItems()</text>
<text text-anchor="start" x="137.5" y="-693.5" font-family="Helvetica,sans-Serif" font-size="10.00">+ Save()</text>
<text text-anchor="start" x="137.5" y="-682.5" font-family="Helvetica,sans-Serif" font-size="10.00">+ Load()</text>
<text text-anchor="start" x="137.5" y="-671.5" font-family="Helvetica,sans-Serif" font-size="10.00">+ getMoveFromStored()</text>
<text text-anchor="start" x="137.5" y="-660.5" font-family="Helvetica,sans-Serif" font-size="10.00">+ getMoveFromPlayer()</text>
<text text-anchor="start" x="137.5" y="-649.5" font-family="Helvetica,sans-Serif" font-size="10.00">+ getItemFromName()</text>
</a>
</g>
</g>
<!-- Node4&#45;&gt;Node17 -->
<g id="edge30" class="edge"><title>Node4&#45;&gt;Node17</title>
<path fill="none" stroke="#404040" d="M520.444,-1086.74C518.653,-1085.42 516.836,-1084.16 515,-1083 449.329,-1041.41 413.208,-1070.24 350,-1025 298.447,-988.098 260.556,-929.094 234.531,-875.596"/>
<polygon fill="none" stroke="#404040" points="234.469,-875.466 228.282,-871.763 229.321,-864.627 235.508,-868.33 234.469,-875.466"/>
<text text-anchor="middle" x="365.5" y="-966" font-family="Helvetica,sans-Serif" font-size="10.00"> &#45;items</text>
</g>
<!-- Node5 -->
<g id="node4" class="node"><title>Node5</title>
<polygon fill="none" stroke="#bfbfbf" points="834.5,-1232.5 834.5,-1289.5 875.5,-1289.5 875.5,-1232.5 834.5,-1232.5"/>
<text text-anchor="middle" x="855" y="-1277.5" font-family="Helvetica,sans-Serif" font-size="10.00">string</text>
<polyline fill="none" stroke="#bfbfbf" points="834.5,-1270.5 875.5,-1270.5 "/>
<text text-anchor="middle" x="855" y="-1258.5" font-family="Helvetica,sans-Serif" font-size="10.00"> </text>
<polyline fill="none" stroke="#bfbfbf" points="834.5,-1251.5 875.5,-1251.5 "/>
<text text-anchor="middle" x="855" y="-1239.5" font-family="Helvetica,sans-Serif" font-size="10.00"> </text>
</g>
<!-- Node5&#45;&gt;Node4 -->
<g id="edge3" class="edge"><title>Node5&#45;&gt;Node4</title>
<path fill="none" stroke="#404040" d="M834.375,-1256.4C802.282,-1250.33 738.896,-1236.48 689,-1214 660.567,-1201.19 631.244,-1182.67 607.66,-1166.23"/>
<polygon fill="none" stroke="#404040" points="607.379,-1166.03 600.171,-1165.82 597.588,-1159.09 604.796,-1159.29 607.379,-1166.03"/>
<text text-anchor="middle" x="704" y="-1206" font-family="Helvetica,sans-Serif" font-size="10.00"> #desc</text>
<text text-anchor="middle" x="704" y="-1195" font-family="Helvetica,sans-Serif" font-size="10.00">#name</text>
</g>
<!-- Node10 -->
<g id="node9" class="node"><title>Node10</title>
<g id="a_node9"><a xlink:href="class_character.html" target="_top" xlink:title="Base abstract class for Enemy and Player to inherit from. Defines all shared variables, their constructor and their setters and getters ">
<polygon fill="none" stroke="black" points="809.5,-95.5 809.5,-306.5 904.5,-306.5 904.5,-95.5 809.5,-95.5"/>
<text text-anchor="middle" x="857" y="-294.5" font-family="Helvetica,sans-Serif" font-size="10.00">Character</text>
<polyline fill="none" stroke="black" points="809.5,-287.5 904.5,-287.5 "/>
<text text-anchor="start" x="817.5" y="-275.5" font-family="Helvetica,sans-Serif" font-size="10.00">+ Name</text>
<text text-anchor="start" x="817.5" y="-264.5" font-family="Helvetica,sans-Serif" font-size="10.00">+ Level</text>
<text text-anchor="start" x="817.5" y="-253.5" font-family="Helvetica,sans-Serif" font-size="10.00">+ Health</text>
<text text-anchor="start" x="817.5" y="-242.5" font-family="Helvetica,sans-Serif" font-size="10.00">+ Attack</text>
<text text-anchor="start" x="817.5" y="-231.5" font-family="Helvetica,sans-Serif" font-size="10.00">+ Defence</text>
<text text-anchor="start" x="817.5" y="-220.5" font-family="Helvetica,sans-Serif" font-size="10.00">+ MaximumMagic</text>
<text text-anchor="start" x="817.5" y="-209.5" font-family="Helvetica,sans-Serif" font-size="10.00">+ Magic</text>
<text text-anchor="start" x="817.5" y="-198.5" font-family="Helvetica,sans-Serif" font-size="10.00">+ Luck</text>
<text text-anchor="start" x="817.5" y="-187.5" font-family="Helvetica,sans-Serif" font-size="10.00">+ Speed</text>
<text text-anchor="start" x="817.5" y="-176.5" font-family="Helvetica,sans-Serif" font-size="10.00">+ Rage</text>
<text text-anchor="start" x="817.5" y="-165.5" font-family="Helvetica,sans-Serif" font-size="10.00">+ CanRage</text>
<text text-anchor="start" x="817.5" y="-154.5" font-family="Helvetica,sans-Serif" font-size="10.00">+ Special1</text>
<text text-anchor="start" x="817.5" y="-143.5" font-family="Helvetica,sans-Serif" font-size="10.00">+ Special2</text>
<text text-anchor="start" x="817.5" y="-132.5" font-family="Helvetica,sans-Serif" font-size="10.00">+ Image</text>
<polyline fill="none" stroke="black" points="809.5,-125.5 904.5,-125.5 "/>
<text text-anchor="start" x="817.5" y="-113.5" font-family="Helvetica,sans-Serif" font-size="10.00">+ IsEnraged()</text>
<text text-anchor="start" x="817.5" y="-102.5" font-family="Helvetica,sans-Serif" font-size="10.00"># Character()</text>
</a>
</g>
</g>
<!-- Node5&#45;&gt;Node10 -->
<g id="edge9" class="edge"><title>Node5&#45;&gt;Node10</title>
<path fill="none" stroke="#404040" d="M875.918,-1259.25C937.852,-1255.82 1116,-1236.65 1116,-1129.5 1116,-1129.5 1116,-1129.5 1116,-409.5 1116,-307.567 992.302,-247.421 915.877,-219.988"/>
<polygon fill="none" stroke="#404040" points="915.835,-219.973 908.852,-221.774 904.505,-216.021 911.487,-214.22 915.835,-219.973"/>
<text text-anchor="middle" x="1132.5" y="-751" font-family="Helvetica,sans-Serif" font-size="10.00"> #name</text>
</g>
<!-- Node12 -->
<g id="node11" class="node"><title>Node12</title>
<g id="a_node11"><a xlink:href="class_special_move.html" target="_top" xlink:title="Special move abstract base class that expands upon CharacterMove, adding magic properties ...">
<polygon fill="none" stroke="black" points="759,-365.5 759,-455.5 857,-455.5 857,-365.5 759,-365.5"/>
<text text-anchor="middle" x="808" y="-443.5" font-family="Helvetica,sans-Serif" font-size="10.00">SpecialMove</text>
<polyline fill="none" stroke="black" points="759,-436.5 857,-436.5 "/>
<text text-anchor="start" x="767" y="-424.5" font-family="Helvetica,sans-Serif" font-size="10.00">+ Magic</text>
<text text-anchor="start" x="767" y="-413.5" font-family="Helvetica,sans-Serif" font-size="10.00">+ Desc</text>
<polyline fill="none" stroke="black" points="759,-406.5 857,-406.5 "/>
<text text-anchor="start" x="767" y="-394.5" font-family="Helvetica,sans-Serif" font-size="10.00">+ setUp()</text>
<text text-anchor="start" x="767" y="-383.5" font-family="Helvetica,sans-Serif" font-size="10.00">+ decreaseMagic()</text>
<text text-anchor="start" x="767" y="-372.5" font-family="Helvetica,sans-Serif" font-size="10.00"># SpecialMove()</text>
</a>
</g>
</g>
<!-- Node5&#45;&gt;Node12 -->
<g id="edge24" class="edge"><title>Node5&#45;&gt;Node12</title>
<path fill="none" stroke="#404040" d="M875.615,-1257.42C929.428,-1249.42 1070,-1219.88 1070,-1129.5 1070,-1129.5 1070,-1129.5 1070,-887.5 1070,-708.772 1122.24,-615.397 992,-493 952.127,-455.529 922.008,-479.03 868.274,-456.293"/>
<polygon fill="none" stroke="#404040" points="868.066,-456.195 860.935,-457.267 857.202,-451.097 864.333,-450.025 868.066,-456.195"/>
<text text-anchor="middle" x="1085" y="-886" font-family="Helvetica,sans-Serif" font-size="10.00"> #desc</text>
</g>
<!-- Node13 -->
<g id="node12" class="node"><title>Node13</title>
<g id="a_node12"><a xlink:href="class_character_move.html" target="_top" xlink:title="Astract base class for character moves ">
<polygon fill="none" stroke="black" points="678,-499 678,-578 764,-578 764,-499 678,-499"/>
<text text-anchor="middle" x="721" y="-566" font-family="Helvetica,sans-Serif" font-size="10.00">CharacterMove</text>
<polyline fill="none" stroke="black" points="678,-559 764,-559 "/>
<text text-anchor="start" x="686" y="-547" font-family="Helvetica,sans-Serif" font-size="10.00">+ User</text>
<text text-anchor="start" x="686" y="-536" font-family="Helvetica,sans-Serif" font-size="10.00">+ Target</text>
<text text-anchor="start" x="686" y="-525" font-family="Helvetica,sans-Serif" font-size="10.00">+ Text</text>
<polyline fill="none" stroke="black" points="678,-518 764,-518 "/>
<text text-anchor="start" x="686" y="-506" font-family="Helvetica,sans-Serif" font-size="10.00">+ performMove()</text>
</a>
</g>
</g>
<!-- Node5&#45;&gt;Node13 -->
<g id="edge14" class="edge"><title>Node5&#45;&gt;Node13</title>
<path fill="none" stroke="#404040" d="M852.068,-1232.14C840.353,-1122.74 795.574,-722.605 755,-602 753.577,-597.771 751.879,-593.49 750.011,-589.258"/>
<polygon fill="none" stroke="#404040" points="749.917,-589.061 743.721,-585.371 744.744,-578.233 750.94,-581.923 749.917,-589.061"/>
<text text-anchor="middle" x="840.5" y="-966" font-family="Helvetica,sans-Serif" font-size="10.00"> #text</text>
</g>
<!-- Node14 -->
<g id="node13" class="node"><title>Node14</title>
<g id="a_node13"><a xlink:href="class_battle_manager.html" target="_top" xlink:title="Holds current Player and Enemy objects in battle and provides functions for MainBattle and other obje...">
<polygon fill="none" stroke="black" points="625,-659 625,-848 741,-848 741,-659 625,-659"/>
<text text-anchor="middle" x="683" y="-836" font-family="Helvetica,sans-Serif" font-size="10.00">BattleManager</text>
<polyline fill="none" stroke="black" points="625,-829 741,-829 "/>
<text text-anchor="start" x="633" y="-817" font-family="Helvetica,sans-Serif" font-size="10.00">+ Player</text>
<text text-anchor="start" x="633" y="-806" font-family="Helvetica,sans-Serif" font-size="10.00">+ Enemy</text>
<text text-anchor="start" x="633" y="-795" font-family="Helvetica,sans-Serif" font-size="10.00">+ WasCriticalHit</text>
<polyline fill="none" stroke="black" points="625,-788 741,-788 "/>
<text text-anchor="start" x="633" y="-776" font-family="Helvetica,sans-Serif" font-size="10.00">+ BattleManager()</text>
<text text-anchor="start" x="633" y="-765" font-family="Helvetica,sans-Serif" font-size="10.00">+ playerFirst()</text>
<text text-anchor="start" x="633" y="-754" font-family="Helvetica,sans-Serif" font-size="10.00">+ switchPlayers()</text>
<text text-anchor="start" x="633" y="-743" font-family="Helvetica,sans-Serif" font-size="10.00">+ isCriticalHit()</text>
<text text-anchor="start" x="633" y="-732" font-family="Helvetica,sans-Serif" font-size="10.00">+ ranAway()</text>
<text text-anchor="start" x="633" y="-721" font-family="Helvetica,sans-Serif" font-size="10.00">+ damageCalculation()</text>
<text text-anchor="start" x="633" y="-710" font-family="Helvetica,sans-Serif" font-size="10.00">+ enemyMove()</text>
<text text-anchor="start" x="633" y="-699" font-family="Helvetica,sans-Serif" font-size="10.00">+ enemySpecialMove()</text>
<text text-anchor="start" x="633" y="-688" font-family="Helvetica,sans-Serif" font-size="10.00">+ battleWon()</text>
<text text-anchor="start" x="633" y="-677" font-family="Helvetica,sans-Serif" font-size="10.00">+ playerFainted()</text>
<text text-anchor="start" x="633" y="-666" font-family="Helvetica,sans-Serif" font-size="10.00">&#45; characterFainted()</text>
</a>
</g>
</g>
<!-- Node5&#45;&gt;Node14 -->
<g id="edge17" class="edge"><title>Node5&#45;&gt;Node14</title>
<path fill="none" stroke="#404040" d="M834.449,-1235C806.466,-1199.53 757.003,-1131.5 732,-1065 707.333,-999.391 695.083,-921.459 689,-860.083"/>
<polygon fill="none" stroke="#404040" points="688.991,-859.984 684.445,-854.387 687.864,-848.038 692.41,-853.635 688.991,-859.984"/>
<text text-anchor="middle" x="774" y="-1057" font-family="Helvetica,sans-Serif" font-size="10.00"> +forceEnemyMove</text>
<text text-anchor="middle" x="774" y="-1046" font-family="Helvetica,sans-Serif" font-size="10.00">+forceCriticalHits</text>
</g>
<!-- Node6 -->
<g id="node5" class="node"><title>Node6</title>
<polygon fill="none" stroke="#bfbfbf" points="533.5,-1232.5 533.5,-1289.5 562.5,-1289.5 562.5,-1232.5 533.5,-1232.5"/>
<text text-anchor="middle" x="548" y="-1277.5" font-family="Helvetica,sans-Serif" font-size="10.00">int</text>
<polyline fill="none" stroke="#bfbfbf" points="533.5,-1270.5 562.5,-1270.5 "/>
<text text-anchor="middle" x="548" y="-1258.5" font-family="Helvetica,sans-Serif" font-size="10.00"> </text>
<polyline fill="none" stroke="#bfbfbf" points="533.5,-1251.5 562.5,-1251.5 "/>
<text text-anchor="middle" x="548" y="-1239.5" font-family="Helvetica,sans-Serif" font-size="10.00"> </text>
</g>
<!-- Node6&#45;&gt;Node4 -->
<g id="edge4" class="edge"><title>Node6&#45;&gt;Node4</title>
<path fill="none" stroke="#404040" d="M547.506,-1232.49C547.515,-1220.1 547.845,-1205.29 549,-1192 549.177,-1189.97 549.38,-1187.9 549.606,-1185.82"/>
<polygon fill="none" stroke="#404040" points="549.621,-1185.7 546.395,-1179.25 551.107,-1173.79 554.333,-1180.24 549.621,-1185.7"/>
<text text-anchor="middle" x="563" y="-1200.5" font-family="Helvetica,sans-Serif" font-size="10.00"> #cost</text>
</g>
<!-- Node6&#45;&gt;Node9 -->
<g id="edge28" class="edge"><title>Node6&#45;&gt;Node9</title>
<path fill="none" stroke="#404040" d="M533.21,-1253.95C507.77,-1242.63 456.486,-1215.56 436,-1174 415.116,-1131.63 418.607,-1078.15 426.795,-1036.51"/>
<polygon fill="none" stroke="#404040" points="426.843,-1036.28 424.178,-1029.58 429.338,-1024.54 432.003,-1031.24 426.843,-1036.28"/>
<text text-anchor="middle" x="473.5" y="-1131.5" font-family="Helvetica,sans-Serif" font-size="10.00"> &#45;expToNextLevel</text>
<text text-anchor="middle" x="473.5" y="-1120.5" font-family="Helvetica,sans-Serif" font-size="10.00">&#45;exp</text>
</g>
<!-- Node6&#45;&gt;Node10 -->
<g id="edge10" class="edge"><title>Node6&#45;&gt;Node10</title>
<path fill="none" stroke="#404040" d="M562.575,-1256.07C620.469,-1239.59 835.228,-1170.13 922,-1025 983.133,-922.754 999.917,-611.531 988,-493 982.193,-435.241 975.482,-421.463 962,-365 957.718,-347.066 959.193,-341.517 951,-325 940.576,-303.984 926.332,-283.001 912.086,-264.47"/>
<polygon fill="none" stroke="#404040" points="912.071,-264.451 905.219,-262.205 904.656,-255.016 911.508,-257.262 912.071,-264.451"/>
<text text-anchor="middle" x="1027.5" y="-795" font-family="Helvetica,sans-Serif" font-size="10.00"> #speed</text>
<text text-anchor="middle" x="1027.5" y="-784" font-family="Helvetica,sans-Serif" font-size="10.00">#luck</text>
<text text-anchor="middle" x="1027.5" y="-773" font-family="Helvetica,sans-Serif" font-size="10.00">#health</text>
<text text-anchor="middle" x="1027.5" y="-762" font-family="Helvetica,sans-Serif" font-size="10.00">#magic</text>
<text text-anchor="middle" x="1027.5" y="-751" font-family="Helvetica,sans-Serif" font-size="10.00">#maximumMagic</text>
<text text-anchor="middle" x="1027.5" y="-740" font-family="Helvetica,sans-Serif" font-size="10.00">#attack</text>
<text text-anchor="middle" x="1027.5" y="-729" font-family="Helvetica,sans-Serif" font-size="10.00">#defence</text>
<text text-anchor="middle" x="1027.5" y="-718" font-family="Helvetica,sans-Serif" font-size="10.00">#level</text>
<text text-anchor="middle" x="1027.5" y="-707" font-family="Helvetica,sans-Serif" font-size="10.00">#rage</text>
</g>
<!-- Node6&#45;&gt;Node12 -->
<g id="edge25" class="edge"><title>Node6&#45;&gt;Node12</title>
<path fill="none" stroke="#404040" d="M562.802,-1257.36C584.979,-1252.63 626.706,-1240.6 650,-1214 662.229,-1200.04 656.791,-1191.81 662,-1174 702.072,-1036.94 721.306,-1004.88 750,-865 779.036,-723.45 796.106,-553.886 803.545,-467.732"/>
<polygon fill="none" stroke="#404040" points="803.557,-467.597 800.079,-461.279 804.573,-455.64 808.051,-461.957 803.557,-467.597"/>
<text text-anchor="middle" x="764.5" y="-886" font-family="Helvetica,sans-Serif" font-size="10.00"> #magic</text>
</g>
<!-- Node6&#45;&gt;Node14 -->
<g id="edge21" class="edge"><title>Node6&#45;&gt;Node14</title>
<path fill="none" stroke="#404040" d="M562.778,-1256.31C581.873,-1250.68 614.5,-1237.99 630,-1214 671.396,-1149.92 636.683,-1118.84 645,-1043 651.643,-982.423 660.463,-914.879 667.933,-860.382"/>
<polygon fill="none" stroke="#404040" points="667.967,-860.138 664.822,-853.649 669.603,-848.25 672.748,-854.74 667.967,-860.138"/>
<text text-anchor="middle" x="664.5" y="-1051.5" font-family="Helvetica,sans-Serif" font-size="10.00"> +money</text>
</g>
<!-- Node15 -->
<g id="node14" class="node"><title>Node15</title>
<g id="a_node14"><a xlink:href="class_enemy.html" target="_top" xlink:title="Defines an AI controller enemy to fight in battle scenes">
<polygon fill="none" stroke="black" points="601.5,-0.5 601.5,-57.5 668.5,-57.5 668.5,-0.5 601.5,-0.5"/>
<text text-anchor="middle" x="635" y="-45.5" font-family="Helvetica,sans-Serif" font-size="10.00">Enemy</text>
<polyline fill="none" stroke="black" points="601.5,-38.5 668.5,-38.5 "/>
<text text-anchor="start" x="609.5" y="-26.5" font-family="Helvetica,sans-Serif" font-size="10.00">+ ExpGiven</text>
<polyline fill="none" stroke="black" points="601.5,-19.5 668.5,-19.5 "/>
<text text-anchor="start" x="609.5" y="-7.5" font-family="Helvetica,sans-Serif" font-size="10.00">+ Enemy()</text>
</a>
</g>
</g>
<!-- Node6&#45;&gt;Node15 -->
<g id="edge20" class="edge"><title>Node6&#45;&gt;Node15</title>
<path fill="none" stroke="#404040" d="M533.342,-1259.74C446.195,-1257.82 0,-1242.46 0,-1129.5 0,-1129.5 0,-1129.5 0,-200 0,-78.0015 442.893,-41.2064 588.918,-32.3903"/>
<polygon fill="none" stroke="#404040" points="589.328,-32.3664 595.085,-28.0235 601.308,-31.667 595.551,-36.0099 589.328,-32.3664"/>
<text text-anchor="middle" x="23" y="-610.5" font-family="Helvetica,sans-Serif" font-size="10.00"> &#45;expGiven</text>
</g>
<!-- Node6&#45;&gt;Node17 -->
<g id="edge31" class="edge"><title>Node6&#45;&gt;Node17</title>
<path fill="none" stroke="#404040" d="M533.44,-1257.61C469.212,-1246.17 210.148,-1190.62 114,-1025 84.2474,-973.75 99.6819,-910.156 124.089,-857.507"/>
<polygon fill="none" stroke="#404040" points="124.209,-857.257 123.211,-850.115 129.42,-846.447 130.418,-853.589 124.209,-857.257"/>
<text text-anchor="middle" x="158" y="-1051.5" font-family="Helvetica,sans-Serif" font-size="10.00"> &#45;money</text>
</g>
<!-- Node7 -->
<g id="node6" class="node"><title>Node7</title>
<polygon fill="none" stroke="#bfbfbf" points="341,-725 341,-782 441,-782 441,-725 341,-725"/>
<text text-anchor="middle" x="391" y="-770" font-family="Helvetica,sans-Serif" font-size="10.00">DragAndDropCell []</text>
<polyline fill="none" stroke="#bfbfbf" points="341,-763 441,-763 "/>
<text text-anchor="middle" x="391" y="-751" font-family="Helvetica,sans-Serif" font-size="10.00"> </text>
<polyline fill="none" stroke="#bfbfbf" points="341,-744 441,-744 "/>
<text text-anchor="middle" x="391" y="-732" font-family="Helvetica,sans-Serif" font-size="10.00"> </text>
</g>
<!-- Node7&#45;&gt;Node2 -->
<g id="edge5" class="edge"><title>Node7&#45;&gt;Node2</title>
<path fill="none" stroke="#404040" d="M382.633,-724.654C372.805,-691.946 356.258,-636.875 343.759,-595.276"/>
<polygon fill="none" stroke="#404040" points="343.721,-595.15 338.164,-590.555 340.268,-583.658 345.826,-588.253 343.721,-595.15"/>
<text text-anchor="middle" x="388" y="-610.5" font-family="Helvetica,sans-Serif" font-size="10.00"> &#45;itemContainers</text>
</g>
<!-- Node8 -->
<g id="node7" class="node"><title>Node8</title>
<polygon fill="none" stroke="#bfbfbf" points="459.5,-725 459.5,-782 530.5,-782 530.5,-725 459.5,-725"/>
<text text-anchor="middle" x="495" y="-770" font-family="Helvetica,sans-Serif" font-size="10.00">GameObject</text>
<polyline fill="none" stroke="#bfbfbf" points="459.5,-763 530.5,-763 "/>
<text text-anchor="middle" x="495" y="-751" font-family="Helvetica,sans-Serif" font-size="10.00"> </text>
<polyline fill="none" stroke="#bfbfbf" points="459.5,-744 530.5,-744 "/>
<text text-anchor="middle" x="495" y="-732" font-family="Helvetica,sans-Serif" font-size="10.00"> </text>
</g>
<!-- Node8&#45;&gt;Node2 -->
<g id="edge6" class="edge"><title>Node8&#45;&gt;Node2</title>
<path fill="none" stroke="#404040" d="M488.734,-724.892C480.045,-692.051 461.487,-637.251 428,-602 415.249,-588.578 399.019,-576.883 383.319,-567.354"/>
<polygon fill="none" stroke="#404040" points="382.956,-567.143 375.759,-567.584 372.583,-561.11 379.781,-560.669 382.956,-567.143"/>
<text text-anchor="middle" x="484.5" y="-616" font-family="Helvetica,sans-Serif" font-size="10.00"> &#45;playerContainers</text>
<text text-anchor="middle" x="484.5" y="-605" font-family="Helvetica,sans-Serif" font-size="10.00">&#45;player</text>
</g>
<!-- Node9&#45;&gt;Node2 -->
<g id="edge7" class="edge"><title>Node9&#45;&gt;Node2</title>
<path fill="none" stroke="#404040" d="M389.749,-945.876C355.341,-929.367 314.175,-902.938 294,-865 248.369,-779.193 278.476,-662.682 303.463,-594.841"/>
<polygon fill="none" stroke="#404040" points="303.482,-594.793 301.867,-587.765 307.733,-583.571 309.348,-590.599 303.482,-594.793"/>
<text text-anchor="middle" x="313" y="-751" font-family="Helvetica,sans-Serif" font-size="10.00"> &#45;players</text>
</g>
<!-- Node9&#45;&gt;Node14 -->
<g id="edge23" class="edge"><title>Node9&#45;&gt;Node14</title>
<path fill="none" stroke="#404040" d="M474.474,-912.145C482.601,-900.951 492.45,-890.37 504,-883 544.653,-857.06 570.662,-891.427 611,-865 614.98,-862.392 618.789,-859.48 622.427,-856.329"/>
<polygon fill="none" stroke="#404040" points="622.434,-856.323 624.018,-849.288 631.122,-848.046 629.537,-855.08 622.434,-856.323"/>
<text text-anchor="middle" x="520.5" y="-886" font-family="Helvetica,sans-Serif" font-size="10.00"> &#45;player</text>
</g>
<!-- Node9&#45;&gt;Node17 -->
<g id="edge33" class="edge"><title>Node9&#45;&gt;Node17</title>
<path fill="none" stroke="#404040" d="M389.964,-956.736C349.488,-946.498 295.704,-927.522 259,-894 252.604,-888.158 246.713,-881.6 241.302,-874.596"/>
<polygon fill="none" stroke="#404040" points="241.247,-874.519 234.49,-871.999 234.218,-864.793 240.974,-867.313 241.247,-874.519"/>
<text text-anchor="middle" x="278" y="-886" font-family="Helvetica,sans-Serif" font-size="10.00"> &#45;players</text>
</g>
<!-- Node10&#45;&gt;Node9 -->
<g id="edge8" class="edge"><title>Node10&#45;&gt;Node9</title>
<path fill="none" stroke="midnightblue" d="M799.801,-223.814C742.608,-248.802 657.011,-295.481 613,-365 492.838,-554.804 682.382,-692.066 539,-865 523.39,-883.827 505.287,-866.761 487,-883 477.978,-891.012 470.745,-901.453 465.022,-912.248"/>
<polygon fill="none" stroke="midnightblue" points="801.261,-226.996 809.076,-219.842 798.506,-220.561 801.261,-226.996"/>
</g>
<!-- Node10&#45;&gt;Node13 -->
<g id="edge15" class="edge"><title>Node10&#45;&gt;Node13</title>
<path fill="none" stroke="#404040" d="M809.404,-240.246C776.192,-270.189 734.612,-315.035 716,-365 701.453,-404.053 704.19,-451.595 709.724,-486.871"/>
<polygon fill="none" stroke="#404040" points="709.742,-486.976 714.7,-492.212 711.774,-498.803 706.816,-493.567 709.742,-486.976"/>
<text text-anchor="middle" x="733" y="-413.5" font-family="Helvetica,sans-Serif" font-size="10.00"> #target</text>
<text text-anchor="middle" x="733" y="-402.5" font-family="Helvetica,sans-Serif" font-size="10.00">#user</text>
</g>
<!-- Node10&#45;&gt;Node15 -->
<g id="edge19" class="edge"><title>Node10&#45;&gt;Node15</title>
<path fill="none" stroke="midnightblue" d="M801.238,-157.3C759.573,-125.394 703.971,-82.8158 668.819,-55.8974"/>
<polygon fill="none" stroke="midnightblue" points="799.308,-160.23 809.375,-163.531 803.564,-154.672 799.308,-160.23"/>
</g>
<!-- Node11 -->
<g id="node10" class="node"><title>Node11</title>
<polygon fill="none" stroke="#bfbfbf" points="877.5,-940 877.5,-997 912.5,-997 912.5,-940 877.5,-940"/>
<text text-anchor="middle" x="895" y="-985" font-family="Helvetica,sans-Serif" font-size="10.00">bool</text>
<polyline fill="none" stroke="#bfbfbf" points="877.5,-978 912.5,-978 "/>
<text text-anchor="middle" x="895" y="-966" font-family="Helvetica,sans-Serif" font-size="10.00"> </text>
<polyline fill="none" stroke="#bfbfbf" points="877.5,-959 912.5,-959 "/>
<text text-anchor="middle" x="895" y="-947" font-family="Helvetica,sans-Serif" font-size="10.00"> </text>
</g>
<!-- Node11&#45;&gt;Node10 -->
<g id="edge11" class="edge"><title>Node11&#45;&gt;Node10</title>
<path fill="none" stroke="#404040" d="M898.092,-939.936C899.616,-926.146 901.453,-909.196 903,-894 921.13,-715.9 920.564,-670.85 941,-493 947.499,-436.44 957.363,-420.787 946,-365 939.863,-334.872 925.949,-304.572 910.903,-278.408"/>
<polygon fill="none" stroke="#404040" points="910.757,-278.163 904.256,-275.042 904.637,-267.841 911.138,-270.962 910.757,-278.163"/>
<text text-anchor="middle" x="964.5" y="-536" font-family="Helvetica,sans-Serif" font-size="10.00"> #canRage</text>
</g>
<!-- Node11&#45;&gt;Node14 -->
<g id="edge22" class="edge"><title>Node11&#45;&gt;Node14</title>
<path fill="none" stroke="#404040" d="M877.488,-944.513C869.419,-934.293 859.534,-922.276 850,-912 818.668,-878.231 781.583,-842.846 750.329,-814.191"/>
<polygon fill="none" stroke="#404040" points="750.118,-813.998 742.99,-812.908 741.254,-805.909 748.383,-806.999 750.118,-813.998"/>
<text text-anchor="middle" x="866" y="-886" font-family="Helvetica,sans-Serif" font-size="10.00"> &#45;wasCriticalHit</text>
</g>
<!-- Node12&#45;&gt;Node10 -->
<g id="edge12" class="edge"><title>Node12&#45;&gt;Node10</title>
<path fill="none" stroke="#404040" d="M818.392,-365.495C821.692,-351.518 825.511,-335.347 829.436,-318.725"/>
<polygon fill="none" stroke="#404040" points="829.549,-318.246 827.035,-311.487 832.307,-306.567 834.821,-313.326 829.549,-318.246"/>
<text text-anchor="middle" x="849.5" y="-339" font-family="Helvetica,sans-Serif" font-size="10.00"> #special1</text>
<text text-anchor="middle" x="849.5" y="-328" font-family="Helvetica,sans-Serif" font-size="10.00">#special2</text>
</g>
<!-- Node13&#45;&gt;Node12 -->
<g id="edge13" class="edge"><title>Node13&#45;&gt;Node12</title>
<path fill="none" stroke="midnightblue" d="M753.666,-490.191C761.47,-478.889 769.771,-466.866 777.474,-455.71"/>
<polygon fill="none" stroke="midnightblue" points="750.615,-488.45 747.813,-498.668 756.375,-492.427 750.615,-488.45"/>
</g>
<!-- Node14&#45;&gt;Node13 -->
<g id="edge16" class="edge"><title>Node14&#45;&gt;Node13</title>
<path fill="none" stroke="#404040" d="M698.888,-658.923C702.168,-640.065 705.646,-620.39 709,-602 709.704,-598.141 710.443,-594.151 711.194,-590.14"/>
<polygon fill="none" stroke="#404040" points="711.231,-589.944 708.416,-583.305 713.462,-578.153 716.277,-584.792 711.231,-589.944"/>
<text text-anchor="middle" x="732" y="-610.5" font-family="Helvetica,sans-Serif" font-size="10.00"> #manager</text>
</g>
<!-- Node15&#45;&gt;Node14 -->
<g id="edge18" class="edge"><title>Node15&#45;&gt;Node14</title>
<path fill="none" stroke="#404040" d="M635,-57.6786C635,-91.3232 635,-149.826 635,-200 635,-539.5 635,-539.5 635,-539.5 635,-575.019 641.431,-613.073 649.585,-647.047"/>
<polygon fill="none" stroke="#404040" points="649.632,-647.239 654.964,-652.095 652.533,-658.884 647.201,-654.028 649.632,-647.239"/>
<text text-anchor="middle" x="653" y="-408" font-family="Helvetica,sans-Serif" font-size="10.00"> &#45;enemy</text>
</g>
<!-- Node16 -->
<g id="node15" class="node"><title>Node16</title>
<polygon fill="none" stroke="#bfbfbf" points="875.5,-382 875.5,-439 936.5,-439 936.5,-382 875.5,-382"/>
<text text-anchor="middle" x="906" y="-427" font-family="Helvetica,sans-Serif" font-size="10.00">Texture2D</text>
<polyline fill="none" stroke="#bfbfbf" points="875.5,-420 936.5,-420 "/>
<text text-anchor="middle" x="906" y="-408" font-family="Helvetica,sans-Serif" font-size="10.00"> </text>
<polyline fill="none" stroke="#bfbfbf" points="875.5,-401 936.5,-401 "/>
<text text-anchor="middle" x="906" y="-389" font-family="Helvetica,sans-Serif" font-size="10.00"> </text>
</g>
<!-- Node16&#45;&gt;Node10 -->
<g id="edge26" class="edge"><title>Node16&#45;&gt;Node10</title>
<path fill="none" stroke="#404040" d="M899.493,-381.946C895.511,-365.082 890.115,-342.233 884.506,-318.48"/>
<polygon fill="none" stroke="#404040" points="884.499,-318.448 879.227,-313.527 881.741,-306.769 887.012,-311.689 884.499,-318.448"/>
<text text-anchor="middle" x="907.5" y="-333.5" font-family="Helvetica,sans-Serif" font-size="10.00"> #image</text>
</g>
<!-- Node17&#45;&gt;Node2 -->
<g id="edge29" class="edge"><title>Node17&#45;&gt;Node2</title>
<path fill="none" stroke="#404040" d="M222.498,-642.296C229.143,-628.079 236.933,-614.233 246,-602 253.218,-592.261 262.345,-583.272 271.85,-575.326"/>
<polygon fill="none" stroke="#404040" points="272.019,-575.192 274.236,-568.331 281.423,-567.739 279.205,-574.601 272.019,-575.192"/>
<text text-anchor="middle" x="258.5" y="-610.5" font-family="Helvetica,sans-Serif" font-size="10.00"> &#45;data</text>
</g>
<!-- Node18 -->
<g id="node17" class="node"><title>Node18</title>
<polygon fill="none" stroke="#bfbfbf" points="123.5,-940 123.5,-997 200.5,-997 200.5,-940 123.5,-940"/>
<text text-anchor="middle" x="162" y="-985" font-family="Helvetica,sans-Serif" font-size="10.00">List&lt; Quest &gt;</text>
<polyline fill="none" stroke="#bfbfbf" points="123.5,-978 200.5,-978 "/>
<text text-anchor="middle" x="162" y="-966" font-family="Helvetica,sans-Serif" font-size="10.00"> </text>
<polyline fill="none" stroke="#bfbfbf" points="123.5,-959 200.5,-959 "/>
<text text-anchor="middle" x="162" y="-947" font-family="Helvetica,sans-Serif" font-size="10.00"> </text>
</g>
<!-- Node18&#45;&gt;Node17 -->
<g id="edge32" class="edge"><title>Node18&#45;&gt;Node17</title>
<path fill="none" stroke="#404040" d="M165.53,-939.654C167.645,-922.965 170.499,-900.454 173.487,-876.881"/>
<polygon fill="none" stroke="#404040" points="173.501,-876.77 170.287,-870.315 175.01,-864.865 178.224,-871.321 173.501,-876.77"/>
<text text-anchor="middle" x="191" y="-886" font-family="Helvetica,sans-Serif" font-size="10.00"> &#45;quests</text>
</g>
</g>
</svg>
