<?xml version="1.0" encoding="UTF-8" standalone="no"?>
<!DOCTYPE svg PUBLIC "-//W3C//DTD SVG 1.1//EN"
 "http://www.w3.org/Graphics/SVG/1.1/DTD/svg11.dtd">
<!-- Generated by graphviz version 2.38.0 (20140413.2041)
 -->
<!-- Title: LowerDefence Pages: 1 -->
<!--zoomable 1028 -->
<svg id="main" version="1.1" xmlns="http://www.w3.org/2000/svg" xmlns:xlink="http://www.w3.org/1999/xlink" xml:space="preserve" onload="init(evt)">
<style type="text/css"><![CDATA[
.edge:hover path { stroke: red; }
.edge:hover polygon { stroke: red; fill: red; }
]]></style>
<script type="text/javascript"><![CDATA[
var edges = document.getElementsByTagName('g');
if (edges && edges.length) {
  for (var i=0;i<edges.length;i++) {
    if (edges[i].id.substr(0,4)=='edge') {
      edges[i].setAttribute('class','edge');
    }
  }
}
]]></script>
        <defs>
                <circle id="rim" cx="0" cy="0" r="7"/>
                <circle id="rim2" cx="0" cy="0" r="3.5"/>
                <g id="zoomPlus">
                        <use xlink:href="#rim" fill="#404040">
                                <set attributeName="fill" to="#808080" begin="zoomplus.mouseover" end="zoomplus.mouseout"/>
                        </use>
                        <path d="M-4,0h8M0,-4v8" fill="none" stroke="white" stroke-width="1.5" pointer-events="none"/>
                </g>
                <g id="zoomMin">
                        <use xlink:href="#rim" fill="#404040">
                                <set attributeName="fill" to="#808080" begin="zoomminus.mouseover" end="zoomminus.mouseout"/>
                        </use>
                        <path d="M-4,0h8" fill="none" stroke="white" stroke-width="1.5" pointer-events="none"/>
                </g>
                <g id="dirArrow">
                        <path fill="none" stroke="white" stroke-width="1.5" d="M0,-3.0v7 M-2.5,-0.5L0,-3.0L2.5,-0.5"/>
                </g>
               <g id="resetDef">
                       <use xlink:href="#rim2" fill="#404040">
                               <set attributeName="fill" to="#808080" begin="reset.mouseover" end="reset.mouseout"/>
                       </use>
               </g>
        </defs>

<script type="text/javascript">
var viewWidth = 876;
var viewHeight = 1028;
var sectionId = 'dynsection-1';
</script>
<script xlink:href="svgpan.js"/>
<svg id="graph" class="graph">
<g id="viewport">
<title>LowerDefence</title>
<!-- Node3 -->
<g id="node1" class="node"><title>Node3</title>
<polygon fill="#bfbfbf" stroke="black" points="34,-607 34,-675 126,-675 126,-607 34,-607"/>
<text text-anchor="middle" x="80" y="-663" font-family="Helvetica,sans-Serif" font-size="10.00">LowerDefence</text>
<polyline fill="none" stroke="black" points="34,-656 126,-656 "/>
<text text-anchor="middle" x="80" y="-644" font-family="Helvetica,sans-Serif" font-size="10.00"> </text>
<polyline fill="none" stroke="black" points="34,-637 126,-637 "/>
<text text-anchor="start" x="42" y="-625" font-family="Helvetica,sans-Serif" font-size="10.00">+ LowerDefence()</text>
<text text-anchor="start" x="42" y="-614" font-family="Helvetica,sans-Serif" font-size="10.00">+ performMove()</text>
</g>
<!-- Node4 -->
<g id="node2" class="node"><title>Node4</title>
<g id="a_node2"><a xlink:href="class_special_move.html" target="_top" xlink:title="Special move abstract base class that expands upon CharacterMove, adding magic properties ...">
<polygon fill="none" stroke="black" points="82,-809.5 82,-899.5 180,-899.5 180,-809.5 82,-809.5"/>
<text text-anchor="middle" x="131" y="-887.5" font-family="Helvetica,sans-Serif" font-size="10.00">SpecialMove</text>
<polyline fill="none" stroke="black" points="82,-880.5 180,-880.5 "/>
<text text-anchor="start" x="90" y="-868.5" font-family="Helvetica,sans-Serif" font-size="10.00">+ Magic</text>
<text text-anchor="start" x="90" y="-857.5" font-family="Helvetica,sans-Serif" font-size="10.00">+ Desc</text>
<polyline fill="none" stroke="black" points="82,-850.5 180,-850.5 "/>
<text text-anchor="start" x="90" y="-838.5" font-family="Helvetica,sans-Serif" font-size="10.00">+ setUp()</text>
<text text-anchor="start" x="90" y="-827.5" font-family="Helvetica,sans-Serif" font-size="10.00">+ decreaseMagic()</text>
<text text-anchor="start" x="90" y="-816.5" font-family="Helvetica,sans-Serif" font-size="10.00"># SpecialMove()</text>
</a>
</g>
</g>
<!-- Node4&#45;&gt;Node3 -->
<g id="edge1" class="edge"><title>Node4&#45;&gt;Node3</title>
<path fill="none" stroke="midnightblue" d="M119.784,-799.456C117.31,-788.057 114.638,-776.116 112,-765 104.74,-734.407 95.6472,-699.761 89.0116,-675.054"/>
<polygon fill="none" stroke="midnightblue" points="116.377,-800.26 121.901,-809.3 123.22,-798.788 116.377,-800.26"/>
</g>
<!-- Node7 -->
<g id="node5" class="node"><title>Node7</title>
<g id="a_node5"><a xlink:href="class_character.html" target="_top" xlink:title="Base abstract class for Enemy and Player to inherit from. Defines all shared variables, their constructor and their setters and getters ">
<polygon fill="none" stroke="black" points="344.5,-535.5 344.5,-746.5 439.5,-746.5 439.5,-535.5 344.5,-535.5"/>
<text text-anchor="middle" x="392" y="-734.5" font-family="Helvetica,sans-Serif" font-size="10.00">Character</text>
<polyline fill="none" stroke="black" points="344.5,-727.5 439.5,-727.5 "/>
<text text-anchor="start" x="352.5" y="-715.5" font-family="Helvetica,sans-Serif" font-size="10.00">+ Name</text>
<text text-anchor="start" x="352.5" y="-704.5" font-family="Helvetica,sans-Serif" font-size="10.00">+ Level</text>
<text text-anchor="start" x="352.5" y="-693.5" font-family="Helvetica,sans-Serif" font-size="10.00">+ Health</text>
<text text-anchor="start" x="352.5" y="-682.5" font-family="Helvetica,sans-Serif" font-size="10.00">+ Attack</text>
<text text-anchor="start" x="352.5" y="-671.5" font-family="Helvetica,sans-Serif" font-size="10.00">+ Defence</text>
<text text-anchor="start" x="352.5" y="-660.5" font-family="Helvetica,sans-Serif" font-size="10.00">+ MaximumMagic</text>
<text text-anchor="start" x="352.5" y="-649.5" font-family="Helvetica,sans-Serif" font-size="10.00">+ Magic</text>
<text text-anchor="start" x="352.5" y="-638.5" font-family="Helvetica,sans-Serif" font-size="10.00">+ Luck</text>
<text text-anchor="start" x="352.5" y="-627.5" font-family="Helvetica,sans-Serif" font-size="10.00">+ Speed</text>
<text text-anchor="start" x="352.5" y="-616.5" font-family="Helvetica,sans-Serif" font-size="10.00">+ Rage</text>
<text text-anchor="start" x="352.5" y="-605.5" font-family="Helvetica,sans-Serif" font-size="10.00">+ CanRage</text>
<text text-anchor="start" x="352.5" y="-594.5" font-family="Helvetica,sans-Serif" font-size="10.00">+ Special1</text>
<text text-anchor="start" x="352.5" y="-583.5" font-family="Helvetica,sans-Serif" font-size="10.00">+ Special2</text>
<text text-anchor="start" x="352.5" y="-572.5" font-family="Helvetica,sans-Serif" font-size="10.00">+ Image</text>
<polyline fill="none" stroke="black" points="344.5,-565.5 439.5,-565.5 "/>
<text text-anchor="start" x="352.5" y="-553.5" font-family="Helvetica,sans-Serif" font-size="10.00">+ IsEnraged()</text>
<text text-anchor="start" x="352.5" y="-542.5" font-family="Helvetica,sans-Serif" font-size="10.00"># Character()</text>
</a>
</g>
</g>
<!-- Node4&#45;&gt;Node7 -->
<g id="edge8" class="edge"><title>Node4&#45;&gt;Node7</title>
<path fill="none" stroke="#404040" d="M180.314,-811.5C183.222,-809.262 186.131,-807.081 189,-805 216.153,-785.306 222.441,-778.831 253,-765 278.364,-753.52 290.158,-762.917 313,-747 321.273,-741.235 329.045,-734.33 336.241,-726.851"/>
<polygon fill="none" stroke="#404040" points="336.354,-726.726 337.426,-719.595 344.42,-717.841 343.349,-724.973 336.354,-726.726"/>
<text text-anchor="middle" x="275.5" y="-779" font-family="Helvetica,sans-Serif" font-size="10.00"> #special1</text>
<text text-anchor="middle" x="275.5" y="-768" font-family="Helvetica,sans-Serif" font-size="10.00">#special2</text>
</g>
<!-- Node5 -->
<g id="node3" class="node"><title>Node5</title>
<g id="a_node3"><a xlink:href="class_character_move.html" target="_top" xlink:title="Astract base class for character moves ">
<polygon fill="none" stroke="black" points="204,-0.5 204,-79.5 290,-79.5 290,-0.5 204,-0.5"/>
<text text-anchor="middle" x="247" y="-67.5" font-family="Helvetica,sans-Serif" font-size="10.00">CharacterMove</text>
<polyline fill="none" stroke="black" points="204,-60.5 290,-60.5 "/>
<text text-anchor="start" x="212" y="-48.5" font-family="Helvetica,sans-Serif" font-size="10.00">+ User</text>
<text text-anchor="start" x="212" y="-37.5" font-family="Helvetica,sans-Serif" font-size="10.00">+ Target</text>
<text text-anchor="start" x="212" y="-26.5" font-family="Helvetica,sans-Serif" font-size="10.00">+ Text</text>
<polyline fill="none" stroke="black" points="204,-19.5 290,-19.5 "/>
<text text-anchor="start" x="212" y="-7.5" font-family="Helvetica,sans-Serif" font-size="10.00">+ performMove()</text>
</a>
</g>
</g>
<!-- Node5&#45;&gt;Node4 -->
<g id="edge2" class="edge"><title>Node5&#45;&gt;Node4</title>
<path fill="none" stroke="midnightblue" d="M208.375,-88.1588C183.965,-122.751 157,-172.042 157,-221 157,-642 157,-642 157,-642 157,-700.082 147.221,-766.471 139.658,-809.132"/>
<polygon fill="none" stroke="midnightblue" points="211.477,-89.8423 214.508,-79.6901 205.808,-85.7364 211.477,-89.8423"/>
</g>
<!-- Node6 -->
<g id="node4" class="node"><title>Node6</title>
<polygon fill="none" stroke="#bfbfbf" points="188.5,-962.5 188.5,-1019.5 229.5,-1019.5 229.5,-962.5 188.5,-962.5"/>
<text text-anchor="middle" x="209" y="-1007.5" font-family="Helvetica,sans-Serif" font-size="10.00">string</text>
<polyline fill="none" stroke="#bfbfbf" points="188.5,-1000.5 229.5,-1000.5 "/>
<text text-anchor="middle" x="209" y="-988.5" font-family="Helvetica,sans-Serif" font-size="10.00"> </text>
<polyline fill="none" stroke="#bfbfbf" points="188.5,-981.5 229.5,-981.5 "/>
<text text-anchor="middle" x="209" y="-969.5" font-family="Helvetica,sans-Serif" font-size="10.00"> </text>
</g>
<!-- Node6&#45;&gt;Node4 -->
<g id="edge23" class="edge"><title>Node6&#45;&gt;Node4</title>
<path fill="none" stroke="#404040" d="M188.447,-964.85C183.451,-958.248 178.311,-951.009 174,-944 167.557,-933.523 161.337,-921.939 155.724,-910.7"/>
<polygon fill="none" stroke="#404040" points="155.586,-910.415 149.361,-906.774 150.328,-899.628 156.552,-903.269 155.586,-910.415"/>
<text text-anchor="middle" x="189" y="-930.5" font-family="Helvetica,sans-Serif" font-size="10.00"> #desc</text>
</g>
<!-- Node6&#45;&gt;Node5 -->
<g id="edge3" class="edge"><title>Node6&#45;&gt;Node5</title>
<path fill="none" stroke="#404040" d="M188.196,-986.784C135.332,-977.313 0,-944.387 0,-855.5 0,-855.5 0,-855.5 0,-221 0,-126.507 119.53,-76.3748 192.288,-54.6123"/>
<polygon fill="none" stroke="#404040" points="192.447,-54.5666 197.102,-49.0595 203.976,-51.2387 199.321,-56.7458 192.447,-54.5666"/>
<text text-anchor="middle" x="12.5" y="-509" font-family="Helvetica,sans-Serif" font-size="10.00"> #text</text>
</g>
<!-- Node6&#45;&gt;Node7 -->
<g id="edge5" class="edge"><title>Node6&#45;&gt;Node7</title>
<path fill="none" stroke="#404040" d="M229.867,-985.053C250.573,-979.002 281.528,-966.646 298,-944 334.834,-893.361 303.251,-865.05 321,-805 326.167,-787.517 332.73,-769.425 339.768,-751.935"/>
<polygon fill="none" stroke="#404040" points="339.889,-751.64 338.471,-744.57 344.452,-740.542 345.87,-747.612 339.889,-751.64"/>
<text text-anchor="middle" x="337.5" y="-852" font-family="Helvetica,sans-Serif" font-size="10.00"> #name</text>
</g>
<!-- Node11 -->
<g id="node9" class="node"><title>Node11</title>
<g id="a_node9"><a xlink:href="class_battle_manager.html" target="_top" xlink:title="Holds current Player and Enemy objects in battle and provides functions for MainBattle and other obje...">
<polygon fill="none" stroke="black" points="545,-127.5 545,-316.5 661,-316.5 661,-127.5 545,-127.5"/>
<text text-anchor="middle" x="603" y="-304.5" font-family="Helvetica,sans-Serif" font-size="10.00">BattleManager</text>
<polyline fill="none" stroke="black" points="545,-297.5 661,-297.5 "/>
<text text-anchor="start" x="553" y="-285.5" font-family="Helvetica,sans-Serif" font-size="10.00">+ Player</text>
<text text-anchor="start" x="553" y="-274.5" font-family="Helvetica,sans-Serif" font-size="10.00">+ Enemy</text>
<text text-anchor="start" x="553" y="-263.5" font-family="Helvetica,sans-Serif" font-size="10.00">+ WasCriticalHit</text>
<polyline fill="none" stroke="black" points="545,-256.5 661,-256.5 "/>
<text text-anchor="start" x="553" y="-244.5" font-family="Helvetica,sans-Serif" font-size="10.00">+ BattleManager()</text>
<text text-anchor="start" x="553" y="-233.5" font-family="Helvetica,sans-Serif" font-size="10.00">+ playerFirst()</text>
<text text-anchor="start" x="553" y="-222.5" font-family="Helvetica,sans-Serif" font-size="10.00">+ switchPlayers()</text>
<text text-anchor="start" x="553" y="-211.5" font-family="Helvetica,sans-Serif" font-size="10.00">+ isCriticalHit()</text>
<text text-anchor="start" x="553" y="-200.5" font-family="Helvetica,sans-Serif" font-size="10.00">+ ranAway()</text>
<text text-anchor="start" x="553" y="-189.5" font-family="Helvetica,sans-Serif" font-size="10.00">+ damageCalculation()</text>
<text text-anchor="start" x="553" y="-178.5" font-family="Helvetica,sans-Serif" font-size="10.00">+ enemyMove()</text>
<text text-anchor="start" x="553" y="-167.5" font-family="Helvetica,sans-Serif" font-size="10.00">+ enemySpecialMove()</text>
<text text-anchor="start" x="553" y="-156.5" font-family="Helvetica,sans-Serif" font-size="10.00">+ battleWon()</text>
<text text-anchor="start" x="553" y="-145.5" font-family="Helvetica,sans-Serif" font-size="10.00">+ playerFainted()</text>
<text text-anchor="start" x="553" y="-134.5" font-family="Helvetica,sans-Serif" font-size="10.00">&#45; characterFainted()</text>
</a>
</g>
</g>
<!-- Node6&#45;&gt;Node11 -->
<g id="edge11" class="edge"><title>Node6&#45;&gt;Node11</title>
<path fill="none" stroke="#404040" d="M229.59,-988.876C306.949,-984.218 578.707,-963.784 636,-904 675.535,-862.746 656,-834.14 656,-777 656,-777 656,-777 656,-430.5 656,-396.724 649.326,-360.789 640.715,-328.482"/>
<polygon fill="none" stroke="#404040" points="640.669,-328.318 635.212,-323.605 637.463,-316.755 642.921,-321.468 640.669,-328.318"/>
<text text-anchor="middle" x="698" y="-644" font-family="Helvetica,sans-Serif" font-size="10.00"> +forceEnemyMove</text>
<text text-anchor="middle" x="698" y="-633" font-family="Helvetica,sans-Serif" font-size="10.00">+forceCriticalHits</text>
</g>
<!-- Node14 -->
<g id="node12" class="node"><title>Node14</title>
<g id="a_node12"><a xlink:href="class_item.html" target="_top" xlink:title="Abstract class for items that can be equipped to a player, increasing some of their stats ...">
<polygon fill="none" stroke="black" points="198.5,-809.5 198.5,-899.5 275.5,-899.5 275.5,-809.5 198.5,-809.5"/>
<text text-anchor="middle" x="237" y="-887.5" font-family="Helvetica,sans-Serif" font-size="10.00">Item</text>
<polyline fill="none" stroke="black" points="198.5,-880.5 275.5,-880.5 "/>
<text text-anchor="start" x="206.5" y="-868.5" font-family="Helvetica,sans-Serif" font-size="10.00">+ Name</text>
<text text-anchor="start" x="206.5" y="-857.5" font-family="Helvetica,sans-Serif" font-size="10.00">+ Desc</text>
<text text-anchor="start" x="206.5" y="-846.5" font-family="Helvetica,sans-Serif" font-size="10.00">+ Cost</text>
<polyline fill="none" stroke="black" points="198.5,-839.5 275.5,-839.5 "/>
<text text-anchor="start" x="206.5" y="-827.5" font-family="Helvetica,sans-Serif" font-size="10.00">+ applyBuffs()</text>
<text text-anchor="start" x="206.5" y="-816.5" font-family="Helvetica,sans-Serif" font-size="10.00">+ revertBuffs()</text>
</a>
</g>
</g>
<!-- Node6&#45;&gt;Node14 -->
<g id="edge20" class="edge"><title>Node6&#45;&gt;Node14</title>
<path fill="none" stroke="#404040" d="M207.104,-962.29C206.841,-949.857 207.347,-935.075 210,-922 210.732,-918.392 211.655,-914.731 212.715,-911.077"/>
<polygon fill="none" stroke="#404040" points="212.769,-910.911 210.832,-903.965 216.499,-899.506 218.436,-906.452 212.769,-910.911"/>
<text text-anchor="middle" x="225" y="-936" font-family="Helvetica,sans-Serif" font-size="10.00"> #desc</text>
<text text-anchor="middle" x="225" y="-925" font-family="Helvetica,sans-Serif" font-size="10.00">#name</text>
</g>
<!-- Node7&#45;&gt;Node5 -->
<g id="edge4" class="edge"><title>Node7&#45;&gt;Node5</title>
<path fill="none" stroke="#404040" d="M366.66,-535.32C335.208,-405.391 282.839,-189.052 259.218,-91.4723"/>
<polygon fill="none" stroke="#404040" points="259.172,-91.2828 253.873,-86.3923 256.349,-79.6196 261.648,-84.5101 259.172,-91.2828"/>
<text text-anchor="middle" x="340" y="-349" font-family="Helvetica,sans-Serif" font-size="10.00"> #target</text>
<text text-anchor="middle" x="340" y="-338" font-family="Helvetica,sans-Serif" font-size="10.00">#user</text>
</g>
<!-- Node12 -->
<g id="node10" class="node"><title>Node12</title>
<g id="a_node10"><a xlink:href="class_enemy.html" target="_top" xlink:title="Defines an AI controller enemy to fight in battle scenes">
<polygon fill="none" stroke="black" points="684.5,-403 684.5,-460 751.5,-460 751.5,-403 684.5,-403"/>
<text text-anchor="middle" x="718" y="-448" font-family="Helvetica,sans-Serif" font-size="10.00">Enemy</text>
<polyline fill="none" stroke="black" points="684.5,-441 751.5,-441 "/>
<text text-anchor="start" x="692.5" y="-429" font-family="Helvetica,sans-Serif" font-size="10.00">+ ExpGiven</text>
<polyline fill="none" stroke="black" points="684.5,-422 751.5,-422 "/>
<text text-anchor="start" x="692.5" y="-410" font-family="Helvetica,sans-Serif" font-size="10.00">+ Enemy()</text>
</a>
</g>
</g>
<!-- Node7&#45;&gt;Node12 -->
<g id="edge13" class="edge"><title>Node7&#45;&gt;Node12</title>
<path fill="none" stroke="midnightblue" d="M448.723,-612.895C495.333,-589.713 562.346,-554.269 617,-517 642.311,-499.74 668.797,-477.398 688.293,-460.022"/>
<polygon fill="none" stroke="midnightblue" points="447.095,-609.795 439.682,-617.365 450.198,-616.07 447.095,-609.795"/>
</g>
<!-- Node13 -->
<g id="node11" class="node"><title>Node13</title>
<g id="a_node11"><a xlink:href="class_player.html" target="_top" xlink:title="Defines a playable character for use in battle scenes">
<polygon fill="none" stroke="black" points="388,-375.5 388,-487.5 500,-487.5 500,-375.5 388,-375.5"/>
<text text-anchor="middle" x="444" y="-475.5" font-family="Helvetica,sans-Serif" font-size="10.00">Player</text>
<polyline fill="none" stroke="black" points="388,-468.5 500,-468.5 "/>
<text text-anchor="start" x="396" y="-456.5" font-family="Helvetica,sans-Serif" font-size="10.00">+ Exp</text>
<text text-anchor="start" x="396" y="-445.5" font-family="Helvetica,sans-Serif" font-size="10.00">+ Item</text>
<text text-anchor="start" x="396" y="-434.5" font-family="Helvetica,sans-Serif" font-size="10.00">+ ExpToNextLevel</text>
<polyline fill="none" stroke="black" points="388,-427.5 500,-427.5 "/>
<text text-anchor="start" x="396" y="-415.5" font-family="Helvetica,sans-Serif" font-size="10.00">+ Player()</text>
<text text-anchor="start" x="396" y="-404.5" font-family="Helvetica,sans-Serif" font-size="10.00">+ gainExp()</text>
<text text-anchor="start" x="396" y="-393.5" font-family="Helvetica,sans-Serif" font-size="10.00">+ levelUp()</text>
<text text-anchor="start" x="396" y="-382.5" font-family="Helvetica,sans-Serif" font-size="10.00">&#45; setExpToNextLevel()</text>
</a>
</g>
</g>
<!-- Node7&#45;&gt;Node13 -->
<g id="edge18" class="edge"><title>Node7&#45;&gt;Node13</title>
<path fill="none" stroke="midnightblue" d="M420.747,-525.29C424.029,-512.192 427.252,-499.33 430.204,-487.551"/>
<polygon fill="none" stroke="midnightblue" points="417.264,-524.787 418.229,-535.338 424.054,-526.489 417.264,-524.787"/>
</g>
<!-- Node8 -->
<g id="node6" class="node"><title>Node8</title>
<polygon fill="none" stroke="#bfbfbf" points="497.5,-962.5 497.5,-1019.5 526.5,-1019.5 526.5,-962.5 497.5,-962.5"/>
<text text-anchor="middle" x="512" y="-1007.5" font-family="Helvetica,sans-Serif" font-size="10.00">int</text>
<polyline fill="none" stroke="#bfbfbf" points="497.5,-1000.5 526.5,-1000.5 "/>
<text text-anchor="middle" x="512" y="-988.5" font-family="Helvetica,sans-Serif" font-size="10.00"> </text>
<polyline fill="none" stroke="#bfbfbf" points="497.5,-981.5 526.5,-981.5 "/>
<text text-anchor="middle" x="512" y="-969.5" font-family="Helvetica,sans-Serif" font-size="10.00"> </text>
</g>
<!-- Node8&#45;&gt;Node4 -->
<g id="edge24" class="edge"><title>Node8&#45;&gt;Node4</title>
<path fill="none" stroke="#404040" d="M497.322,-988.342C460.702,-983.925 362.675,-970.374 285,-944 263.92,-936.842 260.531,-930.608 240,-922 220.777,-913.94 212.247,-915.271 190.926,-904.427"/>
<polygon fill="none" stroke="#404040" points="190.666,-904.284 183.481,-904.903 180.146,-898.51 187.331,-897.89 190.666,-904.284"/>
<text text-anchor="middle" x="302.5" y="-930.5" font-family="Helvetica,sans-Serif" font-size="10.00"> #magic</text>
</g>
<!-- Node8&#45;&gt;Node7 -->
<g id="edge6" class="edge"><title>Node8&#45;&gt;Node7</title>
<path fill="none" stroke="#404040" d="M499.293,-962.398C491.801,-945.669 482.375,-923.801 475,-904 457.421,-856.803 440.228,-803.984 426.09,-758.204"/>
<polygon fill="none" stroke="#404040" points="426.088,-758.195 420.502,-753.634 422.564,-746.724 428.149,-751.284 426.088,-758.195"/>
<text text-anchor="middle" x="512.5" y="-896" font-family="Helvetica,sans-Serif" font-size="10.00"> #speed</text>
<text text-anchor="middle" x="512.5" y="-885" font-family="Helvetica,sans-Serif" font-size="10.00">#luck</text>
<text text-anchor="middle" x="512.5" y="-874" font-family="Helvetica,sans-Serif" font-size="10.00">#health</text>
<text text-anchor="middle" x="512.5" y="-863" font-family="Helvetica,sans-Serif" font-size="10.00">#magic</text>
<text text-anchor="middle" x="512.5" y="-852" font-family="Helvetica,sans-Serif" font-size="10.00">#maximumMagic</text>
<text text-anchor="middle" x="512.5" y="-841" font-family="Helvetica,sans-Serif" font-size="10.00">#attack</text>
<text text-anchor="middle" x="512.5" y="-830" font-family="Helvetica,sans-Serif" font-size="10.00">#defence</text>
<text text-anchor="middle" x="512.5" y="-819" font-family="Helvetica,sans-Serif" font-size="10.00">#level</text>
<text text-anchor="middle" x="512.5" y="-808" font-family="Helvetica,sans-Serif" font-size="10.00">#rage</text>
</g>
<!-- Node8&#45;&gt;Node11 -->
<g id="edge15" class="edge"><title>Node8&#45;&gt;Node11</title>
<path fill="none" stroke="#404040" d="M526.864,-990.527C589.536,-991.915 829,-988.518 829,-855.5 829,-855.5 829,-855.5 829,-430.5 829,-344.219 738.518,-284.05 672.057,-251.492"/>
<polygon fill="none" stroke="#404040" points="672.031,-251.48 664.893,-252.506 661.201,-246.312 668.338,-245.286 672.031,-251.48"/>
<text text-anchor="middle" x="848.5" y="-638.5" font-family="Helvetica,sans-Serif" font-size="10.00"> +money</text>
</g>
<!-- Node8&#45;&gt;Node12 -->
<g id="edge14" class="edge"><title>Node8&#45;&gt;Node12</title>
<path fill="none" stroke="#404040" d="M526.58,-985.532C556.973,-975.553 627.775,-948.748 670,-904 722.942,-847.895 727.149,-822.277 744,-747 764.583,-655.053 755.673,-628.496 744,-535 741.369,-513.929 735.808,-490.975 730.502,-472.14"/>
<polygon fill="none" stroke="#404040" points="730.443,-471.939 724.924,-467.299 727.085,-460.419 732.604,-465.06 730.443,-471.939"/>
<text text-anchor="middle" x="762" y="-773.5" font-family="Helvetica,sans-Serif" font-size="10.00"> &#45;expGiven</text>
</g>
<!-- Node8&#45;&gt;Node13 -->
<g id="edge22" class="edge"><title>Node8&#45;&gt;Node13</title>
<path fill="none" stroke="#404040" d="M526.612,-968.242C549.825,-930.701 588.736,-853.162 550,-805 526.615,-775.925 492.354,-815.268 468,-787 463.374,-781.63 453.016,-601.171 447.544,-499.853"/>
<polygon fill="none" stroke="#404040" points="447.53,-499.589 443.213,-493.812 446.885,-487.606 451.202,-493.383 447.53,-499.589"/>
<text text-anchor="middle" x="505.5" y="-779" font-family="Helvetica,sans-Serif" font-size="10.00"> &#45;expToNextLevel</text>
<text text-anchor="middle" x="505.5" y="-768" font-family="Helvetica,sans-Serif" font-size="10.00">&#45;exp</text>
</g>
<!-- Node8&#45;&gt;Node14 -->
<g id="edge21" class="edge"><title>Node8&#45;&gt;Node14</title>
<path fill="none" stroke="#404040" d="M497.382,-986.37C460.562,-976.809 361.823,-948.564 290,-904 288.477,-903.055 286.957,-902.063 285.446,-901.032"/>
<polygon fill="none" stroke="#404040" points="285.278,-900.907 278.076,-900.546 275.64,-893.758 282.842,-894.12 285.278,-900.907"/>
<text text-anchor="middle" x="380" y="-930.5" font-family="Helvetica,sans-Serif" font-size="10.00"> #cost</text>
</g>
<!-- Node9 -->
<g id="node7" class="node"><title>Node9</title>
<polygon fill="none" stroke="#bfbfbf" points="592.5,-826 592.5,-883 627.5,-883 627.5,-826 592.5,-826"/>
<text text-anchor="middle" x="610" y="-871" font-family="Helvetica,sans-Serif" font-size="10.00">bool</text>
<polyline fill="none" stroke="#bfbfbf" points="592.5,-864 627.5,-864 "/>
<text text-anchor="middle" x="610" y="-852" font-family="Helvetica,sans-Serif" font-size="10.00"> </text>
<polyline fill="none" stroke="#bfbfbf" points="592.5,-845 627.5,-845 "/>
<text text-anchor="middle" x="610" y="-833" font-family="Helvetica,sans-Serif" font-size="10.00"> </text>
</g>
<!-- Node9&#45;&gt;Node7 -->
<g id="edge7" class="edge"><title>Node9&#45;&gt;Node7</title>
<path fill="none" stroke="#404040" d="M593.089,-825.656C581.335,-807.418 564.658,-783.604 547,-765 517.551,-733.973 480.077,-704.028 449.353,-681.454"/>
<polygon fill="none" stroke="#404040" points="449.342,-681.445 442.137,-681.154 439.634,-674.391 446.839,-674.682 449.342,-681.445"/>
<text text-anchor="middle" x="588.5" y="-773.5" font-family="Helvetica,sans-Serif" font-size="10.00"> #canRage</text>
</g>
<!-- Node9&#45;&gt;Node11 -->
<g id="edge16" class="edge"><title>Node9&#45;&gt;Node11</title>
<path fill="none" stroke="#404040" d="M613.957,-825.981C615.953,-808.506 617.636,-785.416 616,-765 606.697,-648.896 570.463,-622.344 576,-506 578.797,-447.228 584.844,-381.824 590.508,-328.709"/>
<polygon fill="none" stroke="#404040" points="590.535,-328.46 587.202,-322.065 591.823,-316.529 595.156,-322.924 590.535,-328.46"/>
<text text-anchor="middle" x="609" y="-509" font-family="Helvetica,sans-Serif" font-size="10.00"> &#45;wasCriticalHit</text>
</g>
<!-- Node10 -->
<g id="node8" class="node"><title>Node10</title>
<polygon fill="none" stroke="#bfbfbf" points="363.5,-826 363.5,-883 424.5,-883 424.5,-826 363.5,-826"/>
<text text-anchor="middle" x="394" y="-871" font-family="Helvetica,sans-Serif" font-size="10.00">Texture2D</text>
<polyline fill="none" stroke="#bfbfbf" points="363.5,-864 424.5,-864 "/>
<text text-anchor="middle" x="394" y="-852" font-family="Helvetica,sans-Serif" font-size="10.00"> </text>
<polyline fill="none" stroke="#bfbfbf" points="363.5,-845 424.5,-845 "/>
<text text-anchor="middle" x="394" y="-833" font-family="Helvetica,sans-Serif" font-size="10.00"> </text>
</g>
<!-- Node10&#45;&gt;Node7 -->
<g id="edge9" class="edge"><title>Node10&#45;&gt;Node7</title>
<path fill="none" stroke="#404040" d="M391.442,-825.701C390.468,-813.794 389.478,-799.727 389,-787 388.655,-777.8 388.469,-768.271 388.405,-758.693"/>
<polygon fill="none" stroke="#404040" points="388.405,-758.557 384.395,-752.564 388.385,-746.557 392.395,-752.551 388.405,-758.557"/>
<text text-anchor="middle" x="406.5" y="-773.5" font-family="Helvetica,sans-Serif" font-size="10.00"> #image</text>
</g>
<!-- Node11&#45;&gt;Node5 -->
<g id="edge10" class="edge"><title>Node11&#45;&gt;Node5</title>
<path fill="none" stroke="#404040" d="M544.612,-191.478C477.017,-157.301 366.588,-101.466 300.942,-68.2738"/>
<polygon fill="none" stroke="#404040" points="300.724,-68.1638 293.565,-69.0261 290.015,-62.7491 297.174,-61.8868 300.724,-68.1638"/>
<text text-anchor="middle" x="396" y="-101" font-family="Helvetica,sans-Serif" font-size="10.00"> #manager</text>
</g>
<!-- Node12&#45;&gt;Node11 -->
<g id="edge12" class="edge"><title>Node12&#45;&gt;Node11</title>
<path fill="none" stroke="#404040" d="M704.667,-402.639C695.316,-383.441 682.331,-357.443 670,-335 668.544,-332.35 667.058,-329.672 665.549,-326.977"/>
<polygon fill="none" stroke="#404040" points="665.537,-326.955 659.1,-323.703 659.627,-316.511 666.063,-319.763 665.537,-326.955"/>
<text text-anchor="middle" x="699" y="-343.5" font-family="Helvetica,sans-Serif" font-size="10.00"> &#45;enemy</text>
</g>
<!-- Node13&#45;&gt;Node11 -->
<g id="edge17" class="edge"><title>Node13&#45;&gt;Node11</title>
<path fill="none" stroke="#404040" d="M475.782,-375.368C484.185,-361.857 493.558,-347.651 503,-335 513.387,-321.082 525.141,-306.822 536.847,-293.341"/>
<polygon fill="none" stroke="#404040" points="537.005,-293.161 537.96,-286.014 544.925,-284.146 543.97,-291.294 537.005,-293.161"/>
<text text-anchor="middle" x="519.5" y="-343.5" font-family="Helvetica,sans-Serif" font-size="10.00"> &#45;player</text>
</g>
<!-- Node14&#45;&gt;Node13 -->
<g id="edge19" class="edge"><title>Node14&#45;&gt;Node13</title>
<path fill="none" stroke="#404040" d="M261.276,-809.201C264.586,-801.933 267.648,-794.367 270,-787 304.489,-678.97 251.928,-632.405 310,-535 326.149,-507.914 352.416,-485.481 377.434,-468.578"/>
<polygon fill="none" stroke="#404040" points="377.619,-468.458 380.463,-461.831 387.674,-461.909 384.829,-468.535 377.619,-468.458"/>
<text text-anchor="middle" x="322.5" y="-638.5" font-family="Helvetica,sans-Serif" font-size="10.00"> &#45;item</text>
</g>
<!-- Node15 -->
<g id="node13" class="node"><title>Node15</title>
<polygon fill="none" stroke="#bfbfbf" points="28.5,-826 28.5,-883 63.5,-883 63.5,-826 28.5,-826"/>
<text text-anchor="middle" x="46" y="-871" font-family="Helvetica,sans-Serif" font-size="10.00">float</text>
<polyline fill="none" stroke="#bfbfbf" points="28.5,-864 63.5,-864 "/>
<text text-anchor="middle" x="46" y="-852" font-family="Helvetica,sans-Serif" font-size="10.00"> </text>
<polyline fill="none" stroke="#bfbfbf" points="28.5,-845 63.5,-845 "/>
<text text-anchor="middle" x="46" y="-833" font-family="Helvetica,sans-Serif" font-size="10.00"> </text>
</g>
<!-- Node15&#45;&gt;Node3 -->
<g id="edge25" class="edge"><title>Node15&#45;&gt;Node3</title>
<path fill="none" stroke="#404040" d="M50.4449,-825.85C56.1134,-790.589 65.9898,-729.152 72.7534,-687.078"/>
<polygon fill="none" stroke="#404040" points="72.7536,-687.076 69.7566,-680.518 74.6583,-675.229 77.6552,-681.787 72.7536,-687.076"/>
<text text-anchor="middle" x="84.5" y="-773.5" font-family="Helvetica,sans-Serif" font-size="10.00"> +decrease</text>
</g>
</g>
</svg>
        <g id="navigator" transform="translate(0 0)" fill="#404254">
                <rect fill="#f2f5e9" fill-opacity="0.5" stroke="#606060" stroke-width=".5" x="0" y="0" width="60" height="60"/>
                <use id="zoomplus" xlink:href="#zoomPlus" x="17" y="9" onmousedown="handleZoom(evt,'in')"/>
                <use id="zoomminus" xlink:href="#zoomMin" x="42" y="9" onmousedown="handleZoom(evt,'out')"/>
                <use id="reset" xlink:href="#resetDef" x="30" y="36" onmousedown="handleReset()"/>
                <g id="arrowUp" xlink:href="#dirArrow" transform="translate(30 24)" onmousedown="handlePan(0,-1)">
                  <use xlink:href="#rim" fill="#404040">
                        <set attributeName="fill" to="#808080" begin="arrowUp.mouseover" end="arrowUp.mouseout"/>
                  </use>
                  <path fill="none" stroke="white" stroke-width="1.5" d="M0,-3.0v7 M-2.5,-0.5L0,-3.0L2.5,-0.5"/>
                </g>
                <g id="arrowRight" xlink:href="#dirArrow" transform="rotate(90) translate(36 -43)" onmousedown="handlePan(1,0)">
                  <use xlink:href="#rim" fill="#404040">
                        <set attributeName="fill" to="#808080" begin="arrowRight.mouseover" end="arrowRight.mouseout"/>
                  </use>
                  <path fill="none" stroke="white" stroke-width="1.5" d="M0,-3.0v7 M-2.5,-0.5L0,-3.0L2.5,-0.5"/>
                </g>
                <g id="arrowDown" xlink:href="#dirArrow" transform="rotate(180) translate(-30 -48)" onmousedown="handlePan(0,1)">
                  <use xlink:href="#rim" fill="#404040">
                        <set attributeName="fill" to="#808080" begin="arrowDown.mouseover" end="arrowDown.mouseout"/>
                  </use>
                  <path fill="none" stroke="white" stroke-width="1.5" d="M0,-3.0v7 M-2.5,-0.5L0,-3.0L2.5,-0.5"/>
                </g>
                <g id="arrowLeft" xlink:href="#dirArrow" transform="rotate(270) translate(-36 17)" onmousedown="handlePan(-1,0)">
                  <use xlink:href="#rim" fill="#404040">
                        <set attributeName="fill" to="#808080" begin="arrowLeft.mouseover" end="arrowLeft.mouseout"/>
                  </use>
                  <path fill="none" stroke="white" stroke-width="1.5" d="M0,-3.0v7 M-2.5,-0.5L0,-3.0L2.5,-0.5"/>
                </g>
        </g>
        <svg viewBox="0 0 15 15" width="100%" height="30px" preserveAspectRatio="xMaxYMin meet">
         <g id="arrow_out" transform="scale(0.3 0.3)">
          <a xlink:href="class_lower_defence__coll__graph_org.svg" target="_base">
           <rect id="button" ry="5" rx="5" y="6" x="6" height="38" width="38"
                fill="#f2f5e9" fill-opacity="0.5" stroke="#606060" stroke-width="1.0"/>
           <path id="arrow"
             d="M 11.500037,31.436501 C 11.940474,20.09759 22.043105,11.32322 32.158766,21.979434 L 37.068811,17.246167 C 37.068811,17.246167 37.088388,32 37.088388,32 L 22.160133,31.978069 C 22.160133,31.978069 26.997745,27.140456 26.997745,27.140456 C 18.528582,18.264221 13.291696,25.230495 11.500037,31.436501 z"
             style="fill:#404040;"/>
          </a>
         </g>
        </svg>
</svg>
