<?xml version="1.0" encoding="UTF-8" standalone="no"?>
<!DOCTYPE svg PUBLIC "-//W3C//DTD SVG 1.1//EN"
 "http://www.w3.org/Graphics/SVG/1.1/DTD/svg11.dtd">
<!-- Generated by graphviz version 2.38.0 (20140413.2041)
 -->
<!-- Title: CameraFollow Pages: 1 -->
<svg width="304pt" height="171pt"
 viewBox="0.00 0.00 303.50 171.00" xmlns="http://www.w3.org/2000/svg" xmlns:xlink="http://www.w3.org/1999/xlink">
<g id="graph0" class="graph" transform="scale(1 1) rotate(0) translate(4 167)">
<title>CameraFollow</title>
<!-- Node2 -->
<g id="node1" class="node"><title>Node2</title>
<polygon fill="#bfbfbf" stroke="black" points="128,-0.5 128,-57.5 211,-57.5 211,-0.5 128,-0.5"/>
<text text-anchor="middle" x="169.5" y="-45.5" font-family="Helvetica,sans-Serif" font-size="10.00">CameraFollow</text>
<polyline fill="none" stroke="black" points="128,-38.5 211,-38.5 "/>
<text text-anchor="middle" x="169.5" y="-26.5" font-family="Helvetica,sans-Serif" font-size="10.00"> </text>
<polyline fill="none" stroke="black" points="128,-19.5 211,-19.5 "/>
<text text-anchor="start" x="136" y="-7.5" font-family="Helvetica,sans-Serif" font-size="10.00">&#45; FixedUpdate()</text>
</g>
<!-- Node3 -->
<g id="node2" class="node"><title>Node3</title>
<g id="a_node2"><a xlink:href="class_mono_behaviour.html" target="_top" xlink:title="{MonoBehaviour\n||}">
<polygon fill="none" stroke="black" points="0,-105.5 0,-162.5 83,-162.5 83,-105.5 0,-105.5"/>
<text text-anchor="middle" x="41.5" y="-150.5" font-family="Helvetica,sans-Serif" font-size="10.00">MonoBehaviour</text>
<polyline fill="none" stroke="black" points="0,-143.5 83,-143.5 "/>
<text text-anchor="middle" x="41.5" y="-131.5" font-family="Helvetica,sans-Serif" font-size="10.00"> </text>
<polyline fill="none" stroke="black" points="0,-124.5 83,-124.5 "/>
<text text-anchor="middle" x="41.5" y="-112.5" font-family="Helvetica,sans-Serif" font-size="10.00"> </text>
</a>
</g>
</g>
<!-- Node3&#45;&gt;Node2 -->
<g id="edge1" class="edge"><title>Node3&#45;&gt;Node2</title>
<path fill="none" stroke="midnightblue" d="M83.7749,-98.9819C100.428,-85.581 119.309,-70.3883 135.104,-57.6783"/>
<polygon fill="none" stroke="midnightblue" points="81.3983,-96.4019 75.8017,-105.398 85.7867,-101.855 81.3983,-96.4019"/>
</g>
<!-- Node4 -->
<g id="node3" class="node"><title>Node4</title>
<polygon fill="none" stroke="#bfbfbf" points="101,-105.5 101,-162.5 172,-162.5 172,-105.5 101,-105.5"/>
<text text-anchor="middle" x="136.5" y="-150.5" font-family="Helvetica,sans-Serif" font-size="10.00">GameObject</text>
<polyline fill="none" stroke="#bfbfbf" points="101,-143.5 172,-143.5 "/>
<text text-anchor="middle" x="136.5" y="-131.5" font-family="Helvetica,sans-Serif" font-size="10.00"> </text>
<polyline fill="none" stroke="#bfbfbf" points="101,-124.5 172,-124.5 "/>
<text text-anchor="middle" x="136.5" y="-112.5" font-family="Helvetica,sans-Serif" font-size="10.00"> </text>
</g>
<!-- Node4&#45;&gt;Node2 -->
<g id="edge2" class="edge"><title>Node4&#45;&gt;Node2</title>
<path fill="none" stroke="#404040" d="M141.031,-105.422C142.918,-95.9735 145.402,-85.414 148.5,-76 149.241,-73.7484 150.059,-71.4601 150.93,-69.1679"/>
<polygon fill="none" stroke="#404040" points="151.033,-68.918 149.624,-61.8458 155.611,-57.8254 157.019,-64.8976 151.033,-68.918"/>
<text text-anchor="middle" x="165.5" y="-79" font-family="Helvetica,sans-Serif" font-size="10.00"> +follow</text>
</g>
<!-- Node5 -->
<g id="node4" class="node"><title>Node5</title>
<polygon fill="none" stroke="#bfbfbf" points="190,-105.5 190,-162.5 225,-162.5 225,-105.5 190,-105.5"/>
<text text-anchor="middle" x="207.5" y="-150.5" font-family="Helvetica,sans-Serif" font-size="10.00">float</text>
<polyline fill="none" stroke="#bfbfbf" points="190,-143.5 225,-143.5 "/>
<text text-anchor="middle" x="207.5" y="-131.5" font-family="Helvetica,sans-Serif" font-size="10.00"> </text>
<polyline fill="none" stroke="#bfbfbf" points="190,-124.5 225,-124.5 "/>
<text text-anchor="middle" x="207.5" y="-112.5" font-family="Helvetica,sans-Serif" font-size="10.00"> </text>
</g>
<!-- Node5&#45;&gt;Node2 -->
<g id="edge3" class="edge"><title>Node5&#45;&gt;Node2</title>
<path fill="none" stroke="#404040" d="M197.317,-105.398C193.228,-94.3142 188.438,-81.333 183.997,-69.2957"/>
<polygon fill="none" stroke="#404040" points="183.865,-68.9366 178.035,-64.692 179.711,-57.6783 185.541,-61.9229 183.865,-68.9366"/>
<text text-anchor="middle" x="212" y="-79" font-family="Helvetica,sans-Serif" font-size="10.00"> +lagTime</text>
</g>
<!-- Node6 -->
<g id="node5" class="node"><title>Node6</title>
<polygon fill="none" stroke="#bfbfbf" points="245.5,-105.5 245.5,-162.5 295.5,-162.5 295.5,-105.5 245.5,-105.5"/>
<text text-anchor="middle" x="270.5" y="-150.5" font-family="Helvetica,sans-Serif" font-size="10.00">Vector3</text>
<polyline fill="none" stroke="#bfbfbf" points="245.5,-143.5 295.5,-143.5 "/>
<text text-anchor="middle" x="270.5" y="-131.5" font-family="Helvetica,sans-Serif" font-size="10.00"> </text>
<polyline fill="none" stroke="#bfbfbf" points="245.5,-124.5 295.5,-124.5 "/>
<text text-anchor="middle" x="270.5" y="-112.5" font-family="Helvetica,sans-Serif" font-size="10.00"> </text>
</g>
<!-- Node6&#45;&gt;Node2 -->
<g id="edge4" class="edge"><title>Node6&#45;&gt;Node2</title>
<path fill="none" stroke="#404040" d="M257.834,-105.487C252.442,-95.5239 245.532,-84.6142 237.5,-76 232.581,-70.7241 226.949,-65.7364 221.079,-61.1292"/>
<polygon fill="none" stroke="#404040" points="220.721,-60.8659 213.518,-60.5296 211.058,-53.7511 218.261,-54.0873 220.721,-60.8659"/>
<text text-anchor="middle" x="265" y="-79" font-family="Helvetica,sans-Serif" font-size="10.00"> &#45;velocity</text>
</g>
</g>
</svg>
