<?xml version="1.0" encoding="UTF-8" standalone="no"?>
<!DOCTYPE svg PUBLIC "-//W3C//DTD SVG 1.1//EN"
 "http://www.w3.org/Graphics/SVG/1.1/DTD/svg11.dtd">
<!-- Generated by graphviz version 2.38.0 (20140413.2041)
 -->
<!-- Title: MagicAttack Pages: 1 -->
<!--zoomable 1028 -->
<svg id="main" version="1.1" xmlns="http://www.w3.org/2000/svg" xmlns:xlink="http://www.w3.org/1999/xlink" xml:space="preserve" onload="init(evt)">
<style type="text/css"><![CDATA[
.edge:hover path { stroke: red; }
.edge:hover polygon { stroke: red; fill: red; }
]]></style>
<script type="text/javascript"><![CDATA[
var edges = document.getElementsByTagName('g');
if (edges && edges.length) {
  for (var i=0;i<edges.length;i++) {
    if (edges[i].id.substr(0,4)=='edge') {
      edges[i].setAttribute('class','edge');
    }
  }
}
]]></script>
        <defs>
                <circle id="rim" cx="0" cy="0" r="7"/>
                <circle id="rim2" cx="0" cy="0" r="3.5"/>
                <g id="zoomPlus">
                        <use xlink:href="#rim" fill="#404040">
                                <set attributeName="fill" to="#808080" begin="zoomplus.mouseover" end="zoomplus.mouseout"/>
                        </use>
                        <path d="M-4,0h8M0,-4v8" fill="none" stroke="white" stroke-width="1.5" pointer-events="none"/>
                </g>
                <g id="zoomMin">
                        <use xlink:href="#rim" fill="#404040">
                                <set attributeName="fill" to="#808080" begin="zoomminus.mouseover" end="zoomminus.mouseout"/>
                        </use>
                        <path d="M-4,0h8" fill="none" stroke="white" stroke-width="1.5" pointer-events="none"/>
                </g>
                <g id="dirArrow">
                        <path fill="none" stroke="white" stroke-width="1.5" d="M0,-3.0v7 M-2.5,-0.5L0,-3.0L2.5,-0.5"/>
                </g>
               <g id="resetDef">
                       <use xlink:href="#rim2" fill="#404040">
                               <set attributeName="fill" to="#808080" begin="reset.mouseover" end="reset.mouseout"/>
                       </use>
               </g>
        </defs>

<script type="text/javascript">
var viewWidth = 848;
var viewHeight = 1028;
var sectionId = 'dynsection-1';
</script>
<script xlink:href="svgpan.js"/>
<svg id="graph" class="graph">
<g id="viewport">
<title>MagicAttack</title>
<!-- Node3 -->
<g id="node1" class="node"><title>Node3</title>
<polygon fill="#bfbfbf" stroke="black" points="357,-607 357,-675 443,-675 443,-607 357,-607"/>
<text text-anchor="middle" x="400" y="-663" font-family="Helvetica,sans-Serif" font-size="10.00">MagicAttack</text>
<polyline fill="none" stroke="black" points="357,-656 443,-656 "/>
<text text-anchor="middle" x="400" y="-644" font-family="Helvetica,sans-Serif" font-size="10.00"> </text>
<polyline fill="none" stroke="black" points="357,-637 443,-637 "/>
<text text-anchor="start" x="365" y="-625" font-family="Helvetica,sans-Serif" font-size="10.00">+ MagicAttack()</text>
<text text-anchor="start" x="365" y="-614" font-family="Helvetica,sans-Serif" font-size="10.00">+ performMove()</text>
</g>
<!-- Node4 -->
<g id="node2" class="node"><title>Node4</title>
<g id="a_node2"><a xlink:href="class_special_move.html" target="_top" xlink:title="Special move abstract base class that expands upon CharacterMove, adding magic properties ...">
<polygon fill="none" stroke="black" points="215,-809.5 215,-899.5 313,-899.5 313,-809.5 215,-809.5"/>
<text text-anchor="middle" x="264" y="-887.5" font-family="Helvetica,sans-Serif" font-size="10.00">SpecialMove</text>
<polyline fill="none" stroke="black" points="215,-880.5 313,-880.5 "/>
<text text-anchor="start" x="223" y="-868.5" font-family="Helvetica,sans-Serif" font-size="10.00">+ Magic</text>
<text text-anchor="start" x="223" y="-857.5" font-family="Helvetica,sans-Serif" font-size="10.00">+ Desc</text>
<polyline fill="none" stroke="black" points="215,-850.5 313,-850.5 "/>
<text text-anchor="start" x="223" y="-838.5" font-family="Helvetica,sans-Serif" font-size="10.00">+ setUp()</text>
<text text-anchor="start" x="223" y="-827.5" font-family="Helvetica,sans-Serif" font-size="10.00">+ decreaseMagic()</text>
<text text-anchor="start" x="223" y="-816.5" font-family="Helvetica,sans-Serif" font-size="10.00"># SpecialMove()</text>
</a>
</g>
</g>
<!-- Node4&#45;&gt;Node3 -->
<g id="edge1" class="edge"><title>Node4&#45;&gt;Node3</title>
<path fill="none" stroke="midnightblue" d="M321.727,-805.168C321.818,-805.112 321.909,-805.056 322,-805 339.307,-794.373 350.845,-802.472 364,-787 390.714,-755.58 398.132,-707.255 399.917,-675.144"/>
<polygon fill="none" stroke="midnightblue" points="319.714,-802.303 313.284,-810.723 323.562,-808.15 319.714,-802.303"/>
</g>
<!-- Node7 -->
<g id="node5" class="node"><title>Node7</title>
<g id="a_node5"><a xlink:href="class_character.html" target="_top" xlink:title="Base abstract class for Enemy and Player to inherit from. Defines all shared variables, their constructor and their setters and getters ">
<polygon fill="none" stroke="black" points="243.5,-535.5 243.5,-746.5 338.5,-746.5 338.5,-535.5 243.5,-535.5"/>
<text text-anchor="middle" x="291" y="-734.5" font-family="Helvetica,sans-Serif" font-size="10.00">Character</text>
<polyline fill="none" stroke="black" points="243.5,-727.5 338.5,-727.5 "/>
<text text-anchor="start" x="251.5" y="-715.5" font-family="Helvetica,sans-Serif" font-size="10.00">+ Name</text>
<text text-anchor="start" x="251.5" y="-704.5" font-family="Helvetica,sans-Serif" font-size="10.00">+ Level</text>
<text text-anchor="start" x="251.5" y="-693.5" font-family="Helvetica,sans-Serif" font-size="10.00">+ Health</text>
<text text-anchor="start" x="251.5" y="-682.5" font-family="Helvetica,sans-Serif" font-size="10.00">+ Attack</text>
<text text-anchor="start" x="251.5" y="-671.5" font-family="Helvetica,sans-Serif" font-size="10.00">+ Defence</text>
<text text-anchor="start" x="251.5" y="-660.5" font-family="Helvetica,sans-Serif" font-size="10.00">+ MaximumMagic</text>
<text text-anchor="start" x="251.5" y="-649.5" font-family="Helvetica,sans-Serif" font-size="10.00">+ Magic</text>
<text text-anchor="start" x="251.5" y="-638.5" font-family="Helvetica,sans-Serif" font-size="10.00">+ Luck</text>
<text text-anchor="start" x="251.5" y="-627.5" font-family="Helvetica,sans-Serif" font-size="10.00">+ Speed</text>
<text text-anchor="start" x="251.5" y="-616.5" font-family="Helvetica,sans-Serif" font-size="10.00">+ Rage</text>
<text text-anchor="start" x="251.5" y="-605.5" font-family="Helvetica,sans-Serif" font-size="10.00">+ CanRage</text>
<text text-anchor="start" x="251.5" y="-594.5" font-family="Helvetica,sans-Serif" font-size="10.00">+ Special1</text>
<text text-anchor="start" x="251.5" y="-583.5" font-family="Helvetica,sans-Serif" font-size="10.00">+ Special2</text>
<text text-anchor="start" x="251.5" y="-572.5" font-family="Helvetica,sans-Serif" font-size="10.00">+ Image</text>
<polyline fill="none" stroke="black" points="243.5,-565.5 338.5,-565.5 "/>
<text text-anchor="start" x="251.5" y="-553.5" font-family="Helvetica,sans-Serif" font-size="10.00">+ IsEnraged()</text>
<text text-anchor="start" x="251.5" y="-542.5" font-family="Helvetica,sans-Serif" font-size="10.00"># Character()</text>
</a>
</g>
</g>
<!-- Node4&#45;&gt;Node7 -->
<g id="edge8" class="edge"><title>Node4&#45;&gt;Node7</title>
<path fill="none" stroke="#404040" d="M252.613,-809.376C251.111,-801.954 249.812,-794.293 249,-787 247.97,-777.751 248.033,-768.278 248.907,-758.822"/>
<polygon fill="none" stroke="#404040" points="248.913,-758.775 245.702,-752.318 250.426,-746.87 253.638,-753.327 248.913,-758.775"/>
<text text-anchor="middle" x="271.5" y="-779" font-family="Helvetica,sans-Serif" font-size="10.00"> #special1</text>
<text text-anchor="middle" x="271.5" y="-768" font-family="Helvetica,sans-Serif" font-size="10.00">#special2</text>
</g>
<!-- Node5 -->
<g id="node3" class="node"><title>Node5</title>
<g id="a_node3"><a xlink:href="class_character_move.html" target="_top" xlink:title="Astract base class for character moves ">
<polygon fill="none" stroke="black" points="210,-0.5 210,-79.5 296,-79.5 296,-0.5 210,-0.5"/>
<text text-anchor="middle" x="253" y="-67.5" font-family="Helvetica,sans-Serif" font-size="10.00">CharacterMove</text>
<polyline fill="none" stroke="black" points="210,-60.5 296,-60.5 "/>
<text text-anchor="start" x="218" y="-48.5" font-family="Helvetica,sans-Serif" font-size="10.00">+ User</text>
<text text-anchor="start" x="218" y="-37.5" font-family="Helvetica,sans-Serif" font-size="10.00">+ Target</text>
<text text-anchor="start" x="218" y="-26.5" font-family="Helvetica,sans-Serif" font-size="10.00">+ Text</text>
<polyline fill="none" stroke="black" points="210,-19.5 296,-19.5 "/>
<text text-anchor="start" x="218" y="-7.5" font-family="Helvetica,sans-Serif" font-size="10.00">+ performMove()</text>
</a>
</g>
</g>
<!-- Node5&#45;&gt;Node4 -->
<g id="edge2" class="edge"><title>Node5&#45;&gt;Node4</title>
<path fill="none" stroke="midnightblue" d="M237.034,-89.5555C226.639,-125.453 215,-175.749 215,-221 215,-642 215,-642 215,-642 215,-700.987 233.312,-766.895 247.547,-809.218"/>
<polygon fill="none" stroke="midnightblue" points="240.431,-90.4113 239.923,-79.8286 233.721,-88.4186 240.431,-90.4113"/>
</g>
<!-- Node6 -->
<g id="node4" class="node"><title>Node6</title>
<polygon fill="none" stroke="#bfbfbf" points="63.5,-962.5 63.5,-1019.5 104.5,-1019.5 104.5,-962.5 63.5,-962.5"/>
<text text-anchor="middle" x="84" y="-1007.5" font-family="Helvetica,sans-Serif" font-size="10.00">string</text>
<polyline fill="none" stroke="#bfbfbf" points="63.5,-1000.5 104.5,-1000.5 "/>
<text text-anchor="middle" x="84" y="-988.5" font-family="Helvetica,sans-Serif" font-size="10.00"> </text>
<polyline fill="none" stroke="#bfbfbf" points="63.5,-981.5 104.5,-981.5 "/>
<text text-anchor="middle" x="84" y="-969.5" font-family="Helvetica,sans-Serif" font-size="10.00"> </text>
</g>
<!-- Node6&#45;&gt;Node4 -->
<g id="edge23" class="edge"><title>Node6&#45;&gt;Node4</title>
<path fill="none" stroke="#404040" d="M104.873,-975.825C129.246,-959.122 170.609,-930.305 205,-904 205.102,-903.922 205.204,-903.844 205.306,-903.766"/>
<polygon fill="none" stroke="#404040" points="205.486,-903.626 207.761,-896.783 214.952,-896.251 212.677,-903.094 205.486,-903.626"/>
<text text-anchor="middle" x="194" y="-930.5" font-family="Helvetica,sans-Serif" font-size="10.00"> #desc</text>
</g>
<!-- Node6&#45;&gt;Node5 -->
<g id="edge3" class="edge"><title>Node6&#45;&gt;Node5</title>
<path fill="none" stroke="#404040" d="M63.2359,-971.772C38.3611,-947.807 0,-903.128 0,-855.5 0,-855.5 0,-855.5 0,-221 0,-124.618 123.412,-75.0639 197.849,-53.9408"/>
<polygon fill="none" stroke="#404040" points="198.22,-53.8393 202.953,-48.3984 209.795,-50.6742 205.063,-56.1151 198.22,-53.8393"/>
<text text-anchor="middle" x="12.5" y="-509" font-family="Helvetica,sans-Serif" font-size="10.00"> #text</text>
</g>
<!-- Node6&#45;&gt;Node7 -->
<g id="edge5" class="edge"><title>Node6&#45;&gt;Node7</title>
<path fill="none" stroke="#404040" d="M78.6967,-962.232C72.9044,-924.441 67.5329,-855.721 93,-805 97.0842,-796.866 176.753,-732.605 233.77,-687.246"/>
<polygon fill="none" stroke="#404040" points="234.024,-687.044 236.233,-680.18 243.419,-679.579 241.21,-686.443 234.024,-687.044"/>
<text text-anchor="middle" x="109.5" y="-852" font-family="Helvetica,sans-Serif" font-size="10.00"> #name</text>
</g>
<!-- Node11 -->
<g id="node9" class="node"><title>Node11</title>
<g id="a_node9"><a xlink:href="class_battle_manager.html" target="_top" xlink:title="Holds current Player and Enemy objects in battle and provides functions for MainBattle and other obje...">
<polygon fill="none" stroke="black" points="387,-127.5 387,-316.5 503,-316.5 503,-127.5 387,-127.5"/>
<text text-anchor="middle" x="445" y="-304.5" font-family="Helvetica,sans-Serif" font-size="10.00">BattleManager</text>
<polyline fill="none" stroke="black" points="387,-297.5 503,-297.5 "/>
<text text-anchor="start" x="395" y="-285.5" font-family="Helvetica,sans-Serif" font-size="10.00">+ Player</text>
<text text-anchor="start" x="395" y="-274.5" font-family="Helvetica,sans-Serif" font-size="10.00">+ Enemy</text>
<text text-anchor="start" x="395" y="-263.5" font-family="Helvetica,sans-Serif" font-size="10.00">+ WasCriticalHit</text>
<polyline fill="none" stroke="black" points="387,-256.5 503,-256.5 "/>
<text text-anchor="start" x="395" y="-244.5" font-family="Helvetica,sans-Serif" font-size="10.00">+ BattleManager()</text>
<text text-anchor="start" x="395" y="-233.5" font-family="Helvetica,sans-Serif" font-size="10.00">+ playerFirst()</text>
<text text-anchor="start" x="395" y="-222.5" font-family="Helvetica,sans-Serif" font-size="10.00">+ switchPlayers()</text>
<text text-anchor="start" x="395" y="-211.5" font-family="Helvetica,sans-Serif" font-size="10.00">+ isCriticalHit()</text>
<text text-anchor="start" x="395" y="-200.5" font-family="Helvetica,sans-Serif" font-size="10.00">+ ranAway()</text>
<text text-anchor="start" x="395" y="-189.5" font-family="Helvetica,sans-Serif" font-size="10.00">+ damageCalculation()</text>
<text text-anchor="start" x="395" y="-178.5" font-family="Helvetica,sans-Serif" font-size="10.00">+ enemyMove()</text>
<text text-anchor="start" x="395" y="-167.5" font-family="Helvetica,sans-Serif" font-size="10.00">+ enemySpecialMove()</text>
<text text-anchor="start" x="395" y="-156.5" font-family="Helvetica,sans-Serif" font-size="10.00">+ battleWon()</text>
<text text-anchor="start" x="395" y="-145.5" font-family="Helvetica,sans-Serif" font-size="10.00">+ playerFainted()</text>
<text text-anchor="start" x="395" y="-134.5" font-family="Helvetica,sans-Serif" font-size="10.00">&#45; characterFainted()</text>
</a>
</g>
</g>
<!-- Node6&#45;&gt;Node11 -->
<g id="edge11" class="edge"><title>Node6&#45;&gt;Node11</title>
<path fill="none" stroke="#404040" d="M74.8923,-962.025C73.3137,-956.131 71.8942,-949.908 71,-944 68.3388,-926.417 70.2222,-921.782 70,-904 69.4501,-860.003 63.6847,-848.544 70,-805 87.9638,-681.139 100.049,-649.757 150,-535 191.191,-440.369 196.167,-409.105 268,-335 298.965,-303.055 340.759,-276.064 375.96,-256.587"/>
<polygon fill="none" stroke="#404040" points="376.105,-256.508 379.471,-250.131 386.653,-250.786 383.286,-257.163 376.105,-256.508"/>
<text text-anchor="middle" x="192" y="-644" font-family="Helvetica,sans-Serif" font-size="10.00"> +forceEnemyMove</text>
<text text-anchor="middle" x="192" y="-633" font-family="Helvetica,sans-Serif" font-size="10.00">+forceCriticalHits</text>
</g>
<!-- Node14 -->
<g id="node12" class="node"><title>Node14</title>
<g id="a_node12"><a xlink:href="class_item.html" target="_top" xlink:title="Abstract class for items that can be equipped to a player, increasing some of their stats ...">
<polygon fill="none" stroke="black" points="605.5,-809.5 605.5,-899.5 682.5,-899.5 682.5,-809.5 605.5,-809.5"/>
<text text-anchor="middle" x="644" y="-887.5" font-family="Helvetica,sans-Serif" font-size="10.00">Item</text>
<polyline fill="none" stroke="black" points="605.5,-880.5 682.5,-880.5 "/>
<text text-anchor="start" x="613.5" y="-868.5" font-family="Helvetica,sans-Serif" font-size="10.00">+ Name</text>
<text text-anchor="start" x="613.5" y="-857.5" font-family="Helvetica,sans-Serif" font-size="10.00">+ Desc</text>
<text text-anchor="start" x="613.5" y="-846.5" font-family="Helvetica,sans-Serif" font-size="10.00">+ Cost</text>
<polyline fill="none" stroke="black" points="605.5,-839.5 682.5,-839.5 "/>
<text text-anchor="start" x="613.5" y="-827.5" font-family="Helvetica,sans-Serif" font-size="10.00">+ applyBuffs()</text>
<text text-anchor="start" x="613.5" y="-816.5" font-family="Helvetica,sans-Serif" font-size="10.00">+ revertBuffs()</text>
</a>
</g>
</g>
<!-- Node6&#45;&gt;Node14 -->
<g id="edge20" class="edge"><title>Node6&#45;&gt;Node14</title>
<path fill="none" stroke="#404040" d="M104.848,-988.924C172.029,-984.89 388.052,-967.47 553,-904 566.836,-898.676 581.244,-891.721 594.404,-884.748"/>
<polygon fill="none" stroke="#404040" points="594.583,-884.651 597.945,-878.272 605.126,-878.921 601.764,-885.301 594.583,-884.651"/>
<text text-anchor="middle" x="507" y="-936" font-family="Helvetica,sans-Serif" font-size="10.00"> #desc</text>
<text text-anchor="middle" x="507" y="-925" font-family="Helvetica,sans-Serif" font-size="10.00">#name</text>
</g>
<!-- Node7&#45;&gt;Node5 -->
<g id="edge4" class="edge"><title>Node7&#45;&gt;Node5</title>
<path fill="none" stroke="#404040" d="M284.359,-535.32C276.125,-405.523 262.42,-189.493 256.221,-91.7708"/>
<polygon fill="none" stroke="#404040" points="256.21,-91.5955 251.838,-85.8609 255.45,-79.6196 259.822,-85.3543 256.21,-91.5955"/>
<text text-anchor="middle" x="290" y="-349" font-family="Helvetica,sans-Serif" font-size="10.00"> #target</text>
<text text-anchor="middle" x="290" y="-338" font-family="Helvetica,sans-Serif" font-size="10.00">#user</text>
</g>
<!-- Node12 -->
<g id="node10" class="node"><title>Node12</title>
<g id="a_node10"><a xlink:href="class_enemy.html" target="_top" xlink:title="Defines an AI controller enemy to fight in battle scenes">
<polygon fill="none" stroke="black" points="375.5,-403 375.5,-460 442.5,-460 442.5,-403 375.5,-403"/>
<text text-anchor="middle" x="409" y="-448" font-family="Helvetica,sans-Serif" font-size="10.00">Enemy</text>
<polyline fill="none" stroke="black" points="375.5,-441 442.5,-441 "/>
<text text-anchor="start" x="383.5" y="-429" font-family="Helvetica,sans-Serif" font-size="10.00">+ ExpGiven</text>
<polyline fill="none" stroke="black" points="375.5,-422 442.5,-422 "/>
<text text-anchor="start" x="383.5" y="-410" font-family="Helvetica,sans-Serif" font-size="10.00">+ Enemy()</text>
</a>
</g>
</g>
<!-- Node7&#45;&gt;Node12 -->
<g id="edge13" class="edge"><title>Node7&#45;&gt;Node12</title>
<path fill="none" stroke="midnightblue" d="M343.639,-542.709C345.103,-540.109 346.558,-537.536 348,-535 362.536,-509.439 379.715,-480.698 392.132,-460.169"/>
<polygon fill="none" stroke="midnightblue" points="340.474,-541.199 338.643,-551.635 346.582,-544.619 340.474,-541.199"/>
</g>
<!-- Node13 -->
<g id="node11" class="node"><title>Node13</title>
<g id="a_node11"><a xlink:href="class_player.html" target="_top" xlink:title="Defines a playable character for use in battle scenes">
<polygon fill="none" stroke="black" points="542,-375.5 542,-487.5 654,-487.5 654,-375.5 542,-375.5"/>
<text text-anchor="middle" x="598" y="-475.5" font-family="Helvetica,sans-Serif" font-size="10.00">Player</text>
<polyline fill="none" stroke="black" points="542,-468.5 654,-468.5 "/>
<text text-anchor="start" x="550" y="-456.5" font-family="Helvetica,sans-Serif" font-size="10.00">+ Exp</text>
<text text-anchor="start" x="550" y="-445.5" font-family="Helvetica,sans-Serif" font-size="10.00">+ Item</text>
<text text-anchor="start" x="550" y="-434.5" font-family="Helvetica,sans-Serif" font-size="10.00">+ ExpToNextLevel</text>
<polyline fill="none" stroke="black" points="542,-427.5 654,-427.5 "/>
<text text-anchor="start" x="550" y="-415.5" font-family="Helvetica,sans-Serif" font-size="10.00">+ Player()</text>
<text text-anchor="start" x="550" y="-404.5" font-family="Helvetica,sans-Serif" font-size="10.00">+ gainExp()</text>
<text text-anchor="start" x="550" y="-393.5" font-family="Helvetica,sans-Serif" font-size="10.00">+ levelUp()</text>
<text text-anchor="start" x="550" y="-382.5" font-family="Helvetica,sans-Serif" font-size="10.00">&#45; setExpToNextLevel()</text>
</a>
</g>
</g>
<!-- Node7&#45;&gt;Node13 -->
<g id="edge18" class="edge"><title>Node7&#45;&gt;Node13</title>
<path fill="none" stroke="midnightblue" d="M346.775,-535.827C347.181,-535.547 347.589,-535.272 348,-535 418.767,-488.235 464.554,-559.434 538,-517 550.307,-509.889 560.733,-499.12 569.265,-487.628"/>
<polygon fill="none" stroke="midnightblue" points="344.334,-533.294 338.651,-542.236 348.67,-538.79 344.334,-533.294"/>
</g>
<!-- Node8 -->
<g id="node6" class="node"><title>Node8</title>
<polygon fill="none" stroke="#bfbfbf" points="577.5,-962.5 577.5,-1019.5 606.5,-1019.5 606.5,-962.5 577.5,-962.5"/>
<text text-anchor="middle" x="592" y="-1007.5" font-family="Helvetica,sans-Serif" font-size="10.00">int</text>
<polyline fill="none" stroke="#bfbfbf" points="577.5,-1000.5 606.5,-1000.5 "/>
<text text-anchor="middle" x="592" y="-988.5" font-family="Helvetica,sans-Serif" font-size="10.00"> </text>
<polyline fill="none" stroke="#bfbfbf" points="577.5,-981.5 606.5,-981.5 "/>
<text text-anchor="middle" x="592" y="-969.5" font-family="Helvetica,sans-Serif" font-size="10.00"> </text>
</g>
<!-- Node8&#45;&gt;Node3 -->
<g id="edge25" class="edge"><title>Node8&#45;&gt;Node3</title>
<path fill="none" stroke="#404040" d="M577.489,-983.032C562.994,-975.371 541.043,-961.754 528,-944 489.474,-891.558 506.911,-865.116 482,-805 464.86,-763.639 441.652,-718.264 424.3,-685.915"/>
<polygon fill="none" stroke="#404040" points="424.131,-685.602 417.759,-682.225 418.426,-675.044 424.798,-678.422 424.131,-685.602"/>
<text text-anchor="middle" x="524.5" y="-852" font-family="Helvetica,sans-Serif" font-size="10.00"> +power</text>
</g>
<!-- Node8&#45;&gt;Node4 -->
<g id="edge24" class="edge"><title>Node8&#45;&gt;Node4</title>
<path fill="none" stroke="#404040" d="M577.374,-990.041C538.607,-989.568 430.924,-984.435 354,-944 337.134,-935.134 321.342,-922.081 307.84,-908.708"/>
<polygon fill="none" stroke="#404040" points="307.665,-908.527 300.617,-907.006 299.31,-899.914 306.359,-901.436 307.665,-908.527"/>
<text text-anchor="middle" x="371.5" y="-930.5" font-family="Helvetica,sans-Serif" font-size="10.00"> #magic</text>
</g>
<!-- Node8&#45;&gt;Node7 -->
<g id="edge6" class="edge"><title>Node8&#45;&gt;Node7</title>
<path fill="none" stroke="#404040" d="M577.26,-988.06C541.023,-982.451 447.322,-962.685 403,-904 365.345,-854.143 418.146,-815.962 382,-765 372.108,-751.054 360.153,-759.027 348,-747 347.595,-746.599 347.191,-746.194 346.79,-745.786"/>
<polygon fill="none" stroke="#404040" points="346.701,-745.687 339.715,-743.898 338.68,-736.761 345.665,-738.55 346.701,-745.687"/>
<text text-anchor="middle" x="440.5" y="-896" font-family="Helvetica,sans-Serif" font-size="10.00"> #speed</text>
<text text-anchor="middle" x="440.5" y="-885" font-family="Helvetica,sans-Serif" font-size="10.00">#luck</text>
<text text-anchor="middle" x="440.5" y="-874" font-family="Helvetica,sans-Serif" font-size="10.00">#health</text>
<text text-anchor="middle" x="440.5" y="-863" font-family="Helvetica,sans-Serif" font-size="10.00">#magic</text>
<text text-anchor="middle" x="440.5" y="-852" font-family="Helvetica,sans-Serif" font-size="10.00">#maximumMagic</text>
<text text-anchor="middle" x="440.5" y="-841" font-family="Helvetica,sans-Serif" font-size="10.00">#attack</text>
<text text-anchor="middle" x="440.5" y="-830" font-family="Helvetica,sans-Serif" font-size="10.00">#defence</text>
<text text-anchor="middle" x="440.5" y="-819" font-family="Helvetica,sans-Serif" font-size="10.00">#level</text>
<text text-anchor="middle" x="440.5" y="-808" font-family="Helvetica,sans-Serif" font-size="10.00">#rage</text>
</g>
<!-- Node8&#45;&gt;Node11 -->
<g id="edge15" class="edge"><title>Node8&#45;&gt;Node11</title>
<path fill="none" stroke="#404040" d="M606.696,-987.839C654.269,-979.935 801,-948.055 801,-855.5 801,-855.5 801,-855.5 801,-430.5 801,-299.583 619.075,-249.803 515.327,-232.059"/>
<polygon fill="none" stroke="#404040" points="515.229,-232.043 508.66,-235.018 503.388,-230.098 509.956,-227.123 515.229,-232.043"/>
<text text-anchor="middle" x="820.5" y="-638.5" font-family="Helvetica,sans-Serif" font-size="10.00"> +money</text>
</g>
<!-- Node8&#45;&gt;Node12 -->
<g id="edge14" class="edge"><title>Node8&#45;&gt;Node12</title>
<path fill="none" stroke="#404040" d="M591.12,-962.431C587.833,-862.625 575.813,-525.026 563,-506 559.622,-500.985 497.901,-472.465 453.637,-452.465"/>
<polygon fill="none" stroke="#404040" points="453.465,-452.387 446.352,-453.569 442.525,-447.457 449.639,-446.275 453.465,-452.387"/>
<text text-anchor="middle" x="608" y="-773.5" font-family="Helvetica,sans-Serif" font-size="10.00"> &#45;expGiven</text>
</g>
<!-- Node8&#45;&gt;Node13 -->
<g id="edge22" class="edge"><title>Node8&#45;&gt;Node13</title>
<path fill="none" stroke="#404040" d="M606.578,-983.007C630.036,-970.807 675.223,-943.147 692,-904 721.293,-835.649 697.524,-637.238 662,-535 657.677,-522.559 651.625,-510.055 644.953,-498.268"/>
<polygon fill="none" stroke="#404040" points="644.792,-497.995 638.294,-494.867 638.682,-487.666 645.18,-490.794 644.792,-497.995"/>
<text text-anchor="middle" x="741.5" y="-779" font-family="Helvetica,sans-Serif" font-size="10.00"> &#45;expToNextLevel</text>
<text text-anchor="middle" x="741.5" y="-768" font-family="Helvetica,sans-Serif" font-size="10.00">&#45;exp</text>
</g>
<!-- Node8&#45;&gt;Node14 -->
<g id="edge21" class="edge"><title>Node8&#45;&gt;Node14</title>
<path fill="none" stroke="#404040" d="M602.648,-962.457C608.376,-947.642 615.653,-928.82 622.5,-911.11"/>
<polygon fill="none" stroke="#404040" points="622.59,-910.878 621.023,-903.839 626.917,-899.685 628.484,-906.724 622.59,-910.878"/>
<text text-anchor="middle" x="632" y="-930.5" font-family="Helvetica,sans-Serif" font-size="10.00"> #cost</text>
</g>
<!-- Node9 -->
<g id="node7" class="node"><title>Node9</title>
<polygon fill="none" stroke="#bfbfbf" points="331.5,-826 331.5,-883 366.5,-883 366.5,-826 331.5,-826"/>
<text text-anchor="middle" x="349" y="-871" font-family="Helvetica,sans-Serif" font-size="10.00">bool</text>
<polyline fill="none" stroke="#bfbfbf" points="331.5,-864 366.5,-864 "/>
<text text-anchor="middle" x="349" y="-852" font-family="Helvetica,sans-Serif" font-size="10.00"> </text>
<polyline fill="none" stroke="#bfbfbf" points="331.5,-845 366.5,-845 "/>
<text text-anchor="middle" x="349" y="-833" font-family="Helvetica,sans-Serif" font-size="10.00"> </text>
</g>
<!-- Node9&#45;&gt;Node7 -->
<g id="edge7" class="edge"><title>Node9&#45;&gt;Node7</title>
<path fill="none" stroke="#404040" d="M341.418,-825.85C336.545,-808.081 329.849,-783.664 322.928,-758.428"/>
<polygon fill="none" stroke="#404040" points="322.912,-758.369 317.468,-753.641 319.738,-746.796 325.183,-751.525 322.912,-758.369"/>
<text text-anchor="middle" x="354.5" y="-773.5" font-family="Helvetica,sans-Serif" font-size="10.00"> #canRage</text>
</g>
<!-- Node9&#45;&gt;Node11 -->
<g id="edge16" class="edge"><title>Node9&#45;&gt;Node11</title>
<path fill="none" stroke="#404040" d="M366.684,-827.496C372.226,-819.967 378.581,-811.919 385,-805 411.786,-776.126 435.401,-782.717 452,-747 514.246,-613.065 494.734,-438.286 472.123,-328.321"/>
<polygon fill="none" stroke="#404040" points="472.12,-328.305 466.968,-323.26 469.643,-316.563 474.796,-321.608 472.12,-328.305"/>
<text text-anchor="middle" x="527" y="-509" font-family="Helvetica,sans-Serif" font-size="10.00"> &#45;wasCriticalHit</text>
</g>
<!-- Node10 -->
<g id="node8" class="node"><title>Node10</title>
<polygon fill="none" stroke="#bfbfbf" points="135.5,-826 135.5,-883 196.5,-883 196.5,-826 135.5,-826"/>
<text text-anchor="middle" x="166" y="-871" font-family="Helvetica,sans-Serif" font-size="10.00">Texture2D</text>
<polyline fill="none" stroke="#bfbfbf" points="135.5,-864 196.5,-864 "/>
<text text-anchor="middle" x="166" y="-852" font-family="Helvetica,sans-Serif" font-size="10.00"> </text>
<polyline fill="none" stroke="#bfbfbf" points="135.5,-845 196.5,-845 "/>
<text text-anchor="middle" x="166" y="-833" font-family="Helvetica,sans-Serif" font-size="10.00"> </text>
</g>
<!-- Node10&#45;&gt;Node7 -->
<g id="edge9" class="edge"><title>Node10&#45;&gt;Node7</title>
<path fill="none" stroke="#404040" d="M178.645,-825.94C187.02,-808.246 198.538,-784.932 210,-765 218.257,-750.642 227.521,-735.675 236.754,-721.326"/>
<polygon fill="none" stroke="#404040" points="236.921,-721.069 236.835,-713.858 243.457,-711.005 243.544,-718.215 236.921,-721.069"/>
<text text-anchor="middle" x="227.5" y="-773.5" font-family="Helvetica,sans-Serif" font-size="10.00"> #image</text>
</g>
<!-- Node11&#45;&gt;Node5 -->
<g id="edge10" class="edge"><title>Node11&#45;&gt;Node5</title>
<path fill="none" stroke="#404040" d="M386.873,-166.506C360.116,-141.422 328.686,-111.955 303.005,-87.88"/>
<polygon fill="none" stroke="#404040" points="302.933,-87.8123 295.82,-86.6268 294.179,-79.605 301.292,-80.7905 302.933,-87.8123"/>
<text text-anchor="middle" x="344" y="-101" font-family="Helvetica,sans-Serif" font-size="10.00"> #manager</text>
</g>
<!-- Node12&#45;&gt;Node11 -->
<g id="edge12" class="edge"><title>Node12&#45;&gt;Node11</title>
<path fill="none" stroke="#404040" d="M411.84,-402.826C413.957,-383.71 417.143,-357.735 421,-335 421.365,-332.851 421.742,-330.681 422.13,-328.495"/>
<polygon fill="none" stroke="#404040" points="422.131,-328.492 419.282,-321.867 424.302,-316.69 427.15,-323.315 422.131,-328.492"/>
<text text-anchor="middle" x="439" y="-343.5" font-family="Helvetica,sans-Serif" font-size="10.00"> &#45;enemy</text>
</g>
<!-- Node13&#45;&gt;Node11 -->
<g id="edge17" class="edge"><title>Node13&#45;&gt;Node11</title>
<path fill="none" stroke="#404040" d="M557.4,-375.439C542.967,-355.864 526.329,-333.3 510.354,-311.634"/>
<polygon fill="none" stroke="#404040" points="510.193,-311.415 503.412,-308.96 503.071,-301.757 509.851,-304.212 510.193,-311.415"/>
<text text-anchor="middle" x="556.5" y="-343.5" font-family="Helvetica,sans-Serif" font-size="10.00"> &#45;player</text>
</g>
<!-- Node14&#45;&gt;Node13 -->
<g id="edge19" class="edge"><title>Node14&#45;&gt;Node13</title>
<path fill="none" stroke="#404040" d="M639.164,-809.241C631.098,-735.42 614.849,-586.705 605.357,-499.83"/>
<polygon fill="none" stroke="#404040" points="605.339,-499.666 600.711,-494.136 604.035,-487.737 608.663,-493.267 605.339,-499.666"/>
<text text-anchor="middle" x="645.5" y="-638.5" font-family="Helvetica,sans-Serif" font-size="10.00"> &#45;item</text>
</g>
</g>
</svg>
        <g id="navigator" transform="translate(0 0)" fill="#404254">
                <rect fill="#f2f5e9" fill-opacity="0.5" stroke="#606060" stroke-width=".5" x="0" y="0" width="60" height="60"/>
                <use id="zoomplus" xlink:href="#zoomPlus" x="17" y="9" onmousedown="handleZoom(evt,'in')"/>
                <use id="zoomminus" xlink:href="#zoomMin" x="42" y="9" onmousedown="handleZoom(evt,'out')"/>
                <use id="reset" xlink:href="#resetDef" x="30" y="36" onmousedown="handleReset()"/>
                <g id="arrowUp" xlink:href="#dirArrow" transform="translate(30 24)" onmousedown="handlePan(0,-1)">
                  <use xlink:href="#rim" fill="#404040">
                        <set attributeName="fill" to="#808080" begin="arrowUp.mouseover" end="arrowUp.mouseout"/>
                  </use>
                  <path fill="none" stroke="white" stroke-width="1.5" d="M0,-3.0v7 M-2.5,-0.5L0,-3.0L2.5,-0.5"/>
                </g>
                <g id="arrowRight" xlink:href="#dirArrow" transform="rotate(90) translate(36 -43)" onmousedown="handlePan(1,0)">
                  <use xlink:href="#rim" fill="#404040">
                        <set attributeName="fill" to="#808080" begin="arrowRight.mouseover" end="arrowRight.mouseout"/>
                  </use>
                  <path fill="none" stroke="white" stroke-width="1.5" d="M0,-3.0v7 M-2.5,-0.5L0,-3.0L2.5,-0.5"/>
                </g>
                <g id="arrowDown" xlink:href="#dirArrow" transform="rotate(180) translate(-30 -48)" onmousedown="handlePan(0,1)">
                  <use xlink:href="#rim" fill="#404040">
                        <set attributeName="fill" to="#808080" begin="arrowDown.mouseover" end="arrowDown.mouseout"/>
                  </use>
                  <path fill="none" stroke="white" stroke-width="1.5" d="M0,-3.0v7 M-2.5,-0.5L0,-3.0L2.5,-0.5"/>
                </g>
                <g id="arrowLeft" xlink:href="#dirArrow" transform="rotate(270) translate(-36 17)" onmousedown="handlePan(-1,0)">
                  <use xlink:href="#rim" fill="#404040">
                        <set attributeName="fill" to="#808080" begin="arrowLeft.mouseover" end="arrowLeft.mouseout"/>
                  </use>
                  <path fill="none" stroke="white" stroke-width="1.5" d="M0,-3.0v7 M-2.5,-0.5L0,-3.0L2.5,-0.5"/>
                </g>
        </g>
        <svg viewBox="0 0 15 15" width="100%" height="30px" preserveAspectRatio="xMaxYMin meet">
         <g id="arrow_out" transform="scale(0.3 0.3)">
          <a xlink:href="class_magic_attack__coll__graph_org.svg" target="_base">
           <rect id="button" ry="5" rx="5" y="6" x="6" height="38" width="38"
                fill="#f2f5e9" fill-opacity="0.5" stroke="#606060" stroke-width="1.0"/>
           <path id="arrow"
             d="M 11.500037,31.436501 C 11.940474,20.09759 22.043105,11.32322 32.158766,21.979434 L 37.068811,17.246167 C 37.068811,17.246167 37.088388,32 37.088388,32 L 22.160133,31.978069 C 22.160133,31.978069 26.997745,27.140456 26.997745,27.140456 C 18.528582,18.264221 13.291696,25.230495 11.500037,31.436501 z"
             style="fill:#404040;"/>
          </a>
         </g>
        </svg>
</svg>
