<?xml version="1.0" encoding="UTF-8" standalone="no"?>
<!DOCTYPE svg PUBLIC "-//W3C//DTD SVG 1.1//EN"
 "http://www.w3.org/Graphics/SVG/1.1/DTD/svg11.dtd">
<!-- Generated by graphviz version 2.38.0 (20140413.2041)
 -->
<!-- Title: BattleDescriptor Pages: 1 -->
<svg width="1092pt" height="1647pt"
 viewBox="0.00 0.00 1091.50 1647.00" xmlns="http://www.w3.org/2000/svg" xmlns:xlink="http://www.w3.org/1999/xlink">
<g id="graph0" class="graph" transform="scale(1 1) rotate(0) translate(4 1643)">
<title>BattleDescriptor</title>
<!-- Node2 -->
<g id="node1" class="node"><title>Node2</title>
<polygon fill="#bfbfbf" stroke="black" points="767,-0.5 767,-68.5 877,-68.5 877,-0.5 767,-0.5"/>
<text text-anchor="middle" x="822" y="-56.5" font-family="Helvetica,sans-Serif" font-size="10.00">BattleDescriptor</text>
<polyline fill="none" stroke="black" points="767,-49.5 877,-49.5 "/>
<text text-anchor="middle" x="822" y="-37.5" font-family="Helvetica,sans-Serif" font-size="10.00"> </text>
<polyline fill="none" stroke="black" points="767,-30.5 877,-30.5 "/>
<text text-anchor="start" x="775" y="-18.5" font-family="Helvetica,sans-Serif" font-size="10.00">+ createBattle()</text>
<text text-anchor="start" x="775" y="-7.5" font-family="Helvetica,sans-Serif" font-size="10.00">&#45; createSpecialMove()</text>
</g>
<!-- Node3 -->
<g id="node2" class="node"><title>Node3</title>
<g id="a_node2"><a xlink:href="class_mono_behaviour.html" target="_top" xlink:title="{MonoBehaviour\n||}">
<polygon fill="none" stroke="black" points="247.5,-304 247.5,-361 330.5,-361 330.5,-304 247.5,-304"/>
<text text-anchor="middle" x="289" y="-349" font-family="Helvetica,sans-Serif" font-size="10.00">MonoBehaviour</text>
<polyline fill="none" stroke="black" points="247.5,-342 330.5,-342 "/>
<text text-anchor="middle" x="289" y="-330" font-family="Helvetica,sans-Serif" font-size="10.00"> </text>
<polyline fill="none" stroke="black" points="247.5,-323 330.5,-323 "/>
<text text-anchor="middle" x="289" y="-311" font-family="Helvetica,sans-Serif" font-size="10.00"> </text>
</a>
</g>
</g>
<!-- Node3&#45;&gt;Node2 -->
<g id="edge1" class="edge"><title>Node3&#45;&gt;Node2</title>
<path fill="none" stroke="midnightblue" d="M334.881,-297.922C347.821,-288.516 361.933,-278.317 375,-269 464.649,-205.077 480.572,-178.291 578,-127 639.851,-94.4386 715.918,-67.8527 766.514,-51.8895"/>
<polygon fill="none" stroke="midnightblue" points="332.595,-295.257 326.57,-303.971 336.715,-300.916 332.595,-295.257"/>
</g>
<!-- Node5 -->
<g id="node4" class="node"><title>Node5</title>
<g id="a_node4"><a xlink:href="class_global_functions.html" target="_top" xlink:title="Provides functions and variables to be accessed by any game object to allow data to be passed between...">
<polygon fill="none" stroke="black" points="587.5,-127.5 587.5,-250.5 674.5,-250.5 674.5,-127.5 587.5,-127.5"/>
<text text-anchor="middle" x="631" y="-238.5" font-family="Helvetica,sans-Serif" font-size="10.00">GlobalFunctions</text>
<polyline fill="none" stroke="black" points="587.5,-231.5 674.5,-231.5 "/>
<text text-anchor="middle" x="631" y="-219.5" font-family="Helvetica,sans-Serif" font-size="10.00"> </text>
<polyline fill="none" stroke="black" points="587.5,-212.5 674.5,-212.5 "/>
<text text-anchor="start" x="595.5" y="-200.5" font-family="Helvetica,sans-Serif" font-size="10.00">+ createBattle()</text>
<text text-anchor="start" x="595.5" y="-189.5" font-family="Helvetica,sans-Serif" font-size="10.00">+ getEnemy()</text>
<text text-anchor="start" x="595.5" y="-178.5" font-family="Helvetica,sans-Serif" font-size="10.00">+ getMoney()</text>
<text text-anchor="start" x="595.5" y="-167.5" font-family="Helvetica,sans-Serif" font-size="10.00">+ getItem()</text>
<text text-anchor="start" x="595.5" y="-156.5" font-family="Helvetica,sans-Serif" font-size="10.00">+ endBattle()</text>
<text text-anchor="start" x="595.5" y="-145.5" font-family="Helvetica,sans-Serif" font-size="10.00">+ createItem()</text>
<text text-anchor="start" x="595.5" y="-134.5" font-family="Helvetica,sans-Serif" font-size="10.00">&#45; Awake()</text>
</a>
</g>
</g>
<!-- Node3&#45;&gt;Node5 -->
<g id="edge4" class="edge"><title>Node3&#45;&gt;Node5</title>
<path fill="none" stroke="midnightblue" d="M337.974,-299.042C338.651,-298.688 339.326,-298.341 340,-298 424.152,-255.436 529.237,-220.596 587.311,-202.811"/>
<polygon fill="none" stroke="midnightblue" points="336.188,-296.031 329.148,-303.948 339.589,-302.149 336.188,-296.031"/>
</g>
<!-- Node4 -->
<g id="node3" class="node"><title>Node4</title>
<polygon fill="none" stroke="#bfbfbf" points="176.5,-1581.5 176.5,-1638.5 217.5,-1638.5 217.5,-1581.5 176.5,-1581.5"/>
<text text-anchor="middle" x="197" y="-1626.5" font-family="Helvetica,sans-Serif" font-size="10.00">string</text>
<polyline fill="none" stroke="#bfbfbf" points="176.5,-1619.5 217.5,-1619.5 "/>
<text text-anchor="middle" x="197" y="-1607.5" font-family="Helvetica,sans-Serif" font-size="10.00"> </text>
<polyline fill="none" stroke="#bfbfbf" points="176.5,-1600.5 217.5,-1600.5 "/>
<text text-anchor="middle" x="197" y="-1588.5" font-family="Helvetica,sans-Serif" font-size="10.00"> </text>
</g>
<!-- Node4&#45;&gt;Node2 -->
<g id="edge2" class="edge"><title>Node4&#45;&gt;Node2</title>
<path fill="none" stroke="#404040" d="M176.29,-1605.92C125.711,-1597.09 0,-1566.83 0,-1484 0,-1484 0,-1484 0,-188 0,-111.446 558.284,-57.497 754.663,-40.8883"/>
<polygon fill="none" stroke="#404040" points="754.832,-40.8743 760.477,-36.3869 766.79,-39.8714 761.145,-44.3589 754.832,-40.8743"/>
<text text-anchor="middle" x="32" y="-805" font-family="Helvetica,sans-Serif" font-size="10.00"> +special1Text</text>
<text text-anchor="middle" x="32" y="-794" font-family="Helvetica,sans-Serif" font-size="10.00">+name</text>
<text text-anchor="middle" x="32" y="-783" font-family="Helvetica,sans-Serif" font-size="10.00">+special2Text</text>
</g>
<!-- Node4&#45;&gt;Node5 -->
<g id="edge8" class="edge"><title>Node4&#45;&gt;Node5</title>
<path fill="none" stroke="#404040" d="M217.75,-1607.85C339.716,-1600.79 958,-1561.24 958,-1484 958,-1484 958,-1484 958,-331.5 958,-273.054 779.828,-223.793 686.52,-202.003"/>
<polygon fill="none" stroke="#404040" points="686.456,-201.988 679.712,-204.541 674.761,-199.297 681.506,-196.745 686.456,-201.988"/>
<text text-anchor="middle" x="993" y="-874" font-family="Helvetica,sans-Serif" font-size="10.00"> &#45;previousScene</text>
<text text-anchor="middle" x="993" y="-863" font-family="Helvetica,sans-Serif" font-size="10.00">+levelOrder</text>
</g>
<!-- Node7 -->
<g id="node6" class="node"><title>Node7</title>
<g id="a_node6"><a xlink:href="class_item.html" target="_top" xlink:title="Abstract class for items that can be equipped to a player, increasing some of their stats ...">
<polygon fill="none" stroke="black" points="575.5,-1443.5 575.5,-1522.5 652.5,-1522.5 652.5,-1443.5 575.5,-1443.5"/>
<text text-anchor="middle" x="614" y="-1510.5" font-family="Helvetica,sans-Serif" font-size="10.00">Item</text>
<polyline fill="none" stroke="black" points="575.5,-1503.5 652.5,-1503.5 "/>
<text text-anchor="start" x="583.5" y="-1491.5" font-family="Helvetica,sans-Serif" font-size="10.00">+ Name</text>
<text text-anchor="start" x="583.5" y="-1480.5" font-family="Helvetica,sans-Serif" font-size="10.00">+ Desc</text>
<polyline fill="none" stroke="black" points="575.5,-1473.5 652.5,-1473.5 "/>
<text text-anchor="start" x="583.5" y="-1461.5" font-family="Helvetica,sans-Serif" font-size="10.00">+ applyBuffs()</text>
<text text-anchor="start" x="583.5" y="-1450.5" font-family="Helvetica,sans-Serif" font-size="10.00">+ revertBuffs()</text>
</a>
</g>
</g>
<!-- Node4&#45;&gt;Node7 -->
<g id="edge7" class="edge"><title>Node4&#45;&gt;Node7</title>
<path fill="none" stroke="#404040" d="M217.622,-1604.22C268.483,-1592.24 403.788,-1559.33 514,-1523 530.52,-1517.55 548.288,-1510.9 564.197,-1504.63"/>
<polygon fill="none" stroke="#404040" points="564.262,-1504.61 568.355,-1498.67 575.409,-1500.16 571.316,-1506.1 564.262,-1504.61"/>
<text text-anchor="middle" x="470" y="-1555" font-family="Helvetica,sans-Serif" font-size="10.00"> #desc</text>
<text text-anchor="middle" x="470" y="-1544" font-family="Helvetica,sans-Serif" font-size="10.00">#name</text>
</g>
<!-- Node10 -->
<g id="node9" class="node"><title>Node10</title>
<g id="a_node9"><a xlink:href="class_character.html" target="_top" xlink:title="Base abstract class for Enemy and Player to inherit from. Defines all shared variables, their constructor and their setters and getters ">
<polygon fill="none" stroke="black" points="259.5,-404.5 259.5,-582.5 354.5,-582.5 354.5,-404.5 259.5,-404.5"/>
<text text-anchor="middle" x="307" y="-570.5" font-family="Helvetica,sans-Serif" font-size="10.00">Character</text>
<polyline fill="none" stroke="black" points="259.5,-563.5 354.5,-563.5 "/>
<text text-anchor="start" x="267.5" y="-551.5" font-family="Helvetica,sans-Serif" font-size="10.00">+ Name</text>
<text text-anchor="start" x="267.5" y="-540.5" font-family="Helvetica,sans-Serif" font-size="10.00">+ Level</text>
<text text-anchor="start" x="267.5" y="-529.5" font-family="Helvetica,sans-Serif" font-size="10.00">+ Health</text>
<text text-anchor="start" x="267.5" y="-518.5" font-family="Helvetica,sans-Serif" font-size="10.00">+ Attack</text>
<text text-anchor="start" x="267.5" y="-507.5" font-family="Helvetica,sans-Serif" font-size="10.00">+ Defence</text>
<text text-anchor="start" x="267.5" y="-496.5" font-family="Helvetica,sans-Serif" font-size="10.00">+ MaximumMagic</text>
<text text-anchor="start" x="267.5" y="-485.5" font-family="Helvetica,sans-Serif" font-size="10.00">+ Magic</text>
<text text-anchor="start" x="267.5" y="-474.5" font-family="Helvetica,sans-Serif" font-size="10.00">+ Luck</text>
<text text-anchor="start" x="267.5" y="-463.5" font-family="Helvetica,sans-Serif" font-size="10.00">+ Speed</text>
<text text-anchor="start" x="267.5" y="-452.5" font-family="Helvetica,sans-Serif" font-size="10.00">+ Special1</text>
<text text-anchor="start" x="267.5" y="-441.5" font-family="Helvetica,sans-Serif" font-size="10.00">+ Special2</text>
<text text-anchor="start" x="267.5" y="-430.5" font-family="Helvetica,sans-Serif" font-size="10.00">+ Image</text>
<polyline fill="none" stroke="black" points="259.5,-423.5 354.5,-423.5 "/>
<text text-anchor="start" x="267.5" y="-411.5" font-family="Helvetica,sans-Serif" font-size="10.00"># Character()</text>
</a>
</g>
</g>
<!-- Node4&#45;&gt;Node10 -->
<g id="edge12" class="edge"><title>Node4&#45;&gt;Node10</title>
<path fill="none" stroke="#404040" d="M176.446,-1599.1C142.638,-1581.22 79,-1540.11 79,-1484 79,-1484 79,-1484 79,-700.5 79,-609.349 180.569,-548.105 248.125,-517.452"/>
<polygon fill="none" stroke="#404040" points="248.503,-517.285 252.377,-511.203 259.481,-512.439 255.607,-518.521 248.503,-517.285"/>
<text text-anchor="middle" x="104.5" y="-1133" font-family="Helvetica,sans-Serif" font-size="10.00"> #image_ref</text>
<text text-anchor="middle" x="104.5" y="-1122" font-family="Helvetica,sans-Serif" font-size="10.00">#name</text>
</g>
<!-- Node12 -->
<g id="node11" class="node"><title>Node12</title>
<g id="a_node11"><a xlink:href="class_special_move.html" target="_top" xlink:title="Special move abstract base class that expands upon CharacterMove, adding magic properties ...">
<polygon fill="none" stroke="black" points="142,-656.5 142,-746.5 240,-746.5 240,-656.5 142,-656.5"/>
<text text-anchor="middle" x="191" y="-734.5" font-family="Helvetica,sans-Serif" font-size="10.00">SpecialMove</text>
<polyline fill="none" stroke="black" points="142,-727.5 240,-727.5 "/>
<text text-anchor="start" x="150" y="-715.5" font-family="Helvetica,sans-Serif" font-size="10.00">+ Magic</text>
<text text-anchor="start" x="150" y="-704.5" font-family="Helvetica,sans-Serif" font-size="10.00">+ Desc</text>
<polyline fill="none" stroke="black" points="142,-697.5 240,-697.5 "/>
<text text-anchor="start" x="150" y="-685.5" font-family="Helvetica,sans-Serif" font-size="10.00">+ setUp()</text>
<text text-anchor="start" x="150" y="-674.5" font-family="Helvetica,sans-Serif" font-size="10.00">+ decreaseMagic()</text>
<text text-anchor="start" x="150" y="-663.5" font-family="Helvetica,sans-Serif" font-size="10.00"># SpecialMove()</text>
</a>
</g>
</g>
<!-- Node4&#45;&gt;Node12 -->
<g id="edge27" class="edge"><title>Node4&#45;&gt;Node12</title>
<path fill="none" stroke="#404040" d="M183.14,-1581.47C171.931,-1556.64 158,-1518.78 158,-1484 158,-1484 158,-1484 158,-870 158,-832.418 166.096,-790.972 174.268,-758.71"/>
<polygon fill="none" stroke="#404040" points="174.342,-758.429 171.995,-751.61 177.387,-746.822 179.733,-753.64 174.342,-758.429"/>
<text text-anchor="middle" x="173" y="-1246" font-family="Helvetica,sans-Serif" font-size="10.00"> #desc</text>
</g>
<!-- Node13 -->
<g id="node12" class="node"><title>Node13</title>
<g id="a_node12"><a xlink:href="class_character_move.html" target="_top" xlink:title="Astract base class for character moves ">
<polygon fill="none" stroke="black" points="224,-831.5 224,-910.5 310,-910.5 310,-831.5 224,-831.5"/>
<text text-anchor="middle" x="267" y="-898.5" font-family="Helvetica,sans-Serif" font-size="10.00">CharacterMove</text>
<polyline fill="none" stroke="black" points="224,-891.5 310,-891.5 "/>
<text text-anchor="start" x="232" y="-879.5" font-family="Helvetica,sans-Serif" font-size="10.00">+ User</text>
<text text-anchor="start" x="232" y="-868.5" font-family="Helvetica,sans-Serif" font-size="10.00">+ Target</text>
<text text-anchor="start" x="232" y="-857.5" font-family="Helvetica,sans-Serif" font-size="10.00">+ Text</text>
<polyline fill="none" stroke="black" points="224,-850.5 310,-850.5 "/>
<text text-anchor="start" x="232" y="-838.5" font-family="Helvetica,sans-Serif" font-size="10.00">+ performMove()</text>
</a>
</g>
</g>
<!-- Node4&#45;&gt;Node13 -->
<g id="edge16" class="edge"><title>Node4&#45;&gt;Node13</title>
<path fill="none" stroke="#404040" d="M197.96,-1581.44C201.043,-1498.55 211.927,-1244.37 236,-1035 241.435,-987.731 241.216,-975.564 251,-929 251.448,-926.867 251.932,-924.697 252.442,-922.509"/>
<polygon fill="none" stroke="#404040" points="252.466,-922.412 250.039,-915.622 255.373,-910.77 257.801,-917.56 252.466,-922.412"/>
<text text-anchor="middle" x="227.5" y="-1326" font-family="Helvetica,sans-Serif" font-size="10.00"> #text</text>
</g>
<!-- Node14 -->
<g id="node13" class="node"><title>Node14</title>
<g id="a_node13"><a xlink:href="class_battle_manager.html" target="_top" xlink:title="Holds current Player and Enemy objects in battle and provides functions for MainBattle and other obje...">
<polygon fill="none" stroke="black" points="358,-1035.5 358,-1224.5 474,-1224.5 474,-1035.5 358,-1035.5"/>
<text text-anchor="middle" x="416" y="-1212.5" font-family="Helvetica,sans-Serif" font-size="10.00">BattleManager</text>
<polyline fill="none" stroke="black" points="358,-1205.5 474,-1205.5 "/>
<text text-anchor="start" x="366" y="-1193.5" font-family="Helvetica,sans-Serif" font-size="10.00">+ Player</text>
<text text-anchor="start" x="366" y="-1182.5" font-family="Helvetica,sans-Serif" font-size="10.00">+ Enemy</text>
<text text-anchor="start" x="366" y="-1171.5" font-family="Helvetica,sans-Serif" font-size="10.00">+ WasCriticalHit</text>
<polyline fill="none" stroke="black" points="358,-1164.5 474,-1164.5 "/>
<text text-anchor="start" x="366" y="-1152.5" font-family="Helvetica,sans-Serif" font-size="10.00">+ BattleManager()</text>
<text text-anchor="start" x="366" y="-1141.5" font-family="Helvetica,sans-Serif" font-size="10.00">+ playerFirst()</text>
<text text-anchor="start" x="366" y="-1130.5" font-family="Helvetica,sans-Serif" font-size="10.00">+ switchPlayers()</text>
<text text-anchor="start" x="366" y="-1119.5" font-family="Helvetica,sans-Serif" font-size="10.00">+ isCriticalHit()</text>
<text text-anchor="start" x="366" y="-1108.5" font-family="Helvetica,sans-Serif" font-size="10.00">+ ranAway()</text>
<text text-anchor="start" x="366" y="-1097.5" font-family="Helvetica,sans-Serif" font-size="10.00">+ damageCalculation()</text>
<text text-anchor="start" x="366" y="-1086.5" font-family="Helvetica,sans-Serif" font-size="10.00">+ enemyMove()</text>
<text text-anchor="start" x="366" y="-1075.5" font-family="Helvetica,sans-Serif" font-size="10.00">+ enemySpecialMove()</text>
<text text-anchor="start" x="366" y="-1064.5" font-family="Helvetica,sans-Serif" font-size="10.00">+ battleWon()</text>
<text text-anchor="start" x="366" y="-1053.5" font-family="Helvetica,sans-Serif" font-size="10.00">+ playerFainted()</text>
<text text-anchor="start" x="366" y="-1042.5" font-family="Helvetica,sans-Serif" font-size="10.00">&#45; characterFainted()</text>
</a>
</g>
</g>
<!-- Node4&#45;&gt;Node14 -->
<g id="edge19" class="edge"><title>Node4&#45;&gt;Node14</title>
<path fill="none" stroke="#404040" d="M206.075,-1581.44C207.869,-1575.41 209.62,-1569.02 211,-1563 227.073,-1492.84 209.987,-1470.11 236,-1403 263.302,-1332.57 311.029,-1261.68 350.479,-1209.93"/>
<polygon fill="none" stroke="#404040" points="350.674,-1209.68 351.166,-1202.49 357.996,-1200.17 357.504,-1207.37 350.674,-1209.68"/>
<text text-anchor="middle" x="278" y="-1417" font-family="Helvetica,sans-Serif" font-size="10.00"> +forceEnemyMove</text>
<text text-anchor="middle" x="278" y="-1406" font-family="Helvetica,sans-Serif" font-size="10.00">+forceCriticalHits</text>
</g>
<!-- Node5&#45;&gt;Node2 -->
<g id="edge3" class="edge"><title>Node5&#45;&gt;Node2</title>
<path fill="none" stroke="#404040" d="M674.714,-142.231C693.129,-124.071 715.296,-103.602 737,-87 743.116,-82.3219 749.682,-77.7099 756.356,-73.283"/>
<polygon fill="none" stroke="#404040" points="756.798,-72.9984 759.673,-66.3853 766.883,-66.4961 764.008,-73.1091 756.798,-72.9984"/>
<text text-anchor="middle" x="763" y="-95.5" font-family="Helvetica,sans-Serif" font-size="10.00"> +battleItem</text>
</g>
<!-- Node5&#45;&gt;Node5 -->
<g id="edge30" class="edge"><title>Node5&#45;&gt;Node5</title>
<path fill="none" stroke="#404040" d="M674.669,-204.439C684.93,-203.17 692.5,-198.023 692.5,-189 692.5,-183.924 690.105,-180.075 686.183,-177.453"/>
<polygon fill="none" stroke="#404040" points="686.037,-177.404 679.073,-179.272 674.669,-173.561 681.634,-171.693 686.037,-177.404"/>
<text text-anchor="middle" x="715.5" y="-186.5" font-family="Helvetica,sans-Serif" font-size="10.00"> +instance</text>
</g>
<!-- Node6 -->
<g id="node5" class="node"><title>Node6</title>
<polygon fill="none" stroke="#bfbfbf" points="589,-304 589,-361 647,-361 647,-304 589,-304"/>
<text text-anchor="middle" x="618" y="-349" font-family="Helvetica,sans-Serif" font-size="10.00">AudioClip</text>
<polyline fill="none" stroke="#bfbfbf" points="589,-342 647,-342 "/>
<text text-anchor="middle" x="618" y="-330" font-family="Helvetica,sans-Serif" font-size="10.00"> </text>
<polyline fill="none" stroke="#bfbfbf" points="589,-323 647,-323 "/>
<text text-anchor="middle" x="618" y="-311" font-family="Helvetica,sans-Serif" font-size="10.00"> </text>
</g>
<!-- Node6&#45;&gt;Node5 -->
<g id="edge5" class="edge"><title>Node6&#45;&gt;Node5</title>
<path fill="none" stroke="#404040" d="M600.605,-303.992C595.766,-293.269 592.449,-280.751 595,-269 595.471,-266.83 596.007,-264.648 596.6,-262.462"/>
<polygon fill="none" stroke="#404040" points="596.667,-262.245 594.64,-255.324 600.249,-250.792 602.276,-257.712 596.667,-262.245"/>
<text text-anchor="middle" x="628.5" y="-272" font-family="Helvetica,sans-Serif" font-size="10.00"> +previousBGM</text>
</g>
<!-- Node7&#45;&gt;Node5 -->
<g id="edge6" class="edge"><title>Node7&#45;&gt;Node5</title>
<path fill="none" stroke="#404040" d="M652.653,-1479.81C733.284,-1472.94 912,-1444.72 912,-1329.5 912,-1329.5 912,-1329.5 912,-331.5 912,-281.457 768.034,-230.558 686.197,-205.667"/>
<polygon fill="none" stroke="#404040" points="686.092,-205.635 679.195,-207.742 674.598,-202.186 681.494,-200.08 686.092,-205.635"/>
<text text-anchor="middle" x="924.5" y="-794" font-family="Helvetica,sans-Serif" font-size="10.00"> &#45;item</text>
</g>
<!-- Node16 -->
<g id="node15" class="node"><title>Node16</title>
<g id="a_node15"><a xlink:href="class_player.html" target="_top" xlink:title="Defines a playable character for use in battle scenes">
<polygon fill="none" stroke="black" points="441,-1272.5 441,-1384.5 553,-1384.5 553,-1272.5 441,-1272.5"/>
<text text-anchor="middle" x="497" y="-1372.5" font-family="Helvetica,sans-Serif" font-size="10.00">Player</text>
<polyline fill="none" stroke="black" points="441,-1365.5 553,-1365.5 "/>
<text text-anchor="start" x="449" y="-1353.5" font-family="Helvetica,sans-Serif" font-size="10.00">+ Exp</text>
<text text-anchor="start" x="449" y="-1342.5" font-family="Helvetica,sans-Serif" font-size="10.00">+ Item</text>
<text text-anchor="start" x="449" y="-1331.5" font-family="Helvetica,sans-Serif" font-size="10.00">+ ExpToNextLevel</text>
<polyline fill="none" stroke="black" points="441,-1324.5 553,-1324.5 "/>
<text text-anchor="start" x="449" y="-1312.5" font-family="Helvetica,sans-Serif" font-size="10.00">+ Player()</text>
<text text-anchor="start" x="449" y="-1301.5" font-family="Helvetica,sans-Serif" font-size="10.00">+ gainExp()</text>
<text text-anchor="start" x="449" y="-1290.5" font-family="Helvetica,sans-Serif" font-size="10.00">+ levelUp()</text>
<text text-anchor="start" x="449" y="-1279.5" font-family="Helvetica,sans-Serif" font-size="10.00">&#45; setExpToNextLevel()</text>
</a>
</g>
</g>
<!-- Node7&#45;&gt;Node16 -->
<g id="edge25" class="edge"><title>Node7&#45;&gt;Node16</title>
<path fill="none" stroke="#404040" d="M595.786,-1443.26C588.81,-1429.98 580.277,-1415.37 571,-1403 567.944,-1398.93 564.666,-1394.86 561.252,-1390.85"/>
<polygon fill="none" stroke="#404040" points="561.032,-1390.6 554.061,-1388.76 553.08,-1381.62 560.052,-1383.46 561.032,-1390.6"/>
<text text-anchor="middle" x="597.5" y="-1411.5" font-family="Helvetica,sans-Serif" font-size="10.00"> &#45;item</text>
</g>
<!-- Node8 -->
<g id="node7" class="node"><title>Node8</title>
<polygon fill="none" stroke="#bfbfbf" points="703.5,-304 703.5,-361 774.5,-361 774.5,-304 703.5,-304"/>
<text text-anchor="middle" x="739" y="-349" font-family="Helvetica,sans-Serif" font-size="10.00">GameObject</text>
<polyline fill="none" stroke="#bfbfbf" points="703.5,-342 774.5,-342 "/>
<text text-anchor="middle" x="739" y="-330" font-family="Helvetica,sans-Serif" font-size="10.00"> </text>
<polyline fill="none" stroke="#bfbfbf" points="703.5,-323 774.5,-323 "/>
<text text-anchor="middle" x="739" y="-311" font-family="Helvetica,sans-Serif" font-size="10.00"> </text>
</g>
<!-- Node8&#45;&gt;Node5 -->
<g id="edge9" class="edge"><title>Node8&#45;&gt;Node5</title>
<path fill="none" stroke="#404040" d="M717.92,-303.881C707.606,-290.368 694.7,-273.459 682.015,-256.839"/>
<polygon fill="none" stroke="#404040" points="681.873,-256.654 675.053,-254.311 674.593,-247.115 681.413,-249.457 681.873,-256.654"/>
<text text-anchor="middle" x="716" y="-272" font-family="Helvetica,sans-Serif" font-size="10.00"> +player</text>
</g>
<!-- Node9 -->
<g id="node8" class="node"><title>Node9</title>
<g id="a_node8"><a xlink:href="class_enemy.html" target="_top" xlink:title="Defines an AI controller enemy to fight in battle scenes">
<polygon fill="none" stroke="black" points="465.5,-304 465.5,-361 532.5,-361 532.5,-304 465.5,-304"/>
<text text-anchor="middle" x="499" y="-349" font-family="Helvetica,sans-Serif" font-size="10.00">Enemy</text>
<polyline fill="none" stroke="black" points="465.5,-342 532.5,-342 "/>
<text text-anchor="start" x="473.5" y="-330" font-family="Helvetica,sans-Serif" font-size="10.00">+ ExpGiven</text>
<polyline fill="none" stroke="black" points="465.5,-323 532.5,-323 "/>
<text text-anchor="start" x="473.5" y="-311" font-family="Helvetica,sans-Serif" font-size="10.00">+ Enemy()</text>
</a>
</g>
</g>
<!-- Node9&#45;&gt;Node5 -->
<g id="edge10" class="edge"><title>Node9&#45;&gt;Node5</title>
<path fill="none" stroke="#404040" d="M499.63,-303.875C501.024,-292.301 504.185,-279.197 511,-269 526.985,-245.082 552.924,-226.68 576.603,-213.679"/>
<polygon fill="none" stroke="#404040" points="576.65,-213.654 580.108,-207.327 587.279,-208.085 583.821,-214.413 576.65,-213.654"/>
<text text-anchor="middle" x="529" y="-272" font-family="Helvetica,sans-Serif" font-size="10.00"> &#45;enemy</text>
</g>
<!-- Node9&#45;&gt;Node14 -->
<g id="edge20" class="edge"><title>Node9&#45;&gt;Node14</title>
<path fill="none" stroke="#404040" d="M496.106,-361.242C485.214,-465.625 446.338,-838.227 427.036,-1023.23"/>
<polygon fill="none" stroke="#404040" points="427.011,-1023.47 430.366,-1029.85 425.765,-1035.41 422.41,-1029.02 427.011,-1023.47"/>
<text text-anchor="middle" x="485" y="-699" font-family="Helvetica,sans-Serif" font-size="10.00"> &#45;enemy</text>
</g>
<!-- Node10&#45;&gt;Node9 -->
<g id="edge11" class="edge"><title>Node10&#45;&gt;Node9</title>
<path fill="none" stroke="midnightblue" d="M362.794,-446.296C396.065,-418.743 437.199,-384.679 465.506,-361.237"/>
<polygon fill="none" stroke="midnightblue" points="360.424,-443.714 354.954,-452.788 364.889,-449.105 360.424,-443.714"/>
</g>
<!-- Node10&#45;&gt;Node13 -->
<g id="edge17" class="edge"><title>Node10&#45;&gt;Node13</title>
<path fill="none" stroke="#404040" d="M296.532,-582.79C294.319,-601.974 292.039,-622.163 290,-641 283.364,-702.315 276.369,-772.939 271.86,-819.358"/>
<polygon fill="none" stroke="#404040" points="271.842,-819.545 275.245,-825.903 270.685,-831.489 267.282,-825.131 271.842,-819.545"/>
<text text-anchor="middle" x="307" y="-704.5" font-family="Helvetica,sans-Serif" font-size="10.00"> #target</text>
<text text-anchor="middle" x="307" y="-693.5" font-family="Helvetica,sans-Serif" font-size="10.00">#user</text>
</g>
<!-- Node10&#45;&gt;Node16 -->
<g id="edge24" class="edge"><title>Node10&#45;&gt;Node16</title>
<path fill="none" stroke="midnightblue" d="M363.467,-525.436C403.393,-550.74 453.933,-590.54 478,-641 530.932,-751.979 510.906,-1129.74 501.123,-1272.37"/>
<polygon fill="none" stroke="midnightblue" points="365.207,-522.397 354.864,-520.102 361.518,-528.346 365.207,-522.397"/>
</g>
<!-- Node11 -->
<g id="node10" class="node"><title>Node11</title>
<polygon fill="none" stroke="#bfbfbf" points="476.5,-1454.5 476.5,-1511.5 505.5,-1511.5 505.5,-1454.5 476.5,-1454.5"/>
<text text-anchor="middle" x="491" y="-1499.5" font-family="Helvetica,sans-Serif" font-size="10.00">int</text>
<polyline fill="none" stroke="#bfbfbf" points="476.5,-1492.5 505.5,-1492.5 "/>
<text text-anchor="middle" x="491" y="-1480.5" font-family="Helvetica,sans-Serif" font-size="10.00"> </text>
<polyline fill="none" stroke="#bfbfbf" points="476.5,-1473.5 505.5,-1473.5 "/>
<text text-anchor="middle" x="491" y="-1461.5" font-family="Helvetica,sans-Serif" font-size="10.00"> </text>
</g>
<!-- Node11&#45;&gt;Node2 -->
<g id="edge35" class="edge"><title>Node11&#45;&gt;Node2</title>
<path fill="none" stroke="#404040" d="M505.713,-1472.92C520.476,-1464.16 544.105,-1451.07 566,-1443 676.334,-1402.33 805,-1447.09 805,-1329.5 805,-1329.5 805,-1329.5 805,-795.5 805,-726.552 801.655,-707.731 819,-641 821.202,-632.527 824.721,-631.453 827,-623 841.956,-567.532 841,-551.949 841,-494.5 841,-494.5 841,-494.5 841,-188 841,-151.653 835.62,-110.805 830.585,-80.5386"/>
<polygon fill="none" stroke="#404040" points="830.578,-80.4962 825.616,-75.2631 828.539,-68.6707 833.5,-73.9038 830.578,-80.4962"/>
<text text-anchor="middle" x="858.5" y="-754" font-family="Helvetica,sans-Serif" font-size="10.00"> +maximumMagic</text>
<text text-anchor="middle" x="858.5" y="-743" font-family="Helvetica,sans-Serif" font-size="10.00">+attack</text>
<text text-anchor="middle" x="858.5" y="-732" font-family="Helvetica,sans-Serif" font-size="10.00">+defence</text>
<text text-anchor="middle" x="858.5" y="-721" font-family="Helvetica,sans-Serif" font-size="10.00">+level</text>
<text text-anchor="middle" x="858.5" y="-710" font-family="Helvetica,sans-Serif" font-size="10.00">+special1Magic</text>
<text text-anchor="middle" x="858.5" y="-699" font-family="Helvetica,sans-Serif" font-size="10.00">+battleMoney</text>
<text text-anchor="middle" x="858.5" y="-688" font-family="Helvetica,sans-Serif" font-size="10.00">+special2Magic</text>
<text text-anchor="middle" x="858.5" y="-677" font-family="Helvetica,sans-Serif" font-size="10.00">+speed</text>
<text text-anchor="middle" x="858.5" y="-666" font-family="Helvetica,sans-Serif" font-size="10.00">+luck</text>
<text text-anchor="middle" x="858.5" y="-655" font-family="Helvetica,sans-Serif" font-size="10.00">+health</text>
<text text-anchor="middle" x="858.5" y="-644" font-family="Helvetica,sans-Serif" font-size="10.00">...</text>
</g>
<!-- Node11&#45;&gt;Node5 -->
<g id="edge31" class="edge"><title>Node11&#45;&gt;Node5</title>
<path fill="none" stroke="#404040" d="M505.682,-1473.69C520.616,-1465.4 544.551,-1452.56 566,-1443 586.812,-1433.73 594.922,-1437.46 614,-1425 656.171,-1397.47 675,-1379.86 675,-1329.5 675,-1329.5 675,-1329.5 675,-385 675,-333.122 674.471,-319.357 662,-269 661.465,-266.841 660.886,-264.663 660.269,-262.474"/>
<polygon fill="none" stroke="#404040" points="660.183,-262.195 654.595,-257.638 656.652,-250.726 662.241,-255.284 660.183,-262.195"/>
<text text-anchor="middle" x="705.5" y="-799.5" font-family="Helvetica,sans-Serif" font-size="10.00"> +currentLevel</text>
<text text-anchor="middle" x="705.5" y="-788.5" font-family="Helvetica,sans-Serif" font-size="10.00">&#45;money</text>
</g>
<!-- Node11&#45;&gt;Node9 -->
<g id="edge29" class="edge"><title>Node11&#45;&gt;Node9</title>
<path fill="none" stroke="#404040" d="M505.763,-1475.96C524.018,-1467.58 554.24,-1450.52 567,-1425 603.175,-1352.65 569.776,-1323.84 567,-1243 565.36,-1195.25 513.759,-432.431 508,-385 507.53,-381.126 506.963,-377.1 506.346,-373.083"/>
<polygon fill="none" stroke="#404040" points="506.343,-373.058 501.42,-367.788 504.391,-361.218 509.313,-366.487 506.343,-373.058"/>
<text text-anchor="middle" x="569" y="-868.5" font-family="Helvetica,sans-Serif" font-size="10.00"> &#45;expGiven</text>
</g>
<!-- Node11&#45;&gt;Node10 -->
<g id="edge13" class="edge"><title>Node11&#45;&gt;Node10</title>
<path fill="none" stroke="#404040" d="M476.464,-1475.68C456.994,-1466.66 422.216,-1448.55 399,-1425 384.445,-1410.24 382.124,-1404.47 375,-1385 314.112,-1218.59 343.294,-884.252 324,-641 322.818,-626.096 321.291,-610.369 319.637,-594.971"/>
<polygon fill="none" stroke="#404040" points="319.601,-594.641 314.969,-589.115 318.288,-582.714 322.92,-588.24 319.601,-594.641"/>
<text text-anchor="middle" x="371.5" y="-1009" font-family="Helvetica,sans-Serif" font-size="10.00"> #speed</text>
<text text-anchor="middle" x="371.5" y="-998" font-family="Helvetica,sans-Serif" font-size="10.00">#luck</text>
<text text-anchor="middle" x="371.5" y="-987" font-family="Helvetica,sans-Serif" font-size="10.00">#health</text>
<text text-anchor="middle" x="371.5" y="-976" font-family="Helvetica,sans-Serif" font-size="10.00">#magic</text>
<text text-anchor="middle" x="371.5" y="-965" font-family="Helvetica,sans-Serif" font-size="10.00">#maximumMagic</text>
<text text-anchor="middle" x="371.5" y="-954" font-family="Helvetica,sans-Serif" font-size="10.00">#attack</text>
<text text-anchor="middle" x="371.5" y="-943" font-family="Helvetica,sans-Serif" font-size="10.00">#defence</text>
<text text-anchor="middle" x="371.5" y="-932" font-family="Helvetica,sans-Serif" font-size="10.00">#level</text>
</g>
<!-- Node11&#45;&gt;Node12 -->
<g id="edge28" class="edge"><title>Node11&#45;&gt;Node12</title>
<path fill="none" stroke="#404040" d="M476.096,-1479.19C448.276,-1473.33 387.678,-1457.54 348,-1425 331.605,-1411.55 330.522,-1404.42 322,-1385 226.222,-1166.79 200.256,-879.032 193.391,-758.93"/>
<polygon fill="none" stroke="#404040" points="193.384,-758.802 189.064,-753.028 192.732,-746.819 197.052,-752.593 193.384,-758.802"/>
<text text-anchor="middle" x="283.5" y="-1127.5" font-family="Helvetica,sans-Serif" font-size="10.00"> #magic</text>
</g>
<!-- Node11&#45;&gt;Node14 -->
<g id="edge21" class="edge"><title>Node11&#45;&gt;Node14</title>
<path fill="none" stroke="#404040" d="M476.129,-1472.94C453.167,-1457.98 409.961,-1425.65 393,-1385 373.709,-1338.76 375.964,-1283.78 384.488,-1236.81"/>
<polygon fill="none" stroke="#404040" points="384.545,-1236.52 381.77,-1229.86 386.846,-1224.74 389.621,-1231.39 384.545,-1236.52"/>
<text text-anchor="middle" x="412.5" y="-1326" font-family="Helvetica,sans-Serif" font-size="10.00"> +money</text>
</g>
<!-- Node11&#45;&gt;Node16 -->
<g id="edge26" class="edge"><title>Node11&#45;&gt;Node16</title>
<path fill="none" stroke="#404040" d="M490.977,-1454.2C491.059,-1439.06 491.315,-1419.99 492,-1403 492.081,-1400.98 492.172,-1398.93 492.27,-1396.86"/>
<polygon fill="none" stroke="#404040" points="492.27,-1396.85 488.593,-1390.65 492.905,-1384.87 496.582,-1391.07 492.27,-1396.85"/>
<text text-anchor="middle" x="529.5" y="-1417" font-family="Helvetica,sans-Serif" font-size="10.00"> &#45;expToNextLevel</text>
<text text-anchor="middle" x="529.5" y="-1406" font-family="Helvetica,sans-Serif" font-size="10.00">&#45;exp</text>
</g>
<!-- Node12&#45;&gt;Node10 -->
<g id="edge14" class="edge"><title>Node12&#45;&gt;Node10</title>
<path fill="none" stroke="#404040" d="M198.118,-656.347C202.104,-638.499 208.119,-618.116 217,-601 226.14,-583.384 238.656,-566.128 251.449,-550.808"/>
<polygon fill="none" stroke="#404040" points="251.599,-550.634 252.478,-543.476 259.422,-541.534 258.544,-548.692 251.599,-550.634"/>
<text text-anchor="middle" x="239.5" y="-615" font-family="Helvetica,sans-Serif" font-size="10.00"> #special1</text>
<text text-anchor="middle" x="239.5" y="-604" font-family="Helvetica,sans-Serif" font-size="10.00">#special2</text>
</g>
<!-- Node13&#45;&gt;Node12 -->
<g id="edge15" class="edge"><title>Node13&#45;&gt;Node12</title>
<path fill="none" stroke="midnightblue" d="M245.216,-821.989C234.467,-798.299 221.588,-769.914 211.08,-746.755"/>
<polygon fill="none" stroke="midnightblue" points="242.054,-823.491 249.373,-831.151 248.428,-820.598 242.054,-823.491"/>
</g>
<!-- Node14&#45;&gt;Node13 -->
<g id="edge18" class="edge"><title>Node14&#45;&gt;Node13</title>
<path fill="none" stroke="#404040" d="M357.852,-1081.23C338.765,-1066.05 317.25,-1049.45 297,-1035 284.959,-1026.4 276.179,-1029.94 269,-1017 253.234,-988.589 252.856,-951.97 256.358,-922.641"/>
<polygon fill="none" stroke="#404040" points="256.386,-922.445 253.264,-915.945 258.063,-910.563 261.185,-917.063 256.386,-922.445"/>
<text text-anchor="middle" x="292" y="-970.5" font-family="Helvetica,sans-Serif" font-size="10.00"> #manager</text>
</g>
<!-- Node15 -->
<g id="node14" class="node"><title>Node15</title>
<polygon fill="none" stroke="#bfbfbf" points="609.5,-1300 609.5,-1357 644.5,-1357 644.5,-1300 609.5,-1300"/>
<text text-anchor="middle" x="627" y="-1345" font-family="Helvetica,sans-Serif" font-size="10.00">bool</text>
<polyline fill="none" stroke="#bfbfbf" points="609.5,-1338 644.5,-1338 "/>
<text text-anchor="middle" x="627" y="-1326" font-family="Helvetica,sans-Serif" font-size="10.00"> </text>
<polyline fill="none" stroke="#bfbfbf" points="609.5,-1319 644.5,-1319 "/>
<text text-anchor="middle" x="627" y="-1307" font-family="Helvetica,sans-Serif" font-size="10.00"> </text>
</g>
<!-- Node15&#45;&gt;Node2 -->
<g id="edge36" class="edge"><title>Node15&#45;&gt;Node2</title>
<path fill="none" stroke="#404040" d="M644.529,-1314.12C680.435,-1285.05 759,-1212.17 759,-1131 759,-1131 759,-1131 759,-700.5 759,-656.276 757.365,-645.146 760,-601 763.073,-549.529 802.389,-205.735 816.773,-80.7834"/>
<polygon fill="none" stroke="#404040" points="816.791,-80.6259 813.504,-74.2075 818.165,-68.7047 821.452,-75.1231 816.791,-80.6259"/>
<text text-anchor="middle" x="793.5" y="-609.5" font-family="Helvetica,sans-Serif" font-size="10.00"> +canRunAway</text>
</g>
<!-- Node15&#45;&gt;Node5 -->
<g id="edge32" class="edge"><title>Node15&#45;&gt;Node5</title>
<path fill="none" stroke="#404040" d="M624.999,-1299.63C616.883,-1184.7 586.543,-736.326 580,-367 579.457,-336.338 574.471,-328.164 580,-298 582.485,-284.441 585.434,-281.611 591,-269 592.084,-266.543 593.207,-264.054 594.357,-261.548"/>
<polygon fill="none" stroke="#404040" points="594.445,-261.362 593.377,-254.23 599.55,-250.502 600.617,-257.634 594.445,-261.362"/>
<text text-anchor="middle" x="627.5" y="-699" font-family="Helvetica,sans-Serif" font-size="10.00"> +canRunAway</text>
</g>
<!-- Node15&#45;&gt;Node14 -->
<g id="edge22" class="edge"><title>Node15&#45;&gt;Node14</title>
<path fill="none" stroke="#404040" d="M609.445,-1311.11C596.723,-1299.59 578.864,-1284.13 562,-1272 549.377,-1262.92 544.115,-1263.75 532,-1254 514.923,-1240.26 497.939,-1224.07 482.447,-1208.03"/>
<polygon fill="none" stroke="#404040" points="482.272,-1207.85 475.238,-1206.25 474.002,-1199.15 481.036,-1200.74 482.272,-1207.85"/>
<text text-anchor="middle" x="565" y="-1246" font-family="Helvetica,sans-Serif" font-size="10.00"> &#45;wasCriticalHit</text>
</g>
<!-- Node16&#45;&gt;Node14 -->
<g id="edge23" class="edge"><title>Node16&#45;&gt;Node14</title>
<path fill="none" stroke="#404040" d="M440.945,-1284.54C432.51,-1275.41 424.98,-1265.13 420,-1254 417.502,-1248.41 415.512,-1242.54 413.949,-1236.51"/>
<polygon fill="none" stroke="#404040" points="413.946,-1236.49 408.784,-1231.46 411.447,-1224.76 416.609,-1229.79 413.946,-1236.49"/>
<text text-anchor="middle" x="436.5" y="-1246" font-family="Helvetica,sans-Serif" font-size="10.00"> &#45;player</text>
</g>
<!-- Node17 -->
<g id="node16" class="node"><title>Node17</title>
<polygon fill="none" stroke="#bfbfbf" points="349,-298.5 349,-366.5 447,-366.5 447,-298.5 349,-298.5"/>
<text text-anchor="start" x="357" y="-354.5" font-family="Helvetica,sans-Serif" font-size="10.00">IDictionary&lt; string,</text>
<text text-anchor="middle" x="398" y="-343.5" font-family="Helvetica,sans-Serif" font-size="10.00"> bool &gt;</text>
<polyline fill="none" stroke="#bfbfbf" points="349,-336.5 447,-336.5 "/>
<text text-anchor="middle" x="398" y="-324.5" font-family="Helvetica,sans-Serif" font-size="10.00"> </text>
<polyline fill="none" stroke="#bfbfbf" points="349,-317.5 447,-317.5 "/>
<text text-anchor="middle" x="398" y="-305.5" font-family="Helvetica,sans-Serif" font-size="10.00"> </text>
</g>
<!-- Node17&#45;&gt;Node5 -->
<g id="edge33" class="edge"><title>Node17&#45;&gt;Node5</title>
<path fill="none" stroke="#404040" d="M412.352,-298.343C418.163,-287.873 425.722,-276.97 435,-269 475.487,-234.221 533.256,-213.458 575.589,-202.012"/>
<polygon fill="none" stroke="#404040" points="575.751,-201.97 580.556,-196.593 587.367,-198.959 582.563,-204.337 575.751,-201.97"/>
<text text-anchor="middle" x="468.5" y="-272" font-family="Helvetica,sans-Serif" font-size="10.00"> +objectsActive</text>
</g>
<!-- Node18 -->
<g id="node17" class="node"><title>Node18</title>
<polygon fill="none" stroke="#bfbfbf" points="869.5,-160.5 869.5,-217.5 904.5,-217.5 904.5,-160.5 869.5,-160.5"/>
<text text-anchor="middle" x="887" y="-205.5" font-family="Helvetica,sans-Serif" font-size="10.00">float</text>
<polyline fill="none" stroke="#bfbfbf" points="869.5,-198.5 904.5,-198.5 "/>
<text text-anchor="middle" x="887" y="-186.5" font-family="Helvetica,sans-Serif" font-size="10.00"> </text>
<polyline fill="none" stroke="#bfbfbf" points="869.5,-179.5 904.5,-179.5 "/>
<text text-anchor="middle" x="887" y="-167.5" font-family="Helvetica,sans-Serif" font-size="10.00"> </text>
</g>
<!-- Node18&#45;&gt;Node2 -->
<g id="edge34" class="edge"><title>Node18&#45;&gt;Node2</title>
<path fill="none" stroke="#404040" d="M879.036,-160.432C872.698,-139.805 863.075,-111.116 852,-87 850.816,-84.4215 849.541,-81.8045 848.209,-79.1868"/>
<polygon fill="none" stroke="#404040" points="848.16,-79.0959 841.801,-75.6966 842.492,-68.5188 848.852,-71.9181 848.16,-79.0959"/>
<text text-anchor="middle" x="897" y="-101" font-family="Helvetica,sans-Serif" font-size="10.00"> +special2Value</text>
<text text-anchor="middle" x="897" y="-90" font-family="Helvetica,sans-Serif" font-size="10.00">+special1Value</text>
</g>
<!-- Node19 -->
<g id="node18" class="node"><title>Node19</title>
<polygon fill="none" stroke="#bfbfbf" points="929.5,-160.5 929.5,-217.5 1004.5,-217.5 1004.5,-160.5 929.5,-160.5"/>
<text text-anchor="middle" x="967" y="-205.5" font-family="Helvetica,sans-Serif" font-size="10.00">EnemyMoves</text>
<polyline fill="none" stroke="#bfbfbf" points="929.5,-198.5 1004.5,-198.5 "/>
<text text-anchor="middle" x="967" y="-186.5" font-family="Helvetica,sans-Serif" font-size="10.00"> </text>
<polyline fill="none" stroke="#bfbfbf" points="929.5,-179.5 1004.5,-179.5 "/>
<text text-anchor="middle" x="967" y="-167.5" font-family="Helvetica,sans-Serif" font-size="10.00"> </text>
</g>
<!-- Node19&#45;&gt;Node2 -->
<g id="edge37" class="edge"><title>Node19&#45;&gt;Node2</title>
<path fill="none" stroke="#404040" d="M964.684,-160.116C961.501,-137.945 953.944,-107.37 936,-87 923.4,-72.6959 906.039,-62.1464 888.662,-54.4584"/>
<polygon fill="none" stroke="#404040" points="888.399,-54.3506 881.331,-55.7821 877.291,-49.8088 884.359,-48.3772 888.399,-54.3506"/>
<text text-anchor="middle" x="973" y="-101" font-family="Helvetica,sans-Serif" font-size="10.00"> +special1</text>
<text text-anchor="middle" x="973" y="-90" font-family="Helvetica,sans-Serif" font-size="10.00">+special2</text>
</g>
<!-- Node20 -->
<g id="node19" class="node"><title>Node20</title>
<polygon fill="none" stroke="#bfbfbf" points="1022.5,-160.5 1022.5,-217.5 1083.5,-217.5 1083.5,-160.5 1022.5,-160.5"/>
<text text-anchor="middle" x="1053" y="-205.5" font-family="Helvetica,sans-Serif" font-size="10.00">Texture2D</text>
<polyline fill="none" stroke="#bfbfbf" points="1022.5,-198.5 1083.5,-198.5 "/>
<text text-anchor="middle" x="1053" y="-186.5" font-family="Helvetica,sans-Serif" font-size="10.00"> </text>
<polyline fill="none" stroke="#bfbfbf" points="1022.5,-179.5 1083.5,-179.5 "/>
<text text-anchor="middle" x="1053" y="-167.5" font-family="Helvetica,sans-Serif" font-size="10.00"> </text>
</g>
<!-- Node20&#45;&gt;Node2 -->
<g id="edge38" class="edge"><title>Node20&#45;&gt;Node2</title>
<path fill="none" stroke="#404040" d="M1045.1,-160.052C1037.25,-137.23 1023.01,-105.783 1000,-87 968.653,-61.4123 925.139,-48.5363 888.982,-42.0576"/>
<polygon fill="none" stroke="#404040" points="888.872,-42.0396 882.303,-45.0154 877.03,-40.0967 883.598,-37.1209 888.872,-42.0396"/>
<text text-anchor="middle" x="1036" y="-95.5" font-family="Helvetica,sans-Serif" font-size="10.00"> +sprite</text>
</g>
</g>
</svg>
