<?xml version="1.0" encoding="UTF-8" standalone="no"?>
<!DOCTYPE svg PUBLIC "-//W3C//DTD SVG 1.1//EN"
 "http://www.w3.org/Graphics/SVG/1.1/DTD/svg11.dtd">
<!-- Generated by graphviz version 2.38.0 (20140413.2041)
 -->
<!-- Title: LevelManager Pages: 1 -->
<svg width="964pt" height="1087pt"
 viewBox="0.00 0.00 964.00 1087.00" xmlns="http://www.w3.org/2000/svg" xmlns:xlink="http://www.w3.org/1999/xlink">
<g id="graph0" class="graph" transform="scale(1 1) rotate(0) translate(4 1083)">
<title>LevelManager</title>
<!-- Node2 -->
<g id="node1" class="node"><title>Node2</title>
<polygon fill="#bfbfbf" stroke="black" points="110.5,-316 110.5,-384 201.5,-384 201.5,-316 110.5,-316"/>
<text text-anchor="middle" x="156" y="-372" font-family="Helvetica,sans-Serif" font-size="10.00">LevelManager</text>
<polyline fill="none" stroke="black" points="110.5,-365 201.5,-365 "/>
<text text-anchor="middle" x="156" y="-353" font-family="Helvetica,sans-Serif" font-size="10.00"> </text>
<polyline fill="none" stroke="black" points="110.5,-346 201.5,-346 "/>
<text text-anchor="start" x="118.5" y="-334" font-family="Helvetica,sans-Serif" font-size="10.00">&#45; Start()</text>
<text text-anchor="start" x="118.5" y="-323" font-family="Helvetica,sans-Serif" font-size="10.00">&#45; WaitThenLoad()</text>
</g>
<!-- Node3 -->
<g id="node2" class="node"><title>Node3</title>
<g id="a_node2"><a xlink:href="class_mono_behaviour.html" target="_top" xlink:title="{MonoBehaviour\n||}">
<polygon fill="none" stroke="black" points="28.5,-531 28.5,-588 111.5,-588 111.5,-531 28.5,-531"/>
<text text-anchor="middle" x="70" y="-576" font-family="Helvetica,sans-Serif" font-size="10.00">MonoBehaviour</text>
<polyline fill="none" stroke="black" points="28.5,-569 111.5,-569 "/>
<text text-anchor="middle" x="70" y="-557" font-family="Helvetica,sans-Serif" font-size="10.00"> </text>
<polyline fill="none" stroke="black" points="28.5,-550 111.5,-550 "/>
<text text-anchor="middle" x="70" y="-538" font-family="Helvetica,sans-Serif" font-size="10.00"> </text>
</a>
</g>
</g>
<!-- Node3&#45;&gt;Node2 -->
<g id="edge1" class="edge"><title>Node3&#45;&gt;Node2</title>
<path fill="none" stroke="midnightblue" d="M85.3223,-521.531C101.484,-482.535 126.718,-421.651 142.257,-384.159"/>
<polygon fill="none" stroke="midnightblue" points="82.0157,-520.368 81.4201,-530.946 88.4823,-523.048 82.0157,-520.368"/>
</g>
<!-- Node4 -->
<g id="node3" class="node"><title>Node4</title>
<polygon fill="none" stroke="#bfbfbf" points="316.5,-1021.5 316.5,-1078.5 357.5,-1078.5 357.5,-1021.5 316.5,-1021.5"/>
<text text-anchor="middle" x="337" y="-1066.5" font-family="Helvetica,sans-Serif" font-size="10.00">string</text>
<polyline fill="none" stroke="#bfbfbf" points="316.5,-1059.5 357.5,-1059.5 "/>
<text text-anchor="middle" x="337" y="-1047.5" font-family="Helvetica,sans-Serif" font-size="10.00"> </text>
<polyline fill="none" stroke="#bfbfbf" points="316.5,-1040.5 357.5,-1040.5 "/>
<text text-anchor="middle" x="337" y="-1028.5" font-family="Helvetica,sans-Serif" font-size="10.00"> </text>
</g>
<!-- Node4&#45;&gt;Node2 -->
<g id="edge2" class="edge"><title>Node4&#45;&gt;Node2</title>
<path fill="none" stroke="#404040" d="M316.216,-1022.53C311.856,-1016.32 307.518,-1009.59 304,-1003 217.493,-840.97 192.769,-796.546 159,-616 144.786,-540.008 147.939,-449.607 151.784,-396.451"/>
<polygon fill="none" stroke="#404040" points="151.79,-396.375 148.264,-390.085 152.714,-384.411 156.24,-390.701 151.79,-396.375"/>
<text text-anchor="middle" x="208" y="-648" font-family="Helvetica,sans-Serif" font-size="10.00"> &#45;bossObjectName</text>
<text text-anchor="middle" x="208" y="-637" font-family="Helvetica,sans-Serif" font-size="10.00">&#45;playerDesc</text>
</g>
<!-- Node7 -->
<g id="node6" class="node"><title>Node7</title>
<g id="a_node6"><a xlink:href="class_character.html" target="_top" xlink:title="Base abstract class for Enemy and Player to inherit from. Defines all shared variables, their constructor and their setters and getters ">
<polygon fill="none" stroke="black" points="749.5,-674.5 749.5,-885.5 844.5,-885.5 844.5,-674.5 749.5,-674.5"/>
<text text-anchor="middle" x="797" y="-873.5" font-family="Helvetica,sans-Serif" font-size="10.00">Character</text>
<polyline fill="none" stroke="black" points="749.5,-866.5 844.5,-866.5 "/>
<text text-anchor="start" x="757.5" y="-854.5" font-family="Helvetica,sans-Serif" font-size="10.00">+ Name</text>
<text text-anchor="start" x="757.5" y="-843.5" font-family="Helvetica,sans-Serif" font-size="10.00">+ Level</text>
<text text-anchor="start" x="757.5" y="-832.5" font-family="Helvetica,sans-Serif" font-size="10.00">+ Health</text>
<text text-anchor="start" x="757.5" y="-821.5" font-family="Helvetica,sans-Serif" font-size="10.00">+ Attack</text>
<text text-anchor="start" x="757.5" y="-810.5" font-family="Helvetica,sans-Serif" font-size="10.00">+ Defence</text>
<text text-anchor="start" x="757.5" y="-799.5" font-family="Helvetica,sans-Serif" font-size="10.00">+ MaximumMagic</text>
<text text-anchor="start" x="757.5" y="-788.5" font-family="Helvetica,sans-Serif" font-size="10.00">+ Magic</text>
<text text-anchor="start" x="757.5" y="-777.5" font-family="Helvetica,sans-Serif" font-size="10.00">+ Luck</text>
<text text-anchor="start" x="757.5" y="-766.5" font-family="Helvetica,sans-Serif" font-size="10.00">+ Speed</text>
<text text-anchor="start" x="757.5" y="-755.5" font-family="Helvetica,sans-Serif" font-size="10.00">+ Rage</text>
<text text-anchor="start" x="757.5" y="-744.5" font-family="Helvetica,sans-Serif" font-size="10.00">+ CanRage</text>
<text text-anchor="start" x="757.5" y="-733.5" font-family="Helvetica,sans-Serif" font-size="10.00">+ Special1</text>
<text text-anchor="start" x="757.5" y="-722.5" font-family="Helvetica,sans-Serif" font-size="10.00">+ Special2</text>
<text text-anchor="start" x="757.5" y="-711.5" font-family="Helvetica,sans-Serif" font-size="10.00">+ Image</text>
<polyline fill="none" stroke="black" points="749.5,-704.5 844.5,-704.5 "/>
<text text-anchor="start" x="757.5" y="-692.5" font-family="Helvetica,sans-Serif" font-size="10.00">+ IsEnraged()</text>
<text text-anchor="start" x="757.5" y="-681.5" font-family="Helvetica,sans-Serif" font-size="10.00"># Character()</text>
</a>
</g>
</g>
<!-- Node4&#45;&gt;Node7 -->
<g id="edge6" class="edge"><title>Node4&#45;&gt;Node7</title>
<path fill="none" stroke="#404040" d="M357.722,-1047.24C393.773,-1043.48 469.575,-1032.47 526,-1003 584.889,-972.244 578.284,-933.117 638,-904 677.412,-884.783 699.072,-911.135 735,-886 736.729,-884.79 738.418,-883.516 740.066,-882.183"/>
<polygon fill="none" stroke="#404040" points="740.21,-882.052 741.944,-875.053 749.073,-873.962 747.338,-880.961 740.21,-882.052"/>
<text text-anchor="middle" x="654.5" y="-951" font-family="Helvetica,sans-Serif" font-size="10.00"> #name</text>
</g>
<!-- Node10 -->
<g id="node9" class="node"><title>Node10</title>
<g id="a_node9"><a xlink:href="class_special_move.html" target="_top" xlink:title="Special move abstract base class that expands upon CharacterMove, adding magic properties ...">
<polygon fill="none" stroke="black" points="356,-0.5 356,-90.5 454,-90.5 454,-0.5 356,-0.5"/>
<text text-anchor="middle" x="405" y="-78.5" font-family="Helvetica,sans-Serif" font-size="10.00">SpecialMove</text>
<polyline fill="none" stroke="black" points="356,-71.5 454,-71.5 "/>
<text text-anchor="start" x="364" y="-59.5" font-family="Helvetica,sans-Serif" font-size="10.00">+ Magic</text>
<text text-anchor="start" x="364" y="-48.5" font-family="Helvetica,sans-Serif" font-size="10.00">+ Desc</text>
<polyline fill="none" stroke="black" points="356,-41.5 454,-41.5 "/>
<text text-anchor="start" x="364" y="-29.5" font-family="Helvetica,sans-Serif" font-size="10.00">+ setUp()</text>
<text text-anchor="start" x="364" y="-18.5" font-family="Helvetica,sans-Serif" font-size="10.00">+ decreaseMagic()</text>
<text text-anchor="start" x="364" y="-7.5" font-family="Helvetica,sans-Serif" font-size="10.00"># SpecialMove()</text>
</a>
</g>
</g>
<!-- Node4&#45;&gt;Node10 -->
<g id="edge21" class="edge"><title>Node4&#45;&gt;Node10</title>
<path fill="none" stroke="#404040" d="M316.426,-1043.67C243.259,-1023.35 0,-943.586 0,-781 0,-781 0,-781 0,-167 0,-96.2036 230.226,-63.6635 343.515,-51.9369"/>
<polygon fill="none" stroke="#404040" points="343.804,-51.9078 349.373,-47.3266 355.744,-50.705 350.175,-55.2863 343.804,-51.9078"/>
<text text-anchor="middle" x="15" y="-471.5" font-family="Helvetica,sans-Serif" font-size="10.00"> #desc</text>
</g>
<!-- Node11 -->
<g id="node10" class="node"><title>Node11</title>
<g id="a_node10"><a xlink:href="class_character_move.html" target="_top" xlink:title="Astract base class for character moves ">
<polygon fill="none" stroke="black" points="443,-128.5 443,-207.5 529,-207.5 529,-128.5 443,-128.5"/>
<text text-anchor="middle" x="486" y="-195.5" font-family="Helvetica,sans-Serif" font-size="10.00">CharacterMove</text>
<polyline fill="none" stroke="black" points="443,-188.5 529,-188.5 "/>
<text text-anchor="start" x="451" y="-176.5" font-family="Helvetica,sans-Serif" font-size="10.00">+ User</text>
<text text-anchor="start" x="451" y="-165.5" font-family="Helvetica,sans-Serif" font-size="10.00">+ Target</text>
<text text-anchor="start" x="451" y="-154.5" font-family="Helvetica,sans-Serif" font-size="10.00">+ Text</text>
<polyline fill="none" stroke="black" points="443,-147.5 529,-147.5 "/>
<text text-anchor="start" x="451" y="-135.5" font-family="Helvetica,sans-Serif" font-size="10.00">+ performMove()</text>
</a>
</g>
</g>
<!-- Node4&#45;&gt;Node11 -->
<g id="edge11" class="edge"><title>Node4&#45;&gt;Node11</title>
<path fill="none" stroke="#404040" d="M336.678,-1021.46C336.457,-992.285 336.439,-944.878 338,-904 341.911,-801.605 338.445,-775.282 354,-674 365.864,-596.752 363.728,-574.625 395,-503 398.847,-494.188 403.11,-493.793 407,-485 446.41,-395.912 468.553,-283.633 478.822,-219.713"/>
<polygon fill="none" stroke="#404040" points="478.863,-219.451 475.839,-212.905 480.719,-207.595 483.743,-214.142 478.863,-219.451"/>
<text text-anchor="middle" x="407.5" y="-557" font-family="Helvetica,sans-Serif" font-size="10.00"> #text</text>
</g>
<!-- Node12 -->
<g id="node11" class="node"><title>Node12</title>
<g id="a_node11"><a xlink:href="class_battle_manager.html" target="_top" xlink:title="Holds current Player and Enemy objects in battle and provides functions for MainBattle and other obje...">
<polygon fill="none" stroke="black" points="542,-255.5 542,-444.5 658,-444.5 658,-255.5 542,-255.5"/>
<text text-anchor="middle" x="600" y="-432.5" font-family="Helvetica,sans-Serif" font-size="10.00">BattleManager</text>
<polyline fill="none" stroke="black" points="542,-425.5 658,-425.5 "/>
<text text-anchor="start" x="550" y="-413.5" font-family="Helvetica,sans-Serif" font-size="10.00">+ Player</text>
<text text-anchor="start" x="550" y="-402.5" font-family="Helvetica,sans-Serif" font-size="10.00">+ Enemy</text>
<text text-anchor="start" x="550" y="-391.5" font-family="Helvetica,sans-Serif" font-size="10.00">+ WasCriticalHit</text>
<polyline fill="none" stroke="black" points="542,-384.5 658,-384.5 "/>
<text text-anchor="start" x="550" y="-372.5" font-family="Helvetica,sans-Serif" font-size="10.00">+ BattleManager()</text>
<text text-anchor="start" x="550" y="-361.5" font-family="Helvetica,sans-Serif" font-size="10.00">+ playerFirst()</text>
<text text-anchor="start" x="550" y="-350.5" font-family="Helvetica,sans-Serif" font-size="10.00">+ switchPlayers()</text>
<text text-anchor="start" x="550" y="-339.5" font-family="Helvetica,sans-Serif" font-size="10.00">+ isCriticalHit()</text>
<text text-anchor="start" x="550" y="-328.5" font-family="Helvetica,sans-Serif" font-size="10.00">+ ranAway()</text>
<text text-anchor="start" x="550" y="-317.5" font-family="Helvetica,sans-Serif" font-size="10.00">+ damageCalculation()</text>
<text text-anchor="start" x="550" y="-306.5" font-family="Helvetica,sans-Serif" font-size="10.00">+ enemyMove()</text>
<text text-anchor="start" x="550" y="-295.5" font-family="Helvetica,sans-Serif" font-size="10.00">+ enemySpecialMove()</text>
<text text-anchor="start" x="550" y="-284.5" font-family="Helvetica,sans-Serif" font-size="10.00">+ battleWon()</text>
<text text-anchor="start" x="550" y="-273.5" font-family="Helvetica,sans-Serif" font-size="10.00">+ playerFainted()</text>
<text text-anchor="start" x="550" y="-262.5" font-family="Helvetica,sans-Serif" font-size="10.00">&#45; characterFainted()</text>
</a>
</g>
</g>
<!-- Node4&#45;&gt;Node12 -->
<g id="edge14" class="edge"><title>Node4&#45;&gt;Node12</title>
<path fill="none" stroke="#404040" d="M339.632,-1021.11C346.617,-953.267 368.508,-774.837 417,-634 438.29,-572.167 449.135,-558.326 484,-503 499.176,-478.918 517.201,-453.915 534.462,-431.309"/>
<polygon fill="none" stroke="#404040" points="534.481,-431.285 534.973,-424.091 541.803,-421.778 541.311,-428.972 534.481,-431.285"/>
<text text-anchor="middle" x="459" y="-648" font-family="Helvetica,sans-Serif" font-size="10.00"> +forceEnemyMove</text>
<text text-anchor="middle" x="459" y="-637" font-family="Helvetica,sans-Serif" font-size="10.00">+forceCriticalHits</text>
</g>
<!-- Node15 -->
<g id="node14" class="node"><title>Node15</title>
<g id="a_node14"><a xlink:href="class_item.html" target="_top" xlink:title="Abstract class for items that can be equipped to a player, increasing some of their stats ...">
<polygon fill="none" stroke="black" points="422.5,-735 422.5,-825 499.5,-825 499.5,-735 422.5,-735"/>
<text text-anchor="middle" x="461" y="-813" font-family="Helvetica,sans-Serif" font-size="10.00">Item</text>
<polyline fill="none" stroke="black" points="422.5,-806 499.5,-806 "/>
<text text-anchor="start" x="430.5" y="-794" font-family="Helvetica,sans-Serif" font-size="10.00">+ Name</text>
<text text-anchor="start" x="430.5" y="-783" font-family="Helvetica,sans-Serif" font-size="10.00">+ Desc</text>
<text text-anchor="start" x="430.5" y="-772" font-family="Helvetica,sans-Serif" font-size="10.00">+ Cost</text>
<polyline fill="none" stroke="black" points="422.5,-765 499.5,-765 "/>
<text text-anchor="start" x="430.5" y="-753" font-family="Helvetica,sans-Serif" font-size="10.00">+ applyBuffs()</text>
<text text-anchor="start" x="430.5" y="-742" font-family="Helvetica,sans-Serif" font-size="10.00">+ revertBuffs()</text>
</a>
</g>
</g>
<!-- Node4&#45;&gt;Node15 -->
<g id="edge25" class="edge"><title>Node4&#45;&gt;Node15</title>
<path fill="none" stroke="#404040" d="M357.635,-1022.45C362.003,-1016.24 366.382,-1009.53 370,-1003 399.976,-948.86 425.808,-882.791 442.21,-836.872"/>
<polygon fill="none" stroke="#404040" points="442.279,-836.675 440.505,-829.686 446.275,-825.36 448.049,-832.35 442.279,-836.675"/>
<text text-anchor="middle" x="430" y="-956.5" font-family="Helvetica,sans-Serif" font-size="10.00"> #desc</text>
<text text-anchor="middle" x="430" y="-945.5" font-family="Helvetica,sans-Serif" font-size="10.00">#name</text>
</g>
<!-- Node5 -->
<g id="node4" class="node"><title>Node5</title>
<polygon fill="none" stroke="#bfbfbf" points="168,-531 168,-588 218,-588 218,-531 168,-531"/>
<text text-anchor="middle" x="193" y="-576" font-family="Helvetica,sans-Serif" font-size="10.00">Vector2</text>
<polyline fill="none" stroke="#bfbfbf" points="168,-569 218,-569 "/>
<text text-anchor="middle" x="193" y="-557" font-family="Helvetica,sans-Serif" font-size="10.00"> </text>
<polyline fill="none" stroke="#bfbfbf" points="168,-550 218,-550 "/>
<text text-anchor="middle" x="193" y="-538" font-family="Helvetica,sans-Serif" font-size="10.00"> </text>
</g>
<!-- Node5&#45;&gt;Node2 -->
<g id="edge3" class="edge"><title>Node5&#45;&gt;Node2</title>
<path fill="none" stroke="#404040" d="M184.993,-530.758C181.257,-517.071 176.987,-500.263 174,-485 168.267,-455.701 163.787,-422.439 160.731,-396.384"/>
<polygon fill="none" stroke="#404040" points="160.704,-396.144 156.05,-390.635 159.346,-384.221 163.999,-389.73 160.704,-396.144"/>
<text text-anchor="middle" x="224" y="-471.5" font-family="Helvetica,sans-Serif" font-size="10.00"> &#45;worldMapExitPosition</text>
</g>
<!-- Node6 -->
<g id="node5" class="node"><title>Node6</title>
<g id="a_node5"><a xlink:href="class_player.html" target="_top" xlink:title="Defines a playable character for use in battle scenes">
<polygon fill="none" stroke="black" points="493,-503.5 493,-615.5 605,-615.5 605,-503.5 493,-503.5"/>
<text text-anchor="middle" x="549" y="-603.5" font-family="Helvetica,sans-Serif" font-size="10.00">Player</text>
<polyline fill="none" stroke="black" points="493,-596.5 605,-596.5 "/>
<text text-anchor="start" x="501" y="-584.5" font-family="Helvetica,sans-Serif" font-size="10.00">+ Exp</text>
<text text-anchor="start" x="501" y="-573.5" font-family="Helvetica,sans-Serif" font-size="10.00">+ Item</text>
<text text-anchor="start" x="501" y="-562.5" font-family="Helvetica,sans-Serif" font-size="10.00">+ ExpToNextLevel</text>
<polyline fill="none" stroke="black" points="493,-555.5 605,-555.5 "/>
<text text-anchor="start" x="501" y="-543.5" font-family="Helvetica,sans-Serif" font-size="10.00">+ Player()</text>
<text text-anchor="start" x="501" y="-532.5" font-family="Helvetica,sans-Serif" font-size="10.00">+ gainExp()</text>
<text text-anchor="start" x="501" y="-521.5" font-family="Helvetica,sans-Serif" font-size="10.00">+ levelUp()</text>
<text text-anchor="start" x="501" y="-510.5" font-family="Helvetica,sans-Serif" font-size="10.00">&#45; setExpToNextLevel()</text>
</a>
</g>
</g>
<!-- Node6&#45;&gt;Node2 -->
<g id="edge4" class="edge"><title>Node6&#45;&gt;Node2</title>
<path fill="none" stroke="#404040" d="M492.985,-543.678C424.1,-525.217 314.145,-494.896 297,-485 284.749,-477.929 284.241,-472.758 274,-463 249.468,-439.625 222.014,-413.561 199.764,-392.463"/>
<polygon fill="none" stroke="#404040" points="199.594,-392.301 192.488,-391.075 190.886,-384.045 197.992,-385.27 199.594,-392.301"/>
<text text-anchor="middle" x="323" y="-471.5" font-family="Helvetica,sans-Serif" font-size="10.00"> &#45;newPlayer</text>
</g>
<!-- Node6&#45;&gt;Node12 -->
<g id="edge20" class="edge"><title>Node6&#45;&gt;Node12</title>
<path fill="none" stroke="#404040" d="M562.533,-503.439C566.095,-488.946 570.06,-472.815 574.04,-456.623"/>
<polygon fill="none" stroke="#404040" points="574.07,-456.498 571.618,-449.716 576.935,-444.845 579.387,-451.626 574.07,-456.498"/>
<text text-anchor="middle" x="588.5" y="-471.5" font-family="Helvetica,sans-Serif" font-size="10.00"> &#45;player</text>
</g>
<!-- Node7&#45;&gt;Node6 -->
<g id="edge5" class="edge"><title>Node7&#45;&gt;Node6</title>
<path fill="none" stroke="midnightblue" d="M743,-683.12C740.403,-679.963 737.735,-676.911 735,-674 715.12,-652.84 652.208,-616.248 605.016,-590.339"/>
<polygon fill="none" stroke="midnightblue" points="740.381,-685.452 749.306,-691.162 745.89,-681.133 740.381,-685.452"/>
</g>
<!-- Node7&#45;&gt;Node11 -->
<g id="edge12" class="edge"><title>Node7&#45;&gt;Node11</title>
<path fill="none" stroke="#404040" d="M797.395,-674.256C792.393,-558.787 767.596,-373.699 667,-255 634.551,-216.712 581.197,-194.267 540.802,-181.967"/>
<polygon fill="none" stroke="#404040" points="540.776,-181.959 533.899,-184.129 529.251,-178.616 536.128,-176.446 540.776,-181.959"/>
<text text-anchor="middle" x="788" y="-477" font-family="Helvetica,sans-Serif" font-size="10.00"> #target</text>
<text text-anchor="middle" x="788" y="-466" font-family="Helvetica,sans-Serif" font-size="10.00">#user</text>
</g>
<!-- Node13 -->
<g id="node12" class="node"><title>Node13</title>
<g id="a_node12"><a xlink:href="class_enemy.html" target="_top" xlink:title="Defines an AI controller enemy to fight in battle scenes">
<polygon fill="none" stroke="black" points="661.5,-531 661.5,-588 728.5,-588 728.5,-531 661.5,-531"/>
<text text-anchor="middle" x="695" y="-576" font-family="Helvetica,sans-Serif" font-size="10.00">Enemy</text>
<polyline fill="none" stroke="black" points="661.5,-569 728.5,-569 "/>
<text text-anchor="start" x="669.5" y="-557" font-family="Helvetica,sans-Serif" font-size="10.00">+ ExpGiven</text>
<polyline fill="none" stroke="black" points="661.5,-550 728.5,-550 "/>
<text text-anchor="start" x="669.5" y="-538" font-family="Helvetica,sans-Serif" font-size="10.00">+ Enemy()</text>
</a>
</g>
</g>
<!-- Node7&#45;&gt;Node13 -->
<g id="edge16" class="edge"><title>Node7&#45;&gt;Node13</title>
<path fill="none" stroke="midnightblue" d="M748.523,-665.112C743.723,-654.545 738.836,-644.041 734,-634 726.603,-618.643 717.739,-601.827 710.332,-588.16"/>
<polygon fill="none" stroke="midnightblue" points="745.413,-666.728 752.716,-674.404 751.793,-663.85 745.413,-666.728"/>
</g>
<!-- Node8 -->
<g id="node7" class="node"><title>Node8</title>
<polygon fill="none" stroke="#bfbfbf" points="572.5,-1021.5 572.5,-1078.5 601.5,-1078.5 601.5,-1021.5 572.5,-1021.5"/>
<text text-anchor="middle" x="587" y="-1066.5" font-family="Helvetica,sans-Serif" font-size="10.00">int</text>
<polyline fill="none" stroke="#bfbfbf" points="572.5,-1059.5 601.5,-1059.5 "/>
<text text-anchor="middle" x="587" y="-1047.5" font-family="Helvetica,sans-Serif" font-size="10.00"> </text>
<polyline fill="none" stroke="#bfbfbf" points="572.5,-1040.5 601.5,-1040.5 "/>
<text text-anchor="middle" x="587" y="-1028.5" font-family="Helvetica,sans-Serif" font-size="10.00"> </text>
</g>
<!-- Node8&#45;&gt;Node6 -->
<g id="edge27" class="edge"><title>Node8&#45;&gt;Node6</title>
<path fill="none" stroke="#404040" d="M572.161,-1035.67C563.913,-1027.23 554.441,-1015.56 550,-1003 526.292,-935.941 536.358,-734.383 543.742,-627.98"/>
<polygon fill="none" stroke="#404040" points="543.757,-627.773 540.191,-621.505 544.605,-615.803 548.171,-622.071 543.757,-627.773"/>
<text text-anchor="middle" x="578.5" y="-783" font-family="Helvetica,sans-Serif" font-size="10.00"> &#45;expToNextLevel</text>
<text text-anchor="middle" x="578.5" y="-772" font-family="Helvetica,sans-Serif" font-size="10.00">&#45;exp</text>
</g>
<!-- Node8&#45;&gt;Node7 -->
<g id="edge7" class="edge"><title>Node8&#45;&gt;Node7</title>
<path fill="none" stroke="#404040" d="M601.739,-1044.78C620.992,-1038.58 654.638,-1025.26 675,-1003 707.143,-967.86 689.01,-943.238 716,-904 722.592,-894.416 727.75,-895.097 735,-886 737.474,-882.896 739.918,-879.683 742.323,-876.395"/>
<polygon fill="none" stroke="#404040" points="742.502,-876.142 742.689,-868.933 749.415,-866.333 749.228,-873.542 742.502,-876.142"/>
<text text-anchor="middle" x="753.5" y="-995" font-family="Helvetica,sans-Serif" font-size="10.00"> #speed</text>
<text text-anchor="middle" x="753.5" y="-984" font-family="Helvetica,sans-Serif" font-size="10.00">#luck</text>
<text text-anchor="middle" x="753.5" y="-973" font-family="Helvetica,sans-Serif" font-size="10.00">#health</text>
<text text-anchor="middle" x="753.5" y="-962" font-family="Helvetica,sans-Serif" font-size="10.00">#magic</text>
<text text-anchor="middle" x="753.5" y="-951" font-family="Helvetica,sans-Serif" font-size="10.00">#maximumMagic</text>
<text text-anchor="middle" x="753.5" y="-940" font-family="Helvetica,sans-Serif" font-size="10.00">#attack</text>
<text text-anchor="middle" x="753.5" y="-929" font-family="Helvetica,sans-Serif" font-size="10.00">#defence</text>
<text text-anchor="middle" x="753.5" y="-918" font-family="Helvetica,sans-Serif" font-size="10.00">#level</text>
<text text-anchor="middle" x="753.5" y="-907" font-family="Helvetica,sans-Serif" font-size="10.00">#rage</text>
</g>
<!-- Node8&#45;&gt;Node10 -->
<g id="edge22" class="edge"><title>Node8&#45;&gt;Node10</title>
<path fill="none" stroke="#404040" d="M572.473,-1047.41C533.739,-1042.86 429.48,-1028.43 408,-1003 344.33,-927.613 371,-659.176 371,-560.5 371,-560.5 371,-560.5 371,-167 371,-145.286 376.177,-122.17 382.491,-102.053"/>
<polygon fill="none" stroke="#404040" points="382.517,-101.973 380.618,-95.0163 386.309,-90.5876 388.208,-97.5441 382.517,-101.973"/>
<text text-anchor="middle" x="388.5" y="-471.5" font-family="Helvetica,sans-Serif" font-size="10.00"> #magic</text>
</g>
<!-- Node8&#45;&gt;Node12 -->
<g id="edge18" class="edge"><title>Node8&#45;&gt;Node12</title>
<path fill="none" stroke="#404040" d="M601.853,-1036.13C610.414,-1027.69 620.373,-1015.87 625,-1003 639.89,-961.596 625.478,-947.997 625,-904 623.062,-725.721 625.307,-680.93 614,-503 613.052,-488.079 611.842,-472.352 610.531,-456.9"/>
<polygon fill="none" stroke="#404040" points="610.5,-456.541 605.996,-450.91 609.461,-444.586 613.966,-450.218 610.5,-456.541"/>
<text text-anchor="middle" x="641.5" y="-642.5" font-family="Helvetica,sans-Serif" font-size="10.00"> +money</text>
</g>
<!-- Node8&#45;&gt;Node13 -->
<g id="edge17" class="edge"><title>Node8&#45;&gt;Node13</title>
<path fill="none" stroke="#404040" d="M601.554,-1042.78C616.48,-1035.56 639.018,-1022.15 650,-1003 689.071,-934.877 694.463,-695.663 695.03,-600.238"/>
<polygon fill="none" stroke="#404040" points="695.031,-600.021 691.055,-594.005 695.08,-588.021 699.055,-594.038 695.031,-600.021"/>
<text text-anchor="middle" x="716" y="-777.5" font-family="Helvetica,sans-Serif" font-size="10.00"> &#45;expGiven</text>
</g>
<!-- Node8&#45;&gt;Node15 -->
<g id="edge26" class="edge"><title>Node8&#45;&gt;Node15</title>
<path fill="none" stroke="#404040" d="M572.324,-1046.17C551.312,-1041.3 513.089,-1029.21 494,-1003 459.073,-955.048 454.018,-885.613 455.657,-837.208"/>
<polygon fill="none" stroke="#404040" points="455.664,-837.06 451.947,-830.881 456.222,-825.073 459.938,-831.253 455.664,-837.06"/>
<text text-anchor="middle" x="508" y="-951" font-family="Helvetica,sans-Serif" font-size="10.00"> #cost</text>
</g>
<!-- Node9 -->
<g id="node8" class="node"><title>Node9</title>
<polygon fill="none" stroke="#bfbfbf" points="870.5,-1021.5 870.5,-1078.5 905.5,-1078.5 905.5,-1021.5 870.5,-1021.5"/>
<text text-anchor="middle" x="888" y="-1066.5" font-family="Helvetica,sans-Serif" font-size="10.00">bool</text>
<polyline fill="none" stroke="#bfbfbf" points="870.5,-1059.5 905.5,-1059.5 "/>
<text text-anchor="middle" x="888" y="-1047.5" font-family="Helvetica,sans-Serif" font-size="10.00"> </text>
<polyline fill="none" stroke="#bfbfbf" points="870.5,-1040.5 905.5,-1040.5 "/>
<text text-anchor="middle" x="888" y="-1028.5" font-family="Helvetica,sans-Serif" font-size="10.00"> </text>
</g>
<!-- Node9&#45;&gt;Node7 -->
<g id="edge8" class="edge"><title>Node9&#45;&gt;Node7</title>
<path fill="none" stroke="#404040" d="M870.5,-1029.07C864.504,-1021.37 858.245,-1012.2 854,-1003 835.071,-961.985 842.131,-947.779 831,-904 830.451,-901.839 829.892,-899.659 829.326,-897.463"/>
<polygon fill="none" stroke="#404040" points="829.26,-897.212 823.875,-892.416 826.231,-885.601 831.616,-890.397 829.26,-897.212"/>
<text text-anchor="middle" x="877.5" y="-951" font-family="Helvetica,sans-Serif" font-size="10.00"> #canRage</text>
</g>
<!-- Node9&#45;&gt;Node12 -->
<g id="edge19" class="edge"><title>Node9&#45;&gt;Node12</title>
<path fill="none" stroke="#404040" d="M897.222,-1021.04C898.793,-1015.15 900.18,-1008.92 901,-1003 907.04,-959.417 905.427,-947.777 901,-904 890.502,-800.195 894.516,-770.147 854,-674 810.896,-571.711 726.355,-474.441 666.673,-413.877"/>
<polygon fill="none" stroke="#404040" points="666.517,-413.72 659.45,-412.286 658.055,-405.211 665.122,-406.645 666.517,-413.72"/>
<text text-anchor="middle" x="878" y="-642.5" font-family="Helvetica,sans-Serif" font-size="10.00"> &#45;wasCriticalHit</text>
</g>
<!-- Node10&#45;&gt;Node7 -->
<g id="edge9" class="edge"><title>Node10&#45;&gt;Node7</title>
<path fill="none" stroke="#404040" d="M454.439,-47.8155C581.761,-52.5372 911,-73.7613 911,-167 911,-560.5 911,-560.5 911,-560.5 911,-603.398 914.26,-616.728 897,-656 886.293,-680.36 869.41,-703.865 852.542,-723.686"/>
<polygon fill="none" stroke="#404040" points="852.456,-723.784 851.515,-730.933 844.554,-732.814 845.495,-725.665 852.456,-723.784"/>
<text text-anchor="middle" x="933.5" y="-353" font-family="Helvetica,sans-Serif" font-size="10.00"> #special1</text>
<text text-anchor="middle" x="933.5" y="-342" font-family="Helvetica,sans-Serif" font-size="10.00">#special2</text>
</g>
<!-- Node11&#45;&gt;Node10 -->
<g id="edge10" class="edge"><title>Node11&#45;&gt;Node10</title>
<path fill="none" stroke="midnightblue" d="M454.339,-119.899C447.869,-110.274 441.083,-100.179 434.685,-90.6615"/>
<polygon fill="none" stroke="midnightblue" points="451.442,-121.863 459.925,-128.21 457.251,-117.958 451.442,-121.863"/>
</g>
<!-- Node12&#45;&gt;Node11 -->
<g id="edge13" class="edge"><title>Node12&#45;&gt;Node11</title>
<path fill="none" stroke="#404040" d="M541.998,-257.418C533.405,-243.849 524.841,-230.328 517.09,-218.09"/>
<polygon fill="none" stroke="#404040" points="516.928,-217.834 510.338,-214.905 510.507,-207.696 517.097,-210.624 516.928,-217.834"/>
<text text-anchor="middle" x="550" y="-229" font-family="Helvetica,sans-Serif" font-size="10.00"> #manager</text>
</g>
<!-- Node13&#45;&gt;Node12 -->
<g id="edge15" class="edge"><title>Node13&#45;&gt;Node12</title>
<path fill="none" stroke="#404040" d="M682.385,-530.946C673.384,-511.286 660.659,-483.492 647.896,-455.615"/>
<polygon fill="none" stroke="#404040" points="647.815,-455.439 641.681,-451.648 642.82,-444.528 648.955,-448.318 647.815,-455.439"/>
<text text-anchor="middle" x="677" y="-471.5" font-family="Helvetica,sans-Serif" font-size="10.00"> &#45;enemy</text>
</g>
<!-- Node14 -->
<g id="node13" class="node"><title>Node14</title>
<polygon fill="none" stroke="#bfbfbf" points="764.5,-1021.5 764.5,-1078.5 825.5,-1078.5 825.5,-1021.5 764.5,-1021.5"/>
<text text-anchor="middle" x="795" y="-1066.5" font-family="Helvetica,sans-Serif" font-size="10.00">Texture2D</text>
<polyline fill="none" stroke="#bfbfbf" points="764.5,-1059.5 825.5,-1059.5 "/>
<text text-anchor="middle" x="795" y="-1047.5" font-family="Helvetica,sans-Serif" font-size="10.00"> </text>
<polyline fill="none" stroke="#bfbfbf" points="764.5,-1040.5 825.5,-1040.5 "/>
<text text-anchor="middle" x="795" y="-1028.5" font-family="Helvetica,sans-Serif" font-size="10.00"> </text>
</g>
<!-- Node14&#45;&gt;Node7 -->
<g id="edge23" class="edge"><title>Node14&#45;&gt;Node7</title>
<path fill="none" stroke="#404040" d="M795.18,-1021.47C795.373,-992.306 795.693,-944.907 796,-904 796.015,-901.945 796.031,-899.87 796.047,-897.78"/>
<polygon fill="none" stroke="#404040" points="796.048,-897.679 792.094,-891.648 796.14,-885.679 800.094,-891.71 796.048,-897.679"/>
<text text-anchor="middle" x="813.5" y="-951" font-family="Helvetica,sans-Serif" font-size="10.00"> #image</text>
</g>
<!-- Node15&#45;&gt;Node6 -->
<g id="edge24" class="edge"><title>Node15&#45;&gt;Node6</title>
<path fill="none" stroke="#404040" d="M474.851,-734.98C484.385,-705.945 497.843,-667.272 512,-634 513.045,-631.543 514.135,-629.054 515.257,-626.549"/>
<polygon fill="none" stroke="#404040" points="515.317,-626.42 514.201,-619.296 520.349,-615.526 521.464,-622.651 515.317,-626.42"/>
<text text-anchor="middle" x="524.5" y="-642.5" font-family="Helvetica,sans-Serif" font-size="10.00"> &#45;item</text>
</g>
</g>
</svg>
