<?xml version="1.0" encoding="UTF-8" standalone="no"?>
<!DOCTYPE svg PUBLIC "-//W3C//DTD SVG 1.1//EN"
 "http://www.w3.org/Graphics/SVG/1.1/DTD/svg11.dtd">
<!-- Generated by graphviz version 2.38.0 (20140413.2041)
 -->
<!-- Title: QuestObjectives.DefeatSpecific Pages: 1 -->
<svg width="381pt" height="475pt"
 viewBox="0.00 0.00 380.50 475.00" xmlns="http://www.w3.org/2000/svg" xmlns:xlink="http://www.w3.org/1999/xlink">
<g id="graph0" class="graph" transform="scale(1 1) rotate(0) translate(4 471)">
<title>QuestObjectives.DefeatSpecific</title>
<!-- Node3 -->
<g id="node1" class="node"><title>Node3</title>
<polygon fill="#bfbfbf" stroke="black" points="219.5,-0.5 219.5,-112.5 372.5,-112.5 372.5,-0.5 219.5,-0.5"/>
<text text-anchor="middle" x="296" y="-100.5" font-family="Helvetica,sans-Serif" font-size="10.00">QuestObjectives.DefeatSpecific</text>
<polyline fill="none" stroke="black" points="219.5,-93.5 372.5,-93.5 "/>
<text text-anchor="middle" x="296" y="-81.5" font-family="Helvetica,sans-Serif" font-size="10.00"> </text>
<polyline fill="none" stroke="black" points="219.5,-74.5 372.5,-74.5 "/>
<text text-anchor="start" x="227.5" y="-62.5" font-family="Helvetica,sans-Serif" font-size="10.00">+ DefeatSpecific()</text>
<text text-anchor="start" x="227.5" y="-51.5" font-family="Helvetica,sans-Serif" font-size="10.00">+ GetObjectData()</text>
<text text-anchor="start" x="227.5" y="-40.5" font-family="Helvetica,sans-Serif" font-size="10.00"># subscribeHandlers()</text>
<text text-anchor="start" x="227.5" y="-29.5" font-family="Helvetica,sans-Serif" font-size="10.00"># unsubscribeHandlers()</text>
<text text-anchor="start" x="227.5" y="-18.5" font-family="Helvetica,sans-Serif" font-size="10.00"># DefeatSpecific()</text>
<text text-anchor="start" x="227.5" y="-7.5" font-family="Helvetica,sans-Serif" font-size="10.00">&#45; OnBattleWon()</text>
</g>
<!-- Node4 -->
<g id="node2" class="node"><title>Node4</title>
<g id="a_node2"><a xlink:href="class_quest_objective.html" target="_top" xlink:title="Base quest objective class to be extended by actual quest objectives ">
<polygon fill="none" stroke="black" points="159.5,-150.5 159.5,-350.5 284.5,-350.5 284.5,-150.5 159.5,-150.5"/>
<text text-anchor="middle" x="222" y="-338.5" font-family="Helvetica,sans-Serif" font-size="10.00">QuestObjective</text>
<polyline fill="none" stroke="black" points="159.5,-331.5 284.5,-331.5 "/>
<text text-anchor="start" x="167.5" y="-319.5" font-family="Helvetica,sans-Serif" font-size="10.00">+ State</text>
<polyline fill="none" stroke="black" points="159.5,-312.5 284.5,-312.5 "/>
<text text-anchor="start" x="167.5" y="-300.5" font-family="Helvetica,sans-Serif" font-size="10.00">+ ObjectiveCallback()</text>
<text text-anchor="start" x="167.5" y="-289.5" font-family="Helvetica,sans-Serif" font-size="10.00">+ isComplete()</text>
<text text-anchor="start" x="167.5" y="-278.5" font-family="Helvetica,sans-Serif" font-size="10.00">+ isFailed()</text>
<text text-anchor="start" x="167.5" y="-267.5" font-family="Helvetica,sans-Serif" font-size="10.00">+ inProgress()</text>
<text text-anchor="start" x="167.5" y="-256.5" font-family="Helvetica,sans-Serif" font-size="10.00">+ GetObjectData()</text>
<text text-anchor="start" x="167.5" y="-245.5" font-family="Helvetica,sans-Serif" font-size="10.00"># QuestObjective()</text>
<text text-anchor="start" x="167.5" y="-234.5" font-family="Helvetica,sans-Serif" font-size="10.00"># setComplete()</text>
<text text-anchor="start" x="167.5" y="-223.5" font-family="Helvetica,sans-Serif" font-size="10.00"># setFailed()</text>
<text text-anchor="start" x="167.5" y="-212.5" font-family="Helvetica,sans-Serif" font-size="10.00"># subscribeHandlers()</text>
<text text-anchor="start" x="167.5" y="-201.5" font-family="Helvetica,sans-Serif" font-size="10.00"># unsubscribeHandlers()</text>
<text text-anchor="start" x="167.5" y="-190.5" font-family="Helvetica,sans-Serif" font-size="10.00"># QuestObjective()</text>
<text text-anchor="start" x="167.5" y="-179.5" font-family="Helvetica,sans-Serif" font-size="10.00"># dispose()</text>
<text text-anchor="start" x="167.5" y="-168.5" font-family="Helvetica,sans-Serif" font-size="10.00">&#45; setState()</text>
<text text-anchor="start" x="167.5" y="-157.5" font-family="Helvetica,sans-Serif" font-size="10.00">&#45; OnExitedToMainMenu()</text>
</a>
</g>
</g>
<!-- Node4&#45;&gt;Node3 -->
<g id="edge1" class="edge"><title>Node4&#45;&gt;Node3</title>
<path fill="none" stroke="midnightblue" d="M263.828,-140.974C267.604,-131.177 271.311,-121.557 274.79,-112.533"/>
<polygon fill="none" stroke="midnightblue" points="260.523,-139.817 260.192,-150.407 267.054,-142.334 260.523,-139.817"/>
</g>
<!-- Node5 -->
<g id="node3" class="node"><title>Node5</title>
<polygon fill="none" stroke="#bfbfbf" points="0,-398.5 0,-466.5 152,-466.5 152,-398.5 0,-398.5"/>
<text text-anchor="start" x="8" y="-454.5" font-family="Helvetica,sans-Serif" font-size="10.00">System::Runtime::Serialization</text>
<text text-anchor="middle" x="76" y="-443.5" font-family="Helvetica,sans-Serif" font-size="10.00">::ISerializable</text>
<polyline fill="none" stroke="#bfbfbf" points="0,-436.5 152,-436.5 "/>
<text text-anchor="middle" x="76" y="-424.5" font-family="Helvetica,sans-Serif" font-size="10.00"> </text>
<polyline fill="none" stroke="#bfbfbf" points="0,-417.5 152,-417.5 "/>
<text text-anchor="middle" x="76" y="-405.5" font-family="Helvetica,sans-Serif" font-size="10.00"> </text>
</g>
<!-- Node5&#45;&gt;Node4 -->
<g id="edge2" class="edge"><title>Node5&#45;&gt;Node4</title>
<path fill="none" stroke="midnightblue" d="M109.358,-390.374C124.187,-372.091 142.149,-349.946 159.332,-328.762"/>
<polygon fill="none" stroke="midnightblue" points="106.36,-388.514 102.779,-398.485 111.796,-392.924 106.36,-388.514"/>
</g>
<!-- Node6 -->
<g id="node4" class="node"><title>Node6</title>
<polygon fill="none" stroke="#bfbfbf" points="290.5,-404 290.5,-461 331.5,-461 331.5,-404 290.5,-404"/>
<text text-anchor="middle" x="311" y="-449" font-family="Helvetica,sans-Serif" font-size="10.00">string</text>
<polyline fill="none" stroke="#bfbfbf" points="290.5,-442 331.5,-442 "/>
<text text-anchor="middle" x="311" y="-430" font-family="Helvetica,sans-Serif" font-size="10.00"> </text>
<polyline fill="none" stroke="#bfbfbf" points="290.5,-423 331.5,-423 "/>
<text text-anchor="middle" x="311" y="-411" font-family="Helvetica,sans-Serif" font-size="10.00"> </text>
</g>
<!-- Node6&#45;&gt;Node3 -->
<g id="edge5" class="edge"><title>Node6&#45;&gt;Node3</title>
<path fill="none" stroke="#404040" d="M316.106,-403.795C317.302,-396.116 318.401,-387.758 319,-380 319.376,-375.126 319.18,-373.886 319,-369 315.891,-284.666 308.062,-187.751 302.401,-124.717"/>
<polygon fill="none" stroke="#404040" points="302.384,-124.527 297.858,-118.912 301.3,-112.576 305.825,-118.19 302.384,-124.527"/>
<text text-anchor="middle" x="337.5" y="-253.5" font-family="Helvetica,sans-Serif" font-size="10.00"> &#45;name</text>
<text text-anchor="middle" x="337.5" y="-242.5" font-family="Helvetica,sans-Serif" font-size="10.00">&#45;location</text>
</g>
<!-- Node6&#45;&gt;Node4 -->
<g id="edge3" class="edge"><title>Node6&#45;&gt;Node4</title>
<path fill="none" stroke="#404040" d="M290.065,-413.685C280.363,-404.479 269.376,-392.556 262,-380 258.634,-374.271 255.523,-368.229 252.651,-362.015"/>
<polygon fill="none" stroke="#404040" points="252.507,-361.683 246.451,-357.768 247.736,-350.673 253.792,-354.587 252.507,-361.683"/>
<text text-anchor="middle" x="290.5" y="-372" font-family="Helvetica,sans-Serif" font-size="10.00"> +description</text>
</g>
<!-- Node7 -->
<g id="node5" class="node"><title>Node7</title>
<polygon fill="none" stroke="#bfbfbf" points="170,-404 170,-461 250,-461 250,-404 170,-404"/>
<text text-anchor="middle" x="210" y="-449" font-family="Helvetica,sans-Serif" font-size="10.00">ObjectiveState</text>
<polyline fill="none" stroke="#bfbfbf" points="170,-442 250,-442 "/>
<text text-anchor="middle" x="210" y="-430" font-family="Helvetica,sans-Serif" font-size="10.00"> </text>
<polyline fill="none" stroke="#bfbfbf" points="170,-423 250,-423 "/>
<text text-anchor="middle" x="210" y="-411" font-family="Helvetica,sans-Serif" font-size="10.00"> </text>
</g>
<!-- Node7&#45;&gt;Node4 -->
<g id="edge4" class="edge"><title>Node7&#45;&gt;Node4</title>
<path fill="none" stroke="#404040" d="M209.983,-403.793C210.097,-392.936 210.377,-380.378 211,-369 211.114,-366.925 211.235,-364.831 211.365,-362.721"/>
<polygon fill="none" stroke="#404040" points="211.381,-362.479 207.789,-356.226 212.18,-350.506 215.772,-356.759 211.381,-362.479"/>
<text text-anchor="middle" x="225" y="-372" font-family="Helvetica,sans-Serif" font-size="10.00"> &#45;state</text>
</g>
</g>
</svg>
