<?xml version="1.0" encoding="UTF-8" standalone="no"?>
<!DOCTYPE svg PUBLIC "-//W3C//DTD SVG 1.1//EN"
 "http://www.w3.org/Graphics/SVG/1.1/DTD/svg11.dtd">
<!-- Generated by graphviz version 2.38.0 (20140413.2041)
 -->
<!-- Title: ShopMenu Pages: 1 -->
<svg width="1065pt" height="1309pt"
 viewBox="0.00 0.00 1064.50 1309.00" xmlns="http://www.w3.org/2000/svg" xmlns:xlink="http://www.w3.org/1999/xlink">
<g id="graph0" class="graph" transform="scale(1 1) rotate(0) translate(4 1305)">
<title>ShopMenu</title>
<!-- Node2 -->
<g id="node1" class="node"><title>Node2</title>
<polygon fill="#bfbfbf" stroke="black" points="141,-460.5 141,-572.5 284,-572.5 284,-460.5 141,-460.5"/>
<text text-anchor="middle" x="212.5" y="-560.5" font-family="Helvetica,sans-Serif" font-size="10.00">ShopMenu</text>
<polyline fill="none" stroke="black" points="141,-553.5 284,-553.5 "/>
<text text-anchor="middle" x="212.5" y="-541.5" font-family="Helvetica,sans-Serif" font-size="10.00"> </text>
<polyline fill="none" stroke="black" points="141,-534.5 284,-534.5 "/>
<text text-anchor="start" x="149" y="-522.5" font-family="Helvetica,sans-Serif" font-size="10.00">+ buttonPressed()</text>
<text text-anchor="start" x="149" y="-511.5" font-family="Helvetica,sans-Serif" font-size="10.00">+ back()</text>
<text text-anchor="start" x="149" y="-500.5" font-family="Helvetica,sans-Serif" font-size="10.00">&#45; Start()</text>
<text text-anchor="start" x="149" y="-489.5" font-family="Helvetica,sans-Serif" font-size="10.00">&#45; updateShopContainers()</text>
<text text-anchor="start" x="149" y="-478.5" font-family="Helvetica,sans-Serif" font-size="10.00">&#45; updateInventoryContainers()</text>
<text text-anchor="start" x="149" y="-467.5" font-family="Helvetica,sans-Serif" font-size="10.00">&#45; setMoneyText()</text>
</g>
<!-- Node3 -->
<g id="node2" class="node"><title>Node3</title>
<g id="a_node2"><a xlink:href="class_mono_behaviour.html" target="_top" xlink:title="{MonoBehaviour\n||}">
<polygon fill="none" stroke="black" points="53,-763.5 53,-820.5 136,-820.5 136,-763.5 53,-763.5"/>
<text text-anchor="middle" x="94.5" y="-808.5" font-family="Helvetica,sans-Serif" font-size="10.00">MonoBehaviour</text>
<polyline fill="none" stroke="black" points="53,-801.5 136,-801.5 "/>
<text text-anchor="middle" x="94.5" y="-789.5" font-family="Helvetica,sans-Serif" font-size="10.00"> </text>
<polyline fill="none" stroke="black" points="53,-782.5 136,-782.5 "/>
<text text-anchor="middle" x="94.5" y="-770.5" font-family="Helvetica,sans-Serif" font-size="10.00"> </text>
</a>
</g>
</g>
<!-- Node3&#45;&gt;Node2 -->
<g id="edge1" class="edge"><title>Node3&#45;&gt;Node2</title>
<path fill="none" stroke="midnightblue" d="M102.648,-753.476C112.478,-712.193 131.165,-644.591 158.5,-591 161.594,-584.935 165.172,-578.833 168.984,-572.879"/>
<polygon fill="none" stroke="midnightblue" points="99.2007,-752.847 100.339,-763.381 106.018,-754.436 99.2007,-752.847"/>
</g>
<!-- Node4 -->
<g id="node3" class="node"><title>Node4</title>
<polygon fill="none" stroke="#bfbfbf" points="281,-763.5 281,-820.5 352,-820.5 352,-763.5 281,-763.5"/>
<text text-anchor="middle" x="316.5" y="-808.5" font-family="Helvetica,sans-Serif" font-size="10.00">GameObject</text>
<polyline fill="none" stroke="#bfbfbf" points="281,-801.5 352,-801.5 "/>
<text text-anchor="middle" x="316.5" y="-789.5" font-family="Helvetica,sans-Serif" font-size="10.00"> </text>
<polyline fill="none" stroke="#bfbfbf" points="281,-782.5 352,-782.5 "/>
<text text-anchor="middle" x="316.5" y="-770.5" font-family="Helvetica,sans-Serif" font-size="10.00"> </text>
</g>
<!-- Node4&#45;&gt;Node2 -->
<g id="edge2" class="edge"><title>Node4&#45;&gt;Node2</title>
<path fill="none" stroke="#404040" d="M309.056,-763.396C302.957,-740.734 294.121,-707.801 286.5,-679 276.159,-639.92 280.393,-627.726 263.5,-591 262.366,-588.535 261.15,-586.064 259.867,-583.6"/>
<polygon fill="none" stroke="#404040" points="259.726,-583.349 253.307,-580.064 253.87,-572.875 260.29,-576.16 259.726,-583.349"/>
<text text-anchor="middle" x="341.5" y="-643.5" font-family="Helvetica,sans-Serif" font-size="10.00"> &#45;inventoryItemContainers</text>
<text text-anchor="middle" x="341.5" y="-632.5" font-family="Helvetica,sans-Serif" font-size="10.00">&#45;player</text>
<text text-anchor="middle" x="341.5" y="-621.5" font-family="Helvetica,sans-Serif" font-size="10.00">&#45;shopItemContainers</text>
</g>
<!-- Node5 -->
<g id="node4" class="node"><title>Node5</title>
<g id="a_node4"><a xlink:href="class_shop_item.html" target="_top" xlink:title="A wrapper class for shop items, containing the item and the appropriate cost for each item ...">
<polygon fill="none" stroke="black" points="177,-962 177,-1019 250,-1019 250,-962 177,-962"/>
<text text-anchor="middle" x="213.5" y="-1007" font-family="Helvetica,sans-Serif" font-size="10.00">ShopItem</text>
<polyline fill="none" stroke="black" points="177,-1000 250,-1000 "/>
<text text-anchor="middle" x="213.5" y="-988" font-family="Helvetica,sans-Serif" font-size="10.00"> </text>
<polyline fill="none" stroke="black" points="177,-981 250,-981 "/>
<text text-anchor="start" x="185" y="-969" font-family="Helvetica,sans-Serif" font-size="10.00">+ ShopItem()</text>
</a>
</g>
</g>
<!-- Node5&#45;&gt;Node2 -->
<g id="edge3" class="edge"><title>Node5&#45;&gt;Node2</title>
<path fill="none" stroke="#404040" d="M204.067,-961.609C197.685,-941.213 189.832,-912.732 186.5,-887 172.887,-781.883 187.582,-658.953 199.775,-584.722"/>
<polygon fill="none" stroke="#404040" points="199.792,-584.623 196.843,-578.042 201.783,-572.789 204.732,-579.37 199.792,-584.623"/>
<text text-anchor="middle" x="212.5" y="-789.5" font-family="Helvetica,sans-Serif" font-size="10.00"> &#45;shopItems</text>
</g>
<!-- Node6 -->
<g id="node5" class="node"><title>Node6</title>
<g id="a_node5"><a xlink:href="class_item.html" target="_top" xlink:title="Abstract class for items that can be equipped to a player, increasing some of their stats ...">
<polygon fill="none" stroke="black" points="286,-1105.5 286,-1184.5 363,-1184.5 363,-1105.5 286,-1105.5"/>
<text text-anchor="middle" x="324.5" y="-1172.5" font-family="Helvetica,sans-Serif" font-size="10.00">Item</text>
<polyline fill="none" stroke="black" points="286,-1165.5 363,-1165.5 "/>
<text text-anchor="start" x="294" y="-1153.5" font-family="Helvetica,sans-Serif" font-size="10.00">+ Name</text>
<text text-anchor="start" x="294" y="-1142.5" font-family="Helvetica,sans-Serif" font-size="10.00">+ Desc</text>
<polyline fill="none" stroke="black" points="286,-1135.5 363,-1135.5 "/>
<text text-anchor="start" x="294" y="-1123.5" font-family="Helvetica,sans-Serif" font-size="10.00">+ applyBuffs()</text>
<text text-anchor="start" x="294" y="-1112.5" font-family="Helvetica,sans-Serif" font-size="10.00">+ revertBuffs()</text>
</a>
</g>
</g>
<!-- Node6&#45;&gt;Node5 -->
<g id="edge4" class="edge"><title>Node6&#45;&gt;Node5</title>
<path fill="none" stroke="#404040" d="M285.985,-1130.84C265.334,-1121.77 241.354,-1107.58 227.5,-1087 216.627,-1070.85 212.74,-1049.69 211.737,-1031.39"/>
<polygon fill="none" stroke="#404040" points="211.734,-1031.27 207.595,-1025.37 211.453,-1019.28 215.592,-1025.18 211.734,-1031.27"/>
<text text-anchor="middle" x="241.5" y="-1073.5" font-family="Helvetica,sans-Serif" font-size="10.00"> +item</text>
</g>
<!-- Node10 -->
<g id="node9" class="node"><title>Node10</title>
<g id="a_node9"><a xlink:href="class_data_manager.html" target="_top" xlink:title="An object to store all player data including players, items and money and provide useful functions ...">
<polygon fill="none" stroke="black" points="370.5,-719.5 370.5,-864.5 462.5,-864.5 462.5,-719.5 370.5,-719.5"/>
<text text-anchor="middle" x="416.5" y="-852.5" font-family="Helvetica,sans-Serif" font-size="10.00">DataManager</text>
<polyline fill="none" stroke="black" points="370.5,-845.5 462.5,-845.5 "/>
<text text-anchor="start" x="378.5" y="-833.5" font-family="Helvetica,sans-Serif" font-size="10.00">+ Players</text>
<text text-anchor="start" x="378.5" y="-822.5" font-family="Helvetica,sans-Serif" font-size="10.00">+ Items</text>
<text text-anchor="start" x="378.5" y="-811.5" font-family="Helvetica,sans-Serif" font-size="10.00">+ Money</text>
<polyline fill="none" stroke="black" points="370.5,-804.5 462.5,-804.5 "/>
<text text-anchor="start" x="378.5" y="-792.5" font-family="Helvetica,sans-Serif" font-size="10.00">+ DataManager()</text>
<text text-anchor="start" x="378.5" y="-781.5" font-family="Helvetica,sans-Serif" font-size="10.00">+ getFirstPlayer()</text>
<text text-anchor="start" x="378.5" y="-770.5" font-family="Helvetica,sans-Serif" font-size="10.00">+ playersAlive()</text>
<text text-anchor="start" x="378.5" y="-759.5" font-family="Helvetica,sans-Serif" font-size="10.00">+ addPlayer()</text>
<text text-anchor="start" x="378.5" y="-748.5" font-family="Helvetica,sans-Serif" font-size="10.00">+ swapPlayers()</text>
<text text-anchor="start" x="378.5" y="-737.5" font-family="Helvetica,sans-Serif" font-size="10.00">+ addItem()</text>
<text text-anchor="start" x="378.5" y="-726.5" font-family="Helvetica,sans-Serif" font-size="10.00">+ countItems()</text>
</a>
</g>
</g>
<!-- Node6&#45;&gt;Node10 -->
<g id="edge10" class="edge"><title>Node6&#45;&gt;Node10</title>
<path fill="none" stroke="#404040" d="M291.975,-1105.24C288.511,-1099.42 285.519,-1093.27 283.5,-1087 280.501,-1077.69 281.296,-1074.53 283.5,-1065 292.354,-1026.74 336.188,-940.466 371.148,-875.271"/>
<polygon fill="none" stroke="#404040" points="371.209,-875.157 370.531,-867.978 376.897,-864.591 377.575,-871.77 371.209,-875.157"/>
<text text-anchor="middle" x="355" y="-988" font-family="Helvetica,sans-Serif" font-size="10.00"> &#45;items</text>
</g>
<!-- Node11 -->
<g id="node10" class="node"><title>Node11</title>
<g id="a_node10"><a xlink:href="class_player.html" target="_top" xlink:title="Defines a playable character for use in battle scenes">
<polygon fill="none" stroke="black" points="496.5,-934.5 496.5,-1046.5 608.5,-1046.5 608.5,-934.5 496.5,-934.5"/>
<text text-anchor="middle" x="552.5" y="-1034.5" font-family="Helvetica,sans-Serif" font-size="10.00">Player</text>
<polyline fill="none" stroke="black" points="496.5,-1027.5 608.5,-1027.5 "/>
<text text-anchor="start" x="504.5" y="-1015.5" font-family="Helvetica,sans-Serif" font-size="10.00">+ Exp</text>
<text text-anchor="start" x="504.5" y="-1004.5" font-family="Helvetica,sans-Serif" font-size="10.00">+ Item</text>
<text text-anchor="start" x="504.5" y="-993.5" font-family="Helvetica,sans-Serif" font-size="10.00">+ ExpToNextLevel</text>
<polyline fill="none" stroke="black" points="496.5,-986.5 608.5,-986.5 "/>
<text text-anchor="start" x="504.5" y="-974.5" font-family="Helvetica,sans-Serif" font-size="10.00">+ Player()</text>
<text text-anchor="start" x="504.5" y="-963.5" font-family="Helvetica,sans-Serif" font-size="10.00">+ gainExp()</text>
<text text-anchor="start" x="504.5" y="-952.5" font-family="Helvetica,sans-Serif" font-size="10.00">+ levelUp()</text>
<text text-anchor="start" x="504.5" y="-941.5" font-family="Helvetica,sans-Serif" font-size="10.00">&#45; setExpToNextLevel()</text>
</a>
</g>
</g>
<!-- Node6&#45;&gt;Node11 -->
<g id="edge30" class="edge"><title>Node6&#45;&gt;Node11</title>
<path fill="none" stroke="#404040" d="M363.177,-1118.13C396.72,-1095.69 446.012,-1062.73 485.89,-1036.05"/>
<polygon fill="none" stroke="#404040" points="486.1,-1035.91 488.863,-1029.25 496.074,-1029.24 493.311,-1035.9 486.1,-1035.91"/>
<text text-anchor="middle" x="451" y="-1073.5" font-family="Helvetica,sans-Serif" font-size="10.00"> &#45;item</text>
</g>
<!-- Node7 -->
<g id="node6" class="node"><title>Node7</title>
<polygon fill="none" stroke="#bfbfbf" points="806,-1243.5 806,-1300.5 847,-1300.5 847,-1243.5 806,-1243.5"/>
<text text-anchor="middle" x="826.5" y="-1288.5" font-family="Helvetica,sans-Serif" font-size="10.00">string</text>
<polyline fill="none" stroke="#bfbfbf" points="806,-1281.5 847,-1281.5 "/>
<text text-anchor="middle" x="826.5" y="-1269.5" font-family="Helvetica,sans-Serif" font-size="10.00"> </text>
<polyline fill="none" stroke="#bfbfbf" points="806,-1262.5 847,-1262.5 "/>
<text text-anchor="middle" x="826.5" y="-1250.5" font-family="Helvetica,sans-Serif" font-size="10.00"> </text>
</g>
<!-- Node7&#45;&gt;Node6 -->
<g id="edge5" class="edge"><title>Node7&#45;&gt;Node6</title>
<path fill="none" stroke="#404040" d="M805.717,-1266.1C751.059,-1253.18 598.801,-1216.98 472.5,-1185 439.931,-1176.75 403.432,-1167.14 374.828,-1159.52"/>
<polygon fill="none" stroke="#404040" points="374.682,-1159.48 367.853,-1161.8 363.088,-1156.39 369.916,-1154.07 374.682,-1159.48"/>
<text text-anchor="middle" x="643.5" y="-1217" font-family="Helvetica,sans-Serif" font-size="10.00"> #desc</text>
<text text-anchor="middle" x="643.5" y="-1206" font-family="Helvetica,sans-Serif" font-size="10.00">#name</text>
</g>
<!-- Node12 -->
<g id="node11" class="node"><title>Node12</title>
<g id="a_node11"><a xlink:href="class_character.html" target="_top" xlink:title="Base abstract class for Enemy and Player to inherit from. Defines all shared variables, their constructor and their setters and getters ">
<polygon fill="none" stroke="black" points="686,-95.5 686,-273.5 781,-273.5 781,-95.5 686,-95.5"/>
<text text-anchor="middle" x="733.5" y="-261.5" font-family="Helvetica,sans-Serif" font-size="10.00">Character</text>
<polyline fill="none" stroke="black" points="686,-254.5 781,-254.5 "/>
<text text-anchor="start" x="694" y="-242.5" font-family="Helvetica,sans-Serif" font-size="10.00">+ Name</text>
<text text-anchor="start" x="694" y="-231.5" font-family="Helvetica,sans-Serif" font-size="10.00">+ Level</text>
<text text-anchor="start" x="694" y="-220.5" font-family="Helvetica,sans-Serif" font-size="10.00">+ Health</text>
<text text-anchor="start" x="694" y="-209.5" font-family="Helvetica,sans-Serif" font-size="10.00">+ Attack</text>
<text text-anchor="start" x="694" y="-198.5" font-family="Helvetica,sans-Serif" font-size="10.00">+ Defence</text>
<text text-anchor="start" x="694" y="-187.5" font-family="Helvetica,sans-Serif" font-size="10.00">+ MaximumMagic</text>
<text text-anchor="start" x="694" y="-176.5" font-family="Helvetica,sans-Serif" font-size="10.00">+ Magic</text>
<text text-anchor="start" x="694" y="-165.5" font-family="Helvetica,sans-Serif" font-size="10.00">+ Luck</text>
<text text-anchor="start" x="694" y="-154.5" font-family="Helvetica,sans-Serif" font-size="10.00">+ Speed</text>
<text text-anchor="start" x="694" y="-143.5" font-family="Helvetica,sans-Serif" font-size="10.00">+ Special1</text>
<text text-anchor="start" x="694" y="-132.5" font-family="Helvetica,sans-Serif" font-size="10.00">+ Special2</text>
<text text-anchor="start" x="694" y="-121.5" font-family="Helvetica,sans-Serif" font-size="10.00">+ Image</text>
<polyline fill="none" stroke="black" points="686,-114.5 781,-114.5 "/>
<text text-anchor="start" x="694" y="-102.5" font-family="Helvetica,sans-Serif" font-size="10.00"># Character()</text>
</a>
</g>
</g>
<!-- Node7&#45;&gt;Node12 -->
<g id="edge14" class="edge"><title>Node7&#45;&gt;Node12</title>
<path fill="none" stroke="#404040" d="M809.517,-1243.32C785.424,-1202.26 742.476,-1121.98 726.5,-1047 722.588,-1028.64 729.12,-509.022 732.119,-285.812"/>
<polygon fill="none" stroke="#404040" points="732.119,-285.796 728.2,-279.743 732.28,-273.797 736.199,-279.851 732.119,-285.796"/>
<text text-anchor="middle" x="753" y="-795" font-family="Helvetica,sans-Serif" font-size="10.00"> #image_ref</text>
<text text-anchor="middle" x="753" y="-784" font-family="Helvetica,sans-Serif" font-size="10.00">#name</text>
</g>
<!-- Node13 -->
<g id="node12" class="node"><title>Node13</title>
<g id="a_node12"><a xlink:href="class_special_move.html" target="_top" xlink:title="Special move abstract base class that expands upon CharacterMove, adding magic properties ...">
<polygon fill="none" stroke="black" points="761.5,-332.5 761.5,-422.5 859.5,-422.5 859.5,-332.5 761.5,-332.5"/>
<text text-anchor="middle" x="810.5" y="-410.5" font-family="Helvetica,sans-Serif" font-size="10.00">SpecialMove</text>
<polyline fill="none" stroke="black" points="761.5,-403.5 859.5,-403.5 "/>
<text text-anchor="start" x="769.5" y="-391.5" font-family="Helvetica,sans-Serif" font-size="10.00">+ Magic</text>
<text text-anchor="start" x="769.5" y="-380.5" font-family="Helvetica,sans-Serif" font-size="10.00">+ Desc</text>
<polyline fill="none" stroke="black" points="761.5,-373.5 859.5,-373.5 "/>
<text text-anchor="start" x="769.5" y="-361.5" font-family="Helvetica,sans-Serif" font-size="10.00">+ setUp()</text>
<text text-anchor="start" x="769.5" y="-350.5" font-family="Helvetica,sans-Serif" font-size="10.00">+ decreaseMagic()</text>
<text text-anchor="start" x="769.5" y="-339.5" font-family="Helvetica,sans-Serif" font-size="10.00"># SpecialMove()</text>
</a>
</g>
</g>
<!-- Node7&#45;&gt;Node13 -->
<g id="edge28" class="edge"><title>Node7&#45;&gt;Node13</title>
<path fill="none" stroke="#404040" d="M826.004,-1243.31C823.765,-1118.45 814.586,-606.431 811.51,-434.843"/>
<polygon fill="none" stroke="#404040" points="811.506,-434.61 807.399,-428.682 811.291,-422.612 815.398,-428.539 811.506,-434.61"/>
<text text-anchor="middle" x="834.5" y="-908" font-family="Helvetica,sans-Serif" font-size="10.00"> #desc</text>
</g>
<!-- Node14 -->
<g id="node13" class="node"><title>Node14</title>
<g id="a_node13"><a xlink:href="class_character_move.html" target="_top" xlink:title="Astract base class for character moves ">
<polygon fill="none" stroke="black" points="852.5,-477 852.5,-556 938.5,-556 938.5,-477 852.5,-477"/>
<text text-anchor="middle" x="895.5" y="-544" font-family="Helvetica,sans-Serif" font-size="10.00">CharacterMove</text>
<polyline fill="none" stroke="black" points="852.5,-537 938.5,-537 "/>
<text text-anchor="start" x="860.5" y="-525" font-family="Helvetica,sans-Serif" font-size="10.00">+ User</text>
<text text-anchor="start" x="860.5" y="-514" font-family="Helvetica,sans-Serif" font-size="10.00">+ Target</text>
<text text-anchor="start" x="860.5" y="-503" font-family="Helvetica,sans-Serif" font-size="10.00">+ Text</text>
<polyline fill="none" stroke="black" points="852.5,-496 938.5,-496 "/>
<text text-anchor="start" x="860.5" y="-484" font-family="Helvetica,sans-Serif" font-size="10.00">+ performMove()</text>
</a>
</g>
</g>
<!-- Node7&#45;&gt;Node14 -->
<g id="edge18" class="edge"><title>Node7&#45;&gt;Node14</title>
<path fill="none" stroke="#404040" d="M843.107,-1243.27C856.283,-1218.63 872.5,-1181.15 872.5,-1146 872.5,-1146 872.5,-1146 872.5,-791 872.5,-713.196 881.857,-623.379 888.634,-568.524"/>
<polygon fill="none" stroke="#404040" points="888.666,-568.27 885.447,-561.817 890.166,-556.364 893.385,-562.817 888.666,-568.27"/>
<text text-anchor="middle" x="885" y="-988" font-family="Helvetica,sans-Serif" font-size="10.00"> #text</text>
</g>
<!-- Node15 -->
<g id="node14" class="node"><title>Node15</title>
<g id="a_node14"><a xlink:href="class_battle_manager.html" target="_top" xlink:title="Holds current Player and Enemy objects in battle and provides functions for MainBattle and other obje...">
<polygon fill="none" stroke="black" points="900.5,-697.5 900.5,-886.5 1016.5,-886.5 1016.5,-697.5 900.5,-697.5"/>
<text text-anchor="middle" x="958.5" y="-874.5" font-family="Helvetica,sans-Serif" font-size="10.00">BattleManager</text>
<polyline fill="none" stroke="black" points="900.5,-867.5 1016.5,-867.5 "/>
<text text-anchor="start" x="908.5" y="-855.5" font-family="Helvetica,sans-Serif" font-size="10.00">+ Player</text>
<text text-anchor="start" x="908.5" y="-844.5" font-family="Helvetica,sans-Serif" font-size="10.00">+ Enemy</text>
<text text-anchor="start" x="908.5" y="-833.5" font-family="Helvetica,sans-Serif" font-size="10.00">+ WasCriticalHit</text>
<polyline fill="none" stroke="black" points="900.5,-826.5 1016.5,-826.5 "/>
<text text-anchor="start" x="908.5" y="-814.5" font-family="Helvetica,sans-Serif" font-size="10.00">+ BattleManager()</text>
<text text-anchor="start" x="908.5" y="-803.5" font-family="Helvetica,sans-Serif" font-size="10.00">+ playerFirst()</text>
<text text-anchor="start" x="908.5" y="-792.5" font-family="Helvetica,sans-Serif" font-size="10.00">+ switchPlayers()</text>
<text text-anchor="start" x="908.5" y="-781.5" font-family="Helvetica,sans-Serif" font-size="10.00">+ isCriticalHit()</text>
<text text-anchor="start" x="908.5" y="-770.5" font-family="Helvetica,sans-Serif" font-size="10.00">+ ranAway()</text>
<text text-anchor="start" x="908.5" y="-759.5" font-family="Helvetica,sans-Serif" font-size="10.00">+ damageCalculation()</text>
<text text-anchor="start" x="908.5" y="-748.5" font-family="Helvetica,sans-Serif" font-size="10.00">+ enemyMove()</text>
<text text-anchor="start" x="908.5" y="-737.5" font-family="Helvetica,sans-Serif" font-size="10.00">+ enemySpecialMove()</text>
<text text-anchor="start" x="908.5" y="-726.5" font-family="Helvetica,sans-Serif" font-size="10.00">+ battleWon()</text>
<text text-anchor="start" x="908.5" y="-715.5" font-family="Helvetica,sans-Serif" font-size="10.00">+ playerFainted()</text>
<text text-anchor="start" x="908.5" y="-704.5" font-family="Helvetica,sans-Serif" font-size="10.00">&#45; characterFainted()</text>
</a>
</g>
</g>
<!-- Node7&#45;&gt;Node15 -->
<g id="edge21" class="edge"><title>Node7&#45;&gt;Node15</title>
<path fill="none" stroke="#404040" d="M847.089,-1259.12C859.844,-1250.89 875.781,-1238.94 886.5,-1225 975.711,-1108.94 978.889,-1060.78 1000.5,-916 1001.33,-910.452 1001.6,-904.822 1001.41,-899.177"/>
<polygon fill="none" stroke="#404040" points="1001.38,-898.778 996.864,-893.155 1000.32,-886.825 1004.83,-892.448 1001.38,-898.778"/>
<text text-anchor="middle" x="1014.5" y="-1079" font-family="Helvetica,sans-Serif" font-size="10.00"> +forceEnemyMove</text>
<text text-anchor="middle" x="1014.5" y="-1068" font-family="Helvetica,sans-Serif" font-size="10.00">+forceCriticalHits</text>
</g>
<!-- Node8 -->
<g id="node7" class="node"><title>Node8</title>
<polygon fill="none" stroke="#bfbfbf" points="482,-1116.5 482,-1173.5 511,-1173.5 511,-1116.5 482,-1116.5"/>
<text text-anchor="middle" x="496.5" y="-1161.5" font-family="Helvetica,sans-Serif" font-size="10.00">int</text>
<polyline fill="none" stroke="#bfbfbf" points="482,-1154.5 511,-1154.5 "/>
<text text-anchor="middle" x="496.5" y="-1142.5" font-family="Helvetica,sans-Serif" font-size="10.00"> </text>
<polyline fill="none" stroke="#bfbfbf" points="482,-1135.5 511,-1135.5 "/>
<text text-anchor="middle" x="496.5" y="-1123.5" font-family="Helvetica,sans-Serif" font-size="10.00"> </text>
</g>
<!-- Node8&#45;&gt;Node2 -->
<g id="edge7" class="edge"><title>Node8&#45;&gt;Node2</title>
<path fill="none" stroke="#404040" d="M481.847,-1137.67C462.657,-1128.76 428.94,-1110.9 407.5,-1087 356.804,-1030.48 379.459,-992.864 331.5,-934 310.104,-907.739 288.692,-916.187 271.5,-887 267.679,-880.514 238.445,-689.604 222.613,-584.812"/>
<polygon fill="none" stroke="#404040" points="222.589,-584.652 217.738,-579.316 220.798,-572.786 225.648,-578.122 222.589,-584.652"/>
<text text-anchor="middle" x="327.5" y="-908" font-family="Helvetica,sans-Serif" font-size="10.00"> &#45;money</text>
</g>
<!-- Node8&#45;&gt;Node5 -->
<g id="edge6" class="edge"><title>Node8&#45;&gt;Node5</title>
<path fill="none" stroke="#404040" d="M481.937,-1139.23C458.684,-1131.66 411.693,-1116.58 371.5,-1105 341.46,-1096.34 330.499,-1102.76 303.5,-1087 278.476,-1072.39 256.102,-1048.73 239.921,-1028.61"/>
<polygon fill="none" stroke="#404040" points="239.867,-1028.54 233.024,-1026.26 232.491,-1019.07 239.334,-1021.35 239.867,-1028.54"/>
<text text-anchor="middle" x="317.5" y="-1073.5" font-family="Helvetica,sans-Serif" font-size="10.00"> +cost</text>
</g>
<!-- Node8&#45;&gt;Node10 -->
<g id="edge11" class="edge"><title>Node8&#45;&gt;Node10</title>
<path fill="none" stroke="#404040" d="M481.83,-1131.71C462.988,-1114.87 431.203,-1082.62 418.5,-1047 399.136,-992.703 399.027,-927.628 403.557,-876.941"/>
<polygon fill="none" stroke="#404040" points="403.585,-876.652 400.193,-870.288 404.763,-864.71 408.155,-871.074 403.585,-876.652"/>
<text text-anchor="middle" x="436.5" y="-988" font-family="Helvetica,sans-Serif" font-size="10.00"> &#45;money</text>
</g>
<!-- Node8&#45;&gt;Node11 -->
<g id="edge31" class="edge"><title>Node8&#45;&gt;Node11</title>
<path fill="none" stroke="#404040" d="M506.641,-1116.38C512.651,-1100.02 520.546,-1078.52 528.087,-1057.98"/>
<polygon fill="none" stroke="#404040" points="528.09,-1057.97 526.403,-1050.96 532.226,-1046.71 533.913,-1053.72 528.09,-1057.97"/>
<text text-anchor="middle" x="562" y="-1079" font-family="Helvetica,sans-Serif" font-size="10.00"> &#45;expToNextLevel</text>
<text text-anchor="middle" x="562" y="-1068" font-family="Helvetica,sans-Serif" font-size="10.00">&#45;exp</text>
</g>
<!-- Node8&#45;&gt;Node12 -->
<g id="edge15" class="edge"><title>Node8&#45;&gt;Node12</title>
<path fill="none" stroke="#404040" d="M511.147,-1139.99C534.04,-1132.98 578.285,-1116.4 603.5,-1087 615.763,-1072.7 614.344,-1065.57 617.5,-1047 651.456,-847.196 586.9,-791.641 615.5,-591 630.712,-484.285 667.369,-366.402 695.824,-285.374"/>
<polygon fill="none" stroke="#404040" points="695.954,-285.005 694.186,-278.014 699.959,-273.693 701.727,-280.683 695.954,-285.005"/>
<text text-anchor="middle" x="653" y="-671" font-family="Helvetica,sans-Serif" font-size="10.00"> #speed</text>
<text text-anchor="middle" x="653" y="-660" font-family="Helvetica,sans-Serif" font-size="10.00">#luck</text>
<text text-anchor="middle" x="653" y="-649" font-family="Helvetica,sans-Serif" font-size="10.00">#health</text>
<text text-anchor="middle" x="653" y="-638" font-family="Helvetica,sans-Serif" font-size="10.00">#magic</text>
<text text-anchor="middle" x="653" y="-627" font-family="Helvetica,sans-Serif" font-size="10.00">#maximumMagic</text>
<text text-anchor="middle" x="653" y="-616" font-family="Helvetica,sans-Serif" font-size="10.00">#attack</text>
<text text-anchor="middle" x="653" y="-605" font-family="Helvetica,sans-Serif" font-size="10.00">#defence</text>
<text text-anchor="middle" x="653" y="-594" font-family="Helvetica,sans-Serif" font-size="10.00">#level</text>
</g>
<!-- Node8&#45;&gt;Node13 -->
<g id="edge29" class="edge"><title>Node8&#45;&gt;Node13</title>
<path fill="none" stroke="#404040" d="M511.326,-1143.43C542.761,-1141.36 616.038,-1131.71 650.5,-1087 703.662,-1018.03 668.524,-781.755 688.5,-697 694.735,-670.544 754.787,-518.191 788.249,-434.148"/>
<polygon fill="none" stroke="#404040" points="788.344,-433.91 786.849,-426.856 792.786,-422.763 794.281,-429.817 788.344,-433.91"/>
<text text-anchor="middle" x="706" y="-789.5" font-family="Helvetica,sans-Serif" font-size="10.00"> #magic</text>
</g>
<!-- Node8&#45;&gt;Node15 -->
<g id="edge25" class="edge"><title>Node8&#45;&gt;Node15</title>
<path fill="none" stroke="#404040" d="M511.006,-1143.06C545.192,-1140.19 632.169,-1128.95 688.5,-1087 766.01,-1029.27 741.211,-975.328 807.5,-905 831.825,-879.193 862.704,-855.116 890.19,-835.95"/>
<polygon fill="none" stroke="#404040" points="890.252,-835.908 892.935,-829.215 900.145,-829.117 897.462,-835.81 890.252,-835.908"/>
<text text-anchor="middle" x="803" y="-988" font-family="Helvetica,sans-Serif" font-size="10.00"> +money</text>
</g>
<!-- Node16 -->
<g id="node15" class="node"><title>Node16</title>
<g id="a_node15"><a xlink:href="class_enemy.html" target="_top" xlink:title="Defines an AI controller enemy to fight in battle scenes">
<polygon fill="none" stroke="black" points="700,-0.5 700,-57.5 767,-57.5 767,-0.5 700,-0.5"/>
<text text-anchor="middle" x="733.5" y="-45.5" font-family="Helvetica,sans-Serif" font-size="10.00">Enemy</text>
<polyline fill="none" stroke="black" points="700,-38.5 767,-38.5 "/>
<text text-anchor="start" x="708" y="-26.5" font-family="Helvetica,sans-Serif" font-size="10.00">+ ExpGiven</text>
<polyline fill="none" stroke="black" points="700,-19.5 767,-19.5 "/>
<text text-anchor="start" x="708" y="-7.5" font-family="Helvetica,sans-Serif" font-size="10.00">+ Enemy()</text>
</a>
</g>
</g>
<!-- Node8&#45;&gt;Node16 -->
<g id="edge24" class="edge"><title>Node8&#45;&gt;Node16</title>
<path fill="none" stroke="#404040" d="M493.26,-1116.45C491.147,-1097.06 488.587,-1070.48 487.5,-1047 482.279,-934.224 490.5,-905.897 490.5,-793 490.5,-793 490.5,-793 490.5,-183.5 490.5,-91.1187 617.587,-52.0751 687.947,-37.5382"/>
<polygon fill="none" stroke="#404040" points="688.192,-37.4902 693.309,-32.4093 699.967,-35.1785 694.85,-40.2594 688.192,-37.4902"/>
<text text-anchor="middle" x="513.5" y="-514" font-family="Helvetica,sans-Serif" font-size="10.00"> &#45;expGiven</text>
</g>
<!-- Node9 -->
<g id="node8" class="node"><title>Node9</title>
<polygon fill="none" stroke="#bfbfbf" points="0,-763.5 0,-820.5 35,-820.5 35,-763.5 0,-763.5"/>
<text text-anchor="middle" x="17.5" y="-808.5" font-family="Helvetica,sans-Serif" font-size="10.00">Text</text>
<polyline fill="none" stroke="#bfbfbf" points="0,-801.5 35,-801.5 "/>
<text text-anchor="middle" x="17.5" y="-789.5" font-family="Helvetica,sans-Serif" font-size="10.00"> </text>
<polyline fill="none" stroke="#bfbfbf" points="0,-782.5 35,-782.5 "/>
<text text-anchor="middle" x="17.5" y="-770.5" font-family="Helvetica,sans-Serif" font-size="10.00"> </text>
</g>
<!-- Node9&#45;&gt;Node2 -->
<g id="edge8" class="edge"><title>Node9&#45;&gt;Node2</title>
<path fill="none" stroke="#404040" d="M17.0799,-763.283C17.8681,-721.505 25.0742,-641.885 65.5,-591 81.9714,-570.267 105.819,-554.907 129.529,-543.749"/>
<polygon fill="none" stroke="#404040" points="129.789,-543.633 133.647,-537.541 140.754,-538.759 136.896,-544.851 129.789,-543.633"/>
<text text-anchor="middle" x="93" y="-632.5" font-family="Helvetica,sans-Serif" font-size="10.00"> &#45;moneyText</text>
</g>
<!-- Node10&#45;&gt;Node2 -->
<g id="edge9" class="edge"><title>Node10&#45;&gt;Node2</title>
<path fill="none" stroke="#404040" d="M426.583,-719.206C428.475,-677.861 423.676,-627.105 396.5,-591 372.514,-559.132 332.509,-541.054 295.916,-530.812"/>
<polygon fill="none" stroke="#404040" points="295.792,-530.779 288.978,-533.137 284.18,-527.754 290.995,-525.396 295.792,-530.779"/>
<text text-anchor="middle" x="439" y="-632.5" font-family="Helvetica,sans-Serif" font-size="10.00"> &#45;data</text>
</g>
<!-- Node11&#45;&gt;Node10 -->
<g id="edge12" class="edge"><title>Node11&#45;&gt;Node10</title>
<path fill="none" stroke="#404040" d="M514.254,-934.241C500.418,-914.25 484.535,-891.301 469.65,-869.794"/>
<polygon fill="none" stroke="#404040" points="469.494,-869.569 462.791,-866.912 462.665,-859.702 469.369,-862.359 469.494,-869.569"/>
<text text-anchor="middle" x="520.5" y="-908" font-family="Helvetica,sans-Serif" font-size="10.00"> &#45;players</text>
</g>
<!-- Node11&#45;&gt;Node15 -->
<g id="edge27" class="edge"><title>Node11&#45;&gt;Node15</title>
<path fill="none" stroke="#404040" d="M608.825,-963.383C647.253,-945.957 699.509,-923.025 746.5,-905 770.12,-895.94 777.497,-897.528 800.5,-887 830.862,-873.104 862.794,-854.868 889.942,-838.16"/>
<polygon fill="none" stroke="#404040" points="890.297,-837.939 893.279,-831.373 900.486,-831.6 897.504,-838.166 890.297,-837.939"/>
<text text-anchor="middle" x="763" y="-908" font-family="Helvetica,sans-Serif" font-size="10.00"> &#45;player</text>
</g>
<!-- Node12&#45;&gt;Node11 -->
<g id="edge13" class="edge"><title>Node12&#45;&gt;Node11</title>
<path fill="none" stroke="midnightblue" d="M677.486,-219.948C630.667,-253.51 571.5,-309.23 571.5,-376.5 571.5,-793 571.5,-793 571.5,-793 571.5,-840.812 565.858,-894.865 560.723,-934.16"/>
<polygon fill="none" stroke="midnightblue" points="679.589,-222.749 685.771,-214.145 675.572,-217.016 679.589,-222.749"/>
</g>
<!-- Node12&#45;&gt;Node14 -->
<g id="edge19" class="edge"><title>Node12&#45;&gt;Node14</title>
<path fill="none" stroke="#404040" d="M781.324,-223.91C811.404,-250.857 848.238,-289.55 868.5,-332 888.377,-373.643 894.461,-426.163 895.966,-464.335"/>
<polygon fill="none" stroke="#404040" points="895.976,-464.698 900.143,-470.583 896.314,-476.693 892.146,-470.808 895.976,-464.698"/>
<text text-anchor="middle" x="908.5" y="-380.5" font-family="Helvetica,sans-Serif" font-size="10.00"> #target</text>
<text text-anchor="middle" x="908.5" y="-369.5" font-family="Helvetica,sans-Serif" font-size="10.00">#user</text>
</g>
<!-- Node12&#45;&gt;Node16 -->
<g id="edge23" class="edge"><title>Node12&#45;&gt;Node16</title>
<path fill="none" stroke="midnightblue" d="M733.5,-85.0224C733.5,-75.0956 733.5,-65.6973 733.5,-57.5701"/>
<polygon fill="none" stroke="midnightblue" points="730,-85.0978 733.5,-95.0978 737,-85.0979 730,-85.0978"/>
</g>
<!-- Node13&#45;&gt;Node12 -->
<g id="edge16" class="edge"><title>Node13&#45;&gt;Node12</title>
<path fill="none" stroke="#404040" d="M792.641,-332.201C786.902,-317.964 780.293,-301.572 773.62,-285.019"/>
<polygon fill="none" stroke="#404040" points="773.486,-284.687 767.533,-280.618 769,-273.557 774.953,-277.627 773.486,-284.687"/>
<text text-anchor="middle" x="805" y="-306" font-family="Helvetica,sans-Serif" font-size="10.00"> #special1</text>
<text text-anchor="middle" x="805" y="-295" font-family="Helvetica,sans-Serif" font-size="10.00">#special2</text>
</g>
<!-- Node14&#45;&gt;Node13 -->
<g id="edge17" class="edge"><title>Node14&#45;&gt;Node13</title>
<path fill="none" stroke="midnightblue" d="M866.287,-468.416C857.062,-453.546 846.907,-437.18 837.819,-422.532"/>
<polygon fill="none" stroke="midnightblue" points="863.35,-470.321 871.597,-476.973 869.299,-466.631 863.35,-470.321"/>
</g>
<!-- Node15&#45;&gt;Node14 -->
<g id="edge20" class="edge"><title>Node15&#45;&gt;Node14</title>
<path fill="none" stroke="#404040" d="M911.998,-697.19C909.909,-691.116 908.046,-685.022 906.5,-679 897.214,-642.834 894.604,-600.707 894.241,-568.548"/>
<polygon fill="none" stroke="#404040" points="894.241,-568.305 890.223,-562.317 894.205,-556.305 898.223,-562.294 894.241,-568.305"/>
<text text-anchor="middle" x="929.5" y="-632.5" font-family="Helvetica,sans-Serif" font-size="10.00"> #manager</text>
</g>
<!-- Node16&#45;&gt;Node15 -->
<g id="edge22" class="edge"><title>Node16&#45;&gt;Node15</title>
<path fill="none" stroke="#404040" d="M767.38,-36.0077C832.002,-49.6247 966.5,-89.2829 966.5,-183.5 966.5,-517.5 966.5,-517.5 966.5,-517.5 966.5,-572.795 964.846,-634.35 963.042,-685.042"/>
<polygon fill="none" stroke="#404040" points="963.031,-685.357 966.81,-691.499 962.594,-697.349 958.815,-691.208 963.031,-685.357"/>
<text text-anchor="middle" x="984.5" y="-375" font-family="Helvetica,sans-Serif" font-size="10.00"> &#45;enemy</text>
</g>
<!-- Node17 -->
<g id="node16" class="node"><title>Node17</title>
<polygon fill="none" stroke="#bfbfbf" points="916,-962 916,-1019 951,-1019 951,-962 916,-962"/>
<text text-anchor="middle" x="933.5" y="-1007" font-family="Helvetica,sans-Serif" font-size="10.00">bool</text>
<polyline fill="none" stroke="#bfbfbf" points="916,-1000 951,-1000 "/>
<text text-anchor="middle" x="933.5" y="-988" font-family="Helvetica,sans-Serif" font-size="10.00"> </text>
<polyline fill="none" stroke="#bfbfbf" points="916,-981 951,-981 "/>
<text text-anchor="middle" x="933.5" y="-969" font-family="Helvetica,sans-Serif" font-size="10.00"> </text>
</g>
<!-- Node17&#45;&gt;Node15 -->
<g id="edge26" class="edge"><title>Node17&#45;&gt;Node15</title>
<path fill="none" stroke="#404040" d="M932.44,-961.632C932.157,-945.118 932.395,-923.808 934.5,-905 934.732,-902.928 934.985,-900.838 935.257,-898.735"/>
<polygon fill="none" stroke="#404040" points="935.298,-898.456 932.195,-891.946 937.011,-886.579 940.113,-893.089 935.298,-898.456"/>
<text text-anchor="middle" x="967.5" y="-908" font-family="Helvetica,sans-Serif" font-size="10.00"> &#45;wasCriticalHit</text>
</g>
</g>
</svg>
