<?xml version="1.0" encoding="UTF-8" standalone="no"?>
<!DOCTYPE svg PUBLIC "-//W3C//DTD SVG 1.1//EN"
 "http://www.w3.org/Graphics/SVG/1.1/DTD/svg11.dtd">
<!-- Generated by graphviz version 2.38.0 (20140413.2041)
 -->
<!-- Title: PlayerData Pages: 1 -->
<svg width="729pt" height="1276pt"
 viewBox="0.00 0.00 729.48 1276.00" xmlns="http://www.w3.org/2000/svg" xmlns:xlink="http://www.w3.org/1999/xlink">
<g id="graph0" class="graph" transform="scale(1 1) rotate(0) translate(4 1272)">
<title>PlayerData</title>
<!-- Node2 -->
<g id="node1" class="node"><title>Node2</title>
<polygon fill="#bfbfbf" stroke="black" points="79.978,-471.5 79.978,-528.5 144.978,-528.5 144.978,-471.5 79.978,-471.5"/>
<text text-anchor="middle" x="112.478" y="-516.5" font-family="Helvetica,sans-Serif" font-size="10.00">PlayerData</text>
<polyline fill="none" stroke="black" points="79.978,-509.5 144.978,-509.5 "/>
<text text-anchor="middle" x="112.478" y="-497.5" font-family="Helvetica,sans-Serif" font-size="10.00"> </text>
<polyline fill="none" stroke="black" points="79.978,-490.5 144.978,-490.5 "/>
<text text-anchor="start" x="87.978" y="-478.5" font-family="Helvetica,sans-Serif" font-size="10.00">&#45; Awake()</text>
</g>
<!-- Node2&#45;&gt;Node2 -->
<g id="edge2" class="edge"><title>Node2&#45;&gt;Node2</title>
<path fill="none" stroke="#404040" d="M145.02,-510.864C155.079,-510.645 162.978,-507.023 162.978,-500 162.978,-496.159 160.616,-493.336 156.83,-491.529"/>
<polygon fill="none" stroke="#404040" points="156.781,-491.52 150.106,-494.248 145.02,-489.136 151.696,-486.407 156.781,-491.52"/>
<text text-anchor="middle" x="185.978" y="-497.5" font-family="Helvetica,sans-Serif" font-size="10.00"> +instance</text>
</g>
<!-- Node3 -->
<g id="node2" class="node"><title>Node3</title>
<g id="a_node2"><a xlink:href="class_mono_behaviour.html" target="_top" xlink:title="{MonoBehaviour\n||}">
<polygon fill="none" stroke="black" points="138.978,-730.5 138.978,-787.5 221.978,-787.5 221.978,-730.5 138.978,-730.5"/>
<text text-anchor="middle" x="180.478" y="-775.5" font-family="Helvetica,sans-Serif" font-size="10.00">MonoBehaviour</text>
<polyline fill="none" stroke="black" points="138.978,-768.5 221.978,-768.5 "/>
<text text-anchor="middle" x="180.478" y="-756.5" font-family="Helvetica,sans-Serif" font-size="10.00"> </text>
<polyline fill="none" stroke="black" points="138.978,-749.5 221.978,-749.5 "/>
<text text-anchor="middle" x="180.478" y="-737.5" font-family="Helvetica,sans-Serif" font-size="10.00"> </text>
</a>
</g>
</g>
<!-- Node3&#45;&gt;Node2 -->
<g id="edge1" class="edge"><title>Node3&#45;&gt;Node2</title>
<path fill="none" stroke="midnightblue" d="M173.92,-720.475C166.399,-679.923 152.835,-613.633 135.478,-558 132.427,-548.221 128.43,-537.76 124.625,-528.505"/>
<polygon fill="none" stroke="midnightblue" points="170.504,-721.249 175.746,-730.456 177.39,-719.99 170.504,-721.249"/>
</g>
<!-- Node4 -->
<g id="node3" class="node"><title>Node4</title>
<g id="a_node3"><a xlink:href="class_data_manager.html" target="_top" xlink:title="An object to store all player data including players, items and money and provide useful functions ...">
<polygon fill="none" stroke="black" points="28.478,-686.5 28.478,-831.5 120.478,-831.5 120.478,-686.5 28.478,-686.5"/>
<text text-anchor="middle" x="74.478" y="-819.5" font-family="Helvetica,sans-Serif" font-size="10.00">DataManager</text>
<polyline fill="none" stroke="black" points="28.478,-812.5 120.478,-812.5 "/>
<text text-anchor="start" x="36.478" y="-800.5" font-family="Helvetica,sans-Serif" font-size="10.00">+ Players</text>
<text text-anchor="start" x="36.478" y="-789.5" font-family="Helvetica,sans-Serif" font-size="10.00">+ Items</text>
<text text-anchor="start" x="36.478" y="-778.5" font-family="Helvetica,sans-Serif" font-size="10.00">+ Money</text>
<polyline fill="none" stroke="black" points="28.478,-771.5 120.478,-771.5 "/>
<text text-anchor="start" x="36.478" y="-759.5" font-family="Helvetica,sans-Serif" font-size="10.00">+ DataManager()</text>
<text text-anchor="start" x="36.478" y="-748.5" font-family="Helvetica,sans-Serif" font-size="10.00">+ getFirstPlayer()</text>
<text text-anchor="start" x="36.478" y="-737.5" font-family="Helvetica,sans-Serif" font-size="10.00">+ playersAlive()</text>
<text text-anchor="start" x="36.478" y="-726.5" font-family="Helvetica,sans-Serif" font-size="10.00">+ addPlayer()</text>
<text text-anchor="start" x="36.478" y="-715.5" font-family="Helvetica,sans-Serif" font-size="10.00">+ swapPlayers()</text>
<text text-anchor="start" x="36.478" y="-704.5" font-family="Helvetica,sans-Serif" font-size="10.00">+ addItem()</text>
<text text-anchor="start" x="36.478" y="-693.5" font-family="Helvetica,sans-Serif" font-size="10.00">+ countItems()</text>
</a>
</g>
</g>
<!-- Node4&#45;&gt;Node2 -->
<g id="edge3" class="edge"><title>Node4&#45;&gt;Node2</title>
<path fill="none" stroke="#404040" d="M85.0631,-686.411C92.0233,-639.338 100.871,-579.497 106.603,-540.732"/>
<polygon fill="none" stroke="#404040" points="106.629,-540.557 103.55,-534.037 108.384,-528.687 111.464,-535.207 106.629,-540.557"/>
<text text-anchor="middle" x="117.478" y="-599.5" font-family="Helvetica,sans-Serif" font-size="10.00"> +data</text>
</g>
<!-- Node5 -->
<g id="node4" class="node"><title>Node5</title>
<g id="a_node4"><a xlink:href="class_item.html" target="_top" xlink:title="Abstract class for items that can be equipped to a player, increasing some of their stats ...">
<polygon fill="none" stroke="black" points="19.978,-1072.5 19.978,-1151.5 96.978,-1151.5 96.978,-1072.5 19.978,-1072.5"/>
<text text-anchor="middle" x="58.478" y="-1139.5" font-family="Helvetica,sans-Serif" font-size="10.00">Item</text>
<polyline fill="none" stroke="black" points="19.978,-1132.5 96.978,-1132.5 "/>
<text text-anchor="start" x="27.978" y="-1120.5" font-family="Helvetica,sans-Serif" font-size="10.00">+ Name</text>
<text text-anchor="start" x="27.978" y="-1109.5" font-family="Helvetica,sans-Serif" font-size="10.00">+ Desc</text>
<polyline fill="none" stroke="black" points="19.978,-1102.5 96.978,-1102.5 "/>
<text text-anchor="start" x="27.978" y="-1090.5" font-family="Helvetica,sans-Serif" font-size="10.00">+ applyBuffs()</text>
<text text-anchor="start" x="27.978" y="-1079.5" font-family="Helvetica,sans-Serif" font-size="10.00">+ revertBuffs()</text>
</a>
</g>
</g>
<!-- Node5&#45;&gt;Node4 -->
<g id="edge4" class="edge"><title>Node5&#45;&gt;Node4</title>
<path fill="none" stroke="#404040" d="M60.2361,-1072.43C62.7263,-1017.8 67.3448,-916.485 70.6475,-844.032"/>
<polygon fill="none" stroke="#404040" points="70.6603,-843.75 66.9377,-837.574 71.2068,-831.762 74.9294,-837.938 70.6603,-843.75"/>
<text text-anchor="middle" x="83.978" y="-955" font-family="Helvetica,sans-Serif" font-size="10.00"> &#45;items</text>
</g>
<!-- Node8 -->
<g id="node7" class="node"><title>Node8</title>
<g id="a_node7"><a xlink:href="class_player.html" target="_top" xlink:title="Defines a playable character for use in battle scenes">
<polygon fill="none" stroke="black" points="184.478,-901.5 184.478,-1013.5 296.478,-1013.5 296.478,-901.5 184.478,-901.5"/>
<text text-anchor="middle" x="240.478" y="-1001.5" font-family="Helvetica,sans-Serif" font-size="10.00">Player</text>
<polyline fill="none" stroke="black" points="184.478,-994.5 296.478,-994.5 "/>
<text text-anchor="start" x="192.478" y="-982.5" font-family="Helvetica,sans-Serif" font-size="10.00">+ Exp</text>
<text text-anchor="start" x="192.478" y="-971.5" font-family="Helvetica,sans-Serif" font-size="10.00">+ Item</text>
<text text-anchor="start" x="192.478" y="-960.5" font-family="Helvetica,sans-Serif" font-size="10.00">+ ExpToNextLevel</text>
<polyline fill="none" stroke="black" points="184.478,-953.5 296.478,-953.5 "/>
<text text-anchor="start" x="192.478" y="-941.5" font-family="Helvetica,sans-Serif" font-size="10.00">+ Player()</text>
<text text-anchor="start" x="192.478" y="-930.5" font-family="Helvetica,sans-Serif" font-size="10.00">+ gainExp()</text>
<text text-anchor="start" x="192.478" y="-919.5" font-family="Helvetica,sans-Serif" font-size="10.00">+ levelUp()</text>
<text text-anchor="start" x="192.478" y="-908.5" font-family="Helvetica,sans-Serif" font-size="10.00">&#45; setExpToNextLevel()</text>
</a>
</g>
</g>
<!-- Node5&#45;&gt;Node8 -->
<g id="edge25" class="edge"><title>Node5&#45;&gt;Node8</title>
<path fill="none" stroke="#404040" d="M97.0755,-1078.66C119.658,-1059.74 148.772,-1035.34 174.86,-1013.48"/>
<polygon fill="none" stroke="#404040" points="175.119,-1013.26 177.149,-1006.35 184.317,-1005.56 182.287,-1012.48 175.119,-1013.26"/>
<text text-anchor="middle" x="161.978" y="-1040.5" font-family="Helvetica,sans-Serif" font-size="10.00"> &#45;item</text>
</g>
<!-- Node6 -->
<g id="node5" class="node"><title>Node6</title>
<polygon fill="none" stroke="#bfbfbf" points="558.978,-1210.5 558.978,-1267.5 599.978,-1267.5 599.978,-1210.5 558.978,-1210.5"/>
<text text-anchor="middle" x="579.478" y="-1255.5" font-family="Helvetica,sans-Serif" font-size="10.00">string</text>
<polyline fill="none" stroke="#bfbfbf" points="558.978,-1248.5 599.978,-1248.5 "/>
<text text-anchor="middle" x="579.478" y="-1236.5" font-family="Helvetica,sans-Serif" font-size="10.00"> </text>
<polyline fill="none" stroke="#bfbfbf" points="558.978,-1229.5 599.978,-1229.5 "/>
<text text-anchor="middle" x="579.478" y="-1217.5" font-family="Helvetica,sans-Serif" font-size="10.00"> </text>
</g>
<!-- Node6&#45;&gt;Node5 -->
<g id="edge5" class="edge"><title>Node6&#45;&gt;Node5</title>
<path fill="none" stroke="#404040" d="M558.733,-1233.02C483.029,-1214.86 220.275,-1151.82 108.947,-1125.11"/>
<polygon fill="none" stroke="#404040" points="108.752,-1125.06 101.985,-1127.55 97.0836,-1122.26 103.851,-1119.77 108.752,-1125.06"/>
<text text-anchor="middle" x="396.478" y="-1184" font-family="Helvetica,sans-Serif" font-size="10.00"> #desc</text>
<text text-anchor="middle" x="396.478" y="-1173" font-family="Helvetica,sans-Serif" font-size="10.00">#name</text>
</g>
<!-- Node9 -->
<g id="node8" class="node"><title>Node9</title>
<g id="a_node8"><a xlink:href="class_character.html" target="_top" xlink:title="Base abstract class for Enemy and Player to inherit from. Defines all shared variables, their constructor and their setters and getters ">
<polygon fill="none" stroke="black" points="372.978,-95.5 372.978,-273.5 467.978,-273.5 467.978,-95.5 372.978,-95.5"/>
<text text-anchor="middle" x="420.478" y="-261.5" font-family="Helvetica,sans-Serif" font-size="10.00">Character</text>
<polyline fill="none" stroke="black" points="372.978,-254.5 467.978,-254.5 "/>
<text text-anchor="start" x="380.978" y="-242.5" font-family="Helvetica,sans-Serif" font-size="10.00">+ Name</text>
<text text-anchor="start" x="380.978" y="-231.5" font-family="Helvetica,sans-Serif" font-size="10.00">+ Level</text>
<text text-anchor="start" x="380.978" y="-220.5" font-family="Helvetica,sans-Serif" font-size="10.00">+ Health</text>
<text text-anchor="start" x="380.978" y="-209.5" font-family="Helvetica,sans-Serif" font-size="10.00">+ Attack</text>
<text text-anchor="start" x="380.978" y="-198.5" font-family="Helvetica,sans-Serif" font-size="10.00">+ Defence</text>
<text text-anchor="start" x="380.978" y="-187.5" font-family="Helvetica,sans-Serif" font-size="10.00">+ MaximumMagic</text>
<text text-anchor="start" x="380.978" y="-176.5" font-family="Helvetica,sans-Serif" font-size="10.00">+ Magic</text>
<text text-anchor="start" x="380.978" y="-165.5" font-family="Helvetica,sans-Serif" font-size="10.00">+ Luck</text>
<text text-anchor="start" x="380.978" y="-154.5" font-family="Helvetica,sans-Serif" font-size="10.00">+ Speed</text>
<text text-anchor="start" x="380.978" y="-143.5" font-family="Helvetica,sans-Serif" font-size="10.00">+ Special1</text>
<text text-anchor="start" x="380.978" y="-132.5" font-family="Helvetica,sans-Serif" font-size="10.00">+ Special2</text>
<text text-anchor="start" x="380.978" y="-121.5" font-family="Helvetica,sans-Serif" font-size="10.00">+ Image</text>
<polyline fill="none" stroke="black" points="372.978,-114.5 467.978,-114.5 "/>
<text text-anchor="start" x="380.978" y="-102.5" font-family="Helvetica,sans-Serif" font-size="10.00"># Character()</text>
</a>
</g>
</g>
<!-- Node6&#45;&gt;Node9 -->
<g id="edge9" class="edge"><title>Node6&#45;&gt;Node9</title>
<path fill="none" stroke="#404040" d="M600.127,-1223.21C626.976,-1202.08 670.478,-1160.51 670.478,-1113 670.478,-1113 670.478,-1113 670.478,-376.5 670.478,-280.843 553.478,-226.677 479.559,-202.001"/>
<polygon fill="none" stroke="#404040" points="479.507,-201.984 472.568,-203.944 468.09,-198.292 475.029,-196.332 479.507,-201.984"/>
<text text-anchor="middle" x="695.978" y="-762" font-family="Helvetica,sans-Serif" font-size="10.00"> #image_ref</text>
<text text-anchor="middle" x="695.978" y="-751" font-family="Helvetica,sans-Serif" font-size="10.00">#name</text>
</g>
<!-- Node10 -->
<g id="node9" class="node"><title>Node10</title>
<g id="a_node9"><a xlink:href="class_special_move.html" target="_top" xlink:title="Special move abstract base class that expands upon CharacterMove, adding magic properties ...">
<polygon fill="none" stroke="black" points="420.478,-332.5 420.478,-422.5 518.478,-422.5 518.478,-332.5 420.478,-332.5"/>
<text text-anchor="middle" x="469.478" y="-410.5" font-family="Helvetica,sans-Serif" font-size="10.00">SpecialMove</text>
<polyline fill="none" stroke="black" points="420.478,-403.5 518.478,-403.5 "/>
<text text-anchor="start" x="428.478" y="-391.5" font-family="Helvetica,sans-Serif" font-size="10.00">+ Magic</text>
<text text-anchor="start" x="428.478" y="-380.5" font-family="Helvetica,sans-Serif" font-size="10.00">+ Desc</text>
<polyline fill="none" stroke="black" points="420.478,-373.5 518.478,-373.5 "/>
<text text-anchor="start" x="428.478" y="-361.5" font-family="Helvetica,sans-Serif" font-size="10.00">+ setUp()</text>
<text text-anchor="start" x="428.478" y="-350.5" font-family="Helvetica,sans-Serif" font-size="10.00">+ decreaseMagic()</text>
<text text-anchor="start" x="428.478" y="-339.5" font-family="Helvetica,sans-Serif" font-size="10.00"># SpecialMove()</text>
</a>
</g>
</g>
<!-- Node6&#45;&gt;Node10 -->
<g id="edge23" class="edge"><title>Node6&#45;&gt;Node10</title>
<path fill="none" stroke="#404040" d="M592.543,-1210.24C594.868,-1204.33 597.012,-1198.05 598.478,-1192 617.186,-1114.84 610.142,-1093.32 613.478,-1014 618.791,-887.677 619.688,-587.138 609.478,-558 592.634,-509.93 557.266,-464.765 526.295,-431.764"/>
<polygon fill="none" stroke="#404040" points="525.996,-431.453 518.957,-429.887 517.695,-422.787 524.734,-424.353 525.996,-431.453"/>
<text text-anchor="middle" x="631.478" y="-875" font-family="Helvetica,sans-Serif" font-size="10.00"> #desc</text>
</g>
<!-- Node11 -->
<g id="node10" class="node"><title>Node11</title>
<g id="a_node10"><a xlink:href="class_character_move.html" target="_top" xlink:title="Astract base class for character moves ">
<polygon fill="none" stroke="black" points="349.478,-460.5 349.478,-539.5 435.478,-539.5 435.478,-460.5 349.478,-460.5"/>
<text text-anchor="middle" x="392.478" y="-527.5" font-family="Helvetica,sans-Serif" font-size="10.00">CharacterMove</text>
<polyline fill="none" stroke="black" points="349.478,-520.5 435.478,-520.5 "/>
<text text-anchor="start" x="357.478" y="-508.5" font-family="Helvetica,sans-Serif" font-size="10.00">+ User</text>
<text text-anchor="start" x="357.478" y="-497.5" font-family="Helvetica,sans-Serif" font-size="10.00">+ Target</text>
<text text-anchor="start" x="357.478" y="-486.5" font-family="Helvetica,sans-Serif" font-size="10.00">+ Text</text>
<polyline fill="none" stroke="black" points="349.478,-479.5 435.478,-479.5 "/>
<text text-anchor="start" x="357.478" y="-467.5" font-family="Helvetica,sans-Serif" font-size="10.00">+ performMove()</text>
</a>
</g>
</g>
<!-- Node6&#45;&gt;Node11 -->
<g id="edge13" class="edge"><title>Node6&#45;&gt;Node11</title>
<path fill="none" stroke="#404040" d="M581.807,-1210.36C587.9,-1125.15 598.65,-860.378 517.478,-664 499.639,-620.841 467.342,-579.185 440.046,-548.787"/>
<polygon fill="none" stroke="#404040" points="439.857,-548.58 432.856,-546.853 431.757,-539.726 438.758,-541.453 439.857,-548.58"/>
<text text-anchor="middle" x="596.978" y="-955" font-family="Helvetica,sans-Serif" font-size="10.00"> #text</text>
</g>
<!-- Node12 -->
<g id="node11" class="node"><title>Node12</title>
<g id="a_node11"><a xlink:href="class_battle_manager.html" target="_top" xlink:title="Holds current Player and Enemy objects in battle and provides functions for MainBattle and other obje...">
<polygon fill="none" stroke="black" points="292.478,-664.5 292.478,-853.5 408.478,-853.5 408.478,-664.5 292.478,-664.5"/>
<text text-anchor="middle" x="350.478" y="-841.5" font-family="Helvetica,sans-Serif" font-size="10.00">BattleManager</text>
<polyline fill="none" stroke="black" points="292.478,-834.5 408.478,-834.5 "/>
<text text-anchor="start" x="300.478" y="-822.5" font-family="Helvetica,sans-Serif" font-size="10.00">+ Player</text>
<text text-anchor="start" x="300.478" y="-811.5" font-family="Helvetica,sans-Serif" font-size="10.00">+ Enemy</text>
<text text-anchor="start" x="300.478" y="-800.5" font-family="Helvetica,sans-Serif" font-size="10.00">+ WasCriticalHit</text>
<polyline fill="none" stroke="black" points="292.478,-793.5 408.478,-793.5 "/>
<text text-anchor="start" x="300.478" y="-781.5" font-family="Helvetica,sans-Serif" font-size="10.00">+ BattleManager()</text>
<text text-anchor="start" x="300.478" y="-770.5" font-family="Helvetica,sans-Serif" font-size="10.00">+ playerFirst()</text>
<text text-anchor="start" x="300.478" y="-759.5" font-family="Helvetica,sans-Serif" font-size="10.00">+ switchPlayers()</text>
<text text-anchor="start" x="300.478" y="-748.5" font-family="Helvetica,sans-Serif" font-size="10.00">+ isCriticalHit()</text>
<text text-anchor="start" x="300.478" y="-737.5" font-family="Helvetica,sans-Serif" font-size="10.00">+ ranAway()</text>
<text text-anchor="start" x="300.478" y="-726.5" font-family="Helvetica,sans-Serif" font-size="10.00">+ damageCalculation()</text>
<text text-anchor="start" x="300.478" y="-715.5" font-family="Helvetica,sans-Serif" font-size="10.00">+ enemyMove()</text>
<text text-anchor="start" x="300.478" y="-704.5" font-family="Helvetica,sans-Serif" font-size="10.00">+ enemySpecialMove()</text>
<text text-anchor="start" x="300.478" y="-693.5" font-family="Helvetica,sans-Serif" font-size="10.00">+ battleWon()</text>
<text text-anchor="start" x="300.478" y="-682.5" font-family="Helvetica,sans-Serif" font-size="10.00">+ playerFainted()</text>
<text text-anchor="start" x="300.478" y="-671.5" font-family="Helvetica,sans-Serif" font-size="10.00">&#45; characterFainted()</text>
</a>
</g>
</g>
<!-- Node6&#45;&gt;Node12 -->
<g id="edge16" class="edge"><title>Node6&#45;&gt;Node12</title>
<path fill="none" stroke="#404040" d="M562.01,-1210.32C540.47,-1175.16 503.96,-1112.05 481.478,-1054 456.135,-988.562 470.698,-965.25 442.478,-901 434.837,-883.603 425.144,-865.949 414.934,-849.291"/>
<polygon fill="none" stroke="#404040" points="414.895,-849.228 408.319,-846.267 408.524,-839.058 415.099,-842.02 414.895,-849.228"/>
<text text-anchor="middle" x="523.478" y="-1046" font-family="Helvetica,sans-Serif" font-size="10.00"> +forceEnemyMove</text>
<text text-anchor="middle" x="523.478" y="-1035" font-family="Helvetica,sans-Serif" font-size="10.00">+forceCriticalHits</text>
</g>
<!-- Node7 -->
<g id="node6" class="node"><title>Node7</title>
<polygon fill="none" stroke="#bfbfbf" points="312.978,-1083.5 312.978,-1140.5 341.978,-1140.5 341.978,-1083.5 312.978,-1083.5"/>
<text text-anchor="middle" x="327.478" y="-1128.5" font-family="Helvetica,sans-Serif" font-size="10.00">int</text>
<polyline fill="none" stroke="#bfbfbf" points="312.978,-1121.5 341.978,-1121.5 "/>
<text text-anchor="middle" x="327.478" y="-1109.5" font-family="Helvetica,sans-Serif" font-size="10.00"> </text>
<polyline fill="none" stroke="#bfbfbf" points="312.978,-1102.5 341.978,-1102.5 "/>
<text text-anchor="middle" x="327.478" y="-1090.5" font-family="Helvetica,sans-Serif" font-size="10.00"> </text>
</g>
<!-- Node7&#45;&gt;Node4 -->
<g id="edge6" class="edge"><title>Node7&#45;&gt;Node4</title>
<path fill="none" stroke="#404040" d="M312.875,-1107.81C277.372,-1099.27 186.037,-1072.47 139.478,-1014 118.534,-987.699 100.116,-907.169 88.2844,-843.756"/>
<polygon fill="none" stroke="#404040" points="88.2433,-843.532 83.2271,-838.351 86.0798,-831.728 91.096,-836.909 88.2433,-843.532"/>
<text text-anchor="middle" x="157.478" y="-955" font-family="Helvetica,sans-Serif" font-size="10.00"> &#45;money</text>
</g>
<!-- Node7&#45;&gt;Node8 -->
<g id="edge26" class="edge"><title>Node7&#45;&gt;Node8</title>
<path fill="none" stroke="#404040" d="M312.916,-1085.47C303.313,-1068.64 290.267,-1045.77 277.892,-1024.08"/>
<polygon fill="none" stroke="#404040" points="277.835,-1023.98 271.387,-1020.75 271.888,-1013.56 278.336,-1016.79 277.835,-1023.98"/>
<text text-anchor="middle" x="331.978" y="-1046" font-family="Helvetica,sans-Serif" font-size="10.00"> &#45;expToNextLevel</text>
<text text-anchor="middle" x="331.978" y="-1035" font-family="Helvetica,sans-Serif" font-size="10.00">&#45;exp</text>
</g>
<!-- Node7&#45;&gt;Node9 -->
<g id="edge10" class="edge"><title>Node7&#45;&gt;Node9</title>
<path fill="none" stroke="#404040" d="M342.002,-1109.38C385.912,-1104.15 515.771,-1086.19 540.478,-1054 589.332,-990.353 550.995,-408.711 527.478,-332 517.45,-299.291 496.668,-267.964 476.064,-242.735"/>
<polygon fill="none" stroke="#404040" points="475.918,-242.561 468.996,-240.541 468.198,-233.374 475.12,-235.394 475.918,-242.561"/>
<text text-anchor="middle" x="596.978" y="-638" font-family="Helvetica,sans-Serif" font-size="10.00"> #speed</text>
<text text-anchor="middle" x="596.978" y="-627" font-family="Helvetica,sans-Serif" font-size="10.00">#luck</text>
<text text-anchor="middle" x="596.978" y="-616" font-family="Helvetica,sans-Serif" font-size="10.00">#health</text>
<text text-anchor="middle" x="596.978" y="-605" font-family="Helvetica,sans-Serif" font-size="10.00">#magic</text>
<text text-anchor="middle" x="596.978" y="-594" font-family="Helvetica,sans-Serif" font-size="10.00">#maximumMagic</text>
<text text-anchor="middle" x="596.978" y="-583" font-family="Helvetica,sans-Serif" font-size="10.00">#attack</text>
<text text-anchor="middle" x="596.978" y="-572" font-family="Helvetica,sans-Serif" font-size="10.00">#defence</text>
<text text-anchor="middle" x="596.978" y="-561" font-family="Helvetica,sans-Serif" font-size="10.00">#level</text>
</g>
<!-- Node7&#45;&gt;Node10 -->
<g id="edge24" class="edge"><title>Node7&#45;&gt;Node10</title>
<path fill="none" stroke="#404040" d="M342.113,-1103.53C367.314,-1089.76 418.239,-1057.73 439.478,-1014 488.61,-912.835 478.559,-570.483 472.392,-434.679"/>
<polygon fill="none" stroke="#404040" points="472.387,-434.564 468.112,-428.757 471.828,-422.577 476.103,-428.385 472.387,-434.564"/>
<text text-anchor="middle" x="495.978" y="-756.5" font-family="Helvetica,sans-Serif" font-size="10.00"> #magic</text>
</g>
<!-- Node7&#45;&gt;Node12 -->
<g id="edge20" class="edge"><title>Node7&#45;&gt;Node12</title>
<path fill="none" stroke="#404040" d="M342.032,-1096.91C352.241,-1086.15 365.301,-1070.4 372.478,-1054 380.673,-1035.27 403.664,-892.01 399.478,-872 399.025,-869.835 398.528,-867.661 397.991,-865.481"/>
<polygon fill="none" stroke="#404040" points="397.96,-865.369 392.505,-860.652 394.762,-853.803 400.216,-858.52 397.96,-865.369"/>
<text text-anchor="middle" x="418.978" y="-955" font-family="Helvetica,sans-Serif" font-size="10.00"> +money</text>
</g>
<!-- Node13 -->
<g id="node12" class="node"><title>Node13</title>
<g id="a_node12"><a xlink:href="class_enemy.html" target="_top" xlink:title="Defines an AI controller enemy to fight in battle scenes">
<polygon fill="none" stroke="black" points="262.978,-0.5 262.978,-57.5 329.978,-57.5 329.978,-0.5 262.978,-0.5"/>
<text text-anchor="middle" x="296.478" y="-45.5" font-family="Helvetica,sans-Serif" font-size="10.00">Enemy</text>
<polyline fill="none" stroke="black" points="262.978,-38.5 329.978,-38.5 "/>
<text text-anchor="start" x="270.978" y="-26.5" font-family="Helvetica,sans-Serif" font-size="10.00">+ ExpGiven</text>
<polyline fill="none" stroke="black" points="262.978,-19.5 329.978,-19.5 "/>
<text text-anchor="start" x="270.978" y="-7.5" font-family="Helvetica,sans-Serif" font-size="10.00">+ Enemy()</text>
</a>
</g>
</g>
<!-- Node7&#45;&gt;Node13 -->
<g id="edge19" class="edge"><title>Node7&#45;&gt;Node13</title>
<path fill="none" stroke="#404040" d="M312.858,-1110.02C270.77,-1106.3 149.108,-1089.22 98.478,-1014 69.5862,-971.077 96.8374,-945.523 70.478,-901 54.7747,-874.476 34.6013,-880.859 19.478,-854 -1.43407,-816.86 0.478023,-802.623 0.478023,-760 0.478023,-760 0.478023,-760 0.478023,-183.5 0.478023,-72.1385 167.628,-41.4642 250.714,-33.0956"/>
<polygon fill="none" stroke="#404040" points="250.862,-33.082 256.468,-28.5457 262.811,-31.9753 257.206,-36.5116 250.862,-33.082"/>
<text text-anchor="middle" x="23.478" y="-497.5" font-family="Helvetica,sans-Serif" font-size="10.00"> &#45;expGiven</text>
</g>
<!-- Node8&#45;&gt;Node4 -->
<g id="edge7" class="edge"><title>Node8&#45;&gt;Node4</title>
<path fill="none" stroke="#404040" d="M184.233,-910.454C165.63,-893.748 145.587,-874.032 129.478,-854 126.345,-850.105 123.273,-846.011 120.282,-841.802"/>
<polygon fill="none" stroke="#404040" points="120.227,-841.722 113.541,-839.022 113.461,-831.811 120.148,-834.511 120.227,-841.722"/>
<text text-anchor="middle" x="173.478" y="-875" font-family="Helvetica,sans-Serif" font-size="10.00"> &#45;players</text>
</g>
<!-- Node8&#45;&gt;Node12 -->
<g id="edge22" class="edge"><title>Node8&#45;&gt;Node12</title>
<path fill="none" stroke="#404040" d="M271.412,-901.241C277.915,-889.623 284.978,-877.007 292.117,-864.255"/>
<polygon fill="none" stroke="#404040" points="292.258,-864.001 291.699,-856.812 298.12,-853.53 298.68,-860.72 292.258,-864.001"/>
<text text-anchor="middle" x="302.978" y="-875" font-family="Helvetica,sans-Serif" font-size="10.00"> &#45;player</text>
</g>
<!-- Node9&#45;&gt;Node8 -->
<g id="edge8" class="edge"><title>Node9&#45;&gt;Node8</title>
<path fill="none" stroke="midnightblue" d="M364.686,-224.67C332.145,-250.941 293.806,-288.608 274.478,-332 229.525,-432.922 234.556,-768.016 238.51,-901.212"/>
<polygon fill="none" stroke="midnightblue" points="367.146,-227.187 372.82,-218.24 362.804,-221.696 367.146,-227.187"/>
</g>
<!-- Node9&#45;&gt;Node11 -->
<g id="edge14" class="edge"><title>Node9&#45;&gt;Node11</title>
<path fill="none" stroke="#404040" d="M390.194,-273.694C384.91,-292.704 380.231,-312.847 377.478,-332 371.724,-372.033 373.544,-382.747 377.478,-423 378.278,-431.184 379.551,-439.794 381.026,-448.159"/>
<polygon fill="none" stroke="#404040" points="381.067,-448.372 386.114,-453.523 383.3,-460.162 378.253,-455.012 381.067,-448.372"/>
<text text-anchor="middle" x="394.478" y="-380.5" font-family="Helvetica,sans-Serif" font-size="10.00"> #target</text>
<text text-anchor="middle" x="394.478" y="-369.5" font-family="Helvetica,sans-Serif" font-size="10.00">#user</text>
</g>
<!-- Node9&#45;&gt;Node13 -->
<g id="edge18" class="edge"><title>Node9&#45;&gt;Node13</title>
<path fill="none" stroke="midnightblue" d="M366.518,-116.702C349.76,-95.9576 332.205,-74.2261 318.862,-57.7088"/>
<polygon fill="none" stroke="midnightblue" points="363.884,-119.012 372.891,-124.592 369.33,-114.614 363.884,-119.012"/>
</g>
<!-- Node10&#45;&gt;Node9 -->
<g id="edge11" class="edge"><title>Node10&#45;&gt;Node9</title>
<path fill="none" stroke="#404040" d="M458.113,-332.201C454.496,-318.101 450.336,-301.887 446.131,-285.496"/>
<polygon fill="none" stroke="#404040" points="446.051,-285.181 440.685,-280.363 443.069,-273.557 448.434,-278.375 446.051,-285.181"/>
<text text-anchor="middle" x="474.978" y="-306" font-family="Helvetica,sans-Serif" font-size="10.00"> #special1</text>
<text text-anchor="middle" x="474.978" y="-295" font-family="Helvetica,sans-Serif" font-size="10.00">#special2</text>
</g>
<!-- Node11&#45;&gt;Node10 -->
<g id="edge12" class="edge"><title>Node11&#45;&gt;Node10</title>
<path fill="none" stroke="midnightblue" d="M422.762,-451.607C428.856,-442.07 435.238,-432.083 441.259,-422.661"/>
<polygon fill="none" stroke="midnightblue" points="419.7,-449.899 417.265,-460.21 425.599,-453.668 419.7,-449.899"/>
</g>
<!-- Node12&#45;&gt;Node11 -->
<g id="edge15" class="edge"><title>Node12&#45;&gt;Node11</title>
<path fill="none" stroke="#404040" d="M362.469,-664.388C367.195,-630.745 373.039,-592.579 379.478,-558 379.879,-555.848 380.304,-553.655 380.747,-551.442"/>
<polygon fill="none" stroke="#404040" points="380.779,-551.29 378.098,-544.595 383.246,-539.546 385.927,-546.24 380.779,-551.29"/>
<text text-anchor="middle" x="402.478" y="-599.5" font-family="Helvetica,sans-Serif" font-size="10.00"> #manager</text>
</g>
<!-- Node13&#45;&gt;Node12 -->
<g id="edge17" class="edge"><title>Node13&#45;&gt;Node12</title>
<path fill="none" stroke="#404040" d="M296.478,-57.7302C296.478,-88.4721 296.478,-139.529 296.478,-183.5 296.478,-501 296.478,-501 296.478,-501 296.478,-551.539 306.603,-606.498 318.084,-652.572"/>
<polygon fill="none" stroke="#404040" points="318.134,-652.767 323.496,-657.589 321.108,-664.393 315.746,-659.571 318.134,-652.767"/>
<text text-anchor="middle" x="314.478" y="-375" font-family="Helvetica,sans-Serif" font-size="10.00"> &#45;enemy</text>
</g>
<!-- Node14 -->
<g id="node13" class="node"><title>Node14</title>
<polygon fill="none" stroke="#bfbfbf" points="314.978,-929 314.978,-986 349.978,-986 349.978,-929 314.978,-929"/>
<text text-anchor="middle" x="332.478" y="-974" font-family="Helvetica,sans-Serif" font-size="10.00">bool</text>
<polyline fill="none" stroke="#bfbfbf" points="314.978,-967 349.978,-967 "/>
<text text-anchor="middle" x="332.478" y="-955" font-family="Helvetica,sans-Serif" font-size="10.00"> </text>
<polyline fill="none" stroke="#bfbfbf" points="314.978,-948 349.978,-948 "/>
<text text-anchor="middle" x="332.478" y="-936" font-family="Helvetica,sans-Serif" font-size="10.00"> </text>
</g>
<!-- Node14&#45;&gt;Node12 -->
<g id="edge21" class="edge"><title>Node14&#45;&gt;Node12</title>
<path fill="none" stroke="#404040" d="M331.838,-928.672C331.7,-912.172 331.942,-890.863 333.478,-872 333.645,-869.945 333.827,-867.87 334.023,-865.781"/>
<polygon fill="none" stroke="#404040" points="334.039,-865.628 330.679,-859.248 335.277,-853.693 338.637,-860.073 334.039,-865.628"/>
<text text-anchor="middle" x="366.478" y="-875" font-family="Helvetica,sans-Serif" font-size="10.00"> &#45;wasCriticalHit</text>
</g>
</g>
</svg>
