<?xml version="1.0" encoding="UTF-8" standalone="no"?>
<!DOCTYPE svg PUBLIC "-//W3C//DTD SVG 1.1//EN"
 "http://www.w3.org/Graphics/SVG/1.1/DTD/svg11.dtd">
<!-- Generated by graphviz version 2.38.0 (20140413.2041)
 -->
<!-- Title: StandardAttack Pages: 1 -->
<svg width="832pt" height="1035pt"
 viewBox="0.00 0.00 832.00 1035.00" xmlns="http://www.w3.org/2000/svg" xmlns:xlink="http://www.w3.org/1999/xlink">
<g id="graph0" class="graph" transform="scale(1 1) rotate(0) translate(4 1031)">
<title>StandardAttack</title>
<!-- Node2 -->
<g id="node1" class="node"><title>Node2</title>
<polygon fill="#bfbfbf" stroke="black" points="351.5,-635.5 351.5,-703.5 450.5,-703.5 450.5,-635.5 351.5,-635.5"/>
<text text-anchor="middle" x="401" y="-691.5" font-family="Helvetica,sans-Serif" font-size="10.00">StandardAttack</text>
<polyline fill="none" stroke="black" points="351.5,-684.5 450.5,-684.5 "/>
<text text-anchor="middle" x="401" y="-672.5" font-family="Helvetica,sans-Serif" font-size="10.00"> </text>
<polyline fill="none" stroke="black" points="351.5,-665.5 450.5,-665.5 "/>
<text text-anchor="start" x="359.5" y="-653.5" font-family="Helvetica,sans-Serif" font-size="10.00">+ StandardAttack()</text>
<text text-anchor="start" x="359.5" y="-642.5" font-family="Helvetica,sans-Serif" font-size="10.00">+ performMove()</text>
</g>
<!-- Node3 -->
<g id="node2" class="node"><title>Node3</title>
<g id="a_node2"><a xlink:href="class_character_move.html" target="_top" xlink:title="Astract base class for character moves ">
<polygon fill="none" stroke="black" points="110,-831.5 110,-910.5 196,-910.5 196,-831.5 110,-831.5"/>
<text text-anchor="middle" x="153" y="-898.5" font-family="Helvetica,sans-Serif" font-size="10.00">CharacterMove</text>
<polyline fill="none" stroke="black" points="110,-891.5 196,-891.5 "/>
<text text-anchor="start" x="118" y="-879.5" font-family="Helvetica,sans-Serif" font-size="10.00">+ User</text>
<text text-anchor="start" x="118" y="-868.5" font-family="Helvetica,sans-Serif" font-size="10.00">+ Target</text>
<text text-anchor="start" x="118" y="-857.5" font-family="Helvetica,sans-Serif" font-size="10.00">+ Text</text>
<polyline fill="none" stroke="black" points="110,-850.5 196,-850.5 "/>
<text text-anchor="start" x="118" y="-838.5" font-family="Helvetica,sans-Serif" font-size="10.00">+ performMove()</text>
</a>
</g>
</g>
<!-- Node3&#45;&gt;Node2 -->
<g id="edge1" class="edge"><title>Node3&#45;&gt;Node2</title>
<path fill="none" stroke="midnightblue" d="M183.79,-822.723C209.417,-783.438 241.898,-733.818 243,-733 265.702,-716.159 277.531,-724.919 304,-715 319.615,-709.149 336.239,-701.912 351.234,-694.986"/>
<polygon fill="none" stroke="midnightblue" points="180.641,-821.146 178.11,-831.434 186.504,-824.969 180.641,-821.146"/>
</g>
<!-- Node7 -->
<g id="node6" class="node"><title>Node7</title>
<g id="a_node6"><a xlink:href="class_special_move.html" target="_top" xlink:title="Special move abstract base class that expands upon CharacterMove, adding magic properties ...">
<polygon fill="none" stroke="black" points="197,-624.5 197,-714.5 295,-714.5 295,-624.5 197,-624.5"/>
<text text-anchor="middle" x="246" y="-702.5" font-family="Helvetica,sans-Serif" font-size="10.00">SpecialMove</text>
<polyline fill="none" stroke="black" points="197,-695.5 295,-695.5 "/>
<text text-anchor="start" x="205" y="-683.5" font-family="Helvetica,sans-Serif" font-size="10.00">+ Magic</text>
<text text-anchor="start" x="205" y="-672.5" font-family="Helvetica,sans-Serif" font-size="10.00">+ Desc</text>
<polyline fill="none" stroke="black" points="197,-665.5 295,-665.5 "/>
<text text-anchor="start" x="205" y="-653.5" font-family="Helvetica,sans-Serif" font-size="10.00">+ setUp()</text>
<text text-anchor="start" x="205" y="-642.5" font-family="Helvetica,sans-Serif" font-size="10.00">+ decreaseMagic()</text>
<text text-anchor="start" x="205" y="-631.5" font-family="Helvetica,sans-Serif" font-size="10.00"># SpecialMove()</text>
</a>
</g>
</g>
<!-- Node3&#45;&gt;Node7 -->
<g id="edge7" class="edge"><title>Node3&#45;&gt;Node7</title>
<path fill="none" stroke="midnightblue" d="M160.432,-821.233C165.947,-794.089 175.152,-760.361 190,-733 193.405,-726.725 197.558,-720.563 202.048,-714.7"/>
<polygon fill="none" stroke="midnightblue" points="156.951,-820.805 158.495,-831.286 163.824,-822.129 156.951,-820.805"/>
</g>
<!-- Node4 -->
<g id="node3" class="node"><title>Node4</title>
<polygon fill="none" stroke="#bfbfbf" points="211.5,-969.5 211.5,-1026.5 252.5,-1026.5 252.5,-969.5 211.5,-969.5"/>
<text text-anchor="middle" x="232" y="-1014.5" font-family="Helvetica,sans-Serif" font-size="10.00">string</text>
<polyline fill="none" stroke="#bfbfbf" points="211.5,-1007.5 252.5,-1007.5 "/>
<text text-anchor="middle" x="232" y="-995.5" font-family="Helvetica,sans-Serif" font-size="10.00"> </text>
<polyline fill="none" stroke="#bfbfbf" points="211.5,-988.5 252.5,-988.5 "/>
<text text-anchor="middle" x="232" y="-976.5" font-family="Helvetica,sans-Serif" font-size="10.00"> </text>
</g>
<!-- Node4&#45;&gt;Node3 -->
<g id="edge2" class="edge"><title>Node4&#45;&gt;Node3</title>
<path fill="none" stroke="#404040" d="M211.452,-974.903C205.147,-967.58 198.443,-959.2 193,-951 186.947,-941.88 181.166,-931.722 175.975,-921.808"/>
<polygon fill="none" stroke="#404040" points="175.813,-921.489 169.531,-917.949 170.382,-910.788 176.664,-914.328 175.813,-921.489"/>
<text text-anchor="middle" x="205.5" y="-937.5" font-family="Helvetica,sans-Serif" font-size="10.00"> #text</text>
</g>
<!-- Node5 -->
<g id="node4" class="node"><title>Node5</title>
<g id="a_node4"><a xlink:href="class_character.html" target="_top" xlink:title="Base abstract class for Enemy and Player to inherit from. Defines all shared variables, their constructor and their setters and getters ">
<polygon fill="none" stroke="black" points="324.5,-387.5 324.5,-565.5 419.5,-565.5 419.5,-387.5 324.5,-387.5"/>
<text text-anchor="middle" x="372" y="-553.5" font-family="Helvetica,sans-Serif" font-size="10.00">Character</text>
<polyline fill="none" stroke="black" points="324.5,-546.5 419.5,-546.5 "/>
<text text-anchor="start" x="332.5" y="-534.5" font-family="Helvetica,sans-Serif" font-size="10.00">+ Name</text>
<text text-anchor="start" x="332.5" y="-523.5" font-family="Helvetica,sans-Serif" font-size="10.00">+ Level</text>
<text text-anchor="start" x="332.5" y="-512.5" font-family="Helvetica,sans-Serif" font-size="10.00">+ Health</text>
<text text-anchor="start" x="332.5" y="-501.5" font-family="Helvetica,sans-Serif" font-size="10.00">+ Attack</text>
<text text-anchor="start" x="332.5" y="-490.5" font-family="Helvetica,sans-Serif" font-size="10.00">+ Defence</text>
<text text-anchor="start" x="332.5" y="-479.5" font-family="Helvetica,sans-Serif" font-size="10.00">+ MaximumMagic</text>
<text text-anchor="start" x="332.5" y="-468.5" font-family="Helvetica,sans-Serif" font-size="10.00">+ Magic</text>
<text text-anchor="start" x="332.5" y="-457.5" font-family="Helvetica,sans-Serif" font-size="10.00">+ Luck</text>
<text text-anchor="start" x="332.5" y="-446.5" font-family="Helvetica,sans-Serif" font-size="10.00">+ Speed</text>
<text text-anchor="start" x="332.5" y="-435.5" font-family="Helvetica,sans-Serif" font-size="10.00">+ Special1</text>
<text text-anchor="start" x="332.5" y="-424.5" font-family="Helvetica,sans-Serif" font-size="10.00">+ Special2</text>
<text text-anchor="start" x="332.5" y="-413.5" font-family="Helvetica,sans-Serif" font-size="10.00">+ Image</text>
<polyline fill="none" stroke="black" points="324.5,-406.5 419.5,-406.5 "/>
<text text-anchor="start" x="332.5" y="-394.5" font-family="Helvetica,sans-Serif" font-size="10.00"># Character()</text>
</a>
</g>
</g>
<!-- Node4&#45;&gt;Node5 -->
<g id="edge4" class="edge"><title>Node4&#45;&gt;Node5</title>
<path fill="none" stroke="#404040" d="M246.687,-969.239C255.1,-952.639 265.452,-930.958 273,-911 289.025,-868.631 290.082,-856.963 301,-813 306.665,-790.189 332.356,-667.866 351.212,-577.475"/>
<polygon fill="none" stroke="#404040" points="351.258,-577.253 348.567,-570.562 353.708,-565.505 356.399,-572.196 351.258,-577.253"/>
<text text-anchor="middle" x="344.5" y="-776" font-family="Helvetica,sans-Serif" font-size="10.00"> #image_ref</text>
<text text-anchor="middle" x="344.5" y="-765" font-family="Helvetica,sans-Serif" font-size="10.00">#name</text>
</g>
<!-- Node4&#45;&gt;Node7 -->
<g id="edge8" class="edge"><title>Node4&#45;&gt;Node7</title>
<path fill="none" stroke="#404040" d="M233.182,-969.444C235.47,-916.072 240.548,-797.641 243.581,-726.913"/>
<polygon fill="none" stroke="#404040" points="243.59,-726.703 239.851,-720.537 244.104,-714.714 247.843,-720.88 243.59,-726.703"/>
<text text-anchor="middle" x="254" y="-868.5" font-family="Helvetica,sans-Serif" font-size="10.00"> #desc</text>
</g>
<!-- Node8 -->
<g id="node7" class="node"><title>Node8</title>
<g id="a_node7"><a xlink:href="class_battle_manager.html" target="_top" xlink:title="Holds current Player and Enemy objects in battle and provides functions for MainBattle and other obje...">
<polygon fill="none" stroke="black" points="510,-0.5 510,-189.5 626,-189.5 626,-0.5 510,-0.5"/>
<text text-anchor="middle" x="568" y="-177.5" font-family="Helvetica,sans-Serif" font-size="10.00">BattleManager</text>
<polyline fill="none" stroke="black" points="510,-170.5 626,-170.5 "/>
<text text-anchor="start" x="518" y="-158.5" font-family="Helvetica,sans-Serif" font-size="10.00">+ Player</text>
<text text-anchor="start" x="518" y="-147.5" font-family="Helvetica,sans-Serif" font-size="10.00">+ Enemy</text>
<text text-anchor="start" x="518" y="-136.5" font-family="Helvetica,sans-Serif" font-size="10.00">+ WasCriticalHit</text>
<polyline fill="none" stroke="black" points="510,-129.5 626,-129.5 "/>
<text text-anchor="start" x="518" y="-117.5" font-family="Helvetica,sans-Serif" font-size="10.00">+ BattleManager()</text>
<text text-anchor="start" x="518" y="-106.5" font-family="Helvetica,sans-Serif" font-size="10.00">+ playerFirst()</text>
<text text-anchor="start" x="518" y="-95.5" font-family="Helvetica,sans-Serif" font-size="10.00">+ switchPlayers()</text>
<text text-anchor="start" x="518" y="-84.5" font-family="Helvetica,sans-Serif" font-size="10.00">+ isCriticalHit()</text>
<text text-anchor="start" x="518" y="-73.5" font-family="Helvetica,sans-Serif" font-size="10.00">+ ranAway()</text>
<text text-anchor="start" x="518" y="-62.5" font-family="Helvetica,sans-Serif" font-size="10.00">+ damageCalculation()</text>
<text text-anchor="start" x="518" y="-51.5" font-family="Helvetica,sans-Serif" font-size="10.00">+ enemyMove()</text>
<text text-anchor="start" x="518" y="-40.5" font-family="Helvetica,sans-Serif" font-size="10.00">+ enemySpecialMove()</text>
<text text-anchor="start" x="518" y="-29.5" font-family="Helvetica,sans-Serif" font-size="10.00">+ battleWon()</text>
<text text-anchor="start" x="518" y="-18.5" font-family="Helvetica,sans-Serif" font-size="10.00">+ playerFainted()</text>
<text text-anchor="start" x="518" y="-7.5" font-family="Helvetica,sans-Serif" font-size="10.00">&#45; characterFainted()</text>
</a>
</g>
</g>
<!-- Node4&#45;&gt;Node8 -->
<g id="edge11" class="edge"><title>Node4&#45;&gt;Node8</title>
<path fill="none" stroke="#404040" d="M211.412,-995.576C154.632,-990.426 0,-967.622 0,-872 0,-872 0,-872 0,-292.5 0,-188.239 346.119,-127.014 497.983,-105.168"/>
<polygon fill="none" stroke="#404040" points="498.002,-105.166 503.381,-100.363 509.883,-103.48 504.505,-108.283 498.002,-105.166"/>
<text text-anchor="middle" x="42" y="-598" font-family="Helvetica,sans-Serif" font-size="10.00"> +forceEnemyMove</text>
<text text-anchor="middle" x="42" y="-587" font-family="Helvetica,sans-Serif" font-size="10.00">+forceCriticalHits</text>
</g>
<!-- Node12 -->
<g id="node11" class="node"><title>Node12</title>
<g id="a_node11"><a xlink:href="class_item.html" target="_top" xlink:title="Abstract class for items that can be equipped to a player, increasing some of their stats ...">
<polygon fill="none" stroke="black" points="736.5,-733.5 736.5,-812.5 813.5,-812.5 813.5,-733.5 736.5,-733.5"/>
<text text-anchor="middle" x="775" y="-800.5" font-family="Helvetica,sans-Serif" font-size="10.00">Item</text>
<polyline fill="none" stroke="black" points="736.5,-793.5 813.5,-793.5 "/>
<text text-anchor="start" x="744.5" y="-781.5" font-family="Helvetica,sans-Serif" font-size="10.00">+ Name</text>
<text text-anchor="start" x="744.5" y="-770.5" font-family="Helvetica,sans-Serif" font-size="10.00">+ Desc</text>
<polyline fill="none" stroke="black" points="736.5,-763.5 813.5,-763.5 "/>
<text text-anchor="start" x="744.5" y="-751.5" font-family="Helvetica,sans-Serif" font-size="10.00">+ applyBuffs()</text>
<text text-anchor="start" x="744.5" y="-740.5" font-family="Helvetica,sans-Serif" font-size="10.00">+ revertBuffs()</text>
</a>
</g>
</g>
<!-- Node4&#45;&gt;Node12 -->
<g id="edge20" class="edge"><title>Node4&#45;&gt;Node12</title>
<path fill="none" stroke="#404040" d="M252.701,-993.6C305.64,-984.485 449.694,-957.024 562,-911 639.072,-879.415 659.705,-865.624 726.646,-816.805"/>
<polygon fill="none" stroke="#404040" points="726.717,-816.753 729.205,-809.985 736.409,-809.678 733.921,-816.446 726.717,-816.753"/>
<text text-anchor="middle" x="528" y="-943" font-family="Helvetica,sans-Serif" font-size="10.00"> #desc</text>
<text text-anchor="middle" x="528" y="-932" font-family="Helvetica,sans-Serif" font-size="10.00">#name</text>
</g>
<!-- Node5&#45;&gt;Node3 -->
<g id="edge3" class="edge"><title>Node5&#45;&gt;Node3</title>
<path fill="none" stroke="#404040" d="M324.308,-493.966C271.763,-514.978 189.945,-556.866 154,-624 121.339,-685 129.617,-767.316 140.098,-819.538"/>
<polygon fill="none" stroke="#404040" points="140.144,-819.753 145.305,-824.79 142.641,-831.491 137.48,-826.455 140.144,-819.753"/>
<text text-anchor="middle" x="171" y="-672.5" font-family="Helvetica,sans-Serif" font-size="10.00"> #target</text>
<text text-anchor="middle" x="171" y="-661.5" font-family="Helvetica,sans-Serif" font-size="10.00">#user</text>
</g>
<!-- Node9 -->
<g id="node8" class="node"><title>Node9</title>
<g id="a_node8"><a xlink:href="class_enemy.html" target="_top" xlink:title="Defines an AI controller enemy to fight in battle scenes">
<polygon fill="none" stroke="black" points="486.5,-265 486.5,-322 553.5,-322 553.5,-265 486.5,-265"/>
<text text-anchor="middle" x="520" y="-310" font-family="Helvetica,sans-Serif" font-size="10.00">Enemy</text>
<polyline fill="none" stroke="black" points="486.5,-303 553.5,-303 "/>
<text text-anchor="start" x="494.5" y="-291" font-family="Helvetica,sans-Serif" font-size="10.00">+ ExpGiven</text>
<polyline fill="none" stroke="black" points="486.5,-284 553.5,-284 "/>
<text text-anchor="start" x="494.5" y="-272" font-family="Helvetica,sans-Serif" font-size="10.00">+ Enemy()</text>
</a>
</g>
</g>
<!-- Node5&#45;&gt;Node9 -->
<g id="edge13" class="edge"><title>Node5&#45;&gt;Node9</title>
<path fill="none" stroke="midnightblue" d="M426.14,-409.288C450.69,-379.264 478.389,-345.389 497.295,-322.267"/>
<polygon fill="none" stroke="midnightblue" points="423.263,-407.277 419.643,-417.234 428.682,-411.708 423.263,-407.277"/>
</g>
<!-- Node11 -->
<g id="node10" class="node"><title>Node11</title>
<g id="a_node10"><a xlink:href="class_player.html" target="_top" xlink:title="Defines a playable character for use in battle scenes">
<polygon fill="none" stroke="black" points="572,-237.5 572,-349.5 684,-349.5 684,-237.5 572,-237.5"/>
<text text-anchor="middle" x="628" y="-337.5" font-family="Helvetica,sans-Serif" font-size="10.00">Player</text>
<polyline fill="none" stroke="black" points="572,-330.5 684,-330.5 "/>
<text text-anchor="start" x="580" y="-318.5" font-family="Helvetica,sans-Serif" font-size="10.00">+ Exp</text>
<text text-anchor="start" x="580" y="-307.5" font-family="Helvetica,sans-Serif" font-size="10.00">+ Item</text>
<text text-anchor="start" x="580" y="-296.5" font-family="Helvetica,sans-Serif" font-size="10.00">+ ExpToNextLevel</text>
<polyline fill="none" stroke="black" points="572,-289.5 684,-289.5 "/>
<text text-anchor="start" x="580" y="-277.5" font-family="Helvetica,sans-Serif" font-size="10.00">+ Player()</text>
<text text-anchor="start" x="580" y="-266.5" font-family="Helvetica,sans-Serif" font-size="10.00">+ gainExp()</text>
<text text-anchor="start" x="580" y="-255.5" font-family="Helvetica,sans-Serif" font-size="10.00">+ levelUp()</text>
<text text-anchor="start" x="580" y="-244.5" font-family="Helvetica,sans-Serif" font-size="10.00">&#45; setExpToNextLevel()</text>
</a>
</g>
</g>
<!-- Node5&#45;&gt;Node11 -->
<g id="edge18" class="edge"><title>Node5&#45;&gt;Node11</title>
<path fill="none" stroke="midnightblue" d="M428.373,-441.074C467.088,-416.805 519.195,-382.89 563,-350 565.967,-347.773 568.974,-345.451 571.985,-343.075"/>
<polygon fill="none" stroke="midnightblue" points="426.456,-438.145 419.828,-446.41 430.164,-444.082 426.456,-438.145"/>
</g>
<!-- Node6 -->
<g id="node5" class="node"><title>Node6</title>
<polygon fill="none" stroke="#bfbfbf" points="523.5,-842.5 523.5,-899.5 552.5,-899.5 552.5,-842.5 523.5,-842.5"/>
<text text-anchor="middle" x="538" y="-887.5" font-family="Helvetica,sans-Serif" font-size="10.00">int</text>
<polyline fill="none" stroke="#bfbfbf" points="523.5,-880.5 552.5,-880.5 "/>
<text text-anchor="middle" x="538" y="-868.5" font-family="Helvetica,sans-Serif" font-size="10.00"> </text>
<polyline fill="none" stroke="#bfbfbf" points="523.5,-861.5 552.5,-861.5 "/>
<text text-anchor="middle" x="538" y="-849.5" font-family="Helvetica,sans-Serif" font-size="10.00"> </text>
</g>
<!-- Node6&#45;&gt;Node2 -->
<g id="edge22" class="edge"><title>Node6&#45;&gt;Node2</title>
<path fill="none" stroke="#404040" d="M523.458,-865.4C502.135,-857.902 462.581,-841.003 441,-813 419.356,-784.915 409.424,-745.705 404.865,-715.523"/>
<polygon fill="none" stroke="#404040" points="404.864,-715.508 400.103,-710.092 403.271,-703.614 408.032,-709.03 404.864,-715.508"/>
<text text-anchor="middle" x="457" y="-770.5" font-family="Helvetica,sans-Serif" font-size="10.00"> &#45;power</text>
</g>
<!-- Node6&#45;&gt;Node5 -->
<g id="edge5" class="edge"><title>Node6&#45;&gt;Node5</title>
<path fill="none" stroke="#404040" d="M531.292,-842.316C519.587,-795.975 493.365,-700.273 459,-624 449.48,-602.871 437.639,-580.954 425.789,-560.709"/>
<polygon fill="none" stroke="#404040" points="425.729,-560.608 419.227,-557.49 419.604,-550.289 426.106,-553.407 425.729,-560.608"/>
<text text-anchor="middle" x="531.5" y="-705.5" font-family="Helvetica,sans-Serif" font-size="10.00"> #speed</text>
<text text-anchor="middle" x="531.5" y="-694.5" font-family="Helvetica,sans-Serif" font-size="10.00">#luck</text>
<text text-anchor="middle" x="531.5" y="-683.5" font-family="Helvetica,sans-Serif" font-size="10.00">#health</text>
<text text-anchor="middle" x="531.5" y="-672.5" font-family="Helvetica,sans-Serif" font-size="10.00">#magic</text>
<text text-anchor="middle" x="531.5" y="-661.5" font-family="Helvetica,sans-Serif" font-size="10.00">#maximumMagic</text>
<text text-anchor="middle" x="531.5" y="-650.5" font-family="Helvetica,sans-Serif" font-size="10.00">#attack</text>
<text text-anchor="middle" x="531.5" y="-639.5" font-family="Helvetica,sans-Serif" font-size="10.00">#defence</text>
<text text-anchor="middle" x="531.5" y="-628.5" font-family="Helvetica,sans-Serif" font-size="10.00">#level</text>
</g>
<!-- Node6&#45;&gt;Node7 -->
<g id="edge9" class="edge"><title>Node6&#45;&gt;Node7</title>
<path fill="none" stroke="#404040" d="M523.475,-869.097C472.331,-865.606 301.753,-851.238 266,-813 254.413,-800.608 249.491,-761.254 247.424,-727.035"/>
<polygon fill="none" stroke="#404040" points="247.407,-726.704 243.101,-720.92 246.784,-714.72 251.09,-720.505 247.407,-726.704"/>
<text text-anchor="middle" x="283.5" y="-770.5" font-family="Helvetica,sans-Serif" font-size="10.00"> #magic</text>
</g>
<!-- Node6&#45;&gt;Node8 -->
<g id="edge15" class="edge"><title>Node6&#45;&gt;Node8</title>
<path fill="none" stroke="#404040" d="M549.084,-842.275C551.579,-838.144 554.537,-834.204 558,-831 573.206,-816.928 586.133,-827.43 601,-813 673.504,-742.626 673.628,-704.755 695,-606 729.69,-445.708 751.624,-390.167 693,-237 680.816,-205.168 657.845,-175.891 634.885,-152.362"/>
<polygon fill="none" stroke="#404040" points="634.616,-152.095 627.541,-150.7 626.108,-143.633 633.183,-145.028 634.616,-152.095"/>
<text text-anchor="middle" x="748.5" y="-474" font-family="Helvetica,sans-Serif" font-size="10.00"> +money</text>
</g>
<!-- Node6&#45;&gt;Node9 -->
<g id="edge14" class="edge"><title>Node6&#45;&gt;Node9</title>
<path fill="none" stroke="#404040" d="M546.211,-842.316C554.874,-811.552 567.956,-760.239 573,-715 577.482,-674.805 585.444,-662.483 573,-624 569.964,-614.61 563.629,-615.177 560,-606 523.496,-513.695 518.682,-395.143 518.947,-334.354"/>
<polygon fill="none" stroke="#404040" points="518.947,-334.289 515.009,-328.248 519.071,-322.289 523.009,-328.33 518.947,-334.289"/>
<text text-anchor="middle" x="583" y="-592.5" font-family="Helvetica,sans-Serif" font-size="10.00"> &#45;expGiven</text>
</g>
<!-- Node6&#45;&gt;Node11 -->
<g id="edge21" class="edge"><title>Node6&#45;&gt;Node11</title>
<path fill="none" stroke="#404040" d="M550.953,-842.088C553.122,-838.248 555.491,-834.444 558,-831 564.662,-821.856 570.93,-823.114 576,-813 614.852,-735.493 624.676,-483.398 627.16,-361.591"/>
<polygon fill="none" stroke="#404040" points="627.161,-361.512 623.276,-355.437 627.39,-349.514 631.275,-355.589 627.161,-361.512"/>
<text text-anchor="middle" x="653.5" y="-598" font-family="Helvetica,sans-Serif" font-size="10.00"> &#45;expToNextLevel</text>
<text text-anchor="middle" x="653.5" y="-587" font-family="Helvetica,sans-Serif" font-size="10.00">&#45;exp</text>
</g>
<!-- Node7&#45;&gt;Node5 -->
<g id="edge6" class="edge"><title>Node7&#45;&gt;Node5</title>
<path fill="none" stroke="#404040" d="M250.449,-624.232C253.09,-610.731 257.298,-596.234 264,-584 276.833,-560.573 296.452,-538.991 315.465,-521.469"/>
<polygon fill="none" stroke="#404040" points="315.478,-521.458 317.284,-514.477 324.423,-513.459 322.617,-520.44 315.478,-521.458"/>
<text text-anchor="middle" x="286.5" y="-598" font-family="Helvetica,sans-Serif" font-size="10.00"> #special1</text>
<text text-anchor="middle" x="286.5" y="-587" font-family="Helvetica,sans-Serif" font-size="10.00">#special2</text>
</g>
<!-- Node8&#45;&gt;Node3 -->
<g id="edge10" class="edge"><title>Node8&#45;&gt;Node3</title>
<path fill="none" stroke="#404040" d="M509.549,-107.621C383.825,-134.294 99,-204.439 99,-292.5 99,-670.5 99,-670.5 99,-670.5 99,-735.044 107.25,-751.552 127,-813 127.724,-815.252 128.512,-817.533 129.349,-819.822"/>
<polygon fill="none" stroke="#404040" points="129.448,-820.072 135.375,-824.179 133.863,-831.23 127.936,-827.123 129.448,-820.072"/>
<text text-anchor="middle" x="122" y="-474" font-family="Helvetica,sans-Serif" font-size="10.00"> #manager</text>
</g>
<!-- Node9&#45;&gt;Node8 -->
<g id="edge12" class="edge"><title>Node9&#45;&gt;Node8</title>
<path fill="none" stroke="#404040" d="M526.775,-264.763C530.909,-247.839 536.485,-225.016 542.197,-201.632"/>
<polygon fill="none" stroke="#404040" points="542.25,-201.414 539.788,-194.637 545.097,-189.757 547.559,-196.535 542.25,-201.414"/>
<text text-anchor="middle" x="558" y="-211" font-family="Helvetica,sans-Serif" font-size="10.00"> &#45;enemy</text>
</g>
<!-- Node10 -->
<g id="node9" class="node"><title>Node10</title>
<polygon fill="none" stroke="#bfbfbf" points="743.5,-265 743.5,-322 778.5,-322 778.5,-265 743.5,-265"/>
<text text-anchor="middle" x="761" y="-310" font-family="Helvetica,sans-Serif" font-size="10.00">bool</text>
<polyline fill="none" stroke="#bfbfbf" points="743.5,-303 778.5,-303 "/>
<text text-anchor="middle" x="761" y="-291" font-family="Helvetica,sans-Serif" font-size="10.00"> </text>
<polyline fill="none" stroke="#bfbfbf" points="743.5,-284 778.5,-284 "/>
<text text-anchor="middle" x="761" y="-272" font-family="Helvetica,sans-Serif" font-size="10.00"> </text>
</g>
<!-- Node10&#45;&gt;Node8 -->
<g id="edge16" class="edge"><title>Node10&#45;&gt;Node8</title>
<path fill="none" stroke="#404040" d="M755.041,-264.903C750.213,-247.283 742.026,-224.697 729,-208 704.35,-176.403 668.336,-150.186 636.616,-131.081"/>
<polygon fill="none" stroke="#404040" points="636.396,-130.951 629.196,-131.364 626.047,-124.877 633.246,-124.464 636.396,-130.951"/>
<text text-anchor="middle" x="768" y="-211" font-family="Helvetica,sans-Serif" font-size="10.00"> &#45;wasCriticalHit</text>
</g>
<!-- Node11&#45;&gt;Node8 -->
<g id="edge17" class="edge"><title>Node11&#45;&gt;Node8</title>
<path fill="none" stroke="#404040" d="M611.127,-237.241C607.651,-225.856 603.881,-213.511 600.067,-201.02"/>
<polygon fill="none" stroke="#404040" points="600.063,-201.007 594.485,-196.437 596.559,-189.53 602.137,-194.101 600.063,-201.007"/>
<text text-anchor="middle" x="621.5" y="-211" font-family="Helvetica,sans-Serif" font-size="10.00"> &#45;player</text>
</g>
<!-- Node12&#45;&gt;Node11 -->
<g id="edge19" class="edge"><title>Node12&#45;&gt;Node11</title>
<path fill="none" stroke="#404040" d="M783.798,-733.286C798.202,-660.4 819.469,-499.988 758,-387 743.932,-361.142 719.141,-340.812 694.954,-325.876"/>
<polygon fill="none" stroke="#404040" points="694.634,-325.688 687.434,-326.091 684.293,-319.6 691.493,-319.197 694.634,-325.688"/>
<text text-anchor="middle" x="811.5" y="-592.5" font-family="Helvetica,sans-Serif" font-size="10.00"> &#45;item</text>
</g>
</g>
</svg>
