<?xml version="1.0" encoding="UTF-8" standalone="no"?>
<!DOCTYPE svg PUBLIC "-//W3C//DTD SVG 1.1//EN"
 "http://www.w3.org/Graphics/SVG/1.1/DTD/svg11.dtd">
<!-- Generated by graphviz version 2.38.0 (20140413.2041)
 -->
<!-- Title: GameEventArgs Pages: 1 -->
<svg width="151pt" height="161pt"
 viewBox="0.00 0.00 151.00 161.00" xmlns="http://www.w3.org/2000/svg" xmlns:xlink="http://www.w3.org/1999/xlink">
<g id="graph0" class="graph" transform="scale(1 1) rotate(0) translate(4 157)">
<title>GameEventArgs</title>
<!-- Node12 -->
<g id="node1" class="node"><title>Node12</title>
<polygon fill="#bfbfbf" stroke="black" points="0,-0.5 0,-57.5 87,-57.5 87,-0.5 0,-0.5"/>
<text text-anchor="middle" x="43.5" y="-45.5" font-family="Helvetica,sans-Serif" font-size="10.00">GameEventArgs</text>
<polyline fill="none" stroke="black" points="0,-38.5 87,-38.5 "/>
<text text-anchor="middle" x="43.5" y="-26.5" font-family="Helvetica,sans-Serif" font-size="10.00"> </text>
<polyline fill="none" stroke="black" points="0,-19.5 87,-19.5 "/>
<text text-anchor="middle" x="43.5" y="-7.5" font-family="Helvetica,sans-Serif" font-size="10.00"> </text>
</g>
<!-- Node12&#45;&gt;Node12 -->
<g id="edge2" class="edge"><title>Node12&#45;&gt;Node12</title>
<path fill="none" stroke="#404040" d="M87.1694,-37.4544C97.4301,-36.7596 105,-33.9414 105,-29 105,-26.2977 102.736,-24.2303 99.0062,-22.798"/>
<polygon fill="none" stroke="#404040" points="98.9578,-22.7889 92.3158,-25.5967 87.1694,-20.5456 93.8114,-17.7378 98.9578,-22.7889"/>
<text text-anchor="middle" x="124" y="-26.5" font-family="Helvetica,sans-Serif" font-size="10.00"> +Empty</text>
</g>
<!-- Node13 -->
<g id="node2" class="node"><title>Node13</title>
<g id="a_node2"><a xlink:href="class_event_args.html" target="_top" xlink:title="{EventArgs\n||}">
<polygon fill="none" stroke="black" points="13,-95.5 13,-152.5 74,-152.5 74,-95.5 13,-95.5"/>
<text text-anchor="middle" x="43.5" y="-140.5" font-family="Helvetica,sans-Serif" font-size="10.00">EventArgs</text>
<polyline fill="none" stroke="black" points="13,-133.5 74,-133.5 "/>
<text text-anchor="middle" x="43.5" y="-121.5" font-family="Helvetica,sans-Serif" font-size="10.00"> </text>
<polyline fill="none" stroke="black" points="13,-114.5 74,-114.5 "/>
<text text-anchor="middle" x="43.5" y="-102.5" font-family="Helvetica,sans-Serif" font-size="10.00"> </text>
</a>
</g>
</g>
<!-- Node13&#45;&gt;Node12 -->
<g id="edge1" class="edge"><title>Node13&#45;&gt;Node12</title>
<path fill="none" stroke="midnightblue" d="M43.5,-85.2352C43.5,-76.0276 43.5,-66.3459 43.5,-57.7053"/>
<polygon fill="none" stroke="midnightblue" points="40.0001,-85.3487 43.5,-95.3487 47.0001,-85.3488 40.0001,-85.3487"/>
</g>
</g>
</svg>
