<?xml version="1.0" encoding="UTF-8" standalone="no"?>
<!DOCTYPE svg PUBLIC "-//W3C//DTD SVG 1.1//EN"
 "http://www.w3.org/Graphics/SVG/1.1/DTD/svg11.dtd">
<!-- Generated by graphviz version 2.38.0 (20140413.2041)
 -->
<!-- Title: InteractionArgs Pages: 1 -->
<svg width="105pt" height="276pt"
 viewBox="0.00 0.00 105.00 276.00" xmlns="http://www.w3.org/2000/svg" xmlns:xlink="http://www.w3.org/1999/xlink">
<g id="graph0" class="graph" transform="scale(1 1) rotate(0) translate(4 272)">
<title>InteractionArgs</title>
<!-- Node0 -->
<g id="node1" class="node"><title>Node0</title>
<polygon fill="#bfbfbf" stroke="black" points="0,-0.5 0,-79.5 97,-79.5 97,-0.5 0,-0.5"/>
<text text-anchor="middle" x="48.5" y="-67.5" font-family="Helvetica,sans-Serif" font-size="10.00">InteractionArgs</text>
<polyline fill="none" stroke="black" points="0,-60.5 97,-60.5 "/>
<text text-anchor="start" x="8" y="-48.5" font-family="Helvetica,sans-Serif" font-size="10.00">+ name</text>
<text text-anchor="start" x="8" y="-37.5" font-family="Helvetica,sans-Serif" font-size="10.00">+ interaction</text>
<text text-anchor="start" x="8" y="-26.5" font-family="Helvetica,sans-Serif" font-size="10.00">&#45; scene</text>
<polyline fill="none" stroke="black" points="0,-19.5 97,-19.5 "/>
<text text-anchor="start" x="8" y="-7.5" font-family="Helvetica,sans-Serif" font-size="10.00">+ InteractionArgs()</text>
</g>
<!-- Node1 -->
<g id="node2" class="node"><title>Node1</title>
<g id="a_node2"><a xlink:href="class_game_event_args.html" target="_top" xlink:title="Base class for passing arguments with game events ">
<polygon fill="none" stroke="black" points="5,-116.5 5,-173.5 92,-173.5 92,-116.5 5,-116.5"/>
<text text-anchor="middle" x="48.5" y="-161.5" font-family="Helvetica,sans-Serif" font-size="10.00">GameEventArgs</text>
<polyline fill="none" stroke="black" points="5,-154.5 92,-154.5 "/>
<text text-anchor="start" x="13" y="-142.5" font-family="Helvetica,sans-Serif" font-size="10.00">+ Empty</text>
<polyline fill="none" stroke="black" points="5,-135.5 92,-135.5 "/>
<text text-anchor="middle" x="48.5" y="-123.5" font-family="Helvetica,sans-Serif" font-size="10.00"> </text>
</a>
</g>
</g>
<!-- Node1&#45;&gt;Node0 -->
<g id="edge1" class="edge"><title>Node1&#45;&gt;Node0</title>
<path fill="none" stroke="midnightblue" d="M48.5,-106.156C48.5,-97.4733 48.5,-88.2318 48.5,-79.5205"/>
<polygon fill="none" stroke="midnightblue" points="45.0001,-106.398 48.5,-116.398 52.0001,-106.398 45.0001,-106.398"/>
</g>
<!-- Node2 -->
<g id="node3" class="node"><title>Node2</title>
<g id="a_node3"><a xlink:href="class_event_args.html" target="_top" xlink:title="{EventArgs\n||}">
<polygon fill="none" stroke="black" points="18,-210.5 18,-267.5 79,-267.5 79,-210.5 18,-210.5"/>
<text text-anchor="middle" x="48.5" y="-255.5" font-family="Helvetica,sans-Serif" font-size="10.00">EventArgs</text>
<polyline fill="none" stroke="black" points="18,-248.5 79,-248.5 "/>
<text text-anchor="middle" x="48.5" y="-236.5" font-family="Helvetica,sans-Serif" font-size="10.00"> </text>
<polyline fill="none" stroke="black" points="18,-229.5 79,-229.5 "/>
<text text-anchor="middle" x="48.5" y="-217.5" font-family="Helvetica,sans-Serif" font-size="10.00"> </text>
</a>
</g>
</g>
<!-- Node2&#45;&gt;Node1 -->
<g id="edge2" class="edge"><title>Node2&#45;&gt;Node1</title>
<path fill="none" stroke="midnightblue" d="M48.5,-200.209C48.5,-191.293 48.5,-181.951 48.5,-173.584"/>
<polygon fill="none" stroke="midnightblue" points="45.0001,-200.397 48.5,-210.397 52.0001,-200.397 45.0001,-200.397"/>
</g>
</g>
</svg>
