<?xml version="1.0" encoding="UTF-8" standalone="no"?>
<!DOCTYPE svg PUBLIC "-//W3C//DTD SVG 1.1//EN"
 "http://www.w3.org/Graphics/SVG/1.1/DTD/svg11.dtd">
<!-- Generated by graphviz version 2.38.0 (20140413.2041)
 -->
<!-- Title: SwitchPlayers Pages: 1 -->
<svg width="840pt" height="1035pt"
 viewBox="0.00 0.00 840.00 1035.00" xmlns="http://www.w3.org/2000/svg" xmlns:xlink="http://www.w3.org/1999/xlink">
<g id="graph0" class="graph" transform="scale(1 1) rotate(0) translate(4 1031)">
<title>SwitchPlayers</title>
<!-- Node2 -->
<g id="node1" class="node"><title>Node2</title>
<polygon fill="#bfbfbf" stroke="black" points="127,-635.5 127,-703.5 221,-703.5 221,-635.5 127,-635.5"/>
<text text-anchor="middle" x="174" y="-691.5" font-family="Helvetica,sans-Serif" font-size="10.00">SwitchPlayers</text>
<polyline fill="none" stroke="black" points="127,-684.5 221,-684.5 "/>
<text text-anchor="middle" x="174" y="-672.5" font-family="Helvetica,sans-Serif" font-size="10.00"> </text>
<polyline fill="none" stroke="black" points="127,-665.5 221,-665.5 "/>
<text text-anchor="start" x="135" y="-653.5" font-family="Helvetica,sans-Serif" font-size="10.00">+ SwitchPlayers()</text>
<text text-anchor="start" x="135" y="-642.5" font-family="Helvetica,sans-Serif" font-size="10.00">+ performMove()</text>
</g>
<!-- Node3 -->
<g id="node2" class="node"><title>Node3</title>
<g id="a_node2"><a xlink:href="class_character_move.html" target="_top" xlink:title="Astract base class for character moves ">
<polygon fill="none" stroke="black" points="214,-831.5 214,-910.5 300,-910.5 300,-831.5 214,-831.5"/>
<text text-anchor="middle" x="257" y="-898.5" font-family="Helvetica,sans-Serif" font-size="10.00">CharacterMove</text>
<polyline fill="none" stroke="black" points="214,-891.5 300,-891.5 "/>
<text text-anchor="start" x="222" y="-879.5" font-family="Helvetica,sans-Serif" font-size="10.00">+ User</text>
<text text-anchor="start" x="222" y="-868.5" font-family="Helvetica,sans-Serif" font-size="10.00">+ Target</text>
<text text-anchor="start" x="222" y="-857.5" font-family="Helvetica,sans-Serif" font-size="10.00">+ Text</text>
<polyline fill="none" stroke="black" points="214,-850.5 300,-850.5 "/>
<text text-anchor="start" x="222" y="-838.5" font-family="Helvetica,sans-Serif" font-size="10.00">+ performMove()</text>
</a>
</g>
</g>
<!-- Node3&#45;&gt;Node2 -->
<g id="edge1" class="edge"><title>Node3&#45;&gt;Node2</title>
<path fill="none" stroke="midnightblue" d="M236.86,-821.591C221.661,-785.059 201.207,-735.896 187.819,-703.716"/>
<polygon fill="none" stroke="midnightblue" points="233.727,-823.172 240.8,-831.061 240.19,-820.484 233.727,-823.172"/>
</g>
<!-- Node7 -->
<g id="node6" class="node"><title>Node7</title>
<g id="a_node6"><a xlink:href="class_special_move.html" target="_top" xlink:title="Special move abstract base class that expands upon CharacterMove, adding magic properties ...">
<polygon fill="none" stroke="black" points="309,-624.5 309,-714.5 407,-714.5 407,-624.5 309,-624.5"/>
<text text-anchor="middle" x="358" y="-702.5" font-family="Helvetica,sans-Serif" font-size="10.00">SpecialMove</text>
<polyline fill="none" stroke="black" points="309,-695.5 407,-695.5 "/>
<text text-anchor="start" x="317" y="-683.5" font-family="Helvetica,sans-Serif" font-size="10.00">+ Magic</text>
<text text-anchor="start" x="317" y="-672.5" font-family="Helvetica,sans-Serif" font-size="10.00">+ Desc</text>
<polyline fill="none" stroke="black" points="309,-665.5 407,-665.5 "/>
<text text-anchor="start" x="317" y="-653.5" font-family="Helvetica,sans-Serif" font-size="10.00">+ setUp()</text>
<text text-anchor="start" x="317" y="-642.5" font-family="Helvetica,sans-Serif" font-size="10.00">+ decreaseMagic()</text>
<text text-anchor="start" x="317" y="-631.5" font-family="Helvetica,sans-Serif" font-size="10.00"># SpecialMove()</text>
</a>
</g>
</g>
<!-- Node3&#45;&gt;Node7 -->
<g id="edge7" class="edge"><title>Node3&#45;&gt;Node7</title>
<path fill="none" stroke="midnightblue" d="M281.236,-822.128C297.794,-789.423 319.57,-746.408 335.699,-714.55"/>
<polygon fill="none" stroke="midnightblue" points="278.108,-820.558 276.714,-831.061 284.353,-823.72 278.108,-820.558"/>
</g>
<!-- Node4 -->
<g id="node3" class="node"><title>Node4</title>
<polygon fill="none" stroke="#bfbfbf" points="337.5,-969.5 337.5,-1026.5 378.5,-1026.5 378.5,-969.5 337.5,-969.5"/>
<text text-anchor="middle" x="358" y="-1014.5" font-family="Helvetica,sans-Serif" font-size="10.00">string</text>
<polyline fill="none" stroke="#bfbfbf" points="337.5,-1007.5 378.5,-1007.5 "/>
<text text-anchor="middle" x="358" y="-995.5" font-family="Helvetica,sans-Serif" font-size="10.00"> </text>
<polyline fill="none" stroke="#bfbfbf" points="337.5,-988.5 378.5,-988.5 "/>
<text text-anchor="middle" x="358" y="-976.5" font-family="Helvetica,sans-Serif" font-size="10.00"> </text>
</g>
<!-- Node4&#45;&gt;Node3 -->
<g id="edge2" class="edge"><title>Node4&#45;&gt;Node3</title>
<path fill="none" stroke="#404040" d="M337.182,-972.793C331.253,-965.806 324.824,-958.139 319,-951 310.982,-941.172 302.514,-930.55 294.5,-920.379"/>
<polygon fill="none" stroke="#404040" points="294.394,-920.245 287.543,-917.995 286.984,-910.806 293.835,-913.055 294.394,-920.245"/>
<text text-anchor="middle" x="331.5" y="-937.5" font-family="Helvetica,sans-Serif" font-size="10.00"> #text</text>
</g>
<!-- Node5 -->
<g id="node4" class="node"><title>Node5</title>
<g id="a_node4"><a xlink:href="class_character.html" target="_top" xlink:title="Base abstract class for Enemy and Player to inherit from. Defines all shared variables, their constructor and their setters and getters ">
<polygon fill="none" stroke="black" points="387.5,-387.5 387.5,-565.5 482.5,-565.5 482.5,-387.5 387.5,-387.5"/>
<text text-anchor="middle" x="435" y="-553.5" font-family="Helvetica,sans-Serif" font-size="10.00">Character</text>
<polyline fill="none" stroke="black" points="387.5,-546.5 482.5,-546.5 "/>
<text text-anchor="start" x="395.5" y="-534.5" font-family="Helvetica,sans-Serif" font-size="10.00">+ Name</text>
<text text-anchor="start" x="395.5" y="-523.5" font-family="Helvetica,sans-Serif" font-size="10.00">+ Level</text>
<text text-anchor="start" x="395.5" y="-512.5" font-family="Helvetica,sans-Serif" font-size="10.00">+ Health</text>
<text text-anchor="start" x="395.5" y="-501.5" font-family="Helvetica,sans-Serif" font-size="10.00">+ Attack</text>
<text text-anchor="start" x="395.5" y="-490.5" font-family="Helvetica,sans-Serif" font-size="10.00">+ Defence</text>
<text text-anchor="start" x="395.5" y="-479.5" font-family="Helvetica,sans-Serif" font-size="10.00">+ MaximumMagic</text>
<text text-anchor="start" x="395.5" y="-468.5" font-family="Helvetica,sans-Serif" font-size="10.00">+ Magic</text>
<text text-anchor="start" x="395.5" y="-457.5" font-family="Helvetica,sans-Serif" font-size="10.00">+ Luck</text>
<text text-anchor="start" x="395.5" y="-446.5" font-family="Helvetica,sans-Serif" font-size="10.00">+ Speed</text>
<text text-anchor="start" x="395.5" y="-435.5" font-family="Helvetica,sans-Serif" font-size="10.00">+ Special1</text>
<text text-anchor="start" x="395.5" y="-424.5" font-family="Helvetica,sans-Serif" font-size="10.00">+ Special2</text>
<text text-anchor="start" x="395.5" y="-413.5" font-family="Helvetica,sans-Serif" font-size="10.00">+ Image</text>
<polyline fill="none" stroke="black" points="387.5,-406.5 482.5,-406.5 "/>
<text text-anchor="start" x="395.5" y="-394.5" font-family="Helvetica,sans-Serif" font-size="10.00"># Character()</text>
</a>
</g>
</g>
<!-- Node4&#45;&gt;Node5 -->
<g id="edge4" class="edge"><title>Node4&#45;&gt;Node5</title>
<path fill="none" stroke="#404040" d="M371.03,-969.323C378.299,-952.752 386.893,-931.071 392,-911 420.455,-799.172 430.266,-666.66 433.549,-577.84"/>
<polygon fill="none" stroke="#404040" points="433.557,-577.597 429.766,-571.463 433.97,-565.604 437.761,-571.738 433.557,-577.597"/>
<text text-anchor="middle" x="448.5" y="-776" font-family="Helvetica,sans-Serif" font-size="10.00"> #image_ref</text>
<text text-anchor="middle" x="448.5" y="-765" font-family="Helvetica,sans-Serif" font-size="10.00">#name</text>
</g>
<!-- Node4&#45;&gt;Node7 -->
<g id="edge8" class="edge"><title>Node4&#45;&gt;Node7</title>
<path fill="none" stroke="#404040" d="M358,-969.444C358,-916.072 358,-797.641 358,-726.913"/>
<polygon fill="none" stroke="#404040" points="358,-726.714 354,-720.714 358,-714.714 362,-720.714 358,-726.714"/>
<text text-anchor="middle" x="373" y="-868.5" font-family="Helvetica,sans-Serif" font-size="10.00"> #desc</text>
</g>
<!-- Node8 -->
<g id="node7" class="node"><title>Node8</title>
<g id="a_node7"><a xlink:href="class_battle_manager.html" target="_top" xlink:title="Holds current Player and Enemy objects in battle and provides functions for MainBattle and other obje...">
<polygon fill="none" stroke="black" points="425,-0.5 425,-189.5 541,-189.5 541,-0.5 425,-0.5"/>
<text text-anchor="middle" x="483" y="-177.5" font-family="Helvetica,sans-Serif" font-size="10.00">BattleManager</text>
<polyline fill="none" stroke="black" points="425,-170.5 541,-170.5 "/>
<text text-anchor="start" x="433" y="-158.5" font-family="Helvetica,sans-Serif" font-size="10.00">+ Player</text>
<text text-anchor="start" x="433" y="-147.5" font-family="Helvetica,sans-Serif" font-size="10.00">+ Enemy</text>
<text text-anchor="start" x="433" y="-136.5" font-family="Helvetica,sans-Serif" font-size="10.00">+ WasCriticalHit</text>
<polyline fill="none" stroke="black" points="425,-129.5 541,-129.5 "/>
<text text-anchor="start" x="433" y="-117.5" font-family="Helvetica,sans-Serif" font-size="10.00">+ BattleManager()</text>
<text text-anchor="start" x="433" y="-106.5" font-family="Helvetica,sans-Serif" font-size="10.00">+ playerFirst()</text>
<text text-anchor="start" x="433" y="-95.5" font-family="Helvetica,sans-Serif" font-size="10.00">+ switchPlayers()</text>
<text text-anchor="start" x="433" y="-84.5" font-family="Helvetica,sans-Serif" font-size="10.00">+ isCriticalHit()</text>
<text text-anchor="start" x="433" y="-73.5" font-family="Helvetica,sans-Serif" font-size="10.00">+ ranAway()</text>
<text text-anchor="start" x="433" y="-62.5" font-family="Helvetica,sans-Serif" font-size="10.00">+ damageCalculation()</text>
<text text-anchor="start" x="433" y="-51.5" font-family="Helvetica,sans-Serif" font-size="10.00">+ enemyMove()</text>
<text text-anchor="start" x="433" y="-40.5" font-family="Helvetica,sans-Serif" font-size="10.00">+ enemySpecialMove()</text>
<text text-anchor="start" x="433" y="-29.5" font-family="Helvetica,sans-Serif" font-size="10.00">+ battleWon()</text>
<text text-anchor="start" x="433" y="-18.5" font-family="Helvetica,sans-Serif" font-size="10.00">+ playerFainted()</text>
<text text-anchor="start" x="433" y="-7.5" font-family="Helvetica,sans-Serif" font-size="10.00">&#45; characterFainted()</text>
</a>
</g>
</g>
<!-- Node4&#45;&gt;Node8 -->
<g id="edge11" class="edge"><title>Node4&#45;&gt;Node8</title>
<path fill="none" stroke="#404040" d="M337.467,-994.404C261.396,-984.224 0,-944.004 0,-872 0,-872 0,-872 0,-292.5 0,-204.493 278.609,-136.82 412.623,-109.36"/>
<polygon fill="none" stroke="#404040" points="412.978,-109.288 418.064,-104.176 424.739,-106.906 419.652,-112.017 412.978,-109.288"/>
<text text-anchor="middle" x="42" y="-598" font-family="Helvetica,sans-Serif" font-size="10.00"> +forceEnemyMove</text>
<text text-anchor="middle" x="42" y="-587" font-family="Helvetica,sans-Serif" font-size="10.00">+forceCriticalHits</text>
</g>
<!-- Node12 -->
<g id="node11" class="node"><title>Node12</title>
<g id="a_node11"><a xlink:href="class_item.html" target="_top" xlink:title="Abstract class for items that can be equipped to a player, increasing some of their stats ...">
<polygon fill="none" stroke="black" points="733.5,-733.5 733.5,-812.5 810.5,-812.5 810.5,-733.5 733.5,-733.5"/>
<text text-anchor="middle" x="772" y="-800.5" font-family="Helvetica,sans-Serif" font-size="10.00">Item</text>
<polyline fill="none" stroke="black" points="733.5,-793.5 810.5,-793.5 "/>
<text text-anchor="start" x="741.5" y="-781.5" font-family="Helvetica,sans-Serif" font-size="10.00">+ Name</text>
<text text-anchor="start" x="741.5" y="-770.5" font-family="Helvetica,sans-Serif" font-size="10.00">+ Desc</text>
<polyline fill="none" stroke="black" points="733.5,-763.5 810.5,-763.5 "/>
<text text-anchor="start" x="741.5" y="-751.5" font-family="Helvetica,sans-Serif" font-size="10.00">+ applyBuffs()</text>
<text text-anchor="start" x="741.5" y="-740.5" font-family="Helvetica,sans-Serif" font-size="10.00">+ revertBuffs()</text>
</a>
</g>
</g>
<!-- Node4&#45;&gt;Node12 -->
<g id="edge20" class="edge"><title>Node4&#45;&gt;Node12</title>
<path fill="none" stroke="#404040" d="M378.721,-992.497C422.784,-982.366 528.201,-955.154 607,-911 650.606,-886.566 693.853,-850.084 725.125,-820.909"/>
<polygon fill="none" stroke="#404040" points="725.302,-820.742 726.917,-813.714 734.025,-812.501 732.41,-819.529 725.302,-820.742"/>
<text text-anchor="middle" x="586" y="-943" font-family="Helvetica,sans-Serif" font-size="10.00"> #desc</text>
<text text-anchor="middle" x="586" y="-932" font-family="Helvetica,sans-Serif" font-size="10.00">#name</text>
</g>
<!-- Node5&#45;&gt;Node3 -->
<g id="edge3" class="edge"><title>Node5&#45;&gt;Node3</title>
<path fill="none" stroke="#404040" d="M387.402,-503.541C347.012,-528.554 291.658,-570.417 266,-624 236.33,-685.961 240.372,-767.101 247.488,-818.906"/>
<polygon fill="none" stroke="#404040" points="247.535,-819.224 252.371,-824.573 249.293,-831.094 244.457,-825.745 247.535,-819.224"/>
<text text-anchor="middle" x="283" y="-672.5" font-family="Helvetica,sans-Serif" font-size="10.00"> #target</text>
<text text-anchor="middle" x="283" y="-661.5" font-family="Helvetica,sans-Serif" font-size="10.00">#user</text>
</g>
<!-- Node9 -->
<g id="node8" class="node"><title>Node9</title>
<g id="a_node8"><a xlink:href="class_enemy.html" target="_top" xlink:title="Defines an AI controller enemy to fight in battle scenes">
<polygon fill="none" stroke="black" points="401.5,-265 401.5,-322 468.5,-322 468.5,-265 401.5,-265"/>
<text text-anchor="middle" x="435" y="-310" font-family="Helvetica,sans-Serif" font-size="10.00">Enemy</text>
<polyline fill="none" stroke="black" points="401.5,-303 468.5,-303 "/>
<text text-anchor="start" x="409.5" y="-291" font-family="Helvetica,sans-Serif" font-size="10.00">+ ExpGiven</text>
<polyline fill="none" stroke="black" points="401.5,-284 468.5,-284 "/>
<text text-anchor="start" x="409.5" y="-272" font-family="Helvetica,sans-Serif" font-size="10.00">+ Enemy()</text>
</a>
</g>
</g>
<!-- Node5&#45;&gt;Node9 -->
<g id="edge13" class="edge"><title>Node5&#45;&gt;Node9</title>
<path fill="none" stroke="midnightblue" d="M435,-377.378C435,-357.039 435,-337.217 435,-322.061"/>
<polygon fill="none" stroke="midnightblue" points="431.5,-377.386 435,-387.386 438.5,-377.386 431.5,-377.386"/>
</g>
<!-- Node11 -->
<g id="node10" class="node"><title>Node11</title>
<g id="a_node10"><a xlink:href="class_player.html" target="_top" xlink:title="Defines a playable character for use in battle scenes">
<polygon fill="none" stroke="black" points="487,-237.5 487,-349.5 599,-349.5 599,-237.5 487,-237.5"/>
<text text-anchor="middle" x="543" y="-337.5" font-family="Helvetica,sans-Serif" font-size="10.00">Player</text>
<polyline fill="none" stroke="black" points="487,-330.5 599,-330.5 "/>
<text text-anchor="start" x="495" y="-318.5" font-family="Helvetica,sans-Serif" font-size="10.00">+ Exp</text>
<text text-anchor="start" x="495" y="-307.5" font-family="Helvetica,sans-Serif" font-size="10.00">+ Item</text>
<text text-anchor="start" x="495" y="-296.5" font-family="Helvetica,sans-Serif" font-size="10.00">+ ExpToNextLevel</text>
<polyline fill="none" stroke="black" points="487,-289.5 599,-289.5 "/>
<text text-anchor="start" x="495" y="-277.5" font-family="Helvetica,sans-Serif" font-size="10.00">+ Player()</text>
<text text-anchor="start" x="495" y="-266.5" font-family="Helvetica,sans-Serif" font-size="10.00">+ gainExp()</text>
<text text-anchor="start" x="495" y="-255.5" font-family="Helvetica,sans-Serif" font-size="10.00">+ levelUp()</text>
<text text-anchor="start" x="495" y="-244.5" font-family="Helvetica,sans-Serif" font-size="10.00">&#45; setExpToNextLevel()</text>
</a>
</g>
</g>
<!-- Node5&#45;&gt;Node11 -->
<g id="edge18" class="edge"><title>Node5&#45;&gt;Node11</title>
<path fill="none" stroke="midnightblue" d="M487.768,-387.065C495.356,-374.348 502.976,-361.577 510.029,-349.757"/>
<polygon fill="none" stroke="midnightblue" points="484.646,-385.466 482.528,-395.847 490.657,-389.053 484.646,-385.466"/>
</g>
<!-- Node6 -->
<g id="node5" class="node"><title>Node6</title>
<polygon fill="none" stroke="#bfbfbf" points="569.5,-842.5 569.5,-899.5 598.5,-899.5 598.5,-842.5 569.5,-842.5"/>
<text text-anchor="middle" x="584" y="-887.5" font-family="Helvetica,sans-Serif" font-size="10.00">int</text>
<polyline fill="none" stroke="#bfbfbf" points="569.5,-880.5 598.5,-880.5 "/>
<text text-anchor="middle" x="584" y="-868.5" font-family="Helvetica,sans-Serif" font-size="10.00"> </text>
<polyline fill="none" stroke="#bfbfbf" points="569.5,-861.5 598.5,-861.5 "/>
<text text-anchor="middle" x="584" y="-849.5" font-family="Helvetica,sans-Serif" font-size="10.00"> </text>
</g>
<!-- Node6&#45;&gt;Node5 -->
<g id="edge5" class="edge"><title>Node6&#45;&gt;Node5</title>
<path fill="none" stroke="#404040" d="M577.125,-842.392C567.912,-807.259 550.984,-749.179 536,-733 522.478,-718.399 507.855,-730.192 495,-715 477.085,-693.828 461.85,-632.58 451.215,-577.587"/>
<polygon fill="none" stroke="#404040" points="451.178,-577.393 446.133,-572.24 448.949,-565.602 453.994,-570.754 451.178,-577.393"/>
<text text-anchor="middle" x="532.5" y="-705.5" font-family="Helvetica,sans-Serif" font-size="10.00"> #speed</text>
<text text-anchor="middle" x="532.5" y="-694.5" font-family="Helvetica,sans-Serif" font-size="10.00">#luck</text>
<text text-anchor="middle" x="532.5" y="-683.5" font-family="Helvetica,sans-Serif" font-size="10.00">#health</text>
<text text-anchor="middle" x="532.5" y="-672.5" font-family="Helvetica,sans-Serif" font-size="10.00">#magic</text>
<text text-anchor="middle" x="532.5" y="-661.5" font-family="Helvetica,sans-Serif" font-size="10.00">#maximumMagic</text>
<text text-anchor="middle" x="532.5" y="-650.5" font-family="Helvetica,sans-Serif" font-size="10.00">#attack</text>
<text text-anchor="middle" x="532.5" y="-639.5" font-family="Helvetica,sans-Serif" font-size="10.00">#defence</text>
<text text-anchor="middle" x="532.5" y="-628.5" font-family="Helvetica,sans-Serif" font-size="10.00">#level</text>
</g>
<!-- Node6&#45;&gt;Node7 -->
<g id="edge9" class="edge"><title>Node6&#45;&gt;Node7</title>
<path fill="none" stroke="#404040" d="M569.382,-863.797C550.737,-855.14 518.784,-837.675 501,-813 479.369,-782.987 501.414,-761.644 478,-733 469.356,-722.425 443.803,-708.561 418.486,-696.578"/>
<polygon fill="none" stroke="#404040" points="418.205,-696.447 411.079,-697.551 407.319,-691.398 414.445,-690.294 418.205,-696.447"/>
<text text-anchor="middle" x="518.5" y="-770.5" font-family="Helvetica,sans-Serif" font-size="10.00"> #magic</text>
</g>
<!-- Node6&#45;&gt;Node8 -->
<g id="edge15" class="edge"><title>Node6&#45;&gt;Node8</title>
<path fill="none" stroke="#404040" d="M596.586,-842.337C598.606,-838.46 600.77,-834.58 603,-831 608.359,-822.398 611.074,-821.222 617,-813 661.507,-751.251 712,-746.617 712,-670.5 712,-670.5 712,-670.5 712,-292.5 712,-207.445 619.891,-151.239 552.506,-121.5"/>
<polygon fill="none" stroke="#404040" points="552.112,-121.331 545.022,-122.644 541.082,-116.604 548.173,-115.291 552.112,-121.331"/>
<text text-anchor="middle" x="731.5" y="-474" font-family="Helvetica,sans-Serif" font-size="10.00"> +money</text>
</g>
<!-- Node6&#45;&gt;Node9 -->
<g id="edge14" class="edge"><title>Node6&#45;&gt;Node9</title>
<path fill="none" stroke="#404040" d="M586.723,-842.289C590.343,-795.909 593.782,-700.153 570,-624 567.205,-615.051 562.864,-614.542 559,-606 516.995,-513.141 532.811,-479.946 491,-387 482.598,-368.322 471.186,-348.763 460.856,-332.468"/>
<polygon fill="none" stroke="#404040" points="460.78,-332.35 454.164,-329.483 454.266,-322.272 460.883,-325.14 460.78,-332.35"/>
<text text-anchor="middle" x="582" y="-592.5" font-family="Helvetica,sans-Serif" font-size="10.00"> &#45;expGiven</text>
</g>
<!-- Node6&#45;&gt;Node11 -->
<g id="edge21" class="edge"><title>Node6&#45;&gt;Node11</title>
<path fill="none" stroke="#404040" d="M592.138,-842.409C594.504,-833.148 596.778,-822.706 598,-813 622.768,-616.296 612.895,-560.872 567,-368 566.486,-365.841 565.939,-363.655 565.364,-361.453"/>
<polygon fill="none" stroke="#404040" points="565.285,-361.168 559.823,-356.459 562.068,-349.607 567.53,-354.315 565.285,-361.168"/>
<text text-anchor="middle" x="648.5" y="-598" font-family="Helvetica,sans-Serif" font-size="10.00"> &#45;expToNextLevel</text>
<text text-anchor="middle" x="648.5" y="-587" font-family="Helvetica,sans-Serif" font-size="10.00">&#45;exp</text>
</g>
<!-- Node7&#45;&gt;Node5 -->
<g id="edge6" class="edge"><title>Node7&#45;&gt;Node5</title>
<path fill="none" stroke="#404040" d="M364.835,-624.374C367.562,-611.157 371.219,-596.784 376,-584 377.905,-578.907 380.023,-573.761 382.292,-568.626"/>
<polygon fill="none" stroke="#404040" points="382.436,-568.315 381.325,-561.19 387.475,-557.424 388.586,-564.55 382.436,-568.315"/>
<text text-anchor="middle" x="398.5" y="-598" font-family="Helvetica,sans-Serif" font-size="10.00"> #special1</text>
<text text-anchor="middle" x="398.5" y="-587" font-family="Helvetica,sans-Serif" font-size="10.00">#special2</text>
</g>
<!-- Node8&#45;&gt;Node3 -->
<g id="edge10" class="edge"><title>Node8&#45;&gt;Node3</title>
<path fill="none" stroke="#404040" d="M424.679,-99.5842C317.256,-109.676 99,-147.966 99,-292.5 99,-670.5 99,-670.5 99,-670.5 99,-739.652 158.06,-798.819 203.962,-834.361"/>
<polygon fill="none" stroke="#404040" points="204.244,-834.574 211.443,-834.992 213.826,-841.798 206.627,-841.38 204.244,-834.574"/>
<text text-anchor="middle" x="122" y="-474" font-family="Helvetica,sans-Serif" font-size="10.00"> #manager</text>
</g>
<!-- Node9&#45;&gt;Node8 -->
<g id="edge12" class="edge"><title>Node9&#45;&gt;Node8</title>
<path fill="none" stroke="#404040" d="M441.775,-264.763C445.909,-247.839 451.485,-225.016 457.197,-201.632"/>
<polygon fill="none" stroke="#404040" points="457.25,-201.414 454.788,-194.637 460.097,-189.757 462.559,-196.535 457.25,-201.414"/>
<text text-anchor="middle" x="473" y="-211" font-family="Helvetica,sans-Serif" font-size="10.00"> &#45;enemy</text>
</g>
<!-- Node10 -->
<g id="node9" class="node"><title>Node10</title>
<polygon fill="none" stroke="#bfbfbf" points="617.5,-265 617.5,-322 652.5,-322 652.5,-265 617.5,-265"/>
<text text-anchor="middle" x="635" y="-310" font-family="Helvetica,sans-Serif" font-size="10.00">bool</text>
<polyline fill="none" stroke="#bfbfbf" points="617.5,-303 652.5,-303 "/>
<text text-anchor="middle" x="635" y="-291" font-family="Helvetica,sans-Serif" font-size="10.00"> </text>
<polyline fill="none" stroke="#bfbfbf" points="617.5,-284 652.5,-284 "/>
<text text-anchor="middle" x="635" y="-272" font-family="Helvetica,sans-Serif" font-size="10.00"> </text>
</g>
<!-- Node10&#45;&gt;Node8 -->
<g id="edge16" class="edge"><title>Node10&#45;&gt;Node8</title>
<path fill="none" stroke="#404040" d="M623.374,-264.867C619.049,-255.703 613.774,-245.642 608,-237 590.988,-211.54 569.705,-185.847 549.549,-163.496"/>
<polygon fill="none" stroke="#404040" points="549.387,-163.319 542.387,-161.586 541.296,-154.458 548.295,-156.191 549.387,-163.319"/>
<text text-anchor="middle" x="627" y="-211" font-family="Helvetica,sans-Serif" font-size="10.00"> &#45;wasCriticalHit</text>
</g>
<!-- Node11&#45;&gt;Node8 -->
<g id="edge17" class="edge"><title>Node11&#45;&gt;Node8</title>
<path fill="none" stroke="#404040" d="M526.127,-237.241C522.651,-225.856 518.881,-213.511 515.067,-201.02"/>
<polygon fill="none" stroke="#404040" points="515.063,-201.007 509.485,-196.437 511.559,-189.53 517.137,-194.101 515.063,-201.007"/>
<text text-anchor="middle" x="537.5" y="-211" font-family="Helvetica,sans-Serif" font-size="10.00"> &#45;player</text>
</g>
<!-- Node12&#45;&gt;Node11 -->
<g id="edge19" class="edge"><title>Node12&#45;&gt;Node11</title>
<path fill="none" stroke="#404040" d="M783.768,-733.478C804.33,-657.691 837.247,-487.844 755,-387 714.748,-337.646 672.729,-376.16 610.397,-350.258"/>
<polygon fill="none" stroke="#404040" points="610.236,-350.183 603.105,-351.256 599.372,-345.087 606.503,-344.013 610.236,-350.183"/>
<text text-anchor="middle" x="819.5" y="-592.5" font-family="Helvetica,sans-Serif" font-size="10.00"> &#45;item</text>
</g>
</g>
</svg>
