<?xml version="1.0" encoding="UTF-8" standalone="no"?>
<!DOCTYPE svg PUBLIC "-//W3C//DTD SVG 1.1//EN"
 "http://www.w3.org/Graphics/SVG/1.1/DTD/svg11.dtd">
<!-- Generated by graphviz version 2.38.0 (20140413.2041)
 -->
<!-- Title: PlayerController Pages: 1 -->
<svg width="241pt" height="182pt"
 viewBox="0.00 0.00 240.50 182.00" xmlns="http://www.w3.org/2000/svg" xmlns:xlink="http://www.w3.org/1999/xlink">
<g id="graph0" class="graph" transform="scale(1 1) rotate(0) translate(4 178)">
<title>PlayerController</title>
<!-- Node2 -->
<g id="node1" class="node"><title>Node2</title>
<polygon fill="#bfbfbf" stroke="black" points="86.5,-0.5 86.5,-68.5 172.5,-68.5 172.5,-0.5 86.5,-0.5"/>
<text text-anchor="middle" x="129.5" y="-56.5" font-family="Helvetica,sans-Serif" font-size="10.00">PlayerController</text>
<polyline fill="none" stroke="black" points="86.5,-49.5 172.5,-49.5 "/>
<text text-anchor="middle" x="129.5" y="-37.5" font-family="Helvetica,sans-Serif" font-size="10.00"> </text>
<polyline fill="none" stroke="black" points="86.5,-30.5 172.5,-30.5 "/>
<text text-anchor="start" x="94.5" y="-18.5" font-family="Helvetica,sans-Serif" font-size="10.00">&#45; Start()</text>
<text text-anchor="start" x="94.5" y="-7.5" font-family="Helvetica,sans-Serif" font-size="10.00">&#45; Update()</text>
</g>
<!-- Node3 -->
<g id="node2" class="node"><title>Node3</title>
<g id="a_node2"><a xlink:href="class_mono_behaviour.html" target="_top" xlink:title="{MonoBehaviour\n||}">
<polygon fill="none" stroke="black" points="0,-116.5 0,-173.5 83,-173.5 83,-116.5 0,-116.5"/>
<text text-anchor="middle" x="41.5" y="-161.5" font-family="Helvetica,sans-Serif" font-size="10.00">MonoBehaviour</text>
<polyline fill="none" stroke="black" points="0,-154.5 83,-154.5 "/>
<text text-anchor="middle" x="41.5" y="-142.5" font-family="Helvetica,sans-Serif" font-size="10.00"> </text>
<polyline fill="none" stroke="black" points="0,-135.5 83,-135.5 "/>
<text text-anchor="middle" x="41.5" y="-123.5" font-family="Helvetica,sans-Serif" font-size="10.00"> </text>
</a>
</g>
</g>
<!-- Node3&#45;&gt;Node2 -->
<g id="edge1" class="edge"><title>Node3&#45;&gt;Node2</title>
<path fill="none" stroke="midnightblue" d="M70.2446,-108.559C80.6921,-95.6779 92.4492,-81.1819 102.72,-68.5186"/>
<polygon fill="none" stroke="midnightblue" points="67.5147,-106.369 63.9338,-116.34 72.9514,-110.778 67.5147,-106.369"/>
</g>
<!-- Node4 -->
<g id="node3" class="node"><title>Node4</title>
<polygon fill="none" stroke="#bfbfbf" points="101.5,-116.5 101.5,-173.5 157.5,-173.5 157.5,-116.5 101.5,-116.5"/>
<text text-anchor="middle" x="129.5" y="-161.5" font-family="Helvetica,sans-Serif" font-size="10.00">Animator</text>
<polyline fill="none" stroke="#bfbfbf" points="101.5,-154.5 157.5,-154.5 "/>
<text text-anchor="middle" x="129.5" y="-142.5" font-family="Helvetica,sans-Serif" font-size="10.00"> </text>
<polyline fill="none" stroke="#bfbfbf" points="101.5,-135.5 157.5,-135.5 "/>
<text text-anchor="middle" x="129.5" y="-123.5" font-family="Helvetica,sans-Serif" font-size="10.00"> </text>
</g>
<!-- Node4&#45;&gt;Node2 -->
<g id="edge2" class="edge"><title>Node4&#45;&gt;Node2</title>
<path fill="none" stroke="#404040" d="M129.5,-116.34C129.5,-105.529 129.5,-92.847 129.5,-80.7745"/>
<polygon fill="none" stroke="#404040" points="129.5,-80.5186 125.5,-74.5186 129.5,-68.5186 133.5,-74.5185 129.5,-80.5186"/>
<text text-anchor="middle" x="146" y="-90" font-family="Helvetica,sans-Serif" font-size="10.00"> &#45;_anim</text>
</g>
<!-- Node5 -->
<g id="node4" class="node"><title>Node5</title>
<polygon fill="none" stroke="#bfbfbf" points="176,-116.5 176,-173.5 211,-173.5 211,-116.5 176,-116.5"/>
<text text-anchor="middle" x="193.5" y="-161.5" font-family="Helvetica,sans-Serif" font-size="10.00">float</text>
<polyline fill="none" stroke="#bfbfbf" points="176,-154.5 211,-154.5 "/>
<text text-anchor="middle" x="193.5" y="-142.5" font-family="Helvetica,sans-Serif" font-size="10.00"> </text>
<polyline fill="none" stroke="#bfbfbf" points="176,-135.5 211,-135.5 "/>
<text text-anchor="middle" x="193.5" y="-123.5" font-family="Helvetica,sans-Serif" font-size="10.00"> </text>
</g>
<!-- Node5&#45;&gt;Node2 -->
<g id="edge3" class="edge"><title>Node5&#45;&gt;Node2</title>
<path fill="none" stroke="#404040" d="M181.568,-116.228C177.184,-106.764 171.95,-96.2441 166.5,-87 164.935,-84.3445 163.269,-81.6538 161.544,-78.9674"/>
<polygon fill="none" stroke="#404040" points="161.354,-78.6838 154.693,-75.9217 154.68,-68.7105 161.342,-71.4727 161.354,-78.6838"/>
<text text-anchor="middle" x="202.5" y="-90" font-family="Helvetica,sans-Serif" font-size="10.00"> +MoveSpeed</text>
</g>
</g>
</svg>
