<?xml version="1.0" encoding="UTF-8" standalone="no"?>
<!DOCTYPE svg PUBLIC "-//W3C//DTD SVG 1.1//EN"
 "http://www.w3.org/Graphics/SVG/1.1/DTD/svg11.dtd">
<!-- Generated by graphviz version 2.38.0 (20140413.2041)
 -->
<!-- Title: Item Pages: 1 -->
<svg width="99pt" height="215pt"
 viewBox="0.00 0.00 98.50 215.00" xmlns="http://www.w3.org/2000/svg" xmlns:xlink="http://www.w3.org/1999/xlink">
<g id="graph0" class="graph" transform="scale(1 1) rotate(0) translate(4 211)">
<title>Item</title>
<!-- Node7 -->
<g id="node1" class="node"><title>Node7</title>
<polygon fill="#bfbfbf" stroke="black" points="8,-0.5 8,-90.5 85,-90.5 85,-0.5 8,-0.5"/>
<text text-anchor="middle" x="46.5" y="-78.5" font-family="Helvetica,sans-Serif" font-size="10.00">Item</text>
<polyline fill="none" stroke="black" points="8,-71.5 85,-71.5 "/>
<text text-anchor="start" x="16" y="-59.5" font-family="Helvetica,sans-Serif" font-size="10.00">+ Name</text>
<text text-anchor="start" x="16" y="-48.5" font-family="Helvetica,sans-Serif" font-size="10.00">+ Desc</text>
<text text-anchor="start" x="16" y="-37.5" font-family="Helvetica,sans-Serif" font-size="10.00">+ Cost</text>
<polyline fill="none" stroke="black" points="8,-30.5 85,-30.5 "/>
<text text-anchor="start" x="16" y="-18.5" font-family="Helvetica,sans-Serif" font-size="10.00">+ applyBuffs()</text>
<text text-anchor="start" x="16" y="-7.5" font-family="Helvetica,sans-Serif" font-size="10.00">+ revertBuffs()</text>
</g>
<!-- Node8 -->
<g id="node2" class="node"><title>Node8</title>
<polygon fill="none" stroke="#bfbfbf" points="0,-149.5 0,-206.5 41,-206.5 41,-149.5 0,-149.5"/>
<text text-anchor="middle" x="20.5" y="-194.5" font-family="Helvetica,sans-Serif" font-size="10.00">string</text>
<polyline fill="none" stroke="#bfbfbf" points="0,-187.5 41,-187.5 "/>
<text text-anchor="middle" x="20.5" y="-175.5" font-family="Helvetica,sans-Serif" font-size="10.00"> </text>
<polyline fill="none" stroke="#bfbfbf" points="0,-168.5 41,-168.5 "/>
<text text-anchor="middle" x="20.5" y="-156.5" font-family="Helvetica,sans-Serif" font-size="10.00"> </text>
</g>
<!-- Node8&#45;&gt;Node7 -->
<g id="edge1" class="edge"><title>Node8&#45;&gt;Node7</title>
<path fill="none" stroke="#404040" d="M18.6356,-149.297C18.3789,-136.864 18.8807,-122.082 21.5,-109 21.956,-106.722 22.4919,-104.422 23.0925,-102.116"/>
<polygon fill="none" stroke="#404040" points="23.096,-102.104 21.0012,-95.2035 26.5648,-90.6159 28.6597,-97.516 23.096,-102.104"/>
<text text-anchor="middle" x="36.5" y="-123" font-family="Helvetica,sans-Serif" font-size="10.00"> #desc</text>
<text text-anchor="middle" x="36.5" y="-112" font-family="Helvetica,sans-Serif" font-size="10.00">#name</text>
</g>
<!-- Node9 -->
<g id="node3" class="node"><title>Node9</title>
<polygon fill="none" stroke="#bfbfbf" points="59,-149.5 59,-206.5 88,-206.5 88,-149.5 59,-149.5"/>
<text text-anchor="middle" x="73.5" y="-194.5" font-family="Helvetica,sans-Serif" font-size="10.00">int</text>
<polyline fill="none" stroke="#bfbfbf" points="59,-187.5 88,-187.5 "/>
<text text-anchor="middle" x="73.5" y="-175.5" font-family="Helvetica,sans-Serif" font-size="10.00"> </text>
<polyline fill="none" stroke="#bfbfbf" points="59,-168.5 88,-168.5 "/>
<text text-anchor="middle" x="73.5" y="-156.5" font-family="Helvetica,sans-Serif" font-size="10.00"> </text>
</g>
<!-- Node9&#45;&gt;Node7 -->
<g id="edge2" class="edge"><title>Node9&#45;&gt;Node7</title>
<path fill="none" stroke="#404040" d="M67.774,-149.324C64.9615,-135.731 61.4662,-118.837 58.1268,-102.696"/>
<polygon fill="none" stroke="#404040" points="58.0488,-102.319 52.9161,-97.2536 55.6174,-90.5676 60.7502,-95.6327 58.0488,-102.319"/>
<text text-anchor="middle" x="76.5" y="-117.5" font-family="Helvetica,sans-Serif" font-size="10.00"> #cost</text>
</g>
</g>
</svg>
