<?xml version="1.0" encoding="UTF-8" standalone="no"?>
<!DOCTYPE svg PUBLIC "-//W3C//DTD SVG 1.1//EN"
 "http://www.w3.org/Graphics/SVG/1.1/DTD/svg11.dtd">
<!-- Generated by graphviz version 2.38.0 (20140413.2041)
 -->
<!-- Title: ItemsMenuScript Pages: 1 -->
<svg width="1087pt" height="1287pt"
 viewBox="0.00 0.00 1086.67 1287.00" xmlns="http://www.w3.org/2000/svg" xmlns:xlink="http://www.w3.org/1999/xlink">
<g id="graph0" class="graph" transform="scale(1 1) rotate(0) translate(4 1283)">
<title>ItemsMenuScript</title>
<!-- Node2 -->
<g id="node1" class="node"><title>Node2</title>
<polygon fill="#bfbfbf" stroke="black" points="190.173,-460.5 190.173,-550.5 281.173,-550.5 281.173,-460.5 190.173,-460.5"/>
<text text-anchor="middle" x="235.673" y="-538.5" font-family="Helvetica,sans-Serif" font-size="10.00">ItemsMenuScript</text>
<polyline fill="none" stroke="black" points="190.173,-531.5 281.173,-531.5 "/>
<text text-anchor="middle" x="235.673" y="-519.5" font-family="Helvetica,sans-Serif" font-size="10.00"> </text>
<polyline fill="none" stroke="black" points="190.173,-512.5 281.173,-512.5 "/>
<text text-anchor="start" x="198.173" y="-500.5" font-family="Helvetica,sans-Serif" font-size="10.00">+ OnItemPlace()</text>
<text text-anchor="start" x="198.173" y="-489.5" font-family="Helvetica,sans-Serif" font-size="10.00">+ back()</text>
<text text-anchor="start" x="198.173" y="-478.5" font-family="Helvetica,sans-Serif" font-size="10.00">&#45; Start()</text>
<text text-anchor="start" x="198.173" y="-467.5" font-family="Helvetica,sans-Serif" font-size="10.00">&#45; createItemCell()</text>
</g>
<!-- Node3 -->
<g id="node2" class="node"><title>Node3</title>
<g id="a_node2"><a xlink:href="class_mono_behaviour.html" target="_top" xlink:title="{MonoBehaviour\n||}">
<polygon fill="none" stroke="black" points="32.1732,-741.5 32.1732,-798.5 115.173,-798.5 115.173,-741.5 32.1732,-741.5"/>
<text text-anchor="middle" x="73.6732" y="-786.5" font-family="Helvetica,sans-Serif" font-size="10.00">MonoBehaviour</text>
<polyline fill="none" stroke="black" points="32.1732,-779.5 115.173,-779.5 "/>
<text text-anchor="middle" x="73.6732" y="-767.5" font-family="Helvetica,sans-Serif" font-size="10.00"> </text>
<polyline fill="none" stroke="black" points="32.1732,-760.5 115.173,-760.5 "/>
<text text-anchor="middle" x="73.6732" y="-748.5" font-family="Helvetica,sans-Serif" font-size="10.00"> </text>
</a>
</g>
</g>
<!-- Node3&#45;&gt;Node2 -->
<g id="edge1" class="edge"><title>Node3&#45;&gt;Node2</title>
<path fill="none" stroke="midnightblue" d="M88.6664,-731.906C106.347,-690.312 138.128,-621.78 175.673,-569 180.12,-562.749 185.176,-556.508 190.422,-550.522"/>
<polygon fill="none" stroke="midnightblue" points="85.3376,-730.793 84.6903,-741.368 91.791,-733.505 85.3376,-730.793"/>
</g>
<!-- Node4 -->
<g id="node3" class="node"><title>Node4</title>
<g id="a_node3"><a xlink:href="class_item.html" target="_top" xlink:title="Abstract class for items that can be equipped to a player, increasing some of their stats ...">
<polygon fill="none" stroke="black" points="203.173,-1083.5 203.173,-1162.5 280.173,-1162.5 280.173,-1083.5 203.173,-1083.5"/>
<text text-anchor="middle" x="241.673" y="-1150.5" font-family="Helvetica,sans-Serif" font-size="10.00">Item</text>
<polyline fill="none" stroke="black" points="203.173,-1143.5 280.173,-1143.5 "/>
<text text-anchor="start" x="211.173" y="-1131.5" font-family="Helvetica,sans-Serif" font-size="10.00">+ Name</text>
<text text-anchor="start" x="211.173" y="-1120.5" font-family="Helvetica,sans-Serif" font-size="10.00">+ Desc</text>
<polyline fill="none" stroke="black" points="203.173,-1113.5 280.173,-1113.5 "/>
<text text-anchor="start" x="211.173" y="-1101.5" font-family="Helvetica,sans-Serif" font-size="10.00">+ applyBuffs()</text>
<text text-anchor="start" x="211.173" y="-1090.5" font-family="Helvetica,sans-Serif" font-size="10.00">+ revertBuffs()</text>
</a>
</g>
</g>
<!-- Node4&#45;&gt;Node2 -->
<g id="edge2" class="edge"><title>Node4&#45;&gt;Node2</title>
<path fill="none" stroke="#404040" d="M203.113,-1092.23C150.525,-1048.92 58.7336,-962.915 22.6732,-865 -6.50995,-785.759 -8.30616,-753.557 22.6732,-675 50.2076,-605.179 125.851,-557.04 179.131,-530.614"/>
<polygon fill="none" stroke="#404040" points="179.328,-530.52 182.993,-524.31 190.135,-525.305 186.47,-531.515 179.328,-530.52"/>
<text text-anchor="middle" x="51.1732" y="-886" font-family="Helvetica,sans-Serif" font-size="10.00"> &#45;items</text>
</g>
<!-- Node8 -->
<g id="node7" class="node"><title>Node8</title>
<g id="a_node7"><a xlink:href="class_player.html" target="_top" xlink:title="Defines a playable character for use in battle scenes">
<polygon fill="none" stroke="black" points="369.673,-912.5 369.673,-1024.5 481.673,-1024.5 481.673,-912.5 369.673,-912.5"/>
<text text-anchor="middle" x="425.673" y="-1012.5" font-family="Helvetica,sans-Serif" font-size="10.00">Player</text>
<polyline fill="none" stroke="black" points="369.673,-1005.5 481.673,-1005.5 "/>
<text text-anchor="start" x="377.673" y="-993.5" font-family="Helvetica,sans-Serif" font-size="10.00">+ Exp</text>
<text text-anchor="start" x="377.673" y="-982.5" font-family="Helvetica,sans-Serif" font-size="10.00">+ Item</text>
<text text-anchor="start" x="377.673" y="-971.5" font-family="Helvetica,sans-Serif" font-size="10.00">+ ExpToNextLevel</text>
<polyline fill="none" stroke="black" points="369.673,-964.5 481.673,-964.5 "/>
<text text-anchor="start" x="377.673" y="-952.5" font-family="Helvetica,sans-Serif" font-size="10.00">+ Player()</text>
<text text-anchor="start" x="377.673" y="-941.5" font-family="Helvetica,sans-Serif" font-size="10.00">+ gainExp()</text>
<text text-anchor="start" x="377.673" y="-930.5" font-family="Helvetica,sans-Serif" font-size="10.00">+ levelUp()</text>
<text text-anchor="start" x="377.673" y="-919.5" font-family="Helvetica,sans-Serif" font-size="10.00">&#45; setExpToNextLevel()</text>
</a>
</g>
</g>
<!-- Node4&#45;&gt;Node8 -->
<g id="edge24" class="edge"><title>Node4&#45;&gt;Node8</title>
<path fill="none" stroke="#404040" d="M280.246,-1090.03C303.341,-1070.89 333.31,-1046.05 360.037,-1023.9"/>
<polygon fill="none" stroke="#404040" points="360.1,-1023.85 362.167,-1016.94 369.339,-1016.19 367.272,-1023.1 360.1,-1023.85"/>
<text text-anchor="middle" x="346.173" y="-1051.5" font-family="Helvetica,sans-Serif" font-size="10.00"> &#45;item</text>
</g>
<!-- Node16 -->
<g id="node15" class="node"><title>Node16</title>
<g id="a_node15"><a xlink:href="class_data_manager.html" target="_top" xlink:title="An object to store all player data including players, items and money and provide useful functions ...">
<polygon fill="none" stroke="black" points="251.673,-697.5 251.673,-842.5 343.673,-842.5 343.673,-697.5 251.673,-697.5"/>
<text text-anchor="middle" x="297.673" y="-830.5" font-family="Helvetica,sans-Serif" font-size="10.00">DataManager</text>
<polyline fill="none" stroke="black" points="251.673,-823.5 343.673,-823.5 "/>
<text text-anchor="start" x="259.673" y="-811.5" font-family="Helvetica,sans-Serif" font-size="10.00">+ Players</text>
<text text-anchor="start" x="259.673" y="-800.5" font-family="Helvetica,sans-Serif" font-size="10.00">+ Items</text>
<text text-anchor="start" x="259.673" y="-789.5" font-family="Helvetica,sans-Serif" font-size="10.00">+ Money</text>
<polyline fill="none" stroke="black" points="251.673,-782.5 343.673,-782.5 "/>
<text text-anchor="start" x="259.673" y="-770.5" font-family="Helvetica,sans-Serif" font-size="10.00">+ DataManager()</text>
<text text-anchor="start" x="259.673" y="-759.5" font-family="Helvetica,sans-Serif" font-size="10.00">+ getFirstPlayer()</text>
<text text-anchor="start" x="259.673" y="-748.5" font-family="Helvetica,sans-Serif" font-size="10.00">+ playersAlive()</text>
<text text-anchor="start" x="259.673" y="-737.5" font-family="Helvetica,sans-Serif" font-size="10.00">+ addPlayer()</text>
<text text-anchor="start" x="259.673" y="-726.5" font-family="Helvetica,sans-Serif" font-size="10.00">+ swapPlayers()</text>
<text text-anchor="start" x="259.673" y="-715.5" font-family="Helvetica,sans-Serif" font-size="10.00">+ addItem()</text>
<text text-anchor="start" x="259.673" y="-704.5" font-family="Helvetica,sans-Serif" font-size="10.00">+ countItems()</text>
</a>
</g>
</g>
<!-- Node4&#45;&gt;Node16 -->
<g id="edge27" class="edge"><title>Node4&#45;&gt;Node16</title>
<path fill="none" stroke="#404040" d="M238.277,-1083.28C235.467,-1040.84 233.527,-970.935 244.673,-912 248.295,-892.849 254.301,-872.897 260.994,-854.235"/>
<polygon fill="none" stroke="#404040" points="261.063,-854.051 259.399,-847.035 265.236,-842.8 266.9,-849.817 261.063,-854.051"/>
<text text-anchor="middle" x="260.173" y="-966" font-family="Helvetica,sans-Serif" font-size="10.00"> &#45;items</text>
</g>
<!-- Node5 -->
<g id="node4" class="node"><title>Node5</title>
<polygon fill="none" stroke="#bfbfbf" points="923.173,-1221.5 923.173,-1278.5 964.173,-1278.5 964.173,-1221.5 923.173,-1221.5"/>
<text text-anchor="middle" x="943.673" y="-1266.5" font-family="Helvetica,sans-Serif" font-size="10.00">string</text>
<polyline fill="none" stroke="#bfbfbf" points="923.173,-1259.5 964.173,-1259.5 "/>
<text text-anchor="middle" x="943.673" y="-1247.5" font-family="Helvetica,sans-Serif" font-size="10.00"> </text>
<polyline fill="none" stroke="#bfbfbf" points="923.173,-1240.5 964.173,-1240.5 "/>
<text text-anchor="middle" x="943.673" y="-1228.5" font-family="Helvetica,sans-Serif" font-size="10.00"> </text>
</g>
<!-- Node5&#45;&gt;Node4 -->
<g id="edge3" class="edge"><title>Node5&#45;&gt;Node4</title>
<path fill="none" stroke="#404040" d="M923.044,-1245.33C828.403,-1228.47 434.349,-1158.31 292.682,-1133.08"/>
<polygon fill="none" stroke="#404040" points="292.374,-1133.03 285.766,-1135.91 280.56,-1130.92 287.168,-1128.04 292.374,-1133.03"/>
<text text-anchor="middle" x="691.673" y="-1195" font-family="Helvetica,sans-Serif" font-size="10.00"> #desc</text>
<text text-anchor="middle" x="691.673" y="-1184" font-family="Helvetica,sans-Serif" font-size="10.00">#name</text>
</g>
<!-- Node9 -->
<g id="node8" class="node"><title>Node9</title>
<g id="a_node8"><a xlink:href="class_character.html" target="_top" xlink:title="Base abstract class for Enemy and Player to inherit from. Defines all shared variables, their constructor and their setters and getters ">
<polygon fill="none" stroke="black" points="773.173,-95.5 773.173,-273.5 868.173,-273.5 868.173,-95.5 773.173,-95.5"/>
<text text-anchor="middle" x="820.673" y="-261.5" font-family="Helvetica,sans-Serif" font-size="10.00">Character</text>
<polyline fill="none" stroke="black" points="773.173,-254.5 868.173,-254.5 "/>
<text text-anchor="start" x="781.173" y="-242.5" font-family="Helvetica,sans-Serif" font-size="10.00">+ Name</text>
<text text-anchor="start" x="781.173" y="-231.5" font-family="Helvetica,sans-Serif" font-size="10.00">+ Level</text>
<text text-anchor="start" x="781.173" y="-220.5" font-family="Helvetica,sans-Serif" font-size="10.00">+ Health</text>
<text text-anchor="start" x="781.173" y="-209.5" font-family="Helvetica,sans-Serif" font-size="10.00">+ Attack</text>
<text text-anchor="start" x="781.173" y="-198.5" font-family="Helvetica,sans-Serif" font-size="10.00">+ Defence</text>
<text text-anchor="start" x="781.173" y="-187.5" font-family="Helvetica,sans-Serif" font-size="10.00">+ MaximumMagic</text>
<text text-anchor="start" x="781.173" y="-176.5" font-family="Helvetica,sans-Serif" font-size="10.00">+ Magic</text>
<text text-anchor="start" x="781.173" y="-165.5" font-family="Helvetica,sans-Serif" font-size="10.00">+ Luck</text>
<text text-anchor="start" x="781.173" y="-154.5" font-family="Helvetica,sans-Serif" font-size="10.00">+ Speed</text>
<text text-anchor="start" x="781.173" y="-143.5" font-family="Helvetica,sans-Serif" font-size="10.00">+ Special1</text>
<text text-anchor="start" x="781.173" y="-132.5" font-family="Helvetica,sans-Serif" font-size="10.00">+ Special2</text>
<text text-anchor="start" x="781.173" y="-121.5" font-family="Helvetica,sans-Serif" font-size="10.00">+ Image</text>
<polyline fill="none" stroke="black" points="773.173,-114.5 868.173,-114.5 "/>
<text text-anchor="start" x="781.173" y="-102.5" font-family="Helvetica,sans-Serif" font-size="10.00"># Character()</text>
</a>
</g>
</g>
<!-- Node5&#45;&gt;Node9 -->
<g id="edge8" class="edge"><title>Node5&#45;&gt;Node9</title>
<path fill="none" stroke="#404040" d="M964.437,-1232.37C989.312,-1210.42 1027.67,-1169.23 1027.67,-1124 1027.67,-1124 1027.67,-1124 1027.67,-376.5 1027.67,-295.366 940.717,-239.168 879.523,-209.666"/>
<polygon fill="none" stroke="#404040" points="879.29,-209.557 872.16,-210.635 868.423,-204.467 875.553,-203.39 879.29,-209.557"/>
<text text-anchor="middle" x="1053.17" y="-773" font-family="Helvetica,sans-Serif" font-size="10.00"> #image_ref</text>
<text text-anchor="middle" x="1053.17" y="-762" font-family="Helvetica,sans-Serif" font-size="10.00">#name</text>
</g>
<!-- Node11 -->
<g id="node10" class="node"><title>Node11</title>
<g id="a_node10"><a xlink:href="class_special_move.html" target="_top" xlink:title="Special move abstract base class that expands upon CharacterMove, adding magic properties ...">
<polygon fill="none" stroke="black" points="791.673,-332.5 791.673,-422.5 889.673,-422.5 889.673,-332.5 791.673,-332.5"/>
<text text-anchor="middle" x="840.673" y="-410.5" font-family="Helvetica,sans-Serif" font-size="10.00">SpecialMove</text>
<polyline fill="none" stroke="black" points="791.673,-403.5 889.673,-403.5 "/>
<text text-anchor="start" x="799.673" y="-391.5" font-family="Helvetica,sans-Serif" font-size="10.00">+ Magic</text>
<text text-anchor="start" x="799.673" y="-380.5" font-family="Helvetica,sans-Serif" font-size="10.00">+ Desc</text>
<polyline fill="none" stroke="black" points="791.673,-373.5 889.673,-373.5 "/>
<text text-anchor="start" x="799.673" y="-361.5" font-family="Helvetica,sans-Serif" font-size="10.00">+ setUp()</text>
<text text-anchor="start" x="799.673" y="-350.5" font-family="Helvetica,sans-Serif" font-size="10.00">+ decreaseMagic()</text>
<text text-anchor="start" x="799.673" y="-339.5" font-family="Helvetica,sans-Serif" font-size="10.00"># SpecialMove()</text>
</a>
</g>
</g>
<!-- Node5&#45;&gt;Node11 -->
<g id="edge22" class="edge"><title>Node5&#45;&gt;Node11</title>
<path fill="none" stroke="#404040" d="M957.178,-1221.43C968.1,-1196.57 981.673,-1158.7 981.673,-1124 981.673,-1124 981.673,-1124 981.673,-504.5 981.673,-455.243 944.353,-452.871 899.999,-426.135"/>
<polygon fill="none" stroke="#404040" points="899.933,-426.092 892.723,-426.224 889.828,-419.62 897.038,-419.488 899.933,-426.092"/>
<text text-anchor="middle" x="996.673" y="-886" font-family="Helvetica,sans-Serif" font-size="10.00"> #desc</text>
</g>
<!-- Node12 -->
<g id="node11" class="node"><title>Node12</title>
<g id="a_node11"><a xlink:href="class_character_move.html" target="_top" xlink:title="Astract base class for character moves ">
<polygon fill="none" stroke="black" points="866.673,-466 866.673,-545 952.673,-545 952.673,-466 866.673,-466"/>
<text text-anchor="middle" x="909.673" y="-533" font-family="Helvetica,sans-Serif" font-size="10.00">CharacterMove</text>
<polyline fill="none" stroke="black" points="866.673,-526 952.673,-526 "/>
<text text-anchor="start" x="874.673" y="-514" font-family="Helvetica,sans-Serif" font-size="10.00">+ User</text>
<text text-anchor="start" x="874.673" y="-503" font-family="Helvetica,sans-Serif" font-size="10.00">+ Target</text>
<text text-anchor="start" x="874.673" y="-492" font-family="Helvetica,sans-Serif" font-size="10.00">+ Text</text>
<polyline fill="none" stroke="black" points="866.673,-485 952.673,-485 "/>
<text text-anchor="start" x="874.673" y="-473" font-family="Helvetica,sans-Serif" font-size="10.00">+ performMove()</text>
</a>
</g>
</g>
<!-- Node5&#45;&gt;Node12 -->
<g id="edge12" class="edge"><title>Node5&#45;&gt;Node12</title>
<path fill="none" stroke="#404040" d="M942.402,-1221.25C937.347,-1110.85 918.618,-701.829 912.004,-557.405"/>
<polygon fill="none" stroke="#404040" points="911.988,-557.054 907.718,-551.243 911.439,-545.067 915.71,-550.877 911.988,-557.054"/>
<text text-anchor="middle" x="945.173" y="-966" font-family="Helvetica,sans-Serif" font-size="10.00"> #text</text>
</g>
<!-- Node13 -->
<g id="node12" class="node"><title>Node13</title>
<g id="a_node12"><a xlink:href="class_battle_manager.html" target="_top" xlink:title="Holds current Player and Enemy objects in battle and provides functions for MainBattle and other obje...">
<polygon fill="none" stroke="black" points="679.673,-675.5 679.673,-864.5 795.673,-864.5 795.673,-675.5 679.673,-675.5"/>
<text text-anchor="middle" x="737.673" y="-852.5" font-family="Helvetica,sans-Serif" font-size="10.00">BattleManager</text>
<polyline fill="none" stroke="black" points="679.673,-845.5 795.673,-845.5 "/>
<text text-anchor="start" x="687.673" y="-833.5" font-family="Helvetica,sans-Serif" font-size="10.00">+ Player</text>
<text text-anchor="start" x="687.673" y="-822.5" font-family="Helvetica,sans-Serif" font-size="10.00">+ Enemy</text>
<text text-anchor="start" x="687.673" y="-811.5" font-family="Helvetica,sans-Serif" font-size="10.00">+ WasCriticalHit</text>
<polyline fill="none" stroke="black" points="679.673,-804.5 795.673,-804.5 "/>
<text text-anchor="start" x="687.673" y="-792.5" font-family="Helvetica,sans-Serif" font-size="10.00">+ BattleManager()</text>
<text text-anchor="start" x="687.673" y="-781.5" font-family="Helvetica,sans-Serif" font-size="10.00">+ playerFirst()</text>
<text text-anchor="start" x="687.673" y="-770.5" font-family="Helvetica,sans-Serif" font-size="10.00">+ switchPlayers()</text>
<text text-anchor="start" x="687.673" y="-759.5" font-family="Helvetica,sans-Serif" font-size="10.00">+ isCriticalHit()</text>
<text text-anchor="start" x="687.673" y="-748.5" font-family="Helvetica,sans-Serif" font-size="10.00">+ ranAway()</text>
<text text-anchor="start" x="687.673" y="-737.5" font-family="Helvetica,sans-Serif" font-size="10.00">+ damageCalculation()</text>
<text text-anchor="start" x="687.673" y="-726.5" font-family="Helvetica,sans-Serif" font-size="10.00">+ enemyMove()</text>
<text text-anchor="start" x="687.673" y="-715.5" font-family="Helvetica,sans-Serif" font-size="10.00">+ enemySpecialMove()</text>
<text text-anchor="start" x="687.673" y="-704.5" font-family="Helvetica,sans-Serif" font-size="10.00">+ battleWon()</text>
<text text-anchor="start" x="687.673" y="-693.5" font-family="Helvetica,sans-Serif" font-size="10.00">+ playerFainted()</text>
<text text-anchor="start" x="687.673" y="-682.5" font-family="Helvetica,sans-Serif" font-size="10.00">&#45; characterFainted()</text>
</a>
</g>
</g>
<!-- Node5&#45;&gt;Node13 -->
<g id="edge15" class="edge"><title>Node5&#45;&gt;Node13</title>
<path fill="none" stroke="#404040" d="M925.348,-1221.26C903.103,-1186.29 866.044,-1123.63 845.673,-1065 818.694,-987.345 843.525,-959.199 812.673,-883 809.539,-875.26 805.822,-867.501 801.744,-859.88"/>
<polygon fill="none" stroke="#404040" points="801.632,-859.68 795.209,-856.403 795.763,-849.213 802.187,-852.49 801.632,-859.68"/>
<text text-anchor="middle" x="887.673" y="-1057" font-family="Helvetica,sans-Serif" font-size="10.00"> +forceEnemyMove</text>
<text text-anchor="middle" x="887.673" y="-1046" font-family="Helvetica,sans-Serif" font-size="10.00">+forceCriticalHits</text>
</g>
<!-- Node6 -->
<g id="node5" class="node"><title>Node6</title>
<polygon fill="none" stroke="#bfbfbf" points="133.673,-741.5 133.673,-798.5 233.673,-798.5 233.673,-741.5 133.673,-741.5"/>
<text text-anchor="middle" x="183.673" y="-786.5" font-family="Helvetica,sans-Serif" font-size="10.00">DragAndDropCell []</text>
<polyline fill="none" stroke="#bfbfbf" points="133.673,-779.5 233.673,-779.5 "/>
<text text-anchor="middle" x="183.673" y="-767.5" font-family="Helvetica,sans-Serif" font-size="10.00"> </text>
<polyline fill="none" stroke="#bfbfbf" points="133.673,-760.5 233.673,-760.5 "/>
<text text-anchor="middle" x="183.673" y="-748.5" font-family="Helvetica,sans-Serif" font-size="10.00"> </text>
</g>
<!-- Node6&#45;&gt;Node2 -->
<g id="edge4" class="edge"><title>Node6&#45;&gt;Node2</title>
<path fill="none" stroke="#404040" d="M180.487,-741.301C176.963,-701.892 174.104,-627.89 193.673,-569 194.478,-566.577 195.405,-564.16 196.43,-561.762"/>
<polygon fill="none" stroke="#404040" points="196.561,-561.497 195.62,-554.347 201.858,-550.729 202.799,-557.878 196.561,-561.497"/>
<text text-anchor="middle" x="229.673" y="-610.5" font-family="Helvetica,sans-Serif" font-size="10.00"> &#45;itemContainers</text>
</g>
<!-- Node7 -->
<g id="node6" class="node"><title>Node7</title>
<polygon fill="none" stroke="#bfbfbf" points="436.173,-741.5 436.173,-798.5 507.173,-798.5 507.173,-741.5 436.173,-741.5"/>
<text text-anchor="middle" x="471.673" y="-786.5" font-family="Helvetica,sans-Serif" font-size="10.00">GameObject</text>
<polyline fill="none" stroke="#bfbfbf" points="436.173,-779.5 507.173,-779.5 "/>
<text text-anchor="middle" x="471.673" y="-767.5" font-family="Helvetica,sans-Serif" font-size="10.00"> </text>
<polyline fill="none" stroke="#bfbfbf" points="436.173,-760.5 507.173,-760.5 "/>
<text text-anchor="middle" x="471.673" y="-748.5" font-family="Helvetica,sans-Serif" font-size="10.00"> </text>
</g>
<!-- Node7&#45;&gt;Node2 -->
<g id="edge5" class="edge"><title>Node7&#45;&gt;Node2</title>
<path fill="none" stroke="#404040" d="M467.999,-741.279C460.969,-698.771 441.784,-617.343 393.673,-569 366.616,-541.812 326.282,-526.118 293.139,-517.257"/>
<polygon fill="none" stroke="#404040" points="292.933,-517.206 286.141,-519.63 281.292,-514.293 288.083,-511.869 292.933,-517.206"/>
<text text-anchor="middle" x="484.173" y="-616" font-family="Helvetica,sans-Serif" font-size="10.00"> &#45;playerContainers</text>
<text text-anchor="middle" x="484.173" y="-605" font-family="Helvetica,sans-Serif" font-size="10.00">&#45;player</text>
</g>
<!-- Node8&#45;&gt;Node2 -->
<g id="edge6" class="edge"><title>Node8&#45;&gt;Node2</title>
<path fill="none" stroke="#404040" d="M403.974,-912.427C398.482,-897.218 392.938,-880.603 388.673,-865 352.917,-734.195 393.778,-679.14 314.673,-569 308.01,-559.723 299.605,-551.111 290.78,-543.429"/>
<polygon fill="none" stroke="#404040" points="290.748,-543.403 283.574,-542.674 281.487,-535.772 288.661,-536.5 290.748,-543.403"/>
<text text-anchor="middle" x="407.673" y="-767.5" font-family="Helvetica,sans-Serif" font-size="10.00"> &#45;players</text>
</g>
<!-- Node8&#45;&gt;Node13 -->
<g id="edge21" class="edge"><title>Node8&#45;&gt;Node13</title>
<path fill="none" stroke="#404040" d="M481.853,-934.909C503.214,-922.333 527.69,-907.697 549.673,-894 589.746,-869.032 633.956,-840.175 669.432,-816.689"/>
<polygon fill="none" stroke="#404040" points="669.669,-816.532 672.459,-809.882 679.67,-809.9 676.88,-816.549 669.669,-816.532"/>
<text text-anchor="middle" x="582.173" y="-886" font-family="Helvetica,sans-Serif" font-size="10.00"> &#45;player</text>
</g>
<!-- Node8&#45;&gt;Node16 -->
<g id="edge29" class="edge"><title>Node8&#45;&gt;Node16</title>
<path fill="none" stroke="#404040" d="M369.453,-932.916C355.415,-921.977 341.562,-908.819 331.673,-894 323.699,-882.05 317.583,-868.262 312.896,-854.335"/>
<polygon fill="none" stroke="#404040" points="312.825,-854.105 307.233,-849.553 309.285,-842.64 314.877,-847.192 312.825,-854.105"/>
<text text-anchor="middle" x="350.673" y="-886" font-family="Helvetica,sans-Serif" font-size="10.00"> &#45;players</text>
</g>
<!-- Node9&#45;&gt;Node8 -->
<g id="edge7" class="edge"><title>Node9&#45;&gt;Node8</title>
<path fill="none" stroke="midnightblue" d="M763.426,-203.293C720.916,-219.536 665.076,-247.842 633.673,-292 565.825,-387.406 609.08,-436.293 585.673,-551 557.086,-691.094 580.421,-737.519 515.673,-865 506.88,-882.314 494.485,-899.052 481.699,-913.808"/>
<polygon fill="none" stroke="midnightblue" points="764.663,-206.568 772.826,-199.813 762.233,-200.003 764.663,-206.568"/>
</g>
<!-- Node9&#45;&gt;Node12 -->
<g id="edge13" class="edge"><title>Node9&#45;&gt;Node12</title>
<path fill="none" stroke="#404040" d="M868.195,-264.185C873.281,-273.456 878.218,-282.866 882.673,-292 891.068,-309.209 894.456,-313.323 898.673,-332 907.769,-372.278 910.265,-419.094 910.628,-453.783"/>
<polygon fill="none" stroke="#404040" points="910.628,-453.98 914.651,-459.965 910.673,-465.98 906.651,-459.995 910.628,-453.98"/>
<text text-anchor="middle" x="926.673" y="-380.5" font-family="Helvetica,sans-Serif" font-size="10.00"> #target</text>
<text text-anchor="middle" x="926.673" y="-369.5" font-family="Helvetica,sans-Serif" font-size="10.00">#user</text>
</g>
<!-- Node14 -->
<g id="node13" class="node"><title>Node14</title>
<g id="a_node13"><a xlink:href="class_enemy.html" target="_top" xlink:title="Defines an AI controller enemy to fight in battle scenes">
<polygon fill="none" stroke="black" points="704.173,-0.5 704.173,-57.5 771.173,-57.5 771.173,-0.5 704.173,-0.5"/>
<text text-anchor="middle" x="737.673" y="-45.5" font-family="Helvetica,sans-Serif" font-size="10.00">Enemy</text>
<polyline fill="none" stroke="black" points="704.173,-38.5 771.173,-38.5 "/>
<text text-anchor="start" x="712.173" y="-26.5" font-family="Helvetica,sans-Serif" font-size="10.00">+ ExpGiven</text>
<polyline fill="none" stroke="black" points="704.173,-19.5 771.173,-19.5 "/>
<text text-anchor="start" x="712.173" y="-7.5" font-family="Helvetica,sans-Serif" font-size="10.00">+ Enemy()</text>
</a>
</g>
</g>
<!-- Node9&#45;&gt;Node14 -->
<g id="edge17" class="edge"><title>Node9&#45;&gt;Node14</title>
<path fill="none" stroke="midnightblue" d="M768.312,-86.6634C762.665,-76.2197 757.306,-66.3096 752.696,-57.7838"/>
<polygon fill="none" stroke="midnightblue" points="765.278,-88.4114 773.113,-95.5431 771.436,-85.0819 765.278,-88.4114"/>
</g>
<!-- Node10 -->
<g id="node9" class="node"><title>Node10</title>
<polygon fill="none" stroke="#bfbfbf" points="590.173,-1094.5 590.173,-1151.5 619.173,-1151.5 619.173,-1094.5 590.173,-1094.5"/>
<text text-anchor="middle" x="604.673" y="-1139.5" font-family="Helvetica,sans-Serif" font-size="10.00">int</text>
<polyline fill="none" stroke="#bfbfbf" points="590.173,-1132.5 619.173,-1132.5 "/>
<text text-anchor="middle" x="604.673" y="-1120.5" font-family="Helvetica,sans-Serif" font-size="10.00"> </text>
<polyline fill="none" stroke="#bfbfbf" points="590.173,-1113.5 619.173,-1113.5 "/>
<text text-anchor="middle" x="604.673" y="-1101.5" font-family="Helvetica,sans-Serif" font-size="10.00"> </text>
</g>
<!-- Node10&#45;&gt;Node8 -->
<g id="edge25" class="edge"><title>Node10&#45;&gt;Node8</title>
<path fill="none" stroke="#404040" d="M590.016,-1118.71C564.438,-1112.31 511.187,-1096.04 477.673,-1065 468.541,-1056.54 460.664,-1046.11 454.001,-1035.27"/>
<polygon fill="none" stroke="#404040" points="453.968,-1035.22 447.509,-1032.01 447.983,-1024.82 454.443,-1028.02 453.968,-1035.22"/>
<text text-anchor="middle" x="515.173" y="-1057" font-family="Helvetica,sans-Serif" font-size="10.00"> &#45;expToNextLevel</text>
<text text-anchor="middle" x="515.173" y="-1046" font-family="Helvetica,sans-Serif" font-size="10.00">&#45;exp</text>
</g>
<!-- Node10&#45;&gt;Node9 -->
<g id="edge9" class="edge"><title>Node10&#45;&gt;Node9</title>
<path fill="none" stroke="#404040" d="M610.383,-1094.38C622.08,-1035.33 647.673,-892.251 647.673,-771 647.673,-771 647.673,-771 647.673,-376.5 647.673,-306.391 712.496,-250.546 762.782,-217.771"/>
<polygon fill="none" stroke="#404040" points="762.808,-217.755 765.733,-211.164 772.942,-211.329 770.017,-217.92 762.808,-217.755"/>
<text text-anchor="middle" x="685.173" y="-649" font-family="Helvetica,sans-Serif" font-size="10.00"> #speed</text>
<text text-anchor="middle" x="685.173" y="-638" font-family="Helvetica,sans-Serif" font-size="10.00">#luck</text>
<text text-anchor="middle" x="685.173" y="-627" font-family="Helvetica,sans-Serif" font-size="10.00">#health</text>
<text text-anchor="middle" x="685.173" y="-616" font-family="Helvetica,sans-Serif" font-size="10.00">#magic</text>
<text text-anchor="middle" x="685.173" y="-605" font-family="Helvetica,sans-Serif" font-size="10.00">#maximumMagic</text>
<text text-anchor="middle" x="685.173" y="-594" font-family="Helvetica,sans-Serif" font-size="10.00">#attack</text>
<text text-anchor="middle" x="685.173" y="-583" font-family="Helvetica,sans-Serif" font-size="10.00">#defence</text>
<text text-anchor="middle" x="685.173" y="-572" font-family="Helvetica,sans-Serif" font-size="10.00">#level</text>
</g>
<!-- Node10&#45;&gt;Node11 -->
<g id="edge23" class="edge"><title>Node10&#45;&gt;Node11</title>
<path fill="none" stroke="#404040" d="M619.181,-1119.09C654.833,-1111.13 746.931,-1085.38 789.673,-1025 856.208,-931.001 848.972,-574.381 843.381,-434.902"/>
<polygon fill="none" stroke="#404040" points="843.379,-434.869 839.133,-429.04 842.881,-422.879 847.127,-428.708 843.379,-434.869"/>
<text text-anchor="middle" x="864.173" y="-767.5" font-family="Helvetica,sans-Serif" font-size="10.00"> #magic</text>
</g>
<!-- Node10&#45;&gt;Node13 -->
<g id="edge19" class="edge"><title>Node10&#45;&gt;Node13</title>
<path fill="none" stroke="#404040" d="M619.548,-1109.41C631.264,-1098.72 647.157,-1082.39 656.673,-1065 690.467,-1003.24 678.955,-979.865 697.673,-912 700.845,-900.502 704.196,-888.487 707.554,-876.53"/>
<polygon fill="none" stroke="#404040" points="707.657,-876.165 705.433,-869.306 710.909,-864.614 713.133,-871.474 707.657,-876.165"/>
<text text-anchor="middle" x="717.173" y="-966" font-family="Helvetica,sans-Serif" font-size="10.00"> +money</text>
</g>
<!-- Node10&#45;&gt;Node14 -->
<g id="edge18" class="edge"><title>Node10&#45;&gt;Node14</title>
<path fill="none" stroke="#404040" d="M599.821,-1094.25C584.115,-1001.92 535.673,-696.529 535.673,-442 535.673,-442 535.673,-442 535.673,-183.5 535.673,-105.413 632.55,-61.863 692.125,-42.4646"/>
<polygon fill="none" stroke="#404040" points="692.409,-42.3758 696.943,-36.7679 703.863,-38.7958 699.329,-44.4036 692.409,-42.3758"/>
<text text-anchor="middle" x="561.673" y="-503" font-family="Helvetica,sans-Serif" font-size="10.00"> &#45;expGiven</text>
</g>
<!-- Node10&#45;&gt;Node16 -->
<g id="edge28" class="edge"><title>Node10&#45;&gt;Node16</title>
<path fill="none" stroke="#404040" d="M590.068,-1121.98C542.813,-1121.06 393.178,-1111.18 324.673,-1025 287.091,-977.719 281.856,-908.852 285.186,-854.75"/>
<polygon fill="none" stroke="#404040" points="285.189,-854.711 281.645,-848.431 286.079,-842.744 289.623,-849.025 285.189,-854.711"/>
<text text-anchor="middle" x="342.673" y="-966" font-family="Helvetica,sans-Serif" font-size="10.00"> &#45;money</text>
</g>
<!-- Node11&#45;&gt;Node9 -->
<g id="edge10" class="edge"><title>Node11&#45;&gt;Node9</title>
<path fill="none" stroke="#404040" d="M836.035,-332.201C834.558,-318.101 832.86,-301.887 831.144,-285.496"/>
<polygon fill="none" stroke="#404040" points="831.144,-285.492 826.541,-279.941 829.894,-273.557 834.497,-279.108 831.144,-285.492"/>
<text text-anchor="middle" x="856.173" y="-306" font-family="Helvetica,sans-Serif" font-size="10.00"> #special1</text>
<text text-anchor="middle" x="856.173" y="-295" font-family="Helvetica,sans-Serif" font-size="10.00">#special2</text>
</g>
<!-- Node12&#45;&gt;Node11 -->
<g id="edge11" class="edge"><title>Node12&#45;&gt;Node11</title>
<path fill="none" stroke="midnightblue" d="M883.584,-456.859C877.447,-445.653 870.933,-433.757 864.883,-422.71"/>
<polygon fill="none" stroke="midnightblue" points="880.535,-458.578 888.408,-465.668 886.675,-455.216 880.535,-458.578"/>
</g>
<!-- Node13&#45;&gt;Node12 -->
<g id="edge14" class="edge"><title>Node13&#45;&gt;Node12</title>
<path fill="none" stroke="#404040" d="M795.699,-680.382C818.449,-645.645 844.78,-605.45 868.673,-569 871.593,-564.545 874.631,-559.912 877.674,-555.272"/>
<polygon fill="none" stroke="#404040" points="877.717,-555.206 877.663,-547.995 884.299,-545.172 884.353,-552.383 877.717,-555.206"/>
<text text-anchor="middle" x="891.673" y="-610.5" font-family="Helvetica,sans-Serif" font-size="10.00"> #manager</text>
</g>
<!-- Node14&#45;&gt;Node13 -->
<g id="edge16" class="edge"><title>Node14&#45;&gt;Node13</title>
<path fill="none" stroke="#404040" d="M737.673,-57.7302C737.673,-88.4721 737.673,-139.529 737.673,-183.5 737.673,-506.5 737.673,-506.5 737.673,-506.5 737.673,-558.066 737.673,-615.33 737.673,-663.181"/>
<polygon fill="none" stroke="#404040" points="737.673,-663.453 741.673,-669.453 737.673,-675.453 733.673,-669.453 737.673,-663.453"/>
<text text-anchor="middle" x="755.673" y="-375" font-family="Helvetica,sans-Serif" font-size="10.00"> &#45;enemy</text>
</g>
<!-- Node15 -->
<g id="node14" class="node"><title>Node15</title>
<polygon fill="none" stroke="#bfbfbf" points="746.173,-940 746.173,-997 781.173,-997 781.173,-940 746.173,-940"/>
<text text-anchor="middle" x="763.673" y="-985" font-family="Helvetica,sans-Serif" font-size="10.00">bool</text>
<polyline fill="none" stroke="#bfbfbf" points="746.173,-978 781.173,-978 "/>
<text text-anchor="middle" x="763.673" y="-966" font-family="Helvetica,sans-Serif" font-size="10.00"> </text>
<polyline fill="none" stroke="#bfbfbf" points="746.173,-959 781.173,-959 "/>
<text text-anchor="middle" x="763.673" y="-947" font-family="Helvetica,sans-Serif" font-size="10.00"> </text>
</g>
<!-- Node15&#45;&gt;Node13 -->
<g id="edge20" class="edge"><title>Node15&#45;&gt;Node13</title>
<path fill="none" stroke="#404040" d="M754.113,-939.931C749.816,-926.285 745.16,-909.461 742.673,-894 741.766,-888.362 740.995,-882.561 740.339,-876.693"/>
<polygon fill="none" stroke="#404040" points="740.323,-876.526 735.756,-870.945 739.152,-864.583 743.718,-870.164 740.323,-876.526"/>
<text text-anchor="middle" x="775.673" y="-886" font-family="Helvetica,sans-Serif" font-size="10.00"> &#45;wasCriticalHit</text>
</g>
<!-- Node16&#45;&gt;Node2 -->
<g id="edge26" class="edge"><title>Node16&#45;&gt;Node2</title>
<path fill="none" stroke="#404040" d="M291.247,-697.039C286.538,-658.451 278.635,-610.448 265.673,-569 264.929,-566.622 264.11,-564.219 263.231,-561.812"/>
<polygon fill="none" stroke="#404040" points="263.2,-561.734 257.263,-557.642 258.756,-550.588 264.694,-554.68 263.2,-561.734"/>
<text text-anchor="middle" x="298.173" y="-610.5" font-family="Helvetica,sans-Serif" font-size="10.00"> &#45;data</text>
</g>
</g>
</svg>
