<?xml version="1.0" encoding="UTF-8" standalone="no"?>
<!DOCTYPE svg PUBLIC "-//W3C//DTD SVG 1.1//EN"
 "http://www.w3.org/Graphics/SVG/1.1/DTD/svg11.dtd">
<!-- Generated by graphviz version 2.38.0 (20140413.2041)
 -->
<!-- Title: MenuScript Pages: 1 -->
<svg width="463pt" height="259pt"
 viewBox="0.00 0.00 462.50 259.00" xmlns="http://www.w3.org/2000/svg" xmlns:xlink="http://www.w3.org/1999/xlink">
<g id="graph0" class="graph" transform="scale(1 1) rotate(0) translate(4 255)">
<title>MenuScript</title>
<!-- Node2 -->
<g id="node1" class="node"><title>Node2</title>
<polygon fill="#bfbfbf" stroke="black" points="205,-0.5 205,-123.5 284,-123.5 284,-0.5 205,-0.5"/>
<text text-anchor="middle" x="244.5" y="-111.5" font-family="Helvetica,sans-Serif" font-size="10.00">MenuScript</text>
<polyline fill="none" stroke="black" points="205,-104.5 284,-104.5 "/>
<text text-anchor="middle" x="244.5" y="-92.5" font-family="Helvetica,sans-Serif" font-size="10.00"> </text>
<polyline fill="none" stroke="black" points="205,-85.5 284,-85.5 "/>
<text text-anchor="start" x="213" y="-73.5" font-family="Helvetica,sans-Serif" font-size="10.00">+ ExitPress()</text>
<text text-anchor="start" x="213" y="-62.5" font-family="Helvetica,sans-Serif" font-size="10.00">+ NoPress()</text>
<text text-anchor="start" x="213" y="-51.5" font-family="Helvetica,sans-Serif" font-size="10.00">+ StartLevel()</text>
<text text-anchor="start" x="213" y="-40.5" font-family="Helvetica,sans-Serif" font-size="10.00">+ LoadGame()</text>
<text text-anchor="start" x="213" y="-29.5" font-family="Helvetica,sans-Serif" font-size="10.00">+ ExitGame()</text>
<text text-anchor="start" x="213" y="-18.5" font-family="Helvetica,sans-Serif" font-size="10.00">+ sound()</text>
<text text-anchor="start" x="213" y="-7.5" font-family="Helvetica,sans-Serif" font-size="10.00">&#45; Start()</text>
</g>
<!-- Node3 -->
<g id="node2" class="node"><title>Node3</title>
<g id="a_node2"><a xlink:href="class_mono_behaviour.html" target="_top" xlink:title="{MonoBehaviour\n||}">
<polygon fill="none" stroke="black" points="0,-193.5 0,-250.5 83,-250.5 83,-193.5 0,-193.5"/>
<text text-anchor="middle" x="41.5" y="-238.5" font-family="Helvetica,sans-Serif" font-size="10.00">MonoBehaviour</text>
<polyline fill="none" stroke="black" points="0,-231.5 83,-231.5 "/>
<text text-anchor="middle" x="41.5" y="-219.5" font-family="Helvetica,sans-Serif" font-size="10.00"> </text>
<polyline fill="none" stroke="black" points="0,-212.5 83,-212.5 "/>
<text text-anchor="middle" x="41.5" y="-200.5" font-family="Helvetica,sans-Serif" font-size="10.00"> </text>
</a>
</g>
</g>
<!-- Node3&#45;&gt;Node2 -->
<g id="edge1" class="edge"><title>Node3&#45;&gt;Node2</title>
<path fill="none" stroke="midnightblue" d="M85.1056,-187.061C120.591,-159.442 170.259,-120.784 204.681,-93.9919"/>
<polygon fill="none" stroke="midnightblue" points="82.6016,-184.574 76.8599,-193.479 86.9011,-190.098 82.6016,-184.574"/>
</g>
<!-- Node4 -->
<g id="node3" class="node"><title>Node4</title>
<polygon fill="none" stroke="#bfbfbf" points="101,-193.5 101,-250.5 172,-250.5 172,-193.5 101,-193.5"/>
<text text-anchor="middle" x="136.5" y="-238.5" font-family="Helvetica,sans-Serif" font-size="10.00">GameObject</text>
<polyline fill="none" stroke="#bfbfbf" points="101,-231.5 172,-231.5 "/>
<text text-anchor="middle" x="136.5" y="-219.5" font-family="Helvetica,sans-Serif" font-size="10.00"> </text>
<polyline fill="none" stroke="#bfbfbf" points="101,-212.5 172,-212.5 "/>
<text text-anchor="middle" x="136.5" y="-200.5" font-family="Helvetica,sans-Serif" font-size="10.00"> </text>
</g>
<!-- Node4&#45;&gt;Node2 -->
<g id="edge2" class="edge"><title>Node4&#45;&gt;Node2</title>
<path fill="none" stroke="#404040" d="M145.65,-193.493C151.533,-177.741 160.033,-157.991 170.5,-142 177.983,-130.568 187.184,-119.258 196.523,-108.922"/>
<polygon fill="none" stroke="#404040" points="196.55,-108.894 197.711,-101.777 204.727,-100.112 203.566,-107.229 196.55,-108.894"/>
<text text-anchor="middle" x="187" y="-156" font-family="Helvetica,sans-Serif" font-size="10.00"> &#45;player</text>
</g>
<!-- Node5 -->
<g id="node4" class="node"><title>Node5</title>
<polygon fill="none" stroke="#bfbfbf" points="190.5,-193.5 190.5,-250.5 238.5,-250.5 238.5,-193.5 190.5,-193.5"/>
<text text-anchor="middle" x="214.5" y="-238.5" font-family="Helvetica,sans-Serif" font-size="10.00">Canvas</text>
<polyline fill="none" stroke="#bfbfbf" points="190.5,-231.5 238.5,-231.5 "/>
<text text-anchor="middle" x="214.5" y="-219.5" font-family="Helvetica,sans-Serif" font-size="10.00"> </text>
<polyline fill="none" stroke="#bfbfbf" points="190.5,-212.5 238.5,-212.5 "/>
<text text-anchor="middle" x="214.5" y="-200.5" font-family="Helvetica,sans-Serif" font-size="10.00"> </text>
</g>
<!-- Node5&#45;&gt;Node2 -->
<g id="edge3" class="edge"><title>Node5&#45;&gt;Node2</title>
<path fill="none" stroke="#404040" d="M209.118,-193.314C207.053,-178.035 205.944,-158.806 209.5,-142 209.958,-139.838 210.478,-137.662 211.054,-135.483"/>
<polygon fill="none" stroke="#404040" points="211.104,-135.317 209.026,-128.412 214.6,-123.838 216.679,-130.743 211.104,-135.317"/>
<text text-anchor="middle" x="234" y="-156" font-family="Helvetica,sans-Serif" font-size="10.00"> +quitMenu</text>
</g>
<!-- Node6 -->
<g id="node5" class="node"><title>Node6</title>
<polygon fill="none" stroke="#bfbfbf" points="263,-193.5 263,-250.5 298,-250.5 298,-193.5 263,-193.5"/>
<text text-anchor="middle" x="280.5" y="-238.5" font-family="Helvetica,sans-Serif" font-size="10.00">bool</text>
<polyline fill="none" stroke="#bfbfbf" points="263,-231.5 298,-231.5 "/>
<text text-anchor="middle" x="280.5" y="-219.5" font-family="Helvetica,sans-Serif" font-size="10.00"> </text>
<polyline fill="none" stroke="#bfbfbf" points="263,-212.5 298,-212.5 "/>
<text text-anchor="middle" x="280.5" y="-200.5" font-family="Helvetica,sans-Serif" font-size="10.00"> </text>
</g>
<!-- Node6&#45;&gt;Node2 -->
<g id="edge4" class="edge"><title>Node6&#45;&gt;Node2</title>
<path fill="none" stroke="#404040" d="M274.229,-193.479C270.541,-177.291 265.689,-155.996 260.977,-135.317"/>
<polygon fill="none" stroke="#404040" points="260.972,-135.293 255.739,-130.331 258.306,-123.593 263.539,-128.554 260.972,-135.293"/>
<text text-anchor="middle" x="293.5" y="-156" font-family="Helvetica,sans-Serif" font-size="10.00"> &#45;soundOn</text>
</g>
<!-- Node7 -->
<g id="node6" class="node"><title>Node7</title>
<polygon fill="none" stroke="#bfbfbf" points="332,-193.5 332,-250.5 367,-250.5 367,-193.5 332,-193.5"/>
<text text-anchor="middle" x="349.5" y="-238.5" font-family="Helvetica,sans-Serif" font-size="10.00">Text</text>
<polyline fill="none" stroke="#bfbfbf" points="332,-231.5 367,-231.5 "/>
<text text-anchor="middle" x="349.5" y="-219.5" font-family="Helvetica,sans-Serif" font-size="10.00"> </text>
<polyline fill="none" stroke="#bfbfbf" points="332,-212.5 367,-212.5 "/>
<text text-anchor="middle" x="349.5" y="-200.5" font-family="Helvetica,sans-Serif" font-size="10.00"> </text>
</g>
<!-- Node7&#45;&gt;Node2 -->
<g id="edge5" class="edge"><title>Node7&#45;&gt;Node2</title>
<path fill="none" stroke="#404040" d="M342.438,-193.391C337.667,-177.605 330.417,-157.855 320.5,-142 312.773,-129.646 302.87,-117.616 292.784,-106.82"/>
<polygon fill="none" stroke="#404040" points="292.656,-106.687 285.609,-105.156 284.313,-98.0623 291.359,-99.5937 292.656,-106.687"/>
<text text-anchor="middle" x="361" y="-156" font-family="Helvetica,sans-Serif" font-size="10.00"> &#45;audioText</text>
</g>
<!-- Node8 -->
<g id="node7" class="node"><title>Node8</title>
<polygon fill="none" stroke="#bfbfbf" points="399,-193.5 399,-250.5 444,-250.5 444,-193.5 399,-193.5"/>
<text text-anchor="middle" x="421.5" y="-238.5" font-family="Helvetica,sans-Serif" font-size="10.00">Button</text>
<polyline fill="none" stroke="#bfbfbf" points="399,-231.5 444,-231.5 "/>
<text text-anchor="middle" x="421.5" y="-219.5" font-family="Helvetica,sans-Serif" font-size="10.00"> </text>
<polyline fill="none" stroke="#bfbfbf" points="399,-212.5 444,-212.5 "/>
<text text-anchor="middle" x="421.5" y="-200.5" font-family="Helvetica,sans-Serif" font-size="10.00"> </text>
</g>
<!-- Node8&#45;&gt;Node2 -->
<g id="edge6" class="edge"><title>Node8&#45;&gt;Node2</title>
<path fill="none" stroke="#404040" d="M415.292,-193.235C410.481,-176.814 402.404,-156.466 389.5,-142 364.202,-113.641 326.223,-93.4684 295.48,-80.6085"/>
<polygon fill="none" stroke="#404040" points="295.228,-80.5077 288.17,-81.9838 284.093,-76.036 291.151,-74.5599 295.228,-80.5077"/>
<text text-anchor="middle" x="431.5" y="-167" font-family="Helvetica,sans-Serif" font-size="10.00"> +loadText</text>
<text text-anchor="middle" x="431.5" y="-156" font-family="Helvetica,sans-Serif" font-size="10.00">+startText</text>
<text text-anchor="middle" x="431.5" y="-145" font-family="Helvetica,sans-Serif" font-size="10.00">+exitText</text>
</g>
</g>
</svg>
