<?xml version="1.0" encoding="UTF-8" standalone="no"?>
<!DOCTYPE svg PUBLIC "-//W3C//DTD SVG 1.1//EN"
 "http://www.w3.org/Graphics/SVG/1.1/DTD/svg11.dtd">
<!-- Generated by graphviz version 2.38.0 (20140413.2041)
 -->
<!-- Title: QuestObjectives.BeatLevel Pages: 1 -->
<!--zoomable 486 -->
<svg id="main" version="1.1" xmlns="http://www.w3.org/2000/svg" xmlns:xlink="http://www.w3.org/1999/xlink" xml:space="preserve" onload="init(evt)">
<style type="text/css"><![CDATA[
.edge:hover path { stroke: red; }
.edge:hover polygon { stroke: red; fill: red; }
]]></style>
<script type="text/javascript"><![CDATA[
var edges = document.getElementsByTagName('g');
if (edges && edges.length) {
  for (var i=0;i<edges.length;i++) {
    if (edges[i].id.substr(0,4)=='edge') {
      edges[i].setAttribute('class','edge');
    }
  }
}
]]></script>
        <defs>
                <circle id="rim" cx="0" cy="0" r="7"/>
                <circle id="rim2" cx="0" cy="0" r="3.5"/>
                <g id="zoomPlus">
                        <use xlink:href="#rim" fill="#404040">
                                <set attributeName="fill" to="#808080" begin="zoomplus.mouseover" end="zoomplus.mouseout"/>
                        </use>
                        <path d="M-4,0h8M0,-4v8" fill="none" stroke="white" stroke-width="1.5" pointer-events="none"/>
                </g>
                <g id="zoomMin">
                        <use xlink:href="#rim" fill="#404040">
                                <set attributeName="fill" to="#808080" begin="zoomminus.mouseover" end="zoomminus.mouseout"/>
                        </use>
                        <path d="M-4,0h8" fill="none" stroke="white" stroke-width="1.5" pointer-events="none"/>
                </g>
                <g id="dirArrow">
                        <path fill="none" stroke="white" stroke-width="1.5" d="M0,-3.0v7 M-2.5,-0.5L0,-3.0L2.5,-0.5"/>
                </g>
               <g id="resetDef">
                       <use xlink:href="#rim2" fill="#404040">
                               <set attributeName="fill" to="#808080" begin="reset.mouseover" end="reset.mouseout"/>
                       </use>
               </g>
        </defs>

<script type="text/javascript">
var viewWidth = 371;
var viewHeight = 486;
var sectionId = 'dynsection-1';
</script>
<script xlink:href="svgpan.js"/>
<svg id="graph" class="graph">
<g id="viewport">
<title>QuestObjectives.BeatLevel</title>
<!-- Node3 -->
<g id="node1" class="node"><title>Node3</title>
<polygon fill="#bfbfbf" stroke="black" points="229.5,-0.5 229.5,-123.5 362.5,-123.5 362.5,-0.5 229.5,-0.5"/>
<text text-anchor="middle" x="296" y="-111.5" font-family="Helvetica,sans-Serif" font-size="10.00">QuestObjectives.BeatLevel</text>
<polyline fill="none" stroke="black" points="229.5,-104.5 362.5,-104.5 "/>
<text text-anchor="middle" x="296" y="-92.5" font-family="Helvetica,sans-Serif" font-size="10.00"> </text>
<polyline fill="none" stroke="black" points="229.5,-85.5 362.5,-85.5 "/>
<text text-anchor="start" x="237.5" y="-73.5" font-family="Helvetica,sans-Serif" font-size="10.00">+ BeatLevel()</text>
<text text-anchor="start" x="237.5" y="-62.5" font-family="Helvetica,sans-Serif" font-size="10.00">+ BeatLevel()</text>
<text text-anchor="start" x="237.5" y="-51.5" font-family="Helvetica,sans-Serif" font-size="10.00">+ GetObjectData()</text>
<text text-anchor="start" x="237.5" y="-40.5" font-family="Helvetica,sans-Serif" font-size="10.00"># subscribeHandlers()</text>
<text text-anchor="start" x="237.5" y="-29.5" font-family="Helvetica,sans-Serif" font-size="10.00"># unsubscribeHandlers()</text>
<text text-anchor="start" x="237.5" y="-18.5" font-family="Helvetica,sans-Serif" font-size="10.00"># BeatLevel()</text>
<text text-anchor="start" x="237.5" y="-7.5" font-family="Helvetica,sans-Serif" font-size="10.00">&#45; OnBeatLevel()</text>
</g>
<!-- Node4 -->
<g id="node2" class="node"><title>Node4</title>
<g id="a_node2"><a xlink:href="class_quest_objective.html" target="_top" xlink:title="Base quest objective class to be extended by actual quest objectives ">
<polygon fill="none" stroke="black" points="159.5,-161.5 159.5,-361.5 284.5,-361.5 284.5,-161.5 159.5,-161.5"/>
<text text-anchor="middle" x="222" y="-349.5" font-family="Helvetica,sans-Serif" font-size="10.00">QuestObjective</text>
<polyline fill="none" stroke="black" points="159.5,-342.5 284.5,-342.5 "/>
<text text-anchor="start" x="167.5" y="-330.5" font-family="Helvetica,sans-Serif" font-size="10.00">+ State</text>
<polyline fill="none" stroke="black" points="159.5,-323.5 284.5,-323.5 "/>
<text text-anchor="start" x="167.5" y="-311.5" font-family="Helvetica,sans-Serif" font-size="10.00">+ ObjectiveCallback()</text>
<text text-anchor="start" x="167.5" y="-300.5" font-family="Helvetica,sans-Serif" font-size="10.00">+ isComplete()</text>
<text text-anchor="start" x="167.5" y="-289.5" font-family="Helvetica,sans-Serif" font-size="10.00">+ isFailed()</text>
<text text-anchor="start" x="167.5" y="-278.5" font-family="Helvetica,sans-Serif" font-size="10.00">+ inProgress()</text>
<text text-anchor="start" x="167.5" y="-267.5" font-family="Helvetica,sans-Serif" font-size="10.00">+ GetObjectData()</text>
<text text-anchor="start" x="167.5" y="-256.5" font-family="Helvetica,sans-Serif" font-size="10.00"># QuestObjective()</text>
<text text-anchor="start" x="167.5" y="-245.5" font-family="Helvetica,sans-Serif" font-size="10.00"># setComplete()</text>
<text text-anchor="start" x="167.5" y="-234.5" font-family="Helvetica,sans-Serif" font-size="10.00"># setFailed()</text>
<text text-anchor="start" x="167.5" y="-223.5" font-family="Helvetica,sans-Serif" font-size="10.00"># subscribeHandlers()</text>
<text text-anchor="start" x="167.5" y="-212.5" font-family="Helvetica,sans-Serif" font-size="10.00"># unsubscribeHandlers()</text>
<text text-anchor="start" x="167.5" y="-201.5" font-family="Helvetica,sans-Serif" font-size="10.00"># QuestObjective()</text>
<text text-anchor="start" x="167.5" y="-190.5" font-family="Helvetica,sans-Serif" font-size="10.00"># dispose()</text>
<text text-anchor="start" x="167.5" y="-179.5" font-family="Helvetica,sans-Serif" font-size="10.00">&#45; setState()</text>
<text text-anchor="start" x="167.5" y="-168.5" font-family="Helvetica,sans-Serif" font-size="10.00">&#45; OnExitedToMainMenu()</text>
</a>
</g>
</g>
<!-- Node4&#45;&gt;Node3 -->
<g id="edge1" class="edge"><title>Node4&#45;&gt;Node3</title>
<path fill="none" stroke="midnightblue" d="M262.727,-151.803C266.335,-142.174 269.895,-132.672 273.268,-123.669"/>
<polygon fill="none" stroke="midnightblue" points="259.34,-150.868 259.108,-161.461 265.895,-153.324 259.34,-150.868"/>
</g>
<!-- Node5 -->
<g id="node3" class="node"><title>Node5</title>
<polygon fill="none" stroke="#bfbfbf" points="0,-409.5 0,-477.5 152,-477.5 152,-409.5 0,-409.5"/>
<text text-anchor="start" x="8" y="-465.5" font-family="Helvetica,sans-Serif" font-size="10.00">System::Runtime::Serialization</text>
<text text-anchor="middle" x="76" y="-454.5" font-family="Helvetica,sans-Serif" font-size="10.00">::ISerializable</text>
<polyline fill="none" stroke="#bfbfbf" points="0,-447.5 152,-447.5 "/>
<text text-anchor="middle" x="76" y="-435.5" font-family="Helvetica,sans-Serif" font-size="10.00"> </text>
<polyline fill="none" stroke="#bfbfbf" points="0,-428.5 152,-428.5 "/>
<text text-anchor="middle" x="76" y="-416.5" font-family="Helvetica,sans-Serif" font-size="10.00"> </text>
</g>
<!-- Node5&#45;&gt;Node4 -->
<g id="edge2" class="edge"><title>Node5&#45;&gt;Node4</title>
<path fill="none" stroke="midnightblue" d="M109.358,-401.374C124.187,-383.091 142.149,-360.946 159.332,-339.762"/>
<polygon fill="none" stroke="midnightblue" points="106.36,-399.514 102.779,-409.485 111.796,-403.924 106.36,-399.514"/>
</g>
<!-- Node6 -->
<g id="node4" class="node"><title>Node6</title>
<polygon fill="none" stroke="#bfbfbf" points="290.5,-415 290.5,-472 331.5,-472 331.5,-415 290.5,-415"/>
<text text-anchor="middle" x="311" y="-460" font-family="Helvetica,sans-Serif" font-size="10.00">string</text>
<polyline fill="none" stroke="#bfbfbf" points="290.5,-453 331.5,-453 "/>
<text text-anchor="middle" x="311" y="-441" font-family="Helvetica,sans-Serif" font-size="10.00"> </text>
<polyline fill="none" stroke="#bfbfbf" points="290.5,-434 331.5,-434 "/>
<text text-anchor="middle" x="311" y="-422" font-family="Helvetica,sans-Serif" font-size="10.00"> </text>
</g>
<!-- Node6&#45;&gt;Node3 -->
<g id="edge5" class="edge"><title>Node6&#45;&gt;Node3</title>
<path fill="none" stroke="#404040" d="M316.106,-414.795C317.302,-407.116 318.401,-398.758 319,-391 319.376,-386.126 319.177,-384.886 319,-380 315.959,-296.077 308.405,-199.901 302.779,-135.702"/>
<polygon fill="none" stroke="#404040" points="302.775,-135.653 298.261,-130.029 301.717,-123.7 306.23,-129.324 302.775,-135.653"/>
<text text-anchor="middle" x="331.5" y="-259" font-family="Helvetica,sans-Serif" font-size="10.00"> &#45;level</text>
</g>
<!-- Node6&#45;&gt;Node4 -->
<g id="edge3" class="edge"><title>Node6&#45;&gt;Node4</title>
<path fill="none" stroke="#404040" d="M290.065,-424.685C280.363,-415.479 269.376,-403.556 262,-391 258.634,-385.271 255.523,-379.229 252.651,-373.015"/>
<polygon fill="none" stroke="#404040" points="252.507,-372.683 246.451,-368.768 247.736,-361.673 253.792,-365.587 252.507,-372.683"/>
<text text-anchor="middle" x="290.5" y="-383" font-family="Helvetica,sans-Serif" font-size="10.00"> +description</text>
</g>
<!-- Node7 -->
<g id="node5" class="node"><title>Node7</title>
<polygon fill="none" stroke="#bfbfbf" points="170,-415 170,-472 250,-472 250,-415 170,-415"/>
<text text-anchor="middle" x="210" y="-460" font-family="Helvetica,sans-Serif" font-size="10.00">ObjectiveState</text>
<polyline fill="none" stroke="#bfbfbf" points="170,-453 250,-453 "/>
<text text-anchor="middle" x="210" y="-441" font-family="Helvetica,sans-Serif" font-size="10.00"> </text>
<polyline fill="none" stroke="#bfbfbf" points="170,-434 250,-434 "/>
<text text-anchor="middle" x="210" y="-422" font-family="Helvetica,sans-Serif" font-size="10.00"> </text>
</g>
<!-- Node7&#45;&gt;Node4 -->
<g id="edge4" class="edge"><title>Node7&#45;&gt;Node4</title>
<path fill="none" stroke="#404040" d="M209.983,-414.793C210.097,-403.936 210.377,-391.378 211,-380 211.114,-377.925 211.235,-375.831 211.365,-373.721"/>
<polygon fill="none" stroke="#404040" points="211.381,-373.479 207.789,-367.226 212.18,-361.506 215.772,-367.759 211.381,-373.479"/>
<text text-anchor="middle" x="225" y="-383" font-family="Helvetica,sans-Serif" font-size="10.00"> &#45;state</text>
</g>
</g>
</svg>
        <g id="navigator" transform="translate(0 0)" fill="#404254">
                <rect fill="#f2f5e9" fill-opacity="0.5" stroke="#606060" stroke-width=".5" x="0" y="0" width="60" height="60"/>
                <use id="zoomplus" xlink:href="#zoomPlus" x="17" y="9" onmousedown="handleZoom(evt,'in')"/>
                <use id="zoomminus" xlink:href="#zoomMin" x="42" y="9" onmousedown="handleZoom(evt,'out')"/>
                <use id="reset" xlink:href="#resetDef" x="30" y="36" onmousedown="handleReset()"/>
                <g id="arrowUp" xlink:href="#dirArrow" transform="translate(30 24)" onmousedown="handlePan(0,-1)">
                  <use xlink:href="#rim" fill="#404040">
                        <set attributeName="fill" to="#808080" begin="arrowUp.mouseover" end="arrowUp.mouseout"/>
                  </use>
                  <path fill="none" stroke="white" stroke-width="1.5" d="M0,-3.0v7 M-2.5,-0.5L0,-3.0L2.5,-0.5"/>
                </g>
                <g id="arrowRight" xlink:href="#dirArrow" transform="rotate(90) translate(36 -43)" onmousedown="handlePan(1,0)">
                  <use xlink:href="#rim" fill="#404040">
                        <set attributeName="fill" to="#808080" begin="arrowRight.mouseover" end="arrowRight.mouseout"/>
                  </use>
                  <path fill="none" stroke="white" stroke-width="1.5" d="M0,-3.0v7 M-2.5,-0.5L0,-3.0L2.5,-0.5"/>
                </g>
                <g id="arrowDown" xlink:href="#dirArrow" transform="rotate(180) translate(-30 -48)" onmousedown="handlePan(0,1)">
                  <use xlink:href="#rim" fill="#404040">
                        <set attributeName="fill" to="#808080" begin="arrowDown.mouseover" end="arrowDown.mouseout"/>
                  </use>
                  <path fill="none" stroke="white" stroke-width="1.5" d="M0,-3.0v7 M-2.5,-0.5L0,-3.0L2.5,-0.5"/>
                </g>
                <g id="arrowLeft" xlink:href="#dirArrow" transform="rotate(270) translate(-36 17)" onmousedown="handlePan(-1,0)">
                  <use xlink:href="#rim" fill="#404040">
                        <set attributeName="fill" to="#808080" begin="arrowLeft.mouseover" end="arrowLeft.mouseout"/>
                  </use>
                  <path fill="none" stroke="white" stroke-width="1.5" d="M0,-3.0v7 M-2.5,-0.5L0,-3.0L2.5,-0.5"/>
                </g>
        </g>
        <svg viewBox="0 0 15 15" width="100%" height="30px" preserveAspectRatio="xMaxYMin meet">
         <g id="arrow_out" transform="scale(0.3 0.3)">
          <a xlink:href="class_quest_objectives_1_1_beat_level__coll__graph_org.svg" target="_base">
           <rect id="button" ry="5" rx="5" y="6" x="6" height="38" width="38"
                fill="#f2f5e9" fill-opacity="0.5" stroke="#606060" stroke-width="1.0"/>
           <path id="arrow"
             d="M 11.500037,31.436501 C 11.940474,20.09759 22.043105,11.32322 32.158766,21.979434 L 37.068811,17.246167 C 37.068811,17.246167 37.088388,32 37.088388,32 L 22.160133,31.978069 C 22.160133,31.978069 26.997745,27.140456 26.997745,27.140456 C 18.528582,18.264221 13.291696,25.230495 11.500037,31.436501 z"
             style="fill:#404040;"/>
          </a>
         </g>
        </svg>
</svg>
