<?xml version="1.0" encoding="UTF-8" standalone="no"?>
<!DOCTYPE svg PUBLIC "-//W3C//DTD SVG 1.1//EN"
 "http://www.w3.org/Graphics/SVG/1.1/DTD/svg11.dtd">
<!-- Generated by graphviz version 2.38.0 (20140413.2041)
 -->
<!-- Title: QuestObjective Pages: 1 -->
<svg width="1561pt" height="584pt"
 viewBox="0.00 0.00 1560.50 584.00" xmlns="http://www.w3.org/2000/svg" xmlns:xlink="http://www.w3.org/1999/xlink">
<g id="graph0" class="graph" transform="scale(1 1) rotate(0) translate(4 580)">
<title>QuestObjective</title>
<!-- Node0 -->
<g id="node1" class="node"><title>Node0</title>
<polygon fill="#bfbfbf" stroke="black" points="711,-248.5 711,-470.5 836,-470.5 836,-248.5 711,-248.5"/>
<text text-anchor="middle" x="773.5" y="-458.5" font-family="Helvetica,sans-Serif" font-size="10.00">QuestObjective</text>
<polyline fill="none" stroke="black" points="711,-451.5 836,-451.5 "/>
<text text-anchor="start" x="719" y="-439.5" font-family="Helvetica,sans-Serif" font-size="10.00">+ description</text>
<text text-anchor="start" x="719" y="-428.5" font-family="Helvetica,sans-Serif" font-size="10.00">+ State</text>
<text text-anchor="start" x="719" y="-417.5" font-family="Helvetica,sans-Serif" font-size="10.00">&#45; state</text>
<polyline fill="none" stroke="black" points="711,-410.5 836,-410.5 "/>
<text text-anchor="start" x="719" y="-398.5" font-family="Helvetica,sans-Serif" font-size="10.00">+ ObjectiveCallback()</text>
<text text-anchor="start" x="719" y="-387.5" font-family="Helvetica,sans-Serif" font-size="10.00">+ isComplete()</text>
<text text-anchor="start" x="719" y="-376.5" font-family="Helvetica,sans-Serif" font-size="10.00">+ isFailed()</text>
<text text-anchor="start" x="719" y="-365.5" font-family="Helvetica,sans-Serif" font-size="10.00">+ inProgress()</text>
<text text-anchor="start" x="719" y="-354.5" font-family="Helvetica,sans-Serif" font-size="10.00">+ GetObjectData()</text>
<text text-anchor="start" x="719" y="-343.5" font-family="Helvetica,sans-Serif" font-size="10.00"># QuestObjective()</text>
<text text-anchor="start" x="719" y="-332.5" font-family="Helvetica,sans-Serif" font-size="10.00"># setComplete()</text>
<text text-anchor="start" x="719" y="-321.5" font-family="Helvetica,sans-Serif" font-size="10.00"># setFailed()</text>
<text text-anchor="start" x="719" y="-310.5" font-family="Helvetica,sans-Serif" font-size="10.00"># subscribeHandlers()</text>
<text text-anchor="start" x="719" y="-299.5" font-family="Helvetica,sans-Serif" font-size="10.00"># unsubscribeHandlers()</text>
<text text-anchor="start" x="719" y="-288.5" font-family="Helvetica,sans-Serif" font-size="10.00"># QuestObjective()</text>
<text text-anchor="start" x="719" y="-277.5" font-family="Helvetica,sans-Serif" font-size="10.00"># dispose()</text>
<text text-anchor="start" x="719" y="-266.5" font-family="Helvetica,sans-Serif" font-size="10.00">&#45; setState()</text>
<text text-anchor="start" x="719" y="-255.5" font-family="Helvetica,sans-Serif" font-size="10.00">&#45; OnExitedToMainMenu()</text>
</g>
<!-- Node2 -->
<g id="node3" class="node"><title>Node2</title>
<g id="a_node3"><a xlink:href="class_quest_objectives_1_1_beat_level.html" target="_top" xlink:title="Quest objective to beat a certain level ">
<polygon fill="none" stroke="black" points="0,-44.5 0,-167.5 133,-167.5 133,-44.5 0,-44.5"/>
<text text-anchor="middle" x="66.5" y="-155.5" font-family="Helvetica,sans-Serif" font-size="10.00">QuestObjectives.BeatLevel</text>
<polyline fill="none" stroke="black" points="0,-148.5 133,-148.5 "/>
<text text-anchor="start" x="8" y="-136.5" font-family="Helvetica,sans-Serif" font-size="10.00">&#45; level</text>
<polyline fill="none" stroke="black" points="0,-129.5 133,-129.5 "/>
<text text-anchor="start" x="8" y="-117.5" font-family="Helvetica,sans-Serif" font-size="10.00">+ BeatLevel()</text>
<text text-anchor="start" x="8" y="-106.5" font-family="Helvetica,sans-Serif" font-size="10.00">+ BeatLevel()</text>
<text text-anchor="start" x="8" y="-95.5" font-family="Helvetica,sans-Serif" font-size="10.00">+ GetObjectData()</text>
<text text-anchor="start" x="8" y="-84.5" font-family="Helvetica,sans-Serif" font-size="10.00"># subscribeHandlers()</text>
<text text-anchor="start" x="8" y="-73.5" font-family="Helvetica,sans-Serif" font-size="10.00"># unsubscribeHandlers()</text>
<text text-anchor="start" x="8" y="-62.5" font-family="Helvetica,sans-Serif" font-size="10.00"># BeatLevel()</text>
<text text-anchor="start" x="8" y="-51.5" font-family="Helvetica,sans-Serif" font-size="10.00">&#45; OnBeatLevel()</text>
</a>
</g>
</g>
<!-- Node0&#45;&gt;Node2 -->
<g id="edge2" class="edge"><title>Node0&#45;&gt;Node2</title>
<path fill="none" stroke="midnightblue" d="M700.61,-357.885C575.773,-353.507 317.516,-329.639 141.5,-212 124.551,-200.672 110.175,-184.13 98.6843,-167.512"/>
<polygon fill="none" stroke="midnightblue" points="700.711,-361.389 710.817,-358.209 700.934,-354.393 700.711,-361.389"/>
</g>
<!-- Node3 -->
<g id="node4" class="node"><title>Node3</title>
<g id="a_node4"><a xlink:href="class_quest_objectives_1_1_defeat_specific.html" target="_top" xlink:title="Quest objective to defeat a specific enemy ">
<polygon fill="none" stroke="black" points="151,-44.5 151,-167.5 304,-167.5 304,-44.5 151,-44.5"/>
<text text-anchor="middle" x="227.5" y="-155.5" font-family="Helvetica,sans-Serif" font-size="10.00">QuestObjectives.DefeatSpecific</text>
<polyline fill="none" stroke="black" points="151,-148.5 304,-148.5 "/>
<text text-anchor="start" x="159" y="-136.5" font-family="Helvetica,sans-Serif" font-size="10.00">&#45; name</text>
<text text-anchor="start" x="159" y="-125.5" font-family="Helvetica,sans-Serif" font-size="10.00">&#45; location</text>
<polyline fill="none" stroke="black" points="151,-118.5 304,-118.5 "/>
<text text-anchor="start" x="159" y="-106.5" font-family="Helvetica,sans-Serif" font-size="10.00">+ DefeatSpecific()</text>
<text text-anchor="start" x="159" y="-95.5" font-family="Helvetica,sans-Serif" font-size="10.00">+ GetObjectData()</text>
<text text-anchor="start" x="159" y="-84.5" font-family="Helvetica,sans-Serif" font-size="10.00"># subscribeHandlers()</text>
<text text-anchor="start" x="159" y="-73.5" font-family="Helvetica,sans-Serif" font-size="10.00"># unsubscribeHandlers()</text>
<text text-anchor="start" x="159" y="-62.5" font-family="Helvetica,sans-Serif" font-size="10.00"># DefeatSpecific()</text>
<text text-anchor="start" x="159" y="-51.5" font-family="Helvetica,sans-Serif" font-size="10.00">&#45; OnBattleWon()</text>
</a>
</g>
</g>
<!-- Node0&#45;&gt;Node3 -->
<g id="edge3" class="edge"><title>Node0&#45;&gt;Node3</title>
<path fill="none" stroke="midnightblue" d="M700.794,-348.682C604.842,-332.917 433.916,-294.884 312.5,-212 295.26,-200.231 279.734,-183.955 266.814,-167.727"/>
<polygon fill="none" stroke="midnightblue" points="700.265,-352.142 710.694,-350.273 701.376,-345.23 700.265,-352.142"/>
</g>
<!-- Node4 -->
<g id="node5" class="node"><title>Node4</title>
<g id="a_node5"><a xlink:href="class_quest_objectives_1_1_minigame_beat_wave_x.html" target="_top" xlink:title="Quest objective to beat a certain wave in the minigame ">
<polygon fill="none" stroke="black" points="322,-33.5 322,-178.5 455,-178.5 455,-33.5 322,-33.5"/>
<text text-anchor="start" x="330" y="-166.5" font-family="Helvetica,sans-Serif" font-size="10.00">QuestObjectives.Minigame</text>
<text text-anchor="middle" x="388.5" y="-155.5" font-family="Helvetica,sans-Serif" font-size="10.00">BeatWaveX</text>
<polyline fill="none" stroke="black" points="322,-148.5 455,-148.5 "/>
<text text-anchor="start" x="330" y="-136.5" font-family="Helvetica,sans-Serif" font-size="10.00">&#45; wave</text>
<text text-anchor="start" x="330" y="-125.5" font-family="Helvetica,sans-Serif" font-size="10.00">&#45; currentWave</text>
<polyline fill="none" stroke="black" points="322,-118.5 455,-118.5 "/>
<text text-anchor="start" x="330" y="-106.5" font-family="Helvetica,sans-Serif" font-size="10.00">+ MinigameBeatWaveX()</text>
<text text-anchor="start" x="330" y="-95.5" font-family="Helvetica,sans-Serif" font-size="10.00">+ GetObjectData()</text>
<text text-anchor="start" x="330" y="-84.5" font-family="Helvetica,sans-Serif" font-size="10.00"># subscribeHandlers()</text>
<text text-anchor="start" x="330" y="-73.5" font-family="Helvetica,sans-Serif" font-size="10.00"># unsubscribeHandlers()</text>
<text text-anchor="start" x="330" y="-62.5" font-family="Helvetica,sans-Serif" font-size="10.00"># MinigameBeatWaveX()</text>
<text text-anchor="start" x="330" y="-51.5" font-family="Helvetica,sans-Serif" font-size="10.00">&#45; OnMinigameStarted()</text>
<text text-anchor="start" x="330" y="-40.5" font-family="Helvetica,sans-Serif" font-size="10.00">&#45; OnWaveComplete()</text>
</a>
</g>
</g>
<!-- Node0&#45;&gt;Node4 -->
<g id="edge4" class="edge"><title>Node0&#45;&gt;Node4</title>
<path fill="none" stroke="midnightblue" d="M701.265,-336.19C634.383,-312.955 534.797,-271.568 463.5,-212 452.068,-202.448 441.514,-190.774 432.154,-178.724"/>
<polygon fill="none" stroke="midnightblue" points="700.294,-339.557 710.888,-339.486 702.562,-332.934 700.294,-339.557"/>
</g>
<!-- Node5 -->
<g id="node6" class="node"><title>Node5</title>
<g id="a_node6"><a xlink:href="class_quest_objectives_1_1_minigame_score.html" target="_top" xlink:title="Quest objective to obtain a certain score in the minigame ">
<polygon fill="none" stroke="black" points="473,-33.5 473,-178.5 606,-178.5 606,-33.5 473,-33.5"/>
<text text-anchor="start" x="481" y="-166.5" font-family="Helvetica,sans-Serif" font-size="10.00">QuestObjectives.Minigame</text>
<text text-anchor="middle" x="539.5" y="-155.5" font-family="Helvetica,sans-Serif" font-size="10.00">Score</text>
<polyline fill="none" stroke="black" points="473,-148.5 606,-148.5 "/>
<text text-anchor="start" x="481" y="-136.5" font-family="Helvetica,sans-Serif" font-size="10.00">&#45; score</text>
<text text-anchor="start" x="481" y="-125.5" font-family="Helvetica,sans-Serif" font-size="10.00">&#45; currentScore</text>
<polyline fill="none" stroke="black" points="473,-118.5 606,-118.5 "/>
<text text-anchor="start" x="481" y="-106.5" font-family="Helvetica,sans-Serif" font-size="10.00">+ MinigameScore()</text>
<text text-anchor="start" x="481" y="-95.5" font-family="Helvetica,sans-Serif" font-size="10.00">+ GetObjectData()</text>
<text text-anchor="start" x="481" y="-84.5" font-family="Helvetica,sans-Serif" font-size="10.00"># subscribeHandlers()</text>
<text text-anchor="start" x="481" y="-73.5" font-family="Helvetica,sans-Serif" font-size="10.00"># unsubscribeHandlers()</text>
<text text-anchor="start" x="481" y="-62.5" font-family="Helvetica,sans-Serif" font-size="10.00"># MinigameScore()</text>
<text text-anchor="start" x="481" y="-51.5" font-family="Helvetica,sans-Serif" font-size="10.00">&#45; OnMinigameStarted()</text>
<text text-anchor="start" x="481" y="-40.5" font-family="Helvetica,sans-Serif" font-size="10.00">&#45; OnKill()</text>
</a>
</g>
</g>
<!-- Node0&#45;&gt;Node5 -->
<g id="edge5" class="edge"><title>Node0&#45;&gt;Node5</title>
<path fill="none" stroke="midnightblue" d="M703.245,-298.774C674.783,-273.226 642.365,-242.334 615.5,-212 606.25,-201.555 597.022,-190.011 588.349,-178.513"/>
<polygon fill="none" stroke="midnightblue" points="700.982,-301.445 710.774,-305.49 705.642,-296.221 700.982,-301.445"/>
</g>
<!-- Node6 -->
<g id="node7" class="node"><title>Node6</title>
<g id="a_node7"><a xlink:href="class_quest_objectives_1_1_obtain_item.html" target="_top" xlink:title="Quest objective to obtain an item by any means (finding, buying, winning) ">
<polygon fill="none" stroke="black" points="624.5,-50 624.5,-162 762.5,-162 762.5,-50 624.5,-50"/>
<text text-anchor="middle" x="693.5" y="-150" font-family="Helvetica,sans-Serif" font-size="10.00">QuestObjectives.ObtainItem</text>
<polyline fill="none" stroke="black" points="624.5,-143 762.5,-143 "/>
<text text-anchor="start" x="632.5" y="-131" font-family="Helvetica,sans-Serif" font-size="10.00">&#45; item</text>
<polyline fill="none" stroke="black" points="624.5,-124 762.5,-124 "/>
<text text-anchor="start" x="632.5" y="-112" font-family="Helvetica,sans-Serif" font-size="10.00">+ ObtainItem()</text>
<text text-anchor="start" x="632.5" y="-101" font-family="Helvetica,sans-Serif" font-size="10.00">+ GetObjectData()</text>
<text text-anchor="start" x="632.5" y="-90" font-family="Helvetica,sans-Serif" font-size="10.00"># subscribeHandlers()</text>
<text text-anchor="start" x="632.5" y="-79" font-family="Helvetica,sans-Serif" font-size="10.00"># unsubscribeHandlers()</text>
<text text-anchor="start" x="632.5" y="-68" font-family="Helvetica,sans-Serif" font-size="10.00"># ObtainItem()</text>
<text text-anchor="start" x="632.5" y="-57" font-family="Helvetica,sans-Serif" font-size="10.00">&#45; OnObtainedItem()</text>
</a>
</g>
</g>
<!-- Node0&#45;&gt;Node6 -->
<g id="edge6" class="edge"><title>Node0&#45;&gt;Node6</title>
<path fill="none" stroke="midnightblue" d="M735.287,-238.368C726.787,-211.646 718.179,-184.585 711.003,-162.025"/>
<polygon fill="none" stroke="midnightblue" points="732.044,-239.72 738.411,-248.188 738.715,-237.598 732.044,-239.72"/>
</g>
<!-- Node7 -->
<g id="node8" class="node"><title>Node7</title>
<g id="a_node8"><a xlink:href="class_quest_objectives_1_1_obtain_player.html" target="_top" xlink:title="Quest objective to obtain a certain player ">
<polygon fill="none" stroke="black" points="781,-50 781,-162 928,-162 928,-50 781,-50"/>
<text text-anchor="middle" x="854.5" y="-150" font-family="Helvetica,sans-Serif" font-size="10.00">QuestObjectives.ObtainPlayer</text>
<polyline fill="none" stroke="black" points="781,-143 928,-143 "/>
<text text-anchor="start" x="789" y="-131" font-family="Helvetica,sans-Serif" font-size="10.00">&#45; name</text>
<polyline fill="none" stroke="black" points="781,-124 928,-124 "/>
<text text-anchor="start" x="789" y="-112" font-family="Helvetica,sans-Serif" font-size="10.00">+ ObtainPlayer()</text>
<text text-anchor="start" x="789" y="-101" font-family="Helvetica,sans-Serif" font-size="10.00">+ GetObjectData()</text>
<text text-anchor="start" x="789" y="-90" font-family="Helvetica,sans-Serif" font-size="10.00"># subscribeHandlers()</text>
<text text-anchor="start" x="789" y="-79" font-family="Helvetica,sans-Serif" font-size="10.00"># unsubscribeHandlers()</text>
<text text-anchor="start" x="789" y="-68" font-family="Helvetica,sans-Serif" font-size="10.00"># ObtainPlayer()</text>
<text text-anchor="start" x="789" y="-57" font-family="Helvetica,sans-Serif" font-size="10.00">&#45; OnObtainedPlayer()</text>
</a>
</g>
</g>
<!-- Node0&#45;&gt;Node7 -->
<g id="edge7" class="edge"><title>Node0&#45;&gt;Node7</title>
<path fill="none" stroke="midnightblue" d="M812.191,-238.368C820.797,-211.646 829.512,-184.585 836.778,-162.025"/>
<polygon fill="none" stroke="midnightblue" points="808.762,-237.597 809.028,-248.188 815.425,-239.743 808.762,-237.597"/>
</g>
<!-- Node8 -->
<g id="node9" class="node"><title>Node8</title>
<g id="a_node9"><a xlink:href="class_quest_objectives_1_1_reach_level.html" target="_top" xlink:title="Quest objective to reach a desired level on any character ">
<polygon fill="none" stroke="black" points="946.5,-50 946.5,-162 1086.5,-162 1086.5,-50 946.5,-50"/>
<text text-anchor="middle" x="1016.5" y="-150" font-family="Helvetica,sans-Serif" font-size="10.00">QuestObjectives.ReachLevel</text>
<polyline fill="none" stroke="black" points="946.5,-143 1086.5,-143 "/>
<text text-anchor="start" x="954.5" y="-131" font-family="Helvetica,sans-Serif" font-size="10.00">&#45; level</text>
<polyline fill="none" stroke="black" points="946.5,-124 1086.5,-124 "/>
<text text-anchor="start" x="954.5" y="-112" font-family="Helvetica,sans-Serif" font-size="10.00">+ ReachLevel()</text>
<text text-anchor="start" x="954.5" y="-101" font-family="Helvetica,sans-Serif" font-size="10.00">+ GetObjectData()</text>
<text text-anchor="start" x="954.5" y="-90" font-family="Helvetica,sans-Serif" font-size="10.00"># subscribeHandlers()</text>
<text text-anchor="start" x="954.5" y="-79" font-family="Helvetica,sans-Serif" font-size="10.00"># unsubscribeHandlers()</text>
<text text-anchor="start" x="954.5" y="-68" font-family="Helvetica,sans-Serif" font-size="10.00"># ReachLevel()</text>
<text text-anchor="start" x="954.5" y="-57" font-family="Helvetica,sans-Serif" font-size="10.00">&#45; OnLevelUp()</text>
</a>
</g>
</g>
<!-- Node0&#45;&gt;Node8 -->
<g id="edge8" class="edge"><title>Node0&#45;&gt;Node8</title>
<path fill="none" stroke="midnightblue" d="M844.077,-300.822C874.132,-274.927 908.801,-243.219 937.5,-212 951.704,-196.549 965.901,-178.643 978.263,-162.041"/>
<polygon fill="none" stroke="midnightblue" points="841.457,-298.457 836.138,-307.62 846.01,-303.774 841.457,-298.457"/>
</g>
<!-- Node9 -->
<g id="node10" class="node"><title>Node9</title>
<g id="a_node10"><a xlink:href="class_quest_objectives_1_1_speedrun_level.html" target="_top" xlink:title="Quest objective to beat a certain level within a set amount of time ">
<polygon fill="none" stroke="black" points="1104.5,-0.5 1104.5,-211.5 1236.5,-211.5 1236.5,-0.5 1104.5,-0.5"/>
<text text-anchor="start" x="1112.5" y="-199.5" font-family="Helvetica,sans-Serif" font-size="10.00">QuestObjectives.Speedrun</text>
<text text-anchor="middle" x="1170.5" y="-188.5" font-family="Helvetica,sans-Serif" font-size="10.00">Level</text>
<polyline fill="none" stroke="black" points="1104.5,-181.5 1236.5,-181.5 "/>
<text text-anchor="start" x="1112.5" y="-169.5" font-family="Helvetica,sans-Serif" font-size="10.00">&#45; level</text>
<text text-anchor="start" x="1112.5" y="-158.5" font-family="Helvetica,sans-Serif" font-size="10.00">&#45; timeToBeatInSeconds</text>
<text text-anchor="start" x="1112.5" y="-147.5" font-family="Helvetica,sans-Serif" font-size="10.00">&#45; timer</text>
<text text-anchor="start" x="1112.5" y="-136.5" font-family="Helvetica,sans-Serif" font-size="10.00">&#45; endTime</text>
<polyline fill="none" stroke="black" points="1104.5,-129.5 1236.5,-129.5 "/>
<text text-anchor="start" x="1112.5" y="-117.5" font-family="Helvetica,sans-Serif" font-size="10.00">+ SpeedrunLevel()</text>
<text text-anchor="start" x="1112.5" y="-106.5" font-family="Helvetica,sans-Serif" font-size="10.00">+ SpeedrunLevel()</text>
<text text-anchor="start" x="1112.5" y="-95.5" font-family="Helvetica,sans-Serif" font-size="10.00">+ GetObjectData()</text>
<text text-anchor="start" x="1112.5" y="-84.5" font-family="Helvetica,sans-Serif" font-size="10.00"># subscribeHandlers()</text>
<text text-anchor="start" x="1112.5" y="-73.5" font-family="Helvetica,sans-Serif" font-size="10.00"># unsubscribeHandlers()</text>
<text text-anchor="start" x="1112.5" y="-62.5" font-family="Helvetica,sans-Serif" font-size="10.00"># dispose()</text>
<text text-anchor="start" x="1112.5" y="-51.5" font-family="Helvetica,sans-Serif" font-size="10.00"># SpeedrunLevel()</text>
<text text-anchor="start" x="1112.5" y="-40.5" font-family="Helvetica,sans-Serif" font-size="10.00">&#45; StartTimer()</text>
<text text-anchor="start" x="1112.5" y="-29.5" font-family="Helvetica,sans-Serif" font-size="10.00">&#45; OnBeatLevel()</text>
<text text-anchor="start" x="1112.5" y="-18.5" font-family="Helvetica,sans-Serif" font-size="10.00">&#45; OnSceneChange()</text>
<text text-anchor="start" x="1112.5" y="-7.5" font-family="Helvetica,sans-Serif" font-size="10.00">&#45; OnTimeUp()</text>
</a>
</g>
</g>
<!-- Node0&#45;&gt;Node9 -->
<g id="edge9" class="edge"><title>Node0&#45;&gt;Node9</title>
<path fill="none" stroke="midnightblue" d="M845.598,-337.776C915.081,-315.185 1020.44,-273.795 1095.5,-212 1098.44,-209.579 1101.32,-207.017 1104.14,-204.343"/>
<polygon fill="none" stroke="midnightblue" points="844.493,-334.454 836.038,-340.839 846.629,-341.12 844.493,-334.454"/>
</g>
<!-- Node10 -->
<g id="node11" class="node"><title>Node10</title>
<g id="a_node11"><a xlink:href="class_quest_objectives_1_1_win_battle_within_x_turns.html" target="_top" xlink:title="Quest objective to win a battle within a specified amount of turns ">
<polygon fill="none" stroke="black" points="1254.5,-22.5 1254.5,-189.5 1388.5,-189.5 1388.5,-22.5 1254.5,-22.5"/>
<text text-anchor="start" x="1262.5" y="-177.5" font-family="Helvetica,sans-Serif" font-size="10.00">QuestObjectives.WinBattle</text>
<text text-anchor="middle" x="1321.5" y="-166.5" font-family="Helvetica,sans-Serif" font-size="10.00">WithinXTurns</text>
<polyline fill="none" stroke="black" points="1254.5,-159.5 1388.5,-159.5 "/>
<text text-anchor="start" x="1262.5" y="-147.5" font-family="Helvetica,sans-Serif" font-size="10.00">&#45; turns</text>
<text text-anchor="start" x="1262.5" y="-136.5" font-family="Helvetica,sans-Serif" font-size="10.00">&#45; currentTurns</text>
<text text-anchor="start" x="1262.5" y="-125.5" font-family="Helvetica,sans-Serif" font-size="10.00">&#45; includeEnemyTurns</text>
<polyline fill="none" stroke="black" points="1254.5,-118.5 1388.5,-118.5 "/>
<text text-anchor="start" x="1262.5" y="-106.5" font-family="Helvetica,sans-Serif" font-size="10.00">+ WinBattleWithinXTurns()</text>
<text text-anchor="start" x="1262.5" y="-95.5" font-family="Helvetica,sans-Serif" font-size="10.00">+ GetObjectData()</text>
<text text-anchor="start" x="1262.5" y="-84.5" font-family="Helvetica,sans-Serif" font-size="10.00"># subscribeHandlers()</text>
<text text-anchor="start" x="1262.5" y="-73.5" font-family="Helvetica,sans-Serif" font-size="10.00"># unsubscribeHandlers()</text>
<text text-anchor="start" x="1262.5" y="-62.5" font-family="Helvetica,sans-Serif" font-size="10.00"># WinBattleWithinXTurns()</text>
<text text-anchor="start" x="1262.5" y="-51.5" font-family="Helvetica,sans-Serif" font-size="10.00">&#45; OnBattleStarted()</text>
<text text-anchor="start" x="1262.5" y="-40.5" font-family="Helvetica,sans-Serif" font-size="10.00">&#45; OnBattleMove()</text>
<text text-anchor="start" x="1262.5" y="-29.5" font-family="Helvetica,sans-Serif" font-size="10.00">&#45; OnBattleWon()</text>
</a>
</g>
</g>
<!-- Node0&#45;&gt;Node10 -->
<g id="edge10" class="edge"><title>Node0&#45;&gt;Node10</title>
<path fill="none" stroke="midnightblue" d="M846.188,-350.441C944.721,-336.49 1122.48,-300.314 1245.5,-212 1254.37,-205.635 1262.6,-197.914 1270.12,-189.577"/>
<polygon fill="none" stroke="midnightblue" points="845.459,-347.008 836.03,-351.84 846.414,-353.943 845.459,-347.008"/>
</g>
<!-- Node11 -->
<g id="node12" class="node"><title>Node11</title>
<g id="a_node12"><a xlink:href="class_quest_objectives_1_1_win_battle_without_specials.html" target="_top" xlink:title="Quest objective to win a battle without using any special attacks ">
<polygon fill="none" stroke="black" points="1406.5,-33.5 1406.5,-178.5 1552.5,-178.5 1552.5,-33.5 1406.5,-33.5"/>
<text text-anchor="start" x="1414.5" y="-166.5" font-family="Helvetica,sans-Serif" font-size="10.00">QuestObjectives.WinBattle</text>
<text text-anchor="middle" x="1479.5" y="-155.5" font-family="Helvetica,sans-Serif" font-size="10.00">WithoutSpecials</text>
<polyline fill="none" stroke="black" points="1406.5,-148.5 1552.5,-148.5 "/>
<text text-anchor="start" x="1414.5" y="-136.5" font-family="Helvetica,sans-Serif" font-size="10.00">&#45; failedThisBattle</text>
<polyline fill="none" stroke="black" points="1406.5,-129.5 1552.5,-129.5 "/>
<text text-anchor="start" x="1414.5" y="-117.5" font-family="Helvetica,sans-Serif" font-size="10.00">+ WinBattleWithoutSpecials()</text>
<text text-anchor="start" x="1414.5" y="-106.5" font-family="Helvetica,sans-Serif" font-size="10.00">+ GetObjectData()</text>
<text text-anchor="start" x="1414.5" y="-95.5" font-family="Helvetica,sans-Serif" font-size="10.00"># subscribeHandlers()</text>
<text text-anchor="start" x="1414.5" y="-84.5" font-family="Helvetica,sans-Serif" font-size="10.00"># unsubscribeHandlers()</text>
<text text-anchor="start" x="1414.5" y="-73.5" font-family="Helvetica,sans-Serif" font-size="10.00"># WinBattleWithoutSpecials()</text>
<text text-anchor="start" x="1414.5" y="-62.5" font-family="Helvetica,sans-Serif" font-size="10.00">&#45; OnBattleStarted()</text>
<text text-anchor="start" x="1414.5" y="-51.5" font-family="Helvetica,sans-Serif" font-size="10.00">&#45; OnMovePerformed()</text>
<text text-anchor="start" x="1414.5" y="-40.5" font-family="Helvetica,sans-Serif" font-size="10.00">&#45; OnBattleWon()</text>
</a>
</g>
</g>
<!-- Node0&#45;&gt;Node11 -->
<g id="edge11" class="edge"><title>Node0&#45;&gt;Node11</title>
<path fill="none" stroke="midnightblue" d="M846.391,-356.774C969.417,-350.693 1221.99,-324.292 1397.5,-212 1411.24,-203.212 1423.62,-191.301 1434.37,-178.653"/>
<polygon fill="none" stroke="midnightblue" points="846.154,-353.281 836.327,-357.24 846.478,-360.274 846.154,-353.281"/>
</g>
<!-- Node1 -->
<g id="node2" class="node"><title>Node1</title>
<polygon fill="none" stroke="#bfbfbf" points="697.5,-507.5 697.5,-575.5 849.5,-575.5 849.5,-507.5 697.5,-507.5"/>
<text text-anchor="start" x="705.5" y="-563.5" font-family="Helvetica,sans-Serif" font-size="10.00">System::Runtime::Serialization</text>
<text text-anchor="middle" x="773.5" y="-552.5" font-family="Helvetica,sans-Serif" font-size="10.00">::ISerializable</text>
<polyline fill="none" stroke="#bfbfbf" points="697.5,-545.5 849.5,-545.5 "/>
<text text-anchor="middle" x="773.5" y="-533.5" font-family="Helvetica,sans-Serif" font-size="10.00"> </text>
<polyline fill="none" stroke="#bfbfbf" points="697.5,-526.5 849.5,-526.5 "/>
<text text-anchor="middle" x="773.5" y="-514.5" font-family="Helvetica,sans-Serif" font-size="10.00"> </text>
</g>
<!-- Node1&#45;&gt;Node0 -->
<g id="edge1" class="edge"><title>Node1&#45;&gt;Node0</title>
<path fill="none" stroke="midnightblue" d="M773.5,-497.349C773.5,-489.006 773.5,-479.919 773.5,-470.525"/>
<polygon fill="none" stroke="midnightblue" points="770,-497.485 773.5,-507.485 777,-497.485 770,-497.485"/>
</g>
</g>
</svg>
