<?xml version="1.0" encoding="UTF-8" standalone="no"?>
<!DOCTYPE svg PUBLIC "-//W3C//DTD SVG 1.1//EN"
 "http://www.w3.org/Graphics/SVG/1.1/DTD/svg11.dtd">
<!-- Generated by graphviz version 2.38.0 (20140413.2041)
 -->
<!-- Title: ItemPurchase Pages: 1 -->
<svg width="481pt" height="386pt"
 viewBox="0.00 0.00 480.50 386.00" xmlns="http://www.w3.org/2000/svg" xmlns:xlink="http://www.w3.org/1999/xlink">
<g id="graph0" class="graph" transform="scale(1 1) rotate(0) translate(4 382)">
<title>ItemPurchase</title>
<!-- Node2 -->
<g id="node1" class="node"><title>Node2</title>
<polygon fill="#bfbfbf" stroke="black" points="210,-0.5 210,-101.5 289,-101.5 289,-0.5 210,-0.5"/>
<text text-anchor="middle" x="249.5" y="-89.5" font-family="Helvetica,sans-Serif" font-size="10.00">ItemPurchase</text>
<polyline fill="none" stroke="black" points="210,-82.5 289,-82.5 "/>
<text text-anchor="middle" x="249.5" y="-70.5" font-family="Helvetica,sans-Serif" font-size="10.00"> </text>
<polyline fill="none" stroke="black" points="210,-63.5 289,-63.5 "/>
<text text-anchor="start" x="218" y="-51.5" font-family="Helvetica,sans-Serif" font-size="10.00">&#45; Start()</text>
<text text-anchor="start" x="218" y="-40.5" font-family="Helvetica,sans-Serif" font-size="10.00">&#45; buyItem()</text>
<text text-anchor="start" x="218" y="-29.5" font-family="Helvetica,sans-Serif" font-size="10.00">&#45; sellItem()</text>
<text text-anchor="start" x="218" y="-18.5" font-family="Helvetica,sans-Serif" font-size="10.00">&#45; Update()</text>
<text text-anchor="start" x="218" y="-7.5" font-family="Helvetica,sans-Serif" font-size="10.00">&#45; checkItems()</text>
</g>
<!-- Node3 -->
<g id="node2" class="node"><title>Node3</title>
<g id="a_node2"><a xlink:href="class_mono_behaviour.html" target="_top" xlink:title="{MonoBehaviour\n||}">
<polygon fill="none" stroke="black" points="0,-188 0,-245 83,-245 83,-188 0,-188"/>
<text text-anchor="middle" x="41.5" y="-233" font-family="Helvetica,sans-Serif" font-size="10.00">MonoBehaviour</text>
<polyline fill="none" stroke="black" points="0,-226 83,-226 "/>
<text text-anchor="middle" x="41.5" y="-214" font-family="Helvetica,sans-Serif" font-size="10.00"> </text>
<polyline fill="none" stroke="black" points="0,-207 83,-207 "/>
<text text-anchor="middle" x="41.5" y="-195" font-family="Helvetica,sans-Serif" font-size="10.00"> </text>
</a>
</g>
</g>
<!-- Node3&#45;&gt;Node2 -->
<g id="edge1" class="edge"><title>Node3&#45;&gt;Node2</title>
<path fill="none" stroke="midnightblue" d="M76.7287,-180.934C96.5666,-162.126 122.176,-138.908 146.5,-120 166.632,-104.351 190.303,-88.5569 209.874,-76.1345"/>
<polygon fill="none" stroke="midnightblue" points="74.2394,-178.472 69.4229,-187.909 79.073,-183.535 74.2394,-178.472"/>
</g>
<!-- Node4 -->
<g id="node3" class="node"><title>Node4</title>
<g id="a_node3"><a xlink:href="class_item.html" target="_top" xlink:title="Abstract class for items that can be equipped to a player, increasing some of their stats ...">
<polygon fill="none" stroke="black" points="101,-171.5 101,-261.5 178,-261.5 178,-171.5 101,-171.5"/>
<text text-anchor="middle" x="139.5" y="-249.5" font-family="Helvetica,sans-Serif" font-size="10.00">Item</text>
<polyline fill="none" stroke="black" points="101,-242.5 178,-242.5 "/>
<text text-anchor="start" x="109" y="-230.5" font-family="Helvetica,sans-Serif" font-size="10.00">+ Name</text>
<text text-anchor="start" x="109" y="-219.5" font-family="Helvetica,sans-Serif" font-size="10.00">+ Desc</text>
<text text-anchor="start" x="109" y="-208.5" font-family="Helvetica,sans-Serif" font-size="10.00">+ Cost</text>
<polyline fill="none" stroke="black" points="101,-201.5 178,-201.5 "/>
<text text-anchor="start" x="109" y="-189.5" font-family="Helvetica,sans-Serif" font-size="10.00">+ applyBuffs()</text>
<text text-anchor="start" x="109" y="-178.5" font-family="Helvetica,sans-Serif" font-size="10.00">+ revertBuffs()</text>
</a>
</g>
</g>
<!-- Node4&#45;&gt;Node2 -->
<g id="edge2" class="edge"><title>Node4&#45;&gt;Node2</title>
<path fill="none" stroke="#404040" d="M144.999,-171.252C148.617,-154.227 154.604,-135.235 164.5,-120 173.605,-105.982 186.566,-93.5324 199.631,-83.2415"/>
<polygon fill="none" stroke="#404040" points="199.97,-82.9884 202.38,-76.1919 209.58,-75.8025 207.17,-82.599 199.97,-82.9884"/>
<text text-anchor="middle" x="185" y="-134" font-family="Helvetica,sans-Serif" font-size="10.00"> &#45;thisItem</text>
</g>
<!-- Node5 -->
<g id="node4" class="node"><title>Node5</title>
<polygon fill="none" stroke="#bfbfbf" points="93,-320.5 93,-377.5 134,-377.5 134,-320.5 93,-320.5"/>
<text text-anchor="middle" x="113.5" y="-365.5" font-family="Helvetica,sans-Serif" font-size="10.00">string</text>
<polyline fill="none" stroke="#bfbfbf" points="93,-358.5 134,-358.5 "/>
<text text-anchor="middle" x="113.5" y="-346.5" font-family="Helvetica,sans-Serif" font-size="10.00"> </text>
<polyline fill="none" stroke="#bfbfbf" points="93,-339.5 134,-339.5 "/>
<text text-anchor="middle" x="113.5" y="-327.5" font-family="Helvetica,sans-Serif" font-size="10.00"> </text>
</g>
<!-- Node5&#45;&gt;Node4 -->
<g id="edge3" class="edge"><title>Node5&#45;&gt;Node4</title>
<path fill="none" stroke="#404040" d="M111.636,-320.297C111.379,-307.864 111.881,-293.082 114.5,-280 114.956,-277.722 115.492,-275.422 116.092,-273.116"/>
<polygon fill="none" stroke="#404040" points="116.096,-273.104 114.001,-266.203 119.565,-261.616 121.66,-268.516 116.096,-273.104"/>
<text text-anchor="middle" x="129.5" y="-294" font-family="Helvetica,sans-Serif" font-size="10.00"> #desc</text>
<text text-anchor="middle" x="129.5" y="-283" font-family="Helvetica,sans-Serif" font-size="10.00">#name</text>
</g>
<!-- Node6 -->
<g id="node5" class="node"><title>Node6</title>
<polygon fill="none" stroke="#bfbfbf" points="152,-320.5 152,-377.5 181,-377.5 181,-320.5 152,-320.5"/>
<text text-anchor="middle" x="166.5" y="-365.5" font-family="Helvetica,sans-Serif" font-size="10.00">int</text>
<polyline fill="none" stroke="#bfbfbf" points="152,-358.5 181,-358.5 "/>
<text text-anchor="middle" x="166.5" y="-346.5" font-family="Helvetica,sans-Serif" font-size="10.00"> </text>
<polyline fill="none" stroke="#bfbfbf" points="152,-339.5 181,-339.5 "/>
<text text-anchor="middle" x="166.5" y="-327.5" font-family="Helvetica,sans-Serif" font-size="10.00"> </text>
</g>
<!-- Node6&#45;&gt;Node4 -->
<g id="edge4" class="edge"><title>Node6&#45;&gt;Node4</title>
<path fill="none" stroke="#404040" d="M160.774,-320.324C157.962,-306.731 154.466,-289.837 151.127,-273.696"/>
<polygon fill="none" stroke="#404040" points="151.049,-273.319 145.916,-268.254 148.617,-261.568 153.75,-266.633 151.049,-273.319"/>
<text text-anchor="middle" x="170.5" y="-288.5" font-family="Helvetica,sans-Serif" font-size="10.00"> #cost</text>
</g>
<!-- Node7 -->
<g id="node6" class="node"><title>Node7</title>
<polygon fill="none" stroke="#bfbfbf" points="196.5,-188 196.5,-245 244.5,-245 244.5,-188 196.5,-188"/>
<text text-anchor="middle" x="220.5" y="-233" font-family="Helvetica,sans-Serif" font-size="10.00">Canvas</text>
<polyline fill="none" stroke="#bfbfbf" points="196.5,-226 244.5,-226 "/>
<text text-anchor="middle" x="220.5" y="-214" font-family="Helvetica,sans-Serif" font-size="10.00"> </text>
<polyline fill="none" stroke="#bfbfbf" points="196.5,-207 244.5,-207 "/>
<text text-anchor="middle" x="220.5" y="-195" font-family="Helvetica,sans-Serif" font-size="10.00"> </text>
</g>
<!-- Node7&#45;&gt;Node2 -->
<g id="edge5" class="edge"><title>Node7&#45;&gt;Node2</title>
<path fill="none" stroke="#404040" d="M213.441,-187.935C209.646,-168.641 206.797,-142.413 212.5,-120 213.084,-117.704 213.763,-115.402 214.521,-113.106"/>
<polygon fill="none" stroke="#404040" points="214.591,-112.925 213.011,-105.889 218.898,-101.725 220.478,-108.761 214.591,-112.925"/>
<text text-anchor="middle" x="239.5" y="-134" font-family="Helvetica,sans-Serif" font-size="10.00"> &#45;thisCanvas</text>
</g>
<!-- Node8 -->
<g id="node7" class="node"><title>Node8</title>
<polygon fill="none" stroke="#bfbfbf" points="271,-188 271,-245 306,-245 306,-188 271,-188"/>
<text text-anchor="middle" x="288.5" y="-233" font-family="Helvetica,sans-Serif" font-size="10.00">Text</text>
<polyline fill="none" stroke="#bfbfbf" points="271,-226 306,-226 "/>
<text text-anchor="middle" x="288.5" y="-214" font-family="Helvetica,sans-Serif" font-size="10.00"> </text>
<polyline fill="none" stroke="#bfbfbf" points="271,-207 306,-207 "/>
<text text-anchor="middle" x="288.5" y="-195" font-family="Helvetica,sans-Serif" font-size="10.00"> </text>
</g>
<!-- Node8&#45;&gt;Node2 -->
<g id="edge6" class="edge"><title>Node8&#45;&gt;Node2</title>
<path fill="none" stroke="#404040" d="M282.281,-187.886C277.948,-168.798 271.983,-142.83 266.5,-120 265.989,-117.874 265.467,-115.711 264.936,-113.528"/>
<polygon fill="none" stroke="#404040" points="264.903,-113.394 259.591,-108.518 262.048,-101.739 267.361,-106.614 264.903,-113.394"/>
<text text-anchor="middle" x="309.5" y="-145" font-family="Helvetica,sans-Serif" font-size="10.00"> &#45;buyButtonText</text>
<text text-anchor="middle" x="309.5" y="-134" font-family="Helvetica,sans-Serif" font-size="10.00">&#45;sellButtonText</text>
<text text-anchor="middle" x="309.5" y="-123" font-family="Helvetica,sans-Serif" font-size="10.00">&#45;itemName</text>
</g>
<!-- Node9 -->
<g id="node8" class="node"><title>Node9</title>
<polygon fill="none" stroke="#bfbfbf" points="361,-188 361,-245 402,-245 402,-188 361,-188"/>
<text text-anchor="middle" x="381.5" y="-233" font-family="Helvetica,sans-Serif" font-size="10.00">Items</text>
<polyline fill="none" stroke="#bfbfbf" points="361,-226 402,-226 "/>
<text text-anchor="middle" x="381.5" y="-214" font-family="Helvetica,sans-Serif" font-size="10.00"> </text>
<polyline fill="none" stroke="#bfbfbf" points="361,-207 402,-207 "/>
<text text-anchor="middle" x="381.5" y="-195" font-family="Helvetica,sans-Serif" font-size="10.00"> </text>
</g>
<!-- Node9&#45;&gt;Node2 -->
<g id="edge7" class="edge"><title>Node9&#45;&gt;Node2</title>
<path fill="none" stroke="#404040" d="M376.77,-187.77C372.213,-167.417 363.697,-139.957 348.5,-120 335.632,-103.102 317.331,-88.8861 299.958,-77.8926"/>
<polygon fill="none" stroke="#404040" points="299.59,-77.6707 292.386,-77.9941 289.317,-71.4688 296.521,-71.1453 299.59,-77.6707"/>
<text text-anchor="middle" x="380.5" y="-134" font-family="Helvetica,sans-Serif" font-size="10.00"> +item</text>
</g>
<!-- Node10 -->
<g id="node9" class="node"><title>Node10</title>
<polygon fill="none" stroke="#bfbfbf" points="420,-188 420,-245 465,-245 465,-188 420,-188"/>
<text text-anchor="middle" x="442.5" y="-233" font-family="Helvetica,sans-Serif" font-size="10.00">Button</text>
<polyline fill="none" stroke="#bfbfbf" points="420,-226 465,-226 "/>
<text text-anchor="middle" x="442.5" y="-214" font-family="Helvetica,sans-Serif" font-size="10.00"> </text>
<polyline fill="none" stroke="#bfbfbf" points="420,-207 465,-207 "/>
<text text-anchor="middle" x="442.5" y="-195" font-family="Helvetica,sans-Serif" font-size="10.00"> </text>
</g>
<!-- Node10&#45;&gt;Node2 -->
<g id="edge8" class="edge"><title>Node10&#45;&gt;Node2</title>
<path fill="none" stroke="#404040" d="M435.433,-187.744C428.876,-166.84 417.251,-138.683 398.5,-120 371.62,-93.2162 332.274,-75.8781 300.764,-65.4161"/>
<polygon fill="none" stroke="#404040" points="300.557,-65.3507 293.631,-67.3586 289.113,-61.7377 296.039,-59.7298 300.557,-65.3507"/>
<text text-anchor="middle" x="447" y="-139.5" font-family="Helvetica,sans-Serif" font-size="10.00"> &#45;buyButton</text>
<text text-anchor="middle" x="447" y="-128.5" font-family="Helvetica,sans-Serif" font-size="10.00">&#45;sellButton</text>
</g>
</g>
</svg>
