<?xml version="1.0" encoding="UTF-8" standalone="no"?>
<!DOCTYPE svg PUBLIC "-//W3C//DTD SVG 1.1//EN"
 "http://www.w3.org/Graphics/SVG/1.1/DTD/svg11.dtd">
<!-- Generated by graphviz version 2.38.0 (20140413.2041)
 -->
<!-- Title: Quest Pages: 1 -->
<svg width="375pt" height="226pt"
 viewBox="0.00 0.00 375.00 226.00" xmlns="http://www.w3.org/2000/svg" xmlns:xlink="http://www.w3.org/1999/xlink">
<g id="graph0" class="graph" transform="scale(1 1) rotate(0) translate(4 222)">
<title>Quest</title>
<!-- Node1 -->
<g id="node1" class="node"><title>Node1</title>
<polygon fill="#bfbfbf" stroke="black" points="130,-0.5 130,-101.5 258,-101.5 258,-0.5 130,-0.5"/>
<text text-anchor="middle" x="194" y="-89.5" font-family="Helvetica,sans-Serif" font-size="10.00">Quest</text>
<polyline fill="none" stroke="black" points="130,-82.5 258,-82.5 "/>
<text text-anchor="start" x="138" y="-70.5" font-family="Helvetica,sans-Serif" font-size="10.00">+ State</text>
<text text-anchor="start" x="138" y="-59.5" font-family="Helvetica,sans-Serif" font-size="10.00">+ ObjectiveCount</text>
<polyline fill="none" stroke="black" points="130,-52.5 258,-52.5 "/>
<text text-anchor="start" x="138" y="-40.5" font-family="Helvetica,sans-Serif" font-size="10.00">+ addObjective()</text>
<text text-anchor="start" x="138" y="-29.5" font-family="Helvetica,sans-Serif" font-size="10.00">+ getObjectives()</text>
<text text-anchor="start" x="138" y="-18.5" font-family="Helvetica,sans-Serif" font-size="10.00">&#45; OnCompletedObjective()</text>
<text text-anchor="start" x="138" y="-7.5" font-family="Helvetica,sans-Serif" font-size="10.00">&#45; OnFailedObjective()</text>
</g>
<!-- Node2 -->
<g id="node2" class="node"><title>Node2</title>
<polygon fill="none" stroke="#bfbfbf" points="0,-160.5 0,-217.5 116,-217.5 116,-160.5 0,-160.5"/>
<text text-anchor="middle" x="58" y="-205.5" font-family="Helvetica,sans-Serif" font-size="10.00">List&lt; QuestObjective &gt;</text>
<polyline fill="none" stroke="#bfbfbf" points="0,-198.5 116,-198.5 "/>
<text text-anchor="middle" x="58" y="-186.5" font-family="Helvetica,sans-Serif" font-size="10.00"> </text>
<polyline fill="none" stroke="#bfbfbf" points="0,-179.5 116,-179.5 "/>
<text text-anchor="middle" x="58" y="-167.5" font-family="Helvetica,sans-Serif" font-size="10.00"> </text>
</g>
<!-- Node2&#45;&gt;Node1 -->
<g id="edge1" class="edge"><title>Node2&#45;&gt;Node1</title>
<path fill="none" stroke="#404040" d="M59.8822,-160.337C61.9676,-147.048 66.2558,-131.543 75,-120 86.4919,-104.83 102.419,-92.5018 118.887,-82.7201"/>
<polygon fill="none" stroke="#404040" points="119.27,-82.5065 122.558,-76.0887 129.747,-76.6556 126.458,-83.0734 119.27,-82.5065"/>
<text text-anchor="middle" x="113" y="-128.5" font-family="Helvetica,sans-Serif" font-size="10.00"> &#45;questObjectives</text>
</g>
<!-- Node3 -->
<g id="node3" class="node"><title>Node3</title>
<polygon fill="none" stroke="#bfbfbf" points="142.5,-160.5 142.5,-217.5 171.5,-217.5 171.5,-160.5 142.5,-160.5"/>
<text text-anchor="middle" x="157" y="-205.5" font-family="Helvetica,sans-Serif" font-size="10.00">int</text>
<polyline fill="none" stroke="#bfbfbf" points="142.5,-198.5 171.5,-198.5 "/>
<text text-anchor="middle" x="157" y="-186.5" font-family="Helvetica,sans-Serif" font-size="10.00"> </text>
<polyline fill="none" stroke="#bfbfbf" points="142.5,-179.5 171.5,-179.5 "/>
<text text-anchor="middle" x="157" y="-167.5" font-family="Helvetica,sans-Serif" font-size="10.00"> </text>
</g>
<!-- Node3&#45;&gt;Node1 -->
<g id="edge2" class="edge"><title>Node3&#45;&gt;Node1</title>
<path fill="none" stroke="#404040" d="M154.498,-160.479C154.096,-147.949 154.66,-133.039 158,-120 158.584,-117.719 159.259,-115.43 160.008,-113.145"/>
<polygon fill="none" stroke="#404040" points="160.054,-113.024 158.442,-105.996 164.31,-101.805 165.922,-108.833 160.054,-113.024"/>
<text text-anchor="middle" x="184" y="-134" font-family="Helvetica,sans-Serif" font-size="10.00"> &#45;completed</text>
<text text-anchor="middle" x="184" y="-123" font-family="Helvetica,sans-Serif" font-size="10.00">+reward</text>
</g>
<!-- Node4 -->
<g id="node4" class="node"><title>Node4</title>
<polygon fill="none" stroke="#bfbfbf" points="214.5,-160.5 214.5,-217.5 249.5,-217.5 249.5,-160.5 214.5,-160.5"/>
<text text-anchor="middle" x="232" y="-205.5" font-family="Helvetica,sans-Serif" font-size="10.00">bool</text>
<polyline fill="none" stroke="#bfbfbf" points="214.5,-198.5 249.5,-198.5 "/>
<text text-anchor="middle" x="232" y="-186.5" font-family="Helvetica,sans-Serif" font-size="10.00"> </text>
<polyline fill="none" stroke="#bfbfbf" points="214.5,-179.5 249.5,-179.5 "/>
<text text-anchor="middle" x="232" y="-167.5" font-family="Helvetica,sans-Serif" font-size="10.00"> </text>
</g>
<!-- Node4&#45;&gt;Node1 -->
<g id="edge3" class="edge"><title>Node4&#45;&gt;Node1</title>
<path fill="none" stroke="#404040" d="M224.31,-160.478C220.523,-146.925 215.794,-129.999 211.205,-113.577"/>
<polygon fill="none" stroke="#404040" points="211.134,-113.321 205.667,-108.619 207.905,-101.764 213.372,-106.466 211.134,-113.321"/>
<text text-anchor="middle" x="258.5" y="-128.5" font-family="Helvetica,sans-Serif" font-size="10.00"> +rewardCollected</text>
</g>
<!-- Node5 -->
<g id="node5" class="node"><title>Node5</title>
<polygon fill="none" stroke="#bfbfbf" points="301,-160.5 301,-217.5 367,-217.5 367,-160.5 301,-160.5"/>
<text text-anchor="middle" x="334" y="-205.5" font-family="Helvetica,sans-Serif" font-size="10.00">QuestState</text>
<polyline fill="none" stroke="#bfbfbf" points="301,-198.5 367,-198.5 "/>
<text text-anchor="middle" x="334" y="-186.5" font-family="Helvetica,sans-Serif" font-size="10.00"> </text>
<polyline fill="none" stroke="#bfbfbf" points="301,-179.5 367,-179.5 "/>
<text text-anchor="middle" x="334" y="-167.5" font-family="Helvetica,sans-Serif" font-size="10.00"> </text>
</g>
<!-- Node5&#45;&gt;Node1 -->
<g id="edge4" class="edge"><title>Node5&#45;&gt;Node1</title>
<path fill="none" stroke="#404040" d="M325.155,-160.411C319.927,-147.139 312.289,-131.628 302,-120 292.365,-109.11 280.572,-99.335 268.362,-90.8186"/>
<polygon fill="none" stroke="#404040" points="268.04,-90.6048 260.829,-90.6161 258.045,-83.964 265.256,-83.9527 268.04,-90.6048"/>
<text text-anchor="middle" x="330" y="-128.5" font-family="Helvetica,sans-Serif" font-size="10.00"> &#45;state</text>
</g>
</g>
</svg>
