<?xml version="1.0" encoding="UTF-8" standalone="no"?>
<!DOCTYPE svg PUBLIC "-//W3C//DTD SVG 1.1//EN"
 "http://www.w3.org/Graphics/SVG/1.1/DTD/svg11.dtd">
<!-- Generated by graphviz version 2.38.0 (20140413.2041)
 -->
<!-- Title: PlayerMenu Pages: 1 -->
<!--zoomable 1276 -->
<svg id="main" version="1.1" xmlns="http://www.w3.org/2000/svg" xmlns:xlink="http://www.w3.org/1999/xlink" xml:space="preserve" onload="init(evt)">
<style type="text/css"><![CDATA[
.edge:hover path { stroke: red; }
.edge:hover polygon { stroke: red; fill: red; }
]]></style>
<script type="text/javascript"><![CDATA[
var edges = document.getElementsByTagName('g');
if (edges && edges.length) {
  for (var i=0;i<edges.length;i++) {
    if (edges[i].id.substr(0,4)=='edge') {
      edges[i].setAttribute('class','edge');
    }
  }
}
]]></script>
        <defs>
                <circle id="rim" cx="0" cy="0" r="7"/>
                <circle id="rim2" cx="0" cy="0" r="3.5"/>
                <g id="zoomPlus">
                        <use xlink:href="#rim" fill="#404040">
                                <set attributeName="fill" to="#808080" begin="zoomplus.mouseover" end="zoomplus.mouseout"/>
                        </use>
                        <path d="M-4,0h8M0,-4v8" fill="none" stroke="white" stroke-width="1.5" pointer-events="none"/>
                </g>
                <g id="zoomMin">
                        <use xlink:href="#rim" fill="#404040">
                                <set attributeName="fill" to="#808080" begin="zoomminus.mouseover" end="zoomminus.mouseout"/>
                        </use>
                        <path d="M-4,0h8" fill="none" stroke="white" stroke-width="1.5" pointer-events="none"/>
                </g>
                <g id="dirArrow">
                        <path fill="none" stroke="white" stroke-width="1.5" d="M0,-3.0v7 M-2.5,-0.5L0,-3.0L2.5,-0.5"/>
                </g>
               <g id="resetDef">
                       <use xlink:href="#rim2" fill="#404040">
                               <set attributeName="fill" to="#808080" begin="reset.mouseover" end="reset.mouseout"/>
                       </use>
               </g>
        </defs>

<script type="text/javascript">
var viewWidth = 852;
var viewHeight = 1276;
var sectionId = 'dynsection-1';
</script>
<script xlink:href="svgpan.js"/>
<svg id="graph" class="graph">
<g id="viewport">
<title>PlayerMenu</title>
<!-- Node2 -->
<g id="node1" class="node"><title>Node2</title>
<polygon fill="#bfbfbf" stroke="black" points="88.5,-719.5 88.5,-798.5 176.5,-798.5 176.5,-719.5 88.5,-719.5"/>
<text text-anchor="middle" x="132.5" y="-786.5" font-family="Helvetica,sans-Serif" font-size="10.00">PlayerMenu</text>
<polyline fill="none" stroke="black" points="88.5,-779.5 176.5,-779.5 "/>
<text text-anchor="middle" x="132.5" y="-767.5" font-family="Helvetica,sans-Serif" font-size="10.00"> </text>
<polyline fill="none" stroke="black" points="88.5,-760.5 176.5,-760.5 "/>
<text text-anchor="start" x="96.5" y="-748.5" font-family="Helvetica,sans-Serif" font-size="10.00">+ OnItemPlace()</text>
<text text-anchor="start" x="96.5" y="-737.5" font-family="Helvetica,sans-Serif" font-size="10.00">+ back()</text>
<text text-anchor="start" x="96.5" y="-726.5" font-family="Helvetica,sans-Serif" font-size="10.00">&#45; Start()</text>
</g>
<!-- Node3 -->
<g id="node2" class="node"><title>Node3</title>
<g id="a_node2"><a xlink:href="class_mono_behaviour.html" target="_top" xlink:title="{MonoBehaviour\n||}">
<polygon fill="none" stroke="black" points="0,-929 0,-986 83,-986 83,-929 0,-929"/>
<text text-anchor="middle" x="41.5" y="-974" font-family="Helvetica,sans-Serif" font-size="10.00">MonoBehaviour</text>
<polyline fill="none" stroke="black" points="0,-967 83,-967 "/>
<text text-anchor="middle" x="41.5" y="-955" font-family="Helvetica,sans-Serif" font-size="10.00"> </text>
<polyline fill="none" stroke="black" points="0,-948 83,-948 "/>
<text text-anchor="middle" x="41.5" y="-936" font-family="Helvetica,sans-Serif" font-size="10.00"> </text>
</a>
</g>
</g>
<!-- Node3&#45;&gt;Node2 -->
<g id="edge1" class="edge"><title>Node3&#45;&gt;Node2</title>
<path fill="none" stroke="midnightblue" d="M58.6306,-919.509C74.5992,-885.028 98.3246,-833.796 114.551,-798.757"/>
<polygon fill="none" stroke="midnightblue" points="55.3715,-918.218 54.3451,-928.763 61.7234,-921.16 55.3715,-918.218"/>
</g>
<!-- Node4 -->
<g id="node3" class="node"><title>Node4</title>
<polygon fill="none" stroke="#bfbfbf" points="101,-929 101,-986 172,-986 172,-929 101,-929"/>
<text text-anchor="middle" x="136.5" y="-974" font-family="Helvetica,sans-Serif" font-size="10.00">GameObject</text>
<polyline fill="none" stroke="#bfbfbf" points="101,-967 172,-967 "/>
<text text-anchor="middle" x="136.5" y="-955" font-family="Helvetica,sans-Serif" font-size="10.00"> </text>
<polyline fill="none" stroke="#bfbfbf" points="101,-948 172,-948 "/>
<text text-anchor="middle" x="136.5" y="-936" font-family="Helvetica,sans-Serif" font-size="10.00"> </text>
</g>
<!-- Node4&#45;&gt;Node2 -->
<g id="edge2" class="edge"><title>Node4&#45;&gt;Node2</title>
<path fill="none" stroke="#404040" d="M135.935,-928.763C135.314,-898.253 134.303,-848.569 133.538,-810.991"/>
<polygon fill="none" stroke="#404040" points="133.533,-810.755 129.412,-804.837 133.289,-798.757 137.41,-804.674 133.533,-810.755"/>
<text text-anchor="middle" x="152" y="-875" font-family="Helvetica,sans-Serif" font-size="10.00"> &#45;player</text>
</g>
<!-- Node5 -->
<g id="node4" class="node"><title>Node5</title>
<g id="a_node4"><a xlink:href="class_player.html" target="_top" xlink:title="Defines a playable character for use in battle scenes">
<polygon fill="none" stroke="black" points="232.5,-901.5 232.5,-1013.5 344.5,-1013.5 344.5,-901.5 232.5,-901.5"/>
<text text-anchor="middle" x="288.5" y="-1001.5" font-family="Helvetica,sans-Serif" font-size="10.00">Player</text>
<polyline fill="none" stroke="black" points="232.5,-994.5 344.5,-994.5 "/>
<text text-anchor="start" x="240.5" y="-982.5" font-family="Helvetica,sans-Serif" font-size="10.00">+ Exp</text>
<text text-anchor="start" x="240.5" y="-971.5" font-family="Helvetica,sans-Serif" font-size="10.00">+ Item</text>
<text text-anchor="start" x="240.5" y="-960.5" font-family="Helvetica,sans-Serif" font-size="10.00">+ ExpToNextLevel</text>
<polyline fill="none" stroke="black" points="232.5,-953.5 344.5,-953.5 "/>
<text text-anchor="start" x="240.5" y="-941.5" font-family="Helvetica,sans-Serif" font-size="10.00">+ Player()</text>
<text text-anchor="start" x="240.5" y="-930.5" font-family="Helvetica,sans-Serif" font-size="10.00">+ gainExp()</text>
<text text-anchor="start" x="240.5" y="-919.5" font-family="Helvetica,sans-Serif" font-size="10.00">+ levelUp()</text>
<text text-anchor="start" x="240.5" y="-908.5" font-family="Helvetica,sans-Serif" font-size="10.00">&#45; setExpToNextLevel()</text>
</a>
</g>
</g>
<!-- Node5&#45;&gt;Node2 -->
<g id="edge3" class="edge"><title>Node5&#45;&gt;Node2</title>
<path fill="none" stroke="#404040" d="M244.63,-901.241C221.413,-871.997 193.171,-836.422 170.839,-808.292"/>
<polygon fill="none" stroke="#404040" points="170.666,-808.074 163.802,-805.862 163.204,-798.675 170.068,-800.888 170.666,-808.074"/>
<text text-anchor="middle" x="248.5" y="-875" font-family="Helvetica,sans-Serif" font-size="10.00"> &#45;players</text>
</g>
<!-- Node11 -->
<g id="node10" class="node"><title>Node11</title>
<g id="a_node10"><a xlink:href="class_battle_manager.html" target="_top" xlink:title="Holds current Player and Enemy objects in battle and provides functions for MainBattle and other obje...">
<polygon fill="none" stroke="black" points="349.5,-664.5 349.5,-853.5 465.5,-853.5 465.5,-664.5 349.5,-664.5"/>
<text text-anchor="middle" x="407.5" y="-841.5" font-family="Helvetica,sans-Serif" font-size="10.00">BattleManager</text>
<polyline fill="none" stroke="black" points="349.5,-834.5 465.5,-834.5 "/>
<text text-anchor="start" x="357.5" y="-822.5" font-family="Helvetica,sans-Serif" font-size="10.00">+ Player</text>
<text text-anchor="start" x="357.5" y="-811.5" font-family="Helvetica,sans-Serif" font-size="10.00">+ Enemy</text>
<text text-anchor="start" x="357.5" y="-800.5" font-family="Helvetica,sans-Serif" font-size="10.00">+ WasCriticalHit</text>
<polyline fill="none" stroke="black" points="349.5,-793.5 465.5,-793.5 "/>
<text text-anchor="start" x="357.5" y="-781.5" font-family="Helvetica,sans-Serif" font-size="10.00">+ BattleManager()</text>
<text text-anchor="start" x="357.5" y="-770.5" font-family="Helvetica,sans-Serif" font-size="10.00">+ playerFirst()</text>
<text text-anchor="start" x="357.5" y="-759.5" font-family="Helvetica,sans-Serif" font-size="10.00">+ switchPlayers()</text>
<text text-anchor="start" x="357.5" y="-748.5" font-family="Helvetica,sans-Serif" font-size="10.00">+ isCriticalHit()</text>
<text text-anchor="start" x="357.5" y="-737.5" font-family="Helvetica,sans-Serif" font-size="10.00">+ ranAway()</text>
<text text-anchor="start" x="357.5" y="-726.5" font-family="Helvetica,sans-Serif" font-size="10.00">+ damageCalculation()</text>
<text text-anchor="start" x="357.5" y="-715.5" font-family="Helvetica,sans-Serif" font-size="10.00">+ enemyMove()</text>
<text text-anchor="start" x="357.5" y="-704.5" font-family="Helvetica,sans-Serif" font-size="10.00">+ enemySpecialMove()</text>
<text text-anchor="start" x="357.5" y="-693.5" font-family="Helvetica,sans-Serif" font-size="10.00">+ battleWon()</text>
<text text-anchor="start" x="357.5" y="-682.5" font-family="Helvetica,sans-Serif" font-size="10.00">+ playerFainted()</text>
<text text-anchor="start" x="357.5" y="-671.5" font-family="Helvetica,sans-Serif" font-size="10.00">&#45; characterFainted()</text>
</a>
</g>
</g>
<!-- Node5&#45;&gt;Node11 -->
<g id="edge18" class="edge"><title>Node5&#45;&gt;Node11</title>
<path fill="none" stroke="#404040" d="M321.965,-901.241C329.071,-889.507 336.794,-876.754 344.595,-863.872"/>
<polygon fill="none" stroke="#404040" points="344.642,-863.795 344.329,-856.591 350.858,-853.53 351.172,-860.735 344.642,-863.795"/>
<text text-anchor="middle" x="354" y="-875" font-family="Helvetica,sans-Serif" font-size="10.00"> &#45;player</text>
</g>
<!-- Node6 -->
<g id="node5" class="node"><title>Node6</title>
<g id="a_node5"><a xlink:href="class_character.html" target="_top" xlink:title="Base abstract class for Enemy and Player to inherit from. Defines all shared variables, their constructor and their setters and getters ">
<polygon fill="none" stroke="black" points="475,-95.5 475,-273.5 570,-273.5 570,-95.5 475,-95.5"/>
<text text-anchor="middle" x="522.5" y="-261.5" font-family="Helvetica,sans-Serif" font-size="10.00">Character</text>
<polyline fill="none" stroke="black" points="475,-254.5 570,-254.5 "/>
<text text-anchor="start" x="483" y="-242.5" font-family="Helvetica,sans-Serif" font-size="10.00">+ Name</text>
<text text-anchor="start" x="483" y="-231.5" font-family="Helvetica,sans-Serif" font-size="10.00">+ Level</text>
<text text-anchor="start" x="483" y="-220.5" font-family="Helvetica,sans-Serif" font-size="10.00">+ Health</text>
<text text-anchor="start" x="483" y="-209.5" font-family="Helvetica,sans-Serif" font-size="10.00">+ Attack</text>
<text text-anchor="start" x="483" y="-198.5" font-family="Helvetica,sans-Serif" font-size="10.00">+ Defence</text>
<text text-anchor="start" x="483" y="-187.5" font-family="Helvetica,sans-Serif" font-size="10.00">+ MaximumMagic</text>
<text text-anchor="start" x="483" y="-176.5" font-family="Helvetica,sans-Serif" font-size="10.00">+ Magic</text>
<text text-anchor="start" x="483" y="-165.5" font-family="Helvetica,sans-Serif" font-size="10.00">+ Luck</text>
<text text-anchor="start" x="483" y="-154.5" font-family="Helvetica,sans-Serif" font-size="10.00">+ Speed</text>
<text text-anchor="start" x="483" y="-143.5" font-family="Helvetica,sans-Serif" font-size="10.00">+ Special1</text>
<text text-anchor="start" x="483" y="-132.5" font-family="Helvetica,sans-Serif" font-size="10.00">+ Special2</text>
<text text-anchor="start" x="483" y="-121.5" font-family="Helvetica,sans-Serif" font-size="10.00">+ Image</text>
<polyline fill="none" stroke="black" points="475,-114.5 570,-114.5 "/>
<text text-anchor="start" x="483" y="-102.5" font-family="Helvetica,sans-Serif" font-size="10.00"># Character()</text>
</a>
</g>
</g>
<!-- Node6&#45;&gt;Node5 -->
<g id="edge4" class="edge"><title>Node6&#45;&gt;Node5</title>
<path fill="none" stroke="midnightblue" d="M465.564,-204.092C396.875,-230.526 290.5,-286.062 290.5,-376.5 290.5,-760 290.5,-760 290.5,-760 290.5,-807.763 289.902,-862.053 289.36,-901.446"/>
<polygon fill="none" stroke="midnightblue" points="466.859,-207.344 474.992,-200.554 464.399,-200.791 466.859,-207.344"/>
</g>
<!-- Node10 -->
<g id="node9" class="node"><title>Node10</title>
<g id="a_node9"><a xlink:href="class_character_move.html" target="_top" xlink:title="Astract base class for character moves ">
<polygon fill="none" stroke="black" points="527.5,-460.5 527.5,-539.5 613.5,-539.5 613.5,-460.5 527.5,-460.5"/>
<text text-anchor="middle" x="570.5" y="-527.5" font-family="Helvetica,sans-Serif" font-size="10.00">CharacterMove</text>
<polyline fill="none" stroke="black" points="527.5,-520.5 613.5,-520.5 "/>
<text text-anchor="start" x="535.5" y="-508.5" font-family="Helvetica,sans-Serif" font-size="10.00">+ User</text>
<text text-anchor="start" x="535.5" y="-497.5" font-family="Helvetica,sans-Serif" font-size="10.00">+ Target</text>
<text text-anchor="start" x="535.5" y="-486.5" font-family="Helvetica,sans-Serif" font-size="10.00">+ Text</text>
<polyline fill="none" stroke="black" points="527.5,-479.5 613.5,-479.5 "/>
<text text-anchor="start" x="535.5" y="-467.5" font-family="Helvetica,sans-Serif" font-size="10.00">+ performMove()</text>
</a>
</g>
</g>
<!-- Node6&#45;&gt;Node10 -->
<g id="edge10" class="edge"><title>Node6&#45;&gt;Node10</title>
<path fill="none" stroke="#404040" d="M532.817,-273.711C538.457,-318.539 546.018,-373.799 554.5,-423 555.932,-431.309 557.62,-440.093 559.352,-448.625"/>
<polygon fill="none" stroke="#404040" points="559.366,-448.694 564.504,-453.754 561.809,-460.442 556.671,-455.382 559.366,-448.694"/>
<text text-anchor="middle" x="571.5" y="-380.5" font-family="Helvetica,sans-Serif" font-size="10.00"> #target</text>
<text text-anchor="middle" x="571.5" y="-369.5" font-family="Helvetica,sans-Serif" font-size="10.00">#user</text>
</g>
<!-- Node12 -->
<g id="node11" class="node"><title>Node12</title>
<g id="a_node11"><a xlink:href="class_enemy.html" target="_top" xlink:title="Defines an AI controller enemy to fight in battle scenes">
<polygon fill="none" stroke="black" points="366,-0.5 366,-57.5 433,-57.5 433,-0.5 366,-0.5"/>
<text text-anchor="middle" x="399.5" y="-45.5" font-family="Helvetica,sans-Serif" font-size="10.00">Enemy</text>
<polyline fill="none" stroke="black" points="366,-38.5 433,-38.5 "/>
<text text-anchor="start" x="374" y="-26.5" font-family="Helvetica,sans-Serif" font-size="10.00">+ ExpGiven</text>
<polyline fill="none" stroke="black" points="366,-19.5 433,-19.5 "/>
<text text-anchor="start" x="374" y="-7.5" font-family="Helvetica,sans-Serif" font-size="10.00">+ Enemy()</text>
</a>
</g>
</g>
<!-- Node6&#45;&gt;Node12 -->
<g id="edge14" class="edge"><title>Node6&#45;&gt;Node12</title>
<path fill="none" stroke="midnightblue" d="M468.639,-116.283C452.062,-95.5951 434.732,-73.9688 421.57,-57.5424"/>
<polygon fill="none" stroke="midnightblue" points="465.96,-118.538 474.945,-124.153 471.423,-114.161 465.96,-118.538"/>
</g>
<!-- Node7 -->
<g id="node6" class="node"><title>Node7</title>
<polygon fill="none" stroke="#bfbfbf" points="673,-1210.5 673,-1267.5 714,-1267.5 714,-1210.5 673,-1210.5"/>
<text text-anchor="middle" x="693.5" y="-1255.5" font-family="Helvetica,sans-Serif" font-size="10.00">string</text>
<polyline fill="none" stroke="#bfbfbf" points="673,-1248.5 714,-1248.5 "/>
<text text-anchor="middle" x="693.5" y="-1236.5" font-family="Helvetica,sans-Serif" font-size="10.00"> </text>
<polyline fill="none" stroke="#bfbfbf" points="673,-1229.5 714,-1229.5 "/>
<text text-anchor="middle" x="693.5" y="-1217.5" font-family="Helvetica,sans-Serif" font-size="10.00"> </text>
</g>
<!-- Node7&#45;&gt;Node6 -->
<g id="edge5" class="edge"><title>Node7&#45;&gt;Node6</title>
<path fill="none" stroke="#404040" d="M714.013,-1225C743.011,-1204.85 792.5,-1163.11 792.5,-1113 792.5,-1113 792.5,-1113 792.5,-376.5 792.5,-274.098 661.46,-221.676 581.96,-199.295"/>
<polygon fill="none" stroke="#404040" points="581.729,-199.232 574.889,-201.517 570.149,-196.083 576.988,-193.798 581.729,-199.232"/>
<text text-anchor="middle" x="818" y="-762" font-family="Helvetica,sans-Serif" font-size="10.00"> #image_ref</text>
<text text-anchor="middle" x="818" y="-751" font-family="Helvetica,sans-Serif" font-size="10.00">#name</text>
</g>
<!-- Node9 -->
<g id="node8" class="node"><title>Node9</title>
<g id="a_node8"><a xlink:href="class_special_move.html" target="_top" xlink:title="Special move abstract base class that expands upon CharacterMove, adding magic properties ...">
<polygon fill="none" stroke="black" points="597.5,-332.5 597.5,-422.5 695.5,-422.5 695.5,-332.5 597.5,-332.5"/>
<text text-anchor="middle" x="646.5" y="-410.5" font-family="Helvetica,sans-Serif" font-size="10.00">SpecialMove</text>
<polyline fill="none" stroke="black" points="597.5,-403.5 695.5,-403.5 "/>
<text text-anchor="start" x="605.5" y="-391.5" font-family="Helvetica,sans-Serif" font-size="10.00">+ Magic</text>
<text text-anchor="start" x="605.5" y="-380.5" font-family="Helvetica,sans-Serif" font-size="10.00">+ Desc</text>
<polyline fill="none" stroke="black" points="597.5,-373.5 695.5,-373.5 "/>
<text text-anchor="start" x="605.5" y="-361.5" font-family="Helvetica,sans-Serif" font-size="10.00">+ setUp()</text>
<text text-anchor="start" x="605.5" y="-350.5" font-family="Helvetica,sans-Serif" font-size="10.00">+ decreaseMagic()</text>
<text text-anchor="start" x="605.5" y="-339.5" font-family="Helvetica,sans-Serif" font-size="10.00"># SpecialMove()</text>
</a>
</g>
</g>
<!-- Node7&#45;&gt;Node9 -->
<g id="edge19" class="edge"><title>Node7&#45;&gt;Node9</title>
<path fill="none" stroke="#404040" d="M712.934,-1210.13C728.06,-1185.69 746.5,-1148.59 746.5,-1113 746.5,-1113 746.5,-1113 746.5,-499 746.5,-468.058 726.733,-440.81 704.776,-420.088"/>
<polygon fill="none" stroke="#404040" points="704.566,-419.901 697.427,-418.883 695.621,-411.902 702.76,-412.92 704.566,-419.901"/>
<text text-anchor="middle" x="761.5" y="-875" font-family="Helvetica,sans-Serif" font-size="10.00"> #desc</text>
</g>
<!-- Node7&#45;&gt;Node10 -->
<g id="edge9" class="edge"><title>Node7&#45;&gt;Node10</title>
<path fill="none" stroke="#404040" d="M694.714,-1210.32C698.797,-1110.23 710.029,-767.55 677.5,-664 664.18,-621.6 636.38,-579.817 612.454,-549.171"/>
<polygon fill="none" stroke="#404040" points="612.326,-549.01 605.458,-546.811 604.846,-539.626 611.714,-541.825 612.326,-549.01"/>
<text text-anchor="middle" x="713" y="-955" font-family="Helvetica,sans-Serif" font-size="10.00"> #text</text>
</g>
<!-- Node7&#45;&gt;Node11 -->
<g id="edge12" class="edge"><title>Node7&#45;&gt;Node11</title>
<path fill="none" stroke="#404040" d="M676.887,-1210.23C637.447,-1144.32 536.504,-975.608 470.004,-864.466"/>
<polygon fill="none" stroke="#404040" points="469.841,-864.192 463.328,-861.097 463.68,-853.895 470.193,-856.99 469.841,-864.192"/>
<text text-anchor="middle" x="625.5" y="-1046" font-family="Helvetica,sans-Serif" font-size="10.00"> +forceEnemyMove</text>
<text text-anchor="middle" x="625.5" y="-1035" font-family="Helvetica,sans-Serif" font-size="10.00">+forceCriticalHits</text>
</g>
<!-- Node14 -->
<g id="node13" class="node"><title>Node14</title>
<g id="a_node13"><a xlink:href="class_item.html" target="_top" xlink:title="Abstract class for items that can be equipped to a player, increasing some of their stats ...">
<polygon fill="none" stroke="black" points="226,-1072.5 226,-1151.5 303,-1151.5 303,-1072.5 226,-1072.5"/>
<text text-anchor="middle" x="264.5" y="-1139.5" font-family="Helvetica,sans-Serif" font-size="10.00">Item</text>
<polyline fill="none" stroke="black" points="226,-1132.5 303,-1132.5 "/>
<text text-anchor="start" x="234" y="-1120.5" font-family="Helvetica,sans-Serif" font-size="10.00">+ Name</text>
<text text-anchor="start" x="234" y="-1109.5" font-family="Helvetica,sans-Serif" font-size="10.00">+ Desc</text>
<polyline fill="none" stroke="black" points="226,-1102.5 303,-1102.5 "/>
<text text-anchor="start" x="234" y="-1090.5" font-family="Helvetica,sans-Serif" font-size="10.00">+ applyBuffs()</text>
<text text-anchor="start" x="234" y="-1079.5" font-family="Helvetica,sans-Serif" font-size="10.00">+ revertBuffs()</text>
</a>
</g>
</g>
<!-- Node7&#45;&gt;Node14 -->
<g id="edge22" class="edge"><title>Node7&#45;&gt;Node14</title>
<path fill="none" stroke="#404040" d="M672.801,-1233.91C636.576,-1226.6 559.452,-1210.31 495.5,-1192 432.393,-1173.93 361.097,-1148.81 314.617,-1131.78"/>
<polygon fill="none" stroke="#404040" points="314.617,-1131.78 307.604,-1133.46 303.355,-1127.64 310.367,-1125.96 314.617,-1131.78"/>
<text text-anchor="middle" x="510.5" y="-1184" font-family="Helvetica,sans-Serif" font-size="10.00"> #desc</text>
<text text-anchor="middle" x="510.5" y="-1173" font-family="Helvetica,sans-Serif" font-size="10.00">#name</text>
</g>
<!-- Node8 -->
<g id="node7" class="node"><title>Node8</title>
<polygon fill="none" stroke="#bfbfbf" points="420,-1083.5 420,-1140.5 449,-1140.5 449,-1083.5 420,-1083.5"/>
<text text-anchor="middle" x="434.5" y="-1128.5" font-family="Helvetica,sans-Serif" font-size="10.00">int</text>
<polyline fill="none" stroke="#bfbfbf" points="420,-1121.5 449,-1121.5 "/>
<text text-anchor="middle" x="434.5" y="-1109.5" font-family="Helvetica,sans-Serif" font-size="10.00"> </text>
<polyline fill="none" stroke="#bfbfbf" points="420,-1102.5 449,-1102.5 "/>
<text text-anchor="middle" x="434.5" y="-1090.5" font-family="Helvetica,sans-Serif" font-size="10.00"> </text>
</g>
<!-- Node8&#45;&gt;Node5 -->
<g id="edge23" class="edge"><title>Node8&#45;&gt;Node5</title>
<path fill="none" stroke="#404040" d="M419.794,-1104.26C400.848,-1095.02 367.717,-1076.93 345.5,-1054 336.845,-1045.07 328.937,-1034.58 321.948,-1023.9"/>
<polygon fill="none" stroke="#404040" points="321.892,-1023.81 315.32,-1020.84 315.534,-1013.63 322.105,-1016.6 321.892,-1023.81"/>
<text text-anchor="middle" x="383" y="-1046" font-family="Helvetica,sans-Serif" font-size="10.00"> &#45;expToNextLevel</text>
<text text-anchor="middle" x="383" y="-1035" font-family="Helvetica,sans-Serif" font-size="10.00">&#45;exp</text>
</g>
<!-- Node8&#45;&gt;Node6 -->
<g id="edge6" class="edge"><title>Node8&#45;&gt;Node6</title>
<path fill="none" stroke="#404040" d="M449.019,-1091C461.784,-1072.17 479.533,-1042.66 487.5,-1014 506.5,-945.653 516.99,-491.438 520.812,-286.041"/>
<polygon fill="none" stroke="#404040" points="520.816,-285.768 516.928,-279.696 521.037,-273.771 524.926,-279.843 520.816,-285.768"/>
<text text-anchor="middle" x="552" y="-638" font-family="Helvetica,sans-Serif" font-size="10.00"> #speed</text>
<text text-anchor="middle" x="552" y="-627" font-family="Helvetica,sans-Serif" font-size="10.00">#luck</text>
<text text-anchor="middle" x="552" y="-616" font-family="Helvetica,sans-Serif" font-size="10.00">#health</text>
<text text-anchor="middle" x="552" y="-605" font-family="Helvetica,sans-Serif" font-size="10.00">#magic</text>
<text text-anchor="middle" x="552" y="-594" font-family="Helvetica,sans-Serif" font-size="10.00">#maximumMagic</text>
<text text-anchor="middle" x="552" y="-583" font-family="Helvetica,sans-Serif" font-size="10.00">#attack</text>
<text text-anchor="middle" x="552" y="-572" font-family="Helvetica,sans-Serif" font-size="10.00">#defence</text>
<text text-anchor="middle" x="552" y="-561" font-family="Helvetica,sans-Serif" font-size="10.00">#level</text>
</g>
<!-- Node8&#45;&gt;Node9 -->
<g id="edge20" class="edge"><title>Node8&#45;&gt;Node9</title>
<path fill="none" stroke="#404040" d="M449.259,-1111.78C485.974,-1112.83 581.546,-1109.81 624.5,-1054 698.21,-958.227 667.54,-579.201 652.747,-434.787"/>
<polygon fill="none" stroke="#404040" points="652.738,-434.706 648.139,-429.152 651.497,-422.77 656.096,-428.324 652.738,-434.706"/>
<text text-anchor="middle" x="690" y="-756.5" font-family="Helvetica,sans-Serif" font-size="10.00"> #magic</text>
</g>
<!-- Node8&#45;&gt;Node11 -->
<g id="edge16" class="edge"><title>Node8&#45;&gt;Node11</title>
<path fill="none" stroke="#404040" d="M436.565,-1083.32C440.83,-1024.83 449.938,-892.328 446.5,-872 446.13,-869.811 445.722,-867.608 445.279,-865.396"/>
<polygon fill="none" stroke="#404040" points="445.239,-865.215 440.022,-860.237 442.61,-853.506 447.828,-858.485 445.239,-865.215"/>
<text text-anchor="middle" x="467" y="-955" font-family="Helvetica,sans-Serif" font-size="10.00"> +money</text>
</g>
<!-- Node8&#45;&gt;Node12 -->
<g id="edge15" class="edge"><title>Node8&#45;&gt;Node12</title>
<path fill="none" stroke="#404040" d="M419.877,-1105.99C376.866,-1090.99 252.019,-1045.56 223.5,-1014 206.019,-994.657 204.5,-984.572 204.5,-958.5 204.5,-958.5 204.5,-958.5 204.5,-183.5 204.5,-107.679 296.65,-63.5629 354.256,-43.3923"/>
<polygon fill="none" stroke="#404040" points="354.605,-43.275 359.016,-37.5707 365.978,-39.4488 361.567,-45.1531 354.605,-43.275"/>
<text text-anchor="middle" x="227.5" y="-497.5" font-family="Helvetica,sans-Serif" font-size="10.00"> &#45;expGiven</text>
</g>
<!-- Node9&#45;&gt;Node6 -->
<g id="edge7" class="edge"><title>Node9&#45;&gt;Node6</title>
<path fill="none" stroke="#404040" d="M617.74,-332.201C605.511,-313.364 590.832,-290.754 576.703,-268.99"/>
<polygon fill="none" stroke="#404040" points="576.577,-268.796 569.955,-265.942 570.043,-258.731 576.665,-261.585 576.577,-268.796"/>
<text text-anchor="middle" x="626" y="-306" font-family="Helvetica,sans-Serif" font-size="10.00"> #special1</text>
<text text-anchor="middle" x="626" y="-295" font-family="Helvetica,sans-Serif" font-size="10.00">#special2</text>
</g>
<!-- Node10&#45;&gt;Node9 -->
<g id="edge8" class="edge"><title>Node10&#45;&gt;Node9</title>
<path fill="none" stroke="midnightblue" d="M600.391,-451.607C606.406,-442.07 612.705,-432.083 618.647,-422.661"/>
<polygon fill="none" stroke="midnightblue" points="597.34,-449.884 594.965,-460.21 603.26,-453.619 597.34,-449.884"/>
</g>
<!-- Node11&#45;&gt;Node10 -->
<g id="edge11" class="edge"><title>Node11&#45;&gt;Node10</title>
<path fill="none" stroke="#404040" d="M410.789,-664.381C414.065,-620.805 420.578,-574.896 433.5,-558 453.238,-532.192 486.78,-517.978 515.734,-510.199"/>
<polygon fill="none" stroke="#404040" points="515.739,-510.198 520.612,-504.882 527.392,-507.336 522.519,-512.652 515.739,-510.198"/>
<text text-anchor="middle" x="456.5" y="-599.5" font-family="Helvetica,sans-Serif" font-size="10.00"> #manager</text>
</g>
<!-- Node12&#45;&gt;Node11 -->
<g id="edge13" class="edge"><title>Node12&#45;&gt;Node11</title>
<path fill="none" stroke="#404040" d="M399.5,-57.7302C399.5,-88.4721 399.5,-139.529 399.5,-183.5 399.5,-501 399.5,-501 399.5,-501 399.5,-550.686 401.012,-605.748 402.722,-652.12"/>
<polygon fill="none" stroke="#404040" points="402.73,-652.342 406.954,-658.186 403.184,-664.333 398.96,-658.489 402.73,-652.342"/>
<text text-anchor="middle" x="417.5" y="-375" font-family="Helvetica,sans-Serif" font-size="10.00"> &#45;enemy</text>
</g>
<!-- Node13 -->
<g id="node12" class="node"><title>Node13</title>
<polygon fill="none" stroke="#bfbfbf" points="363,-929 363,-986 398,-986 398,-929 363,-929"/>
<text text-anchor="middle" x="380.5" y="-974" font-family="Helvetica,sans-Serif" font-size="10.00">bool</text>
<polyline fill="none" stroke="#bfbfbf" points="363,-967 398,-967 "/>
<text text-anchor="middle" x="380.5" y="-955" font-family="Helvetica,sans-Serif" font-size="10.00"> </text>
<polyline fill="none" stroke="#bfbfbf" points="363,-948 398,-948 "/>
<text text-anchor="middle" x="380.5" y="-936" font-family="Helvetica,sans-Serif" font-size="10.00"> </text>
</g>
<!-- Node13&#45;&gt;Node11 -->
<g id="edge17" class="edge"><title>Node13&#45;&gt;Node11</title>
<path fill="none" stroke="#404040" d="M378.851,-928.62C378.284,-912.102 378.267,-890.792 380.5,-872 380.759,-869.823 381.045,-867.627 381.355,-865.418"/>
<polygon fill="none" stroke="#404040" points="381.364,-865.362 378.348,-858.812 383.234,-853.508 386.25,-860.058 381.364,-865.362"/>
<text text-anchor="middle" x="413.5" y="-875" font-family="Helvetica,sans-Serif" font-size="10.00"> &#45;wasCriticalHit</text>
</g>
<!-- Node14&#45;&gt;Node5 -->
<g id="edge21" class="edge"><title>Node14&#45;&gt;Node5</title>
<path fill="none" stroke="#404040" d="M265.484,-1072.26C266.201,-1059.39 267.423,-1045.03 269.5,-1032 269.843,-1029.85 270.221,-1027.67 270.628,-1025.47"/>
<polygon fill="none" stroke="#404040" points="270.642,-1025.4 267.925,-1018.72 273.047,-1013.65 275.763,-1020.33 270.642,-1025.4"/>
<text text-anchor="middle" x="282" y="-1040.5" font-family="Helvetica,sans-Serif" font-size="10.00"> &#45;item</text>
</g>
</g>
</svg>
        <g id="navigator" transform="translate(0 0)" fill="#404254">
                <rect fill="#f2f5e9" fill-opacity="0.5" stroke="#606060" stroke-width=".5" x="0" y="0" width="60" height="60"/>
                <use id="zoomplus" xlink:href="#zoomPlus" x="17" y="9" onmousedown="handleZoom(evt,'in')"/>
                <use id="zoomminus" xlink:href="#zoomMin" x="42" y="9" onmousedown="handleZoom(evt,'out')"/>
                <use id="reset" xlink:href="#resetDef" x="30" y="36" onmousedown="handleReset()"/>
                <g id="arrowUp" xlink:href="#dirArrow" transform="translate(30 24)" onmousedown="handlePan(0,-1)">
                  <use xlink:href="#rim" fill="#404040">
                        <set attributeName="fill" to="#808080" begin="arrowUp.mouseover" end="arrowUp.mouseout"/>
                  </use>
                  <path fill="none" stroke="white" stroke-width="1.5" d="M0,-3.0v7 M-2.5,-0.5L0,-3.0L2.5,-0.5"/>
                </g>
                <g id="arrowRight" xlink:href="#dirArrow" transform="rotate(90) translate(36 -43)" onmousedown="handlePan(1,0)">
                  <use xlink:href="#rim" fill="#404040">
                        <set attributeName="fill" to="#808080" begin="arrowRight.mouseover" end="arrowRight.mouseout"/>
                  </use>
                  <path fill="none" stroke="white" stroke-width="1.5" d="M0,-3.0v7 M-2.5,-0.5L0,-3.0L2.5,-0.5"/>
                </g>
                <g id="arrowDown" xlink:href="#dirArrow" transform="rotate(180) translate(-30 -48)" onmousedown="handlePan(0,1)">
                  <use xlink:href="#rim" fill="#404040">
                        <set attributeName="fill" to="#808080" begin="arrowDown.mouseover" end="arrowDown.mouseout"/>
                  </use>
                  <path fill="none" stroke="white" stroke-width="1.5" d="M0,-3.0v7 M-2.5,-0.5L0,-3.0L2.5,-0.5"/>
                </g>
                <g id="arrowLeft" xlink:href="#dirArrow" transform="rotate(270) translate(-36 17)" onmousedown="handlePan(-1,0)">
                  <use xlink:href="#rim" fill="#404040">
                        <set attributeName="fill" to="#808080" begin="arrowLeft.mouseover" end="arrowLeft.mouseout"/>
                  </use>
                  <path fill="none" stroke="white" stroke-width="1.5" d="M0,-3.0v7 M-2.5,-0.5L0,-3.0L2.5,-0.5"/>
                </g>
        </g>
        <svg viewBox="0 0 15 15" width="100%" height="30px" preserveAspectRatio="xMaxYMin meet">
         <g id="arrow_out" transform="scale(0.3 0.3)">
          <a xlink:href="class_player_menu__coll__graph_org.svg" target="_base">
           <rect id="button" ry="5" rx="5" y="6" x="6" height="38" width="38"
                fill="#f2f5e9" fill-opacity="0.5" stroke="#606060" stroke-width="1.0"/>
           <path id="arrow"
             d="M 11.500037,31.436501 C 11.940474,20.09759 22.043105,11.32322 32.158766,21.979434 L 37.068811,17.246167 C 37.068811,17.246167 37.088388,32 37.088388,32 L 22.160133,31.978069 C 22.160133,31.978069 26.997745,27.140456 26.997745,27.140456 C 18.528582,18.264221 13.291696,25.230495 11.500037,31.436501 z"
             style="fill:#404040;"/>
          </a>
         </g>
        </svg>
</svg>
