<?xml version="1.0" encoding="UTF-8" standalone="no"?>
<!DOCTYPE svg PUBLIC "-//W3C//DTD SVG 1.1//EN"
 "http://www.w3.org/Graphics/SVG/1.1/DTD/svg11.dtd">
<!-- Generated by graphviz version 2.38.0 (20140413.2041)
 -->
<!-- Title: DataManager.StoredData.RaiseDefence Pages: 1 -->
<svg width="162pt" height="193pt"
 viewBox="0.00 0.00 162.00 193.00" xmlns="http://www.w3.org/2000/svg" xmlns:xlink="http://www.w3.org/1999/xlink">
<g id="graph0" class="graph" transform="scale(1 1) rotate(0) translate(4 189)">
<title>DataManager.StoredData.RaiseDefence</title>
<!-- Node0 -->
<g id="node1" class="node"><title>Node0</title>
<polygon fill="#bfbfbf" stroke="black" points="0,-0.5 0,-68.5 154,-68.5 154,-0.5 0,-0.5"/>
<text text-anchor="start" x="8" y="-56.5" font-family="Helvetica,sans-Serif" font-size="10.00">DataManager.StoredData.Raise</text>
<text text-anchor="middle" x="77" y="-45.5" font-family="Helvetica,sans-Serif" font-size="10.00">Defence</text>
<polyline fill="none" stroke="black" points="0,-38.5 154,-38.5 "/>
<text text-anchor="start" x="8" y="-26.5" font-family="Helvetica,sans-Serif" font-size="10.00">+ increase</text>
<polyline fill="none" stroke="black" points="0,-19.5 154,-19.5 "/>
<text text-anchor="middle" x="77" y="-7.5" font-family="Helvetica,sans-Serif" font-size="10.00"> </text>
</g>
<!-- Node1 -->
<g id="node2" class="node"><title>Node1</title>
<g id="a_node2"><a xlink:href="class_data_manager_1_1_stored_data_1_1_special_move.html" target="_top" xlink:title="{SpecialMove\n|+ text\l+ desc\l+ magic\l|}">
<polygon fill="none" stroke="black" points="41.5,-105.5 41.5,-184.5 112.5,-184.5 112.5,-105.5 41.5,-105.5"/>
<text text-anchor="middle" x="77" y="-172.5" font-family="Helvetica,sans-Serif" font-size="10.00">SpecialMove</text>
<polyline fill="none" stroke="black" points="41.5,-165.5 112.5,-165.5 "/>
<text text-anchor="start" x="49.5" y="-153.5" font-family="Helvetica,sans-Serif" font-size="10.00">+ text</text>
<text text-anchor="start" x="49.5" y="-142.5" font-family="Helvetica,sans-Serif" font-size="10.00">+ desc</text>
<text text-anchor="start" x="49.5" y="-131.5" font-family="Helvetica,sans-Serif" font-size="10.00">+ magic</text>
<polyline fill="none" stroke="black" points="41.5,-124.5 112.5,-124.5 "/>
<text text-anchor="middle" x="77" y="-112.5" font-family="Helvetica,sans-Serif" font-size="10.00"> </text>
</a>
</g>
</g>
<!-- Node1&#45;&gt;Node0 -->
<g id="edge1" class="edge"><title>Node1&#45;&gt;Node0</title>
<path fill="none" stroke="midnightblue" d="M77,-95.3492C77,-86.2824 77,-77.0048 77,-68.5439"/>
<polygon fill="none" stroke="midnightblue" points="73.5001,-95.4414 77,-105.441 80.5001,-95.4415 73.5001,-95.4414"/>
</g>
</g>
</svg>
