<?xml version="1.0" encoding="UTF-8" standalone="no"?>
<!DOCTYPE svg PUBLIC "-//W3C//DTD SVG 1.1//EN"
 "http://www.w3.org/Graphics/SVG/1.1/DTD/svg11.dtd">
<!-- Generated by graphviz version 2.38.0 (20140413.2041)
 -->
<!-- Title: CharacterEventArgs Pages: 1 -->
<svg width="922pt" height="1087pt"
 viewBox="0.00 0.00 921.94 1087.00" xmlns="http://www.w3.org/2000/svg" xmlns:xlink="http://www.w3.org/1999/xlink">
<g id="graph0" class="graph" transform="scale(1 1) rotate(0) translate(4 1083)">
<title>CharacterEventArgs</title>
<!-- Node3 -->
<g id="node1" class="node"><title>Node3</title>
<polygon fill="#bfbfbf" stroke="black" points="81.9367,-531 81.9367,-588 199.937,-588 199.937,-531 81.9367,-531"/>
<text text-anchor="middle" x="140.937" y="-576" font-family="Helvetica,sans-Serif" font-size="10.00">CharacterEventArgs</text>
<polyline fill="none" stroke="black" points="81.9367,-569 199.937,-569 "/>
<text text-anchor="middle" x="140.937" y="-557" font-family="Helvetica,sans-Serif" font-size="10.00"> </text>
<polyline fill="none" stroke="black" points="81.9367,-550 199.937,-550 "/>
<text text-anchor="start" x="89.9367" y="-538" font-family="Helvetica,sans-Serif" font-size="10.00">+ CharacterEventArgs()</text>
</g>
<!-- Node4 -->
<g id="node2" class="node"><title>Node4</title>
<g id="a_node2"><a xlink:href="class_game_event_args.html" target="_top" xlink:title="Base class for passing arguments with game events ">
<polygon fill="none" stroke="black" points="70.4367,-751.5 70.4367,-808.5 157.437,-808.5 157.437,-751.5 70.4367,-751.5"/>
<text text-anchor="middle" x="113.937" y="-796.5" font-family="Helvetica,sans-Serif" font-size="10.00">GameEventArgs</text>
<polyline fill="none" stroke="black" points="70.4367,-789.5 157.437,-789.5 "/>
<text text-anchor="middle" x="113.937" y="-777.5" font-family="Helvetica,sans-Serif" font-size="10.00"> </text>
<polyline fill="none" stroke="black" points="70.4367,-770.5 157.437,-770.5 "/>
<text text-anchor="middle" x="113.937" y="-758.5" font-family="Helvetica,sans-Serif" font-size="10.00"> </text>
</a>
</g>
</g>
<!-- Node4&#45;&gt;Node3 -->
<g id="edge1" class="edge"><title>Node4&#45;&gt;Node3</title>
<path fill="none" stroke="midnightblue" d="M118.616,-741.134C123.999,-697.572 132.709,-627.08 137.502,-588.293"/>
<polygon fill="none" stroke="midnightblue" points="115.109,-740.973 117.356,-751.327 122.056,-741.832 115.109,-740.973"/>
</g>
<!-- Node4&#45;&gt;Node4 -->
<g id="edge3" class="edge"><title>Node4&#45;&gt;Node4</title>
<path fill="none" stroke="#404040" d="M157.606,-804.628C167.867,-802.604 175.437,-794.395 175.437,-780 175.437,-771.453 172.768,-765.087 168.452,-760.901"/>
<polygon fill="none" stroke="#404040" points="168.297,-760.822 161.135,-761.661 157.606,-755.372 164.768,-754.533 168.297,-760.822"/>
<text text-anchor="middle" x="194.437" y="-777.5" font-family="Helvetica,sans-Serif" font-size="10.00"> +Empty</text>
</g>
<!-- Node5 -->
<g id="node3" class="node"><title>Node5</title>
<g id="a_node3"><a xlink:href="class_event_args.html" target="_top" xlink:title="{EventArgs\n||}">
<polygon fill="none" stroke="black" points="205.437,-1021.5 205.437,-1078.5 266.437,-1078.5 266.437,-1021.5 205.437,-1021.5"/>
<text text-anchor="middle" x="235.937" y="-1066.5" font-family="Helvetica,sans-Serif" font-size="10.00">EventArgs</text>
<polyline fill="none" stroke="black" points="205.437,-1059.5 266.437,-1059.5 "/>
<text text-anchor="middle" x="235.937" y="-1047.5" font-family="Helvetica,sans-Serif" font-size="10.00"> </text>
<polyline fill="none" stroke="black" points="205.437,-1040.5 266.437,-1040.5 "/>
<text text-anchor="middle" x="235.937" y="-1028.5" font-family="Helvetica,sans-Serif" font-size="10.00"> </text>
</a>
</g>
</g>
<!-- Node5&#45;&gt;Node4 -->
<g id="edge2" class="edge"><title>Node5&#45;&gt;Node4</title>
<path fill="none" stroke="midnightblue" d="M228.995,-1011.33C222.667,-981.371 211.858,-938.845 195.937,-904 179.938,-868.985 154.535,-832.775 136.242,-808.791"/>
<polygon fill="none" stroke="midnightblue" points="225.616,-1012.28 231.048,-1021.37 232.474,-1010.87 225.616,-1012.28"/>
</g>
<!-- Node6 -->
<g id="node4" class="node"><title>Node6</title>
<g id="a_node4"><a xlink:href="class_character.html" target="_top" xlink:title="Base abstract class for Enemy and Player to inherit from. Defines all shared variables, their constructor and their setters and getters ">
<polygon fill="none" stroke="black" points="231.437,-674.5 231.437,-885.5 326.437,-885.5 326.437,-674.5 231.437,-674.5"/>
<text text-anchor="middle" x="278.937" y="-873.5" font-family="Helvetica,sans-Serif" font-size="10.00">Character</text>
<polyline fill="none" stroke="black" points="231.437,-866.5 326.437,-866.5 "/>
<text text-anchor="start" x="239.437" y="-854.5" font-family="Helvetica,sans-Serif" font-size="10.00">+ Name</text>
<text text-anchor="start" x="239.437" y="-843.5" font-family="Helvetica,sans-Serif" font-size="10.00">+ Level</text>
<text text-anchor="start" x="239.437" y="-832.5" font-family="Helvetica,sans-Serif" font-size="10.00">+ Health</text>
<text text-anchor="start" x="239.437" y="-821.5" font-family="Helvetica,sans-Serif" font-size="10.00">+ Attack</text>
<text text-anchor="start" x="239.437" y="-810.5" font-family="Helvetica,sans-Serif" font-size="10.00">+ Defence</text>
<text text-anchor="start" x="239.437" y="-799.5" font-family="Helvetica,sans-Serif" font-size="10.00">+ MaximumMagic</text>
<text text-anchor="start" x="239.437" y="-788.5" font-family="Helvetica,sans-Serif" font-size="10.00">+ Magic</text>
<text text-anchor="start" x="239.437" y="-777.5" font-family="Helvetica,sans-Serif" font-size="10.00">+ Luck</text>
<text text-anchor="start" x="239.437" y="-766.5" font-family="Helvetica,sans-Serif" font-size="10.00">+ Speed</text>
<text text-anchor="start" x="239.437" y="-755.5" font-family="Helvetica,sans-Serif" font-size="10.00">+ Rage</text>
<text text-anchor="start" x="239.437" y="-744.5" font-family="Helvetica,sans-Serif" font-size="10.00">+ CanRage</text>
<text text-anchor="start" x="239.437" y="-733.5" font-family="Helvetica,sans-Serif" font-size="10.00">+ Special1</text>
<text text-anchor="start" x="239.437" y="-722.5" font-family="Helvetica,sans-Serif" font-size="10.00">+ Special2</text>
<text text-anchor="start" x="239.437" y="-711.5" font-family="Helvetica,sans-Serif" font-size="10.00">+ Image</text>
<polyline fill="none" stroke="black" points="231.437,-704.5 326.437,-704.5 "/>
<text text-anchor="start" x="239.437" y="-692.5" font-family="Helvetica,sans-Serif" font-size="10.00">+ IsEnraged()</text>
<text text-anchor="start" x="239.437" y="-681.5" font-family="Helvetica,sans-Serif" font-size="10.00"># Character()</text>
</a>
</g>
</g>
<!-- Node6&#45;&gt;Node3 -->
<g id="edge4" class="edge"><title>Node6&#45;&gt;Node3</title>
<path fill="none" stroke="#404040" d="M231.306,-683.261C228.335,-679.977 225.213,-676.871 221.937,-674 205.114,-659.257 190.565,-672.003 174.937,-656 160.21,-640.92 151.821,-619.048 147.063,-600.039"/>
<polygon fill="none" stroke="#404040" points="147.007,-599.782 141.812,-594.781 144.431,-588.062 149.626,-593.063 147.007,-599.782"/>
<text text-anchor="middle" x="199.937" y="-642.5" font-family="Helvetica,sans-Serif" font-size="10.00"> +character</text>
</g>
<!-- Node11 -->
<g id="node9" class="node"><title>Node11</title>
<g id="a_node9"><a xlink:href="class_character_move.html" target="_top" xlink:title="Astract base class for character moves ">
<polygon fill="none" stroke="black" points="560.937,-128.5 560.937,-207.5 646.937,-207.5 646.937,-128.5 560.937,-128.5"/>
<text text-anchor="middle" x="603.937" y="-195.5" font-family="Helvetica,sans-Serif" font-size="10.00">CharacterMove</text>
<polyline fill="none" stroke="black" points="560.937,-188.5 646.937,-188.5 "/>
<text text-anchor="start" x="568.937" y="-176.5" font-family="Helvetica,sans-Serif" font-size="10.00">+ User</text>
<text text-anchor="start" x="568.937" y="-165.5" font-family="Helvetica,sans-Serif" font-size="10.00">+ Target</text>
<text text-anchor="start" x="568.937" y="-154.5" font-family="Helvetica,sans-Serif" font-size="10.00">+ Text</text>
<polyline fill="none" stroke="black" points="560.937,-147.5 646.937,-147.5 "/>
<text text-anchor="start" x="568.937" y="-135.5" font-family="Helvetica,sans-Serif" font-size="10.00">+ performMove()</text>
</a>
</g>
</g>
<!-- Node6&#45;&gt;Node11 -->
<g id="edge11" class="edge"><title>Node6&#45;&gt;Node11</title>
<path fill="none" stroke="#404040" d="M260.308,-674.483C238.893,-539.561 213.028,-314.961 265.937,-255 302.976,-213.024 462.844,-186.819 548.782,-175.502"/>
<polygon fill="none" stroke="#404040" points="549,-175.474 554.44,-170.74 560.902,-173.94 555.462,-178.674 549,-175.474"/>
<text text-anchor="middle" x="254.937" y="-477" font-family="Helvetica,sans-Serif" font-size="10.00"> #target</text>
<text text-anchor="middle" x="254.937" y="-466" font-family="Helvetica,sans-Serif" font-size="10.00">#user</text>
</g>
<!-- Node13 -->
<g id="node11" class="node"><title>Node13</title>
<g id="a_node11"><a xlink:href="class_enemy.html" target="_top" xlink:title="Defines an AI controller enemy to fight in battle scenes">
<polygon fill="none" stroke="black" points="402.437,-531 402.437,-588 469.437,-588 469.437,-531 402.437,-531"/>
<text text-anchor="middle" x="435.937" y="-576" font-family="Helvetica,sans-Serif" font-size="10.00">Enemy</text>
<polyline fill="none" stroke="black" points="402.437,-569 469.437,-569 "/>
<text text-anchor="start" x="410.437" y="-557" font-family="Helvetica,sans-Serif" font-size="10.00">+ ExpGiven</text>
<polyline fill="none" stroke="black" points="402.437,-550 469.437,-550 "/>
<text text-anchor="start" x="410.437" y="-538" font-family="Helvetica,sans-Serif" font-size="10.00">+ Enemy()</text>
</a>
</g>
</g>
<!-- Node6&#45;&gt;Node13 -->
<g id="edge15" class="edge"><title>Node6&#45;&gt;Node13</title>
<path fill="none" stroke="midnightblue" d="M308.483,-664.9C313.7,-653.935 319.804,-643.41 326.937,-634 346.584,-608.081 378.131,-588.243 402.244,-575.747"/>
<polygon fill="none" stroke="midnightblue" points="305.21,-663.644 304.306,-674.2 311.596,-666.512 305.21,-663.644"/>
</g>
<!-- Node14 -->
<g id="node12" class="node"><title>Node14</title>
<g id="a_node12"><a xlink:href="class_player.html" target="_top" xlink:title="Defines a playable character for use in battle scenes">
<polygon fill="none" stroke="black" points="487.937,-503.5 487.937,-615.5 599.937,-615.5 599.937,-503.5 487.937,-503.5"/>
<text text-anchor="middle" x="543.937" y="-603.5" font-family="Helvetica,sans-Serif" font-size="10.00">Player</text>
<polyline fill="none" stroke="black" points="487.937,-596.5 599.937,-596.5 "/>
<text text-anchor="start" x="495.937" y="-584.5" font-family="Helvetica,sans-Serif" font-size="10.00">+ Exp</text>
<text text-anchor="start" x="495.937" y="-573.5" font-family="Helvetica,sans-Serif" font-size="10.00">+ Item</text>
<text text-anchor="start" x="495.937" y="-562.5" font-family="Helvetica,sans-Serif" font-size="10.00">+ ExpToNextLevel</text>
<polyline fill="none" stroke="black" points="487.937,-555.5 599.937,-555.5 "/>
<text text-anchor="start" x="495.937" y="-543.5" font-family="Helvetica,sans-Serif" font-size="10.00">+ Player()</text>
<text text-anchor="start" x="495.937" y="-532.5" font-family="Helvetica,sans-Serif" font-size="10.00">+ gainExp()</text>
<text text-anchor="start" x="495.937" y="-521.5" font-family="Helvetica,sans-Serif" font-size="10.00">+ levelUp()</text>
<text text-anchor="start" x="495.937" y="-510.5" font-family="Helvetica,sans-Serif" font-size="10.00">&#45; setExpToNextLevel()</text>
</a>
</g>
</g>
<!-- Node6&#45;&gt;Node14 -->
<g id="edge20" class="edge"><title>Node6&#45;&gt;Node14</title>
<path fill="none" stroke="midnightblue" d="M321.453,-665.811C329.957,-653.614 340.036,-642.553 351.937,-634 397.873,-600.987 426.297,-639.095 477.937,-616 481.217,-614.533 484.462,-612.853 487.65,-611.014"/>
<polygon fill="none" stroke="midnightblue" points="318.365,-664.137 315.813,-674.42 324.221,-667.973 318.365,-664.137"/>
</g>
<!-- Node7 -->
<g id="node5" class="node"><title>Node7</title>
<polygon fill="none" stroke="#bfbfbf" points="782.437,-1021.5 782.437,-1078.5 823.437,-1078.5 823.437,-1021.5 782.437,-1021.5"/>
<text text-anchor="middle" x="802.937" y="-1066.5" font-family="Helvetica,sans-Serif" font-size="10.00">string</text>
<polyline fill="none" stroke="#bfbfbf" points="782.437,-1059.5 823.437,-1059.5 "/>
<text text-anchor="middle" x="802.937" y="-1047.5" font-family="Helvetica,sans-Serif" font-size="10.00"> </text>
<polyline fill="none" stroke="#bfbfbf" points="782.437,-1040.5 823.437,-1040.5 "/>
<text text-anchor="middle" x="802.937" y="-1028.5" font-family="Helvetica,sans-Serif" font-size="10.00"> </text>
</g>
<!-- Node7&#45;&gt;Node6 -->
<g id="edge5" class="edge"><title>Node7&#45;&gt;Node6</title>
<path fill="none" stroke="#404040" d="M782.306,-1041.53C760.806,-1033.37 726.473,-1019.27 698.937,-1003 636.41,-966.058 636.782,-929.911 568.937,-904 521.457,-885.867 384.049,-912.915 340.937,-886 339.147,-884.882 337.402,-883.693 335.702,-882.438"/>
<polygon fill="none" stroke="#404040" points="335.601,-882.352 328.437,-881.525 326.446,-874.594 333.61,-875.422 335.601,-882.352"/>
<text text-anchor="middle" x="715.437" y="-951" font-family="Helvetica,sans-Serif" font-size="10.00"> #name</text>
</g>
<!-- Node10 -->
<g id="node8" class="node"><title>Node10</title>
<g id="a_node8"><a xlink:href="class_special_move.html" target="_top" xlink:title="Special move abstract base class that expands upon CharacterMove, adding magic properties ...">
<polygon fill="none" stroke="black" points="610.937,-0.5 610.937,-90.5 708.937,-90.5 708.937,-0.5 610.937,-0.5"/>
<text text-anchor="middle" x="659.937" y="-78.5" font-family="Helvetica,sans-Serif" font-size="10.00">SpecialMove</text>
<polyline fill="none" stroke="black" points="610.937,-71.5 708.937,-71.5 "/>
<text text-anchor="start" x="618.937" y="-59.5" font-family="Helvetica,sans-Serif" font-size="10.00">+ Magic</text>
<text text-anchor="start" x="618.937" y="-48.5" font-family="Helvetica,sans-Serif" font-size="10.00">+ Desc</text>
<polyline fill="none" stroke="black" points="610.937,-41.5 708.937,-41.5 "/>
<text text-anchor="start" x="618.937" y="-29.5" font-family="Helvetica,sans-Serif" font-size="10.00">+ setUp()</text>
<text text-anchor="start" x="618.937" y="-18.5" font-family="Helvetica,sans-Serif" font-size="10.00">+ decreaseMagic()</text>
<text text-anchor="start" x="618.937" y="-7.5" font-family="Helvetica,sans-Serif" font-size="10.00"># SpecialMove()</text>
</a>
</g>
</g>
<!-- Node7&#45;&gt;Node10 -->
<g id="edge25" class="edge"><title>Node7&#45;&gt;Node10</title>
<path fill="none" stroke="#404040" d="M821.855,-1021.02C825.223,-1015.23 828.445,-1009.05 830.937,-1003 869.556,-909.2 883.937,-882.44 883.937,-781 883.937,-781 883.937,-781 883.937,-167 883.937,-92.7951 787.421,-64.0876 721.097,-53.1205"/>
<polygon fill="none" stroke="#404040" points="720.955,-53.0986 714.416,-56.1388 709.094,-51.2722 715.633,-48.232 720.955,-53.0986"/>
<text text-anchor="middle" x="898.937" y="-471.5" font-family="Helvetica,sans-Serif" font-size="10.00"> #desc</text>
</g>
<!-- Node7&#45;&gt;Node11 -->
<g id="edge10" class="edge"><title>Node7&#45;&gt;Node11</title>
<path fill="none" stroke="#404040" d="M807.75,-1021.32C815.756,-972.806 830.937,-869.182 830.937,-781 830.937,-781 830.937,-781 830.937,-349 830.937,-261.46 726.008,-209.751 658.829,-185.615"/>
<polygon fill="none" stroke="#404040" points="658.504,-185.502 651.523,-187.312 647.168,-181.564 654.148,-179.755 658.504,-185.502"/>
<text text-anchor="middle" x="843.437" y="-557" font-family="Helvetica,sans-Serif" font-size="10.00"> #text</text>
</g>
<!-- Node12 -->
<g id="node10" class="node"><title>Node12</title>
<g id="a_node10"><a xlink:href="class_battle_manager.html" target="_top" xlink:title="Holds current Player and Enemy objects in battle and provides functions for MainBattle and other obje...">
<polygon fill="none" stroke="black" points="509.937,-255.5 509.937,-444.5 625.937,-444.5 625.937,-255.5 509.937,-255.5"/>
<text text-anchor="middle" x="567.937" y="-432.5" font-family="Helvetica,sans-Serif" font-size="10.00">BattleManager</text>
<polyline fill="none" stroke="black" points="509.937,-425.5 625.937,-425.5 "/>
<text text-anchor="start" x="517.937" y="-413.5" font-family="Helvetica,sans-Serif" font-size="10.00">+ Player</text>
<text text-anchor="start" x="517.937" y="-402.5" font-family="Helvetica,sans-Serif" font-size="10.00">+ Enemy</text>
<text text-anchor="start" x="517.937" y="-391.5" font-family="Helvetica,sans-Serif" font-size="10.00">+ WasCriticalHit</text>
<polyline fill="none" stroke="black" points="509.937,-384.5 625.937,-384.5 "/>
<text text-anchor="start" x="517.937" y="-372.5" font-family="Helvetica,sans-Serif" font-size="10.00">+ BattleManager()</text>
<text text-anchor="start" x="517.937" y="-361.5" font-family="Helvetica,sans-Serif" font-size="10.00">+ playerFirst()</text>
<text text-anchor="start" x="517.937" y="-350.5" font-family="Helvetica,sans-Serif" font-size="10.00">+ switchPlayers()</text>
<text text-anchor="start" x="517.937" y="-339.5" font-family="Helvetica,sans-Serif" font-size="10.00">+ isCriticalHit()</text>
<text text-anchor="start" x="517.937" y="-328.5" font-family="Helvetica,sans-Serif" font-size="10.00">+ ranAway()</text>
<text text-anchor="start" x="517.937" y="-317.5" font-family="Helvetica,sans-Serif" font-size="10.00">+ damageCalculation()</text>
<text text-anchor="start" x="517.937" y="-306.5" font-family="Helvetica,sans-Serif" font-size="10.00">+ enemyMove()</text>
<text text-anchor="start" x="517.937" y="-295.5" font-family="Helvetica,sans-Serif" font-size="10.00">+ enemySpecialMove()</text>
<text text-anchor="start" x="517.937" y="-284.5" font-family="Helvetica,sans-Serif" font-size="10.00">+ battleWon()</text>
<text text-anchor="start" x="517.937" y="-273.5" font-family="Helvetica,sans-Serif" font-size="10.00">+ playerFainted()</text>
<text text-anchor="start" x="517.937" y="-262.5" font-family="Helvetica,sans-Serif" font-size="10.00">&#45; characterFainted()</text>
</a>
</g>
</g>
<!-- Node7&#45;&gt;Node12 -->
<g id="edge13" class="edge"><title>Node7&#45;&gt;Node12</title>
<path fill="none" stroke="#404040" d="M801.305,-1021.34C799.336,-992.065 795.451,-944.578 788.937,-904 771.027,-792.431 749.803,-767.731 732.937,-656 720.095,-570.927 759.449,-538.359 717.937,-463 699.631,-429.769 666.83,-403.556 636.559,-384.87"/>
<polygon fill="none" stroke="#404040" points="636.297,-384.714 629.095,-385.082 625.986,-378.575 633.187,-378.208 636.297,-384.714"/>
<text text-anchor="middle" x="774.937" y="-648" font-family="Helvetica,sans-Serif" font-size="10.00"> +forceEnemyMove</text>
<text text-anchor="middle" x="774.937" y="-637" font-family="Helvetica,sans-Serif" font-size="10.00">+forceCriticalHits</text>
</g>
<!-- Node15 -->
<g id="node13" class="node"><title>Node15</title>
<g id="a_node13"><a xlink:href="class_item.html" target="_top" xlink:title="Abstract class for items that can be equipped to a player, increasing some of their stats ...">
<polygon fill="none" stroke="black" points="538.437,-735 538.437,-825 615.437,-825 615.437,-735 538.437,-735"/>
<text text-anchor="middle" x="576.937" y="-813" font-family="Helvetica,sans-Serif" font-size="10.00">Item</text>
<polyline fill="none" stroke="black" points="538.437,-806 615.437,-806 "/>
<text text-anchor="start" x="546.437" y="-794" font-family="Helvetica,sans-Serif" font-size="10.00">+ Name</text>
<text text-anchor="start" x="546.437" y="-783" font-family="Helvetica,sans-Serif" font-size="10.00">+ Desc</text>
<text text-anchor="start" x="546.437" y="-772" font-family="Helvetica,sans-Serif" font-size="10.00">+ Cost</text>
<polyline fill="none" stroke="black" points="538.437,-765 615.437,-765 "/>
<text text-anchor="start" x="546.437" y="-753" font-family="Helvetica,sans-Serif" font-size="10.00">+ applyBuffs()</text>
<text text-anchor="start" x="546.437" y="-742" font-family="Helvetica,sans-Serif" font-size="10.00">+ revertBuffs()</text>
</a>
</g>
</g>
<!-- Node7&#45;&gt;Node15 -->
<g id="edge22" class="edge"><title>Node7&#45;&gt;Node15</title>
<path fill="none" stroke="#404040" d="M782.422,-1032.04C773.982,-1024.05 764.824,-1013.89 758.937,-1003 737.45,-963.266 760.325,-942.022 735.937,-904 708.871,-861.804 662.121,-828.236 626.296,-806.898"/>
<polygon fill="none" stroke="#404040" points="625.944,-806.694 618.746,-807.144 615.563,-800.673 622.76,-800.223 625.944,-806.694"/>
<text text-anchor="middle" x="773.937" y="-956.5" font-family="Helvetica,sans-Serif" font-size="10.00"> #desc</text>
<text text-anchor="middle" x="773.937" y="-945.5" font-family="Helvetica,sans-Serif" font-size="10.00">#name</text>
</g>
<!-- Node8 -->
<g id="node6" class="node"><title>Node8</title>
<polygon fill="none" stroke="#bfbfbf" points="475.437,-1021.5 475.437,-1078.5 504.437,-1078.5 504.437,-1021.5 475.437,-1021.5"/>
<text text-anchor="middle" x="489.937" y="-1066.5" font-family="Helvetica,sans-Serif" font-size="10.00">int</text>
<polyline fill="none" stroke="#bfbfbf" points="475.437,-1059.5 504.437,-1059.5 "/>
<text text-anchor="middle" x="489.937" y="-1047.5" font-family="Helvetica,sans-Serif" font-size="10.00"> </text>
<polyline fill="none" stroke="#bfbfbf" points="475.437,-1040.5 504.437,-1040.5 "/>
<text text-anchor="middle" x="489.937" y="-1028.5" font-family="Helvetica,sans-Serif" font-size="10.00"> </text>
</g>
<!-- Node8&#45;&gt;Node6 -->
<g id="edge6" class="edge"><title>Node8&#45;&gt;Node6</title>
<path fill="none" stroke="#404040" d="M475.254,-1048.19C430.857,-1045.41 299.507,-1034.59 273.937,-1003 250.354,-973.866 245.405,-934.84 248.339,-897.637"/>
<polygon fill="none" stroke="#404040" points="248.345,-897.577 244.97,-891.204 249.554,-885.638 252.929,-892.01 248.345,-897.577"/>
<text text-anchor="middle" x="311.437" y="-995" font-family="Helvetica,sans-Serif" font-size="10.00"> #speed</text>
<text text-anchor="middle" x="311.437" y="-984" font-family="Helvetica,sans-Serif" font-size="10.00">#luck</text>
<text text-anchor="middle" x="311.437" y="-973" font-family="Helvetica,sans-Serif" font-size="10.00">#health</text>
<text text-anchor="middle" x="311.437" y="-962" font-family="Helvetica,sans-Serif" font-size="10.00">#magic</text>
<text text-anchor="middle" x="311.437" y="-951" font-family="Helvetica,sans-Serif" font-size="10.00">#maximumMagic</text>
<text text-anchor="middle" x="311.437" y="-940" font-family="Helvetica,sans-Serif" font-size="10.00">#attack</text>
<text text-anchor="middle" x="311.437" y="-929" font-family="Helvetica,sans-Serif" font-size="10.00">#defence</text>
<text text-anchor="middle" x="311.437" y="-918" font-family="Helvetica,sans-Serif" font-size="10.00">#level</text>
<text text-anchor="middle" x="311.437" y="-907" font-family="Helvetica,sans-Serif" font-size="10.00">#rage</text>
</g>
<!-- Node8&#45;&gt;Node10 -->
<g id="edge26" class="edge"><title>Node8&#45;&gt;Node10</title>
<path fill="none" stroke="#404040" d="M504.732,-1047.51C529.869,-1044.17 580.907,-1033.79 608.937,-1003 651.207,-956.559 681.937,-700.297 681.937,-646 681.937,-646 681.937,-646 681.937,-167 681.937,-145.679 678.562,-122.576 674.457,-102.356"/>
<polygon fill="none" stroke="#404040" points="674.43,-102.233 669.256,-97.21 671.902,-90.502 677.077,-95.5249 674.43,-102.233"/>
<text text-anchor="middle" x="699.437" y="-471.5" font-family="Helvetica,sans-Serif" font-size="10.00"> #magic</text>
</g>
<!-- Node8&#45;&gt;Node12 -->
<g id="edge17" class="edge"><title>Node8&#45;&gt;Node12</title>
<path fill="none" stroke="#404040" d="M504.524,-1043.65C521.857,-1036.65 550.715,-1022.9 568.937,-1003 607.743,-960.625 611.413,-942.078 623.937,-886 642.501,-802.871 623.807,-586.868 608.937,-503 606.256,-487.881 602.777,-472.077 598.98,-456.618"/>
<polygon fill="none" stroke="#404040" points="598.955,-456.516 593.61,-451.676 596.022,-444.88 601.367,-449.721 598.955,-456.516"/>
<text text-anchor="middle" x="646.437" y="-642.5" font-family="Helvetica,sans-Serif" font-size="10.00"> +money</text>
</g>
<!-- Node8&#45;&gt;Node13 -->
<g id="edge16" class="edge"><title>Node8&#45;&gt;Node13</title>
<path fill="none" stroke="#404040" d="M486.879,-1021.34C477.793,-939.146 450.935,-696.182 440.323,-600.177"/>
<polygon fill="none" stroke="#404040" points="440.313,-600.089 435.678,-594.565 438.995,-588.162 443.63,-593.686 440.313,-600.089"/>
<text text-anchor="middle" x="494.937" y="-777.5" font-family="Helvetica,sans-Serif" font-size="10.00"> &#45;expGiven</text>
</g>
<!-- Node8&#45;&gt;Node14 -->
<g id="edge24" class="edge"><title>Node8&#45;&gt;Node14</title>
<path fill="none" stroke="#404040" d="M475.255,-1035.52C448.305,-1009.67 391.799,-949.956 370.937,-886 341.717,-796.423 322.733,-754.958 370.937,-674 396.827,-630.518 428.796,-644.283 477.355,-615.647"/>
<polygon fill="none" stroke="#404040" points="477.514,-615.546 480.422,-608.947 487.631,-609.092 484.724,-615.692 477.514,-615.546"/>
<text text-anchor="middle" x="408.437" y="-783" font-family="Helvetica,sans-Serif" font-size="10.00"> &#45;expToNextLevel</text>
<text text-anchor="middle" x="408.437" y="-772" font-family="Helvetica,sans-Serif" font-size="10.00">&#45;exp</text>
</g>
<!-- Node8&#45;&gt;Node15 -->
<g id="edge23" class="edge"><title>Node8&#45;&gt;Node15</title>
<path fill="none" stroke="#404040" d="M498.92,-1021.33C512.984,-978.004 540.484,-893.29 558.787,-836.908"/>
<polygon fill="none" stroke="#404040" points="558.84,-836.746 556.888,-829.804 562.545,-825.332 564.497,-832.274 558.84,-836.746"/>
<text text-anchor="middle" x="550.937" y="-951" font-family="Helvetica,sans-Serif" font-size="10.00"> #cost</text>
</g>
<!-- Node9 -->
<g id="node7" class="node"><title>Node9</title>
<polygon fill="none" stroke="#bfbfbf" points="48.4367,-1021.5 48.4367,-1078.5 83.4367,-1078.5 83.4367,-1021.5 48.4367,-1021.5"/>
<text text-anchor="middle" x="65.9367" y="-1066.5" font-family="Helvetica,sans-Serif" font-size="10.00">bool</text>
<polyline fill="none" stroke="#bfbfbf" points="48.4367,-1059.5 83.4367,-1059.5 "/>
<text text-anchor="middle" x="65.9367" y="-1047.5" font-family="Helvetica,sans-Serif" font-size="10.00"> </text>
<polyline fill="none" stroke="#bfbfbf" points="48.4367,-1040.5 83.4367,-1040.5 "/>
<text text-anchor="middle" x="65.9367" y="-1028.5" font-family="Helvetica,sans-Serif" font-size="10.00"> </text>
</g>
<!-- Node9&#45;&gt;Node6 -->
<g id="edge7" class="edge"><title>Node9&#45;&gt;Node6</title>
<path fill="none" stroke="#404040" d="M69.217,-1021.37C74.6911,-988.196 88.9147,-933.364 124.937,-904 156.268,-878.46 182.124,-906.62 220.885,-885.02"/>
<polygon fill="none" stroke="#404040" points="220.983,-884.956 223.818,-878.326 231.029,-878.393 228.194,-885.024 220.983,-884.956"/>
<text text-anchor="middle" x="148.437" y="-951" font-family="Helvetica,sans-Serif" font-size="10.00"> #canRage</text>
</g>
<!-- Node9&#45;&gt;Node12 -->
<g id="edge18" class="edge"><title>Node9&#45;&gt;Node12</title>
<path fill="none" stroke="#404040" d="M55.4027,-1021.21C23.9478,-932.97 -59.2001,-655.998 72.9367,-503 151.458,-412.082 221.448,-478.074 336.937,-445 392.768,-429.011 453.51,-403.971 498.689,-383.754"/>
<polygon fill="none" stroke="#404040" points="498.889,-383.664 502.713,-377.549 509.827,-378.727 506.004,-384.841 498.889,-383.664"/>
<text text-anchor="middle" x="43.9367" y="-642.5" font-family="Helvetica,sans-Serif" font-size="10.00"> &#45;wasCriticalHit</text>
</g>
<!-- Node10&#45;&gt;Node6 -->
<g id="edge8" class="edge"><title>Node10&#45;&gt;Node6</title>
<path fill="none" stroke="#404040" d="M610.922,-51.9514C509.908,-64.5518 287.937,-99.8766 287.937,-167 287.937,-560.5 287.937,-560.5 287.937,-560.5 287.937,-593.408 286.905,-629.08 285.54,-661.872"/>
<polygon fill="none" stroke="#404040" points="285.522,-662.298 289.258,-668.466 285.002,-674.287 281.266,-668.12 285.522,-662.298"/>
<text text-anchor="middle" x="310.437" y="-353" font-family="Helvetica,sans-Serif" font-size="10.00"> #special1</text>
<text text-anchor="middle" x="310.437" y="-342" font-family="Helvetica,sans-Serif" font-size="10.00">#special2</text>
</g>
<!-- Node11&#45;&gt;Node10 -->
<g id="edge9" class="edge"><title>Node11&#45;&gt;Node10</title>
<path fill="none" stroke="midnightblue" d="M626.233,-119.023C630.583,-109.663 635.125,-99.8905 639.414,-90.6615"/>
<polygon fill="none" stroke="midnightblue" points="623.004,-117.666 621.964,-128.21 629.352,-120.616 623.004,-117.666"/>
</g>
<!-- Node12&#45;&gt;Node11 -->
<g id="edge12" class="edge"><title>Node12&#45;&gt;Node11</title>
<path fill="none" stroke="#404040" d="M586.675,-255.31C589.108,-243.145 591.523,-231.07 593.742,-219.976"/>
<polygon fill="none" stroke="#404040" points="593.8,-219.682 591.055,-213.014 596.154,-207.915 598.899,-214.583 593.8,-219.682"/>
<text text-anchor="middle" x="615.937" y="-229" font-family="Helvetica,sans-Serif" font-size="10.00"> #manager</text>
</g>
<!-- Node13&#45;&gt;Node12 -->
<g id="edge14" class="edge"><title>Node13&#45;&gt;Node12</title>
<path fill="none" stroke="#404040" d="M453.465,-530.946C466.451,-510.532 485.016,-481.348 503.427,-452.407"/>
<polygon fill="none" stroke="#404040" points="503.482,-452.32 503.328,-445.111 509.923,-442.195 510.078,-449.405 503.482,-452.32"/>
<text text-anchor="middle" x="512.937" y="-471.5" font-family="Helvetica,sans-Serif" font-size="10.00"> &#45;enemy</text>
</g>
<!-- Node14&#45;&gt;Node12 -->
<g id="edge19" class="edge"><title>Node14&#45;&gt;Node12</title>
<path fill="none" stroke="#404040" d="M550.305,-503.439C551.965,-489.087 553.811,-473.128 555.666,-457.095"/>
<polygon fill="none" stroke="#404040" points="555.704,-456.765 552.42,-450.345 557.082,-444.845 560.367,-451.264 555.704,-456.765"/>
<text text-anchor="middle" x="571.437" y="-471.5" font-family="Helvetica,sans-Serif" font-size="10.00"> &#45;player</text>
</g>
<!-- Node15&#45;&gt;Node14 -->
<g id="edge21" class="edge"><title>Node15&#45;&gt;Node14</title>
<path fill="none" stroke="#404040" d="M570.259,-734.783C565.609,-703.996 559.323,-662.375 554.06,-627.528"/>
<polygon fill="none" stroke="#404040" points="554.038,-627.379 549.186,-622.043 552.245,-615.513 557.097,-620.849 554.038,-627.379"/>
<text text-anchor="middle" x="570.437" y="-642.5" font-family="Helvetica,sans-Serif" font-size="10.00"> &#45;item</text>
</g>
<!-- Node16 -->
<g id="node14" class="node"><title>Node16</title>
<polygon fill="none" stroke="#bfbfbf" points="126.437,-1021.5 126.437,-1078.5 187.437,-1078.5 187.437,-1021.5 126.437,-1021.5"/>
<text text-anchor="middle" x="156.937" y="-1066.5" font-family="Helvetica,sans-Serif" font-size="10.00">Texture2D</text>
<polyline fill="none" stroke="#bfbfbf" points="126.437,-1059.5 187.437,-1059.5 "/>
<text text-anchor="middle" x="156.937" y="-1047.5" font-family="Helvetica,sans-Serif" font-size="10.00"> </text>
<polyline fill="none" stroke="#bfbfbf" points="126.437,-1040.5 187.437,-1040.5 "/>
<text text-anchor="middle" x="156.937" y="-1028.5" font-family="Helvetica,sans-Serif" font-size="10.00"> </text>
</g>
<!-- Node16&#45;&gt;Node6 -->
<g id="edge27" class="edge"><title>Node16&#45;&gt;Node6</title>
<path fill="none" stroke="#404040" d="M167.329,-1021.44C178.603,-992.042 197.474,-944.269 215.937,-904 219.157,-896.976 222.565,-889.772 226.061,-882.546"/>
<polygon fill="none" stroke="#404040" points="226.151,-882.361 225.193,-875.214 231.422,-871.581 232.38,-878.728 226.151,-882.361"/>
<text text-anchor="middle" x="233.437" y="-951" font-family="Helvetica,sans-Serif" font-size="10.00"> #image</text>
</g>
</g>
</svg>
