<?xml version="1.0" encoding="UTF-8" standalone="no"?>
<!DOCTYPE svg PUBLIC "-//W3C//DTD SVG 1.1//EN"
 "http://www.w3.org/Graphics/SVG/1.1/DTD/svg11.dtd">
<!-- Generated by graphviz version 2.38.0 (20140413.2041)
 -->
<!-- Title: Boid Pages: 1 -->
<svg width="1338pt" height="717pt"
 viewBox="0.00 0.00 1338.00 717.00" xmlns="http://www.w3.org/2000/svg" xmlns:xlink="http://www.w3.org/1999/xlink">
<g id="graph0" class="graph" transform="scale(1 1) rotate(0) translate(4 713)">
<title>Boid</title>
<!-- Node2 -->
<g id="node1" class="node"><title>Node2</title>
<polygon fill="#bfbfbf" stroke="black" points="190.5,-513.5 190.5,-592.5 273.5,-592.5 273.5,-513.5 190.5,-513.5"/>
<text text-anchor="middle" x="232" y="-580.5" font-family="Helvetica,sans-Serif" font-size="10.00">Boid</text>
<polyline fill="none" stroke="black" points="190.5,-573.5 273.5,-573.5 "/>
<text text-anchor="middle" x="232" y="-561.5" font-family="Helvetica,sans-Serif" font-size="10.00"> </text>
<polyline fill="none" stroke="black" points="190.5,-554.5 273.5,-554.5 "/>
<text text-anchor="start" x="198.5" y="-542.5" font-family="Helvetica,sans-Serif" font-size="10.00">&#45; Start()</text>
<text text-anchor="start" x="198.5" y="-531.5" font-family="Helvetica,sans-Serif" font-size="10.00">&#45; Update()</text>
<text text-anchor="start" x="198.5" y="-520.5" font-family="Helvetica,sans-Serif" font-size="10.00">&#45; FixedUpdate()</text>
</g>
<!-- Node6 -->
<g id="node5" class="node"><title>Node6</title>
<g id="a_node5"><a xlink:href="class_duck_a_i.html" target="_top" xlink:title="{DuckAI\n||+ BoidReachedGoal()\l+ PlayerHitGoal()\l&#45; Start()\l&#45; LateUpdate()\l&#45; MoveTowardsOtherBoids()\l&#45; AvoidOtherBoids()\l&#45; MoveTowardsGoal()\l}">
<polygon fill="none" stroke="black" points="214,-342.5 214,-465.5 350,-465.5 350,-342.5 214,-342.5"/>
<text text-anchor="middle" x="282" y="-453.5" font-family="Helvetica,sans-Serif" font-size="10.00">DuckAI</text>
<polyline fill="none" stroke="black" points="214,-446.5 350,-446.5 "/>
<text text-anchor="middle" x="282" y="-434.5" font-family="Helvetica,sans-Serif" font-size="10.00"> </text>
<polyline fill="none" stroke="black" points="214,-427.5 350,-427.5 "/>
<text text-anchor="start" x="222" y="-415.5" font-family="Helvetica,sans-Serif" font-size="10.00">+ BoidReachedGoal()</text>
<text text-anchor="start" x="222" y="-404.5" font-family="Helvetica,sans-Serif" font-size="10.00">+ PlayerHitGoal()</text>
<text text-anchor="start" x="222" y="-393.5" font-family="Helvetica,sans-Serif" font-size="10.00">&#45; Start()</text>
<text text-anchor="start" x="222" y="-382.5" font-family="Helvetica,sans-Serif" font-size="10.00">&#45; LateUpdate()</text>
<text text-anchor="start" x="222" y="-371.5" font-family="Helvetica,sans-Serif" font-size="10.00">&#45; MoveTowardsOtherBoids()</text>
<text text-anchor="start" x="222" y="-360.5" font-family="Helvetica,sans-Serif" font-size="10.00">&#45; AvoidOtherBoids()</text>
<text text-anchor="start" x="222" y="-349.5" font-family="Helvetica,sans-Serif" font-size="10.00">&#45; MoveTowardsGoal()</text>
</a>
</g>
</g>
<!-- Node2&#45;&gt;Node6 -->
<g id="edge8" class="edge"><title>Node2&#45;&gt;Node6</title>
<path fill="none" stroke="#404040" d="M245.137,-513.377C248.947,-502.175 253.236,-489.566 257.505,-477.015"/>
<polygon fill="none" stroke="#404040" points="257.542,-476.907 255.687,-469.939 261.406,-465.546 263.261,-472.515 257.542,-476.907"/>
<text text-anchor="middle" x="271.5" y="-487" font-family="Helvetica,sans-Serif" font-size="10.00"> +boids</text>
</g>
<!-- Node3 -->
<g id="node2" class="node"><title>Node3</title>
<g id="a_node2"><a xlink:href="class_mono_behaviour.html" target="_top" xlink:title="{MonoBehaviour\n||}">
<polygon fill="none" stroke="black" points="26.5,-651.5 26.5,-708.5 109.5,-708.5 109.5,-651.5 26.5,-651.5"/>
<text text-anchor="middle" x="68" y="-696.5" font-family="Helvetica,sans-Serif" font-size="10.00">MonoBehaviour</text>
<polyline fill="none" stroke="black" points="26.5,-689.5 109.5,-689.5 "/>
<text text-anchor="middle" x="68" y="-677.5" font-family="Helvetica,sans-Serif" font-size="10.00"> </text>
<polyline fill="none" stroke="black" points="26.5,-670.5 109.5,-670.5 "/>
<text text-anchor="middle" x="68" y="-658.5" font-family="Helvetica,sans-Serif" font-size="10.00"> </text>
</a>
</g>
</g>
<!-- Node3&#45;&gt;Node2 -->
<g id="edge1" class="edge"><title>Node3&#45;&gt;Node2</title>
<path fill="none" stroke="midnightblue" d="M112.379,-645.174C136.598,-626.715 166.406,-603.995 190.208,-585.854"/>
<polygon fill="none" stroke="midnightblue" points="110.228,-642.413 104.397,-651.258 114.472,-647.98 110.228,-642.413"/>
</g>
<!-- Node4 -->
<g id="node3" class="node"><title>Node4</title>
<g id="a_node3"><a xlink:href="class_goal.html" target="_top" xlink:title="{Goal\n||&#45; Start()\l&#45; OnTriggerEnter2D()\l}">
<polygon fill="none" stroke="black" points="83,-226.5 83,-294.5 189,-294.5 189,-226.5 83,-226.5"/>
<text text-anchor="middle" x="136" y="-282.5" font-family="Helvetica,sans-Serif" font-size="10.00">Goal</text>
<polyline fill="none" stroke="black" points="83,-275.5 189,-275.5 "/>
<text text-anchor="middle" x="136" y="-263.5" font-family="Helvetica,sans-Serif" font-size="10.00"> </text>
<polyline fill="none" stroke="black" points="83,-256.5 189,-256.5 "/>
<text text-anchor="start" x="91" y="-244.5" font-family="Helvetica,sans-Serif" font-size="10.00">&#45; Start()</text>
<text text-anchor="start" x="91" y="-233.5" font-family="Helvetica,sans-Serif" font-size="10.00">&#45; OnTriggerEnter2D()</text>
</a>
</g>
</g>
<!-- Node3&#45;&gt;Node4 -->
<g id="edge3" class="edge"><title>Node3&#45;&gt;Node4</title>
<path fill="none" stroke="midnightblue" d="M54.7284,-641.22C54.0532,-638.461 53.4639,-635.701 53,-633 49.9895,-615.473 52.2222,-610.782 52,-593 51.5557,-557.447 46.2942,-548.095 52,-513 65.1496,-432.121 100.624,-342.124 121.02,-294.791"/>
<polygon fill="none" stroke="midnightblue" points="51.4268,-642.411 57.4789,-651.107 58.1707,-640.535 51.4268,-642.411"/>
</g>
<!-- Node3&#45;&gt;Node6 -->
<g id="edge6" class="edge"><title>Node3&#45;&gt;Node6</title>
<path fill="none" stroke="midnightblue" d="M60.1088,-641.439C53.284,-597.527 49.9647,-525.577 90,-484 127.102,-445.469 160.226,-487.963 209,-466 210.657,-465.254 212.306,-464.46 213.944,-463.622"/>
<polygon fill="none" stroke="midnightblue" points="56.6797,-642.153 61.7972,-651.43 63.5818,-640.986 56.6797,-642.153"/>
</g>
<!-- Node8 -->
<g id="node7" class="node"><title>Node8</title>
<g id="a_node7"><a xlink:href="class_race_manager.html" target="_top" xlink:title="{RaceManager\n||+ PlayerHitGoal()\l+ GetNextGoal()\l+ PositionInArray()\l&#45; Start()\l&#45; Update()\l&#45; UpdatePlayerTimingText()\l&#45; LapTimeToString()\l&#45; FindPlayerRacePosition()\l&#45; SetPlayerLapText()\l&#45; UpdatePlayerPositionText()\l&#45; EndMinigame()\l}">
<polygon fill="none" stroke="black" points="714.5,-0.5 714.5,-167.5 855.5,-167.5 855.5,-0.5 714.5,-0.5"/>
<text text-anchor="middle" x="785" y="-155.5" font-family="Helvetica,sans-Serif" font-size="10.00">RaceManager</text>
<polyline fill="none" stroke="black" points="714.5,-148.5 855.5,-148.5 "/>
<text text-anchor="middle" x="785" y="-136.5" font-family="Helvetica,sans-Serif" font-size="10.00"> </text>
<polyline fill="none" stroke="black" points="714.5,-129.5 855.5,-129.5 "/>
<text text-anchor="start" x="722.5" y="-117.5" font-family="Helvetica,sans-Serif" font-size="10.00">+ PlayerHitGoal()</text>
<text text-anchor="start" x="722.5" y="-106.5" font-family="Helvetica,sans-Serif" font-size="10.00">+ GetNextGoal()</text>
<text text-anchor="start" x="722.5" y="-95.5" font-family="Helvetica,sans-Serif" font-size="10.00">+ PositionInArray()</text>
<text text-anchor="start" x="722.5" y="-84.5" font-family="Helvetica,sans-Serif" font-size="10.00">&#45; Start()</text>
<text text-anchor="start" x="722.5" y="-73.5" font-family="Helvetica,sans-Serif" font-size="10.00">&#45; Update()</text>
<text text-anchor="start" x="722.5" y="-62.5" font-family="Helvetica,sans-Serif" font-size="10.00">&#45; UpdatePlayerTimingText()</text>
<text text-anchor="start" x="722.5" y="-51.5" font-family="Helvetica,sans-Serif" font-size="10.00">&#45; LapTimeToString()</text>
<text text-anchor="start" x="722.5" y="-40.5" font-family="Helvetica,sans-Serif" font-size="10.00">&#45; FindPlayerRacePosition()</text>
<text text-anchor="start" x="722.5" y="-29.5" font-family="Helvetica,sans-Serif" font-size="10.00">&#45; SetPlayerLapText()</text>
<text text-anchor="start" x="722.5" y="-18.5" font-family="Helvetica,sans-Serif" font-size="10.00">&#45; UpdatePlayerPositionText()</text>
<text text-anchor="start" x="722.5" y="-7.5" font-family="Helvetica,sans-Serif" font-size="10.00">&#45; EndMinigame()</text>
</a>
</g>
</g>
<!-- Node3&#45;&gt;Node8 -->
<g id="edge10" class="edge"><title>Node3&#45;&gt;Node8</title>
<path fill="none" stroke="midnightblue" d="M36.1046,-643.067C18.4329,-619.452 0,-586.928 0,-554 0,-554 0,-554 0,-259.5 0,-113.868 521.342,-89.7085 714.299,-85.7541"/>
<polygon fill="none" stroke="midnightblue" points="33.3942,-645.283 42.2921,-651.035 38.9228,-640.99 33.3942,-645.283"/>
</g>
<!-- Node9 -->
<g id="node8" class="node"><title>Node9</title>
<g id="a_node8"><a xlink:href="class_countdown.html" target="_top" xlink:title="{Countdown\n||+ StartCountdown()\l+ Update()\l}">
<polygon fill="none" stroke="black" points="664.5,-226.5 664.5,-294.5 765.5,-294.5 765.5,-226.5 664.5,-226.5"/>
<text text-anchor="middle" x="715" y="-282.5" font-family="Helvetica,sans-Serif" font-size="10.00">Countdown</text>
<polyline fill="none" stroke="black" points="664.5,-275.5 765.5,-275.5 "/>
<text text-anchor="middle" x="715" y="-263.5" font-family="Helvetica,sans-Serif" font-size="10.00"> </text>
<polyline fill="none" stroke="black" points="664.5,-256.5 765.5,-256.5 "/>
<text text-anchor="start" x="672.5" y="-244.5" font-family="Helvetica,sans-Serif" font-size="10.00">+ StartCountdown()</text>
<text text-anchor="start" x="672.5" y="-233.5" font-family="Helvetica,sans-Serif" font-size="10.00">+ Update()</text>
</a>
</g>
</g>
<!-- Node3&#45;&gt;Node9 -->
<g id="edge12" class="edge"><title>Node3&#45;&gt;Node9</title>
<path fill="none" stroke="midnightblue" d="M82.576,-642.056C99.9219,-603.265 132.742,-543.724 181,-513 223.159,-486.159 242.67,-503.018 292,-495 371.116,-482.14 408.656,-517.591 470,-466 526.813,-418.22 474.928,-353.716 537,-313 575.601,-287.68 626.856,-274.564 664.451,-267.926"/>
<polygon fill="none" stroke="midnightblue" points="79.2734,-640.875 78.4995,-651.441 85.6938,-643.663 79.2734,-640.875"/>
</g>
<!-- Node4&#45;&gt;Node2 -->
<g id="edge2" class="edge"><title>Node4&#45;&gt;Node2</title>
<path fill="none" stroke="#404040" d="M130.313,-294.692C124.695,-336.594 120.139,-409.965 145,-466 153.131,-484.327 167.097,-500.833 181.488,-514.368"/>
<polygon fill="none" stroke="#404040" points="181.517,-514.394 188.655,-515.418 190.455,-522.401 183.317,-521.377 181.517,-514.394"/>
<text text-anchor="middle" x="175" y="-401.5" font-family="Helvetica,sans-Serif" font-size="10.00"> +currentGoal</text>
</g>
<!-- Node4&#45;&gt;Node8 -->
<g id="edge19" class="edge"><title>Node4&#45;&gt;Node8</title>
<path fill="none" stroke="#404040" d="M127.7,-226.141C126.268,-212.211 127.63,-196.794 137,-186 209.352,-102.652 543.769,-87.6191 701.819,-85.2317"/>
<polygon fill="none" stroke="#404040" points="702.264,-85.2258 708.209,-81.1455 714.262,-85.0644 708.317,-89.1447 702.264,-85.2258"/>
<text text-anchor="middle" x="178" y="-200" font-family="Helvetica,sans-Serif" font-size="10.00"> +goals</text>
<text text-anchor="middle" x="178" y="-189" font-family="Helvetica,sans-Serif" font-size="10.00">&#45;currentPlayerGoal</text>
</g>
<!-- Node5 -->
<g id="node4" class="node"><title>Node5</title>
<polygon fill="none" stroke="#bfbfbf" points="128,-651.5 128,-708.5 178,-708.5 178,-651.5 128,-651.5"/>
<text text-anchor="middle" x="153" y="-696.5" font-family="Helvetica,sans-Serif" font-size="10.00">Vector2</text>
<polyline fill="none" stroke="#bfbfbf" points="128,-689.5 178,-689.5 "/>
<text text-anchor="middle" x="153" y="-677.5" font-family="Helvetica,sans-Serif" font-size="10.00"> </text>
<polyline fill="none" stroke="#bfbfbf" points="128,-670.5 178,-670.5 "/>
<text text-anchor="middle" x="153" y="-658.5" font-family="Helvetica,sans-Serif" font-size="10.00"> </text>
</g>
<!-- Node5&#45;&gt;Node2 -->
<g id="edge30" class="edge"><title>Node5&#45;&gt;Node2</title>
<path fill="none" stroke="#404040" d="M170.533,-651.258C179.482,-637.098 190.637,-619.447 200.979,-603.084"/>
<polygon fill="none" stroke="#404040" points="201.215,-602.711 201.039,-595.502 207.626,-592.567 207.802,-599.776 201.215,-602.711"/>
<text text-anchor="middle" x="207.5" y="-625" font-family="Helvetica,sans-Serif" font-size="10.00"> +pos</text>
<text text-anchor="middle" x="207.5" y="-614" font-family="Helvetica,sans-Serif" font-size="10.00">+vel</text>
</g>
<!-- Node5&#45;&gt;Node4 -->
<g id="edge4" class="edge"><title>Node5&#45;&gt;Node4</title>
<path fill="none" stroke="#404040" d="M147.647,-651.229C140.135,-610.704 126.843,-532.902 122,-466 118.021,-411.033 120.103,-397.078 122,-342 122.445,-329.088 122.084,-325.777 124,-313 124.323,-310.847 124.689,-308.65 125.088,-306.437"/>
<polygon fill="none" stroke="#404040" points="125.103,-306.359 122.363,-299.688 127.467,-294.594 130.207,-301.264 125.103,-306.359"/>
<text text-anchor="middle" x="137.5" y="-487" font-family="Helvetica,sans-Serif" font-size="10.00"> +pos</text>
</g>
<!-- Node6&#45;&gt;Node4 -->
<g id="edge5" class="edge"><title>Node6&#45;&gt;Node4</title>
<path fill="none" stroke="#404040" d="M213.908,-351.559C209.236,-348.274 204.57,-345.06 200,-342 187.08,-333.349 180.761,-335.224 170,-324 164.671,-318.441 159.921,-311.883 155.784,-305.142"/>
<polygon fill="none" stroke="#404040" points="155.686,-304.969 149.255,-301.707 149.793,-294.516 156.224,-297.778 155.686,-304.969"/>
<text text-anchor="middle" x="194.5" y="-316" font-family="Helvetica,sans-Serif" font-size="10.00"> +masterAI</text>
</g>
<!-- Node6&#45;&gt;Node8 -->
<g id="edge27" class="edge"><title>Node6&#45;&gt;Node8</title>
<path fill="none" stroke="#404040" d="M248.75,-342.275C233.661,-305.803 223.791,-260.031 247,-226 298.159,-150.985 564.524,-110.09 702.274,-93.6688"/>
<polygon fill="none" stroke="#404040" points="702.467,-93.6462 707.961,-88.9746 714.386,-92.2486 708.892,-96.9202 702.467,-93.6462"/>
<text text-anchor="middle" x="271.5" y="-258" font-family="Helvetica,sans-Serif" font-size="10.00"> +masterAI</text>
</g>
<!-- Node7 -->
<g id="node6" class="node"><title>Node7</title>
<polygon fill="none" stroke="#bfbfbf" points="635.5,-651.5 635.5,-708.5 670.5,-708.5 670.5,-651.5 635.5,-651.5"/>
<text text-anchor="middle" x="653" y="-696.5" font-family="Helvetica,sans-Serif" font-size="10.00">float</text>
<polyline fill="none" stroke="#bfbfbf" points="635.5,-689.5 670.5,-689.5 "/>
<text text-anchor="middle" x="653" y="-677.5" font-family="Helvetica,sans-Serif" font-size="10.00"> </text>
<polyline fill="none" stroke="#bfbfbf" points="635.5,-670.5 670.5,-670.5 "/>
<text text-anchor="middle" x="653" y="-658.5" font-family="Helvetica,sans-Serif" font-size="10.00"> </text>
</g>
<!-- Node7&#45;&gt;Node2 -->
<g id="edge29" class="edge"><title>Node7&#45;&gt;Node2</title>
<path fill="none" stroke="#404040" d="M635.13,-674.191C604.805,-665.991 541.358,-648.667 488,-633 417.614,-612.333 336.79,-587.146 285.104,-570.853"/>
<polygon fill="none" stroke="#404040" points="285.018,-570.826 278.093,-572.835 273.575,-567.214 280.501,-565.206 285.018,-570.826"/>
<text text-anchor="middle" x="498" y="-619.5" font-family="Helvetica,sans-Serif" font-size="10.00"> +dir</text>
</g>
<!-- Node7&#45;&gt;Node6 -->
<g id="edge7" class="edge"><title>Node7&#45;&gt;Node6</title>
<path fill="none" stroke="#404040" d="M635.387,-666.061C590.236,-632.882 466.687,-542.036 364,-466 362.757,-465.079 361.503,-464.151 360.241,-463.216"/>
<polygon fill="none" stroke="#404040" points="360.079,-463.095 352.877,-462.735 350.44,-455.948 357.642,-456.309 360.079,-463.095"/>
<text text-anchor="middle" x="581" y="-583.5" font-family="Helvetica,sans-Serif" font-size="10.00"> +boidVisualTurnRate</text>
<text text-anchor="middle" x="581" y="-572.5" font-family="Helvetica,sans-Serif" font-size="10.00">&#45;separationFactor</text>
<text text-anchor="middle" x="581" y="-561.5" font-family="Helvetica,sans-Serif" font-size="10.00">+maxSpeed</text>
<text text-anchor="middle" x="581" y="-550.5" font-family="Helvetica,sans-Serif" font-size="10.00">+cohesionFactor</text>
<text text-anchor="middle" x="581" y="-539.5" font-family="Helvetica,sans-Serif" font-size="10.00">&#45;goalFactor</text>
<text text-anchor="middle" x="581" y="-528.5" font-family="Helvetica,sans-Serif" font-size="10.00">+acceleration</text>
<text text-anchor="middle" x="581" y="-517.5" font-family="Helvetica,sans-Serif" font-size="10.00">+avoidanceDistance</text>
</g>
<!-- Node7&#45;&gt;Node8 -->
<g id="edge22" class="edge"><title>Node7&#45;&gt;Node8</title>
<path fill="none" stroke="#404040" d="M670.618,-679.375C773.014,-681.096 1287,-683.297 1287,-554 1287,-554 1287,-554 1287,-259.5 1287,-218.7 1267.2,-206.629 1232,-186 1117.25,-118.751 961.753,-96.2619 867.659,-88.7519"/>
<polygon fill="none" stroke="#404040" points="867.614,-88.7486 861.331,-92.2871 855.648,-87.8481 861.931,-84.3096 867.614,-88.7486"/>
<text text-anchor="middle" x="1308.5" y="-407" font-family="Helvetica,sans-Serif" font-size="10.00"> &#45;lapTime</text>
<text text-anchor="middle" x="1308.5" y="-396" font-family="Helvetica,sans-Serif" font-size="10.00">&#45;bestTime</text>
</g>
<!-- Node7&#45;&gt;Node9 -->
<g id="edge14" class="edge"><title>Node7&#45;&gt;Node9</title>
<path fill="none" stroke="#404040" d="M657.116,-651.283C667.608,-580.634 695.429,-393.286 708.298,-306.632"/>
<polygon fill="none" stroke="#404040" points="708.321,-306.473 705.246,-299.951 710.084,-294.603 713.159,-301.126 708.321,-306.473"/>
<text text-anchor="middle" x="696" y="-487" font-family="Helvetica,sans-Serif" font-size="10.00"> &#45;timer</text>
</g>
<!-- Node8&#45;&gt;Node6 -->
<g id="edge9" class="edge"><title>Node8&#45;&gt;Node6</title>
<path fill="none" stroke="#404040" d="M714.179,-96.8525C598.859,-117.731 378.646,-164.72 332,-226 309.163,-256.002 296.756,-295.983 290.015,-330.355"/>
<polygon fill="none" stroke="#404040" points="289.999,-330.446 292.865,-337.063 287.859,-342.254 284.993,-335.637 289.999,-330.446"/>
<text text-anchor="middle" x="365" y="-258" font-family="Helvetica,sans-Serif" font-size="10.00"> +raceManager</text>
</g>
<!-- Node9&#45;&gt;Node8 -->
<g id="edge11" class="edge"><title>Node9&#45;&gt;Node8</title>
<path fill="none" stroke="#404040" d="M728.331,-226.267C733.83,-212.558 740.506,-195.916 747.319,-178.935"/>
<polygon fill="none" stroke="#404040" points="747.336,-178.891 745.857,-171.833 751.804,-167.754 753.282,-174.811 747.336,-178.891"/>
<text text-anchor="middle" x="772" y="-194.5" font-family="Helvetica,sans-Serif" font-size="10.00"> +countdown</text>
</g>
<!-- Node10 -->
<g id="node9" class="node"><title>Node10</title>
<polygon fill="none" stroke="#bfbfbf" points="612,-375.5 612,-432.5 670,-432.5 670,-375.5 612,-375.5"/>
<text text-anchor="middle" x="641" y="-420.5" font-family="Helvetica,sans-Serif" font-size="10.00">AudioClip</text>
<polyline fill="none" stroke="#bfbfbf" points="612,-413.5 670,-413.5 "/>
<text text-anchor="middle" x="641" y="-401.5" font-family="Helvetica,sans-Serif" font-size="10.00"> </text>
<polyline fill="none" stroke="#bfbfbf" points="612,-394.5 670,-394.5 "/>
<text text-anchor="middle" x="641" y="-382.5" font-family="Helvetica,sans-Serif" font-size="10.00"> </text>
</g>
<!-- Node10&#45;&gt;Node9 -->
<g id="edge13" class="edge"><title>Node10&#45;&gt;Node9</title>
<path fill="none" stroke="#404040" d="M623.153,-375.224C611.834,-356.984 598.808,-334.605 596,-324 594.748,-319.274 593.316,-317.086 596,-313 608.886,-293.383 631.014,-281.202 652.719,-273.655"/>
<polygon fill="none" stroke="#404040" points="652.874,-273.607 657.403,-267.995 664.325,-270.018 659.795,-275.629 652.874,-273.607"/>
<text text-anchor="middle" x="640.5" y="-316" font-family="Helvetica,sans-Serif" font-size="10.00"> +countdownSounds</text>
</g>
<!-- Node11 -->
<g id="node10" class="node"><title>Node11</title>
<polygon fill="none" stroke="#bfbfbf" points="907,-375.5 907,-432.5 955,-432.5 955,-375.5 907,-375.5"/>
<text text-anchor="middle" x="931" y="-420.5" font-family="Helvetica,sans-Serif" font-size="10.00">Color []</text>
<polyline fill="none" stroke="#bfbfbf" points="907,-413.5 955,-413.5 "/>
<text text-anchor="middle" x="931" y="-401.5" font-family="Helvetica,sans-Serif" font-size="10.00"> </text>
<polyline fill="none" stroke="#bfbfbf" points="907,-394.5 955,-394.5 "/>
<text text-anchor="middle" x="931" y="-382.5" font-family="Helvetica,sans-Serif" font-size="10.00"> </text>
</g>
<!-- Node11&#45;&gt;Node8 -->
<g id="edge24" class="edge"><title>Node11&#45;&gt;Node8</title>
<path fill="none" stroke="#404040" d="M934.023,-375.498C935.263,-357.507 935.51,-333.606 931,-313 919.998,-262.734 891.707,-213.765 862.926,-174.176"/>
<polygon fill="none" stroke="#404040" points="862.761,-173.953 855.973,-171.519 855.608,-164.317 862.396,-166.751 862.761,-173.953"/>
<text text-anchor="middle" x="960.5" y="-258" font-family="Helvetica,sans-Serif" font-size="10.00"> +positionColors</text>
</g>
<!-- Node11&#45;&gt;Node9 -->
<g id="edge15" class="edge"><title>Node11&#45;&gt;Node9</title>
<path fill="none" stroke="#404040" d="M906.782,-380.081C885.525,-360.701 853.21,-332.978 822,-313 807.818,-303.922 791.794,-295.394 776.547,-287.99"/>
<polygon fill="none" stroke="#404040" points="776.461,-287.949 769.325,-288.991 765.619,-282.805 772.755,-281.763 776.461,-287.949"/>
<text text-anchor="middle" x="882.5" y="-316" font-family="Helvetica,sans-Serif" font-size="10.00"> +countdownColours</text>
</g>
<!-- Node12 -->
<g id="node11" class="node"><title>Node12</title>
<polygon fill="none" stroke="#bfbfbf" points="771.5,-375.5 771.5,-432.5 806.5,-432.5 806.5,-375.5 771.5,-375.5"/>
<text text-anchor="middle" x="789" y="-420.5" font-family="Helvetica,sans-Serif" font-size="10.00">bool</text>
<polyline fill="none" stroke="#bfbfbf" points="771.5,-413.5 806.5,-413.5 "/>
<text text-anchor="middle" x="789" y="-401.5" font-family="Helvetica,sans-Serif" font-size="10.00"> </text>
<polyline fill="none" stroke="#bfbfbf" points="771.5,-394.5 806.5,-394.5 "/>
<text text-anchor="middle" x="789" y="-382.5" font-family="Helvetica,sans-Serif" font-size="10.00"> </text>
</g>
<!-- Node12&#45;&gt;Node8 -->
<g id="edge25" class="edge"><title>Node12&#45;&gt;Node8</title>
<path fill="none" stroke="#404040" d="M801.955,-375.15C808.148,-360.314 814.881,-341.549 818,-324 826.427,-276.59 820.631,-223.564 811.686,-179.527"/>
<polygon fill="none" stroke="#404040" points="811.657,-179.388 806.494,-174.354 809.155,-167.652 814.318,-172.686 811.657,-179.388"/>
<text text-anchor="middle" x="855" y="-258" font-family="Helvetica,sans-Serif" font-size="10.00"> +raceRunning</text>
</g>
<!-- Node12&#45;&gt;Node9 -->
<g id="edge16" class="edge"><title>Node12&#45;&gt;Node9</title>
<path fill="none" stroke="#404040" d="M771.474,-382.428C759.223,-367.156 743.279,-345.36 733,-324 730.315,-318.42 727.954,-312.362 725.901,-306.287"/>
<polygon fill="none" stroke="#404040" points="725.866,-306.173 720.276,-301.618 722.331,-294.706 727.921,-299.261 725.866,-306.173"/>
<text text-anchor="middle" x="775.5" y="-316" font-family="Helvetica,sans-Serif" font-size="10.00"> &#45;countdownStarted</text>
</g>
<!-- Node13 -->
<g id="node12" class="node"><title>Node13</title>
<polygon fill="none" stroke="#bfbfbf" points="522,-375.5 522,-432.5 594,-432.5 594,-375.5 522,-375.5"/>
<text text-anchor="middle" x="558" y="-420.5" font-family="Helvetica,sans-Serif" font-size="10.00">AudioSource</text>
<polyline fill="none" stroke="#bfbfbf" points="522,-413.5 594,-413.5 "/>
<text text-anchor="middle" x="558" y="-401.5" font-family="Helvetica,sans-Serif" font-size="10.00"> </text>
<polyline fill="none" stroke="#bfbfbf" points="522,-394.5 594,-394.5 "/>
<text text-anchor="middle" x="558" y="-382.5" font-family="Helvetica,sans-Serif" font-size="10.00"> </text>
</g>
<!-- Node13&#45;&gt;Node9 -->
<g id="edge17" class="edge"><title>Node13&#45;&gt;Node9</title>
<path fill="none" stroke="#404040" d="M544.751,-375.233C537.685,-355.988 532.865,-330.734 546,-313 570.193,-280.337 614.625,-267.69 651.859,-263.089"/>
<polygon fill="none" stroke="#404040" points="652.234,-263.05 657.793,-258.456 664.171,-261.82 658.613,-266.414 652.234,-263.05"/>
<text text-anchor="middle" x="568.5" y="-316" font-family="Helvetica,sans-Serif" font-size="10.00"> &#45;audioSrc</text>
</g>
<!-- Node14 -->
<g id="node13" class="node"><title>Node14</title>
<polygon fill="none" stroke="#bfbfbf" points="1017.5,-375.5 1017.5,-432.5 1052.5,-432.5 1052.5,-375.5 1017.5,-375.5"/>
<text text-anchor="middle" x="1035" y="-420.5" font-family="Helvetica,sans-Serif" font-size="10.00">Text</text>
<polyline fill="none" stroke="#bfbfbf" points="1017.5,-413.5 1052.5,-413.5 "/>
<text text-anchor="middle" x="1035" y="-401.5" font-family="Helvetica,sans-Serif" font-size="10.00"> </text>
<polyline fill="none" stroke="#bfbfbf" points="1017.5,-394.5 1052.5,-394.5 "/>
<text text-anchor="middle" x="1035" y="-382.5" font-family="Helvetica,sans-Serif" font-size="10.00"> </text>
</g>
<!-- Node14&#45;&gt;Node8 -->
<g id="edge26" class="edge"><title>Node14&#45;&gt;Node8</title>
<path fill="none" stroke="#404040" d="M1035.91,-375.344C1035.79,-338.238 1030.8,-271.725 1000,-226 967.621,-177.931 912.779,-142.351 866.59,-118.957"/>
<polygon fill="none" stroke="#404040" points="866.425,-118.876 859.275,-119.807 855.664,-113.565 862.815,-112.633 866.425,-118.876"/>
<text text-anchor="middle" x="1062" y="-285.5" font-family="Helvetica,sans-Serif" font-size="10.00"> &#45;positionSuffix</text>
<text text-anchor="middle" x="1062" y="-274.5" font-family="Helvetica,sans-Serif" font-size="10.00">&#45;currentLapTime</text>
<text text-anchor="middle" x="1062" y="-263.5" font-family="Helvetica,sans-Serif" font-size="10.00">&#45;totalLaps</text>
<text text-anchor="middle" x="1062" y="-252.5" font-family="Helvetica,sans-Serif" font-size="10.00">+textPosition</text>
<text text-anchor="middle" x="1062" y="-241.5" font-family="Helvetica,sans-Serif" font-size="10.00">&#45;bestLapTime</text>
<text text-anchor="middle" x="1062" y="-230.5" font-family="Helvetica,sans-Serif" font-size="10.00">&#45;currentLap</text>
</g>
<!-- Node14&#45;&gt;Node9 -->
<g id="edge18" class="edge"><title>Node14&#45;&gt;Node9</title>
<path fill="none" stroke="#404040" d="M1017.45,-382.038C998.462,-360.896 966.152,-329.144 931,-313 881.592,-290.309 862.768,-308.1 810,-295 799.28,-292.339 788.068,-288.952 777.258,-285.359"/>
<polygon fill="none" stroke="#404040" points="777.08,-285.298 770.107,-287.134 765.729,-281.404 772.702,-279.567 777.08,-285.298"/>
<text text-anchor="middle" x="961.5" y="-316" font-family="Helvetica,sans-Serif" font-size="10.00"> &#45;text</text>
</g>
<!-- Node15 -->
<g id="node14" class="node"><title>Node15</title>
<polygon fill="none" stroke="#bfbfbf" points="1128.5,-232 1128.5,-289 1169.5,-289 1169.5,-232 1128.5,-232"/>
<text text-anchor="middle" x="1149" y="-277" font-family="Helvetica,sans-Serif" font-size="10.00">string</text>
<polyline fill="none" stroke="#bfbfbf" points="1128.5,-270 1169.5,-270 "/>
<text text-anchor="middle" x="1149" y="-258" font-family="Helvetica,sans-Serif" font-size="10.00"> </text>
<polyline fill="none" stroke="#bfbfbf" points="1128.5,-251 1169.5,-251 "/>
<text text-anchor="middle" x="1149" y="-239" font-family="Helvetica,sans-Serif" font-size="10.00"> </text>
</g>
<!-- Node15&#45;&gt;Node8 -->
<g id="edge20" class="edge"><title>Node15&#45;&gt;Node8</title>
<path fill="none" stroke="#404040" d="M1128.45,-238.682C1123.83,-234.335 1118.86,-229.893 1114,-226 1088.99,-205.954 1082.52,-200.617 1054,-186 993.719,-155.106 921.705,-128.57 867.364,-110.461"/>
<polygon fill="none" stroke="#404040" points="867.095,-110.372 860.144,-112.291 855.7,-106.612 862.651,-104.693 867.095,-110.372"/>
<text text-anchor="middle" x="1129" y="-194.5" font-family="Helvetica,sans-Serif" font-size="10.00"> +positionSuffixes</text>
</g>
<!-- Node16 -->
<g id="node15" class="node"><title>Node16</title>
<polygon fill="none" stroke="#bfbfbf" points="1187.5,-232 1187.5,-289 1258.5,-289 1258.5,-232 1187.5,-232"/>
<text text-anchor="middle" x="1223" y="-277" font-family="Helvetica,sans-Serif" font-size="10.00">GameObject</text>
<polyline fill="none" stroke="#bfbfbf" points="1187.5,-270 1258.5,-270 "/>
<text text-anchor="middle" x="1223" y="-258" font-family="Helvetica,sans-Serif" font-size="10.00"> </text>
<polyline fill="none" stroke="#bfbfbf" points="1187.5,-251 1258.5,-251 "/>
<text text-anchor="middle" x="1223" y="-239" font-family="Helvetica,sans-Serif" font-size="10.00"> </text>
</g>
<!-- Node16&#45;&gt;Node8 -->
<g id="edge21" class="edge"><title>Node16&#45;&gt;Node8</title>
<path fill="none" stroke="#404040" d="M1209.93,-231.652C1201.25,-216.047 1188.43,-197.473 1172,-186 1080.44,-122.044 951.169,-98.5841 867.714,-89.9804"/>
<polygon fill="none" stroke="#404040" points="867.687,-89.9779 861.328,-93.378 855.743,-88.8158 862.102,-85.4156 867.687,-89.9779"/>
<text text-anchor="middle" x="1210" y="-194.5" font-family="Helvetica,sans-Serif" font-size="10.00"> +player</text>
</g>
<!-- Node17 -->
<g id="node16" class="node"><title>Node17</title>
<polygon fill="none" stroke="#bfbfbf" points="328.5,-651.5 328.5,-708.5 357.5,-708.5 357.5,-651.5 328.5,-651.5"/>
<text text-anchor="middle" x="343" y="-696.5" font-family="Helvetica,sans-Serif" font-size="10.00">int</text>
<polyline fill="none" stroke="#bfbfbf" points="328.5,-689.5 357.5,-689.5 "/>
<text text-anchor="middle" x="343" y="-677.5" font-family="Helvetica,sans-Serif" font-size="10.00"> </text>
<polyline fill="none" stroke="#bfbfbf" points="328.5,-670.5 357.5,-670.5 "/>
<text text-anchor="middle" x="343" y="-658.5" font-family="Helvetica,sans-Serif" font-size="10.00"> </text>
</g>
<!-- Node17&#45;&gt;Node2 -->
<g id="edge31" class="edge"><title>Node17&#45;&gt;Node2</title>
<path fill="none" stroke="#404040" d="M328.254,-671.942C313.126,-664.119 289.653,-650.291 274,-633 266.108,-624.282 259.211,-613.812 253.411,-603.389"/>
<polygon fill="none" stroke="#404040" points="253.337,-603.247 247.009,-599.789 247.767,-592.618 254.095,-596.076 253.337,-603.247"/>
<text text-anchor="middle" x="301.5" y="-619.5" font-family="Helvetica,sans-Serif" font-size="10.00"> +currentLap</text>
</g>
<!-- Node17&#45;&gt;Node8 -->
<g id="edge23" class="edge"><title>Node17&#45;&gt;Node8</title>
<path fill="none" stroke="#404040" d="M357.635,-659.233C362.84,-651.399 368.317,-642.101 372,-633 421.575,-510.507 361.314,-453.01 433,-342 499.291,-239.344 622.03,-163.93 703.614,-122.241"/>
<polygon fill="none" stroke="#404040" points="703.63,-122.233 707.187,-115.96 714.345,-116.83 710.789,-123.103 703.63,-122.233"/>
<text text-anchor="middle" x="473" y="-412.5" font-family="Helvetica,sans-Serif" font-size="10.00"> &#45;currentPlayerLap</text>
<text text-anchor="middle" x="473" y="-401.5" font-family="Helvetica,sans-Serif" font-size="10.00">&#45;playerPosition</text>
<text text-anchor="middle" x="473" y="-390.5" font-family="Helvetica,sans-Serif" font-size="10.00">+lapCount</text>
</g>
<!-- Node18 -->
<g id="node17" class="node"><title>Node18</title>
<polygon fill="none" stroke="#bfbfbf" points="196.5,-651.5 196.5,-708.5 267.5,-708.5 267.5,-651.5 196.5,-651.5"/>
<text text-anchor="middle" x="232" y="-696.5" font-family="Helvetica,sans-Serif" font-size="10.00">Rigidbody2D</text>
<polyline fill="none" stroke="#bfbfbf" points="196.5,-689.5 267.5,-689.5 "/>
<text text-anchor="middle" x="232" y="-677.5" font-family="Helvetica,sans-Serif" font-size="10.00"> </text>
<polyline fill="none" stroke="#bfbfbf" points="196.5,-670.5 267.5,-670.5 "/>
<text text-anchor="middle" x="232" y="-658.5" font-family="Helvetica,sans-Serif" font-size="10.00"> </text>
</g>
<!-- Node18&#45;&gt;Node2 -->
<g id="edge28" class="edge"><title>Node18&#45;&gt;Node2</title>
<path fill="none" stroke="#404040" d="M232,-651.258C232,-637.637 232,-620.787 232,-604.96"/>
<polygon fill="none" stroke="#404040" points="232,-604.567 228,-598.567 232,-592.567 236,-598.567 232,-604.567"/>
<text text-anchor="middle" x="241" y="-619.5" font-family="Helvetica,sans-Serif" font-size="10.00"> +rb</text>
</g>
</g>
</svg>
