<?xml version="1.0" encoding="UTF-8" standalone="no"?>
<!DOCTYPE svg PUBLIC "-//W3C//DTD SVG 1.1//EN"
 "http://www.w3.org/Graphics/SVG/1.1/DTD/svg11.dtd">
<!-- Generated by graphviz version 2.38.0 (20140413.2041)
 -->
<!-- Title: StandardAttack Pages: 1 -->
<svg width="935pt" height="1006pt"
 viewBox="0.00 0.00 934.50 1006.00" xmlns="http://www.w3.org/2000/svg" xmlns:xlink="http://www.w3.org/1999/xlink">
<g id="graph0" class="graph" transform="scale(1 1) rotate(0) translate(4 1002)">
<title>StandardAttack</title>
<!-- Node2 -->
<g id="node1" class="node"><title>Node2</title>
<polygon fill="#bfbfbf" stroke="black" points="294.5,-682.5 294.5,-750.5 393.5,-750.5 393.5,-682.5 294.5,-682.5"/>
<text text-anchor="middle" x="344" y="-738.5" font-family="Helvetica,sans-Serif" font-size="10.00">StandardAttack</text>
<polyline fill="none" stroke="black" points="294.5,-731.5 393.5,-731.5 "/>
<text text-anchor="middle" x="344" y="-719.5" font-family="Helvetica,sans-Serif" font-size="10.00"> </text>
<polyline fill="none" stroke="black" points="294.5,-712.5 393.5,-712.5 "/>
<text text-anchor="start" x="302.5" y="-700.5" font-family="Helvetica,sans-Serif" font-size="10.00">+ StandardAttack()</text>
<text text-anchor="start" x="302.5" y="-689.5" font-family="Helvetica,sans-Serif" font-size="10.00">+ performMove()</text>
</g>
<!-- Node3 -->
<g id="node2" class="node"><title>Node3</title>
<g id="a_node2"><a xlink:href="class_character_move.html" target="_top" xlink:title="Astract base class for character moves ">
<polygon fill="none" stroke="black" points="228,-813.5 228,-892.5 314,-892.5 314,-813.5 228,-813.5"/>
<text text-anchor="middle" x="271" y="-880.5" font-family="Helvetica,sans-Serif" font-size="10.00">CharacterMove</text>
<polyline fill="none" stroke="black" points="228,-873.5 314,-873.5 "/>
<text text-anchor="start" x="236" y="-861.5" font-family="Helvetica,sans-Serif" font-size="10.00">+ User</text>
<text text-anchor="start" x="236" y="-850.5" font-family="Helvetica,sans-Serif" font-size="10.00">+ Target</text>
<text text-anchor="start" x="236" y="-839.5" font-family="Helvetica,sans-Serif" font-size="10.00">+ Text</text>
<polyline fill="none" stroke="black" points="228,-832.5 314,-832.5 "/>
<text text-anchor="start" x="236" y="-820.5" font-family="Helvetica,sans-Serif" font-size="10.00">+ performMove()</text>
</a>
</g>
</g>
<!-- Node3&#45;&gt;Node2 -->
<g id="edge1" class="edge"><title>Node3&#45;&gt;Node2</title>
<path fill="none" stroke="midnightblue" d="M296.853,-804.366C306.511,-786.573 317.257,-766.773 326.049,-750.575"/>
<polygon fill="none" stroke="midnightblue" points="293.613,-802.999 291.919,-813.458 299.765,-806.338 293.613,-802.999"/>
</g>
<!-- Node8 -->
<g id="node7" class="node"><title>Node8</title>
<g id="a_node7"><a xlink:href="class_special_move.html" target="_top" xlink:title="Special move abstract base class that expands upon CharacterMove, adding magic properties ...">
<polygon fill="none" stroke="black" points="412,-671.5 412,-761.5 510,-761.5 510,-671.5 412,-671.5"/>
<text text-anchor="middle" x="461" y="-749.5" font-family="Helvetica,sans-Serif" font-size="10.00">SpecialMove</text>
<polyline fill="none" stroke="black" points="412,-742.5 510,-742.5 "/>
<text text-anchor="start" x="420" y="-730.5" font-family="Helvetica,sans-Serif" font-size="10.00">+ Magic</text>
<text text-anchor="start" x="420" y="-719.5" font-family="Helvetica,sans-Serif" font-size="10.00">+ Desc</text>
<polyline fill="none" stroke="black" points="412,-712.5 510,-712.5 "/>
<text text-anchor="start" x="420" y="-700.5" font-family="Helvetica,sans-Serif" font-size="10.00">+ setUp()</text>
<text text-anchor="start" x="420" y="-689.5" font-family="Helvetica,sans-Serif" font-size="10.00">+ decreaseMagic()</text>
<text text-anchor="start" x="420" y="-678.5" font-family="Helvetica,sans-Serif" font-size="10.00"># SpecialMove()</text>
</a>
</g>
</g>
<!-- Node3&#45;&gt;Node8 -->
<g id="edge8" class="edge"><title>Node3&#45;&gt;Node8</title>
<path fill="none" stroke="midnightblue" d="M322.407,-809.321C334.361,-800.371 347.313,-791.411 360,-784 377.536,-773.757 384.649,-776.554 402,-766 405.285,-764.002 408.583,-761.834 411.849,-759.56"/>
<polygon fill="none" stroke="midnightblue" points="320.137,-806.65 314.305,-815.496 324.38,-812.217 320.137,-806.65"/>
</g>
<!-- Node4 -->
<g id="node3" class="node"><title>Node4</title>
<polygon fill="none" stroke="#bfbfbf" points="250.5,-940.5 250.5,-997.5 291.5,-997.5 291.5,-940.5 250.5,-940.5"/>
<text text-anchor="middle" x="271" y="-985.5" font-family="Helvetica,sans-Serif" font-size="10.00">string</text>
<polyline fill="none" stroke="#bfbfbf" points="250.5,-978.5 291.5,-978.5 "/>
<text text-anchor="middle" x="271" y="-966.5" font-family="Helvetica,sans-Serif" font-size="10.00"> </text>
<polyline fill="none" stroke="#bfbfbf" points="250.5,-959.5 291.5,-959.5 "/>
<text text-anchor="middle" x="271" y="-947.5" font-family="Helvetica,sans-Serif" font-size="10.00"> </text>
</g>
<!-- Node4&#45;&gt;Node3 -->
<g id="edge2" class="edge"><title>Node4&#45;&gt;Node3</title>
<path fill="none" stroke="#404040" d="M271,-940.404C271,-929.63 271,-916.926 271,-904.623"/>
<polygon fill="none" stroke="#404040" points="271,-904.541 267,-898.541 271,-892.541 275,-898.541 271,-904.541"/>
<text text-anchor="middle" x="283.5" y="-914" font-family="Helvetica,sans-Serif" font-size="10.00"> #text</text>
</g>
<!-- Node5 -->
<g id="node4" class="node"><title>Node5</title>
<g id="a_node4"><a xlink:href="class_character.html" target="_top" xlink:title="Base abstract class for Enemy and Player to inherit from. Defines all shared variables, their constructor and their setters and getters ">
<polygon fill="none" stroke="black" points="413.5,-397.5 413.5,-608.5 508.5,-608.5 508.5,-397.5 413.5,-397.5"/>
<text text-anchor="middle" x="461" y="-596.5" font-family="Helvetica,sans-Serif" font-size="10.00">Character</text>
<polyline fill="none" stroke="black" points="413.5,-589.5 508.5,-589.5 "/>
<text text-anchor="start" x="421.5" y="-577.5" font-family="Helvetica,sans-Serif" font-size="10.00">+ Name</text>
<text text-anchor="start" x="421.5" y="-566.5" font-family="Helvetica,sans-Serif" font-size="10.00">+ Level</text>
<text text-anchor="start" x="421.5" y="-555.5" font-family="Helvetica,sans-Serif" font-size="10.00">+ Health</text>
<text text-anchor="start" x="421.5" y="-544.5" font-family="Helvetica,sans-Serif" font-size="10.00">+ Attack</text>
<text text-anchor="start" x="421.5" y="-533.5" font-family="Helvetica,sans-Serif" font-size="10.00">+ Defence</text>
<text text-anchor="start" x="421.5" y="-522.5" font-family="Helvetica,sans-Serif" font-size="10.00">+ MaximumMagic</text>
<text text-anchor="start" x="421.5" y="-511.5" font-family="Helvetica,sans-Serif" font-size="10.00">+ Magic</text>
<text text-anchor="start" x="421.5" y="-500.5" font-family="Helvetica,sans-Serif" font-size="10.00">+ Luck</text>
<text text-anchor="start" x="421.5" y="-489.5" font-family="Helvetica,sans-Serif" font-size="10.00">+ Speed</text>
<text text-anchor="start" x="421.5" y="-478.5" font-family="Helvetica,sans-Serif" font-size="10.00">+ Rage</text>
<text text-anchor="start" x="421.5" y="-467.5" font-family="Helvetica,sans-Serif" font-size="10.00">+ CanRage</text>
<text text-anchor="start" x="421.5" y="-456.5" font-family="Helvetica,sans-Serif" font-size="10.00">+ Special1</text>
<text text-anchor="start" x="421.5" y="-445.5" font-family="Helvetica,sans-Serif" font-size="10.00">+ Special2</text>
<text text-anchor="start" x="421.5" y="-434.5" font-family="Helvetica,sans-Serif" font-size="10.00">+ Image</text>
<polyline fill="none" stroke="black" points="413.5,-427.5 508.5,-427.5 "/>
<text text-anchor="start" x="421.5" y="-415.5" font-family="Helvetica,sans-Serif" font-size="10.00">+ IsEnraged()</text>
<text text-anchor="start" x="421.5" y="-404.5" font-family="Helvetica,sans-Serif" font-size="10.00"># Character()</text>
</a>
</g>
</g>
<!-- Node4&#45;&gt;Node5 -->
<g id="edge4" class="edge"><title>Node4&#45;&gt;Node5</title>
<path fill="none" stroke="#404040" d="M250.464,-945.121C239.137,-931.102 225.988,-912.208 219,-893 184.575,-798.371 198.074,-760.681 235,-667 263.463,-594.789 345.022,-549.066 401.942,-524.993"/>
<polygon fill="none" stroke="#404040" points="402.227,-524.877 406.261,-518.9 413.33,-520.325 409.296,-526.302 402.227,-524.877"/>
<text text-anchor="middle" x="216.5" y="-787" font-family="Helvetica,sans-Serif" font-size="10.00"> #name</text>
</g>
<!-- Node4&#45;&gt;Node8 -->
<g id="edge9" class="edge"><title>Node4&#45;&gt;Node8</title>
<path fill="none" stroke="#404040" d="M291.58,-950.514C324.864,-921.297 390.827,-859.384 431,-795 435.31,-788.092 439.178,-780.463 442.59,-772.767"/>
<polygon fill="none" stroke="#404040" points="442.658,-772.602 441.264,-765.527 447.259,-761.519 448.653,-768.594 442.658,-772.602"/>
<text text-anchor="middle" x="433" y="-850.5" font-family="Helvetica,sans-Serif" font-size="10.00"> #desc</text>
</g>
<!-- Node10 -->
<g id="node9" class="node"><title>Node10</title>
<g id="a_node9"><a xlink:href="class_battle_manager.html" target="_top" xlink:title="Holds current Player and Enemy objects in battle and provides functions for MainBattle and other obje...">
<polygon fill="none" stroke="black" points="194,-0.5 194,-189.5 310,-189.5 310,-0.5 194,-0.5"/>
<text text-anchor="middle" x="252" y="-177.5" font-family="Helvetica,sans-Serif" font-size="10.00">BattleManager</text>
<polyline fill="none" stroke="black" points="194,-170.5 310,-170.5 "/>
<text text-anchor="start" x="202" y="-158.5" font-family="Helvetica,sans-Serif" font-size="10.00">+ Player</text>
<text text-anchor="start" x="202" y="-147.5" font-family="Helvetica,sans-Serif" font-size="10.00">+ Enemy</text>
<text text-anchor="start" x="202" y="-136.5" font-family="Helvetica,sans-Serif" font-size="10.00">+ WasCriticalHit</text>
<polyline fill="none" stroke="black" points="194,-129.5 310,-129.5 "/>
<text text-anchor="start" x="202" y="-117.5" font-family="Helvetica,sans-Serif" font-size="10.00">+ BattleManager()</text>
<text text-anchor="start" x="202" y="-106.5" font-family="Helvetica,sans-Serif" font-size="10.00">+ playerFirst()</text>
<text text-anchor="start" x="202" y="-95.5" font-family="Helvetica,sans-Serif" font-size="10.00">+ switchPlayers()</text>
<text text-anchor="start" x="202" y="-84.5" font-family="Helvetica,sans-Serif" font-size="10.00">+ isCriticalHit()</text>
<text text-anchor="start" x="202" y="-73.5" font-family="Helvetica,sans-Serif" font-size="10.00">+ ranAway()</text>
<text text-anchor="start" x="202" y="-62.5" font-family="Helvetica,sans-Serif" font-size="10.00">+ damageCalculation()</text>
<text text-anchor="start" x="202" y="-51.5" font-family="Helvetica,sans-Serif" font-size="10.00">+ enemyMove()</text>
<text text-anchor="start" x="202" y="-40.5" font-family="Helvetica,sans-Serif" font-size="10.00">+ enemySpecialMove()</text>
<text text-anchor="start" x="202" y="-29.5" font-family="Helvetica,sans-Serif" font-size="10.00">+ battleWon()</text>
<text text-anchor="start" x="202" y="-18.5" font-family="Helvetica,sans-Serif" font-size="10.00">+ playerFainted()</text>
<text text-anchor="start" x="202" y="-7.5" font-family="Helvetica,sans-Serif" font-size="10.00">&#45; characterFainted()</text>
</a>
</g>
</g>
<!-- Node4&#45;&gt;Node10 -->
<g id="edge13" class="edge"><title>Node4&#45;&gt;Node10</title>
<path fill="none" stroke="#404040" d="M250.185,-968.639C186.727,-969.41 0,-962.464 0,-854 0,-854 0,-854 0,-292.5 0,-199.685 107.625,-144.26 182.205,-116.995"/>
<polygon fill="none" stroke="#404040" points="182.559,-116.87 186.878,-111.095 193.87,-112.86 189.551,-118.635 182.559,-116.87"/>
<text text-anchor="middle" x="42" y="-641" font-family="Helvetica,sans-Serif" font-size="10.00"> +forceEnemyMove</text>
<text text-anchor="middle" x="42" y="-630" font-family="Helvetica,sans-Serif" font-size="10.00">+forceCriticalHits</text>
</g>
<!-- Node13 -->
<g id="node12" class="node"><title>Node13</title>
<g id="a_node12"><a xlink:href="class_item.html" target="_top" xlink:title="Abstract class for items that can be equipped to a player, increasing some of their stats ...">
<polygon fill="none" stroke="black" points="849.5,-671.5 849.5,-761.5 926.5,-761.5 926.5,-671.5 849.5,-671.5"/>
<text text-anchor="middle" x="888" y="-749.5" font-family="Helvetica,sans-Serif" font-size="10.00">Item</text>
<polyline fill="none" stroke="black" points="849.5,-742.5 926.5,-742.5 "/>
<text text-anchor="start" x="857.5" y="-730.5" font-family="Helvetica,sans-Serif" font-size="10.00">+ Name</text>
<text text-anchor="start" x="857.5" y="-719.5" font-family="Helvetica,sans-Serif" font-size="10.00">+ Desc</text>
<text text-anchor="start" x="857.5" y="-708.5" font-family="Helvetica,sans-Serif" font-size="10.00">+ Cost</text>
<polyline fill="none" stroke="black" points="849.5,-701.5 926.5,-701.5 "/>
<text text-anchor="start" x="857.5" y="-689.5" font-family="Helvetica,sans-Serif" font-size="10.00">+ applyBuffs()</text>
<text text-anchor="start" x="857.5" y="-678.5" font-family="Helvetica,sans-Serif" font-size="10.00">+ revertBuffs()</text>
</a>
</g>
</g>
<!-- Node4&#45;&gt;Node13 -->
<g id="edge22" class="edge"><title>Node4&#45;&gt;Node13</title>
<path fill="none" stroke="#404040" d="M291.582,-966.313C372.382,-959.459 667.577,-932.184 752,-893 812.3,-865.012 828.99,-850.881 865,-795 869.291,-788.341 872.808,-780.851 875.684,-773.219"/>
<polygon fill="none" stroke="#404040" points="875.758,-772.997 873.873,-766.036 879.573,-761.619 881.458,-768.579 875.758,-772.997"/>
<text text-anchor="middle" x="867" y="-856" font-family="Helvetica,sans-Serif" font-size="10.00"> #desc</text>
<text text-anchor="middle" x="867" y="-845" font-family="Helvetica,sans-Serif" font-size="10.00">#name</text>
</g>
<!-- Node5&#45;&gt;Node3 -->
<g id="edge3" class="edge"><title>Node5&#45;&gt;Node3</title>
<path fill="none" stroke="#404040" d="M413.417,-524.99C362.519,-550.374 284.592,-598.402 251,-667 230.334,-709.201 239.609,-763.169 251.472,-801.909"/>
<polygon fill="none" stroke="#404040" points="251.501,-802 257.158,-806.472 255.207,-813.413 249.549,-808.942 251.501,-802"/>
<text text-anchor="middle" x="268" y="-719.5" font-family="Helvetica,sans-Serif" font-size="10.00"> #target</text>
<text text-anchor="middle" x="268" y="-708.5" font-family="Helvetica,sans-Serif" font-size="10.00">#user</text>
</g>
<!-- Node11 -->
<g id="node10" class="node"><title>Node11</title>
<g id="a_node10"><a xlink:href="class_enemy.html" target="_top" xlink:title="Defines an AI controller enemy to fight in battle scenes">
<polygon fill="none" stroke="black" points="427.5,-265 427.5,-322 494.5,-322 494.5,-265 427.5,-265"/>
<text text-anchor="middle" x="461" y="-310" font-family="Helvetica,sans-Serif" font-size="10.00">Enemy</text>
<polyline fill="none" stroke="black" points="427.5,-303 494.5,-303 "/>
<text text-anchor="start" x="435.5" y="-291" font-family="Helvetica,sans-Serif" font-size="10.00">+ ExpGiven</text>
<polyline fill="none" stroke="black" points="427.5,-284 494.5,-284 "/>
<text text-anchor="start" x="435.5" y="-272" font-family="Helvetica,sans-Serif" font-size="10.00">+ Enemy()</text>
</a>
</g>
</g>
<!-- Node5&#45;&gt;Node11 -->
<g id="edge15" class="edge"><title>Node5&#45;&gt;Node11</title>
<path fill="none" stroke="midnightblue" d="M461,-387.257C461,-362.946 461,-339.449 461,-322.187"/>
<polygon fill="none" stroke="midnightblue" points="457.5,-387.338 461,-397.338 464.5,-387.338 457.5,-387.338"/>
</g>
<!-- Node12 -->
<g id="node11" class="node"><title>Node12</title>
<g id="a_node11"><a xlink:href="class_player.html" target="_top" xlink:title="Defines a playable character for use in battle scenes">
<polygon fill="none" stroke="black" points="780,-237.5 780,-349.5 892,-349.5 892,-237.5 780,-237.5"/>
<text text-anchor="middle" x="836" y="-337.5" font-family="Helvetica,sans-Serif" font-size="10.00">Player</text>
<polyline fill="none" stroke="black" points="780,-330.5 892,-330.5 "/>
<text text-anchor="start" x="788" y="-318.5" font-family="Helvetica,sans-Serif" font-size="10.00">+ Exp</text>
<text text-anchor="start" x="788" y="-307.5" font-family="Helvetica,sans-Serif" font-size="10.00">+ Item</text>
<text text-anchor="start" x="788" y="-296.5" font-family="Helvetica,sans-Serif" font-size="10.00">+ ExpToNextLevel</text>
<polyline fill="none" stroke="black" points="780,-289.5 892,-289.5 "/>
<text text-anchor="start" x="788" y="-277.5" font-family="Helvetica,sans-Serif" font-size="10.00">+ Player()</text>
<text text-anchor="start" x="788" y="-266.5" font-family="Helvetica,sans-Serif" font-size="10.00">+ gainExp()</text>
<text text-anchor="start" x="788" y="-255.5" font-family="Helvetica,sans-Serif" font-size="10.00">+ levelUp()</text>
<text text-anchor="start" x="788" y="-244.5" font-family="Helvetica,sans-Serif" font-size="10.00">&#45; setExpToNextLevel()</text>
</a>
</g>
</g>
<!-- Node5&#45;&gt;Node12 -->
<g id="edge20" class="edge"><title>Node5&#45;&gt;Node12</title>
<path fill="none" stroke="midnightblue" d="M517.691,-470.631C588.591,-431.4 709.223,-364.65 779.863,-325.563"/>
<polygon fill="none" stroke="midnightblue" points="515.93,-467.605 508.875,-475.509 519.319,-473.73 515.93,-467.605"/>
</g>
<!-- Node6 -->
<g id="node5" class="node"><title>Node6</title>
<polygon fill="none" stroke="#bfbfbf" points="714.5,-824.5 714.5,-881.5 743.5,-881.5 743.5,-824.5 714.5,-824.5"/>
<text text-anchor="middle" x="729" y="-869.5" font-family="Helvetica,sans-Serif" font-size="10.00">int</text>
<polyline fill="none" stroke="#bfbfbf" points="714.5,-862.5 743.5,-862.5 "/>
<text text-anchor="middle" x="729" y="-850.5" font-family="Helvetica,sans-Serif" font-size="10.00"> </text>
<polyline fill="none" stroke="#bfbfbf" points="714.5,-843.5 743.5,-843.5 "/>
<text text-anchor="middle" x="729" y="-831.5" font-family="Helvetica,sans-Serif" font-size="10.00"> </text>
</g>
<!-- Node6&#45;&gt;Node2 -->
<g id="edge25" class="edge"><title>Node6&#45;&gt;Node2</title>
<path fill="none" stroke="#404040" d="M714.222,-850.393C666.661,-844.756 514.189,-823.045 403,-766 398.421,-763.651 393.874,-760.899 389.455,-757.921"/>
<polygon fill="none" stroke="#404040" points="389.136,-757.689 381.93,-757.404 379.421,-750.644 386.627,-750.928 389.136,-757.689"/>
<text text-anchor="middle" x="479.5" y="-787" font-family="Helvetica,sans-Serif" font-size="10.00"> +power</text>
</g>
<!-- Node6&#45;&gt;Node5 -->
<g id="edge5" class="edge"><title>Node6&#45;&gt;Node5</title>
<path fill="none" stroke="#404040" d="M714.302,-840.928C695.062,-825.801 661.29,-796.994 640,-766 612.938,-726.603 622.174,-708.232 598,-667 586.624,-647.597 581.235,-644.414 567,-627 550.901,-607.306 532.981,-586.214 516.525,-567.156"/>
<polygon fill="none" stroke="#404040" points="516.434,-567.05 509.482,-565.133 508.578,-557.979 515.53,-559.896 516.434,-567.05"/>
<text text-anchor="middle" x="677.5" y="-758" font-family="Helvetica,sans-Serif" font-size="10.00"> #speed</text>
<text text-anchor="middle" x="677.5" y="-747" font-family="Helvetica,sans-Serif" font-size="10.00">#luck</text>
<text text-anchor="middle" x="677.5" y="-736" font-family="Helvetica,sans-Serif" font-size="10.00">#health</text>
<text text-anchor="middle" x="677.5" y="-725" font-family="Helvetica,sans-Serif" font-size="10.00">#magic</text>
<text text-anchor="middle" x="677.5" y="-714" font-family="Helvetica,sans-Serif" font-size="10.00">#maximumMagic</text>
<text text-anchor="middle" x="677.5" y="-703" font-family="Helvetica,sans-Serif" font-size="10.00">#attack</text>
<text text-anchor="middle" x="677.5" y="-692" font-family="Helvetica,sans-Serif" font-size="10.00">#defence</text>
<text text-anchor="middle" x="677.5" y="-681" font-family="Helvetica,sans-Serif" font-size="10.00">#level</text>
<text text-anchor="middle" x="677.5" y="-670" font-family="Helvetica,sans-Serif" font-size="10.00">#rage</text>
</g>
<!-- Node6&#45;&gt;Node8 -->
<g id="edge10" class="edge"><title>Node6&#45;&gt;Node8</title>
<path fill="none" stroke="#404040" d="M714.326,-848.104C680.345,-838.669 594.122,-812.345 520.398,-766.44"/>
<polygon fill="none" stroke="#404040" points="520.188,-766.306 512.979,-766.438 510.084,-759.833 517.294,-759.701 520.188,-766.306"/>
<text text-anchor="middle" x="585.5" y="-787" font-family="Helvetica,sans-Serif" font-size="10.00"> #magic</text>
</g>
<!-- Node6&#45;&gt;Node10 -->
<g id="edge17" class="edge"><title>Node6&#45;&gt;Node10</title>
<path fill="none" stroke="#404040" d="M739.384,-824.245C742.381,-815.064 745.298,-804.711 747,-795 759.896,-721.407 772.126,-699.225 753,-627 700.295,-427.972 657.576,-373.002 503,-237 448.349,-188.916 374.643,-149.907 321.251,-125.21"/>
<polygon fill="none" stroke="#404040" points="321.098,-125.14 313.979,-126.289 310.18,-120.159 317.299,-119.011 321.098,-125.14"/>
<text text-anchor="middle" x="767.5" y="-500.5" font-family="Helvetica,sans-Serif" font-size="10.00"> +money</text>
</g>
<!-- Node6&#45;&gt;Node11 -->
<g id="edge16" class="edge"><title>Node6&#45;&gt;Node11</title>
<path fill="none" stroke="#404040" d="M731.262,-824.451C733.335,-787.497 733.691,-720.349 715,-667 701.927,-629.688 551.285,-419.259 488.358,-332.203"/>
<polygon fill="none" stroke="#404040" points="488.168,-331.94 481.41,-329.424 481.134,-322.218 487.891,-324.734 488.168,-331.94"/>
<text text-anchor="middle" x="729" y="-635.5" font-family="Helvetica,sans-Serif" font-size="10.00"> &#45;expGiven</text>
</g>
<!-- Node6&#45;&gt;Node12 -->
<g id="edge24" class="edge"><title>Node6&#45;&gt;Node12</title>
<path fill="none" stroke="#404040" d="M739.87,-824.17C742.177,-820.147 744.879,-816.268 748,-813 759.539,-800.918 771.699,-808.878 781,-795 792.89,-777.26 818.683,-494.882 830.22,-362.286"/>
<polygon fill="none" stroke="#404040" points="830.254,-361.891 826.787,-355.567 831.291,-349.936 834.757,-356.259 830.254,-361.891"/>
<text text-anchor="middle" x="842.5" y="-641" font-family="Helvetica,sans-Serif" font-size="10.00"> &#45;expToNextLevel</text>
<text text-anchor="middle" x="842.5" y="-630" font-family="Helvetica,sans-Serif" font-size="10.00">&#45;exp</text>
</g>
<!-- Node6&#45;&gt;Node13 -->
<g id="edge23" class="edge"><title>Node6&#45;&gt;Node13</title>
<path fill="none" stroke="#404040" d="M743.663,-845.023C763.032,-835.397 797.649,-816.745 823,-795 831.418,-787.779 839.639,-779.404 847.247,-770.884"/>
<polygon fill="none" stroke="#404040" points="847.397,-770.71 848.293,-763.555 855.243,-761.63 854.347,-768.785 847.397,-770.71"/>
<text text-anchor="middle" x="847" y="-787" font-family="Helvetica,sans-Serif" font-size="10.00"> #cost</text>
</g>
<!-- Node7 -->
<g id="node6" class="node"><title>Node7</title>
<polygon fill="none" stroke="#bfbfbf" points="130.5,-688 130.5,-745 165.5,-745 165.5,-688 130.5,-688"/>
<text text-anchor="middle" x="148" y="-733" font-family="Helvetica,sans-Serif" font-size="10.00">bool</text>
<polyline fill="none" stroke="#bfbfbf" points="130.5,-726 165.5,-726 "/>
<text text-anchor="middle" x="148" y="-714" font-family="Helvetica,sans-Serif" font-size="10.00"> </text>
<polyline fill="none" stroke="#bfbfbf" points="130.5,-707 165.5,-707 "/>
<text text-anchor="middle" x="148" y="-695" font-family="Helvetica,sans-Serif" font-size="10.00"> </text>
</g>
<!-- Node7&#45;&gt;Node5 -->
<g id="edge6" class="edge"><title>Node7&#45;&gt;Node5</title>
<path fill="none" stroke="#404040" d="M144.219,-687.671C143.181,-668.744 145.013,-644.125 158,-627 165.81,-616.702 315.87,-558.801 401.822,-526.242"/>
<polygon fill="none" stroke="#404040" points="402.024,-526.166 406.221,-520.302 413.248,-521.92 409.051,-527.784 402.024,-526.166"/>
<text text-anchor="middle" x="181.5" y="-635.5" font-family="Helvetica,sans-Serif" font-size="10.00"> #canRage</text>
</g>
<!-- Node7&#45;&gt;Node10 -->
<g id="edge18" class="edge"><title>Node7&#45;&gt;Node10</title>
<path fill="none" stroke="#404040" d="M144.204,-687.878C142.425,-670.364 141.237,-647.268 144,-627 145.121,-618.773 147.07,-617.076 149,-609 182.456,-468.983 213.962,-305.73 233.111,-201.665"/>
<polygon fill="none" stroke="#404040" points="233.161,-201.391 230.31,-194.768 235.327,-189.588 238.178,-196.211 233.161,-201.391"/>
<text text-anchor="middle" x="234" y="-371" font-family="Helvetica,sans-Serif" font-size="10.00"> &#45;wasCriticalHit</text>
</g>
<!-- Node8&#45;&gt;Node5 -->
<g id="edge7" class="edge"><title>Node8&#45;&gt;Node5</title>
<path fill="none" stroke="#404040" d="M461,-671.42C461,-656.397 461,-638.821 461,-620.813"/>
<polygon fill="none" stroke="#404040" points="461,-620.622 457,-614.622 461,-608.622 465,-614.622 461,-620.622"/>
<text text-anchor="middle" x="483.5" y="-641" font-family="Helvetica,sans-Serif" font-size="10.00"> #special1</text>
<text text-anchor="middle" x="483.5" y="-630" font-family="Helvetica,sans-Serif" font-size="10.00">#special2</text>
</g>
<!-- Node9 -->
<g id="node8" class="node"><title>Node9</title>
<polygon fill="none" stroke="#bfbfbf" points="528.5,-688 528.5,-745 589.5,-745 589.5,-688 528.5,-688"/>
<text text-anchor="middle" x="559" y="-733" font-family="Helvetica,sans-Serif" font-size="10.00">Texture2D</text>
<polyline fill="none" stroke="#bfbfbf" points="528.5,-726 589.5,-726 "/>
<text text-anchor="middle" x="559" y="-714" font-family="Helvetica,sans-Serif" font-size="10.00"> </text>
<polyline fill="none" stroke="#bfbfbf" points="528.5,-707 589.5,-707 "/>
<text text-anchor="middle" x="559" y="-695" font-family="Helvetica,sans-Serif" font-size="10.00"> </text>
</g>
<!-- Node9&#45;&gt;Node5 -->
<g id="edge11" class="edge"><title>Node9&#45;&gt;Node5</title>
<path fill="none" stroke="#404040" d="M546.188,-687.85C537.699,-669.529 525.935,-644.141 513.857,-618.074"/>
<polygon fill="none" stroke="#404040" points="513.715,-617.768 507.563,-614.005 508.67,-606.88 514.822,-610.642 513.715,-617.768"/>
<text text-anchor="middle" x="545.5" y="-635.5" font-family="Helvetica,sans-Serif" font-size="10.00"> #image</text>
</g>
<!-- Node10&#45;&gt;Node3 -->
<g id="edge12" class="edge"><title>Node10&#45;&gt;Node3</title>
<path fill="none" stroke="#404040" d="M193.721,-136.884C150.483,-172.457 99,-228.294 99,-292.5 99,-717.5 99,-717.5 99,-717.5 99,-777.988 165.827,-815.327 216.172,-834.873"/>
<polygon fill="none" stroke="#404040" points="216.349,-834.939 223.367,-833.28 227.597,-839.119 220.579,-840.779 216.349,-834.939"/>
<text text-anchor="middle" x="122" y="-500.5" font-family="Helvetica,sans-Serif" font-size="10.00"> #manager</text>
</g>
<!-- Node11&#45;&gt;Node10 -->
<g id="edge14" class="edge"><title>Node11&#45;&gt;Node10</title>
<path fill="none" stroke="#404040" d="M431.499,-264.763C402.435,-237.438 357.013,-194.733 319.135,-159.119"/>
<polygon fill="none" stroke="#404040" points="318.925,-158.922 311.814,-157.727 310.182,-150.703 317.294,-151.898 318.925,-158.922"/>
<text text-anchor="middle" x="400" y="-211" font-family="Helvetica,sans-Serif" font-size="10.00"> &#45;enemy</text>
</g>
<!-- Node12&#45;&gt;Node10 -->
<g id="edge19" class="edge"><title>Node12&#45;&gt;Node10</title>
<path fill="none" stroke="#404040" d="M799.188,-237.085C789.561,-226.033 778.367,-215.527 766,-208 624.873,-122.102 426.543,-101.676 322.32,-97.0837"/>
<polygon fill="none" stroke="#404040" points="322.077,-97.0741 315.924,-100.833 310.087,-96.5988 316.24,-92.8396 322.077,-97.0741"/>
<text text-anchor="middle" x="797.5" y="-211" font-family="Helvetica,sans-Serif" font-size="10.00"> &#45;player</text>
</g>
<!-- Node13&#45;&gt;Node12 -->
<g id="edge21" class="edge"><title>Node13&#45;&gt;Node12</title>
<path fill="none" stroke="#404040" d="M889.345,-671.332C889.416,-657.156 889.119,-641.399 888,-627 880.808,-534.46 862.517,-428.73 849.672,-361.817"/>
<polygon fill="none" stroke="#404040" points="849.624,-361.567 844.556,-356.438 847.341,-349.786 852.409,-354.916 849.624,-361.567"/>
<text text-anchor="middle" x="898.5" y="-500.5" font-family="Helvetica,sans-Serif" font-size="10.00"> &#45;item</text>
</g>
</g>
</svg>
