<?xml version="1.0" encoding="UTF-8" standalone="no"?>
<!DOCTYPE svg PUBLIC "-//W3C//DTD SVG 1.1//EN"
 "http://www.w3.org/Graphics/SVG/1.1/DTD/svg11.dtd">
<!-- Generated by graphviz version 2.38.0 (20140413.2041)
 -->
<!-- Title: PlayerMenu Pages: 1 -->
<!--zoomable 1243 -->
<svg id="main" version="1.1" xmlns="http://www.w3.org/2000/svg" xmlns:xlink="http://www.w3.org/1999/xlink" xml:space="preserve" onload="init(evt)">
<style type="text/css"><![CDATA[
.edge:hover path { stroke: red; }
.edge:hover polygon { stroke: red; fill: red; }
]]></style>
<script type="text/javascript"><![CDATA[
var edges = document.getElementsByTagName('g');
if (edges && edges.length) {
  for (var i=0;i<edges.length;i++) {
    if (edges[i].id.substr(0,4)=='edge') {
      edges[i].setAttribute('class','edge');
    }
  }
}
]]></script>
        <defs>
                <circle id="rim" cx="0" cy="0" r="7"/>
                <circle id="rim2" cx="0" cy="0" r="3.5"/>
                <g id="zoomPlus">
                        <use xlink:href="#rim" fill="#404040">
                                <set attributeName="fill" to="#808080" begin="zoomplus.mouseover" end="zoomplus.mouseout"/>
                        </use>
                        <path d="M-4,0h8M0,-4v8" fill="none" stroke="white" stroke-width="1.5" pointer-events="none"/>
                </g>
                <g id="zoomMin">
                        <use xlink:href="#rim" fill="#404040">
                                <set attributeName="fill" to="#808080" begin="zoomminus.mouseover" end="zoomminus.mouseout"/>
                        </use>
                        <path d="M-4,0h8" fill="none" stroke="white" stroke-width="1.5" pointer-events="none"/>
                </g>
                <g id="dirArrow">
                        <path fill="none" stroke="white" stroke-width="1.5" d="M0,-3.0v7 M-2.5,-0.5L0,-3.0L2.5,-0.5"/>
                </g>
               <g id="resetDef">
                       <use xlink:href="#rim2" fill="#404040">
                               <set attributeName="fill" to="#808080" begin="reset.mouseover" end="reset.mouseout"/>
                       </use>
               </g>
        </defs>

<script type="text/javascript">
var viewWidth = 843;
var viewHeight = 1243;
var sectionId = 'dynsection-1';
</script>
<script xlink:href="svgpan.js"/>
<svg id="graph" class="graph">
<g id="viewport">
<title>PlayerMenu</title>
<!-- Node2 -->
<g id="node1" class="node"><title>Node2</title>
<polygon fill="#bfbfbf" stroke="black" points="81.5,-675.5 81.5,-754.5 169.5,-754.5 169.5,-675.5 81.5,-675.5"/>
<text text-anchor="middle" x="125.5" y="-742.5" font-family="Helvetica,sans-Serif" font-size="10.00">PlayerMenu</text>
<polyline fill="none" stroke="black" points="81.5,-735.5 169.5,-735.5 "/>
<text text-anchor="middle" x="125.5" y="-723.5" font-family="Helvetica,sans-Serif" font-size="10.00"> </text>
<polyline fill="none" stroke="black" points="81.5,-716.5 169.5,-716.5 "/>
<text text-anchor="start" x="89.5" y="-704.5" font-family="Helvetica,sans-Serif" font-size="10.00">+ OnItemPlace()</text>
<text text-anchor="start" x="89.5" y="-693.5" font-family="Helvetica,sans-Serif" font-size="10.00">+ back()</text>
<text text-anchor="start" x="89.5" y="-682.5" font-family="Helvetica,sans-Serif" font-size="10.00">&#45; Start()</text>
</g>
<!-- Node3 -->
<g id="node2" class="node"><title>Node3</title>
<g id="a_node2"><a xlink:href="class_mono_behaviour.html" target="_top" xlink:title="{MonoBehaviour\n||}">
<polygon fill="none" stroke="black" points="89,-885 89,-942 172,-942 172,-885 89,-885"/>
<text text-anchor="middle" x="130.5" y="-930" font-family="Helvetica,sans-Serif" font-size="10.00">MonoBehaviour</text>
<polyline fill="none" stroke="black" points="89,-923 172,-923 "/>
<text text-anchor="middle" x="130.5" y="-911" font-family="Helvetica,sans-Serif" font-size="10.00"> </text>
<polyline fill="none" stroke="black" points="89,-904 172,-904 "/>
<text text-anchor="middle" x="130.5" y="-892" font-family="Helvetica,sans-Serif" font-size="10.00"> </text>
</a>
</g>
</g>
<!-- Node3&#45;&gt;Node2 -->
<g id="edge1" class="edge"><title>Node3&#45;&gt;Node2</title>
<path fill="none" stroke="midnightblue" d="M129.536,-874.621C128.659,-840.153 127.37,-789.497 126.486,-754.757"/>
<polygon fill="none" stroke="midnightblue" points="126.041,-874.855 129.794,-884.763 133.039,-874.677 126.041,-874.855"/>
</g>
<!-- Node4 -->
<g id="node3" class="node"><title>Node4</title>
<polygon fill="none" stroke="#bfbfbf" points="0,-885 0,-942 71,-942 71,-885 0,-885"/>
<text text-anchor="middle" x="35.5" y="-930" font-family="Helvetica,sans-Serif" font-size="10.00">GameObject</text>
<polyline fill="none" stroke="#bfbfbf" points="0,-923 71,-923 "/>
<text text-anchor="middle" x="35.5" y="-911" font-family="Helvetica,sans-Serif" font-size="10.00"> </text>
<polyline fill="none" stroke="#bfbfbf" points="0,-904 71,-904 "/>
<text text-anchor="middle" x="35.5" y="-892" font-family="Helvetica,sans-Serif" font-size="10.00"> </text>
</g>
<!-- Node4&#45;&gt;Node2 -->
<g id="edge2" class="edge"><title>Node4&#45;&gt;Node2</title>
<path fill="none" stroke="#404040" d="M48.2039,-884.763C62.2996,-853.988 85.3306,-803.703 102.593,-766.014"/>
<polygon fill="none" stroke="#404040" points="102.752,-765.667 101.613,-758.546 107.749,-754.757 108.887,-761.878 102.752,-765.667"/>
<text text-anchor="middle" x="89" y="-831" font-family="Helvetica,sans-Serif" font-size="10.00"> &#45;player</text>
</g>
<!-- Node5 -->
<g id="node4" class="node"><title>Node5</title>
<g id="a_node4"><a xlink:href="class_player.html" target="_top" xlink:title="Defines a playable character for use in battle scenes">
<polygon fill="none" stroke="black" points="381.5,-857.5 381.5,-969.5 493.5,-969.5 493.5,-857.5 381.5,-857.5"/>
<text text-anchor="middle" x="437.5" y="-957.5" font-family="Helvetica,sans-Serif" font-size="10.00">Player</text>
<polyline fill="none" stroke="black" points="381.5,-950.5 493.5,-950.5 "/>
<text text-anchor="start" x="389.5" y="-938.5" font-family="Helvetica,sans-Serif" font-size="10.00">+ Exp</text>
<text text-anchor="start" x="389.5" y="-927.5" font-family="Helvetica,sans-Serif" font-size="10.00">+ Item</text>
<text text-anchor="start" x="389.5" y="-916.5" font-family="Helvetica,sans-Serif" font-size="10.00">+ ExpToNextLevel</text>
<polyline fill="none" stroke="black" points="381.5,-909.5 493.5,-909.5 "/>
<text text-anchor="start" x="389.5" y="-897.5" font-family="Helvetica,sans-Serif" font-size="10.00">+ Player()</text>
<text text-anchor="start" x="389.5" y="-886.5" font-family="Helvetica,sans-Serif" font-size="10.00">+ gainExp()</text>
<text text-anchor="start" x="389.5" y="-875.5" font-family="Helvetica,sans-Serif" font-size="10.00">+ levelUp()</text>
<text text-anchor="start" x="389.5" y="-864.5" font-family="Helvetica,sans-Serif" font-size="10.00">&#45; setExpToNextLevel()</text>
</a>
</g>
</g>
<!-- Node5&#45;&gt;Node2 -->
<g id="edge3" class="edge"><title>Node5&#45;&gt;Node2</title>
<path fill="none" stroke="#404040" d="M387.509,-857.36C374.319,-845.868 359.314,-835.102 343.5,-828 278.222,-798.682 243.939,-848.314 183.5,-810 166.893,-799.472 154.284,-782.297 145.135,-765.489"/>
<polygon fill="none" stroke="#404040" points="145.03,-765.28 138.753,-761.73 139.616,-754.57 145.892,-758.12 145.03,-765.28"/>
<text text-anchor="middle" x="381.5" y="-831" font-family="Helvetica,sans-Serif" font-size="10.00"> &#45;players</text>
</g>
<!-- Node12 -->
<g id="node11" class="node"><title>Node12</title>
<g id="a_node11"><a xlink:href="class_battle_manager.html" target="_top" xlink:title="Holds current Player and Enemy objects in battle and provides functions for MainBattle and other obje...">
<polygon fill="none" stroke="black" points="478.5,-620.5 478.5,-809.5 594.5,-809.5 594.5,-620.5 478.5,-620.5"/>
<text text-anchor="middle" x="536.5" y="-797.5" font-family="Helvetica,sans-Serif" font-size="10.00">BattleManager</text>
<polyline fill="none" stroke="black" points="478.5,-790.5 594.5,-790.5 "/>
<text text-anchor="start" x="486.5" y="-778.5" font-family="Helvetica,sans-Serif" font-size="10.00">+ Player</text>
<text text-anchor="start" x="486.5" y="-767.5" font-family="Helvetica,sans-Serif" font-size="10.00">+ Enemy</text>
<text text-anchor="start" x="486.5" y="-756.5" font-family="Helvetica,sans-Serif" font-size="10.00">+ WasCriticalHit</text>
<polyline fill="none" stroke="black" points="478.5,-749.5 594.5,-749.5 "/>
<text text-anchor="start" x="486.5" y="-737.5" font-family="Helvetica,sans-Serif" font-size="10.00">+ BattleManager()</text>
<text text-anchor="start" x="486.5" y="-726.5" font-family="Helvetica,sans-Serif" font-size="10.00">+ playerFirst()</text>
<text text-anchor="start" x="486.5" y="-715.5" font-family="Helvetica,sans-Serif" font-size="10.00">+ switchPlayers()</text>
<text text-anchor="start" x="486.5" y="-704.5" font-family="Helvetica,sans-Serif" font-size="10.00">+ isCriticalHit()</text>
<text text-anchor="start" x="486.5" y="-693.5" font-family="Helvetica,sans-Serif" font-size="10.00">+ ranAway()</text>
<text text-anchor="start" x="486.5" y="-682.5" font-family="Helvetica,sans-Serif" font-size="10.00">+ damageCalculation()</text>
<text text-anchor="start" x="486.5" y="-671.5" font-family="Helvetica,sans-Serif" font-size="10.00">+ enemyMove()</text>
<text text-anchor="start" x="486.5" y="-660.5" font-family="Helvetica,sans-Serif" font-size="10.00">+ enemySpecialMove()</text>
<text text-anchor="start" x="486.5" y="-649.5" font-family="Helvetica,sans-Serif" font-size="10.00">+ battleWon()</text>
<text text-anchor="start" x="486.5" y="-638.5" font-family="Helvetica,sans-Serif" font-size="10.00">+ playerFainted()</text>
<text text-anchor="start" x="486.5" y="-627.5" font-family="Helvetica,sans-Serif" font-size="10.00">&#45; characterFainted()</text>
</a>
</g>
</g>
<!-- Node5&#45;&gt;Node12 -->
<g id="edge19" class="edge"><title>Node5&#45;&gt;Node12</title>
<path fill="none" stroke="#404040" d="M460.851,-857.16C465.231,-847.372 469.887,-837.332 474.5,-828 475.7,-825.572 476.927,-823.121 478.175,-820.655"/>
<polygon fill="none" stroke="#404040" points="478.282,-820.447 477.465,-813.282 483.764,-809.772 484.581,-816.936 478.282,-820.447"/>
<text text-anchor="middle" x="491" y="-831" font-family="Helvetica,sans-Serif" font-size="10.00"> &#45;player</text>
</g>
<!-- Node6 -->
<g id="node5" class="node"><title>Node6</title>
<g id="a_node5"><a xlink:href="class_character.html" target="_top" xlink:title="Base abstract class for Enemy and Player to inherit from. Defines all shared variables, their constructor and their setters and getters ">
<polygon fill="none" stroke="black" points="368,-95.5 368,-306.5 463,-306.5 463,-95.5 368,-95.5"/>
<text text-anchor="middle" x="415.5" y="-294.5" font-family="Helvetica,sans-Serif" font-size="10.00">Character</text>
<polyline fill="none" stroke="black" points="368,-287.5 463,-287.5 "/>
<text text-anchor="start" x="376" y="-275.5" font-family="Helvetica,sans-Serif" font-size="10.00">+ Name</text>
<text text-anchor="start" x="376" y="-264.5" font-family="Helvetica,sans-Serif" font-size="10.00">+ Level</text>
<text text-anchor="start" x="376" y="-253.5" font-family="Helvetica,sans-Serif" font-size="10.00">+ Health</text>
<text text-anchor="start" x="376" y="-242.5" font-family="Helvetica,sans-Serif" font-size="10.00">+ Attack</text>
<text text-anchor="start" x="376" y="-231.5" font-family="Helvetica,sans-Serif" font-size="10.00">+ Defence</text>
<text text-anchor="start" x="376" y="-220.5" font-family="Helvetica,sans-Serif" font-size="10.00">+ MaximumMagic</text>
<text text-anchor="start" x="376" y="-209.5" font-family="Helvetica,sans-Serif" font-size="10.00">+ Magic</text>
<text text-anchor="start" x="376" y="-198.5" font-family="Helvetica,sans-Serif" font-size="10.00">+ Luck</text>
<text text-anchor="start" x="376" y="-187.5" font-family="Helvetica,sans-Serif" font-size="10.00">+ Speed</text>
<text text-anchor="start" x="376" y="-176.5" font-family="Helvetica,sans-Serif" font-size="10.00">+ Rage</text>
<text text-anchor="start" x="376" y="-165.5" font-family="Helvetica,sans-Serif" font-size="10.00">+ CanRage</text>
<text text-anchor="start" x="376" y="-154.5" font-family="Helvetica,sans-Serif" font-size="10.00">+ Special1</text>
<text text-anchor="start" x="376" y="-143.5" font-family="Helvetica,sans-Serif" font-size="10.00">+ Special2</text>
<text text-anchor="start" x="376" y="-132.5" font-family="Helvetica,sans-Serif" font-size="10.00">+ Image</text>
<polyline fill="none" stroke="black" points="368,-125.5 463,-125.5 "/>
<text text-anchor="start" x="376" y="-113.5" font-family="Helvetica,sans-Serif" font-size="10.00">+ IsEnraged()</text>
<text text-anchor="start" x="376" y="-102.5" font-family="Helvetica,sans-Serif" font-size="10.00"># Character()</text>
</a>
</g>
</g>
<!-- Node6&#45;&gt;Node5 -->
<g id="edge4" class="edge"><title>Node6&#45;&gt;Node5</title>
<path fill="none" stroke="midnightblue" d="M428.842,-316.705C430.324,-332.9 431.615,-349.356 432.5,-365 442.677,-544.844 440.527,-758.435 438.723,-857.267"/>
<polygon fill="none" stroke="midnightblue" points="432.319,-316.293 427.897,-306.665 425.35,-316.949 432.319,-316.293"/>
</g>
<!-- Node11 -->
<g id="node10" class="node"><title>Node11</title>
<g id="a_node10"><a xlink:href="class_character_move.html" target="_top" xlink:title="Astract base class for character moves ">
<polygon fill="none" stroke="black" points="332.5,-493.5 332.5,-572.5 418.5,-572.5 418.5,-493.5 332.5,-493.5"/>
<text text-anchor="middle" x="375.5" y="-560.5" font-family="Helvetica,sans-Serif" font-size="10.00">CharacterMove</text>
<polyline fill="none" stroke="black" points="332.5,-553.5 418.5,-553.5 "/>
<text text-anchor="start" x="340.5" y="-541.5" font-family="Helvetica,sans-Serif" font-size="10.00">+ User</text>
<text text-anchor="start" x="340.5" y="-530.5" font-family="Helvetica,sans-Serif" font-size="10.00">+ Target</text>
<text text-anchor="start" x="340.5" y="-519.5" font-family="Helvetica,sans-Serif" font-size="10.00">+ Text</text>
<polyline fill="none" stroke="black" points="332.5,-512.5 418.5,-512.5 "/>
<text text-anchor="start" x="340.5" y="-500.5" font-family="Helvetica,sans-Serif" font-size="10.00">+ performMove()</text>
</a>
</g>
</g>
<!-- Node6&#45;&gt;Node11 -->
<g id="edge11" class="edge"><title>Node6&#45;&gt;Node11</title>
<path fill="none" stroke="#404040" d="M402.794,-306.821C395.725,-365.145 387.246,-435.094 381.635,-481.389"/>
<polygon fill="none" stroke="#404040" points="381.611,-481.586 384.86,-488.024 380.167,-493.499 376.918,-487.061 381.611,-481.586"/>
<text text-anchor="middle" x="412.5" y="-413.5" font-family="Helvetica,sans-Serif" font-size="10.00"> #target</text>
<text text-anchor="middle" x="412.5" y="-402.5" font-family="Helvetica,sans-Serif" font-size="10.00">#user</text>
</g>
<!-- Node13 -->
<g id="node12" class="node"><title>Node13</title>
<g id="a_node12"><a xlink:href="class_enemy.html" target="_top" xlink:title="Defines an AI controller enemy to fight in battle scenes">
<polygon fill="none" stroke="black" points="588,-0.5 588,-57.5 655,-57.5 655,-0.5 588,-0.5"/>
<text text-anchor="middle" x="621.5" y="-45.5" font-family="Helvetica,sans-Serif" font-size="10.00">Enemy</text>
<polyline fill="none" stroke="black" points="588,-38.5 655,-38.5 "/>
<text text-anchor="start" x="596" y="-26.5" font-family="Helvetica,sans-Serif" font-size="10.00">+ ExpGiven</text>
<polyline fill="none" stroke="black" points="588,-19.5 655,-19.5 "/>
<text text-anchor="start" x="596" y="-7.5" font-family="Helvetica,sans-Serif" font-size="10.00">+ Enemy()</text>
</a>
</g>
</g>
<!-- Node6&#45;&gt;Node13 -->
<g id="edge15" class="edge"><title>Node6&#45;&gt;Node13</title>
<path fill="none" stroke="midnightblue" d="M470.824,-154.344C508.212,-123.49 556.352,-83.763 588.031,-57.62"/>
<polygon fill="none" stroke="midnightblue" points="468.504,-151.721 463.019,-160.785 472.96,-157.12 468.504,-151.721"/>
</g>
<!-- Node7 -->
<g id="node6" class="node"><title>Node7</title>
<polygon fill="none" stroke="#bfbfbf" points="278,-1177.5 278,-1234.5 319,-1234.5 319,-1177.5 278,-1177.5"/>
<text text-anchor="middle" x="298.5" y="-1222.5" font-family="Helvetica,sans-Serif" font-size="10.00">string</text>
<polyline fill="none" stroke="#bfbfbf" points="278,-1215.5 319,-1215.5 "/>
<text text-anchor="middle" x="298.5" y="-1203.5" font-family="Helvetica,sans-Serif" font-size="10.00"> </text>
<polyline fill="none" stroke="#bfbfbf" points="278,-1196.5 319,-1196.5 "/>
<text text-anchor="middle" x="298.5" y="-1184.5" font-family="Helvetica,sans-Serif" font-size="10.00"> </text>
</g>
<!-- Node7&#45;&gt;Node6 -->
<g id="edge5" class="edge"><title>Node7&#45;&gt;Node6</title>
<path fill="none" stroke="#404040" d="M277.86,-1189.83C250.462,-1167.77 205.5,-1124.02 205.5,-1074.5 205.5,-1074.5 205.5,-1074.5 205.5,-409.5 205.5,-323.919 294.839,-261.702 356.975,-228.779"/>
<polygon fill="none" stroke="#404040" points="357.184,-228.671 360.681,-222.365 367.848,-223.167 364.351,-229.474 357.184,-228.671"/>
<text text-anchor="middle" x="222" y="-712.5" font-family="Helvetica,sans-Serif" font-size="10.00"> #name</text>
</g>
<!-- Node10 -->
<g id="node9" class="node"><title>Node10</title>
<g id="a_node9"><a xlink:href="class_special_move.html" target="_top" xlink:title="Special move abstract base class that expands upon CharacterMove, adding magic properties ...">
<polygon fill="none" stroke="black" points="250.5,-365.5 250.5,-455.5 348.5,-455.5 348.5,-365.5 250.5,-365.5"/>
<text text-anchor="middle" x="299.5" y="-443.5" font-family="Helvetica,sans-Serif" font-size="10.00">SpecialMove</text>
<polyline fill="none" stroke="black" points="250.5,-436.5 348.5,-436.5 "/>
<text text-anchor="start" x="258.5" y="-424.5" font-family="Helvetica,sans-Serif" font-size="10.00">+ Magic</text>
<text text-anchor="start" x="258.5" y="-413.5" font-family="Helvetica,sans-Serif" font-size="10.00">+ Desc</text>
<polyline fill="none" stroke="black" points="250.5,-406.5 348.5,-406.5 "/>
<text text-anchor="start" x="258.5" y="-394.5" font-family="Helvetica,sans-Serif" font-size="10.00">+ setUp()</text>
<text text-anchor="start" x="258.5" y="-383.5" font-family="Helvetica,sans-Serif" font-size="10.00">+ decreaseMagic()</text>
<text text-anchor="start" x="258.5" y="-372.5" font-family="Helvetica,sans-Serif" font-size="10.00"># SpecialMove()</text>
</a>
</g>
</g>
<!-- Node7&#45;&gt;Node10 -->
<g id="edge20" class="edge"><title>Node7&#45;&gt;Node10</title>
<path fill="none" stroke="#404040" d="M293.782,-1177.1C283.724,-1116.04 260.442,-965.874 252.5,-839 242.311,-676.22 270.17,-635.827 290.5,-474 290.77,-471.85 291.052,-469.66 291.343,-467.448"/>
<polygon fill="none" stroke="#404040" points="291.347,-467.413 288.189,-460.93 292.958,-455.521 296.116,-462.004 291.347,-467.413"/>
<text text-anchor="middle" x="267.5" y="-831" font-family="Helvetica,sans-Serif" font-size="10.00"> #desc</text>
</g>
<!-- Node7&#45;&gt;Node11 -->
<g id="edge10" class="edge"><title>Node7&#45;&gt;Node11</title>
<path fill="none" stroke="#404040" d="M301.662,-1177.45C313.368,-1075.43 354.356,-718.255 369.67,-584.807"/>
<polygon fill="none" stroke="#404040" points="369.702,-584.529 366.412,-578.112 371.07,-572.607 374.36,-579.024 369.702,-584.529"/>
<text text-anchor="middle" x="351" y="-911" font-family="Helvetica,sans-Serif" font-size="10.00"> #text</text>
</g>
<!-- Node7&#45;&gt;Node12 -->
<g id="edge13" class="edge"><title>Node7&#45;&gt;Node12</title>
<path fill="none" stroke="#404040" d="M319.183,-1202.32C360.498,-1196.54 451.037,-1181.56 471.5,-1159 515.088,-1110.95 529.469,-937.224 534.2,-822.138"/>
<polygon fill="none" stroke="#404040" points="534.213,-821.792 530.449,-815.641 534.679,-809.801 538.443,-815.951 534.213,-821.792"/>
<text text-anchor="middle" x="563.5" y="-1002" font-family="Helvetica,sans-Serif" font-size="10.00"> +forceEnemyMove</text>
<text text-anchor="middle" x="563.5" y="-991" font-family="Helvetica,sans-Serif" font-size="10.00">+forceCriticalHits</text>
</g>
<!-- Node15 -->
<g id="node14" class="node"><title>Node15</title>
<g id="a_node14"><a xlink:href="class_item.html" target="_top" xlink:title="Abstract class for items that can be equipped to a player, increasing some of their stats ...">
<polygon fill="none" stroke="black" points="380,-1028.5 380,-1118.5 457,-1118.5 457,-1028.5 380,-1028.5"/>
<text text-anchor="middle" x="418.5" y="-1106.5" font-family="Helvetica,sans-Serif" font-size="10.00">Item</text>
<polyline fill="none" stroke="black" points="380,-1099.5 457,-1099.5 "/>
<text text-anchor="start" x="388" y="-1087.5" font-family="Helvetica,sans-Serif" font-size="10.00">+ Name</text>
<text text-anchor="start" x="388" y="-1076.5" font-family="Helvetica,sans-Serif" font-size="10.00">+ Desc</text>
<text text-anchor="start" x="388" y="-1065.5" font-family="Helvetica,sans-Serif" font-size="10.00">+ Cost</text>
<polyline fill="none" stroke="black" points="380,-1058.5 457,-1058.5 "/>
<text text-anchor="start" x="388" y="-1046.5" font-family="Helvetica,sans-Serif" font-size="10.00">+ applyBuffs()</text>
<text text-anchor="start" x="388" y="-1035.5" font-family="Helvetica,sans-Serif" font-size="10.00">+ revertBuffs()</text>
</a>
</g>
</g>
<!-- Node7&#45;&gt;Node15 -->
<g id="edge24" class="edge"><title>Node7&#45;&gt;Node15</title>
<path fill="none" stroke="#404040" d="M319.129,-1182.57C333.598,-1166.83 353.538,-1145.15 371.76,-1125.33"/>
<polygon fill="none" stroke="#404040" points="371.863,-1125.22 372.979,-1118.09 379.985,-1116.38 378.868,-1123.51 371.863,-1125.22"/>
<text text-anchor="middle" x="373.5" y="-1151" font-family="Helvetica,sans-Serif" font-size="10.00"> #desc</text>
<text text-anchor="middle" x="373.5" y="-1140" font-family="Helvetica,sans-Serif" font-size="10.00">#name</text>
</g>
<!-- Node8 -->
<g id="node7" class="node"><title>Node8</title>
<polygon fill="none" stroke="#bfbfbf" points="574,-1177.5 574,-1234.5 603,-1234.5 603,-1177.5 574,-1177.5"/>
<text text-anchor="middle" x="588.5" y="-1222.5" font-family="Helvetica,sans-Serif" font-size="10.00">int</text>
<polyline fill="none" stroke="#bfbfbf" points="574,-1215.5 603,-1215.5 "/>
<text text-anchor="middle" x="588.5" y="-1203.5" font-family="Helvetica,sans-Serif" font-size="10.00"> </text>
<polyline fill="none" stroke="#bfbfbf" points="574,-1196.5 603,-1196.5 "/>
<text text-anchor="middle" x="588.5" y="-1184.5" font-family="Helvetica,sans-Serif" font-size="10.00"> </text>
</g>
<!-- Node8&#45;&gt;Node5 -->
<g id="edge26" class="edge"><title>Node8&#45;&gt;Node5</title>
<path fill="none" stroke="#404040" d="M573.914,-1178.81C565.53,-1162.22 555.829,-1140.01 551.5,-1119 543.34,-1079.39 535.519,-1065.15 551.5,-1028 556.096,-1017.31 565.904,-1020.69 570.5,-1010 574.363,-1001.02 575.468,-996.422 570.5,-988 555.963,-963.357 529.873,-946.403 504.629,-935.045"/>
<polygon fill="none" stroke="#404040" points="504.575,-935.023 497.493,-936.379 493.517,-930.364 500.599,-929.007 504.575,-935.023"/>
<text text-anchor="middle" x="589" y="-1076.5" font-family="Helvetica,sans-Serif" font-size="10.00"> &#45;expToNextLevel</text>
<text text-anchor="middle" x="589" y="-1065.5" font-family="Helvetica,sans-Serif" font-size="10.00">&#45;exp</text>
</g>
<!-- Node8&#45;&gt;Node6 -->
<g id="edge6" class="edge"><title>Node8&#45;&gt;Node6</title>
<path fill="none" stroke="#404040" d="M603.232,-1195.08C630.368,-1175.49 685.5,-1128.98 685.5,-1074.5 685.5,-1074.5 685.5,-1074.5 685.5,-409.5 685.5,-304.065 554.46,-244.828 474.96,-218.591"/>
<polygon fill="none" stroke="#404040" points="474.578,-218.469 467.644,-220.449 463.149,-214.81 470.083,-212.83 474.578,-218.469"/>
<text text-anchor="middle" x="723" y="-756.5" font-family="Helvetica,sans-Serif" font-size="10.00"> #speed</text>
<text text-anchor="middle" x="723" y="-745.5" font-family="Helvetica,sans-Serif" font-size="10.00">#luck</text>
<text text-anchor="middle" x="723" y="-734.5" font-family="Helvetica,sans-Serif" font-size="10.00">#health</text>
<text text-anchor="middle" x="723" y="-723.5" font-family="Helvetica,sans-Serif" font-size="10.00">#magic</text>
<text text-anchor="middle" x="723" y="-712.5" font-family="Helvetica,sans-Serif" font-size="10.00">#maximumMagic</text>
<text text-anchor="middle" x="723" y="-701.5" font-family="Helvetica,sans-Serif" font-size="10.00">#attack</text>
<text text-anchor="middle" x="723" y="-690.5" font-family="Helvetica,sans-Serif" font-size="10.00">#defence</text>
<text text-anchor="middle" x="723" y="-679.5" font-family="Helvetica,sans-Serif" font-size="10.00">#level</text>
<text text-anchor="middle" x="723" y="-668.5" font-family="Helvetica,sans-Serif" font-size="10.00">#rage</text>
</g>
<!-- Node8&#45;&gt;Node10 -->
<g id="edge21" class="edge"><title>Node8&#45;&gt;Node10</title>
<path fill="none" stroke="#404040" d="M573.814,-1204.15C533.728,-1200.95 422.003,-1186.15 370.5,-1119 299.073,-1025.87 403.611,-953.973 337.5,-857 328.089,-843.196 313.112,-853.316 304.5,-839 285.872,-808.034 292.692,-576.788 297.022,-467.897"/>
<polygon fill="none" stroke="#404040" points="297.024,-467.861 293.27,-461.703 297.51,-455.87 301.264,-462.028 297.024,-467.861"/>
<text text-anchor="middle" x="322" y="-831" font-family="Helvetica,sans-Serif" font-size="10.00"> #magic</text>
</g>
<!-- Node8&#45;&gt;Node12 -->
<g id="edge17" class="edge"><title>Node8&#45;&gt;Node12</title>
<path fill="none" stroke="#404040" d="M603.087,-1179.6C611.783,-1162.96 621.982,-1140.4 626.5,-1119 634.853,-1079.43 634.089,-1067.73 626.5,-1028 621.296,-1000.76 612.163,-996.343 603.5,-970 587.641,-921.777 572.907,-867.469 561.317,-821.484"/>
<polygon fill="none" stroke="#404040" points="561.275,-821.316 555.939,-816.465 558.363,-809.674 563.7,-814.524 561.275,-821.316"/>
<text text-anchor="middle" x="641" y="-996.5" font-family="Helvetica,sans-Serif" font-size="10.00"> +money</text>
</g>
<!-- Node8&#45;&gt;Node13 -->
<g id="edge16" class="edge"><title>Node8&#45;&gt;Node13</title>
<path fill="none" stroke="#404040" d="M603.206,-1202.72C649.394,-1194.66 788.5,-1163.02 788.5,-1074.5 788.5,-1074.5 788.5,-1074.5 788.5,-200 788.5,-129.997 715.545,-78.2655 666.075,-51.2337"/>
<polygon fill="none" stroke="#404040" points="665.901,-51.1416 658.726,-51.8695 655.295,-45.5271 662.469,-44.7991 665.901,-51.1416"/>
<text text-anchor="middle" x="811.5" y="-594" font-family="Helvetica,sans-Serif" font-size="10.00"> &#45;expGiven</text>
</g>
<!-- Node8&#45;&gt;Node15 -->
<g id="edge25" class="edge"><title>Node8&#45;&gt;Node15</title>
<path fill="none" stroke="#404040" d="M573.693,-1199.67C554.502,-1192.33 520.535,-1177.86 495.5,-1159 483.491,-1149.95 471.847,-1138.86 461.404,-1127.73"/>
<polygon fill="none" stroke="#404040" points="461.38,-1127.7 454.383,-1125.96 453.302,-1118.83 460.299,-1120.57 461.38,-1127.7"/>
<text text-anchor="middle" x="509.5" y="-1145.5" font-family="Helvetica,sans-Serif" font-size="10.00"> #cost</text>
</g>
<!-- Node9 -->
<g id="node8" class="node"><title>Node9</title>
<polygon fill="none" stroke="#bfbfbf" points="613,-885 613,-942 648,-942 648,-885 613,-885"/>
<text text-anchor="middle" x="630.5" y="-930" font-family="Helvetica,sans-Serif" font-size="10.00">bool</text>
<polyline fill="none" stroke="#bfbfbf" points="613,-923 648,-923 "/>
<text text-anchor="middle" x="630.5" y="-911" font-family="Helvetica,sans-Serif" font-size="10.00"> </text>
<polyline fill="none" stroke="#bfbfbf" points="613,-904 648,-904 "/>
<text text-anchor="middle" x="630.5" y="-892" font-family="Helvetica,sans-Serif" font-size="10.00"> </text>
</g>
<!-- Node9&#45;&gt;Node6 -->
<g id="edge7" class="edge"><title>Node9&#45;&gt;Node6</title>
<path fill="none" stroke="#404040" d="M637.999,-884.809C641.323,-871.135 644.852,-854.322 646.5,-839 657.11,-740.377 634.067,-714.365 603.5,-620 567.302,-508.251 510.337,-386.387 468.592,-303.233"/>
<polygon fill="none" stroke="#404040" points="468.467,-302.986 462.194,-299.429 463.064,-292.271 469.337,-295.827 468.467,-302.986"/>
<text text-anchor="middle" x="611" y="-530.5" font-family="Helvetica,sans-Serif" font-size="10.00"> #canRage</text>
</g>
<!-- Node9&#45;&gt;Node12 -->
<g id="edge18" class="edge"><title>Node9&#45;&gt;Node12</title>
<path fill="none" stroke="#404040" d="M612.934,-889.931C602.542,-875.845 589.664,-857.021 580.5,-839 577.544,-833.188 574.698,-827.13 571.973,-820.955"/>
<polygon fill="none" stroke="#404040" points="571.9,-820.783 565.87,-816.828 567.202,-809.741 573.232,-813.696 571.9,-820.783"/>
<text text-anchor="middle" x="613.5" y="-831" font-family="Helvetica,sans-Serif" font-size="10.00"> &#45;wasCriticalHit</text>
</g>
<!-- Node10&#45;&gt;Node6 -->
<g id="edge8" class="edge"><title>Node10&#45;&gt;Node6</title>
<path fill="none" stroke="#404040" d="M310.042,-365.435C314.027,-352.084 319.167,-337.621 325.5,-325 335.123,-305.824 347.679,-286.455 360.345,-268.94"/>
<polygon fill="none" stroke="#404040" points="360.664,-268.509 361.011,-261.306 367.794,-258.857 367.446,-266.06 360.664,-268.509"/>
<text text-anchor="middle" x="348" y="-339" font-family="Helvetica,sans-Serif" font-size="10.00"> #special1</text>
<text text-anchor="middle" x="348" y="-328" font-family="Helvetica,sans-Serif" font-size="10.00">#special2</text>
</g>
<!-- Node11&#45;&gt;Node10 -->
<g id="edge9" class="edge"><title>Node11&#45;&gt;Node10</title>
<path fill="none" stroke="midnightblue" d="M345.609,-484.607C339.594,-475.07 333.295,-465.083 327.353,-455.661"/>
<polygon fill="none" stroke="midnightblue" points="342.74,-486.619 351.035,-493.21 348.66,-482.884 342.74,-486.619"/>
</g>
<!-- Node12&#45;&gt;Node11 -->
<g id="edge12" class="edge"><title>Node12&#45;&gt;Node11</title>
<path fill="none" stroke="#404040" d="M478.375,-649.016C458.536,-626.835 436.726,-602.452 418.314,-581.867"/>
<polygon fill="none" stroke="#404040" points="418.113,-581.642 411.131,-579.836 410.113,-572.697 417.094,-574.503 418.113,-581.642"/>
<text text-anchor="middle" x="455.5" y="-594" font-family="Helvetica,sans-Serif" font-size="10.00"> #manager</text>
</g>
<!-- Node13&#45;&gt;Node12 -->
<g id="edge14" class="edge"><title>Node13&#45;&gt;Node12</title>
<path fill="none" stroke="#404040" d="M621.5,-57.6786C621.5,-91.3232 621.5,-149.826 621.5,-200 621.5,-534 621.5,-534 621.5,-534 621.5,-563.03 612.348,-592.388 600.051,-618.735"/>
<polygon fill="none" stroke="#404040" points="599.892,-619.059 600.84,-626.208 594.605,-629.832 593.658,-622.684 599.892,-619.059"/>
<text text-anchor="middle" x="639.5" y="-408" font-family="Helvetica,sans-Serif" font-size="10.00"> &#45;enemy</text>
</g>
<!-- Node14 -->
<g id="node13" class="node"><title>Node14</title>
<polygon fill="none" stroke="#bfbfbf" points="116,-382 116,-439 177,-439 177,-382 116,-382"/>
<text text-anchor="middle" x="146.5" y="-427" font-family="Helvetica,sans-Serif" font-size="10.00">Texture2D</text>
<polyline fill="none" stroke="#bfbfbf" points="116,-420 177,-420 "/>
<text text-anchor="middle" x="146.5" y="-408" font-family="Helvetica,sans-Serif" font-size="10.00"> </text>
<polyline fill="none" stroke="#bfbfbf" points="116,-401 177,-401 "/>
<text text-anchor="middle" x="146.5" y="-389" font-family="Helvetica,sans-Serif" font-size="10.00"> </text>
</g>
<!-- Node14&#45;&gt;Node6 -->
<g id="edge22" class="edge"><title>Node14&#45;&gt;Node6</title>
<path fill="none" stroke="#404040" d="M143.309,-381.964C142.694,-364.149 144.784,-341.321 156.5,-325 203.618,-259.362 295.11,-227.511 355.761,-212.99"/>
<polygon fill="none" stroke="#404040" points="356.135,-212.904 361.093,-207.668 367.833,-210.23 362.876,-215.467 356.135,-212.904"/>
<text text-anchor="middle" x="174" y="-333.5" font-family="Helvetica,sans-Serif" font-size="10.00"> #image</text>
</g>
<!-- Node15&#45;&gt;Node5 -->
<g id="edge23" class="edge"><title>Node15&#45;&gt;Node5</title>
<path fill="none" stroke="#404040" d="M423.793,-1028.49C425.543,-1013.94 427.531,-997.398 429.44,-981.521"/>
<polygon fill="none" stroke="#404040" points="429.447,-981.467 426.192,-975.032 430.88,-969.553 434.135,-975.987 429.447,-981.467"/>
<text text-anchor="middle" x="442" y="-996.5" font-family="Helvetica,sans-Serif" font-size="10.00"> &#45;item</text>
</g>
</g>
</svg>
        <g id="navigator" transform="translate(0 0)" fill="#404254">
                <rect fill="#f2f5e9" fill-opacity="0.5" stroke="#606060" stroke-width=".5" x="0" y="0" width="60" height="60"/>
                <use id="zoomplus" xlink:href="#zoomPlus" x="17" y="9" onmousedown="handleZoom(evt,'in')"/>
                <use id="zoomminus" xlink:href="#zoomMin" x="42" y="9" onmousedown="handleZoom(evt,'out')"/>
                <use id="reset" xlink:href="#resetDef" x="30" y="36" onmousedown="handleReset()"/>
                <g id="arrowUp" xlink:href="#dirArrow" transform="translate(30 24)" onmousedown="handlePan(0,-1)">
                  <use xlink:href="#rim" fill="#404040">
                        <set attributeName="fill" to="#808080" begin="arrowUp.mouseover" end="arrowUp.mouseout"/>
                  </use>
                  <path fill="none" stroke="white" stroke-width="1.5" d="M0,-3.0v7 M-2.5,-0.5L0,-3.0L2.5,-0.5"/>
                </g>
                <g id="arrowRight" xlink:href="#dirArrow" transform="rotate(90) translate(36 -43)" onmousedown="handlePan(1,0)">
                  <use xlink:href="#rim" fill="#404040">
                        <set attributeName="fill" to="#808080" begin="arrowRight.mouseover" end="arrowRight.mouseout"/>
                  </use>
                  <path fill="none" stroke="white" stroke-width="1.5" d="M0,-3.0v7 M-2.5,-0.5L0,-3.0L2.5,-0.5"/>
                </g>
                <g id="arrowDown" xlink:href="#dirArrow" transform="rotate(180) translate(-30 -48)" onmousedown="handlePan(0,1)">
                  <use xlink:href="#rim" fill="#404040">
                        <set attributeName="fill" to="#808080" begin="arrowDown.mouseover" end="arrowDown.mouseout"/>
                  </use>
                  <path fill="none" stroke="white" stroke-width="1.5" d="M0,-3.0v7 M-2.5,-0.5L0,-3.0L2.5,-0.5"/>
                </g>
                <g id="arrowLeft" xlink:href="#dirArrow" transform="rotate(270) translate(-36 17)" onmousedown="handlePan(-1,0)">
                  <use xlink:href="#rim" fill="#404040">
                        <set attributeName="fill" to="#808080" begin="arrowLeft.mouseover" end="arrowLeft.mouseout"/>
                  </use>
                  <path fill="none" stroke="white" stroke-width="1.5" d="M0,-3.0v7 M-2.5,-0.5L0,-3.0L2.5,-0.5"/>
                </g>
        </g>
        <svg viewBox="0 0 15 15" width="100%" height="30px" preserveAspectRatio="xMaxYMin meet">
         <g id="arrow_out" transform="scale(0.3 0.3)">
          <a xlink:href="class_player_menu__coll__graph_org.svg" target="_base">
           <rect id="button" ry="5" rx="5" y="6" x="6" height="38" width="38"
                fill="#f2f5e9" fill-opacity="0.5" stroke="#606060" stroke-width="1.0"/>
           <path id="arrow"
             d="M 11.500037,31.436501 C 11.940474,20.09759 22.043105,11.32322 32.158766,21.979434 L 37.068811,17.246167 C 37.068811,17.246167 37.088388,32 37.088388,32 L 22.160133,31.978069 C 22.160133,31.978069 26.997745,27.140456 26.997745,27.140456 C 18.528582,18.264221 13.291696,25.230495 11.500037,31.436501 z"
             style="fill:#404040;"/>
          </a>
         </g>
        </svg>
</svg>
