<?xml version="1.0" encoding="UTF-8" standalone="no"?>
<!DOCTYPE svg PUBLIC "-//W3C//DTD SVG 1.1//EN"
 "http://www.w3.org/Graphics/SVG/1.1/DTD/svg11.dtd">
<!-- Generated by graphviz version 2.38.0 (20140413.2041)
 -->
<!-- Title: DataManager.StoredData Pages: 1 -->
<!--zoomable 477 -->
<svg id="main" version="1.1" xmlns="http://www.w3.org/2000/svg" xmlns:xlink="http://www.w3.org/1999/xlink" xml:space="preserve" onload="init(evt)">
<style type="text/css"><![CDATA[
.edge:hover path { stroke: red; }
.edge:hover polygon { stroke: red; fill: red; }
]]></style>
<script type="text/javascript"><![CDATA[
var edges = document.getElementsByTagName('g');
if (edges && edges.length) {
  for (var i=0;i<edges.length;i++) {
    if (edges[i].id.substr(0,4)=='edge') {
      edges[i].setAttribute('class','edge');
    }
  }
}
]]></script>
        <defs>
                <circle id="rim" cx="0" cy="0" r="7"/>
                <circle id="rim2" cx="0" cy="0" r="3.5"/>
                <g id="zoomPlus">
                        <use xlink:href="#rim" fill="#404040">
                                <set attributeName="fill" to="#808080" begin="zoomplus.mouseover" end="zoomplus.mouseout"/>
                        </use>
                        <path d="M-4,0h8M0,-4v8" fill="none" stroke="white" stroke-width="1.5" pointer-events="none"/>
                </g>
                <g id="zoomMin">
                        <use xlink:href="#rim" fill="#404040">
                                <set attributeName="fill" to="#808080" begin="zoomminus.mouseover" end="zoomminus.mouseout"/>
                        </use>
                        <path d="M-4,0h8" fill="none" stroke="white" stroke-width="1.5" pointer-events="none"/>
                </g>
                <g id="dirArrow">
                        <path fill="none" stroke="white" stroke-width="1.5" d="M0,-3.0v7 M-2.5,-0.5L0,-3.0L2.5,-0.5"/>
                </g>
               <g id="resetDef">
                       <use xlink:href="#rim2" fill="#404040">
                               <set attributeName="fill" to="#808080" begin="reset.mouseover" end="reset.mouseout"/>
                       </use>
               </g>
        </defs>

<script type="text/javascript">
var viewWidth = 1111;
var viewHeight = 477;
var sectionId = 'dynsection-0';
</script>
<script xlink:href="svgpan.js"/>
<svg id="graph" class="graph">
<g id="viewport">
<title>DataManager.StoredData</title>
<!-- Node1 -->
<g id="node1" class="node"><title>Node1</title>
<polygon fill="#bfbfbf" stroke="black" points="774,-0.5 774,-57.5 900,-57.5 900,-0.5 774,-0.5"/>
<text text-anchor="middle" x="837" y="-45.5" font-family="Helvetica,sans-Serif" font-size="10.00">DataManager.StoredData</text>
<polyline fill="none" stroke="black" points="774,-38.5 900,-38.5 "/>
<text text-anchor="middle" x="837" y="-26.5" font-family="Helvetica,sans-Serif" font-size="10.00"> </text>
<polyline fill="none" stroke="black" points="774,-19.5 900,-19.5 "/>
<text text-anchor="middle" x="837" y="-7.5" font-family="Helvetica,sans-Serif" font-size="10.00"> </text>
</g>
<!-- Node2 -->
<g id="node2" class="node"><title>Node2</title>
<g id="a_node2"><a xlink:href="class_data_manager_1_1_stored_data_1_1_item.html" target="_top" xlink:title="{DataManager.StoredData.Item\n||}">
<polygon fill="none" stroke="black" points="0,-264 0,-321 148,-321 148,-264 0,-264"/>
<text text-anchor="middle" x="74" y="-309" font-family="Helvetica,sans-Serif" font-size="10.00">DataManager.StoredData.Item</text>
<polyline fill="none" stroke="black" points="0,-302 148,-302 "/>
<text text-anchor="middle" x="74" y="-290" font-family="Helvetica,sans-Serif" font-size="10.00"> </text>
<polyline fill="none" stroke="black" points="0,-283 148,-283 "/>
<text text-anchor="middle" x="74" y="-271" font-family="Helvetica,sans-Serif" font-size="10.00"> </text>
</a>
</g>
</g>
<!-- Node2&#45;&gt;Node1 -->
<g id="edge1" class="edge"><title>Node2&#45;&gt;Node1</title>
<path fill="none" stroke="#404040" d="M80.0199,-263.614C85.8018,-242.111 96.3267,-212.652 114,-192 163.112,-134.609 188.622,-129.714 260,-105 432.514,-45.2682 649.016,-32.4944 761.421,-30.1468"/>
<polygon fill="none" stroke="#404040" points="761.618,-30.1433 767.544,-26.0347 773.616,-29.9248 767.69,-34.0334 761.618,-30.1433"/>
<text text-anchor="middle" x="277" y="-137" font-family="Helvetica,sans-Serif" font-size="10.00"> +items</text>
</g>
<!-- Node7 -->
<g id="node7" class="node"><title>Node7</title>
<g id="a_node7"><a xlink:href="class_data_manager_1_1_stored_data_1_1_player.html" target="_top" xlink:title="{DataManager.StoredData.Player\n||}">
<polygon fill="none" stroke="black" points="303.5,-111 303.5,-168 460.5,-168 460.5,-111 303.5,-111"/>
<text text-anchor="middle" x="382" y="-156" font-family="Helvetica,sans-Serif" font-size="10.00">DataManager.StoredData.Player</text>
<polyline fill="none" stroke="black" points="303.5,-149 460.5,-149 "/>
<text text-anchor="middle" x="382" y="-137" font-family="Helvetica,sans-Serif" font-size="10.00"> </text>
<polyline fill="none" stroke="black" points="303.5,-130 460.5,-130 "/>
<text text-anchor="middle" x="382" y="-118" font-family="Helvetica,sans-Serif" font-size="10.00"> </text>
</a>
</g>
</g>
<!-- Node2&#45;&gt;Node7 -->
<g id="edge8" class="edge"><title>Node2&#45;&gt;Node7</title>
<path fill="none" stroke="#404040" d="M85.4189,-263.902C96.3173,-241.063 114.946,-209.609 141,-192 185.116,-162.183 243.296,-149.186 291.439,-143.701"/>
<polygon fill="none" stroke="#404040" points="291.511,-143.694 297.069,-139.099 303.448,-142.463 297.89,-147.057 291.511,-143.694"/>
<text text-anchor="middle" x="155" y="-200.5" font-family="Helvetica,sans-Serif" font-size="10.00"> +item</text>
</g>
<!-- Node3 -->
<g id="node3" class="node"><title>Node3</title>
<polygon fill="none" stroke="#bfbfbf" points="261.5,-411.5 261.5,-468.5 302.5,-468.5 302.5,-411.5 261.5,-411.5"/>
<text text-anchor="middle" x="282" y="-456.5" font-family="Helvetica,sans-Serif" font-size="10.00">string</text>
<polyline fill="none" stroke="#bfbfbf" points="261.5,-449.5 302.5,-449.5 "/>
<text text-anchor="middle" x="282" y="-437.5" font-family="Helvetica,sans-Serif" font-size="10.00"> </text>
<polyline fill="none" stroke="#bfbfbf" points="261.5,-430.5 302.5,-430.5 "/>
<text text-anchor="middle" x="282" y="-418.5" font-family="Helvetica,sans-Serif" font-size="10.00"> </text>
</g>
<!-- Node3&#45;&gt;Node2 -->
<g id="edge2" class="edge"><title>Node3&#45;&gt;Node2</title>
<path fill="none" stroke="#404040" d="M261.475,-430.482C242.292,-422.123 213.205,-408.414 190,-393 161.959,-374.374 133.22,-349.771 111.363,-329.69"/>
<polygon fill="none" stroke="#404040" points="111.226,-329.563 104.108,-328.406 102.439,-321.391 109.556,-322.548 111.226,-329.563"/>
<text text-anchor="middle" x="207" y="-379.5" font-family="Helvetica,sans-Serif" font-size="10.00"> +name</text>
</g>
<!-- Node4 -->
<g id="node4" class="node"><title>Node4</title>
<g id="a_node4"><a xlink:href="class_data_manager_1_1_stored_data_1_1_location_data.html" target="_top" xlink:title="{DataManager.StoredData.LocationData\n||}">
<polygon fill="none" stroke="black" points="554,-264 554,-321 740,-321 740,-264 554,-264"/>
<text text-anchor="middle" x="647" y="-309" font-family="Helvetica,sans-Serif" font-size="10.00">DataManager.StoredData.LocationData</text>
<polyline fill="none" stroke="black" points="554,-302 740,-302 "/>
<text text-anchor="middle" x="647" y="-290" font-family="Helvetica,sans-Serif" font-size="10.00"> </text>
<polyline fill="none" stroke="black" points="554,-283 740,-283 "/>
<text text-anchor="middle" x="647" y="-271" font-family="Helvetica,sans-Serif" font-size="10.00"> </text>
</a>
</g>
</g>
<!-- Node3&#45;&gt;Node4 -->
<g id="edge4" class="edge"><title>Node3&#45;&gt;Node4</title>
<path fill="none" stroke="#404040" d="M302.733,-430.716C337.259,-417.107 408.884,-389.671 471,-371 503.415,-361.257 513.609,-365.66 545,-353 561.993,-346.147 579.553,-336.827 595.213,-327.597"/>
<polygon fill="none" stroke="#404040" points="595.448,-327.456 598.517,-320.93 605.721,-321.254 602.651,-327.779 595.448,-327.456"/>
<text text-anchor="middle" x="501.5" y="-379.5" font-family="Helvetica,sans-Serif" font-size="10.00"> +sceneName</text>
</g>
<!-- Node3&#45;&gt;Node7 -->
<g id="edge12" class="edge"><title>Node3&#45;&gt;Node7</title>
<path fill="none" stroke="#404040" d="M266.959,-411.46C246.555,-370.067 216.009,-290.444 247,-232 259.883,-207.705 282.423,-188.674 305.437,-174.41"/>
<polygon fill="none" stroke="#404040" points="305.668,-174.274 308.812,-167.784 316.011,-168.19 312.868,-174.68 305.668,-174.274"/>
<text text-anchor="middle" x="264" y="-290" font-family="Helvetica,sans-Serif" font-size="10.00"> +name</text>
</g>
<!-- Node8 -->
<g id="node8" class="node"><title>Node8</title>
<g id="a_node8"><a xlink:href="class_data_manager_1_1_stored_data_1_1_special_move.html" target="_top" xlink:title="{DataManager.StoredData.SpecialMove\n||}">
<polygon fill="none" stroke="black" points="290,-264 290,-321 474,-321 474,-264 290,-264"/>
<text text-anchor="middle" x="382" y="-309" font-family="Helvetica,sans-Serif" font-size="10.00">DataManager.StoredData.SpecialMove</text>
<polyline fill="none" stroke="black" points="290,-302 474,-302 "/>
<text text-anchor="middle" x="382" y="-290" font-family="Helvetica,sans-Serif" font-size="10.00"> </text>
<polyline fill="none" stroke="black" points="290,-283 474,-283 "/>
<text text-anchor="middle" x="382" y="-271" font-family="Helvetica,sans-Serif" font-size="10.00"> </text>
</a>
</g>
</g>
<!-- Node3&#45;&gt;Node8 -->
<g id="edge10" class="edge"><title>Node3&#45;&gt;Node8</title>
<path fill="none" stroke="#404040" d="M301.045,-411.29C316.684,-388.535 338.984,-356.088 356.221,-331.009"/>
<polygon fill="none" stroke="#404040" points="356.229,-330.996 356.331,-323.786 363.026,-321.107 362.924,-328.317 356.229,-330.996"/>
<text text-anchor="middle" x="341" y="-385" font-family="Helvetica,sans-Serif" font-size="10.00"> +text</text>
<text text-anchor="middle" x="341" y="-374" font-family="Helvetica,sans-Serif" font-size="10.00">+desc</text>
</g>
<!-- Node4&#45;&gt;Node1 -->
<g id="edge3" class="edge"><title>Node4&#45;&gt;Node1</title>
<path fill="none" stroke="#404040" d="M667.333,-263.515C701.617,-216.329 770.95,-120.906 809.527,-67.8115"/>
<polygon fill="none" stroke="#404040" points="809.759,-67.4919 810.05,-60.2867 816.813,-57.7839 816.522,-64.9891 809.759,-67.4919"/>
<text text-anchor="middle" x="815" y="-137" font-family="Helvetica,sans-Serif" font-size="10.00"> +locationData</text>
</g>
<!-- Node5 -->
<g id="node5" class="node"><title>Node5</title>
<polygon fill="none" stroke="#bfbfbf" points="522.5,-411.5 522.5,-468.5 557.5,-468.5 557.5,-411.5 522.5,-411.5"/>
<text text-anchor="middle" x="540" y="-456.5" font-family="Helvetica,sans-Serif" font-size="10.00">float</text>
<polyline fill="none" stroke="#bfbfbf" points="522.5,-449.5 557.5,-449.5 "/>
<text text-anchor="middle" x="540" y="-437.5" font-family="Helvetica,sans-Serif" font-size="10.00"> </text>
<polyline fill="none" stroke="#bfbfbf" points="522.5,-430.5 557.5,-430.5 "/>
<text text-anchor="middle" x="540" y="-418.5" font-family="Helvetica,sans-Serif" font-size="10.00"> </text>
</g>
<!-- Node5&#45;&gt;Node4 -->
<g id="edge5" class="edge"><title>Node5&#45;&gt;Node4</title>
<path fill="none" stroke="#404040" d="M534.954,-411.481C533.903,-398.53 534.657,-383.271 541,-371 549.845,-353.889 564.398,-339.631 579.928,-328.206"/>
<polygon fill="none" stroke="#404040" points="580.345,-327.919 583.014,-321.22 590.224,-321.106 587.555,-327.806 580.345,-327.919"/>
<text text-anchor="middle" x="580" y="-385" font-family="Helvetica,sans-Serif" font-size="10.00"> +playerLocationX</text>
<text text-anchor="middle" x="580" y="-374" font-family="Helvetica,sans-Serif" font-size="10.00">+playerLocationY</text>
</g>
<!-- Node6 -->
<g id="node6" class="node"><title>Node6</title>
<polygon fill="none" stroke="#bfbfbf" points="723.5,-411.5 723.5,-468.5 752.5,-468.5 752.5,-411.5 723.5,-411.5"/>
<text text-anchor="middle" x="738" y="-456.5" font-family="Helvetica,sans-Serif" font-size="10.00">int</text>
<polyline fill="none" stroke="#bfbfbf" points="723.5,-449.5 752.5,-449.5 "/>
<text text-anchor="middle" x="738" y="-437.5" font-family="Helvetica,sans-Serif" font-size="10.00"> </text>
<polyline fill="none" stroke="#bfbfbf" points="723.5,-430.5 752.5,-430.5 "/>
<text text-anchor="middle" x="738" y="-418.5" font-family="Helvetica,sans-Serif" font-size="10.00"> </text>
</g>
<!-- Node6&#45;&gt;Node1 -->
<g id="edge16" class="edge"><title>Node6&#45;&gt;Node1</title>
<path fill="none" stroke="#404040" d="M752.589,-434.376C780.661,-424.59 841.575,-398.836 866,-353 915.126,-260.808 877.808,-132.582 853.545,-68.983"/>
<polygon fill="none" stroke="#404040" points="853.429,-68.6882 847.513,-64.5655 849.043,-57.5185 854.959,-61.6413 853.429,-68.6882"/>
<text text-anchor="middle" x="908.5" y="-200.5" font-family="Helvetica,sans-Serif" font-size="10.00"> +money</text>
</g>
<!-- Node6&#45;&gt;Node4 -->
<g id="edge6" class="edge"><title>Node6&#45;&gt;Node4</title>
<path fill="none" stroke="#404040" d="M723.179,-422.086C716.086,-413.627 707.701,-403.067 701,-393 688.133,-373.67 675.64,-350.989 665.918,-332.167"/>
<polygon fill="none" stroke="#404040" points="665.83,-331.994 659.544,-328.461 660.388,-321.299 666.674,-324.833 665.83,-331.994"/>
<text text-anchor="middle" x="731.5" y="-379.5" font-family="Helvetica,sans-Serif" font-size="10.00"> +currentLevel</text>
</g>
<!-- Node6&#45;&gt;Node7 -->
<g id="edge14" class="edge"><title>Node6&#45;&gt;Node7</title>
<path fill="none" stroke="#404040" d="M752.752,-415.991C756.53,-408.897 760.069,-400.874 762,-393 774.206,-343.218 808.211,-300.908 749,-232 713.449,-190.626 569.462,-164.416 472.764,-151.113"/>
<polygon fill="none" stroke="#404040" points="472.52,-151.081 466.04,-154.243 460.628,-149.477 467.109,-146.315 472.52,-151.081"/>
<text text-anchor="middle" x="822.5" y="-345" font-family="Helvetica,sans-Serif" font-size="10.00"> +maximumMagic</text>
<text text-anchor="middle" x="822.5" y="-334" font-family="Helvetica,sans-Serif" font-size="10.00">+attack</text>
<text text-anchor="middle" x="822.5" y="-323" font-family="Helvetica,sans-Serif" font-size="10.00">+defence</text>
<text text-anchor="middle" x="822.5" y="-312" font-family="Helvetica,sans-Serif" font-size="10.00">+level</text>
<text text-anchor="middle" x="822.5" y="-301" font-family="Helvetica,sans-Serif" font-size="10.00">+imageDims</text>
<text text-anchor="middle" x="822.5" y="-290" font-family="Helvetica,sans-Serif" font-size="10.00">+speed</text>
<text text-anchor="middle" x="822.5" y="-279" font-family="Helvetica,sans-Serif" font-size="10.00">+luck</text>
<text text-anchor="middle" x="822.5" y="-268" font-family="Helvetica,sans-Serif" font-size="10.00">+health</text>
<text text-anchor="middle" x="822.5" y="-257" font-family="Helvetica,sans-Serif" font-size="10.00">+magic</text>
<text text-anchor="middle" x="822.5" y="-246" font-family="Helvetica,sans-Serif" font-size="10.00">+exp</text>
<text text-anchor="middle" x="822.5" y="-235" font-family="Helvetica,sans-Serif" font-size="10.00">...</text>
</g>
<!-- Node6&#45;&gt;Node8 -->
<g id="edge11" class="edge"><title>Node6&#45;&gt;Node8</title>
<path fill="none" stroke="#404040" d="M723.227,-432.432C705.031,-424.121 673.411,-408.958 648,-393 634.3,-384.396 633.961,-377.155 619,-371 562.614,-347.803 540.642,-372.872 483,-353 465.179,-346.856 447.032,-337.369 431.127,-327.762"/>
<polygon fill="none" stroke="#404040" points="430.686,-327.487 423.478,-327.702 420.507,-321.132 427.715,-320.916 430.686,-327.487"/>
<text text-anchor="middle" x="666" y="-379.5" font-family="Helvetica,sans-Serif" font-size="10.00"> +magic</text>
</g>
<!-- Node7&#45;&gt;Node1 -->
<g id="edge7" class="edge"><title>Node7&#45;&gt;Node1</title>
<path fill="none" stroke="#404040" d="M460.736,-119.725C545.342,-99.5491 678.833,-67.7168 761.976,-47.8903"/>
<polygon fill="none" stroke="#404040" points="762.193,-47.8386 767.102,-42.5559 773.866,-45.0551 768.957,-50.3377 762.193,-47.8386"/>
<text text-anchor="middle" x="657.5" y="-79" font-family="Helvetica,sans-Serif" font-size="10.00"> +players</text>
</g>
<!-- Node8&#45;&gt;Node7 -->
<g id="edge9" class="edge"><title>Node8&#45;&gt;Node7</title>
<path fill="none" stroke="#404040" d="M382,-263.804C382,-240.39 382,-206.557 382,-180.251"/>
<polygon fill="none" stroke="#404040" points="382,-180.02 378,-174.02 382,-168.02 386,-174.02 382,-180.02"/>
<text text-anchor="middle" x="405" y="-206" font-family="Helvetica,sans-Serif" font-size="10.00"> +special1</text>
<text text-anchor="middle" x="405" y="-195" font-family="Helvetica,sans-Serif" font-size="10.00">+special2</text>
</g>
<!-- Node9 -->
<g id="node9" class="node"><title>Node9</title>
<polygon fill="none" stroke="#bfbfbf" points="492,-264 492,-321 536,-321 536,-264 492,-264"/>
<text text-anchor="middle" x="514" y="-309" font-family="Helvetica,sans-Serif" font-size="10.00">byte []</text>
<polyline fill="none" stroke="#bfbfbf" points="492,-302 536,-302 "/>
<text text-anchor="middle" x="514" y="-290" font-family="Helvetica,sans-Serif" font-size="10.00"> </text>
<polyline fill="none" stroke="#bfbfbf" points="492,-283 536,-283 "/>
<text text-anchor="middle" x="514" y="-271" font-family="Helvetica,sans-Serif" font-size="10.00"> </text>
</g>
<!-- Node9&#45;&gt;Node7 -->
<g id="edge13" class="edge"><title>Node9&#45;&gt;Node7</title>
<path fill="none" stroke="#404040" d="M502.169,-263.922C497.033,-253.429 490.474,-241.68 483,-232 467.239,-211.587 446.589,-191.969 428.071,-176.17"/>
<polygon fill="none" stroke="#404040" points="427.827,-175.966 420.658,-175.188 418.618,-168.272 425.787,-169.049 427.827,-175.966"/>
<text text-anchor="middle" x="498.5" y="-200.5" font-family="Helvetica,sans-Serif" font-size="10.00"> +textureArray</text>
</g>
<!-- Node10 -->
<g id="node10" class="node"><title>Node10</title>
<polygon fill="none" stroke="#bfbfbf" points="166.5,-264 166.5,-321 201.5,-321 201.5,-264 166.5,-264"/>
<text text-anchor="middle" x="184" y="-309" font-family="Helvetica,sans-Serif" font-size="10.00">bool</text>
<polyline fill="none" stroke="#bfbfbf" points="166.5,-302 201.5,-302 "/>
<text text-anchor="middle" x="184" y="-290" font-family="Helvetica,sans-Serif" font-size="10.00"> </text>
<polyline fill="none" stroke="#bfbfbf" points="166.5,-283 201.5,-283 "/>
<text text-anchor="middle" x="184" y="-271" font-family="Helvetica,sans-Serif" font-size="10.00"> </text>
</g>
<!-- Node10&#45;&gt;Node7 -->
<g id="edge15" class="edge"><title>Node10&#45;&gt;Node7</title>
<path fill="none" stroke="#404040" d="M174.759,-263.663C169.409,-241.902 166.44,-212.074 182,-192 195.943,-174.012 245.24,-161.2 291.398,-152.854"/>
<polygon fill="none" stroke="#404040" points="291.533,-152.83 296.759,-147.862 303.355,-150.775 298.129,-155.744 291.533,-152.83"/>
<text text-anchor="middle" x="206" y="-200.5" font-family="Helvetica,sans-Serif" font-size="10.00"> +canRage</text>
</g>
<!-- Node11 -->
<g id="node11" class="node"><title>Node11</title>
<polygon fill="none" stroke="#bfbfbf" points="911,-105.5 911,-173.5 1007,-173.5 1007,-105.5 911,-105.5"/>
<text text-anchor="start" x="919" y="-161.5" font-family="Helvetica,sans-Serif" font-size="10.00">Dictionary&lt; string,</text>
<text text-anchor="middle" x="959" y="-150.5" font-family="Helvetica,sans-Serif" font-size="10.00"> bool &gt;</text>
<polyline fill="none" stroke="#bfbfbf" points="911,-143.5 1007,-143.5 "/>
<text text-anchor="middle" x="959" y="-131.5" font-family="Helvetica,sans-Serif" font-size="10.00"> </text>
<polyline fill="none" stroke="#bfbfbf" points="911,-124.5 1007,-124.5 "/>
<text text-anchor="middle" x="959" y="-112.5" font-family="Helvetica,sans-Serif" font-size="10.00"> </text>
</g>
<!-- Node11&#45;&gt;Node1 -->
<g id="edge17" class="edge"><title>Node11&#45;&gt;Node1</title>
<path fill="none" stroke="#404040" d="M927.626,-105.207C918.054,-95.5111 907.326,-85.0883 897,-76 892.956,-72.4404 888.666,-68.8396 884.313,-65.3025"/>
<polygon fill="none" stroke="#404040" points="884.147,-65.1703 876.961,-64.5665 874.755,-57.7012 881.94,-58.305 884.147,-65.1703"/>
<text text-anchor="middle" x="941.5" y="-79" font-family="Helvetica,sans-Serif" font-size="10.00"> +objectsActive</text>
</g>
<!-- Node12 -->
<g id="node12" class="node"><title>Node12</title>
<polygon fill="none" stroke="#bfbfbf" points="1025.5,-111 1025.5,-168 1102.5,-168 1102.5,-111 1025.5,-111"/>
<text text-anchor="middle" x="1064" y="-156" font-family="Helvetica,sans-Serif" font-size="10.00">List&lt; Quest &gt;</text>
<polyline fill="none" stroke="#bfbfbf" points="1025.5,-149 1102.5,-149 "/>
<text text-anchor="middle" x="1064" y="-137" font-family="Helvetica,sans-Serif" font-size="10.00"> </text>
<polyline fill="none" stroke="#bfbfbf" points="1025.5,-130 1102.5,-130 "/>
<text text-anchor="middle" x="1064" y="-118" font-family="Helvetica,sans-Serif" font-size="10.00"> </text>
</g>
<!-- Node12&#45;&gt;Node1 -->
<g id="edge18" class="edge"><title>Node12&#45;&gt;Node1</title>
<path fill="none" stroke="#404040" d="M1031.71,-110.935C1016.47,-98.9604 997.582,-85.5247 979,-76 958.084,-65.279 934.164,-56.3807 911.995,-49.3592"/>
<polygon fill="none" stroke="#404040" points="911.712,-49.2726 904.803,-51.3385 900.239,-45.7557 907.148,-43.6898 911.712,-49.2726"/>
<text text-anchor="middle" x="1016.5" y="-79" font-family="Helvetica,sans-Serif" font-size="10.00"> +quests</text>
</g>
</g>
</svg>
        <g id="navigator" transform="translate(0 0)" fill="#404254">
                <rect fill="#f2f5e9" fill-opacity="0.5" stroke="#606060" stroke-width=".5" x="0" y="0" width="60" height="60"/>
                <use id="zoomplus" xlink:href="#zoomPlus" x="17" y="9" onmousedown="handleZoom(evt,'in')"/>
                <use id="zoomminus" xlink:href="#zoomMin" x="42" y="9" onmousedown="handleZoom(evt,'out')"/>
                <use id="reset" xlink:href="#resetDef" x="30" y="36" onmousedown="handleReset()"/>
                <g id="arrowUp" xlink:href="#dirArrow" transform="translate(30 24)" onmousedown="handlePan(0,-1)">
                  <use xlink:href="#rim" fill="#404040">
                        <set attributeName="fill" to="#808080" begin="arrowUp.mouseover" end="arrowUp.mouseout"/>
                  </use>
                  <path fill="none" stroke="white" stroke-width="1.5" d="M0,-3.0v7 M-2.5,-0.5L0,-3.0L2.5,-0.5"/>
                </g>
                <g id="arrowRight" xlink:href="#dirArrow" transform="rotate(90) translate(36 -43)" onmousedown="handlePan(1,0)">
                  <use xlink:href="#rim" fill="#404040">
                        <set attributeName="fill" to="#808080" begin="arrowRight.mouseover" end="arrowRight.mouseout"/>
                  </use>
                  <path fill="none" stroke="white" stroke-width="1.5" d="M0,-3.0v7 M-2.5,-0.5L0,-3.0L2.5,-0.5"/>
                </g>
                <g id="arrowDown" xlink:href="#dirArrow" transform="rotate(180) translate(-30 -48)" onmousedown="handlePan(0,1)">
                  <use xlink:href="#rim" fill="#404040">
                        <set attributeName="fill" to="#808080" begin="arrowDown.mouseover" end="arrowDown.mouseout"/>
                  </use>
                  <path fill="none" stroke="white" stroke-width="1.5" d="M0,-3.0v7 M-2.5,-0.5L0,-3.0L2.5,-0.5"/>
                </g>
                <g id="arrowLeft" xlink:href="#dirArrow" transform="rotate(270) translate(-36 17)" onmousedown="handlePan(-1,0)">
                  <use xlink:href="#rim" fill="#404040">
                        <set attributeName="fill" to="#808080" begin="arrowLeft.mouseover" end="arrowLeft.mouseout"/>
                  </use>
                  <path fill="none" stroke="white" stroke-width="1.5" d="M0,-3.0v7 M-2.5,-0.5L0,-3.0L2.5,-0.5"/>
                </g>
        </g>
        <svg viewBox="0 0 15 15" width="100%" height="30px" preserveAspectRatio="xMaxYMin meet">
         <g id="arrow_out" transform="scale(0.3 0.3)">
          <a xlink:href="class_data_manager_1_1_stored_data__coll__graph_org.svg" target="_base">
           <rect id="button" ry="5" rx="5" y="6" x="6" height="38" width="38"
                fill="#f2f5e9" fill-opacity="0.5" stroke="#606060" stroke-width="1.0"/>
           <path id="arrow"
             d="M 11.500037,31.436501 C 11.940474,20.09759 22.043105,11.32322 32.158766,21.979434 L 37.068811,17.246167 C 37.068811,17.246167 37.088388,32 37.088388,32 L 22.160133,31.978069 C 22.160133,31.978069 26.997745,27.140456 26.997745,27.140456 C 18.528582,18.264221 13.291696,25.230495 11.500037,31.436501 z"
             style="fill:#404040;"/>
          </a>
         </g>
        </svg>
</svg>
