<?xml version="1.0" encoding="UTF-8" standalone="no"?>
<!DOCTYPE svg PUBLIC "-//W3C//DTD SVG 1.1//EN"
 "http://www.w3.org/Graphics/SVG/1.1/DTD/svg11.dtd">
<!-- Generated by graphviz version 2.38.0 (20140413.2041)
 -->
<!-- Title: DataManager Pages: 1 -->
<!--zoomable 1276 -->
<svg id="main" version="1.1" xmlns="http://www.w3.org/2000/svg" xmlns:xlink="http://www.w3.org/1999/xlink" xml:space="preserve" onload="init(evt)">
<style type="text/css"><![CDATA[
.edge:hover path { stroke: red; }
.edge:hover polygon { stroke: red; fill: red; }
]]></style>
<script type="text/javascript"><![CDATA[
var edges = document.getElementsByTagName('g');
if (edges && edges.length) {
  for (var i=0;i<edges.length;i++) {
    if (edges[i].id.substr(0,4)=='edge') {
      edges[i].setAttribute('class','edge');
    }
  }
}
]]></script>
        <defs>
                <circle id="rim" cx="0" cy="0" r="7"/>
                <circle id="rim2" cx="0" cy="0" r="3.5"/>
                <g id="zoomPlus">
                        <use xlink:href="#rim" fill="#404040">
                                <set attributeName="fill" to="#808080" begin="zoomplus.mouseover" end="zoomplus.mouseout"/>
                        </use>
                        <path d="M-4,0h8M0,-4v8" fill="none" stroke="white" stroke-width="1.5" pointer-events="none"/>
                </g>
                <g id="zoomMin">
                        <use xlink:href="#rim" fill="#404040">
                                <set attributeName="fill" to="#808080" begin="zoomminus.mouseover" end="zoomminus.mouseout"/>
                        </use>
                        <path d="M-4,0h8" fill="none" stroke="white" stroke-width="1.5" pointer-events="none"/>
                </g>
                <g id="dirArrow">
                        <path fill="none" stroke="white" stroke-width="1.5" d="M0,-3.0v7 M-2.5,-0.5L0,-3.0L2.5,-0.5"/>
                </g>
               <g id="resetDef">
                       <use xlink:href="#rim2" fill="#404040">
                               <set attributeName="fill" to="#808080" begin="reset.mouseover" end="reset.mouseout"/>
                       </use>
               </g>
        </defs>

<script type="text/javascript">
var viewWidth = 754;
var viewHeight = 1276;
var sectionId = 'dynsection-0';
</script>
<script xlink:href="svgpan.js"/>
<svg id="graph" class="graph">
<g id="viewport">
<title>DataManager</title>
<!-- Node1 -->
<g id="node1" class="node"><title>Node1</title>
<polygon fill="#bfbfbf" stroke="black" points="159.5,-620.5 159.5,-842.5 278.5,-842.5 278.5,-620.5 159.5,-620.5"/>
<text text-anchor="middle" x="219" y="-830.5" font-family="Helvetica,sans-Serif" font-size="10.00">DataManager</text>
<polyline fill="none" stroke="black" points="159.5,-823.5 278.5,-823.5 "/>
<text text-anchor="start" x="167.5" y="-811.5" font-family="Helvetica,sans-Serif" font-size="10.00">+ Players</text>
<text text-anchor="start" x="167.5" y="-800.5" font-family="Helvetica,sans-Serif" font-size="10.00">+ Items</text>
<text text-anchor="start" x="167.5" y="-789.5" font-family="Helvetica,sans-Serif" font-size="10.00">+ Quests</text>
<text text-anchor="start" x="167.5" y="-778.5" font-family="Helvetica,sans-Serif" font-size="10.00">+ Money</text>
<polyline fill="none" stroke="black" points="159.5,-771.5 278.5,-771.5 "/>
<text text-anchor="start" x="167.5" y="-759.5" font-family="Helvetica,sans-Serif" font-size="10.00">+ DataManager()</text>
<text text-anchor="start" x="167.5" y="-748.5" font-family="Helvetica,sans-Serif" font-size="10.00">+ getFirstPlayer()</text>
<text text-anchor="start" x="167.5" y="-737.5" font-family="Helvetica,sans-Serif" font-size="10.00">+ playersAlive()</text>
<text text-anchor="start" x="167.5" y="-726.5" font-family="Helvetica,sans-Serif" font-size="10.00">+ addPlayer()</text>
<text text-anchor="start" x="167.5" y="-715.5" font-family="Helvetica,sans-Serif" font-size="10.00">+ swapPlayers()</text>
<text text-anchor="start" x="167.5" y="-704.5" font-family="Helvetica,sans-Serif" font-size="10.00">+ addItem()</text>
<text text-anchor="start" x="167.5" y="-693.5" font-family="Helvetica,sans-Serif" font-size="10.00">+ removeItem()</text>
<text text-anchor="start" x="167.5" y="-682.5" font-family="Helvetica,sans-Serif" font-size="10.00">+ countItems()</text>
<text text-anchor="start" x="167.5" y="-671.5" font-family="Helvetica,sans-Serif" font-size="10.00">+ Save()</text>
<text text-anchor="start" x="167.5" y="-660.5" font-family="Helvetica,sans-Serif" font-size="10.00">+ Load()</text>
<text text-anchor="start" x="167.5" y="-649.5" font-family="Helvetica,sans-Serif" font-size="10.00">+ getMoveFromStored()</text>
<text text-anchor="start" x="167.5" y="-638.5" font-family="Helvetica,sans-Serif" font-size="10.00">+ getMoveFromPlayer()</text>
<text text-anchor="start" x="167.5" y="-627.5" font-family="Helvetica,sans-Serif" font-size="10.00">+ getItemFromName()</text>
</g>
<!-- Node2 -->
<g id="node2" class="node"><title>Node2</title>
<g id="a_node2"><a xlink:href="class_item.html" target="_top" xlink:title="Abstract class for items that can be equipped to a player, increasing some of their stats ...">
<polygon fill="none" stroke="black" points="194.5,-1061.5 194.5,-1151.5 271.5,-1151.5 271.5,-1061.5 194.5,-1061.5"/>
<text text-anchor="middle" x="233" y="-1139.5" font-family="Helvetica,sans-Serif" font-size="10.00">Item</text>
<polyline fill="none" stroke="black" points="194.5,-1132.5 271.5,-1132.5 "/>
<text text-anchor="start" x="202.5" y="-1120.5" font-family="Helvetica,sans-Serif" font-size="10.00">+ Name</text>
<text text-anchor="start" x="202.5" y="-1109.5" font-family="Helvetica,sans-Serif" font-size="10.00">+ Desc</text>
<text text-anchor="start" x="202.5" y="-1098.5" font-family="Helvetica,sans-Serif" font-size="10.00">+ Cost</text>
<polyline fill="none" stroke="black" points="194.5,-1091.5 271.5,-1091.5 "/>
<text text-anchor="start" x="202.5" y="-1079.5" font-family="Helvetica,sans-Serif" font-size="10.00">+ applyBuffs()</text>
<text text-anchor="start" x="202.5" y="-1068.5" font-family="Helvetica,sans-Serif" font-size="10.00">+ revertBuffs()</text>
</a>
</g>
</g>
<!-- Node2&#45;&gt;Node1 -->
<g id="edge1" class="edge"><title>Node2&#45;&gt;Node1</title>
<path fill="none" stroke="#404040" d="M231.339,-1061.25C229.439,-1010.62 226.247,-925.578 223.585,-854.67"/>
<polygon fill="none" stroke="#404040" points="223.579,-854.506 219.357,-848.661 223.129,-842.515 227.352,-848.361 223.579,-854.506"/>
<text text-anchor="middle" x="244.5" y="-944" font-family="Helvetica,sans-Serif" font-size="10.00"> &#45;items</text>
</g>
<!-- Node6 -->
<g id="node6" class="node"><title>Node6</title>
<g id="a_node6"><a xlink:href="class_player.html" target="_top" xlink:title="Defines a playable character for use in battle scenes">
<polygon fill="none" stroke="black" points="271,-890.5 271,-1002.5 383,-1002.5 383,-890.5 271,-890.5"/>
<text text-anchor="middle" x="327" y="-990.5" font-family="Helvetica,sans-Serif" font-size="10.00">Player</text>
<polyline fill="none" stroke="black" points="271,-983.5 383,-983.5 "/>
<text text-anchor="start" x="279" y="-971.5" font-family="Helvetica,sans-Serif" font-size="10.00">+ Exp</text>
<text text-anchor="start" x="279" y="-960.5" font-family="Helvetica,sans-Serif" font-size="10.00">+ Item</text>
<text text-anchor="start" x="279" y="-949.5" font-family="Helvetica,sans-Serif" font-size="10.00">+ ExpToNextLevel</text>
<polyline fill="none" stroke="black" points="271,-942.5 383,-942.5 "/>
<text text-anchor="start" x="279" y="-930.5" font-family="Helvetica,sans-Serif" font-size="10.00">+ Player()</text>
<text text-anchor="start" x="279" y="-919.5" font-family="Helvetica,sans-Serif" font-size="10.00">+ gainExp()</text>
<text text-anchor="start" x="279" y="-908.5" font-family="Helvetica,sans-Serif" font-size="10.00">+ levelUp()</text>
<text text-anchor="start" x="279" y="-897.5" font-family="Helvetica,sans-Serif" font-size="10.00">&#45; setExpToNextLevel()</text>
</a>
</g>
</g>
<!-- Node2&#45;&gt;Node6 -->
<g id="edge26" class="edge"><title>Node2&#45;&gt;Node6</title>
<path fill="none" stroke="#404040" d="M249.178,-1061.43C254.761,-1048.08 261.515,-1033.62 269,-1021 270.653,-1018.21 272.401,-1015.41 274.218,-1012.62"/>
<polygon fill="none" stroke="#404040" points="274.304,-1012.5 274.375,-1005.29 281.058,-1002.58 280.988,-1009.79 274.304,-1012.5"/>
<text text-anchor="middle" x="281.5" y="-1029.5" font-family="Helvetica,sans-Serif" font-size="10.00"> &#45;item</text>
</g>
<!-- Node3 -->
<g id="node3" class="node"><title>Node3</title>
<polygon fill="none" stroke="#bfbfbf" points="590.5,-1210.5 590.5,-1267.5 631.5,-1267.5 631.5,-1210.5 590.5,-1210.5"/>
<text text-anchor="middle" x="611" y="-1255.5" font-family="Helvetica,sans-Serif" font-size="10.00">string</text>
<polyline fill="none" stroke="#bfbfbf" points="590.5,-1248.5 631.5,-1248.5 "/>
<text text-anchor="middle" x="611" y="-1236.5" font-family="Helvetica,sans-Serif" font-size="10.00"> </text>
<polyline fill="none" stroke="#bfbfbf" points="590.5,-1229.5 631.5,-1229.5 "/>
<text text-anchor="middle" x="611" y="-1217.5" font-family="Helvetica,sans-Serif" font-size="10.00"> </text>
</g>
<!-- Node3&#45;&gt;Node2 -->
<g id="edge2" class="edge"><title>Node3&#45;&gt;Node2</title>
<path fill="none" stroke="#404040" d="M590.478,-1235.73C537.429,-1229.21 392.467,-1207.23 286,-1152 284.62,-1151.28 283.245,-1150.53 281.876,-1149.73"/>
<polygon fill="none" stroke="#404040" points="281.651,-1149.59 274.441,-1149.69 271.578,-1143.07 278.788,-1142.97 281.651,-1149.59"/>
<text text-anchor="middle" x="395" y="-1184" font-family="Helvetica,sans-Serif" font-size="10.00"> #desc</text>
<text text-anchor="middle" x="395" y="-1173" font-family="Helvetica,sans-Serif" font-size="10.00">#name</text>
</g>
<!-- Node7 -->
<g id="node7" class="node"><title>Node7</title>
<g id="a_node7"><a xlink:href="class_character.html" target="_top" xlink:title="Base abstract class for Enemy and Player to inherit from. Defines all shared variables, their constructor and their setters and getters ">
<polygon fill="none" stroke="black" points="302.5,-95.5 302.5,-306.5 397.5,-306.5 397.5,-95.5 302.5,-95.5"/>
<text text-anchor="middle" x="350" y="-294.5" font-family="Helvetica,sans-Serif" font-size="10.00">Character</text>
<polyline fill="none" stroke="black" points="302.5,-287.5 397.5,-287.5 "/>
<text text-anchor="start" x="310.5" y="-275.5" font-family="Helvetica,sans-Serif" font-size="10.00">+ Name</text>
<text text-anchor="start" x="310.5" y="-264.5" font-family="Helvetica,sans-Serif" font-size="10.00">+ Level</text>
<text text-anchor="start" x="310.5" y="-253.5" font-family="Helvetica,sans-Serif" font-size="10.00">+ Health</text>
<text text-anchor="start" x="310.5" y="-242.5" font-family="Helvetica,sans-Serif" font-size="10.00">+ Attack</text>
<text text-anchor="start" x="310.5" y="-231.5" font-family="Helvetica,sans-Serif" font-size="10.00">+ Defence</text>
<text text-anchor="start" x="310.5" y="-220.5" font-family="Helvetica,sans-Serif" font-size="10.00">+ MaximumMagic</text>
<text text-anchor="start" x="310.5" y="-209.5" font-family="Helvetica,sans-Serif" font-size="10.00">+ Magic</text>
<text text-anchor="start" x="310.5" y="-198.5" font-family="Helvetica,sans-Serif" font-size="10.00">+ Luck</text>
<text text-anchor="start" x="310.5" y="-187.5" font-family="Helvetica,sans-Serif" font-size="10.00">+ Speed</text>
<text text-anchor="start" x="310.5" y="-176.5" font-family="Helvetica,sans-Serif" font-size="10.00">+ Rage</text>
<text text-anchor="start" x="310.5" y="-165.5" font-family="Helvetica,sans-Serif" font-size="10.00">+ CanRage</text>
<text text-anchor="start" x="310.5" y="-154.5" font-family="Helvetica,sans-Serif" font-size="10.00">+ Special1</text>
<text text-anchor="start" x="310.5" y="-143.5" font-family="Helvetica,sans-Serif" font-size="10.00">+ Special2</text>
<text text-anchor="start" x="310.5" y="-132.5" font-family="Helvetica,sans-Serif" font-size="10.00">+ Image</text>
<polyline fill="none" stroke="black" points="302.5,-125.5 397.5,-125.5 "/>
<text text-anchor="start" x="310.5" y="-113.5" font-family="Helvetica,sans-Serif" font-size="10.00">+ IsEnraged()</text>
<text text-anchor="start" x="310.5" y="-102.5" font-family="Helvetica,sans-Serif" font-size="10.00"># Character()</text>
</a>
</g>
</g>
<!-- Node3&#45;&gt;Node7 -->
<g id="edge8" class="edge"><title>Node3&#45;&gt;Node7</title>
<path fill="none" stroke="#404040" d="M631.641,-1224.71C661.446,-1203.72 713,-1159.84 713,-1107.5 713,-1107.5 713,-1107.5 713,-409.5 713,-271.56 512.991,-224.072 409.901,-208.756"/>
<polygon fill="none" stroke="#404040" points="409.71,-208.729 403.208,-211.847 397.829,-207.044 404.331,-203.926 409.71,-208.729"/>
<text text-anchor="middle" x="729.5" y="-729" font-family="Helvetica,sans-Serif" font-size="10.00"> #name</text>
</g>
<!-- Node9 -->
<g id="node9" class="node"><title>Node9</title>
<g id="a_node9"><a xlink:href="class_special_move.html" target="_top" xlink:title="Special move abstract base class that expands upon CharacterMove, adding magic properties ...">
<polygon fill="none" stroke="black" points="394,-365.5 394,-455.5 492,-455.5 492,-365.5 394,-365.5"/>
<text text-anchor="middle" x="443" y="-443.5" font-family="Helvetica,sans-Serif" font-size="10.00">SpecialMove</text>
<polyline fill="none" stroke="black" points="394,-436.5 492,-436.5 "/>
<text text-anchor="start" x="402" y="-424.5" font-family="Helvetica,sans-Serif" font-size="10.00">+ Magic</text>
<text text-anchor="start" x="402" y="-413.5" font-family="Helvetica,sans-Serif" font-size="10.00">+ Desc</text>
<polyline fill="none" stroke="black" points="394,-406.5 492,-406.5 "/>
<text text-anchor="start" x="402" y="-394.5" font-family="Helvetica,sans-Serif" font-size="10.00">+ setUp()</text>
<text text-anchor="start" x="402" y="-383.5" font-family="Helvetica,sans-Serif" font-size="10.00">+ decreaseMagic()</text>
<text text-anchor="start" x="402" y="-372.5" font-family="Helvetica,sans-Serif" font-size="10.00"># SpecialMove()</text>
</a>
</g>
</g>
<!-- Node3&#45;&gt;Node9 -->
<g id="edge23" class="edge"><title>Node3&#45;&gt;Node9</title>
<path fill="none" stroke="#404040" d="M629.537,-1210.29C644.82,-1184.73 664,-1145.16 664,-1107.5 664,-1107.5 664,-1107.5 664,-865.5 664,-822.894 599.746,-526.165 573,-493 551.812,-466.727 532.861,-474.191 502.743,-458.878"/>
<polygon fill="none" stroke="#404040" points="502.477,-458.724 495.281,-459.192 492.082,-452.73 499.278,-452.262 502.477,-458.724"/>
<text text-anchor="middle" x="679" y="-864" font-family="Helvetica,sans-Serif" font-size="10.00"> #desc</text>
</g>
<!-- Node10 -->
<g id="node10" class="node"><title>Node10</title>
<g id="a_node10"><a xlink:href="class_character_move.html" target="_top" xlink:title="Astract base class for character moves ">
<polygon fill="none" stroke="black" points="478,-493.5 478,-572.5 564,-572.5 564,-493.5 478,-493.5"/>
<text text-anchor="middle" x="521" y="-560.5" font-family="Helvetica,sans-Serif" font-size="10.00">CharacterMove</text>
<polyline fill="none" stroke="black" points="478,-553.5 564,-553.5 "/>
<text text-anchor="start" x="486" y="-541.5" font-family="Helvetica,sans-Serif" font-size="10.00">+ User</text>
<text text-anchor="start" x="486" y="-530.5" font-family="Helvetica,sans-Serif" font-size="10.00">+ Target</text>
<text text-anchor="start" x="486" y="-519.5" font-family="Helvetica,sans-Serif" font-size="10.00">+ Text</text>
<polyline fill="none" stroke="black" points="478,-512.5 564,-512.5 "/>
<text text-anchor="start" x="486" y="-500.5" font-family="Helvetica,sans-Serif" font-size="10.00">+ performMove()</text>
</a>
</g>
</g>
<!-- Node3&#45;&gt;Node10 -->
<g id="edge13" class="edge"><title>Node3&#45;&gt;Node10</title>
<path fill="none" stroke="#404040" d="M609.548,-1210.22C607.282,-1168.9 602.484,-1088.85 596,-1021 577.649,-828.973 576.881,-779.734 537,-591 536.549,-588.868 536.064,-586.698 535.552,-584.511"/>
<polygon fill="none" stroke="#404040" points="535.528,-584.413 530.191,-579.564 532.615,-572.772 537.952,-577.622 535.528,-584.413"/>
<text text-anchor="middle" x="607.5" y="-944" font-family="Helvetica,sans-Serif" font-size="10.00"> #text</text>
</g>
<!-- Node11 -->
<g id="node11" class="node"><title>Node11</title>
<g id="a_node11"><a xlink:href="class_battle_manager.html" target="_top" xlink:title="Holds current Player and Enemy objects in battle and provides functions for MainBattle and other obje...">
<polygon fill="none" stroke="black" points="346,-637 346,-826 462,-826 462,-637 346,-637"/>
<text text-anchor="middle" x="404" y="-814" font-family="Helvetica,sans-Serif" font-size="10.00">BattleManager</text>
<polyline fill="none" stroke="black" points="346,-807 462,-807 "/>
<text text-anchor="start" x="354" y="-795" font-family="Helvetica,sans-Serif" font-size="10.00">+ Player</text>
<text text-anchor="start" x="354" y="-784" font-family="Helvetica,sans-Serif" font-size="10.00">+ Enemy</text>
<text text-anchor="start" x="354" y="-773" font-family="Helvetica,sans-Serif" font-size="10.00">+ WasCriticalHit</text>
<polyline fill="none" stroke="black" points="346,-766 462,-766 "/>
<text text-anchor="start" x="354" y="-754" font-family="Helvetica,sans-Serif" font-size="10.00">+ BattleManager()</text>
<text text-anchor="start" x="354" y="-743" font-family="Helvetica,sans-Serif" font-size="10.00">+ playerFirst()</text>
<text text-anchor="start" x="354" y="-732" font-family="Helvetica,sans-Serif" font-size="10.00">+ switchPlayers()</text>
<text text-anchor="start" x="354" y="-721" font-family="Helvetica,sans-Serif" font-size="10.00">+ isCriticalHit()</text>
<text text-anchor="start" x="354" y="-710" font-family="Helvetica,sans-Serif" font-size="10.00">+ ranAway()</text>
<text text-anchor="start" x="354" y="-699" font-family="Helvetica,sans-Serif" font-size="10.00">+ damageCalculation()</text>
<text text-anchor="start" x="354" y="-688" font-family="Helvetica,sans-Serif" font-size="10.00">+ enemyMove()</text>
<text text-anchor="start" x="354" y="-677" font-family="Helvetica,sans-Serif" font-size="10.00">+ enemySpecialMove()</text>
<text text-anchor="start" x="354" y="-666" font-family="Helvetica,sans-Serif" font-size="10.00">+ battleWon()</text>
<text text-anchor="start" x="354" y="-655" font-family="Helvetica,sans-Serif" font-size="10.00">+ playerFainted()</text>
<text text-anchor="start" x="354" y="-644" font-family="Helvetica,sans-Serif" font-size="10.00">&#45; characterFainted()</text>
</a>
</g>
</g>
<!-- Node3&#45;&gt;Node11 -->
<g id="edge16" class="edge"><title>Node3&#45;&gt;Node11</title>
<path fill="none" stroke="#404040" d="M595.25,-1210.45C561.696,-1150.67 482.593,-1003.82 438,-872 434.286,-861.02 430.799,-849.426 427.579,-837.804"/>
<polygon fill="none" stroke="#404040" points="427.573,-837.78 422.15,-833.028 424.451,-826.194 429.874,-830.946 427.573,-837.78"/>
<text text-anchor="middle" x="550" y="-1035" font-family="Helvetica,sans-Serif" font-size="10.00"> +forceEnemyMove</text>
<text text-anchor="middle" x="550" y="-1024" font-family="Helvetica,sans-Serif" font-size="10.00">+forceCriticalHits</text>
</g>
<!-- Node4 -->
<g id="node4" class="node"><title>Node4</title>
<polygon fill="none" stroke="#bfbfbf" points="218.5,-1210.5 218.5,-1267.5 247.5,-1267.5 247.5,-1210.5 218.5,-1210.5"/>
<text text-anchor="middle" x="233" y="-1255.5" font-family="Helvetica,sans-Serif" font-size="10.00">int</text>
<polyline fill="none" stroke="#bfbfbf" points="218.5,-1248.5 247.5,-1248.5 "/>
<text text-anchor="middle" x="233" y="-1236.5" font-family="Helvetica,sans-Serif" font-size="10.00"> </text>
<polyline fill="none" stroke="#bfbfbf" points="218.5,-1229.5 247.5,-1229.5 "/>
<text text-anchor="middle" x="233" y="-1217.5" font-family="Helvetica,sans-Serif" font-size="10.00"> </text>
</g>
<!-- Node4&#45;&gt;Node1 -->
<g id="edge4" class="edge"><title>Node4&#45;&gt;Node1</title>
<path fill="none" stroke="#404040" d="M218.481,-1220.27C188.941,-1182.92 122.646,-1092.21 99,-1003 86.1318,-954.454 82.938,-937.584 99,-890 99.8008,-887.628 124.742,-854.774 151.679,-819.683"/>
<polygon fill="none" stroke="#404040" points="152,-819.265 152.483,-812.07 159.311,-809.75 158.827,-816.944 152,-819.265"/>
<text text-anchor="middle" x="130" y="-1029.5" font-family="Helvetica,sans-Serif" font-size="10.00"> &#45;money</text>
</g>
<!-- Node4&#45;&gt;Node2 -->
<g id="edge3" class="edge"><title>Node4&#45;&gt;Node2</title>
<path fill="none" stroke="#404040" d="M233,-1210.32C233,-1196.73 233,-1179.84 233,-1163.7"/>
<polygon fill="none" stroke="#404040" points="233,-1163.57 229,-1157.57 233,-1151.57 237,-1157.57 233,-1163.57"/>
<text text-anchor="middle" x="247" y="-1178.5" font-family="Helvetica,sans-Serif" font-size="10.00"> #cost</text>
</g>
<!-- Node4&#45;&gt;Node6 -->
<g id="edge27" class="edge"><title>Node4&#45;&gt;Node6</title>
<path fill="none" stroke="#404040" d="M247.5,-1219.43C253.42,-1211.3 260.027,-1201.48 265,-1192 294.327,-1136.12 310.284,-1065.67 318.629,-1014.76"/>
<polygon fill="none" stroke="#404040" points="318.679,-1014.44 315.659,-1007.89 320.541,-1002.59 323.562,-1009.13 318.679,-1014.44"/>
<text text-anchor="middle" x="347.5" y="-1109.5" font-family="Helvetica,sans-Serif" font-size="10.00"> &#45;expToNextLevel</text>
<text text-anchor="middle" x="347.5" y="-1098.5" font-family="Helvetica,sans-Serif" font-size="10.00">&#45;exp</text>
</g>
<!-- Node4&#45;&gt;Node7 -->
<g id="edge9" class="edge"><title>Node4&#45;&gt;Node7</title>
<path fill="none" stroke="#404040" d="M218.196,-1231.41C193.117,-1219.43 142.521,-1191.62 117,-1152 -11.4277,-952.599 18.1804,-850.274 75,-620 111.145,-473.516 224.833,-333.386 294.204,-258.419"/>
<polygon fill="none" stroke="#404040" points="294.246,-258.374 295.417,-251.259 302.436,-249.604 301.264,-256.719 294.246,-258.374"/>
<text text-anchor="middle" x="112.5" y="-773" font-family="Helvetica,sans-Serif" font-size="10.00"> #speed</text>
<text text-anchor="middle" x="112.5" y="-762" font-family="Helvetica,sans-Serif" font-size="10.00">#luck</text>
<text text-anchor="middle" x="112.5" y="-751" font-family="Helvetica,sans-Serif" font-size="10.00">#health</text>
<text text-anchor="middle" x="112.5" y="-740" font-family="Helvetica,sans-Serif" font-size="10.00">#magic</text>
<text text-anchor="middle" x="112.5" y="-729" font-family="Helvetica,sans-Serif" font-size="10.00">#maximumMagic</text>
<text text-anchor="middle" x="112.5" y="-718" font-family="Helvetica,sans-Serif" font-size="10.00">#attack</text>
<text text-anchor="middle" x="112.5" y="-707" font-family="Helvetica,sans-Serif" font-size="10.00">#defence</text>
<text text-anchor="middle" x="112.5" y="-696" font-family="Helvetica,sans-Serif" font-size="10.00">#level</text>
<text text-anchor="middle" x="112.5" y="-685" font-family="Helvetica,sans-Serif" font-size="10.00">#rage</text>
</g>
<!-- Node4&#45;&gt;Node9 -->
<g id="edge24" class="edge"><title>Node4&#45;&gt;Node9</title>
<path fill="none" stroke="#404040" d="M247.758,-1236.23C275.354,-1232.32 335.708,-1220.88 377,-1192 469.662,-1127.19 484.735,-1031.96 514,-872 514.88,-867.191 514.383,-865.874 514,-861 513.233,-851.23 470.978,-586.421 452.027,-467.908"/>
<polygon fill="none" stroke="#404040" points="452.001,-467.743 447.104,-462.45 450.106,-455.893 455.003,-461.186 452.001,-467.743"/>
<text text-anchor="middle" x="532.5" y="-864" font-family="Helvetica,sans-Serif" font-size="10.00"> #magic</text>
</g>
<!-- Node4&#45;&gt;Node11 -->
<g id="edge20" class="edge"><title>Node4&#45;&gt;Node11</title>
<path fill="none" stroke="#404040" d="M247.963,-1234.9C280.379,-1227.31 356.761,-1204.42 389,-1152 397.114,-1138.81 401.067,-958.071 402.807,-838.178"/>
<polygon fill="none" stroke="#404040" points="402.808,-838.048 398.894,-831.992 402.978,-826.05 406.893,-832.106 402.808,-838.048"/>
<text text-anchor="middle" x="418.5" y="-1029.5" font-family="Helvetica,sans-Serif" font-size="10.00"> +money</text>
</g>
<!-- Node12 -->
<g id="node12" class="node"><title>Node12</title>
<g id="a_node12"><a xlink:href="class_enemy.html" target="_top" xlink:title="Defines an AI controller enemy to fight in battle scenes">
<polygon fill="none" stroke="black" points="65.5,-0.5 65.5,-57.5 132.5,-57.5 132.5,-0.5 65.5,-0.5"/>
<text text-anchor="middle" x="99" y="-45.5" font-family="Helvetica,sans-Serif" font-size="10.00">Enemy</text>
<polyline fill="none" stroke="black" points="65.5,-38.5 132.5,-38.5 "/>
<text text-anchor="start" x="73.5" y="-26.5" font-family="Helvetica,sans-Serif" font-size="10.00">+ ExpGiven</text>
<polyline fill="none" stroke="black" points="65.5,-19.5 132.5,-19.5 "/>
<text text-anchor="start" x="73.5" y="-7.5" font-family="Helvetica,sans-Serif" font-size="10.00">+ Enemy()</text>
</a>
</g>
</g>
<!-- Node4&#45;&gt;Node12 -->
<g id="edge19" class="edge"><title>Node4&#45;&gt;Node12</title>
<path fill="none" stroke="#404040" d="M218.425,-1236.84C167.415,-1231.92 0,-1208.11 0,-1107.5 0,-1107.5 0,-1107.5 0,-200 0,-148.554 34.2755,-98.7929 62.4909,-66.5455"/>
<polygon fill="none" stroke="#404040" points="62.5923,-66.433 63.6415,-59.2986 70.6306,-57.523 69.5815,-64.6574 62.5923,-66.433"/>
<text text-anchor="middle" x="23" y="-594" font-family="Helvetica,sans-Serif" font-size="10.00"> &#45;expGiven</text>
</g>
<!-- Node5 -->
<g id="node5" class="node"><title>Node5</title>
<polygon fill="none" stroke="#bfbfbf" points="108.5,-918 108.5,-975 185.5,-975 185.5,-918 108.5,-918"/>
<text text-anchor="middle" x="147" y="-963" font-family="Helvetica,sans-Serif" font-size="10.00">List&lt; Quest &gt;</text>
<polyline fill="none" stroke="#bfbfbf" points="108.5,-956 185.5,-956 "/>
<text text-anchor="middle" x="147" y="-944" font-family="Helvetica,sans-Serif" font-size="10.00"> </text>
<polyline fill="none" stroke="#bfbfbf" points="108.5,-937 185.5,-937 "/>
<text text-anchor="middle" x="147" y="-925" font-family="Helvetica,sans-Serif" font-size="10.00"> </text>
</g>
<!-- Node5&#45;&gt;Node1 -->
<g id="edge5" class="edge"><title>Node5&#45;&gt;Node1</title>
<path fill="none" stroke="#404040" d="M154.672,-917.964C159.411,-901.379 165.76,-879.884 172,-861 172.741,-858.759 173.495,-856.498 174.26,-854.222"/>
<polygon fill="none" stroke="#404040" points="174.3,-854.103 172.448,-847.134 178.169,-842.743 180.021,-849.712 174.3,-854.103"/>
<text text-anchor="middle" x="190" y="-864" font-family="Helvetica,sans-Serif" font-size="10.00"> &#45;quests</text>
</g>
<!-- Node6&#45;&gt;Node1 -->
<g id="edge6" class="edge"><title>Node6&#45;&gt;Node1</title>
<path fill="none" stroke="#404040" d="M270.84,-893.472C265.296,-886.637 260.185,-879.417 256,-872 252.768,-866.272 249.81,-860.251 247.103,-854.059"/>
<polygon fill="none" stroke="#404040" points="247.025,-853.867 241.057,-849.819 242.498,-842.753 248.466,-846.801 247.025,-853.867"/>
<text text-anchor="middle" x="275" y="-864" font-family="Helvetica,sans-Serif" font-size="10.00"> &#45;players</text>
</g>
<!-- Node6&#45;&gt;Node11 -->
<g id="edge22" class="edge"><title>Node6&#45;&gt;Node11</title>
<path fill="none" stroke="#404040" d="M334.525,-890.416C336.514,-880.506 338.976,-870.357 342,-861 344.537,-853.15 347.463,-845.168 350.635,-837.221"/>
<polygon fill="none" stroke="#404040" points="350.679,-837.114 349.277,-830.041 355.267,-826.026 356.669,-833.099 350.679,-837.114"/>
<text text-anchor="middle" x="358.5" y="-864" font-family="Helvetica,sans-Serif" font-size="10.00"> &#45;player</text>
</g>
<!-- Node7&#45;&gt;Node6 -->
<g id="edge7" class="edge"><title>Node7&#45;&gt;Node6</title>
<path fill="none" stroke="midnightblue" d="M318.308,-316.786C312.378,-346.726 308,-379.12 308,-409.5 308,-732.5 308,-732.5 308,-732.5 308,-786.333 314.096,-847.517 319.381,-890.454"/>
<polygon fill="none" stroke="midnightblue" points="321.789,-317.233 320.374,-306.733 314.933,-315.824 321.789,-317.233"/>
</g>
<!-- Node7&#45;&gt;Node10 -->
<g id="edge14" class="edge"><title>Node7&#45;&gt;Node10</title>
<path fill="none" stroke="#404040" d="M397.666,-239.036C432.508,-268.996 477.601,-314.408 501,-365 517.867,-401.468 522.38,-446.981 522.946,-481.28"/>
<polygon fill="none" stroke="#404040" points="522.947,-481.371 526.969,-487.356 522.992,-493.371 518.969,-487.386 522.947,-481.371"/>
<text text-anchor="middle" x="539" y="-413.5" font-family="Helvetica,sans-Serif" font-size="10.00"> #target</text>
<text text-anchor="middle" x="539" y="-402.5" font-family="Helvetica,sans-Serif" font-size="10.00">#user</text>
</g>
<!-- Node7&#45;&gt;Node12 -->
<g id="edge18" class="edge"><title>Node7&#45;&gt;Node12</title>
<path fill="none" stroke="midnightblue" d="M294.124,-162.156C244.62,-128.627 173.972,-80.7776 132.66,-52.7977"/>
<polygon fill="none" stroke="midnightblue" points="292.251,-165.115 302.494,-167.824 296.177,-159.319 292.251,-165.115"/>
</g>
<!-- Node8 -->
<g id="node8" class="node"><title>Node8</title>
<polygon fill="none" stroke="#bfbfbf" points="536.5,-918 536.5,-975 571.5,-975 571.5,-918 536.5,-918"/>
<text text-anchor="middle" x="554" y="-963" font-family="Helvetica,sans-Serif" font-size="10.00">bool</text>
<polyline fill="none" stroke="#bfbfbf" points="536.5,-956 571.5,-956 "/>
<text text-anchor="middle" x="554" y="-944" font-family="Helvetica,sans-Serif" font-size="10.00"> </text>
<polyline fill="none" stroke="#bfbfbf" points="536.5,-937 571.5,-937 "/>
<text text-anchor="middle" x="554" y="-925" font-family="Helvetica,sans-Serif" font-size="10.00"> </text>
</g>
<!-- Node8&#45;&gt;Node7 -->
<g id="edge10" class="edge"><title>Node8&#45;&gt;Node7</title>
<path fill="none" stroke="#404040" d="M562.945,-917.862C585.342,-844.754 639.69,-640.48 606,-474 595.571,-422.463 592.032,-406.698 560,-365 518.309,-310.728 454.457,-264.64 408.106,-235.463"/>
<polygon fill="none" stroke="#404040" points="408.104,-235.463 400.897,-235.699 397.906,-229.138 405.114,-228.901 408.104,-235.463"/>
<text text-anchor="middle" x="640.5" y="-530.5" font-family="Helvetica,sans-Serif" font-size="10.00"> #canRage</text>
</g>
<!-- Node8&#45;&gt;Node11 -->
<g id="edge21" class="edge"><title>Node8&#45;&gt;Node11</title>
<path fill="none" stroke="#404040" d="M536.462,-935.264C509.634,-919.3 460.221,-888.586 448,-872 440.33,-861.591 433.971,-849.804 428.704,-837.6"/>
<polygon fill="none" stroke="#404040" points="428.639,-837.438 422.691,-833.36 424.168,-826.302 430.115,-830.38 428.639,-837.438"/>
<text text-anchor="middle" x="481" y="-864" font-family="Helvetica,sans-Serif" font-size="10.00"> &#45;wasCriticalHit</text>
</g>
<!-- Node9&#45;&gt;Node7 -->
<g id="edge11" class="edge"><title>Node9&#45;&gt;Node7</title>
<path fill="none" stroke="#404040" d="M423.277,-365.495C416.891,-351.247 409.483,-334.719 401.881,-317.756"/>
<polygon fill="none" stroke="#404040" points="401.774,-317.517 395.67,-313.678 396.866,-306.567 402.97,-310.406 401.774,-317.517"/>
<text text-anchor="middle" x="435.5" y="-339" font-family="Helvetica,sans-Serif" font-size="10.00"> #special1</text>
<text text-anchor="middle" x="435.5" y="-328" font-family="Helvetica,sans-Serif" font-size="10.00">#special2</text>
</g>
<!-- Node10&#45;&gt;Node9 -->
<g id="edge12" class="edge"><title>Node10&#45;&gt;Node9</title>
<path fill="none" stroke="midnightblue" d="M490.323,-484.607C484.149,-475.07 477.684,-465.083 471.586,-455.661"/>
<polygon fill="none" stroke="midnightblue" points="487.519,-486.717 495.891,-493.21 493.395,-482.913 487.519,-486.717"/>
</g>
<!-- Node11&#45;&gt;Node10 -->
<g id="edge15" class="edge"><title>Node11&#45;&gt;Node10</title>
<path fill="none" stroke="#404040" d="M459.759,-636.854C470.863,-618.204 482.1,-599.332 491.863,-582.935"/>
<polygon fill="none" stroke="#404040" points="491.911,-582.854 491.544,-575.653 498.05,-572.544 498.418,-579.745 491.911,-582.854"/>
<text text-anchor="middle" x="510" y="-594" font-family="Helvetica,sans-Serif" font-size="10.00"> #manager</text>
</g>
<!-- Node12&#45;&gt;Node11 -->
<g id="edge17" class="edge"><title>Node12&#45;&gt;Node11</title>
<path fill="none" stroke="#404040" d="M99,-57.6786C99,-91.3232 99,-149.826 99,-200 99,-534 99,-534 99,-534 99,-625.883 210.801,-568.656 287,-620 304.239,-631.615 321.339,-645.812 336.926,-660.109"/>
<polygon fill="none" stroke="#404040" points="337.154,-660.323 344.268,-661.5 345.918,-668.52 338.804,-667.342 337.154,-660.323"/>
<text text-anchor="middle" x="117" y="-408" font-family="Helvetica,sans-Serif" font-size="10.00"> &#45;enemy</text>
</g>
<!-- Node13 -->
<g id="node13" class="node"><title>Node13</title>
<polygon fill="none" stroke="#bfbfbf" points="218.5,-382 218.5,-439 279.5,-439 279.5,-382 218.5,-382"/>
<text text-anchor="middle" x="249" y="-427" font-family="Helvetica,sans-Serif" font-size="10.00">Texture2D</text>
<polyline fill="none" stroke="#bfbfbf" points="218.5,-420 279.5,-420 "/>
<text text-anchor="middle" x="249" y="-408" font-family="Helvetica,sans-Serif" font-size="10.00"> </text>
<polyline fill="none" stroke="#bfbfbf" points="218.5,-401 279.5,-401 "/>
<text text-anchor="middle" x="249" y="-389" font-family="Helvetica,sans-Serif" font-size="10.00"> </text>
</g>
<!-- Node13&#45;&gt;Node7 -->
<g id="edge25" class="edge"><title>Node13&#45;&gt;Node7</title>
<path fill="none" stroke="#404040" d="M248.708,-381.989C249.38,-365.027 251.815,-343.128 259,-325 267.587,-303.335 280.977,-282.074 294.868,-263.484"/>
<polygon fill="none" stroke="#404040" points="295.057,-263.238 295.55,-256.044 302.381,-253.733 301.888,-260.927 295.057,-263.238"/>
<text text-anchor="middle" x="276.5" y="-333.5" font-family="Helvetica,sans-Serif" font-size="10.00"> #image</text>
</g>
</g>
</svg>
        <g id="navigator" transform="translate(0 0)" fill="#404254">
                <rect fill="#f2f5e9" fill-opacity="0.5" stroke="#606060" stroke-width=".5" x="0" y="0" width="60" height="60"/>
                <use id="zoomplus" xlink:href="#zoomPlus" x="17" y="9" onmousedown="handleZoom(evt,'in')"/>
                <use id="zoomminus" xlink:href="#zoomMin" x="42" y="9" onmousedown="handleZoom(evt,'out')"/>
                <use id="reset" xlink:href="#resetDef" x="30" y="36" onmousedown="handleReset()"/>
                <g id="arrowUp" xlink:href="#dirArrow" transform="translate(30 24)" onmousedown="handlePan(0,-1)">
                  <use xlink:href="#rim" fill="#404040">
                        <set attributeName="fill" to="#808080" begin="arrowUp.mouseover" end="arrowUp.mouseout"/>
                  </use>
                  <path fill="none" stroke="white" stroke-width="1.5" d="M0,-3.0v7 M-2.5,-0.5L0,-3.0L2.5,-0.5"/>
                </g>
                <g id="arrowRight" xlink:href="#dirArrow" transform="rotate(90) translate(36 -43)" onmousedown="handlePan(1,0)">
                  <use xlink:href="#rim" fill="#404040">
                        <set attributeName="fill" to="#808080" begin="arrowRight.mouseover" end="arrowRight.mouseout"/>
                  </use>
                  <path fill="none" stroke="white" stroke-width="1.5" d="M0,-3.0v7 M-2.5,-0.5L0,-3.0L2.5,-0.5"/>
                </g>
                <g id="arrowDown" xlink:href="#dirArrow" transform="rotate(180) translate(-30 -48)" onmousedown="handlePan(0,1)">
                  <use xlink:href="#rim" fill="#404040">
                        <set attributeName="fill" to="#808080" begin="arrowDown.mouseover" end="arrowDown.mouseout"/>
                  </use>
                  <path fill="none" stroke="white" stroke-width="1.5" d="M0,-3.0v7 M-2.5,-0.5L0,-3.0L2.5,-0.5"/>
                </g>
                <g id="arrowLeft" xlink:href="#dirArrow" transform="rotate(270) translate(-36 17)" onmousedown="handlePan(-1,0)">
                  <use xlink:href="#rim" fill="#404040">
                        <set attributeName="fill" to="#808080" begin="arrowLeft.mouseover" end="arrowLeft.mouseout"/>
                  </use>
                  <path fill="none" stroke="white" stroke-width="1.5" d="M0,-3.0v7 M-2.5,-0.5L0,-3.0L2.5,-0.5"/>
                </g>
        </g>
        <svg viewBox="0 0 15 15" width="100%" height="30px" preserveAspectRatio="xMaxYMin meet">
         <g id="arrow_out" transform="scale(0.3 0.3)">
          <a xlink:href="class_data_manager__coll__graph_org.svg" target="_base">
           <rect id="button" ry="5" rx="5" y="6" x="6" height="38" width="38"
                fill="#f2f5e9" fill-opacity="0.5" stroke="#606060" stroke-width="1.0"/>
           <path id="arrow"
             d="M 11.500037,31.436501 C 11.940474,20.09759 22.043105,11.32322 32.158766,21.979434 L 37.068811,17.246167 C 37.068811,17.246167 37.088388,32 37.088388,32 L 22.160133,31.978069 C 22.160133,31.978069 26.997745,27.140456 26.997745,27.140456 C 18.528582,18.264221 13.291696,25.230495 11.500037,31.436501 z"
             style="fill:#404040;"/>
          </a>
         </g>
        </svg>
</svg>
