<?xml version="1.0" encoding="UTF-8" standalone="no"?>
<!DOCTYPE svg PUBLIC "-//W3C//DTD SVG 1.1//EN"
 "http://www.w3.org/Graphics/SVG/1.1/DTD/svg11.dtd">
<!-- Generated by graphviz version 2.38.0 (20140413.2041)
 -->
<!-- Title: SpecialMove Pages: 1 -->
<svg width="799pt" height="1028pt"
 viewBox="0.00 0.00 799.00 1028.00" xmlns="http://www.w3.org/2000/svg" xmlns:xlink="http://www.w3.org/1999/xlink">
<g id="graph0" class="graph" transform="scale(1 1) rotate(0) translate(4 1024)">
<title>SpecialMove</title>
<!-- Node9 -->
<g id="node1" class="node"><title>Node9</title>
<polygon fill="#bfbfbf" stroke="black" points="143,-809.5 143,-899.5 241,-899.5 241,-809.5 143,-809.5"/>
<text text-anchor="middle" x="192" y="-887.5" font-family="Helvetica,sans-Serif" font-size="10.00">SpecialMove</text>
<polyline fill="none" stroke="black" points="143,-880.5 241,-880.5 "/>
<text text-anchor="start" x="151" y="-868.5" font-family="Helvetica,sans-Serif" font-size="10.00">+ Magic</text>
<text text-anchor="start" x="151" y="-857.5" font-family="Helvetica,sans-Serif" font-size="10.00">+ Desc</text>
<polyline fill="none" stroke="black" points="143,-850.5 241,-850.5 "/>
<text text-anchor="start" x="151" y="-838.5" font-family="Helvetica,sans-Serif" font-size="10.00">+ setUp()</text>
<text text-anchor="start" x="151" y="-827.5" font-family="Helvetica,sans-Serif" font-size="10.00">+ decreaseMagic()</text>
<text text-anchor="start" x="151" y="-816.5" font-family="Helvetica,sans-Serif" font-size="10.00"># SpecialMove()</text>
</g>
<!-- Node12 -->
<g id="node4" class="node"><title>Node12</title>
<g id="a_node4"><a xlink:href="class_character.html" target="_top" xlink:title="Base abstract class for Enemy and Player to inherit from. Defines all shared variables, their constructor and their setters and getters ">
<polygon fill="none" stroke="black" points="276.5,-535.5 276.5,-746.5 371.5,-746.5 371.5,-535.5 276.5,-535.5"/>
<text text-anchor="middle" x="324" y="-734.5" font-family="Helvetica,sans-Serif" font-size="10.00">Character</text>
<polyline fill="none" stroke="black" points="276.5,-727.5 371.5,-727.5 "/>
<text text-anchor="start" x="284.5" y="-715.5" font-family="Helvetica,sans-Serif" font-size="10.00">+ Name</text>
<text text-anchor="start" x="284.5" y="-704.5" font-family="Helvetica,sans-Serif" font-size="10.00">+ Level</text>
<text text-anchor="start" x="284.5" y="-693.5" font-family="Helvetica,sans-Serif" font-size="10.00">+ Health</text>
<text text-anchor="start" x="284.5" y="-682.5" font-family="Helvetica,sans-Serif" font-size="10.00">+ Attack</text>
<text text-anchor="start" x="284.5" y="-671.5" font-family="Helvetica,sans-Serif" font-size="10.00">+ Defence</text>
<text text-anchor="start" x="284.5" y="-660.5" font-family="Helvetica,sans-Serif" font-size="10.00">+ MaximumMagic</text>
<text text-anchor="start" x="284.5" y="-649.5" font-family="Helvetica,sans-Serif" font-size="10.00">+ Magic</text>
<text text-anchor="start" x="284.5" y="-638.5" font-family="Helvetica,sans-Serif" font-size="10.00">+ Luck</text>
<text text-anchor="start" x="284.5" y="-627.5" font-family="Helvetica,sans-Serif" font-size="10.00">+ Speed</text>
<text text-anchor="start" x="284.5" y="-616.5" font-family="Helvetica,sans-Serif" font-size="10.00">+ Rage</text>
<text text-anchor="start" x="284.5" y="-605.5" font-family="Helvetica,sans-Serif" font-size="10.00">+ CanRage</text>
<text text-anchor="start" x="284.5" y="-594.5" font-family="Helvetica,sans-Serif" font-size="10.00">+ Special1</text>
<text text-anchor="start" x="284.5" y="-583.5" font-family="Helvetica,sans-Serif" font-size="10.00">+ Special2</text>
<text text-anchor="start" x="284.5" y="-572.5" font-family="Helvetica,sans-Serif" font-size="10.00">+ Image</text>
<polyline fill="none" stroke="black" points="276.5,-565.5 371.5,-565.5 "/>
<text text-anchor="start" x="284.5" y="-553.5" font-family="Helvetica,sans-Serif" font-size="10.00">+ IsEnraged()</text>
<text text-anchor="start" x="284.5" y="-542.5" font-family="Helvetica,sans-Serif" font-size="10.00"># Character()</text>
</a>
</g>
</g>
<!-- Node9&#45;&gt;Node12 -->
<g id="edge7" class="edge"><title>Node9&#45;&gt;Node12</title>
<path fill="none" stroke="#404040" d="M219.511,-809.42C234.049,-786.125 252.418,-756.694 269.685,-729.028"/>
<polygon fill="none" stroke="#404040" points="269.885,-728.708 269.668,-721.5 276.238,-718.527 276.455,-725.735 269.885,-728.708"/>
<text text-anchor="middle" x="269.5" y="-779" font-family="Helvetica,sans-Serif" font-size="10.00"> #special1</text>
<text text-anchor="middle" x="269.5" y="-768" font-family="Helvetica,sans-Serif" font-size="10.00">#special2</text>
</g>
<!-- Node10 -->
<g id="node2" class="node"><title>Node10</title>
<g id="a_node2"><a xlink:href="class_character_move.html" target="_top" xlink:title="Astract base class for character moves ">
<polygon fill="none" stroke="black" points="169,-0.5 169,-79.5 255,-79.5 255,-0.5 169,-0.5"/>
<text text-anchor="middle" x="212" y="-67.5" font-family="Helvetica,sans-Serif" font-size="10.00">CharacterMove</text>
<polyline fill="none" stroke="black" points="169,-60.5 255,-60.5 "/>
<text text-anchor="start" x="177" y="-48.5" font-family="Helvetica,sans-Serif" font-size="10.00">+ User</text>
<text text-anchor="start" x="177" y="-37.5" font-family="Helvetica,sans-Serif" font-size="10.00">+ Target</text>
<text text-anchor="start" x="177" y="-26.5" font-family="Helvetica,sans-Serif" font-size="10.00">+ Text</text>
<polyline fill="none" stroke="black" points="169,-19.5 255,-19.5 "/>
<text text-anchor="start" x="177" y="-7.5" font-family="Helvetica,sans-Serif" font-size="10.00">+ performMove()</text>
</a>
</g>
</g>
<!-- Node10&#45;&gt;Node9 -->
<g id="edge1" class="edge"><title>Node10&#45;&gt;Node9</title>
<path fill="none" stroke="midnightblue" d="M189.169,-89.3181C174.433,-124.907 158,-174.925 158,-221 158,-642 158,-642 158,-642 158,-700.389 170.788,-766.708 180.678,-809.27"/>
<polygon fill="none" stroke="midnightblue" points="192.575,-90.2505 193.265,-79.6781 186.133,-87.513 192.575,-90.2505"/>
</g>
<!-- Node11 -->
<g id="node3" class="node"><title>Node11</title>
<polygon fill="none" stroke="#bfbfbf" points="71.5,-962.5 71.5,-1019.5 112.5,-1019.5 112.5,-962.5 71.5,-962.5"/>
<text text-anchor="middle" x="92" y="-1007.5" font-family="Helvetica,sans-Serif" font-size="10.00">string</text>
<polyline fill="none" stroke="#bfbfbf" points="71.5,-1000.5 112.5,-1000.5 "/>
<text text-anchor="middle" x="92" y="-988.5" font-family="Helvetica,sans-Serif" font-size="10.00"> </text>
<polyline fill="none" stroke="#bfbfbf" points="71.5,-981.5 112.5,-981.5 "/>
<text text-anchor="middle" x="92" y="-969.5" font-family="Helvetica,sans-Serif" font-size="10.00"> </text>
</g>
<!-- Node11&#45;&gt;Node9 -->
<g id="edge22" class="edge"><title>Node11&#45;&gt;Node9</title>
<path fill="none" stroke="#404040" d="M112.478,-962.457C123.86,-947.148 138.423,-927.561 151.968,-909.343"/>
<polygon fill="none" stroke="#404040" points="151.989,-909.315 152.359,-902.114 159.149,-899.685 158.779,-906.887 151.989,-909.315"/>
<text text-anchor="middle" x="157" y="-930.5" font-family="Helvetica,sans-Serif" font-size="10.00"> #desc</text>
</g>
<!-- Node11&#45;&gt;Node10 -->
<g id="edge2" class="edge"><title>Node11&#45;&gt;Node10</title>
<path fill="none" stroke="#404040" d="M71.1238,-973.786C43.9799,-950.702 0,-905.575 0,-855.5 0,-855.5 0,-855.5 0,-221 0,-138.388 94.702,-85.7982 157.516,-60.0024"/>
<polygon fill="none" stroke="#404040" points="157.693,-59.932 161.79,-53.9975 168.843,-55.4964 164.747,-61.4309 157.693,-59.932"/>
<text text-anchor="middle" x="12.5" y="-509" font-family="Helvetica,sans-Serif" font-size="10.00"> #text</text>
</g>
<!-- Node11&#45;&gt;Node12 -->
<g id="edge4" class="edge"><title>Node11&#45;&gt;Node12</title>
<path fill="none" stroke="#404040" d="M86.3308,-962.336C80.0383,-924.364 74.0077,-855.109 101,-805 136.564,-738.979 211.889,-692.794 265.128,-666.847"/>
<polygon fill="none" stroke="#404040" points="265.294,-666.769 268.996,-660.58 276.132,-661.618 272.43,-667.806 265.294,-666.769"/>
<text text-anchor="middle" x="117.5" y="-852" font-family="Helvetica,sans-Serif" font-size="10.00"> #name</text>
</g>
<!-- Node16 -->
<g id="node8" class="node"><title>Node16</title>
<g id="a_node8"><a xlink:href="class_battle_manager.html" target="_top" xlink:title="Holds current Player and Enemy objects in battle and provides functions for MainBattle and other obje...">
<polygon fill="none" stroke="black" points="440,-127.5 440,-316.5 556,-316.5 556,-127.5 440,-127.5"/>
<text text-anchor="middle" x="498" y="-304.5" font-family="Helvetica,sans-Serif" font-size="10.00">BattleManager</text>
<polyline fill="none" stroke="black" points="440,-297.5 556,-297.5 "/>
<text text-anchor="start" x="448" y="-285.5" font-family="Helvetica,sans-Serif" font-size="10.00">+ Player</text>
<text text-anchor="start" x="448" y="-274.5" font-family="Helvetica,sans-Serif" font-size="10.00">+ Enemy</text>
<text text-anchor="start" x="448" y="-263.5" font-family="Helvetica,sans-Serif" font-size="10.00">+ WasCriticalHit</text>
<polyline fill="none" stroke="black" points="440,-256.5 556,-256.5 "/>
<text text-anchor="start" x="448" y="-244.5" font-family="Helvetica,sans-Serif" font-size="10.00">+ BattleManager()</text>
<text text-anchor="start" x="448" y="-233.5" font-family="Helvetica,sans-Serif" font-size="10.00">+ playerFirst()</text>
<text text-anchor="start" x="448" y="-222.5" font-family="Helvetica,sans-Serif" font-size="10.00">+ switchPlayers()</text>
<text text-anchor="start" x="448" y="-211.5" font-family="Helvetica,sans-Serif" font-size="10.00">+ isCriticalHit()</text>
<text text-anchor="start" x="448" y="-200.5" font-family="Helvetica,sans-Serif" font-size="10.00">+ ranAway()</text>
<text text-anchor="start" x="448" y="-189.5" font-family="Helvetica,sans-Serif" font-size="10.00">+ damageCalculation()</text>
<text text-anchor="start" x="448" y="-178.5" font-family="Helvetica,sans-Serif" font-size="10.00">+ enemyMove()</text>
<text text-anchor="start" x="448" y="-167.5" font-family="Helvetica,sans-Serif" font-size="10.00">+ enemySpecialMove()</text>
<text text-anchor="start" x="448" y="-156.5" font-family="Helvetica,sans-Serif" font-size="10.00">+ battleWon()</text>
<text text-anchor="start" x="448" y="-145.5" font-family="Helvetica,sans-Serif" font-size="10.00">+ playerFainted()</text>
<text text-anchor="start" x="448" y="-134.5" font-family="Helvetica,sans-Serif" font-size="10.00">&#45; characterFainted()</text>
</a>
</g>
</g>
<!-- Node11&#45;&gt;Node16 -->
<g id="edge10" class="edge"><title>Node11&#45;&gt;Node16</title>
<path fill="none" stroke="#404040" d="M82.8883,-962.255C60.4655,-889.093 8.72831,-686.168 70,-535 133.09,-379.345 324.032,-286.978 428.267,-246.827"/>
<polygon fill="none" stroke="#404040" points="428.39,-246.78 432.585,-240.915 439.613,-242.531 435.418,-248.396 428.39,-246.78"/>
<text text-anchor="middle" x="112" y="-644" font-family="Helvetica,sans-Serif" font-size="10.00"> +forceEnemyMove</text>
<text text-anchor="middle" x="112" y="-633" font-family="Helvetica,sans-Serif" font-size="10.00">+forceCriticalHits</text>
</g>
<!-- Node19 -->
<g id="node11" class="node"><title>Node19</title>
<g id="a_node11"><a xlink:href="class_item.html" target="_top" xlink:title="Abstract class for items that can be equipped to a player, increasing some of their stats ...">
<polygon fill="none" stroke="black" points="503.5,-809.5 503.5,-899.5 580.5,-899.5 580.5,-809.5 503.5,-809.5"/>
<text text-anchor="middle" x="542" y="-887.5" font-family="Helvetica,sans-Serif" font-size="10.00">Item</text>
<polyline fill="none" stroke="black" points="503.5,-880.5 580.5,-880.5 "/>
<text text-anchor="start" x="511.5" y="-868.5" font-family="Helvetica,sans-Serif" font-size="10.00">+ Name</text>
<text text-anchor="start" x="511.5" y="-857.5" font-family="Helvetica,sans-Serif" font-size="10.00">+ Desc</text>
<text text-anchor="start" x="511.5" y="-846.5" font-family="Helvetica,sans-Serif" font-size="10.00">+ Cost</text>
<polyline fill="none" stroke="black" points="503.5,-839.5 580.5,-839.5 "/>
<text text-anchor="start" x="511.5" y="-827.5" font-family="Helvetica,sans-Serif" font-size="10.00">+ applyBuffs()</text>
<text text-anchor="start" x="511.5" y="-816.5" font-family="Helvetica,sans-Serif" font-size="10.00">+ revertBuffs()</text>
</a>
</g>
</g>
<!-- Node11&#45;&gt;Node19 -->
<g id="edge19" class="edge"><title>Node11&#45;&gt;Node19</title>
<path fill="none" stroke="#404040" d="M112.84,-989.997C173.595,-989.124 354.422,-980.349 492.584,-903.866"/>
<polygon fill="none" stroke="#404040" points="492.872,-903.702 496.098,-897.253 503.292,-897.75 500.066,-904.199 492.872,-903.702"/>
<text text-anchor="middle" x="470" y="-936" font-family="Helvetica,sans-Serif" font-size="10.00"> #desc</text>
<text text-anchor="middle" x="470" y="-925" font-family="Helvetica,sans-Serif" font-size="10.00">#name</text>
</g>
<!-- Node12&#45;&gt;Node10 -->
<g id="edge3" class="edge"><title>Node12&#45;&gt;Node10</title>
<path fill="none" stroke="#404040" d="M304.427,-535.32C280.133,-405.391 239.683,-189.052 221.437,-91.4723"/>
<polygon fill="none" stroke="#404040" points="221.427,-91.4152 216.392,-86.2526 219.221,-79.6196 224.256,-84.7822 221.427,-91.4152"/>
<text text-anchor="middle" x="288" y="-349" font-family="Helvetica,sans-Serif" font-size="10.00"> #target</text>
<text text-anchor="middle" x="288" y="-338" font-family="Helvetica,sans-Serif" font-size="10.00">#user</text>
</g>
<!-- Node17 -->
<g id="node9" class="node"><title>Node17</title>
<g id="a_node9"><a xlink:href="class_enemy.html" target="_top" xlink:title="Defines an AI controller enemy to fight in battle scenes">
<polygon fill="none" stroke="black" points="614.5,-403 614.5,-460 681.5,-460 681.5,-403 614.5,-403"/>
<text text-anchor="middle" x="648" y="-448" font-family="Helvetica,sans-Serif" font-size="10.00">Enemy</text>
<polyline fill="none" stroke="black" points="614.5,-441 681.5,-441 "/>
<text text-anchor="start" x="622.5" y="-429" font-family="Helvetica,sans-Serif" font-size="10.00">+ ExpGiven</text>
<polyline fill="none" stroke="black" points="614.5,-422 681.5,-422 "/>
<text text-anchor="start" x="622.5" y="-410" font-family="Helvetica,sans-Serif" font-size="10.00">+ Enemy()</text>
</a>
</g>
</g>
<!-- Node12&#45;&gt;Node17 -->
<g id="edge12" class="edge"><title>Node12&#45;&gt;Node17</title>
<path fill="none" stroke="midnightblue" d="M378.135,-553.62C393.877,-535.006 412.669,-517.492 434,-506 501.278,-469.755 538.24,-525.19 605,-488 616.5,-481.594 625.95,-470.715 633.033,-460.277"/>
<polygon fill="none" stroke="midnightblue" points="375.192,-551.69 371.577,-561.65 380.614,-556.118 375.192,-551.69"/>
</g>
<!-- Node18 -->
<g id="node10" class="node"><title>Node18</title>
<g id="a_node10"><a xlink:href="class_player.html" target="_top" xlink:title="Defines a playable character for use in battle scenes">
<polygon fill="none" stroke="black" points="484,-375.5 484,-487.5 596,-487.5 596,-375.5 484,-375.5"/>
<text text-anchor="middle" x="540" y="-475.5" font-family="Helvetica,sans-Serif" font-size="10.00">Player</text>
<polyline fill="none" stroke="black" points="484,-468.5 596,-468.5 "/>
<text text-anchor="start" x="492" y="-456.5" font-family="Helvetica,sans-Serif" font-size="10.00">+ Exp</text>
<text text-anchor="start" x="492" y="-445.5" font-family="Helvetica,sans-Serif" font-size="10.00">+ Item</text>
<text text-anchor="start" x="492" y="-434.5" font-family="Helvetica,sans-Serif" font-size="10.00">+ ExpToNextLevel</text>
<polyline fill="none" stroke="black" points="484,-427.5 596,-427.5 "/>
<text text-anchor="start" x="492" y="-415.5" font-family="Helvetica,sans-Serif" font-size="10.00">+ Player()</text>
<text text-anchor="start" x="492" y="-404.5" font-family="Helvetica,sans-Serif" font-size="10.00">+ gainExp()</text>
<text text-anchor="start" x="492" y="-393.5" font-family="Helvetica,sans-Serif" font-size="10.00">+ levelUp()</text>
<text text-anchor="start" x="492" y="-382.5" font-family="Helvetica,sans-Serif" font-size="10.00">&#45; setExpToNextLevel()</text>
</a>
</g>
</g>
<!-- Node12&#45;&gt;Node18 -->
<g id="edge17" class="edge"><title>Node12&#45;&gt;Node18</title>
<path fill="none" stroke="midnightblue" d="M356.693,-526.408C361.166,-519.071 366.242,-512.166 372,-506 401.659,-474.239 447.453,-455.451 483.743,-444.832"/>
<polygon fill="none" stroke="midnightblue" points="353.596,-524.774 351.714,-535.2 359.687,-528.223 353.596,-524.774"/>
</g>
<!-- Node13 -->
<g id="node5" class="node"><title>Node13</title>
<polygon fill="none" stroke="#bfbfbf" points="566.5,-962.5 566.5,-1019.5 595.5,-1019.5 595.5,-962.5 566.5,-962.5"/>
<text text-anchor="middle" x="581" y="-1007.5" font-family="Helvetica,sans-Serif" font-size="10.00">int</text>
<polyline fill="none" stroke="#bfbfbf" points="566.5,-1000.5 595.5,-1000.5 "/>
<text text-anchor="middle" x="581" y="-988.5" font-family="Helvetica,sans-Serif" font-size="10.00"> </text>
<polyline fill="none" stroke="#bfbfbf" points="566.5,-981.5 595.5,-981.5 "/>
<text text-anchor="middle" x="581" y="-969.5" font-family="Helvetica,sans-Serif" font-size="10.00"> </text>
</g>
<!-- Node13&#45;&gt;Node9 -->
<g id="edge23" class="edge"><title>Node13&#45;&gt;Node9</title>
<path fill="none" stroke="#404040" d="M566.486,-989.744C524.729,-988.556 401.31,-981.848 308,-944 286.61,-935.324 265.75,-921.611 247.753,-907.546"/>
<polygon fill="none" stroke="#404040" points="247.402,-907.263 240.221,-906.607 238.064,-899.726 245.245,-900.382 247.402,-907.263"/>
<text text-anchor="middle" x="325.5" y="-930.5" font-family="Helvetica,sans-Serif" font-size="10.00"> #magic</text>
</g>
<!-- Node13&#45;&gt;Node12 -->
<g id="edge5" class="edge"><title>Node13&#45;&gt;Node12</title>
<path fill="none" stroke="#404040" d="M566.221,-989.873C524.394,-988.588 405.655,-978.303 366,-904 365.074,-902.265 353.178,-827.787 342.283,-758.689"/>
<polygon fill="none" stroke="#404040" points="342.272,-758.62 337.387,-753.315 340.405,-746.766 345.29,-752.07 342.272,-758.62"/>
<text text-anchor="middle" x="403.5" y="-896" font-family="Helvetica,sans-Serif" font-size="10.00"> #speed</text>
<text text-anchor="middle" x="403.5" y="-885" font-family="Helvetica,sans-Serif" font-size="10.00">#luck</text>
<text text-anchor="middle" x="403.5" y="-874" font-family="Helvetica,sans-Serif" font-size="10.00">#health</text>
<text text-anchor="middle" x="403.5" y="-863" font-family="Helvetica,sans-Serif" font-size="10.00">#magic</text>
<text text-anchor="middle" x="403.5" y="-852" font-family="Helvetica,sans-Serif" font-size="10.00">#maximumMagic</text>
<text text-anchor="middle" x="403.5" y="-841" font-family="Helvetica,sans-Serif" font-size="10.00">#attack</text>
<text text-anchor="middle" x="403.5" y="-830" font-family="Helvetica,sans-Serif" font-size="10.00">#defence</text>
<text text-anchor="middle" x="403.5" y="-819" font-family="Helvetica,sans-Serif" font-size="10.00">#level</text>
<text text-anchor="middle" x="403.5" y="-808" font-family="Helvetica,sans-Serif" font-size="10.00">#rage</text>
</g>
<!-- Node13&#45;&gt;Node16 -->
<g id="edge14" class="edge"><title>Node13&#45;&gt;Node16</title>
<path fill="none" stroke="#404040" d="M595.579,-986.216C636.932,-974.512 752,-934.818 752,-855.5 752,-855.5 752,-855.5 752,-430.5 752,-334.906 642.765,-275.454 567.565,-245.852"/>
<polygon fill="none" stroke="#404040" points="567.479,-245.819 560.446,-247.409 556.273,-241.528 563.306,-239.938 567.479,-245.819"/>
<text text-anchor="middle" x="771.5" y="-638.5" font-family="Helvetica,sans-Serif" font-size="10.00"> +money</text>
</g>
<!-- Node13&#45;&gt;Node17 -->
<g id="edge13" class="edge"><title>Node13&#45;&gt;Node17</title>
<path fill="none" stroke="#404040" d="M595.504,-968.993C600.457,-961.324 605.801,-952.455 610,-944 643.159,-877.239 655.674,-860.341 669,-787 689.501,-674.166 669.123,-538.142 656.448,-472.201"/>
<polygon fill="none" stroke="#404040" points="656.432,-472.122 651.345,-467.011 654.106,-460.349 659.193,-465.46 656.432,-472.122"/>
<text text-anchor="middle" x="695" y="-773.5" font-family="Helvetica,sans-Serif" font-size="10.00"> &#45;expGiven</text>
</g>
<!-- Node13&#45;&gt;Node18 -->
<g id="edge21" class="edge"><title>Node13&#45;&gt;Node18</title>
<path fill="none" stroke="#404040" d="M590.93,-962.083C592.621,-956.185 594.115,-949.945 595,-944 596.439,-934.329 595.25,-931.775 595,-922 590.586,-749.726 601.874,-704.542 571,-535 568.864,-523.271 565.853,-510.987 562.54,-499.162"/>
<polygon fill="none" stroke="#404040" points="562.506,-499.047 556.986,-494.407 559.146,-487.527 564.666,-492.167 562.506,-499.047"/>
<text text-anchor="middle" x="631.5" y="-779" font-family="Helvetica,sans-Serif" font-size="10.00"> &#45;expToNextLevel</text>
<text text-anchor="middle" x="631.5" y="-768" font-family="Helvetica,sans-Serif" font-size="10.00">&#45;exp</text>
</g>
<!-- Node13&#45;&gt;Node19 -->
<g id="edge20" class="edge"><title>Node13&#45;&gt;Node19</title>
<path fill="none" stroke="#404040" d="M572.47,-962.297C570.643,-956.272 568.739,-949.928 567,-944 563.897,-933.424 560.65,-922.117 557.562,-911.242"/>
<polygon fill="none" stroke="#404040" points="557.554,-911.213 552.072,-906.528 554.288,-899.666 559.77,-904.35 557.554,-911.213"/>
<text text-anchor="middle" x="581" y="-930.5" font-family="Helvetica,sans-Serif" font-size="10.00"> #cost</text>
</g>
<!-- Node14 -->
<g id="node6" class="node"><title>Node14</title>
<polygon fill="none" stroke="#bfbfbf" points="450.5,-826 450.5,-883 485.5,-883 485.5,-826 450.5,-826"/>
<text text-anchor="middle" x="468" y="-871" font-family="Helvetica,sans-Serif" font-size="10.00">bool</text>
<polyline fill="none" stroke="#bfbfbf" points="450.5,-864 485.5,-864 "/>
<text text-anchor="middle" x="468" y="-852" font-family="Helvetica,sans-Serif" font-size="10.00"> </text>
<polyline fill="none" stroke="#bfbfbf" points="450.5,-845 485.5,-845 "/>
<text text-anchor="middle" x="468" y="-833" font-family="Helvetica,sans-Serif" font-size="10.00"> </text>
</g>
<!-- Node14&#45;&gt;Node12 -->
<g id="edge6" class="edge"><title>Node14&#45;&gt;Node12</title>
<path fill="none" stroke="#404040" d="M453.676,-825.899C448.822,-818.414 442.863,-810.788 436,-805 420.787,-792.17 409.362,-800.776 395,-787 385.785,-778.161 377.601,-767.876 370.374,-756.94"/>
<polygon fill="none" stroke="#404040" points="370.359,-756.916 363.788,-753.945 364.003,-746.737 370.574,-749.708 370.359,-756.916"/>
<text text-anchor="middle" x="418.5" y="-773.5" font-family="Helvetica,sans-Serif" font-size="10.00"> #canRage</text>
</g>
<!-- Node14&#45;&gt;Node16 -->
<g id="edge15" class="edge"><title>Node14&#45;&gt;Node16</title>
<path fill="none" stroke="#404040" d="M466.948,-825.913C464.459,-752.422 459.52,-545.864 475,-375 476.349,-360.109 478.209,-344.456 480.292,-329.087"/>
<polygon fill="none" stroke="#404040" points="480.342,-328.727 477.212,-322.231 482.005,-316.843 485.135,-323.339 480.342,-328.727"/>
<text text-anchor="middle" x="500" y="-509" font-family="Helvetica,sans-Serif" font-size="10.00"> &#45;wasCriticalHit</text>
</g>
<!-- Node15 -->
<g id="node7" class="node"><title>Node15</title>
<polygon fill="none" stroke="#bfbfbf" points="259.5,-826 259.5,-883 320.5,-883 320.5,-826 259.5,-826"/>
<text text-anchor="middle" x="290" y="-871" font-family="Helvetica,sans-Serif" font-size="10.00">Texture2D</text>
<polyline fill="none" stroke="#bfbfbf" points="259.5,-864 320.5,-864 "/>
<text text-anchor="middle" x="290" y="-852" font-family="Helvetica,sans-Serif" font-size="10.00"> </text>
<polyline fill="none" stroke="#bfbfbf" points="259.5,-845 320.5,-845 "/>
<text text-anchor="middle" x="290" y="-833" font-family="Helvetica,sans-Serif" font-size="10.00"> </text>
</g>
<!-- Node15&#45;&gt;Node12 -->
<g id="edge8" class="edge"><title>Node15&#45;&gt;Node12</title>
<path fill="none" stroke="#404040" d="M294.445,-825.85C297.289,-808.161 301.191,-783.884 305.229,-758.769"/>
<polygon fill="none" stroke="#404040" points="305.249,-758.644 302.252,-752.085 307.153,-746.796 310.15,-753.355 305.249,-758.644"/>
<text text-anchor="middle" x="321.5" y="-773.5" font-family="Helvetica,sans-Serif" font-size="10.00"> #image</text>
</g>
<!-- Node16&#45;&gt;Node10 -->
<g id="edge9" class="edge"><title>Node16&#45;&gt;Node10</title>
<path fill="none" stroke="#404040" d="M439.779,-184.357C388.699,-152.209 315.031,-105.844 265.43,-74.6273"/>
<polygon fill="none" stroke="#404040" points="265.384,-74.5983 258.175,-74.7877 255.228,-68.2064 262.437,-68.017 265.384,-74.5983"/>
<text text-anchor="middle" x="336" y="-101" font-family="Helvetica,sans-Serif" font-size="10.00"> #manager</text>
</g>
<!-- Node17&#45;&gt;Node16 -->
<g id="edge11" class="edge"><title>Node17&#45;&gt;Node16</title>
<path fill="none" stroke="#404040" d="M628.081,-402.946C611.47,-379.967 586.825,-345.875 563.44,-313.526"/>
<polygon fill="none" stroke="#404040" points="563.264,-313.282 556.507,-310.763 556.234,-303.557 562.991,-306.076 563.264,-313.282"/>
<text text-anchor="middle" x="609" y="-343.5" font-family="Helvetica,sans-Serif" font-size="10.00"> &#45;enemy</text>
</g>
<!-- Node18&#45;&gt;Node16 -->
<g id="edge16" class="edge"><title>Node18&#45;&gt;Node16</title>
<path fill="none" stroke="#404040" d="M528.855,-375.439C525.922,-360.946 522.657,-344.815 519.379,-328.623"/>
<polygon fill="none" stroke="#404040" points="519.376,-328.606 514.265,-323.519 516.995,-316.845 522.106,-321.932 519.376,-328.606"/>
<text text-anchor="middle" x="540.5" y="-343.5" font-family="Helvetica,sans-Serif" font-size="10.00"> &#45;player</text>
</g>
<!-- Node19&#45;&gt;Node18 -->
<g id="edge18" class="edge"><title>Node19&#45;&gt;Node18</title>
<path fill="none" stroke="#404040" d="M541.79,-809.241C541.439,-735.42 540.733,-586.705 540.32,-499.83"/>
<polygon fill="none" stroke="#404040" points="540.32,-499.737 536.291,-493.756 540.262,-487.737 544.291,-493.718 540.32,-499.737"/>
<text text-anchor="middle" x="554.5" y="-638.5" font-family="Helvetica,sans-Serif" font-size="10.00"> &#45;item</text>
</g>
</g>
</svg>
