<?xml version="1.0" encoding="UTF-8" standalone="no"?>
<!DOCTYPE svg PUBLIC "-//W3C//DTD SVG 1.1//EN"
 "http://www.w3.org/Graphics/SVG/1.1/DTD/svg11.dtd">
<!-- Generated by graphviz version 2.38.0 (20140413.2041)
 -->
<!-- Title: BattleEventArgs Pages: 1 -->
<svg width="109pt" height="276pt"
 viewBox="0.00 0.00 109.00 276.00" xmlns="http://www.w3.org/2000/svg" xmlns:xlink="http://www.w3.org/1999/xlink">
<g id="graph0" class="graph" transform="scale(1 1) rotate(0) translate(4 272)">
<title>BattleEventArgs</title>
<!-- Node0 -->
<g id="node1" class="node"><title>Node0</title>
<polygon fill="#bfbfbf" stroke="black" points="0,-0.5 0,-79.5 101,-79.5 101,-0.5 0,-0.5"/>
<text text-anchor="middle" x="50.5" y="-67.5" font-family="Helvetica,sans-Serif" font-size="10.00">BattleEventArgs</text>
<polyline fill="none" stroke="black" points="0,-60.5 101,-60.5 "/>
<text text-anchor="start" x="8" y="-48.5" font-family="Helvetica,sans-Serif" font-size="10.00">+ activePlayer</text>
<text text-anchor="start" x="8" y="-37.5" font-family="Helvetica,sans-Serif" font-size="10.00">+ enemy</text>
<text text-anchor="start" x="8" y="-26.5" font-family="Helvetica,sans-Serif" font-size="10.00">+ location</text>
<polyline fill="none" stroke="black" points="0,-19.5 101,-19.5 "/>
<text text-anchor="start" x="8" y="-7.5" font-family="Helvetica,sans-Serif" font-size="10.00">+ BattleEventArgs()</text>
</g>
<!-- Node1 -->
<g id="node2" class="node"><title>Node1</title>
<g id="a_node2"><a xlink:href="class_game_event_args.html" target="_top" xlink:title="Base class for passing arguments with game events ">
<polygon fill="none" stroke="black" points="7,-116.5 7,-173.5 94,-173.5 94,-116.5 7,-116.5"/>
<text text-anchor="middle" x="50.5" y="-161.5" font-family="Helvetica,sans-Serif" font-size="10.00">GameEventArgs</text>
<polyline fill="none" stroke="black" points="7,-154.5 94,-154.5 "/>
<text text-anchor="start" x="15" y="-142.5" font-family="Helvetica,sans-Serif" font-size="10.00">+ Empty</text>
<polyline fill="none" stroke="black" points="7,-135.5 94,-135.5 "/>
<text text-anchor="middle" x="50.5" y="-123.5" font-family="Helvetica,sans-Serif" font-size="10.00"> </text>
</a>
</g>
</g>
<!-- Node1&#45;&gt;Node0 -->
<g id="edge1" class="edge"><title>Node1&#45;&gt;Node0</title>
<path fill="none" stroke="midnightblue" d="M50.5,-106.156C50.5,-97.4733 50.5,-88.2318 50.5,-79.5205"/>
<polygon fill="none" stroke="midnightblue" points="47.0001,-106.398 50.5,-116.398 54.0001,-106.398 47.0001,-106.398"/>
</g>
<!-- Node2 -->
<g id="node3" class="node"><title>Node2</title>
<g id="a_node3"><a xlink:href="class_event_args.html" target="_top" xlink:title="{EventArgs\n||}">
<polygon fill="none" stroke="black" points="20,-210.5 20,-267.5 81,-267.5 81,-210.5 20,-210.5"/>
<text text-anchor="middle" x="50.5" y="-255.5" font-family="Helvetica,sans-Serif" font-size="10.00">EventArgs</text>
<polyline fill="none" stroke="black" points="20,-248.5 81,-248.5 "/>
<text text-anchor="middle" x="50.5" y="-236.5" font-family="Helvetica,sans-Serif" font-size="10.00"> </text>
<polyline fill="none" stroke="black" points="20,-229.5 81,-229.5 "/>
<text text-anchor="middle" x="50.5" y="-217.5" font-family="Helvetica,sans-Serif" font-size="10.00"> </text>
</a>
</g>
</g>
<!-- Node2&#45;&gt;Node1 -->
<g id="edge2" class="edge"><title>Node2&#45;&gt;Node1</title>
<path fill="none" stroke="midnightblue" d="M50.5,-200.209C50.5,-191.293 50.5,-181.951 50.5,-173.584"/>
<polygon fill="none" stroke="midnightblue" points="47.0001,-200.397 50.5,-210.397 54.0001,-200.397 47.0001,-200.397"/>
</g>
</g>
</svg>
