<?xml version="1.0" encoding="UTF-8" standalone="no"?>
<!DOCTYPE svg PUBLIC "-//W3C//DTD SVG 1.1//EN"
 "http://www.w3.org/Graphics/SVG/1.1/DTD/svg11.dtd">
<!-- Generated by graphviz version 2.38.0 (20140413.2041)
 -->
<!-- Title: WaveSpawner.Wave Pages: 1 -->
<svg width="226pt" height="171pt"
 viewBox="0.00 0.00 226.00 171.00" xmlns="http://www.w3.org/2000/svg" xmlns:xlink="http://www.w3.org/1999/xlink">
<g id="graph0" class="graph" transform="scale(1 1) rotate(0) translate(4 167)">
<title>WaveSpawner.Wave</title>
<!-- Node1 -->
<g id="node1" class="node"><title>Node1</title>
<polygon fill="#bfbfbf" stroke="black" points="49,-0.5 49,-57.5 154,-57.5 154,-0.5 49,-0.5"/>
<text text-anchor="middle" x="101.5" y="-45.5" font-family="Helvetica,sans-Serif" font-size="10.00">WaveSpawner.Wave</text>
<polyline fill="none" stroke="black" points="49,-38.5 154,-38.5 "/>
<text text-anchor="middle" x="101.5" y="-26.5" font-family="Helvetica,sans-Serif" font-size="10.00"> </text>
<polyline fill="none" stroke="black" points="49,-19.5 154,-19.5 "/>
<text text-anchor="middle" x="101.5" y="-7.5" font-family="Helvetica,sans-Serif" font-size="10.00"> </text>
</g>
<!-- Node2 -->
<g id="node2" class="node"><title>Node2</title>
<polygon fill="none" stroke="#bfbfbf" points="0,-105.5 0,-162.5 41,-162.5 41,-105.5 0,-105.5"/>
<text text-anchor="middle" x="20.5" y="-150.5" font-family="Helvetica,sans-Serif" font-size="10.00">string</text>
<polyline fill="none" stroke="#bfbfbf" points="0,-143.5 41,-143.5 "/>
<text text-anchor="middle" x="20.5" y="-131.5" font-family="Helvetica,sans-Serif" font-size="10.00"> </text>
<polyline fill="none" stroke="#bfbfbf" points="0,-124.5 41,-124.5 "/>
<text text-anchor="middle" x="20.5" y="-112.5" font-family="Helvetica,sans-Serif" font-size="10.00"> </text>
</g>
<!-- Node2&#45;&gt;Node1 -->
<g id="edge1" class="edge"><title>Node2&#45;&gt;Node1</title>
<path fill="none" stroke="#404040" d="M24.9219,-105.251C27.4511,-95.3723 31.3909,-84.5805 37.5,-76 40.0719,-72.3878 43.0181,-68.9529 46.2028,-65.7085"/>
<polygon fill="none" stroke="#404040" points="46.2417,-65.6729 47.9693,-58.6718 55.0963,-57.5738 53.3687,-64.5749 46.2417,-65.6729"/>
<text text-anchor="middle" x="54.5" y="-79" font-family="Helvetica,sans-Serif" font-size="10.00"> +name</text>
</g>
<!-- Node3 -->
<g id="node3" class="node"><title>Node3</title>
<polygon fill="none" stroke="#bfbfbf" points="59,-105.5 59,-162.5 94,-162.5 94,-105.5 59,-105.5"/>
<text text-anchor="middle" x="76.5" y="-150.5" font-family="Helvetica,sans-Serif" font-size="10.00">float</text>
<polyline fill="none" stroke="#bfbfbf" points="59,-143.5 94,-143.5 "/>
<text text-anchor="middle" x="76.5" y="-131.5" font-family="Helvetica,sans-Serif" font-size="10.00"> </text>
<polyline fill="none" stroke="#bfbfbf" points="59,-124.5 94,-124.5 "/>
<text text-anchor="middle" x="76.5" y="-112.5" font-family="Helvetica,sans-Serif" font-size="10.00"> </text>
</g>
<!-- Node3&#45;&gt;Node1 -->
<g id="edge2" class="edge"><title>Node3&#45;&gt;Node1</title>
<path fill="none" stroke="#404040" d="M75.1085,-105.41C75.2509,-95.9608 76.1052,-85.4037 78.5,-76 79.0784,-73.7287 79.78,-71.4395 80.5735,-69.1601"/>
<polygon fill="none" stroke="#404040" points="80.6088,-69.0738 79.1841,-62.0048 85.1613,-57.9709 86.586,-65.0398 80.6088,-69.0738"/>
<text text-anchor="middle" x="91.5" y="-79" font-family="Helvetica,sans-Serif" font-size="10.00"> +rate</text>
</g>
<!-- Node4 -->
<g id="node4" class="node"><title>Node4</title>
<polygon fill="none" stroke="#bfbfbf" points="112,-105.5 112,-162.5 141,-162.5 141,-105.5 112,-105.5"/>
<text text-anchor="middle" x="126.5" y="-150.5" font-family="Helvetica,sans-Serif" font-size="10.00">int</text>
<polyline fill="none" stroke="#bfbfbf" points="112,-143.5 141,-143.5 "/>
<text text-anchor="middle" x="126.5" y="-131.5" font-family="Helvetica,sans-Serif" font-size="10.00"> </text>
<polyline fill="none" stroke="#bfbfbf" points="112,-124.5 141,-124.5 "/>
<text text-anchor="middle" x="126.5" y="-112.5" font-family="Helvetica,sans-Serif" font-size="10.00"> </text>
</g>
<!-- Node4&#45;&gt;Node1 -->
<g id="edge3" class="edge"><title>Node4&#45;&gt;Node1</title>
<path fill="none" stroke="#404040" d="M119.8,-105.398C117.138,-94.4297 114.025,-81.6033 111.129,-69.6722"/>
<polygon fill="none" stroke="#404040" points="111.049,-69.3397 105.746,-64.4525 108.218,-57.6783 113.52,-62.5655 111.049,-69.3397"/>
<text text-anchor="middle" x="131.5" y="-79" font-family="Helvetica,sans-Serif" font-size="10.00"> +count</text>
</g>
<!-- Node5 -->
<g id="node5" class="node"><title>Node5</title>
<polygon fill="none" stroke="#bfbfbf" points="159,-105.5 159,-162.5 218,-162.5 218,-105.5 159,-105.5"/>
<text text-anchor="middle" x="188.5" y="-150.5" font-family="Helvetica,sans-Serif" font-size="10.00">Transform</text>
<polyline fill="none" stroke="#bfbfbf" points="159,-143.5 218,-143.5 "/>
<text text-anchor="middle" x="188.5" y="-131.5" font-family="Helvetica,sans-Serif" font-size="10.00"> </text>
<polyline fill="none" stroke="#bfbfbf" points="159,-124.5 218,-124.5 "/>
<text text-anchor="middle" x="188.5" y="-112.5" font-family="Helvetica,sans-Serif" font-size="10.00"> </text>
</g>
<!-- Node5&#45;&gt;Node1 -->
<g id="edge4" class="edge"><title>Node5&#45;&gt;Node1</title>
<path fill="none" stroke="#404040" d="M173.089,-105.269C167.184,-95.6067 160.041,-84.9511 152.5,-76 149.767,-72.7557 146.808,-69.5246 143.74,-66.3659"/>
<polygon fill="none" stroke="#404040" points="143.469,-66.1012 136.384,-64.7602 134.897,-57.7041 141.982,-59.0451 143.469,-66.1012"/>
<text text-anchor="middle" x="179" y="-79" font-family="Helvetica,sans-Serif" font-size="10.00"> +enemy</text>
</g>
</g>
</svg>
