<?xml version="1.0" encoding="UTF-8" standalone="no"?>
<!DOCTYPE svg PUBLIC "-//W3C//DTD SVG 1.1//EN"
 "http://www.w3.org/Graphics/SVG/1.1/DTD/svg11.dtd">
<!-- Generated by graphviz version 2.38.0 (20140413.2041)
 -->
<!-- Title: CharacterMove Pages: 1 -->
<svg width="735pt" height="1035pt"
 viewBox="0.00 0.00 735.00 1035.00" xmlns="http://www.w3.org/2000/svg" xmlns:xlink="http://www.w3.org/1999/xlink">
<g id="graph0" class="graph" transform="scale(1 1) rotate(0) translate(4 1031)">
<title>CharacterMove</title>
<!-- Node11 -->
<g id="node1" class="node"><title>Node11</title>
<polygon fill="#bfbfbf" stroke="black" points="147,-831.5 147,-910.5 233,-910.5 233,-831.5 147,-831.5"/>
<text text-anchor="middle" x="190" y="-898.5" font-family="Helvetica,sans-Serif" font-size="10.00">CharacterMove</text>
<polyline fill="none" stroke="black" points="147,-891.5 233,-891.5 "/>
<text text-anchor="start" x="155" y="-879.5" font-family="Helvetica,sans-Serif" font-size="10.00">+ User</text>
<text text-anchor="start" x="155" y="-868.5" font-family="Helvetica,sans-Serif" font-size="10.00">+ Target</text>
<text text-anchor="start" x="155" y="-857.5" font-family="Helvetica,sans-Serif" font-size="10.00">+ Text</text>
<polyline fill="none" stroke="black" points="147,-850.5 233,-850.5 "/>
<text text-anchor="start" x="155" y="-838.5" font-family="Helvetica,sans-Serif" font-size="10.00">+ performMove()</text>
</g>
<!-- Node15 -->
<g id="node5" class="node"><title>Node15</title>
<g id="a_node5"><a xlink:href="class_special_move.html" target="_top" xlink:title="Special move abstract base class that expands upon CharacterMove, adding magic properties ...">
<polygon fill="none" stroke="black" points="242,-624.5 242,-714.5 340,-714.5 340,-624.5 242,-624.5"/>
<text text-anchor="middle" x="291" y="-702.5" font-family="Helvetica,sans-Serif" font-size="10.00">SpecialMove</text>
<polyline fill="none" stroke="black" points="242,-695.5 340,-695.5 "/>
<text text-anchor="start" x="250" y="-683.5" font-family="Helvetica,sans-Serif" font-size="10.00">+ Magic</text>
<text text-anchor="start" x="250" y="-672.5" font-family="Helvetica,sans-Serif" font-size="10.00">+ Desc</text>
<polyline fill="none" stroke="black" points="242,-665.5 340,-665.5 "/>
<text text-anchor="start" x="250" y="-653.5" font-family="Helvetica,sans-Serif" font-size="10.00">+ setUp()</text>
<text text-anchor="start" x="250" y="-642.5" font-family="Helvetica,sans-Serif" font-size="10.00">+ decreaseMagic()</text>
<text text-anchor="start" x="250" y="-631.5" font-family="Helvetica,sans-Serif" font-size="10.00"># SpecialMove()</text>
</a>
</g>
</g>
<!-- Node11&#45;&gt;Node15 -->
<g id="edge6" class="edge"><title>Node11&#45;&gt;Node15</title>
<path fill="none" stroke="midnightblue" d="M214.236,-822.128C230.794,-789.423 252.57,-746.408 268.699,-714.55"/>
<polygon fill="none" stroke="midnightblue" points="211.108,-820.558 209.714,-831.061 217.353,-823.72 211.108,-820.558"/>
</g>
<!-- Node12 -->
<g id="node2" class="node"><title>Node12</title>
<polygon fill="none" stroke="#bfbfbf" points="169.5,-969.5 169.5,-1026.5 210.5,-1026.5 210.5,-969.5 169.5,-969.5"/>
<text text-anchor="middle" x="190" y="-1014.5" font-family="Helvetica,sans-Serif" font-size="10.00">string</text>
<polyline fill="none" stroke="#bfbfbf" points="169.5,-1007.5 210.5,-1007.5 "/>
<text text-anchor="middle" x="190" y="-995.5" font-family="Helvetica,sans-Serif" font-size="10.00"> </text>
<polyline fill="none" stroke="#bfbfbf" points="169.5,-988.5 210.5,-988.5 "/>
<text text-anchor="middle" x="190" y="-976.5" font-family="Helvetica,sans-Serif" font-size="10.00"> </text>
</g>
<!-- Node12&#45;&gt;Node11 -->
<g id="edge1" class="edge"><title>Node12&#45;&gt;Node11</title>
<path fill="none" stroke="#404040" d="M190,-969.258C190,-955.637 190,-938.787 190,-922.96"/>
<polygon fill="none" stroke="#404040" points="190,-922.567 186,-916.567 190,-910.567 194,-916.567 190,-922.567"/>
<text text-anchor="middle" x="202.5" y="-937.5" font-family="Helvetica,sans-Serif" font-size="10.00"> #text</text>
</g>
<!-- Node13 -->
<g id="node3" class="node"><title>Node13</title>
<g id="a_node3"><a xlink:href="class_character.html" target="_top" xlink:title="Base abstract class for Enemy and Player to inherit from. Defines all shared variables, their constructor and their setters and getters ">
<polygon fill="none" stroke="black" points="263.5,-387.5 263.5,-565.5 358.5,-565.5 358.5,-387.5 263.5,-387.5"/>
<text text-anchor="middle" x="311" y="-553.5" font-family="Helvetica,sans-Serif" font-size="10.00">Character</text>
<polyline fill="none" stroke="black" points="263.5,-546.5 358.5,-546.5 "/>
<text text-anchor="start" x="271.5" y="-534.5" font-family="Helvetica,sans-Serif" font-size="10.00">+ Name</text>
<text text-anchor="start" x="271.5" y="-523.5" font-family="Helvetica,sans-Serif" font-size="10.00">+ Level</text>
<text text-anchor="start" x="271.5" y="-512.5" font-family="Helvetica,sans-Serif" font-size="10.00">+ Health</text>
<text text-anchor="start" x="271.5" y="-501.5" font-family="Helvetica,sans-Serif" font-size="10.00">+ Attack</text>
<text text-anchor="start" x="271.5" y="-490.5" font-family="Helvetica,sans-Serif" font-size="10.00">+ Defence</text>
<text text-anchor="start" x="271.5" y="-479.5" font-family="Helvetica,sans-Serif" font-size="10.00">+ MaximumMagic</text>
<text text-anchor="start" x="271.5" y="-468.5" font-family="Helvetica,sans-Serif" font-size="10.00">+ Magic</text>
<text text-anchor="start" x="271.5" y="-457.5" font-family="Helvetica,sans-Serif" font-size="10.00">+ Luck</text>
<text text-anchor="start" x="271.5" y="-446.5" font-family="Helvetica,sans-Serif" font-size="10.00">+ Speed</text>
<text text-anchor="start" x="271.5" y="-435.5" font-family="Helvetica,sans-Serif" font-size="10.00">+ Special1</text>
<text text-anchor="start" x="271.5" y="-424.5" font-family="Helvetica,sans-Serif" font-size="10.00">+ Special2</text>
<text text-anchor="start" x="271.5" y="-413.5" font-family="Helvetica,sans-Serif" font-size="10.00">+ Image</text>
<polyline fill="none" stroke="black" points="263.5,-406.5 358.5,-406.5 "/>
<text text-anchor="start" x="271.5" y="-394.5" font-family="Helvetica,sans-Serif" font-size="10.00"># Character()</text>
</a>
</g>
</g>
<!-- Node12&#45;&gt;Node13 -->
<g id="edge3" class="edge"><title>Node12&#45;&gt;Node13</title>
<path fill="none" stroke="#404040" d="M169.363,-970.533C135.013,-923.136 72.4718,-820.536 100,-733 127.27,-646.285 201.263,-569.277 253.911,-523.029"/>
<polygon fill="none" stroke="#404040" points="254.074,-522.888 255.994,-515.937 263.149,-515.036 261.229,-521.987 254.074,-522.888"/>
<text text-anchor="middle" x="125.5" y="-776" font-family="Helvetica,sans-Serif" font-size="10.00"> #image_ref</text>
<text text-anchor="middle" x="125.5" y="-765" font-family="Helvetica,sans-Serif" font-size="10.00">#name</text>
</g>
<!-- Node12&#45;&gt;Node15 -->
<g id="edge7" class="edge"><title>Node12&#45;&gt;Node15</title>
<path fill="none" stroke="#404040" d="M210.336,-969.285C221.306,-953.054 234.165,-931.727 242,-911 264.988,-850.188 277.98,-776.438 284.725,-726.771"/>
<polygon fill="none" stroke="#404040" points="284.749,-726.584 281.562,-720.116 286.308,-714.686 289.495,-721.154 284.749,-726.584"/>
<text text-anchor="middle" x="281" y="-868.5" font-family="Helvetica,sans-Serif" font-size="10.00"> #desc</text>
</g>
<!-- Node16 -->
<g id="node6" class="node"><title>Node16</title>
<g id="a_node6"><a xlink:href="class_battle_manager.html" target="_top" xlink:title="Holds current Player and Enemy objects in battle and provides functions for MainBattle and other obje...">
<polygon fill="none" stroke="black" points="311,-0.5 311,-189.5 427,-189.5 427,-0.5 311,-0.5"/>
<text text-anchor="middle" x="369" y="-177.5" font-family="Helvetica,sans-Serif" font-size="10.00">BattleManager</text>
<polyline fill="none" stroke="black" points="311,-170.5 427,-170.5 "/>
<text text-anchor="start" x="319" y="-158.5" font-family="Helvetica,sans-Serif" font-size="10.00">+ Player</text>
<text text-anchor="start" x="319" y="-147.5" font-family="Helvetica,sans-Serif" font-size="10.00">+ Enemy</text>
<text text-anchor="start" x="319" y="-136.5" font-family="Helvetica,sans-Serif" font-size="10.00">+ WasCriticalHit</text>
<polyline fill="none" stroke="black" points="311,-129.5 427,-129.5 "/>
<text text-anchor="start" x="319" y="-117.5" font-family="Helvetica,sans-Serif" font-size="10.00">+ BattleManager()</text>
<text text-anchor="start" x="319" y="-106.5" font-family="Helvetica,sans-Serif" font-size="10.00">+ playerFirst()</text>
<text text-anchor="start" x="319" y="-95.5" font-family="Helvetica,sans-Serif" font-size="10.00">+ switchPlayers()</text>
<text text-anchor="start" x="319" y="-84.5" font-family="Helvetica,sans-Serif" font-size="10.00">+ isCriticalHit()</text>
<text text-anchor="start" x="319" y="-73.5" font-family="Helvetica,sans-Serif" font-size="10.00">+ ranAway()</text>
<text text-anchor="start" x="319" y="-62.5" font-family="Helvetica,sans-Serif" font-size="10.00">+ damageCalculation()</text>
<text text-anchor="start" x="319" y="-51.5" font-family="Helvetica,sans-Serif" font-size="10.00">+ enemyMove()</text>
<text text-anchor="start" x="319" y="-40.5" font-family="Helvetica,sans-Serif" font-size="10.00">+ enemySpecialMove()</text>
<text text-anchor="start" x="319" y="-29.5" font-family="Helvetica,sans-Serif" font-size="10.00">+ battleWon()</text>
<text text-anchor="start" x="319" y="-18.5" font-family="Helvetica,sans-Serif" font-size="10.00">+ playerFainted()</text>
<text text-anchor="start" x="319" y="-7.5" font-family="Helvetica,sans-Serif" font-size="10.00">&#45; characterFainted()</text>
</a>
</g>
</g>
<!-- Node12&#45;&gt;Node16 -->
<g id="edge10" class="edge"><title>Node12&#45;&gt;Node16</title>
<path fill="none" stroke="#404040" d="M169.305,-993.523C120.061,-983.944 0,-952.351 0,-872 0,-872 0,-872 0,-292.5 0,-158.493 191.942,-115.572 298.959,-102.056"/>
<polygon fill="none" stroke="#404040" points="299.023,-102.048 304.505,-97.3626 310.938,-100.62 305.456,-105.306 299.023,-102.048"/>
<text text-anchor="middle" x="42" y="-598" font-family="Helvetica,sans-Serif" font-size="10.00"> +forceEnemyMove</text>
<text text-anchor="middle" x="42" y="-587" font-family="Helvetica,sans-Serif" font-size="10.00">+forceCriticalHits</text>
</g>
<!-- Node20 -->
<g id="node10" class="node"><title>Node20</title>
<g id="a_node10"><a xlink:href="class_item.html" target="_top" xlink:title="Abstract class for items that can be equipped to a player, increasing some of their stats ...">
<polygon fill="none" stroke="black" points="628.5,-733.5 628.5,-812.5 705.5,-812.5 705.5,-733.5 628.5,-733.5"/>
<text text-anchor="middle" x="667" y="-800.5" font-family="Helvetica,sans-Serif" font-size="10.00">Item</text>
<polyline fill="none" stroke="black" points="628.5,-793.5 705.5,-793.5 "/>
<text text-anchor="start" x="636.5" y="-781.5" font-family="Helvetica,sans-Serif" font-size="10.00">+ Name</text>
<text text-anchor="start" x="636.5" y="-770.5" font-family="Helvetica,sans-Serif" font-size="10.00">+ Desc</text>
<polyline fill="none" stroke="black" points="628.5,-763.5 705.5,-763.5 "/>
<text text-anchor="start" x="636.5" y="-751.5" font-family="Helvetica,sans-Serif" font-size="10.00">+ applyBuffs()</text>
<text text-anchor="start" x="636.5" y="-740.5" font-family="Helvetica,sans-Serif" font-size="10.00">+ revertBuffs()</text>
</a>
</g>
</g>
<!-- Node12&#45;&gt;Node20 -->
<g id="edge19" class="edge"><title>Node12&#45;&gt;Node20</title>
<path fill="none" stroke="#404040" d="M210.798,-994.335C262.552,-987.07 400.276,-963.822 502,-911 546.661,-887.809 590.156,-850.918 621.268,-821.257"/>
<polygon fill="none" stroke="#404040" points="621.483,-821.049 623.014,-814.002 630.108,-812.705 628.577,-819.752 621.483,-821.049"/>
<text text-anchor="middle" x="478" y="-943" font-family="Helvetica,sans-Serif" font-size="10.00"> #desc</text>
<text text-anchor="middle" x="478" y="-932" font-family="Helvetica,sans-Serif" font-size="10.00">#name</text>
</g>
<!-- Node13&#45;&gt;Node11 -->
<g id="edge2" class="edge"><title>Node13&#45;&gt;Node11</title>
<path fill="none" stroke="#404040" d="M263.364,-524.058C239.325,-550.81 212.467,-586.485 199,-624 175.923,-688.287 178.152,-768.185 183.085,-819.145"/>
<polygon fill="none" stroke="#404040" points="183.091,-819.202 187.697,-824.75 184.347,-831.136 179.741,-825.587 183.091,-819.202"/>
<text text-anchor="middle" x="216" y="-672.5" font-family="Helvetica,sans-Serif" font-size="10.00"> #target</text>
<text text-anchor="middle" x="216" y="-661.5" font-family="Helvetica,sans-Serif" font-size="10.00">#user</text>
</g>
<!-- Node17 -->
<g id="node7" class="node"><title>Node17</title>
<g id="a_node7"><a xlink:href="class_enemy.html" target="_top" xlink:title="Defines an AI controller enemy to fight in battle scenes">
<polygon fill="none" stroke="black" points="287.5,-265 287.5,-322 354.5,-322 354.5,-265 287.5,-265"/>
<text text-anchor="middle" x="321" y="-310" font-family="Helvetica,sans-Serif" font-size="10.00">Enemy</text>
<polyline fill="none" stroke="black" points="287.5,-303 354.5,-303 "/>
<text text-anchor="start" x="295.5" y="-291" font-family="Helvetica,sans-Serif" font-size="10.00">+ ExpGiven</text>
<polyline fill="none" stroke="black" points="287.5,-284 354.5,-284 "/>
<text text-anchor="start" x="295.5" y="-272" font-family="Helvetica,sans-Serif" font-size="10.00">+ Enemy()</text>
</a>
</g>
</g>
<!-- Node13&#45;&gt;Node17 -->
<g id="edge12" class="edge"><title>Node13&#45;&gt;Node17</title>
<path fill="none" stroke="midnightblue" d="M316.421,-377.378C317.545,-357.039 318.64,-337.217 319.477,-322.061"/>
<polygon fill="none" stroke="midnightblue" points="312.925,-377.208 315.868,-387.386 319.915,-377.594 312.925,-377.208"/>
</g>
<!-- Node19 -->
<g id="node9" class="node"><title>Node19</title>
<g id="a_node9"><a xlink:href="class_player.html" target="_top" xlink:title="Defines a playable character for use in battle scenes">
<polygon fill="none" stroke="black" points="373,-237.5 373,-349.5 485,-349.5 485,-237.5 373,-237.5"/>
<text text-anchor="middle" x="429" y="-337.5" font-family="Helvetica,sans-Serif" font-size="10.00">Player</text>
<polyline fill="none" stroke="black" points="373,-330.5 485,-330.5 "/>
<text text-anchor="start" x="381" y="-318.5" font-family="Helvetica,sans-Serif" font-size="10.00">+ Exp</text>
<text text-anchor="start" x="381" y="-307.5" font-family="Helvetica,sans-Serif" font-size="10.00">+ Item</text>
<text text-anchor="start" x="381" y="-296.5" font-family="Helvetica,sans-Serif" font-size="10.00">+ ExpToNextLevel</text>
<polyline fill="none" stroke="black" points="373,-289.5 485,-289.5 "/>
<text text-anchor="start" x="381" y="-277.5" font-family="Helvetica,sans-Serif" font-size="10.00">+ Player()</text>
<text text-anchor="start" x="381" y="-266.5" font-family="Helvetica,sans-Serif" font-size="10.00">+ gainExp()</text>
<text text-anchor="start" x="381" y="-255.5" font-family="Helvetica,sans-Serif" font-size="10.00">+ levelUp()</text>
<text text-anchor="start" x="381" y="-244.5" font-family="Helvetica,sans-Serif" font-size="10.00">&#45; setExpToNextLevel()</text>
</a>
</g>
</g>
<!-- Node13&#45;&gt;Node19 -->
<g id="edge17" class="edge"><title>Node13&#45;&gt;Node19</title>
<path fill="none" stroke="midnightblue" d="M364.33,-393.697C374.023,-378.829 383.922,-363.646 392.967,-349.771"/>
<polygon fill="none" stroke="midnightblue" points="361.184,-392.114 358.655,-402.402 367.048,-395.937 361.184,-392.114"/>
</g>
<!-- Node14 -->
<g id="node4" class="node"><title>Node14</title>
<polygon fill="none" stroke="#bfbfbf" points="464.5,-842.5 464.5,-899.5 493.5,-899.5 493.5,-842.5 464.5,-842.5"/>
<text text-anchor="middle" x="479" y="-887.5" font-family="Helvetica,sans-Serif" font-size="10.00">int</text>
<polyline fill="none" stroke="#bfbfbf" points="464.5,-880.5 493.5,-880.5 "/>
<text text-anchor="middle" x="479" y="-868.5" font-family="Helvetica,sans-Serif" font-size="10.00"> </text>
<polyline fill="none" stroke="#bfbfbf" points="464.5,-861.5 493.5,-861.5 "/>
<text text-anchor="middle" x="479" y="-849.5" font-family="Helvetica,sans-Serif" font-size="10.00"> </text>
</g>
<!-- Node14&#45;&gt;Node13 -->
<g id="edge4" class="edge"><title>Node14&#45;&gt;Node13</title>
<path fill="none" stroke="#404040" d="M464.443,-848.21C445.359,-818.916 411.759,-764.753 390,-715 365.555,-659.104 368.366,-641.852 349,-584 348.252,-581.766 347.491,-579.508 346.719,-577.232"/>
<polygon fill="none" stroke="#404040" points="346.672,-577.095 340.945,-572.713 342.787,-565.741 348.514,-570.123 346.672,-577.095"/>
<text text-anchor="middle" x="427.5" y="-705.5" font-family="Helvetica,sans-Serif" font-size="10.00"> #speed</text>
<text text-anchor="middle" x="427.5" y="-694.5" font-family="Helvetica,sans-Serif" font-size="10.00">#luck</text>
<text text-anchor="middle" x="427.5" y="-683.5" font-family="Helvetica,sans-Serif" font-size="10.00">#health</text>
<text text-anchor="middle" x="427.5" y="-672.5" font-family="Helvetica,sans-Serif" font-size="10.00">#magic</text>
<text text-anchor="middle" x="427.5" y="-661.5" font-family="Helvetica,sans-Serif" font-size="10.00">#maximumMagic</text>
<text text-anchor="middle" x="427.5" y="-650.5" font-family="Helvetica,sans-Serif" font-size="10.00">#attack</text>
<text text-anchor="middle" x="427.5" y="-639.5" font-family="Helvetica,sans-Serif" font-size="10.00">#defence</text>
<text text-anchor="middle" x="427.5" y="-628.5" font-family="Helvetica,sans-Serif" font-size="10.00">#level</text>
</g>
<!-- Node14&#45;&gt;Node15 -->
<g id="edge8" class="edge"><title>Node14&#45;&gt;Node15</title>
<path fill="none" stroke="#404040" d="M464.399,-868.907C434.073,-865.829 364.015,-854.383 327,-813 306.012,-789.535 296.892,-755.591 293.076,-726.717"/>
<polygon fill="none" stroke="#404040" points="293.066,-726.625 288.43,-721.102 291.746,-714.698 296.382,-720.222 293.066,-726.625"/>
<text text-anchor="middle" x="344.5" y="-770.5" font-family="Helvetica,sans-Serif" font-size="10.00"> #magic</text>
</g>
<!-- Node14&#45;&gt;Node16 -->
<g id="edge14" class="edge"><title>Node14&#45;&gt;Node16</title>
<path fill="none" stroke="#404040" d="M491.586,-842.337C493.606,-838.46 495.77,-834.58 498,-831 503.359,-822.398 506.074,-821.222 512,-813 556.507,-751.251 607,-746.617 607,-670.5 607,-670.5 607,-670.5 607,-292.5 607,-204.437 508.907,-148.457 438.671,-119.662"/>
<polygon fill="none" stroke="#404040" points="438.371,-119.542 431.317,-121.04 427.221,-115.104 434.275,-113.607 438.371,-119.542"/>
<text text-anchor="middle" x="626.5" y="-474" font-family="Helvetica,sans-Serif" font-size="10.00"> +money</text>
</g>
<!-- Node14&#45;&gt;Node17 -->
<g id="edge13" class="edge"><title>Node14&#45;&gt;Node17</title>
<path fill="none" stroke="#404040" d="M480.405,-842.279C482.076,-796.283 482.711,-701.57 465,-624 463.414,-617.055 369.949,-393.485 367,-387 358.857,-369.092 349.247,-349.548 340.922,-333.059"/>
<polygon fill="none" stroke="#404040" points="340.834,-332.886 334.55,-329.349 335.398,-322.188 341.682,-325.725 340.834,-332.886"/>
<text text-anchor="middle" x="481" y="-592.5" font-family="Helvetica,sans-Serif" font-size="10.00"> &#45;expGiven</text>
</g>
<!-- Node14&#45;&gt;Node19 -->
<g id="edge20" class="edge"><title>Node14&#45;&gt;Node19</title>
<path fill="none" stroke="#404040" d="M487.138,-842.409C489.504,-833.148 491.778,-822.706 493,-813 517.768,-616.296 518.085,-558.159 462,-368 461.332,-365.736 460.609,-363.451 459.841,-361.158"/>
<polygon fill="none" stroke="#404040" points="459.769,-360.96 453.96,-356.686 455.671,-349.681 461.479,-353.954 459.769,-360.96"/>
<text text-anchor="middle" x="546.5" y="-598" font-family="Helvetica,sans-Serif" font-size="10.00"> &#45;expToNextLevel</text>
<text text-anchor="middle" x="546.5" y="-587" font-family="Helvetica,sans-Serif" font-size="10.00">&#45;exp</text>
</g>
<!-- Node15&#45;&gt;Node13 -->
<g id="edge5" class="edge"><title>Node15&#45;&gt;Node13</title>
<path fill="none" stroke="#404040" d="M295.639,-624.201C297.115,-610.101 298.813,-593.887 300.529,-577.496"/>
<polygon fill="none" stroke="#404040" points="300.53,-577.492 297.176,-571.108 301.779,-565.557 305.133,-571.941 300.53,-577.492"/>
<text text-anchor="middle" x="322.5" y="-598" font-family="Helvetica,sans-Serif" font-size="10.00"> #special1</text>
<text text-anchor="middle" x="322.5" y="-587" font-family="Helvetica,sans-Serif" font-size="10.00">#special2</text>
</g>
<!-- Node16&#45;&gt;Node11 -->
<g id="edge9" class="edge"><title>Node16&#45;&gt;Node11</title>
<path fill="none" stroke="#404040" d="M310.764,-117.399C244.098,-146.103 144,-203.945 144,-292.5 144,-596 144,-596 144,-596 144,-674.925 162.792,-764.894 176.354,-819.547"/>
<polygon fill="none" stroke="#404040" points="176.39,-819.688 181.738,-824.524 179.331,-831.321 173.982,-826.485 176.39,-819.688"/>
<text text-anchor="middle" x="167" y="-474" font-family="Helvetica,sans-Serif" font-size="10.00"> #manager</text>
</g>
<!-- Node17&#45;&gt;Node16 -->
<g id="edge11" class="edge"><title>Node17&#45;&gt;Node16</title>
<path fill="none" stroke="#404040" d="M327.775,-264.763C331.909,-247.839 337.485,-225.016 343.197,-201.632"/>
<polygon fill="none" stroke="#404040" points="343.25,-201.414 340.788,-194.637 346.097,-189.757 348.559,-196.535 343.25,-201.414"/>
<text text-anchor="middle" x="359" y="-211" font-family="Helvetica,sans-Serif" font-size="10.00"> &#45;enemy</text>
</g>
<!-- Node18 -->
<g id="node8" class="node"><title>Node18</title>
<polygon fill="none" stroke="#bfbfbf" points="503.5,-265 503.5,-322 538.5,-322 538.5,-265 503.5,-265"/>
<text text-anchor="middle" x="521" y="-310" font-family="Helvetica,sans-Serif" font-size="10.00">bool</text>
<polyline fill="none" stroke="#bfbfbf" points="503.5,-303 538.5,-303 "/>
<text text-anchor="middle" x="521" y="-291" font-family="Helvetica,sans-Serif" font-size="10.00"> </text>
<polyline fill="none" stroke="#bfbfbf" points="503.5,-284 538.5,-284 "/>
<text text-anchor="middle" x="521" y="-272" font-family="Helvetica,sans-Serif" font-size="10.00"> </text>
</g>
<!-- Node18&#45;&gt;Node16 -->
<g id="edge15" class="edge"><title>Node18&#45;&gt;Node16</title>
<path fill="none" stroke="#404040" d="M509.374,-264.867C505.049,-255.703 499.774,-245.642 494,-237 476.988,-211.54 455.705,-185.847 435.549,-163.496"/>
<polygon fill="none" stroke="#404040" points="435.387,-163.319 428.387,-161.586 427.296,-154.458 434.295,-156.191 435.387,-163.319"/>
<text text-anchor="middle" x="513" y="-211" font-family="Helvetica,sans-Serif" font-size="10.00"> &#45;wasCriticalHit</text>
</g>
<!-- Node19&#45;&gt;Node16 -->
<g id="edge16" class="edge"><title>Node19&#45;&gt;Node16</title>
<path fill="none" stroke="#404040" d="M412.127,-237.241C408.651,-225.856 404.881,-213.511 401.067,-201.02"/>
<polygon fill="none" stroke="#404040" points="401.063,-201.007 395.485,-196.437 397.559,-189.53 403.137,-194.101 401.063,-201.007"/>
<text text-anchor="middle" x="423.5" y="-211" font-family="Helvetica,sans-Serif" font-size="10.00"> &#45;player</text>
</g>
<!-- Node20&#45;&gt;Node19 -->
<g id="edge18" class="edge"><title>Node20&#45;&gt;Node19</title>
<path fill="none" stroke="#404040" d="M678.887,-733.38C699.661,-657.419 732.936,-487.278 650,-387 606.981,-334.986 562.494,-377.259 496.561,-350.309"/>
<polygon fill="none" stroke="#404040" points="496.243,-350.163 489.119,-351.282 485.346,-345.136 492.47,-344.017 496.243,-350.163"/>
<text text-anchor="middle" x="714.5" y="-592.5" font-family="Helvetica,sans-Serif" font-size="10.00"> &#45;item</text>
</g>
</g>
</svg>
