<?xml version="1.0" encoding="UTF-8" standalone="no"?>
<!DOCTYPE svg PUBLIC "-//W3C//DTD SVG 1.1//EN"
 "http://www.w3.org/Graphics/SVG/1.1/DTD/svg11.dtd">
<!-- Generated by graphviz version 2.38.0 (20140413.2041)
 -->
<!-- Title: Character Pages: 1 -->
<!--zoomable 1087 -->
<svg id="main" version="1.1" xmlns="http://www.w3.org/2000/svg" xmlns:xlink="http://www.w3.org/1999/xlink" xml:space="preserve" onload="init(evt)">
<style type="text/css"><![CDATA[
.edge:hover path { stroke: red; }
.edge:hover polygon { stroke: red; fill: red; }
]]></style>
<script type="text/javascript"><![CDATA[
var edges = document.getElementsByTagName('g');
if (edges && edges.length) {
  for (var i=0;i<edges.length;i++) {
    if (edges[i].id.substr(0,4)=='edge') {
      edges[i].setAttribute('class','edge');
    }
  }
}
]]></script>
        <defs>
                <circle id="rim" cx="0" cy="0" r="7"/>
                <circle id="rim2" cx="0" cy="0" r="3.5"/>
                <g id="zoomPlus">
                        <use xlink:href="#rim" fill="#404040">
                                <set attributeName="fill" to="#808080" begin="zoomplus.mouseover" end="zoomplus.mouseout"/>
                        </use>
                        <path d="M-4,0h8M0,-4v8" fill="none" stroke="white" stroke-width="1.5" pointer-events="none"/>
                </g>
                <g id="zoomMin">
                        <use xlink:href="#rim" fill="#404040">
                                <set attributeName="fill" to="#808080" begin="zoomminus.mouseover" end="zoomminus.mouseout"/>
                        </use>
                        <path d="M-4,0h8" fill="none" stroke="white" stroke-width="1.5" pointer-events="none"/>
                </g>
                <g id="dirArrow">
                        <path fill="none" stroke="white" stroke-width="1.5" d="M0,-3.0v7 M-2.5,-0.5L0,-3.0L2.5,-0.5"/>
                </g>
               <g id="resetDef">
                       <use xlink:href="#rim2" fill="#404040">
                               <set attributeName="fill" to="#808080" begin="reset.mouseover" end="reset.mouseout"/>
                       </use>
               </g>
        </defs>

<script type="text/javascript">
var viewWidth = 770;
var viewHeight = 1087;
var sectionId = 'dynsection-1';
</script>
<script xlink:href="svgpan.js"/>
<svg id="graph" class="graph">
<g id="viewport">
<title>Character</title>
<!-- Node3 -->
<g id="node1" class="node"><title>Node3</title>
<polygon fill="#bfbfbf" stroke="black" points="200.5,-674.5 200.5,-885.5 295.5,-885.5 295.5,-674.5 200.5,-674.5"/>
<text text-anchor="middle" x="248" y="-873.5" font-family="Helvetica,sans-Serif" font-size="10.00">Character</text>
<polyline fill="none" stroke="black" points="200.5,-866.5 295.5,-866.5 "/>
<text text-anchor="start" x="208.5" y="-854.5" font-family="Helvetica,sans-Serif" font-size="10.00">+ Name</text>
<text text-anchor="start" x="208.5" y="-843.5" font-family="Helvetica,sans-Serif" font-size="10.00">+ Level</text>
<text text-anchor="start" x="208.5" y="-832.5" font-family="Helvetica,sans-Serif" font-size="10.00">+ Health</text>
<text text-anchor="start" x="208.5" y="-821.5" font-family="Helvetica,sans-Serif" font-size="10.00">+ Attack</text>
<text text-anchor="start" x="208.5" y="-810.5" font-family="Helvetica,sans-Serif" font-size="10.00">+ Defence</text>
<text text-anchor="start" x="208.5" y="-799.5" font-family="Helvetica,sans-Serif" font-size="10.00">+ MaximumMagic</text>
<text text-anchor="start" x="208.5" y="-788.5" font-family="Helvetica,sans-Serif" font-size="10.00">+ Magic</text>
<text text-anchor="start" x="208.5" y="-777.5" font-family="Helvetica,sans-Serif" font-size="10.00">+ Luck</text>
<text text-anchor="start" x="208.5" y="-766.5" font-family="Helvetica,sans-Serif" font-size="10.00">+ Speed</text>
<text text-anchor="start" x="208.5" y="-755.5" font-family="Helvetica,sans-Serif" font-size="10.00">+ Rage</text>
<text text-anchor="start" x="208.5" y="-744.5" font-family="Helvetica,sans-Serif" font-size="10.00">+ CanRage</text>
<text text-anchor="start" x="208.5" y="-733.5" font-family="Helvetica,sans-Serif" font-size="10.00">+ Special1</text>
<text text-anchor="start" x="208.5" y="-722.5" font-family="Helvetica,sans-Serif" font-size="10.00">+ Special2</text>
<text text-anchor="start" x="208.5" y="-711.5" font-family="Helvetica,sans-Serif" font-size="10.00">+ Image</text>
<polyline fill="none" stroke="black" points="200.5,-704.5 295.5,-704.5 "/>
<text text-anchor="start" x="208.5" y="-692.5" font-family="Helvetica,sans-Serif" font-size="10.00">+ IsEnraged()</text>
<text text-anchor="start" x="208.5" y="-681.5" font-family="Helvetica,sans-Serif" font-size="10.00"># Character()</text>
</g>
<!-- Node8 -->
<g id="node6" class="node"><title>Node8</title>
<g id="a_node6"><a xlink:href="class_character_move.html" target="_top" xlink:title="Astract base class for character moves ">
<polygon fill="none" stroke="black" points="114,-128.5 114,-207.5 200,-207.5 200,-128.5 114,-128.5"/>
<text text-anchor="middle" x="157" y="-195.5" font-family="Helvetica,sans-Serif" font-size="10.00">CharacterMove</text>
<polyline fill="none" stroke="black" points="114,-188.5 200,-188.5 "/>
<text text-anchor="start" x="122" y="-176.5" font-family="Helvetica,sans-Serif" font-size="10.00">+ User</text>
<text text-anchor="start" x="122" y="-165.5" font-family="Helvetica,sans-Serif" font-size="10.00">+ Target</text>
<text text-anchor="start" x="122" y="-154.5" font-family="Helvetica,sans-Serif" font-size="10.00">+ Text</text>
<polyline fill="none" stroke="black" points="114,-147.5 200,-147.5 "/>
<text text-anchor="start" x="122" y="-135.5" font-family="Helvetica,sans-Serif" font-size="10.00">+ performMove()</text>
</a>
</g>
</g>
<!-- Node3&#45;&gt;Node8 -->
<g id="edge7" class="edge"><title>Node3&#45;&gt;Node8</title>
<path fill="none" stroke="#404040" d="M217.594,-674.483C215.986,-668.243 214.441,-662.047 213,-656 195.058,-580.706 190.16,-561.733 180,-485 167.672,-391.896 161.557,-282.422 158.852,-219.827"/>
<polygon fill="none" stroke="#404040" points="158.841,-219.567 154.594,-213.739 158.34,-207.578 162.587,-213.405 158.841,-219.567"/>
<text text-anchor="middle" x="197" y="-477" font-family="Helvetica,sans-Serif" font-size="10.00"> #target</text>
<text text-anchor="middle" x="197" y="-466" font-family="Helvetica,sans-Serif" font-size="10.00">#user</text>
</g>
<!-- Node10 -->
<g id="node8" class="node"><title>Node10</title>
<g id="a_node8"><a xlink:href="class_enemy.html" target="_top" xlink:title="Defines an AI controller enemy to fight in battle scenes">
<polygon fill="none" stroke="black" points="255.5,-531 255.5,-588 322.5,-588 322.5,-531 255.5,-531"/>
<text text-anchor="middle" x="289" y="-576" font-family="Helvetica,sans-Serif" font-size="10.00">Enemy</text>
<polyline fill="none" stroke="black" points="255.5,-569 322.5,-569 "/>
<text text-anchor="start" x="263.5" y="-557" font-family="Helvetica,sans-Serif" font-size="10.00">+ ExpGiven</text>
<polyline fill="none" stroke="black" points="255.5,-550 322.5,-550 "/>
<text text-anchor="start" x="263.5" y="-538" font-family="Helvetica,sans-Serif" font-size="10.00">+ Enemy()</text>
</a>
</g>
</g>
<!-- Node3&#45;&gt;Node10 -->
<g id="edge11" class="edge"><title>Node3&#45;&gt;Node10</title>
<path fill="none" stroke="midnightblue" d="M269.546,-664.176C274.875,-635.775 280.11,-607.878 283.804,-588.189"/>
<polygon fill="none" stroke="midnightblue" points="266.064,-663.756 267.659,-674.23 272.944,-665.047 266.064,-663.756"/>
</g>
<!-- Node11 -->
<g id="node9" class="node"><title>Node11</title>
<g id="a_node9"><a xlink:href="class_player.html" target="_top" xlink:title="Defines a playable character for use in battle scenes">
<polygon fill="none" stroke="black" points="379,-503.5 379,-615.5 491,-615.5 491,-503.5 379,-503.5"/>
<text text-anchor="middle" x="435" y="-603.5" font-family="Helvetica,sans-Serif" font-size="10.00">Player</text>
<polyline fill="none" stroke="black" points="379,-596.5 491,-596.5 "/>
<text text-anchor="start" x="387" y="-584.5" font-family="Helvetica,sans-Serif" font-size="10.00">+ Exp</text>
<text text-anchor="start" x="387" y="-573.5" font-family="Helvetica,sans-Serif" font-size="10.00">+ Item</text>
<text text-anchor="start" x="387" y="-562.5" font-family="Helvetica,sans-Serif" font-size="10.00">+ ExpToNextLevel</text>
<polyline fill="none" stroke="black" points="379,-555.5 491,-555.5 "/>
<text text-anchor="start" x="387" y="-543.5" font-family="Helvetica,sans-Serif" font-size="10.00">+ Player()</text>
<text text-anchor="start" x="387" y="-532.5" font-family="Helvetica,sans-Serif" font-size="10.00">+ gainExp()</text>
<text text-anchor="start" x="387" y="-521.5" font-family="Helvetica,sans-Serif" font-size="10.00">+ levelUp()</text>
<text text-anchor="start" x="387" y="-510.5" font-family="Helvetica,sans-Serif" font-size="10.00">&#45; setExpToNextLevel()</text>
</a>
</g>
</g>
<!-- Node3&#45;&gt;Node11 -->
<g id="edge16" class="edge"><title>Node3&#45;&gt;Node11</title>
<path fill="none" stroke="midnightblue" d="M300.111,-665.526C307.376,-654.329 315.349,-643.583 324,-634 339.488,-616.844 359.813,-601.876 378.833,-590.004"/>
<polygon fill="none" stroke="midnightblue" points="297.042,-663.832 294.695,-674.163 302.973,-667.551 297.042,-663.832"/>
</g>
<!-- Node4 -->
<g id="node2" class="node"><title>Node4</title>
<polygon fill="none" stroke="#bfbfbf" points="63.5,-1021.5 63.5,-1078.5 104.5,-1078.5 104.5,-1021.5 63.5,-1021.5"/>
<text text-anchor="middle" x="84" y="-1066.5" font-family="Helvetica,sans-Serif" font-size="10.00">string</text>
<polyline fill="none" stroke="#bfbfbf" points="63.5,-1059.5 104.5,-1059.5 "/>
<text text-anchor="middle" x="84" y="-1047.5" font-family="Helvetica,sans-Serif" font-size="10.00"> </text>
<polyline fill="none" stroke="#bfbfbf" points="63.5,-1040.5 104.5,-1040.5 "/>
<text text-anchor="middle" x="84" y="-1028.5" font-family="Helvetica,sans-Serif" font-size="10.00"> </text>
</g>
<!-- Node4&#45;&gt;Node3 -->
<g id="edge1" class="edge"><title>Node4&#45;&gt;Node3</title>
<path fill="none" stroke="#404040" d="M90.6601,-1021.28C92.0986,-1015.25 93.6059,-1008.91 95,-1003 105.364,-959.033 95.5289,-943.186 118,-904 136.171,-872.313 165.068,-843.79 191.008,-822.207"/>
<polygon fill="none" stroke="#404040" points="191.09,-822.14 193.227,-815.253 200.406,-814.576 198.27,-821.463 191.09,-822.14"/>
<text text-anchor="middle" x="134.5" y="-951" font-family="Helvetica,sans-Serif" font-size="10.00"> #name</text>
</g>
<!-- Node7 -->
<g id="node5" class="node"><title>Node7</title>
<g id="a_node5"><a xlink:href="class_special_move.html" target="_top" xlink:title="Special move abstract base class that expands upon CharacterMove, adding magic properties ...">
<polygon fill="none" stroke="black" points="155,-0.5 155,-90.5 253,-90.5 253,-0.5 155,-0.5"/>
<text text-anchor="middle" x="204" y="-78.5" font-family="Helvetica,sans-Serif" font-size="10.00">SpecialMove</text>
<polyline fill="none" stroke="black" points="155,-71.5 253,-71.5 "/>
<text text-anchor="start" x="163" y="-59.5" font-family="Helvetica,sans-Serif" font-size="10.00">+ Magic</text>
<text text-anchor="start" x="163" y="-48.5" font-family="Helvetica,sans-Serif" font-size="10.00">+ Desc</text>
<polyline fill="none" stroke="black" points="155,-41.5 253,-41.5 "/>
<text text-anchor="start" x="163" y="-29.5" font-family="Helvetica,sans-Serif" font-size="10.00">+ setUp()</text>
<text text-anchor="start" x="163" y="-18.5" font-family="Helvetica,sans-Serif" font-size="10.00">+ decreaseMagic()</text>
<text text-anchor="start" x="163" y="-7.5" font-family="Helvetica,sans-Serif" font-size="10.00"># SpecialMove()</text>
</a>
</g>
</g>
<!-- Node4&#45;&gt;Node7 -->
<g id="edge21" class="edge"><title>Node4&#45;&gt;Node7</title>
<path fill="none" stroke="#404040" d="M63.2968,-1021.71C59.4588,-1015.77 55.7873,-1009.35 53,-1003 12.2234,-910.117 0,-882.44 0,-781 0,-781 0,-781 0,-167 0,-99.944 82.7231,-69.4262 142.814,-56.1036"/>
<polygon fill="none" stroke="#404040" points="143.13,-56.0379 148.187,-50.8975 154.877,-53.5886 149.82,-58.7291 143.13,-56.0379"/>
<text text-anchor="middle" x="15" y="-471.5" font-family="Helvetica,sans-Serif" font-size="10.00"> #desc</text>
</g>
<!-- Node4&#45;&gt;Node8 -->
<g id="edge6" class="edge"><title>Node4&#45;&gt;Node8</title>
<path fill="none" stroke="#404040" d="M77.4676,-1021.4C66.6028,-973.017 46,-869.582 46,-781 46,-781 46,-781 46,-349 46,-298.661 77.8403,-250.611 107.415,-216.837"/>
<polygon fill="none" stroke="#404040" points="107.624,-216.605 108.678,-209.471 115.668,-207.7 114.614,-214.834 107.624,-216.605"/>
<text text-anchor="middle" x="58.5" y="-557" font-family="Helvetica,sans-Serif" font-size="10.00"> #text</text>
</g>
<!-- Node9 -->
<g id="node7" class="node"><title>Node9</title>
<g id="a_node7"><a xlink:href="class_battle_manager.html" target="_top" xlink:title="Holds current Player and Enemy objects in battle and provides functions for MainBattle and other obje...">
<polygon fill="none" stroke="black" points="292,-255.5 292,-444.5 408,-444.5 408,-255.5 292,-255.5"/>
<text text-anchor="middle" x="350" y="-432.5" font-family="Helvetica,sans-Serif" font-size="10.00">BattleManager</text>
<polyline fill="none" stroke="black" points="292,-425.5 408,-425.5 "/>
<text text-anchor="start" x="300" y="-413.5" font-family="Helvetica,sans-Serif" font-size="10.00">+ Player</text>
<text text-anchor="start" x="300" y="-402.5" font-family="Helvetica,sans-Serif" font-size="10.00">+ Enemy</text>
<text text-anchor="start" x="300" y="-391.5" font-family="Helvetica,sans-Serif" font-size="10.00">+ WasCriticalHit</text>
<polyline fill="none" stroke="black" points="292,-384.5 408,-384.5 "/>
<text text-anchor="start" x="300" y="-372.5" font-family="Helvetica,sans-Serif" font-size="10.00">+ BattleManager()</text>
<text text-anchor="start" x="300" y="-361.5" font-family="Helvetica,sans-Serif" font-size="10.00">+ playerFirst()</text>
<text text-anchor="start" x="300" y="-350.5" font-family="Helvetica,sans-Serif" font-size="10.00">+ switchPlayers()</text>
<text text-anchor="start" x="300" y="-339.5" font-family="Helvetica,sans-Serif" font-size="10.00">+ isCriticalHit()</text>
<text text-anchor="start" x="300" y="-328.5" font-family="Helvetica,sans-Serif" font-size="10.00">+ ranAway()</text>
<text text-anchor="start" x="300" y="-317.5" font-family="Helvetica,sans-Serif" font-size="10.00">+ damageCalculation()</text>
<text text-anchor="start" x="300" y="-306.5" font-family="Helvetica,sans-Serif" font-size="10.00">+ enemyMove()</text>
<text text-anchor="start" x="300" y="-295.5" font-family="Helvetica,sans-Serif" font-size="10.00">+ enemySpecialMove()</text>
<text text-anchor="start" x="300" y="-284.5" font-family="Helvetica,sans-Serif" font-size="10.00">+ battleWon()</text>
<text text-anchor="start" x="300" y="-273.5" font-family="Helvetica,sans-Serif" font-size="10.00">+ playerFainted()</text>
<text text-anchor="start" x="300" y="-262.5" font-family="Helvetica,sans-Serif" font-size="10.00">&#45; characterFainted()</text>
</a>
</g>
</g>
<!-- Node4&#45;&gt;Node9 -->
<g id="edge9" class="edge"><title>Node4&#45;&gt;Node9</title>
<path fill="none" stroke="#404040" d="M83.7829,-1021.2C83.5949,-915.026 88.9955,-537.399 174,-463 208.969,-432.394 237.183,-468.962 277,-445 278.604,-444.034 280.187,-443.019 281.746,-441.96"/>
<polygon fill="none" stroke="#404040" points="282.165,-441.641 284.512,-434.822 291.709,-434.366 289.362,-441.185 282.165,-441.641"/>
<text text-anchor="middle" x="151" y="-648" font-family="Helvetica,sans-Serif" font-size="10.00"> +forceEnemyMove</text>
<text text-anchor="middle" x="151" y="-637" font-family="Helvetica,sans-Serif" font-size="10.00">+forceCriticalHits</text>
</g>
<!-- Node12 -->
<g id="node10" class="node"><title>Node12</title>
<g id="a_node10"><a xlink:href="class_item.html" target="_top" xlink:title="Abstract class for items that can be equipped to a player, increasing some of their stats ...">
<polygon fill="none" stroke="black" points="374.5,-735 374.5,-825 451.5,-825 451.5,-735 374.5,-735"/>
<text text-anchor="middle" x="413" y="-813" font-family="Helvetica,sans-Serif" font-size="10.00">Item</text>
<polyline fill="none" stroke="black" points="374.5,-806 451.5,-806 "/>
<text text-anchor="start" x="382.5" y="-794" font-family="Helvetica,sans-Serif" font-size="10.00">+ Name</text>
<text text-anchor="start" x="382.5" y="-783" font-family="Helvetica,sans-Serif" font-size="10.00">+ Desc</text>
<text text-anchor="start" x="382.5" y="-772" font-family="Helvetica,sans-Serif" font-size="10.00">+ Cost</text>
<polyline fill="none" stroke="black" points="374.5,-765 451.5,-765 "/>
<text text-anchor="start" x="382.5" y="-753" font-family="Helvetica,sans-Serif" font-size="10.00">+ applyBuffs()</text>
<text text-anchor="start" x="382.5" y="-742" font-family="Helvetica,sans-Serif" font-size="10.00">+ revertBuffs()</text>
</a>
</g>
</g>
<!-- Node4&#45;&gt;Node12 -->
<g id="edge18" class="edge"><title>Node4&#45;&gt;Node12</title>
<path fill="none" stroke="#404040" d="M104.563,-1039.05C119.213,-1031.07 138.455,-1018.62 151,-1003 180.713,-965.997 153.874,-933.558 191,-904 230.786,-872.324 258.484,-908.684 304,-886 328.87,-873.606 351.793,-853.534 370.134,-834.242"/>
<polygon fill="none" stroke="#404040" points="370.362,-833.995 371.485,-826.871 378.492,-825.169 377.369,-832.292 370.362,-833.995"/>
<text text-anchor="middle" x="206" y="-956.5" font-family="Helvetica,sans-Serif" font-size="10.00"> #desc</text>
<text text-anchor="middle" x="206" y="-945.5" font-family="Helvetica,sans-Serif" font-size="10.00">#name</text>
</g>
<!-- Node5 -->
<g id="node3" class="node"><title>Node5</title>
<polygon fill="none" stroke="#bfbfbf" points="530.5,-1021.5 530.5,-1078.5 559.5,-1078.5 559.5,-1021.5 530.5,-1021.5"/>
<text text-anchor="middle" x="545" y="-1066.5" font-family="Helvetica,sans-Serif" font-size="10.00">int</text>
<polyline fill="none" stroke="#bfbfbf" points="530.5,-1059.5 559.5,-1059.5 "/>
<text text-anchor="middle" x="545" y="-1047.5" font-family="Helvetica,sans-Serif" font-size="10.00"> </text>
<polyline fill="none" stroke="#bfbfbf" points="530.5,-1040.5 559.5,-1040.5 "/>
<text text-anchor="middle" x="545" y="-1028.5" font-family="Helvetica,sans-Serif" font-size="10.00"> </text>
</g>
<!-- Node5&#45;&gt;Node3 -->
<g id="edge2" class="edge"><title>Node5&#45;&gt;Node3</title>
<path fill="none" stroke="#404040" d="M530.325,-1049.15C498.267,-1048.69 421.241,-1043.19 376,-1003 340.52,-971.485 358.856,-945.589 336,-904 326.313,-886.373 314.544,-868.283 302.807,-851.583"/>
<polygon fill="none" stroke="#404040" points="302.496,-851.148 295.753,-848.59 295.521,-841.382 302.264,-843.94 302.496,-851.148"/>
<text text-anchor="middle" x="413.5" y="-995" font-family="Helvetica,sans-Serif" font-size="10.00"> #speed</text>
<text text-anchor="middle" x="413.5" y="-984" font-family="Helvetica,sans-Serif" font-size="10.00">#luck</text>
<text text-anchor="middle" x="413.5" y="-973" font-family="Helvetica,sans-Serif" font-size="10.00">#health</text>
<text text-anchor="middle" x="413.5" y="-962" font-family="Helvetica,sans-Serif" font-size="10.00">#magic</text>
<text text-anchor="middle" x="413.5" y="-951" font-family="Helvetica,sans-Serif" font-size="10.00">#maximumMagic</text>
<text text-anchor="middle" x="413.5" y="-940" font-family="Helvetica,sans-Serif" font-size="10.00">#attack</text>
<text text-anchor="middle" x="413.5" y="-929" font-family="Helvetica,sans-Serif" font-size="10.00">#defence</text>
<text text-anchor="middle" x="413.5" y="-918" font-family="Helvetica,sans-Serif" font-size="10.00">#level</text>
<text text-anchor="middle" x="413.5" y="-907" font-family="Helvetica,sans-Serif" font-size="10.00">#rage</text>
</g>
<!-- Node5&#45;&gt;Node7 -->
<g id="edge22" class="edge"><title>Node5&#45;&gt;Node7</title>
<path fill="none" stroke="#404040" d="M559.568,-1044.08C577.541,-1037.35 608.04,-1023.71 627,-1003 700.079,-923.189 727,-889.215 727,-781 727,-781 727,-781 727,-167 727,-73.255 403.885,-52.4327 265.598,-47.8139"/>
<polygon fill="none" stroke="#404040" points="265.197,-47.8015 259.075,-51.6123 253.203,-47.427 259.324,-43.6162 265.197,-47.8015"/>
<text text-anchor="middle" x="744.5" y="-471.5" font-family="Helvetica,sans-Serif" font-size="10.00"> #magic</text>
</g>
<!-- Node5&#45;&gt;Node9 -->
<g id="edge13" class="edge"><title>Node5&#45;&gt;Node9</title>
<path fill="none" stroke="#404040" d="M559.874,-1032.49C583.806,-1004.69 629.905,-945.692 647,-886 672.941,-795.419 679.754,-762.346 647,-674 602.965,-555.226 490.828,-454.473 417.639,-398.443"/>
<polygon fill="none" stroke="#404040" points="417.595,-398.409 410.397,-397.979 408.026,-391.168 415.224,-391.599 417.595,-398.409"/>
<text text-anchor="middle" x="658.5" y="-642.5" font-family="Helvetica,sans-Serif" font-size="10.00"> +money</text>
</g>
<!-- Node5&#45;&gt;Node10 -->
<g id="edge12" class="edge"><title>Node5&#45;&gt;Node10</title>
<path fill="none" stroke="#404040" d="M541.918,-1021.45C537.564,-991.011 527.589,-941.353 506,-904 500.339,-894.205 492.961,-896.168 488,-886 463.26,-835.291 495.236,-675.491 457,-634 430.242,-604.964 406.332,-631.462 370,-616 357.14,-610.527 344.21,-602.868 332.573,-594.983"/>
<polygon fill="none" stroke="#404040" points="332.528,-594.951 325.319,-594.77 322.714,-588.046 329.923,-588.227 332.528,-594.951"/>
<text text-anchor="middle" x="511" y="-777.5" font-family="Helvetica,sans-Serif" font-size="10.00"> &#45;expGiven</text>
</g>
<!-- Node5&#45;&gt;Node11 -->
<g id="edge20" class="edge"><title>Node5&#45;&gt;Node11</title>
<path fill="none" stroke="#404040" d="M550.82,-1021.37C562.953,-957.491 586.029,-795.751 538,-674 529.596,-652.697 515.202,-632.89 499.795,-615.98"/>
<polygon fill="none" stroke="#404040" points="499.428,-615.594 492.395,-613.998 491.163,-606.893 498.195,-608.489 499.428,-615.594"/>
<text text-anchor="middle" x="605.5" y="-783" font-family="Helvetica,sans-Serif" font-size="10.00"> &#45;expToNextLevel</text>
<text text-anchor="middle" x="605.5" y="-772" font-family="Helvetica,sans-Serif" font-size="10.00">&#45;exp</text>
</g>
<!-- Node5&#45;&gt;Node12 -->
<g id="edge19" class="edge"><title>Node5&#45;&gt;Node12</title>
<path fill="none" stroke="#404040" d="M530.313,-1042.85C514.87,-1035.62 491.041,-1022.11 478,-1003 452.542,-965.685 467.425,-947.429 455,-904 448.64,-881.772 440.643,-857.633 433.339,-836.674"/>
<polygon fill="none" stroke="#404040" points="433.237,-836.385 427.471,-832.054 429.251,-825.066 435.017,-829.397 433.237,-836.385"/>
<text text-anchor="middle" x="492" y="-951" font-family="Helvetica,sans-Serif" font-size="10.00"> #cost</text>
</g>
<!-- Node6 -->
<g id="node4" class="node"><title>Node6</title>
<polygon fill="none" stroke="#bfbfbf" points="301.5,-1021.5 301.5,-1078.5 336.5,-1078.5 336.5,-1021.5 301.5,-1021.5"/>
<text text-anchor="middle" x="319" y="-1066.5" font-family="Helvetica,sans-Serif" font-size="10.00">bool</text>
<polyline fill="none" stroke="#bfbfbf" points="301.5,-1059.5 336.5,-1059.5 "/>
<text text-anchor="middle" x="319" y="-1047.5" font-family="Helvetica,sans-Serif" font-size="10.00"> </text>
<polyline fill="none" stroke="#bfbfbf" points="301.5,-1040.5 336.5,-1040.5 "/>
<text text-anchor="middle" x="319" y="-1028.5" font-family="Helvetica,sans-Serif" font-size="10.00"> </text>
</g>
<!-- Node6&#45;&gt;Node3 -->
<g id="edge3" class="edge"><title>Node6&#45;&gt;Node3</title>
<path fill="none" stroke="#404040" d="M301.182,-1029.21C295.153,-1021.52 288.952,-1012.33 285,-1003 276.726,-983.475 268.816,-940.596 262.45,-897.678"/>
<polygon fill="none" stroke="#404040" points="262.419,-897.467 257.599,-892.104 260.696,-885.591 265.516,-890.955 262.419,-897.467"/>
<text text-anchor="middle" x="308.5" y="-951" font-family="Helvetica,sans-Serif" font-size="10.00"> #canRage</text>
</g>
<!-- Node6&#45;&gt;Node9 -->
<g id="edge14" class="edge"><title>Node6&#45;&gt;Node9</title>
<path fill="none" stroke="#404040" d="M328.096,-1021.02C329.675,-1015.13 331.098,-1008.91 332,-1003 347.575,-900.993 350.096,-613.773 350.257,-456.755"/>
<polygon fill="none" stroke="#404040" points="350.257,-456.754 346.261,-450.751 350.265,-444.754 354.261,-450.757 350.257,-456.754"/>
<text text-anchor="middle" x="383" y="-642.5" font-family="Helvetica,sans-Serif" font-size="10.00"> &#45;wasCriticalHit</text>
</g>
<!-- Node7&#45;&gt;Node3 -->
<g id="edge4" class="edge"><title>Node7&#45;&gt;Node3</title>
<path fill="none" stroke="#404040" d="M206.736,-90.9124C207.475,-102.947 208.271,-115.973 209,-128 220.326,-314.807 233.285,-531.781 241.047,-662.086"/>
<polygon fill="none" stroke="#404040" points="241.068,-662.443 245.417,-668.194 241.781,-674.422 237.432,-668.67 241.068,-662.443"/>
<text text-anchor="middle" x="250.5" y="-353" font-family="Helvetica,sans-Serif" font-size="10.00"> #special1</text>
<text text-anchor="middle" x="250.5" y="-342" font-family="Helvetica,sans-Serif" font-size="10.00">#special2</text>
</g>
<!-- Node8&#45;&gt;Node7 -->
<g id="edge5" class="edge"><title>Node8&#45;&gt;Node7</title>
<path fill="none" stroke="midnightblue" d="M175.827,-118.73C179.443,-109.46 183.213,-99.7944 186.775,-90.6615"/>
<polygon fill="none" stroke="midnightblue" points="172.503,-117.621 172.13,-128.21 179.024,-120.165 172.503,-117.621"/>
</g>
<!-- Node9&#45;&gt;Node8 -->
<g id="edge8" class="edge"><title>Node9&#45;&gt;Node8</title>
<path fill="none" stroke="#404040" d="M291.942,-270.523C287.068,-265.106 282.062,-259.871 277,-255 256.831,-235.592 232.032,-217.093 210.225,-202.259"/>
<polygon fill="none" stroke="#404040" points="210.093,-202.17 202.881,-202.158 200.119,-195.497 207.33,-195.509 210.093,-202.17"/>
<text text-anchor="middle" x="279" y="-229" font-family="Helvetica,sans-Serif" font-size="10.00"> #manager</text>
</g>
<!-- Node10&#45;&gt;Node9 -->
<g id="edge10" class="edge"><title>Node10&#45;&gt;Node9</title>
<path fill="none" stroke="#404040" d="M290.364,-530.923C291.826,-511.624 294.834,-485.394 301,-463 301.623,-460.736 302.284,-458.459 302.978,-456.174"/>
<polygon fill="none" stroke="#404040" points="302.997,-456.117 301.047,-449.175 306.706,-444.705 308.655,-451.648 302.997,-456.117"/>
<text text-anchor="middle" x="319" y="-471.5" font-family="Helvetica,sans-Serif" font-size="10.00"> &#45;enemy</text>
</g>
<!-- Node11&#45;&gt;Node9 -->
<g id="edge15" class="edge"><title>Node11&#45;&gt;Node9</title>
<path fill="none" stroke="#404040" d="M412.445,-503.439C406.451,-488.806 399.772,-472.502 393.074,-456.151"/>
<polygon fill="none" stroke="#404040" points="392.991,-455.949 387.015,-451.913 388.442,-444.845 394.418,-448.88 392.991,-455.949"/>
<text text-anchor="middle" x="419.5" y="-471.5" font-family="Helvetica,sans-Serif" font-size="10.00"> &#45;player</text>
</g>
<!-- Node12&#45;&gt;Node11 -->
<g id="edge17" class="edge"><title>Node12&#45;&gt;Node11</title>
<path fill="none" stroke="#404040" d="M417.452,-734.783C420.552,-703.996 424.743,-662.375 428.251,-627.528"/>
<polygon fill="none" stroke="#404040" points="428.259,-627.453 424.88,-621.082 429.461,-615.513 432.84,-621.884 428.259,-627.453"/>
<text text-anchor="middle" x="440.5" y="-642.5" font-family="Helvetica,sans-Serif" font-size="10.00"> &#45;item</text>
</g>
<!-- Node13 -->
<g id="node11" class="node"><title>Node13</title>
<polygon fill="none" stroke="#bfbfbf" points="195.5,-1021.5 195.5,-1078.5 256.5,-1078.5 256.5,-1021.5 195.5,-1021.5"/>
<text text-anchor="middle" x="226" y="-1066.5" font-family="Helvetica,sans-Serif" font-size="10.00">Texture2D</text>
<polyline fill="none" stroke="#bfbfbf" points="195.5,-1059.5 256.5,-1059.5 "/>
<text text-anchor="middle" x="226" y="-1047.5" font-family="Helvetica,sans-Serif" font-size="10.00"> </text>
<polyline fill="none" stroke="#bfbfbf" points="195.5,-1040.5 256.5,-1040.5 "/>
<text text-anchor="middle" x="226" y="-1028.5" font-family="Helvetica,sans-Serif" font-size="10.00"> </text>
</g>
<!-- Node13&#45;&gt;Node3 -->
<g id="edge23" class="edge"><title>Node13&#45;&gt;Node3</title>
<path fill="none" stroke="#404040" d="M224.864,-1021.41C223.971,-992.191 223.405,-944.75 227,-904 227.183,-901.923 227.382,-899.828 227.596,-897.72"/>
<polygon fill="none" stroke="#404040" points="227.626,-897.454 224.322,-891.045 228.967,-885.529 232.271,-891.939 227.626,-897.454"/>
<text text-anchor="middle" x="244.5" y="-951" font-family="Helvetica,sans-Serif" font-size="10.00"> #image</text>
</g>
</g>
</svg>
        <g id="navigator" transform="translate(0 0)" fill="#404254">
                <rect fill="#f2f5e9" fill-opacity="0.5" stroke="#606060" stroke-width=".5" x="0" y="0" width="60" height="60"/>
                <use id="zoomplus" xlink:href="#zoomPlus" x="17" y="9" onmousedown="handleZoom(evt,'in')"/>
                <use id="zoomminus" xlink:href="#zoomMin" x="42" y="9" onmousedown="handleZoom(evt,'out')"/>
                <use id="reset" xlink:href="#resetDef" x="30" y="36" onmousedown="handleReset()"/>
                <g id="arrowUp" xlink:href="#dirArrow" transform="translate(30 24)" onmousedown="handlePan(0,-1)">
                  <use xlink:href="#rim" fill="#404040">
                        <set attributeName="fill" to="#808080" begin="arrowUp.mouseover" end="arrowUp.mouseout"/>
                  </use>
                  <path fill="none" stroke="white" stroke-width="1.5" d="M0,-3.0v7 M-2.5,-0.5L0,-3.0L2.5,-0.5"/>
                </g>
                <g id="arrowRight" xlink:href="#dirArrow" transform="rotate(90) translate(36 -43)" onmousedown="handlePan(1,0)">
                  <use xlink:href="#rim" fill="#404040">
                        <set attributeName="fill" to="#808080" begin="arrowRight.mouseover" end="arrowRight.mouseout"/>
                  </use>
                  <path fill="none" stroke="white" stroke-width="1.5" d="M0,-3.0v7 M-2.5,-0.5L0,-3.0L2.5,-0.5"/>
                </g>
                <g id="arrowDown" xlink:href="#dirArrow" transform="rotate(180) translate(-30 -48)" onmousedown="handlePan(0,1)">
                  <use xlink:href="#rim" fill="#404040">
                        <set attributeName="fill" to="#808080" begin="arrowDown.mouseover" end="arrowDown.mouseout"/>
                  </use>
                  <path fill="none" stroke="white" stroke-width="1.5" d="M0,-3.0v7 M-2.5,-0.5L0,-3.0L2.5,-0.5"/>
                </g>
                <g id="arrowLeft" xlink:href="#dirArrow" transform="rotate(270) translate(-36 17)" onmousedown="handlePan(-1,0)">
                  <use xlink:href="#rim" fill="#404040">
                        <set attributeName="fill" to="#808080" begin="arrowLeft.mouseover" end="arrowLeft.mouseout"/>
                  </use>
                  <path fill="none" stroke="white" stroke-width="1.5" d="M0,-3.0v7 M-2.5,-0.5L0,-3.0L2.5,-0.5"/>
                </g>
        </g>
        <svg viewBox="0 0 15 15" width="100%" height="30px" preserveAspectRatio="xMaxYMin meet">
         <g id="arrow_out" transform="scale(0.3 0.3)">
          <a xlink:href="class_character__coll__graph_org.svg" target="_base">
           <rect id="button" ry="5" rx="5" y="6" x="6" height="38" width="38"
                fill="#f2f5e9" fill-opacity="0.5" stroke="#606060" stroke-width="1.0"/>
           <path id="arrow"
             d="M 11.500037,31.436501 C 11.940474,20.09759 22.043105,11.32322 32.158766,21.979434 L 37.068811,17.246167 C 37.068811,17.246167 37.088388,32 37.088388,32 L 22.160133,31.978069 C 22.160133,31.978069 26.997745,27.140456 26.997745,27.140456 C 18.528582,18.264221 13.291696,25.230495 11.500037,31.436501 z"
             style="fill:#404040;"/>
          </a>
         </g>
        </svg>
</svg>
