<?xml version="1.0" encoding="UTF-8" standalone="no"?>
<!DOCTYPE svg PUBLIC "-//W3C//DTD SVG 1.1//EN"
 "http://www.w3.org/Graphics/SVG/1.1/DTD/svg11.dtd">
<!-- Generated by graphviz version 2.38.0 (20140413.2041)
 -->
<!-- Title: QuestCreateMenuScript Pages: 1 -->
<svg width="610pt" height="452pt"
 viewBox="0.00 0.00 609.50 452.00" xmlns="http://www.w3.org/2000/svg" xmlns:xlink="http://www.w3.org/1999/xlink">
<g id="graph0" class="graph" transform="scale(1 1) rotate(0) translate(4 448)">
<title>QuestCreateMenuScript</title>
<!-- Node2 -->
<g id="node1" class="node"><title>Node2</title>
<polygon fill="#bfbfbf" stroke="black" points="124.5,-0.5 124.5,-123.5 270.5,-123.5 270.5,-0.5 124.5,-0.5"/>
<text text-anchor="middle" x="197.5" y="-111.5" font-family="Helvetica,sans-Serif" font-size="10.00">QuestCreateMenuScript</text>
<polyline fill="none" stroke="black" points="124.5,-104.5 270.5,-104.5 "/>
<text text-anchor="middle" x="197.5" y="-92.5" font-family="Helvetica,sans-Serif" font-size="10.00"> </text>
<polyline fill="none" stroke="black" points="124.5,-85.5 270.5,-85.5 "/>
<text text-anchor="start" x="132.5" y="-73.5" font-family="Helvetica,sans-Serif" font-size="10.00">+ StartGame()</text>
<text text-anchor="start" x="132.5" y="-62.5" font-family="Helvetica,sans-Serif" font-size="10.00">+ ObjectiveDropdown()</text>
<text text-anchor="start" x="132.5" y="-51.5" font-family="Helvetica,sans-Serif" font-size="10.00">+ AddQuest()</text>
<text text-anchor="start" x="132.5" y="-40.5" font-family="Helvetica,sans-Serif" font-size="10.00">+ AddQuestObjective()</text>
<text text-anchor="start" x="132.5" y="-29.5" font-family="Helvetica,sans-Serif" font-size="10.00">&#45; Start()</text>
<text text-anchor="start" x="132.5" y="-18.5" font-family="Helvetica,sans-Serif" font-size="10.00">&#45; updateQuestsAndObjectives</text>
<text text-anchor="start" x="132.5" y="-7.5" font-family="Helvetica,sans-Serif" font-size="10.00">Added()</text>
</g>
<!-- Node3 -->
<g id="node2" class="node"><title>Node3</title>
<g id="a_node2"><a xlink:href="class_mono_behaviour.html" target="_top" xlink:title="{MonoBehaviour\n||}">
<polygon fill="none" stroke="black" points="0,-248.5 0,-305.5 83,-305.5 83,-248.5 0,-248.5"/>
<text text-anchor="middle" x="41.5" y="-293.5" font-family="Helvetica,sans-Serif" font-size="10.00">MonoBehaviour</text>
<polyline fill="none" stroke="black" points="0,-286.5 83,-286.5 "/>
<text text-anchor="middle" x="41.5" y="-274.5" font-family="Helvetica,sans-Serif" font-size="10.00"> </text>
<polyline fill="none" stroke="black" points="0,-267.5 83,-267.5 "/>
<text text-anchor="middle" x="41.5" y="-255.5" font-family="Helvetica,sans-Serif" font-size="10.00"> </text>
</a>
</g>
</g>
<!-- Node3&#45;&gt;Node2 -->
<g id="edge1" class="edge"><title>Node3&#45;&gt;Node2</title>
<path fill="none" stroke="midnightblue" d="M62.0189,-239.434C78.0805,-211.816 101.629,-173.433 125.5,-142 130.101,-135.941 135.076,-129.796 140.186,-123.749"/>
<polygon fill="none" stroke="midnightblue" points="58.8341,-237.95 56.8692,-248.361 64.8976,-241.448 58.8341,-237.95"/>
</g>
<!-- Node4 -->
<g id="node3" class="node"><title>Node4</title>
<polygon fill="none" stroke="#bfbfbf" points="101,-248.5 101,-305.5 172,-305.5 172,-248.5 101,-248.5"/>
<text text-anchor="middle" x="136.5" y="-293.5" font-family="Helvetica,sans-Serif" font-size="10.00">GameObject</text>
<polyline fill="none" stroke="#bfbfbf" points="101,-286.5 172,-286.5 "/>
<text text-anchor="middle" x="136.5" y="-274.5" font-family="Helvetica,sans-Serif" font-size="10.00"> </text>
<polyline fill="none" stroke="#bfbfbf" points="101,-267.5 172,-267.5 "/>
<text text-anchor="middle" x="136.5" y="-255.5" font-family="Helvetica,sans-Serif" font-size="10.00"> </text>
</g>
<!-- Node4&#45;&gt;Node2 -->
<g id="edge2" class="edge"><title>Node4&#45;&gt;Node2</title>
<path fill="none" stroke="#404040" d="M131.75,-248.465C128.102,-220.768 125.491,-177.233 137.5,-142 138.325,-139.58 139.256,-137.175 140.278,-134.792"/>
<polygon fill="none" stroke="#404040" points="140.377,-134.59 139.432,-127.441 145.667,-123.819 146.612,-130.967 140.377,-134.59"/>
<text text-anchor="middle" x="191.5" y="-200" font-family="Helvetica,sans-Serif" font-size="10.00"> &#45;QuestsAdded</text>
<text text-anchor="middle" x="191.5" y="-189" font-family="Helvetica,sans-Serif" font-size="10.00">&#45;player</text>
<text text-anchor="middle" x="191.5" y="-178" font-family="Helvetica,sans-Serif" font-size="10.00">&#45;dropDownGameObjects</text>
<text text-anchor="middle" x="191.5" y="-167" font-family="Helvetica,sans-Serif" font-size="10.00">&#45;addQuestButton</text>
<text text-anchor="middle" x="191.5" y="-156" font-family="Helvetica,sans-Serif" font-size="10.00">&#45;rewardAmountInputField</text>
<text text-anchor="middle" x="191.5" y="-145" font-family="Helvetica,sans-Serif" font-size="10.00">&#45;ObjectivesAdded</text>
</g>
<!-- Node5 -->
<g id="node4" class="node"><title>Node5</title>
<polygon fill="none" stroke="#bfbfbf" points="253,-386.5 253,-443.5 282,-443.5 282,-386.5 253,-386.5"/>
<text text-anchor="middle" x="267.5" y="-431.5" font-family="Helvetica,sans-Serif" font-size="10.00">int</text>
<polyline fill="none" stroke="#bfbfbf" points="253,-424.5 282,-424.5 "/>
<text text-anchor="middle" x="267.5" y="-412.5" font-family="Helvetica,sans-Serif" font-size="10.00"> </text>
<polyline fill="none" stroke="#bfbfbf" points="253,-405.5 282,-405.5 "/>
<text text-anchor="middle" x="267.5" y="-393.5" font-family="Helvetica,sans-Serif" font-size="10.00"> </text>
</g>
<!-- Node5&#45;&gt;Node2 -->
<g id="edge3" class="edge"><title>Node5&#45;&gt;Node2</title>
<path fill="none" stroke="#404040" d="M266.875,-386.221C265.264,-326.329 260.03,-186.844 245.5,-142 244.727,-139.615 243.87,-137.226 242.941,-134.844"/>
<polygon fill="none" stroke="#404040" points="242.912,-134.778 236.851,-130.872 238.125,-123.774 244.186,-127.68 242.912,-134.778"/>
<text text-anchor="middle" x="318.5" y="-274.5" font-family="Helvetica,sans-Serif" font-size="10.00"> &#45;currentDropDownValue</text>
</g>
<!-- Node6 -->
<g id="node5" class="node"><title>Node6</title>
<g id="a_node5"><a xlink:href="class_quest.html" target="_top" xlink:title="Quest class wrapper for quest objectives. ">
<polygon fill="none" stroke="black" points="383.5,-226.5 383.5,-327.5 511.5,-327.5 511.5,-226.5 383.5,-226.5"/>
<text text-anchor="middle" x="447.5" y="-315.5" font-family="Helvetica,sans-Serif" font-size="10.00">Quest</text>
<polyline fill="none" stroke="black" points="383.5,-308.5 511.5,-308.5 "/>
<text text-anchor="start" x="391.5" y="-296.5" font-family="Helvetica,sans-Serif" font-size="10.00">+ State</text>
<text text-anchor="start" x="391.5" y="-285.5" font-family="Helvetica,sans-Serif" font-size="10.00">+ ObjectiveCount</text>
<polyline fill="none" stroke="black" points="383.5,-278.5 511.5,-278.5 "/>
<text text-anchor="start" x="391.5" y="-266.5" font-family="Helvetica,sans-Serif" font-size="10.00">+ addObjective()</text>
<text text-anchor="start" x="391.5" y="-255.5" font-family="Helvetica,sans-Serif" font-size="10.00">+ getObjectives()</text>
<text text-anchor="start" x="391.5" y="-244.5" font-family="Helvetica,sans-Serif" font-size="10.00">&#45; OnCompletedObjective()</text>
<text text-anchor="start" x="391.5" y="-233.5" font-family="Helvetica,sans-Serif" font-size="10.00">&#45; OnFailedObjective()</text>
</a>
</g>
</g>
<!-- Node5&#45;&gt;Node6 -->
<g id="edge6" class="edge"><title>Node5&#45;&gt;Node6</title>
<path fill="none" stroke="#404040" d="M281.118,-386.219C289.137,-372.406 300.469,-356.472 314.5,-346 335.112,-330.616 346.264,-339.029 369.5,-328 370.345,-327.599 371.191,-327.191 372.039,-326.775"/>
<polygon fill="none" stroke="#404040" points="372.448,-326.562 375.925,-320.244 383.094,-321.023 379.617,-327.341 372.448,-326.562"/>
<text text-anchor="middle" x="340.5" y="-360" font-family="Helvetica,sans-Serif" font-size="10.00"> &#45;completed</text>
<text text-anchor="middle" x="340.5" y="-349" font-family="Helvetica,sans-Serif" font-size="10.00">+reward</text>
</g>
<!-- Node6&#45;&gt;Node2 -->
<g id="edge4" class="edge"><title>Node6&#45;&gt;Node2</title>
<path fill="none" stroke="#404040" d="M389.202,-226.33C356.222,-198.231 314.482,-162.669 278.377,-131.907"/>
<polygon fill="none" stroke="#404040" points="277.977,-131.566 270.816,-130.72 268.843,-123.784 276.004,-124.63 277.977,-131.566"/>
<text text-anchor="middle" x="383" y="-172.5" font-family="Helvetica,sans-Serif" font-size="10.00"> &#45;quest</text>
</g>
<!-- Node7 -->
<g id="node6" class="node"><title>Node7</title>
<polygon fill="none" stroke="#bfbfbf" points="309.5,-386.5 309.5,-443.5 425.5,-443.5 425.5,-386.5 309.5,-386.5"/>
<text text-anchor="middle" x="367.5" y="-431.5" font-family="Helvetica,sans-Serif" font-size="10.00">List&lt; QuestObjective &gt;</text>
<polyline fill="none" stroke="#bfbfbf" points="309.5,-424.5 425.5,-424.5 "/>
<text text-anchor="middle" x="367.5" y="-412.5" font-family="Helvetica,sans-Serif" font-size="10.00"> </text>
<polyline fill="none" stroke="#bfbfbf" points="309.5,-405.5 425.5,-405.5 "/>
<text text-anchor="middle" x="367.5" y="-393.5" font-family="Helvetica,sans-Serif" font-size="10.00"> </text>
</g>
<!-- Node7&#45;&gt;Node6 -->
<g id="edge5" class="edge"><title>Node7&#45;&gt;Node6</title>
<path fill="none" stroke="#404040" d="M367.544,-386.289C368.551,-373.439 371.195,-358.322 377.5,-346 378.918,-343.228 380.493,-340.505 382.196,-337.836"/>
<polygon fill="none" stroke="#404040" points="382.363,-337.6 382.589,-330.393 389.33,-327.829 389.103,-335.037 382.363,-337.6"/>
<text text-anchor="middle" x="415.5" y="-354.5" font-family="Helvetica,sans-Serif" font-size="10.00"> &#45;questObjectives</text>
</g>
<!-- Node8 -->
<g id="node7" class="node"><title>Node8</title>
<polygon fill="none" stroke="#bfbfbf" points="449,-386.5 449,-443.5 484,-443.5 484,-386.5 449,-386.5"/>
<text text-anchor="middle" x="466.5" y="-431.5" font-family="Helvetica,sans-Serif" font-size="10.00">bool</text>
<polyline fill="none" stroke="#bfbfbf" points="449,-424.5 484,-424.5 "/>
<text text-anchor="middle" x="466.5" y="-412.5" font-family="Helvetica,sans-Serif" font-size="10.00"> </text>
<polyline fill="none" stroke="#bfbfbf" points="449,-405.5 484,-405.5 "/>
<text text-anchor="middle" x="466.5" y="-393.5" font-family="Helvetica,sans-Serif" font-size="10.00"> </text>
</g>
<!-- Node8&#45;&gt;Node6 -->
<g id="edge7" class="edge"><title>Node8&#45;&gt;Node6</title>
<path fill="none" stroke="#404040" d="M462.655,-386.478C460.78,-373.057 458.443,-356.327 456.17,-340.055"/>
<polygon fill="none" stroke="#404040" points="456.113,-339.648 451.321,-334.259 454.452,-327.764 459.244,-333.153 456.113,-339.648"/>
<text text-anchor="middle" x="500" y="-354.5" font-family="Helvetica,sans-Serif" font-size="10.00"> +rewardCollected</text>
</g>
<!-- Node9 -->
<g id="node8" class="node"><title>Node9</title>
<polygon fill="none" stroke="#bfbfbf" points="535.5,-386.5 535.5,-443.5 601.5,-443.5 601.5,-386.5 535.5,-386.5"/>
<text text-anchor="middle" x="568.5" y="-431.5" font-family="Helvetica,sans-Serif" font-size="10.00">QuestState</text>
<polyline fill="none" stroke="#bfbfbf" points="535.5,-424.5 601.5,-424.5 "/>
<text text-anchor="middle" x="568.5" y="-412.5" font-family="Helvetica,sans-Serif" font-size="10.00"> </text>
<polyline fill="none" stroke="#bfbfbf" points="535.5,-405.5 601.5,-405.5 "/>
<text text-anchor="middle" x="568.5" y="-393.5" font-family="Helvetica,sans-Serif" font-size="10.00"> </text>
</g>
<!-- Node9&#45;&gt;Node6 -->
<g id="edge8" class="edge"><title>Node9&#45;&gt;Node6</title>
<path fill="none" stroke="#404040" d="M562.404,-386.297C558.539,-373.153 552.522,-357.785 543.5,-346 537.095,-337.634 529.374,-329.879 521.126,-322.827"/>
<polygon fill="none" stroke="#404040" points="520.973,-322.704 513.791,-322.051 511.632,-315.17 518.814,-315.824 520.973,-322.704"/>
<text text-anchor="middle" x="569.5" y="-354.5" font-family="Helvetica,sans-Serif" font-size="10.00"> &#45;state</text>
</g>
</g>
</svg>
