<?xml version="1.0" encoding="UTF-8" standalone="no"?>
<!DOCTYPE svg PUBLIC "-//W3C//DTD SVG 1.1//EN"
 "http://www.w3.org/Graphics/SVG/1.1/DTD/svg11.dtd">
<!-- Generated by graphviz version 2.38.0 (20140413.2041)
 -->
<!-- Title: toMouse Pages: 1 -->
<svg width="266pt" height="182pt"
 viewBox="0.00 0.00 265.50 182.00" xmlns="http://www.w3.org/2000/svg" xmlns:xlink="http://www.w3.org/1999/xlink">
<g id="graph0" class="graph" transform="scale(1 1) rotate(0) translate(4 178)">
<title>toMouse</title>
<!-- Node2 -->
<g id="node1" class="node"><title>Node2</title>
<polygon fill="#bfbfbf" stroke="black" points="107,-0.5 107,-57.5 166,-57.5 166,-0.5 107,-0.5"/>
<text text-anchor="middle" x="136.5" y="-45.5" font-family="Helvetica,sans-Serif" font-size="10.00">toMouse</text>
<polyline fill="none" stroke="black" points="107,-38.5 166,-38.5 "/>
<text text-anchor="middle" x="136.5" y="-26.5" font-family="Helvetica,sans-Serif" font-size="10.00"> </text>
<polyline fill="none" stroke="black" points="107,-19.5 166,-19.5 "/>
<text text-anchor="start" x="115" y="-7.5" font-family="Helvetica,sans-Serif" font-size="10.00">&#45; Update()</text>
</g>
<!-- Node3 -->
<g id="node2" class="node"><title>Node3</title>
<g id="a_node2"><a xlink:href="class_mono_behaviour.html" target="_top" xlink:title="{MonoBehaviour\n||}">
<polygon fill="none" stroke="black" points="0,-116.5 0,-173.5 83,-173.5 83,-116.5 0,-116.5"/>
<text text-anchor="middle" x="41.5" y="-161.5" font-family="Helvetica,sans-Serif" font-size="10.00">MonoBehaviour</text>
<polyline fill="none" stroke="black" points="0,-154.5 83,-154.5 "/>
<text text-anchor="middle" x="41.5" y="-142.5" font-family="Helvetica,sans-Serif" font-size="10.00"> </text>
<polyline fill="none" stroke="black" points="0,-135.5 83,-135.5 "/>
<text text-anchor="middle" x="41.5" y="-123.5" font-family="Helvetica,sans-Serif" font-size="10.00"> </text>
</a>
</g>
</g>
<!-- Node3&#45;&gt;Node2 -->
<g id="edge1" class="edge"><title>Node3&#45;&gt;Node2</title>
<path fill="none" stroke="midnightblue" d="M70.9877,-108.615C84.6407,-92.2312 100.624,-73.0509 113.386,-57.7372"/>
<polygon fill="none" stroke="midnightblue" points="68.2099,-106.481 64.4969,-116.404 73.5875,-110.962 68.2099,-106.481"/>
</g>
<!-- Node4 -->
<g id="node3" class="node"><title>Node4</title>
<polygon fill="none" stroke="#bfbfbf" points="101,-116.5 101,-173.5 172,-173.5 172,-116.5 101,-116.5"/>
<text text-anchor="middle" x="136.5" y="-161.5" font-family="Helvetica,sans-Serif" font-size="10.00">GameObject</text>
<polyline fill="none" stroke="#bfbfbf" points="101,-154.5 172,-154.5 "/>
<text text-anchor="middle" x="136.5" y="-142.5" font-family="Helvetica,sans-Serif" font-size="10.00"> </text>
<polyline fill="none" stroke="#bfbfbf" points="101,-135.5 172,-135.5 "/>
<text text-anchor="middle" x="136.5" y="-123.5" font-family="Helvetica,sans-Serif" font-size="10.00"> </text>
</g>
<!-- Node4&#45;&gt;Node2 -->
<g id="edge2" class="edge"><title>Node4&#45;&gt;Node2</title>
<path fill="none" stroke="#404040" d="M136.5,-116.404C136.5,-102.504 136.5,-85.3915 136.5,-70.073"/>
<polygon fill="none" stroke="#404040" points="136.5,-69.7372 132.5,-63.7372 136.5,-57.7372 140.5,-63.7372 136.5,-69.7372"/>
<text text-anchor="middle" x="155.5" y="-90" font-family="Helvetica,sans-Serif" font-size="10.00"> +bullet1</text>
<text text-anchor="middle" x="155.5" y="-79" font-family="Helvetica,sans-Serif" font-size="10.00">+bullet</text>
</g>
<!-- Node5 -->
<g id="node4" class="node"><title>Node5</title>
<polygon fill="none" stroke="#bfbfbf" points="190,-116.5 190,-173.5 225,-173.5 225,-116.5 190,-116.5"/>
<text text-anchor="middle" x="207.5" y="-161.5" font-family="Helvetica,sans-Serif" font-size="10.00">float</text>
<polyline fill="none" stroke="#bfbfbf" points="190,-154.5 225,-154.5 "/>
<text text-anchor="middle" x="207.5" y="-142.5" font-family="Helvetica,sans-Serif" font-size="10.00"> </text>
<polyline fill="none" stroke="#bfbfbf" points="190,-135.5 225,-135.5 "/>
<text text-anchor="middle" x="207.5" y="-123.5" font-family="Helvetica,sans-Serif" font-size="10.00"> </text>
</g>
<!-- Node5&#45;&gt;Node2 -->
<g id="edge3" class="edge"><title>Node5&#45;&gt;Node2</title>
<path fill="none" stroke="#404040" d="M198.192,-116.467C193.263,-103.657 186.553,-88.5216 178.5,-76 176.608,-73.0582 174.524,-70.1255 172.326,-67.2465"/>
<polygon fill="none" stroke="#404040" points="172.134,-67.013 165.238,-64.9063 164.53,-57.73 171.427,-59.8367 172.134,-67.013"/>
<text text-anchor="middle" x="223.5" y="-84.5" font-family="Helvetica,sans-Serif" font-size="10.00"> +bulletVelocity</text>
</g>
</g>
</svg>
