<?xml version="1.0" encoding="UTF-8" standalone="no"?>
<!DOCTYPE svg PUBLIC "-//W3C//DTD SVG 1.1//EN"
 "http://www.w3.org/Graphics/SVG/1.1/DTD/svg11.dtd">
<!-- Generated by graphviz version 2.38.0 (20140413.2041)
 -->
<!-- Title: QuestObjectives.MinigameScore Pages: 1 -->
<svg width="341pt" height="518pt"
 viewBox="0.00 0.00 341.00 518.00" xmlns="http://www.w3.org/2000/svg" xmlns:xlink="http://www.w3.org/1999/xlink">
<g id="graph0" class="graph" transform="scale(1 1) rotate(0) translate(4 514)">
<title>QuestObjectives.MinigameScore</title>
<!-- Node3 -->
<g id="node1" class="node"><title>Node3</title>
<polygon fill="#bfbfbf" stroke="black" points="195.5,-0.5 195.5,-134.5 328.5,-134.5 328.5,-0.5 195.5,-0.5"/>
<text text-anchor="start" x="203.5" y="-122.5" font-family="Helvetica,sans-Serif" font-size="10.00">QuestObjectives.Minigame</text>
<text text-anchor="middle" x="262" y="-111.5" font-family="Helvetica,sans-Serif" font-size="10.00">Score</text>
<polyline fill="none" stroke="black" points="195.5,-104.5 328.5,-104.5 "/>
<text text-anchor="middle" x="262" y="-92.5" font-family="Helvetica,sans-Serif" font-size="10.00"> </text>
<polyline fill="none" stroke="black" points="195.5,-85.5 328.5,-85.5 "/>
<text text-anchor="start" x="203.5" y="-73.5" font-family="Helvetica,sans-Serif" font-size="10.00">+ MinigameScore()</text>
<text text-anchor="start" x="203.5" y="-62.5" font-family="Helvetica,sans-Serif" font-size="10.00">+ GetObjectData()</text>
<text text-anchor="start" x="203.5" y="-51.5" font-family="Helvetica,sans-Serif" font-size="10.00"># subscribeHandlers()</text>
<text text-anchor="start" x="203.5" y="-40.5" font-family="Helvetica,sans-Serif" font-size="10.00"># unsubscribeHandlers()</text>
<text text-anchor="start" x="203.5" y="-29.5" font-family="Helvetica,sans-Serif" font-size="10.00"># MinigameScore()</text>
<text text-anchor="start" x="203.5" y="-18.5" font-family="Helvetica,sans-Serif" font-size="10.00">&#45; OnMinigameStarted()</text>
<text text-anchor="start" x="203.5" y="-7.5" font-family="Helvetica,sans-Serif" font-size="10.00">&#45; OnKill()</text>
</g>
<!-- Node4 -->
<g id="node2" class="node"><title>Node4</title>
<g id="a_node2"><a xlink:href="class_quest_objective.html" target="_top" xlink:title="Base quest objective class to be extended by actual quest objectives ">
<polygon fill="none" stroke="black" points="128.5,-193.5 128.5,-393.5 253.5,-393.5 253.5,-193.5 128.5,-193.5"/>
<text text-anchor="middle" x="191" y="-381.5" font-family="Helvetica,sans-Serif" font-size="10.00">QuestObjective</text>
<polyline fill="none" stroke="black" points="128.5,-374.5 253.5,-374.5 "/>
<text text-anchor="start" x="136.5" y="-362.5" font-family="Helvetica,sans-Serif" font-size="10.00">+ State</text>
<polyline fill="none" stroke="black" points="128.5,-355.5 253.5,-355.5 "/>
<text text-anchor="start" x="136.5" y="-343.5" font-family="Helvetica,sans-Serif" font-size="10.00">+ ObjectiveCallback()</text>
<text text-anchor="start" x="136.5" y="-332.5" font-family="Helvetica,sans-Serif" font-size="10.00">+ isComplete()</text>
<text text-anchor="start" x="136.5" y="-321.5" font-family="Helvetica,sans-Serif" font-size="10.00">+ isFailed()</text>
<text text-anchor="start" x="136.5" y="-310.5" font-family="Helvetica,sans-Serif" font-size="10.00">+ inProgress()</text>
<text text-anchor="start" x="136.5" y="-299.5" font-family="Helvetica,sans-Serif" font-size="10.00">+ GetObjectData()</text>
<text text-anchor="start" x="136.5" y="-288.5" font-family="Helvetica,sans-Serif" font-size="10.00"># QuestObjective()</text>
<text text-anchor="start" x="136.5" y="-277.5" font-family="Helvetica,sans-Serif" font-size="10.00"># setComplete()</text>
<text text-anchor="start" x="136.5" y="-266.5" font-family="Helvetica,sans-Serif" font-size="10.00"># setFailed()</text>
<text text-anchor="start" x="136.5" y="-255.5" font-family="Helvetica,sans-Serif" font-size="10.00"># subscribeHandlers()</text>
<text text-anchor="start" x="136.5" y="-244.5" font-family="Helvetica,sans-Serif" font-size="10.00"># unsubscribeHandlers()</text>
<text text-anchor="start" x="136.5" y="-233.5" font-family="Helvetica,sans-Serif" font-size="10.00"># QuestObjective()</text>
<text text-anchor="start" x="136.5" y="-222.5" font-family="Helvetica,sans-Serif" font-size="10.00"># dispose()</text>
<text text-anchor="start" x="136.5" y="-211.5" font-family="Helvetica,sans-Serif" font-size="10.00">&#45; setState()</text>
<text text-anchor="start" x="136.5" y="-200.5" font-family="Helvetica,sans-Serif" font-size="10.00">&#45; OnExitedToMainMenu()</text>
</a>
</g>
</g>
<!-- Node4&#45;&gt;Node3 -->
<g id="edge1" class="edge"><title>Node4&#45;&gt;Node3</title>
<path fill="none" stroke="midnightblue" d="M225.566,-183.448C230.866,-166.726 236.194,-149.916 241.077,-134.511"/>
<polygon fill="none" stroke="midnightblue" points="222.137,-182.682 222.452,-193.272 228.81,-184.797 222.137,-182.682"/>
</g>
<!-- Node5 -->
<g id="node3" class="node"><title>Node5</title>
<polygon fill="none" stroke="#bfbfbf" points="0,-441.5 0,-509.5 152,-509.5 152,-441.5 0,-441.5"/>
<text text-anchor="start" x="8" y="-497.5" font-family="Helvetica,sans-Serif" font-size="10.00">System::Runtime::Serialization</text>
<text text-anchor="middle" x="76" y="-486.5" font-family="Helvetica,sans-Serif" font-size="10.00">::ISerializable</text>
<polyline fill="none" stroke="#bfbfbf" points="0,-479.5 152,-479.5 "/>
<text text-anchor="middle" x="76" y="-467.5" font-family="Helvetica,sans-Serif" font-size="10.00"> </text>
<polyline fill="none" stroke="#bfbfbf" points="0,-460.5 152,-460.5 "/>
<text text-anchor="middle" x="76" y="-448.5" font-family="Helvetica,sans-Serif" font-size="10.00"> </text>
</g>
<!-- Node5&#45;&gt;Node4 -->
<g id="edge2" class="edge"><title>Node5&#45;&gt;Node4</title>
<path fill="none" stroke="midnightblue" d="M102.593,-432.877C110.429,-420.612 119.354,-406.641 128.449,-392.405"/>
<polygon fill="none" stroke="midnightblue" points="99.5273,-431.174 97.0928,-441.485 105.426,-434.943 99.5273,-431.174"/>
</g>
<!-- Node6 -->
<g id="node4" class="node"><title>Node6</title>
<polygon fill="none" stroke="#bfbfbf" points="170.5,-447 170.5,-504 211.5,-504 211.5,-447 170.5,-447"/>
<text text-anchor="middle" x="191" y="-492" font-family="Helvetica,sans-Serif" font-size="10.00">string</text>
<polyline fill="none" stroke="#bfbfbf" points="170.5,-485 211.5,-485 "/>
<text text-anchor="middle" x="191" y="-473" font-family="Helvetica,sans-Serif" font-size="10.00"> </text>
<polyline fill="none" stroke="#bfbfbf" points="170.5,-466 211.5,-466 "/>
<text text-anchor="middle" x="191" y="-454" font-family="Helvetica,sans-Serif" font-size="10.00"> </text>
</g>
<!-- Node6&#45;&gt;Node4 -->
<g id="edge3" class="edge"><title>Node6&#45;&gt;Node4</title>
<path fill="none" stroke="#404040" d="M191,-446.769C191,-435.253 191,-421.068 191,-406.032"/>
<polygon fill="none" stroke="#404040" points="191,-405.825 187,-399.825 191,-393.825 195,-399.825 191,-405.825"/>
<text text-anchor="middle" x="219.5" y="-415" font-family="Helvetica,sans-Serif" font-size="10.00"> +description</text>
</g>
<!-- Node7 -->
<g id="node5" class="node"><title>Node7</title>
<polygon fill="none" stroke="#bfbfbf" points="231,-447 231,-504 311,-504 311,-447 231,-447"/>
<text text-anchor="middle" x="271" y="-492" font-family="Helvetica,sans-Serif" font-size="10.00">ObjectiveState</text>
<polyline fill="none" stroke="#bfbfbf" points="231,-485 311,-485 "/>
<text text-anchor="middle" x="271" y="-473" font-family="Helvetica,sans-Serif" font-size="10.00"> </text>
<polyline fill="none" stroke="#bfbfbf" points="231,-466 311,-466 "/>
<text text-anchor="middle" x="271" y="-454" font-family="Helvetica,sans-Serif" font-size="10.00"> </text>
</g>
<!-- Node7&#45;&gt;Node4 -->
<g id="edge4" class="edge"><title>Node7&#45;&gt;Node4</title>
<path fill="none" stroke="#404040" d="M262.065,-446.848C258.316,-435.885 253.731,-423.238 249,-412 248.017,-409.666 247.01,-407.312 245.983,-404.946"/>
<polygon fill="none" stroke="#404040" points="245.905,-404.769 239.817,-400.904 241.043,-393.798 247.131,-397.663 245.905,-404.769"/>
<text text-anchor="middle" x="268" y="-415" font-family="Helvetica,sans-Serif" font-size="10.00"> &#45;state</text>
</g>
<!-- Node8 -->
<g id="node6" class="node"><title>Node8</title>
<polygon fill="none" stroke="#bfbfbf" points="271.5,-265 271.5,-322 300.5,-322 300.5,-265 271.5,-265"/>
<text text-anchor="middle" x="286" y="-310" font-family="Helvetica,sans-Serif" font-size="10.00">int</text>
<polyline fill="none" stroke="#bfbfbf" points="271.5,-303 300.5,-303 "/>
<text text-anchor="middle" x="286" y="-291" font-family="Helvetica,sans-Serif" font-size="10.00"> </text>
<polyline fill="none" stroke="#bfbfbf" points="271.5,-284 300.5,-284 "/>
<text text-anchor="middle" x="286" y="-272" font-family="Helvetica,sans-Serif" font-size="10.00"> </text>
</g>
<!-- Node8&#45;&gt;Node3 -->
<g id="edge5" class="edge"><title>Node8&#45;&gt;Node3</title>
<path fill="none" stroke="#404040" d="M283.009,-264.583C279.871,-235.292 274.795,-187.919 270.419,-147.075"/>
<polygon fill="none" stroke="#404040" points="270.394,-146.847 265.778,-141.307 269.116,-134.915 273.732,-140.455 270.394,-146.847"/>
<text text-anchor="middle" x="303.5" y="-167" font-family="Helvetica,sans-Serif" font-size="10.00"> &#45;score</text>
<text text-anchor="middle" x="303.5" y="-156" font-family="Helvetica,sans-Serif" font-size="10.00">&#45;currentScore</text>
</g>
</g>
</svg>
