<?xml version="1.0" encoding="UTF-8" standalone="no"?>
<!DOCTYPE svg PUBLIC "-//W3C//DTD SVG 1.1//EN"
 "http://www.w3.org/Graphics/SVG/1.1/DTD/svg11.dtd">
<!-- Generated by graphviz version 2.38.0 (20140413.2041)
 -->
<!-- Title: BattleStartedEventArgs Pages: 1 -->
<svg width="141pt" height="298pt"
 viewBox="0.00 0.00 141.00 298.00" xmlns="http://www.w3.org/2000/svg" xmlns:xlink="http://www.w3.org/1999/xlink">
<g id="graph0" class="graph" transform="scale(1 1) rotate(0) translate(4 294)">
<title>BattleStartedEventArgs</title>
<!-- Node0 -->
<g id="node1" class="node"><title>Node0</title>
<polygon fill="#bfbfbf" stroke="black" points="0,-0.5 0,-101.5 133,-101.5 133,-0.5 0,-0.5"/>
<text text-anchor="middle" x="66.5" y="-89.5" font-family="Helvetica,sans-Serif" font-size="10.00">BattleStartedEventArgs</text>
<polyline fill="none" stroke="black" points="0,-82.5 133,-82.5 "/>
<text text-anchor="start" x="8" y="-70.5" font-family="Helvetica,sans-Serif" font-size="10.00">+ enemy</text>
<text text-anchor="start" x="8" y="-59.5" font-family="Helvetica,sans-Serif" font-size="10.00">+ moneyReward</text>
<text text-anchor="start" x="8" y="-48.5" font-family="Helvetica,sans-Serif" font-size="10.00">+ itemReward</text>
<text text-anchor="start" x="8" y="-37.5" font-family="Helvetica,sans-Serif" font-size="10.00">+ canRunAway</text>
<text text-anchor="start" x="8" y="-26.5" font-family="Helvetica,sans-Serif" font-size="10.00">+ location</text>
<polyline fill="none" stroke="black" points="0,-19.5 133,-19.5 "/>
<text text-anchor="start" x="8" y="-7.5" font-family="Helvetica,sans-Serif" font-size="10.00">+ BattleStartedEventArgs()</text>
</g>
<!-- Node1 -->
<g id="node2" class="node"><title>Node1</title>
<g id="a_node2"><a xlink:href="class_game_event_args.html" target="_top" xlink:title="Base class for passing arguments with game events ">
<polygon fill="none" stroke="black" points="23,-138.5 23,-195.5 110,-195.5 110,-138.5 23,-138.5"/>
<text text-anchor="middle" x="66.5" y="-183.5" font-family="Helvetica,sans-Serif" font-size="10.00">GameEventArgs</text>
<polyline fill="none" stroke="black" points="23,-176.5 110,-176.5 "/>
<text text-anchor="start" x="31" y="-164.5" font-family="Helvetica,sans-Serif" font-size="10.00">+ Empty</text>
<polyline fill="none" stroke="black" points="23,-157.5 110,-157.5 "/>
<text text-anchor="middle" x="66.5" y="-145.5" font-family="Helvetica,sans-Serif" font-size="10.00"> </text>
</a>
</g>
</g>
<!-- Node1&#45;&gt;Node0 -->
<g id="edge1" class="edge"><title>Node1&#45;&gt;Node0</title>
<path fill="none" stroke="midnightblue" d="M66.5,-128.354C66.5,-119.796 66.5,-110.578 66.5,-101.608"/>
<polygon fill="none" stroke="midnightblue" points="63.0001,-128.404 66.5,-138.404 70.0001,-128.404 63.0001,-128.404"/>
</g>
<!-- Node2 -->
<g id="node3" class="node"><title>Node2</title>
<g id="a_node3"><a xlink:href="class_event_args.html" target="_top" xlink:title="{EventArgs\n||}">
<polygon fill="none" stroke="black" points="36,-232.5 36,-289.5 97,-289.5 97,-232.5 36,-232.5"/>
<text text-anchor="middle" x="66.5" y="-277.5" font-family="Helvetica,sans-Serif" font-size="10.00">EventArgs</text>
<polyline fill="none" stroke="black" points="36,-270.5 97,-270.5 "/>
<text text-anchor="middle" x="66.5" y="-258.5" font-family="Helvetica,sans-Serif" font-size="10.00"> </text>
<polyline fill="none" stroke="black" points="36,-251.5 97,-251.5 "/>
<text text-anchor="middle" x="66.5" y="-239.5" font-family="Helvetica,sans-Serif" font-size="10.00"> </text>
</a>
</g>
</g>
<!-- Node2&#45;&gt;Node1 -->
<g id="edge2" class="edge"><title>Node2&#45;&gt;Node1</title>
<path fill="none" stroke="midnightblue" d="M66.5,-222.209C66.5,-213.293 66.5,-203.951 66.5,-195.584"/>
<polygon fill="none" stroke="midnightblue" points="63.0001,-222.397 66.5,-232.397 70.0001,-222.397 63.0001,-222.397"/>
</g>
</g>
</svg>
