<?xml version="1.0" encoding="UTF-8" standalone="no"?>
<!DOCTYPE svg PUBLIC "-//W3C//DTD SVG 1.1//EN"
 "http://www.w3.org/Graphics/SVG/1.1/DTD/svg11.dtd">
<!-- Generated by graphviz version 2.38.0 (20140413.2041)
 -->
<!-- Title: QuestObjectives.DefeatSpecific Pages: 1 -->
<svg width="161pt" height="496pt"
 viewBox="0.00 0.00 161.00 496.00" xmlns="http://www.w3.org/2000/svg" xmlns:xlink="http://www.w3.org/1999/xlink">
<g id="graph0" class="graph" transform="scale(1 1) rotate(0) translate(4 492)">
<title>QuestObjectives.DefeatSpecific</title>
<!-- Node0 -->
<g id="node1" class="node"><title>Node0</title>
<polygon fill="#bfbfbf" stroke="black" points="0,-0.5 0,-123.5 153,-123.5 153,-0.5 0,-0.5"/>
<text text-anchor="middle" x="76.5" y="-111.5" font-family="Helvetica,sans-Serif" font-size="10.00">QuestObjectives.DefeatSpecific</text>
<polyline fill="none" stroke="black" points="0,-104.5 153,-104.5 "/>
<text text-anchor="start" x="8" y="-92.5" font-family="Helvetica,sans-Serif" font-size="10.00">&#45; name</text>
<text text-anchor="start" x="8" y="-81.5" font-family="Helvetica,sans-Serif" font-size="10.00">&#45; location</text>
<polyline fill="none" stroke="black" points="0,-74.5 153,-74.5 "/>
<text text-anchor="start" x="8" y="-62.5" font-family="Helvetica,sans-Serif" font-size="10.00">+ DefeatSpecific()</text>
<text text-anchor="start" x="8" y="-51.5" font-family="Helvetica,sans-Serif" font-size="10.00">+ GetObjectData()</text>
<text text-anchor="start" x="8" y="-40.5" font-family="Helvetica,sans-Serif" font-size="10.00"># subscribeHandlers()</text>
<text text-anchor="start" x="8" y="-29.5" font-family="Helvetica,sans-Serif" font-size="10.00"># unsubscribeHandlers()</text>
<text text-anchor="start" x="8" y="-18.5" font-family="Helvetica,sans-Serif" font-size="10.00"># DefeatSpecific()</text>
<text text-anchor="start" x="8" y="-7.5" font-family="Helvetica,sans-Serif" font-size="10.00">&#45; OnBattleWon()</text>
</g>
<!-- Node1 -->
<g id="node2" class="node"><title>Node1</title>
<g id="a_node2"><a xlink:href="class_quest_objective.html" target="_top" xlink:title="Base quest objective class to be extended by actual quest objectives ">
<polygon fill="none" stroke="black" points="14,-160.5 14,-382.5 139,-382.5 139,-160.5 14,-160.5"/>
<text text-anchor="middle" x="76.5" y="-370.5" font-family="Helvetica,sans-Serif" font-size="10.00">QuestObjective</text>
<polyline fill="none" stroke="black" points="14,-363.5 139,-363.5 "/>
<text text-anchor="start" x="22" y="-351.5" font-family="Helvetica,sans-Serif" font-size="10.00">+ description</text>
<text text-anchor="start" x="22" y="-340.5" font-family="Helvetica,sans-Serif" font-size="10.00">+ State</text>
<text text-anchor="start" x="22" y="-329.5" font-family="Helvetica,sans-Serif" font-size="10.00">&#45; state</text>
<polyline fill="none" stroke="black" points="14,-322.5 139,-322.5 "/>
<text text-anchor="start" x="22" y="-310.5" font-family="Helvetica,sans-Serif" font-size="10.00">+ ObjectiveCallback()</text>
<text text-anchor="start" x="22" y="-299.5" font-family="Helvetica,sans-Serif" font-size="10.00">+ isComplete()</text>
<text text-anchor="start" x="22" y="-288.5" font-family="Helvetica,sans-Serif" font-size="10.00">+ isFailed()</text>
<text text-anchor="start" x="22" y="-277.5" font-family="Helvetica,sans-Serif" font-size="10.00">+ inProgress()</text>
<text text-anchor="start" x="22" y="-266.5" font-family="Helvetica,sans-Serif" font-size="10.00">+ GetObjectData()</text>
<text text-anchor="start" x="22" y="-255.5" font-family="Helvetica,sans-Serif" font-size="10.00"># QuestObjective()</text>
<text text-anchor="start" x="22" y="-244.5" font-family="Helvetica,sans-Serif" font-size="10.00"># setComplete()</text>
<text text-anchor="start" x="22" y="-233.5" font-family="Helvetica,sans-Serif" font-size="10.00"># setFailed()</text>
<text text-anchor="start" x="22" y="-222.5" font-family="Helvetica,sans-Serif" font-size="10.00"># subscribeHandlers()</text>
<text text-anchor="start" x="22" y="-211.5" font-family="Helvetica,sans-Serif" font-size="10.00"># unsubscribeHandlers()</text>
<text text-anchor="start" x="22" y="-200.5" font-family="Helvetica,sans-Serif" font-size="10.00"># QuestObjective()</text>
<text text-anchor="start" x="22" y="-189.5" font-family="Helvetica,sans-Serif" font-size="10.00"># dispose()</text>
<text text-anchor="start" x="22" y="-178.5" font-family="Helvetica,sans-Serif" font-size="10.00">&#45; setState()</text>
<text text-anchor="start" x="22" y="-167.5" font-family="Helvetica,sans-Serif" font-size="10.00">&#45; OnExitedToMainMenu()</text>
</a>
</g>
</g>
<!-- Node1&#45;&gt;Node0 -->
<g id="edge1" class="edge"><title>Node1&#45;&gt;Node0</title>
<path fill="none" stroke="midnightblue" d="M76.5,-150.363C76.5,-141.19 76.5,-132.193 76.5,-123.668"/>
<polygon fill="none" stroke="midnightblue" points="73.0001,-150.37 76.5,-160.371 80.0001,-150.371 73.0001,-150.37"/>
</g>
<!-- Node2 -->
<g id="node3" class="node"><title>Node2</title>
<polygon fill="none" stroke="#bfbfbf" points="0.5,-419.5 0.5,-487.5 152.5,-487.5 152.5,-419.5 0.5,-419.5"/>
<text text-anchor="start" x="8.5" y="-475.5" font-family="Helvetica,sans-Serif" font-size="10.00">System::Runtime::Serialization</text>
<text text-anchor="middle" x="76.5" y="-464.5" font-family="Helvetica,sans-Serif" font-size="10.00">::ISerializable</text>
<polyline fill="none" stroke="#bfbfbf" points="0.5,-457.5 152.5,-457.5 "/>
<text text-anchor="middle" x="76.5" y="-445.5" font-family="Helvetica,sans-Serif" font-size="10.00"> </text>
<polyline fill="none" stroke="#bfbfbf" points="0.5,-438.5 152.5,-438.5 "/>
<text text-anchor="middle" x="76.5" y="-426.5" font-family="Helvetica,sans-Serif" font-size="10.00"> </text>
</g>
<!-- Node2&#45;&gt;Node1 -->
<g id="edge2" class="edge"><title>Node2&#45;&gt;Node1</title>
<path fill="none" stroke="midnightblue" d="M76.5,-409.349C76.5,-401.006 76.5,-391.919 76.5,-382.525"/>
<polygon fill="none" stroke="midnightblue" points="73.0001,-409.485 76.5,-419.485 80.0001,-409.485 73.0001,-409.485"/>
</g>
</g>
</svg>
