<?xml version="1.0" encoding="UTF-8" standalone="no"?>
<!DOCTYPE svg PUBLIC "-//W3C//DTD SVG 1.1//EN"
 "http://www.w3.org/Graphics/SVG/1.1/DTD/svg11.dtd">
<!-- Generated by graphviz version 2.38.0 (20140413.2041)
 -->
<!-- Title: DataManager Pages: 1 -->
<!--zoomable 1276 -->
<svg id="main" version="1.1" xmlns="http://www.w3.org/2000/svg" xmlns:xlink="http://www.w3.org/1999/xlink" xml:space="preserve" onload="init(evt)">
<style type="text/css"><![CDATA[
.edge:hover path { stroke: red; }
.edge:hover polygon { stroke: red; fill: red; }
]]></style>
<script type="text/javascript"><![CDATA[
var edges = document.getElementsByTagName('g');
if (edges && edges.length) {
  for (var i=0;i<edges.length;i++) {
    if (edges[i].id.substr(0,4)=='edge') {
      edges[i].setAttribute('class','edge');
    }
  }
}
]]></script>
        <defs>
                <circle id="rim" cx="0" cy="0" r="7"/>
                <circle id="rim2" cx="0" cy="0" r="3.5"/>
                <g id="zoomPlus">
                        <use xlink:href="#rim" fill="#404040">
                                <set attributeName="fill" to="#808080" begin="zoomplus.mouseover" end="zoomplus.mouseout"/>
                        </use>
                        <path d="M-4,0h8M0,-4v8" fill="none" stroke="white" stroke-width="1.5" pointer-events="none"/>
                </g>
                <g id="zoomMin">
                        <use xlink:href="#rim" fill="#404040">
                                <set attributeName="fill" to="#808080" begin="zoomminus.mouseover" end="zoomminus.mouseout"/>
                        </use>
                        <path d="M-4,0h8" fill="none" stroke="white" stroke-width="1.5" pointer-events="none"/>
                </g>
                <g id="dirArrow">
                        <path fill="none" stroke="white" stroke-width="1.5" d="M0,-3.0v7 M-2.5,-0.5L0,-3.0L2.5,-0.5"/>
                </g>
               <g id="resetDef">
                       <use xlink:href="#rim2" fill="#404040">
                               <set attributeName="fill" to="#808080" begin="reset.mouseover" end="reset.mouseout"/>
                       </use>
               </g>
        </defs>

<script type="text/javascript">
var viewWidth = 735;
var viewHeight = 1276;
var sectionId = 'dynsection-0';
</script>
<script xlink:href="svgpan.js"/>
<svg id="graph" class="graph">
<g id="viewport">
<title>DataManager</title>
<!-- Node1 -->
<g id="node1" class="node"><title>Node1</title>
<polygon fill="#bfbfbf" stroke="black" points="110,-686.5 110,-831.5 202,-831.5 202,-686.5 110,-686.5"/>
<text text-anchor="middle" x="156" y="-819.5" font-family="Helvetica,sans-Serif" font-size="10.00">DataManager</text>
<polyline fill="none" stroke="black" points="110,-812.5 202,-812.5 "/>
<text text-anchor="start" x="118" y="-800.5" font-family="Helvetica,sans-Serif" font-size="10.00">+ Players</text>
<text text-anchor="start" x="118" y="-789.5" font-family="Helvetica,sans-Serif" font-size="10.00">+ Items</text>
<text text-anchor="start" x="118" y="-778.5" font-family="Helvetica,sans-Serif" font-size="10.00">+ Money</text>
<polyline fill="none" stroke="black" points="110,-771.5 202,-771.5 "/>
<text text-anchor="start" x="118" y="-759.5" font-family="Helvetica,sans-Serif" font-size="10.00">+ DataManager()</text>
<text text-anchor="start" x="118" y="-748.5" font-family="Helvetica,sans-Serif" font-size="10.00">+ getFirstPlayer()</text>
<text text-anchor="start" x="118" y="-737.5" font-family="Helvetica,sans-Serif" font-size="10.00">+ playersAlive()</text>
<text text-anchor="start" x="118" y="-726.5" font-family="Helvetica,sans-Serif" font-size="10.00">+ addPlayer()</text>
<text text-anchor="start" x="118" y="-715.5" font-family="Helvetica,sans-Serif" font-size="10.00">+ swapPlayers()</text>
<text text-anchor="start" x="118" y="-704.5" font-family="Helvetica,sans-Serif" font-size="10.00">+ addItem()</text>
<text text-anchor="start" x="118" y="-693.5" font-family="Helvetica,sans-Serif" font-size="10.00">+ countItems()</text>
</g>
<!-- Node2 -->
<g id="node2" class="node"><title>Node2</title>
<g id="a_node2"><a xlink:href="class_item.html" target="_top" xlink:title="Abstract class for items that can be equipped to a player, increasing some of their stats ...">
<polygon fill="none" stroke="black" points="343.5,-1072.5 343.5,-1151.5 420.5,-1151.5 420.5,-1072.5 343.5,-1072.5"/>
<text text-anchor="middle" x="382" y="-1139.5" font-family="Helvetica,sans-Serif" font-size="10.00">Item</text>
<polyline fill="none" stroke="black" points="343.5,-1132.5 420.5,-1132.5 "/>
<text text-anchor="start" x="351.5" y="-1120.5" font-family="Helvetica,sans-Serif" font-size="10.00">+ Name</text>
<text text-anchor="start" x="351.5" y="-1109.5" font-family="Helvetica,sans-Serif" font-size="10.00">+ Desc</text>
<polyline fill="none" stroke="black" points="343.5,-1102.5 420.5,-1102.5 "/>
<text text-anchor="start" x="351.5" y="-1090.5" font-family="Helvetica,sans-Serif" font-size="10.00">+ applyBuffs()</text>
<text text-anchor="start" x="351.5" y="-1079.5" font-family="Helvetica,sans-Serif" font-size="10.00">+ revertBuffs()</text>
</a>
</g>
</g>
<!-- Node2&#45;&gt;Node1 -->
<g id="edge1" class="edge"><title>Node2&#45;&gt;Node1</title>
<path fill="none" stroke="#404040" d="M343.401,-1094.99C282.485,-1069.56 170.361,-1021.96 165,-1014 131.774,-964.689 131.034,-896.914 137.785,-843.775"/>
<polygon fill="none" stroke="#404040" points="137.82,-843.523 134.693,-837.026 139.487,-831.639 142.615,-838.137 137.82,-843.523"/>
<text text-anchor="middle" x="180.5" y="-955" font-family="Helvetica,sans-Serif" font-size="10.00"> &#45;items</text>
</g>
<!-- Node5 -->
<g id="node5" class="node"><title>Node5</title>
<g id="a_node5"><a xlink:href="class_player.html" target="_top" xlink:title="Defines a playable character for use in battle scenes">
<polygon fill="none" stroke="black" points="205,-901.5 205,-1013.5 317,-1013.5 317,-901.5 205,-901.5"/>
<text text-anchor="middle" x="261" y="-1001.5" font-family="Helvetica,sans-Serif" font-size="10.00">Player</text>
<polyline fill="none" stroke="black" points="205,-994.5 317,-994.5 "/>
<text text-anchor="start" x="213" y="-982.5" font-family="Helvetica,sans-Serif" font-size="10.00">+ Exp</text>
<text text-anchor="start" x="213" y="-971.5" font-family="Helvetica,sans-Serif" font-size="10.00">+ Item</text>
<text text-anchor="start" x="213" y="-960.5" font-family="Helvetica,sans-Serif" font-size="10.00">+ ExpToNextLevel</text>
<polyline fill="none" stroke="black" points="205,-953.5 317,-953.5 "/>
<text text-anchor="start" x="213" y="-941.5" font-family="Helvetica,sans-Serif" font-size="10.00">+ Player()</text>
<text text-anchor="start" x="213" y="-930.5" font-family="Helvetica,sans-Serif" font-size="10.00">+ gainExp()</text>
<text text-anchor="start" x="213" y="-919.5" font-family="Helvetica,sans-Serif" font-size="10.00">+ levelUp()</text>
<text text-anchor="start" x="213" y="-908.5" font-family="Helvetica,sans-Serif" font-size="10.00">&#45; setExpToNextLevel()</text>
</a>
</g>
</g>
<!-- Node2&#45;&gt;Node5 -->
<g id="edge22" class="edge"><title>Node2&#45;&gt;Node5</title>
<path fill="none" stroke="#404040" d="M351.154,-1072.12C339.389,-1057.3 325.637,-1039.96 312.468,-1023.37"/>
<polygon fill="none" stroke="#404040" points="312.261,-1023.11 305.398,-1020.89 304.802,-1013.71 311.665,-1015.92 312.261,-1023.11"/>
<text text-anchor="middle" x="348.5" y="-1040.5" font-family="Helvetica,sans-Serif" font-size="10.00"> &#45;item</text>
</g>
<!-- Node3 -->
<g id="node3" class="node"><title>Node3</title>
<polygon fill="none" stroke="#bfbfbf" points="533.5,-1210.5 533.5,-1267.5 574.5,-1267.5 574.5,-1210.5 533.5,-1210.5"/>
<text text-anchor="middle" x="554" y="-1255.5" font-family="Helvetica,sans-Serif" font-size="10.00">string</text>
<polyline fill="none" stroke="#bfbfbf" points="533.5,-1248.5 574.5,-1248.5 "/>
<text text-anchor="middle" x="554" y="-1236.5" font-family="Helvetica,sans-Serif" font-size="10.00"> </text>
<polyline fill="none" stroke="#bfbfbf" points="533.5,-1229.5 574.5,-1229.5 "/>
<text text-anchor="middle" x="554" y="-1217.5" font-family="Helvetica,sans-Serif" font-size="10.00"> </text>
</g>
<!-- Node3&#45;&gt;Node2 -->
<g id="edge2" class="edge"><title>Node3&#45;&gt;Node2</title>
<path fill="none" stroke="#404040" d="M533.391,-1236.91C502.752,-1234.2 445.142,-1224.78 411,-1192 402.796,-1184.12 396.9,-1173.73 392.667,-1163.08"/>
<polygon fill="none" stroke="#404040" points="392.598,-1162.88 386.865,-1158.51 388.696,-1151.54 394.43,-1155.91 392.598,-1162.88"/>
<text text-anchor="middle" x="426" y="-1184" font-family="Helvetica,sans-Serif" font-size="10.00"> #desc</text>
<text text-anchor="middle" x="426" y="-1173" font-family="Helvetica,sans-Serif" font-size="10.00">#name</text>
</g>
<!-- Node6 -->
<g id="node6" class="node"><title>Node6</title>
<g id="a_node6"><a xlink:href="class_character.html" target="_top" xlink:title="Base abstract class for Enemy and Player to inherit from. Defines all shared variables, their constructor and their setters and getters ">
<polygon fill="none" stroke="black" points="279.5,-95.5 279.5,-273.5 374.5,-273.5 374.5,-95.5 279.5,-95.5"/>
<text text-anchor="middle" x="327" y="-261.5" font-family="Helvetica,sans-Serif" font-size="10.00">Character</text>
<polyline fill="none" stroke="black" points="279.5,-254.5 374.5,-254.5 "/>
<text text-anchor="start" x="287.5" y="-242.5" font-family="Helvetica,sans-Serif" font-size="10.00">+ Name</text>
<text text-anchor="start" x="287.5" y="-231.5" font-family="Helvetica,sans-Serif" font-size="10.00">+ Level</text>
<text text-anchor="start" x="287.5" y="-220.5" font-family="Helvetica,sans-Serif" font-size="10.00">+ Health</text>
<text text-anchor="start" x="287.5" y="-209.5" font-family="Helvetica,sans-Serif" font-size="10.00">+ Attack</text>
<text text-anchor="start" x="287.5" y="-198.5" font-family="Helvetica,sans-Serif" font-size="10.00">+ Defence</text>
<text text-anchor="start" x="287.5" y="-187.5" font-family="Helvetica,sans-Serif" font-size="10.00">+ MaximumMagic</text>
<text text-anchor="start" x="287.5" y="-176.5" font-family="Helvetica,sans-Serif" font-size="10.00">+ Magic</text>
<text text-anchor="start" x="287.5" y="-165.5" font-family="Helvetica,sans-Serif" font-size="10.00">+ Luck</text>
<text text-anchor="start" x="287.5" y="-154.5" font-family="Helvetica,sans-Serif" font-size="10.00">+ Speed</text>
<text text-anchor="start" x="287.5" y="-143.5" font-family="Helvetica,sans-Serif" font-size="10.00">+ Special1</text>
<text text-anchor="start" x="287.5" y="-132.5" font-family="Helvetica,sans-Serif" font-size="10.00">+ Special2</text>
<text text-anchor="start" x="287.5" y="-121.5" font-family="Helvetica,sans-Serif" font-size="10.00">+ Image</text>
<polyline fill="none" stroke="black" points="279.5,-114.5 374.5,-114.5 "/>
<text text-anchor="start" x="287.5" y="-102.5" font-family="Helvetica,sans-Serif" font-size="10.00"># Character()</text>
</a>
</g>
</g>
<!-- Node3&#45;&gt;Node6 -->
<g id="edge6" class="edge"><title>Node3&#45;&gt;Node6</title>
<path fill="none" stroke="#404040" d="M574.696,-1228.57C609.503,-1211.13 676,-1170.31 676,-1113 676,-1113 676,-1113 676,-376.5 676,-246.211 486.514,-204.226 386.785,-191.151"/>
<polygon fill="none" stroke="#404040" points="386.704,-191.141 380.256,-194.371 374.795,-189.662 381.243,-186.432 386.704,-191.141"/>
<text text-anchor="middle" x="701.5" y="-762" font-family="Helvetica,sans-Serif" font-size="10.00"> #image_ref</text>
<text text-anchor="middle" x="701.5" y="-751" font-family="Helvetica,sans-Serif" font-size="10.00">#name</text>
</g>
<!-- Node7 -->
<g id="node7" class="node"><title>Node7</title>
<g id="a_node7"><a xlink:href="class_special_move.html" target="_top" xlink:title="Special move abstract base class that expands upon CharacterMove, adding magic properties ...">
<polygon fill="none" stroke="black" points="449,-332.5 449,-422.5 547,-422.5 547,-332.5 449,-332.5"/>
<text text-anchor="middle" x="498" y="-410.5" font-family="Helvetica,sans-Serif" font-size="10.00">SpecialMove</text>
<polyline fill="none" stroke="black" points="449,-403.5 547,-403.5 "/>
<text text-anchor="start" x="457" y="-391.5" font-family="Helvetica,sans-Serif" font-size="10.00">+ Magic</text>
<text text-anchor="start" x="457" y="-380.5" font-family="Helvetica,sans-Serif" font-size="10.00">+ Desc</text>
<polyline fill="none" stroke="black" points="449,-373.5 547,-373.5 "/>
<text text-anchor="start" x="457" y="-361.5" font-family="Helvetica,sans-Serif" font-size="10.00">+ setUp()</text>
<text text-anchor="start" x="457" y="-350.5" font-family="Helvetica,sans-Serif" font-size="10.00">+ decreaseMagic()</text>
<text text-anchor="start" x="457" y="-339.5" font-family="Helvetica,sans-Serif" font-size="10.00"># SpecialMove()</text>
</a>
</g>
</g>
<!-- Node3&#45;&gt;Node7 -->
<g id="edge20" class="edge"><title>Node3&#45;&gt;Node7</title>
<path fill="none" stroke="#404040" d="M554,-1210.2C554,-1184.87 554,-1146.42 554,-1113 554,-1113 554,-1113 554,-876.5 554,-779.315 531.719,-536.556 514,-441 513.604,-438.863 513.176,-436.69 512.723,-434.501"/>
<polygon fill="none" stroke="#404040" points="512.708,-434.437 507.502,-429.447 510.105,-422.722 515.311,-427.712 512.708,-434.437"/>
<text text-anchor="middle" x="569" y="-875" font-family="Helvetica,sans-Serif" font-size="10.00"> #desc</text>
</g>
<!-- Node8 -->
<g id="node8" class="node"><title>Node8</title>
<g id="a_node8"><a xlink:href="class_character_move.html" target="_top" xlink:title="Astract base class for character moves ">
<polygon fill="none" stroke="black" points="557,-460.5 557,-539.5 643,-539.5 643,-460.5 557,-460.5"/>
<text text-anchor="middle" x="600" y="-527.5" font-family="Helvetica,sans-Serif" font-size="10.00">CharacterMove</text>
<polyline fill="none" stroke="black" points="557,-520.5 643,-520.5 "/>
<text text-anchor="start" x="565" y="-508.5" font-family="Helvetica,sans-Serif" font-size="10.00">+ User</text>
<text text-anchor="start" x="565" y="-497.5" font-family="Helvetica,sans-Serif" font-size="10.00">+ Target</text>
<text text-anchor="start" x="565" y="-486.5" font-family="Helvetica,sans-Serif" font-size="10.00">+ Text</text>
<polyline fill="none" stroke="black" points="557,-479.5 643,-479.5 "/>
<text text-anchor="start" x="565" y="-467.5" font-family="Helvetica,sans-Serif" font-size="10.00">+ performMove()</text>
</a>
</g>
</g>
<!-- Node3&#45;&gt;Node8 -->
<g id="edge10" class="edge"><title>Node3&#45;&gt;Node8</title>
<path fill="none" stroke="#404040" d="M574.702,-1216.49C595.027,-1193.03 623,-1153.4 623,-1113 623,-1113 623,-1113 623,-758 623,-686.198 613.984,-603.561 607.241,-551.803"/>
<polygon fill="none" stroke="#404040" points="607.208,-551.549 602.452,-546.129 605.626,-539.654 610.382,-545.074 607.208,-551.549"/>
<text text-anchor="middle" x="635.5" y="-955" font-family="Helvetica,sans-Serif" font-size="10.00"> #text</text>
</g>
<!-- Node9 -->
<g id="node9" class="node"><title>Node9</title>
<g id="a_node9"><a xlink:href="class_battle_manager.html" target="_top" xlink:title="Holds current Player and Enemy objects in battle and provides functions for MainBattle and other obje...">
<polygon fill="none" stroke="black" points="319,-664.5 319,-853.5 435,-853.5 435,-664.5 319,-664.5"/>
<text text-anchor="middle" x="377" y="-841.5" font-family="Helvetica,sans-Serif" font-size="10.00">BattleManager</text>
<polyline fill="none" stroke="black" points="319,-834.5 435,-834.5 "/>
<text text-anchor="start" x="327" y="-822.5" font-family="Helvetica,sans-Serif" font-size="10.00">+ Player</text>
<text text-anchor="start" x="327" y="-811.5" font-family="Helvetica,sans-Serif" font-size="10.00">+ Enemy</text>
<text text-anchor="start" x="327" y="-800.5" font-family="Helvetica,sans-Serif" font-size="10.00">+ WasCriticalHit</text>
<polyline fill="none" stroke="black" points="319,-793.5 435,-793.5 "/>
<text text-anchor="start" x="327" y="-781.5" font-family="Helvetica,sans-Serif" font-size="10.00">+ BattleManager()</text>
<text text-anchor="start" x="327" y="-770.5" font-family="Helvetica,sans-Serif" font-size="10.00">+ playerFirst()</text>
<text text-anchor="start" x="327" y="-759.5" font-family="Helvetica,sans-Serif" font-size="10.00">+ switchPlayers()</text>
<text text-anchor="start" x="327" y="-748.5" font-family="Helvetica,sans-Serif" font-size="10.00">+ isCriticalHit()</text>
<text text-anchor="start" x="327" y="-737.5" font-family="Helvetica,sans-Serif" font-size="10.00">+ ranAway()</text>
<text text-anchor="start" x="327" y="-726.5" font-family="Helvetica,sans-Serif" font-size="10.00">+ damageCalculation()</text>
<text text-anchor="start" x="327" y="-715.5" font-family="Helvetica,sans-Serif" font-size="10.00">+ enemyMove()</text>
<text text-anchor="start" x="327" y="-704.5" font-family="Helvetica,sans-Serif" font-size="10.00">+ enemySpecialMove()</text>
<text text-anchor="start" x="327" y="-693.5" font-family="Helvetica,sans-Serif" font-size="10.00">+ battleWon()</text>
<text text-anchor="start" x="327" y="-682.5" font-family="Helvetica,sans-Serif" font-size="10.00">+ playerFainted()</text>
<text text-anchor="start" x="327" y="-671.5" font-family="Helvetica,sans-Serif" font-size="10.00">&#45; characterFainted()</text>
</a>
</g>
</g>
<!-- Node3&#45;&gt;Node9 -->
<g id="edge13" class="edge"><title>Node3&#45;&gt;Node9</title>
<path fill="none" stroke="#404040" d="M538.286,-1210.33C518.255,-1174.67 482.988,-1110.5 456,-1054 427.607,-994.561 408.136,-923.312 395.628,-865.842"/>
<polygon fill="none" stroke="#404040" points="395.563,-865.533 390.401,-860.498 393.064,-853.796 398.226,-858.832 395.563,-865.533"/>
<text text-anchor="middle" x="498" y="-1046" font-family="Helvetica,sans-Serif" font-size="10.00"> +forceEnemyMove</text>
<text text-anchor="middle" x="498" y="-1035" font-family="Helvetica,sans-Serif" font-size="10.00">+forceCriticalHits</text>
</g>
<!-- Node4 -->
<g id="node4" class="node"><title>Node4</title>
<polygon fill="none" stroke="#bfbfbf" points="85.5,-1083.5 85.5,-1140.5 114.5,-1140.5 114.5,-1083.5 85.5,-1083.5"/>
<text text-anchor="middle" x="100" y="-1128.5" font-family="Helvetica,sans-Serif" font-size="10.00">int</text>
<polyline fill="none" stroke="#bfbfbf" points="85.5,-1121.5 114.5,-1121.5 "/>
<text text-anchor="middle" x="100" y="-1109.5" font-family="Helvetica,sans-Serif" font-size="10.00"> </text>
<polyline fill="none" stroke="#bfbfbf" points="85.5,-1102.5 114.5,-1102.5 "/>
<text text-anchor="middle" x="100" y="-1090.5" font-family="Helvetica,sans-Serif" font-size="10.00"> </text>
</g>
<!-- Node4&#45;&gt;Node1 -->
<g id="edge3" class="edge"><title>Node4&#45;&gt;Node1</title>
<path fill="none" stroke="#404040" d="M96.2114,-1083.49C91.4336,-1043.05 85.2754,-965.383 98,-901 101.822,-881.663 108.328,-861.645 115.633,-842.979"/>
<polygon fill="none" stroke="#404040" points="115.633,-842.978 114.179,-835.915 120.14,-831.856 121.594,-838.919 115.633,-842.978"/>
<text text-anchor="middle" x="116" y="-955" font-family="Helvetica,sans-Serif" font-size="10.00"> &#45;money</text>
</g>
<!-- Node4&#45;&gt;Node5 -->
<g id="edge23" class="edge"><title>Node4&#45;&gt;Node5</title>
<path fill="none" stroke="#404040" d="M114.572,-1097.2C133.03,-1079.71 166.057,-1048.43 196.079,-1019.99"/>
<polygon fill="none" stroke="#404040" points="196.153,-1019.92 197.758,-1012.89 204.865,-1011.67 203.259,-1018.7 196.153,-1019.92"/>
<text text-anchor="middle" x="218.5" y="-1046" font-family="Helvetica,sans-Serif" font-size="10.00"> &#45;expToNextLevel</text>
<text text-anchor="middle" x="218.5" y="-1035" font-family="Helvetica,sans-Serif" font-size="10.00">&#45;exp</text>
</g>
<!-- Node4&#45;&gt;Node6 -->
<g id="edge7" class="edge"><title>Node4&#45;&gt;Node6</title>
<path fill="none" stroke="#404040" d="M93.1164,-1083.34C91.095,-1074.07 89.126,-1063.64 88,-1054 84.8997,-1027.45 85.5546,-949.979 87,-901 90.1125,-795.529 76.7945,-766.703 101,-664 142.247,-488.993 176.535,-451.256 260,-292 264.125,-284.13 268.63,-276.072 273.291,-268.085"/>
<polygon fill="none" stroke="#404040" points="273.362,-267.965 272.986,-260.764 279.489,-257.648 279.865,-264.849 273.362,-267.965"/>
<text text-anchor="middle" x="168.5" y="-638" font-family="Helvetica,sans-Serif" font-size="10.00"> #speed</text>
<text text-anchor="middle" x="168.5" y="-627" font-family="Helvetica,sans-Serif" font-size="10.00">#luck</text>
<text text-anchor="middle" x="168.5" y="-616" font-family="Helvetica,sans-Serif" font-size="10.00">#health</text>
<text text-anchor="middle" x="168.5" y="-605" font-family="Helvetica,sans-Serif" font-size="10.00">#magic</text>
<text text-anchor="middle" x="168.5" y="-594" font-family="Helvetica,sans-Serif" font-size="10.00">#maximumMagic</text>
<text text-anchor="middle" x="168.5" y="-583" font-family="Helvetica,sans-Serif" font-size="10.00">#attack</text>
<text text-anchor="middle" x="168.5" y="-572" font-family="Helvetica,sans-Serif" font-size="10.00">#defence</text>
<text text-anchor="middle" x="168.5" y="-561" font-family="Helvetica,sans-Serif" font-size="10.00">#level</text>
</g>
<!-- Node4&#45;&gt;Node7 -->
<g id="edge21" class="edge"><title>Node4&#45;&gt;Node7</title>
<path fill="none" stroke="#404040" d="M114.765,-1108.33C155.129,-1100.91 270.596,-1078.96 365,-1054 372.151,-1052.11 487.49,-1019.86 492,-1014 509.483,-991.273 502.527,-586.313 499.295,-434.956"/>
<polygon fill="none" stroke="#404040" points="499.292,-434.803 495.163,-428.891 499.032,-422.806 503.161,-428.718 499.292,-434.803"/>
<text text-anchor="middle" x="521.5" y="-756.5" font-family="Helvetica,sans-Serif" font-size="10.00"> #magic</text>
</g>
<!-- Node4&#45;&gt;Node9 -->
<g id="edge17" class="edge"><title>Node4&#45;&gt;Node9</title>
<path fill="none" stroke="#404040" d="M114.574,-1109.81C155.975,-1105.56 274.607,-1087.21 326,-1014 342.893,-989.935 355.833,-924.2 364.452,-865.635"/>
<polygon fill="none" stroke="#404040" points="364.467,-865.527 361.36,-859.02 366.172,-853.649 369.279,-860.156 364.467,-865.527"/>
<text text-anchor="middle" x="378.5" y="-955" font-family="Helvetica,sans-Serif" font-size="10.00"> +money</text>
</g>
<!-- Node10 -->
<g id="node10" class="node"><title>Node10</title>
<g id="a_node10"><a xlink:href="class_enemy.html" target="_top" xlink:title="Defines an AI controller enemy to fight in battle scenes">
<polygon fill="none" stroke="black" points="155.5,-0.5 155.5,-57.5 222.5,-57.5 222.5,-0.5 155.5,-0.5"/>
<text text-anchor="middle" x="189" y="-45.5" font-family="Helvetica,sans-Serif" font-size="10.00">Enemy</text>
<polyline fill="none" stroke="black" points="155.5,-38.5 222.5,-38.5 "/>
<text text-anchor="start" x="163.5" y="-26.5" font-family="Helvetica,sans-Serif" font-size="10.00">+ ExpGiven</text>
<polyline fill="none" stroke="black" points="155.5,-19.5 222.5,-19.5 "/>
<text text-anchor="start" x="163.5" y="-7.5" font-family="Helvetica,sans-Serif" font-size="10.00">+ Enemy()</text>
</a>
</g>
</g>
<!-- Node4&#45;&gt;Node10 -->
<g id="edge16" class="edge"><title>Node4&#45;&gt;Node10</title>
<path fill="none" stroke="#404040" d="M85.2447,-1099.31C57.428,-1075.83 0,-1019.92 0,-958.5 0,-958.5 0,-958.5 0,-183.5 0,-109.702 87.8984,-65.1705 143.809,-44.3094"/>
<polygon fill="none" stroke="#404040" points="143.917,-44.2707 148.212,-38.4783 155.211,-40.2151 150.915,-46.0076 143.917,-44.2707"/>
<text text-anchor="middle" x="23" y="-497.5" font-family="Helvetica,sans-Serif" font-size="10.00"> &#45;expGiven</text>
</g>
<!-- Node5&#45;&gt;Node1 -->
<g id="edge4" class="edge"><title>Node5&#45;&gt;Node1</title>
<path fill="none" stroke="#404040" d="M212.789,-901.307C208.526,-895.316 204.505,-889.155 201,-883 193.923,-870.573 187.608,-856.829 182.107,-843.164"/>
<polygon fill="none" stroke="#404040" points="182.014,-842.925 176.116,-838.776 177.678,-831.736 183.576,-835.885 182.014,-842.925"/>
<text text-anchor="middle" x="220" y="-875" font-family="Helvetica,sans-Serif" font-size="10.00"> &#45;players</text>
</g>
<!-- Node5&#45;&gt;Node9 -->
<g id="edge19" class="edge"><title>Node5&#45;&gt;Node9</title>
<path fill="none" stroke="#404040" d="M289.694,-901.168C294.989,-891.38 300.565,-881.337 306,-872 308.12,-868.358 310.3,-864.664 312.52,-860.945"/>
<polygon fill="none" stroke="#404040" points="312.672,-860.692 312.345,-853.489 318.869,-850.416 319.196,-857.619 312.672,-860.692"/>
<text text-anchor="middle" x="322.5" y="-875" font-family="Helvetica,sans-Serif" font-size="10.00"> &#45;player</text>
</g>
<!-- Node6&#45;&gt;Node5 -->
<g id="edge5" class="edge"><title>Node6&#45;&gt;Node5</title>
<path fill="none" stroke="midnightblue" d="M275.34,-278.635C262.838,-308.925 253,-343.306 253,-376.5 253,-760 253,-760 253,-760 253,-807.8 255.393,-862.086 257.561,-901.469"/>
<polygon fill="none" stroke="midnightblue" points="278.588,-279.944 279.298,-269.373 272.15,-277.193 278.588,-279.944"/>
</g>
<!-- Node6&#45;&gt;Node8 -->
<g id="edge11" class="edge"><title>Node6&#45;&gt;Node8</title>
<path fill="none" stroke="#404040" d="M374.903,-203.61C427.274,-225.878 509.865,-268.678 556,-332 580.795,-366.033 591.628,-412.986 596.355,-448.44"/>
<polygon fill="none" stroke="#404040" points="596.367,-448.545 601.048,-454.03 597.785,-460.461 593.104,-454.975 596.367,-448.545"/>
<text text-anchor="middle" x="610" y="-380.5" font-family="Helvetica,sans-Serif" font-size="10.00"> #target</text>
<text text-anchor="middle" x="610" y="-369.5" font-family="Helvetica,sans-Serif" font-size="10.00">#user</text>
</g>
<!-- Node6&#45;&gt;Node10 -->
<g id="edge15" class="edge"><title>Node6&#45;&gt;Node10</title>
<path fill="none" stroke="midnightblue" d="M272.346,-122.707C252.14,-100.232 230.218,-75.8473 213.93,-57.7296"/>
<polygon fill="none" stroke="midnightblue" points="269.833,-125.147 279.122,-130.244 275.039,-120.467 269.833,-125.147"/>
</g>
<!-- Node7&#45;&gt;Node6 -->
<g id="edge8" class="edge"><title>Node7&#45;&gt;Node6</title>
<path fill="none" stroke="#404040" d="M458.339,-332.201C435.913,-307.151 407.513,-275.429 382.863,-247.897"/>
<polygon fill="none" stroke="#404040" points="382.666,-247.676 375.683,-245.874 374.661,-238.736 381.644,-240.538 382.666,-247.676"/>
<text text-anchor="middle" x="460.5" y="-306" font-family="Helvetica,sans-Serif" font-size="10.00"> #special1</text>
<text text-anchor="middle" x="460.5" y="-295" font-family="Helvetica,sans-Serif" font-size="10.00">#special2</text>
</g>
<!-- Node8&#45;&gt;Node7 -->
<g id="edge9" class="edge"><title>Node8&#45;&gt;Node7</title>
<path fill="none" stroke="midnightblue" d="M560.624,-452.482C552.329,-442.682 543.601,-432.371 535.382,-422.661"/>
<polygon fill="none" stroke="midnightblue" points="558.033,-454.838 567.165,-460.21 563.376,-450.316 558.033,-454.838"/>
</g>
<!-- Node9&#45;&gt;Node8 -->
<g id="edge12" class="edge"><title>Node9&#45;&gt;Node8</title>
<path fill="none" stroke="#404040" d="M435.008,-691.147C473.718,-646.536 523.699,-588.934 558.46,-548.874"/>
<polygon fill="none" stroke="#404040" points="558.648,-548.656 559.559,-541.503 566.513,-539.593 565.602,-546.746 558.648,-548.656"/>
<text text-anchor="middle" x="570" y="-599.5" font-family="Helvetica,sans-Serif" font-size="10.00"> #manager</text>
</g>
<!-- Node10&#45;&gt;Node9 -->
<g id="edge14" class="edge"><title>Node10&#45;&gt;Node9</title>
<path fill="none" stroke="#404040" d="M196.161,-57.7314C221.204,-154.704 305.714,-481.958 349.771,-652.56"/>
<polygon fill="none" stroke="#404040" points="349.807,-652.698 355.18,-657.507 352.807,-664.317 347.434,-659.508 349.807,-652.698"/>
<text text-anchor="middle" x="309" y="-375" font-family="Helvetica,sans-Serif" font-size="10.00"> &#45;enemy</text>
</g>
<!-- Node11 -->
<g id="node11" class="node"><title>Node11</title>
<polygon fill="none" stroke="#bfbfbf" points="448.5,-929 448.5,-986 483.5,-986 483.5,-929 448.5,-929"/>
<text text-anchor="middle" x="466" y="-974" font-family="Helvetica,sans-Serif" font-size="10.00">bool</text>
<polyline fill="none" stroke="#bfbfbf" points="448.5,-967 483.5,-967 "/>
<text text-anchor="middle" x="466" y="-955" font-family="Helvetica,sans-Serif" font-size="10.00"> </text>
<polyline fill="none" stroke="#bfbfbf" points="448.5,-948 483.5,-948 "/>
<text text-anchor="middle" x="466" y="-936" font-family="Helvetica,sans-Serif" font-size="10.00"> </text>
</g>
<!-- Node11&#45;&gt;Node9 -->
<g id="edge18" class="edge"><title>Node11&#45;&gt;Node9</title>
<path fill="none" stroke="#404040" d="M453.162,-928.965C446.761,-915.182 438.927,-898.229 432,-883 429.306,-877.078 426.549,-870.991 423.773,-864.845"/>
<polygon fill="none" stroke="#404040" points="423.699,-864.68 417.586,-860.854 418.767,-853.74 424.88,-857.566 423.699,-864.68"/>
<text text-anchor="middle" x="465" y="-875" font-family="Helvetica,sans-Serif" font-size="10.00"> &#45;wasCriticalHit</text>
</g>
</g>
</svg>
        <g id="navigator" transform="translate(0 0)" fill="#404254">
                <rect fill="#f2f5e9" fill-opacity="0.5" stroke="#606060" stroke-width=".5" x="0" y="0" width="60" height="60"/>
                <use id="zoomplus" xlink:href="#zoomPlus" x="17" y="9" onmousedown="handleZoom(evt,'in')"/>
                <use id="zoomminus" xlink:href="#zoomMin" x="42" y="9" onmousedown="handleZoom(evt,'out')"/>
                <use id="reset" xlink:href="#resetDef" x="30" y="36" onmousedown="handleReset()"/>
                <g id="arrowUp" xlink:href="#dirArrow" transform="translate(30 24)" onmousedown="handlePan(0,-1)">
                  <use xlink:href="#rim" fill="#404040">
                        <set attributeName="fill" to="#808080" begin="arrowUp.mouseover" end="arrowUp.mouseout"/>
                  </use>
                  <path fill="none" stroke="white" stroke-width="1.5" d="M0,-3.0v7 M-2.5,-0.5L0,-3.0L2.5,-0.5"/>
                </g>
                <g id="arrowRight" xlink:href="#dirArrow" transform="rotate(90) translate(36 -43)" onmousedown="handlePan(1,0)">
                  <use xlink:href="#rim" fill="#404040">
                        <set attributeName="fill" to="#808080" begin="arrowRight.mouseover" end="arrowRight.mouseout"/>
                  </use>
                  <path fill="none" stroke="white" stroke-width="1.5" d="M0,-3.0v7 M-2.5,-0.5L0,-3.0L2.5,-0.5"/>
                </g>
                <g id="arrowDown" xlink:href="#dirArrow" transform="rotate(180) translate(-30 -48)" onmousedown="handlePan(0,1)">
                  <use xlink:href="#rim" fill="#404040">
                        <set attributeName="fill" to="#808080" begin="arrowDown.mouseover" end="arrowDown.mouseout"/>
                  </use>
                  <path fill="none" stroke="white" stroke-width="1.5" d="M0,-3.0v7 M-2.5,-0.5L0,-3.0L2.5,-0.5"/>
                </g>
                <g id="arrowLeft" xlink:href="#dirArrow" transform="rotate(270) translate(-36 17)" onmousedown="handlePan(-1,0)">
                  <use xlink:href="#rim" fill="#404040">
                        <set attributeName="fill" to="#808080" begin="arrowLeft.mouseover" end="arrowLeft.mouseout"/>
                  </use>
                  <path fill="none" stroke="white" stroke-width="1.5" d="M0,-3.0v7 M-2.5,-0.5L0,-3.0L2.5,-0.5"/>
                </g>
        </g>
        <svg viewBox="0 0 15 15" width="100%" height="30px" preserveAspectRatio="xMaxYMin meet">
         <g id="arrow_out" transform="scale(0.3 0.3)">
          <a xlink:href="class_data_manager__coll__graph_org.svg" target="_base">
           <rect id="button" ry="5" rx="5" y="6" x="6" height="38" width="38"
                fill="#f2f5e9" fill-opacity="0.5" stroke="#606060" stroke-width="1.0"/>
           <path id="arrow"
             d="M 11.500037,31.436501 C 11.940474,20.09759 22.043105,11.32322 32.158766,21.979434 L 37.068811,17.246167 C 37.068811,17.246167 37.088388,32 37.088388,32 L 22.160133,31.978069 C 22.160133,31.978069 26.997745,27.140456 26.997745,27.140456 C 18.528582,18.264221 13.291696,25.230495 11.500037,31.436501 z"
             style="fill:#404040;"/>
          </a>
         </g>
        </svg>
</svg>
