<?xml version="1.0" encoding="UTF-8" standalone="no"?>
<!DOCTYPE svg PUBLIC "-//W3C//DTD SVG 1.1//EN"
 "http://www.w3.org/Graphics/SVG/1.1/DTD/svg11.dtd">
<!-- Generated by graphviz version 2.38.0 (20140413.2041)
 -->
<!-- Title: GlobalFunctions Pages: 1 -->
<svg width="1076pt" height="1479pt"
 viewBox="0.00 0.00 1075.50 1479.00" xmlns="http://www.w3.org/2000/svg" xmlns:xlink="http://www.w3.org/1999/xlink">
<g id="graph0" class="graph" transform="scale(1 1) rotate(0) translate(4 1475)">
<title>GlobalFunctions</title>
<!-- Node2 -->
<g id="node1" class="node"><title>Node2</title>
<polygon fill="#bfbfbf" stroke="black" points="305,-0.5 305,-123.5 392,-123.5 392,-0.5 305,-0.5"/>
<text text-anchor="middle" x="348.5" y="-111.5" font-family="Helvetica,sans-Serif" font-size="10.00">GlobalFunctions</text>
<polyline fill="none" stroke="black" points="305,-104.5 392,-104.5 "/>
<text text-anchor="middle" x="348.5" y="-92.5" font-family="Helvetica,sans-Serif" font-size="10.00"> </text>
<polyline fill="none" stroke="black" points="305,-85.5 392,-85.5 "/>
<text text-anchor="start" x="313" y="-73.5" font-family="Helvetica,sans-Serif" font-size="10.00">+ createBattle()</text>
<text text-anchor="start" x="313" y="-62.5" font-family="Helvetica,sans-Serif" font-size="10.00">+ getEnemy()</text>
<text text-anchor="start" x="313" y="-51.5" font-family="Helvetica,sans-Serif" font-size="10.00">+ getMoney()</text>
<text text-anchor="start" x="313" y="-40.5" font-family="Helvetica,sans-Serif" font-size="10.00">+ getItem()</text>
<text text-anchor="start" x="313" y="-29.5" font-family="Helvetica,sans-Serif" font-size="10.00">+ endBattle()</text>
<text text-anchor="start" x="313" y="-18.5" font-family="Helvetica,sans-Serif" font-size="10.00">+ createItem()</text>
<text text-anchor="start" x="313" y="-7.5" font-family="Helvetica,sans-Serif" font-size="10.00">&#45; Awake()</text>
</g>
<!-- Node2&#45;&gt;Node2 -->
<g id="edge27" class="edge"><title>Node2&#45;&gt;Node2</title>
<path fill="none" stroke="#404040" d="M392.169,-77.4385C402.43,-76.1696 410,-71.0234 410,-62 410,-56.9243 407.605,-53.0754 403.683,-50.4533"/>
<polygon fill="none" stroke="#404040" points="403.537,-50.4042 396.573,-52.2722 392.169,-46.5615 399.134,-44.6935 403.537,-50.4042"/>
<text text-anchor="middle" x="433" y="-59.5" font-family="Helvetica,sans-Serif" font-size="10.00"> +instance</text>
</g>
<!-- Node3 -->
<g id="node2" class="node"><title>Node3</title>
<g id="a_node2"><a xlink:href="class_mono_behaviour.html" target="_top" xlink:title="{MonoBehaviour\n||}">
<polygon fill="none" stroke="black" points="0,-177 0,-234 83,-234 83,-177 0,-177"/>
<text text-anchor="middle" x="41.5" y="-222" font-family="Helvetica,sans-Serif" font-size="10.00">MonoBehaviour</text>
<polyline fill="none" stroke="black" points="0,-215 83,-215 "/>
<text text-anchor="middle" x="41.5" y="-203" font-family="Helvetica,sans-Serif" font-size="10.00"> </text>
<polyline fill="none" stroke="black" points="0,-196 83,-196 "/>
<text text-anchor="middle" x="41.5" y="-184" font-family="Helvetica,sans-Serif" font-size="10.00"> </text>
</a>
</g>
</g>
<!-- Node3&#45;&gt;Node2 -->
<g id="edge1" class="edge"><title>Node3&#45;&gt;Node2</title>
<path fill="none" stroke="midnightblue" d="M80.6605,-170.228C93.4129,-160.205 108.025,-149.846 122.5,-142 182.244,-109.614 257.86,-86.3722 304.705,-73.8041"/>
<polygon fill="none" stroke="midnightblue" points="78.1677,-167.741 72.569,-176.736 82.5549,-173.195 78.1677,-167.741"/>
</g>
<!-- Node4 -->
<g id="node3" class="node"><title>Node4</title>
<polygon fill="none" stroke="#bfbfbf" points="101.5,-177 101.5,-234 159.5,-234 159.5,-177 101.5,-177"/>
<text text-anchor="middle" x="130.5" y="-222" font-family="Helvetica,sans-Serif" font-size="10.00">AudioClip</text>
<polyline fill="none" stroke="#bfbfbf" points="101.5,-215 159.5,-215 "/>
<text text-anchor="middle" x="130.5" y="-203" font-family="Helvetica,sans-Serif" font-size="10.00"> </text>
<polyline fill="none" stroke="#bfbfbf" points="101.5,-196 159.5,-196 "/>
<text text-anchor="middle" x="130.5" y="-184" font-family="Helvetica,sans-Serif" font-size="10.00"> </text>
</g>
<!-- Node4&#45;&gt;Node2 -->
<g id="edge2" class="edge"><title>Node4&#45;&gt;Node2</title>
<path fill="none" stroke="#404040" d="M124.401,-176.819C123.377,-165.101 124.45,-151.9 131.5,-142 168.025,-90.7108 241.405,-72.6191 292.674,-66.296"/>
<polygon fill="none" stroke="#404040" points="292.943,-66.2666 298.472,-61.6371 304.871,-64.96 299.343,-69.5895 292.943,-66.2666"/>
<text text-anchor="middle" x="165" y="-145" font-family="Helvetica,sans-Serif" font-size="10.00"> +previousBGM</text>
</g>
<!-- Node5 -->
<g id="node4" class="node"><title>Node5</title>
<g id="a_node4"><a xlink:href="class_item.html" target="_top" xlink:title="Abstract class for items that can be equipped to a player, increasing some of their stats ...">
<polygon fill="none" stroke="black" points="343,-1275.5 343,-1354.5 420,-1354.5 420,-1275.5 343,-1275.5"/>
<text text-anchor="middle" x="381.5" y="-1342.5" font-family="Helvetica,sans-Serif" font-size="10.00">Item</text>
<polyline fill="none" stroke="black" points="343,-1335.5 420,-1335.5 "/>
<text text-anchor="start" x="351" y="-1323.5" font-family="Helvetica,sans-Serif" font-size="10.00">+ Name</text>
<text text-anchor="start" x="351" y="-1312.5" font-family="Helvetica,sans-Serif" font-size="10.00">+ Desc</text>
<polyline fill="none" stroke="black" points="343,-1305.5 420,-1305.5 "/>
<text text-anchor="start" x="351" y="-1293.5" font-family="Helvetica,sans-Serif" font-size="10.00">+ applyBuffs()</text>
<text text-anchor="start" x="351" y="-1282.5" font-family="Helvetica,sans-Serif" font-size="10.00">+ revertBuffs()</text>
</a>
</g>
</g>
<!-- Node5&#45;&gt;Node2 -->
<g id="edge3" class="edge"><title>Node5&#45;&gt;Node2</title>
<path fill="none" stroke="#404040" d="M345.96,-1275.41C341.665,-1269.52 337.681,-1263.3 334.5,-1257 314.763,-1217.94 310.5,-1205.26 310.5,-1161.5 310.5,-1161.5 310.5,-1161.5 310.5,-804 310.5,-733.22 303.919,-715.738 301.5,-645 300.216,-607.464 300.5,-598.058 300.5,-560.5 300.5,-560.5 300.5,-560.5 300.5,-204.5 300.5,-181.302 306.357,-157.044 313.98,-135.297"/>
<polygon fill="none" stroke="#404040" points="314.059,-135.086 312.398,-128.068 318.237,-123.837 319.897,-130.854 314.059,-135.086"/>
<text text-anchor="middle" x="314" y="-631.5" font-family="Helvetica,sans-Serif" font-size="10.00"> &#45;item</text>
</g>
<!-- Node15 -->
<g id="node14" class="node"><title>Node15</title>
<g id="a_node14"><a xlink:href="class_player.html" target="_top" xlink:title="Defines a playable character for use in battle scenes">
<polygon fill="none" stroke="black" points="414.5,-1104.5 414.5,-1216.5 526.5,-1216.5 526.5,-1104.5 414.5,-1104.5"/>
<text text-anchor="middle" x="470.5" y="-1204.5" font-family="Helvetica,sans-Serif" font-size="10.00">Player</text>
<polyline fill="none" stroke="black" points="414.5,-1197.5 526.5,-1197.5 "/>
<text text-anchor="start" x="422.5" y="-1185.5" font-family="Helvetica,sans-Serif" font-size="10.00">+ Exp</text>
<text text-anchor="start" x="422.5" y="-1174.5" font-family="Helvetica,sans-Serif" font-size="10.00">+ Item</text>
<text text-anchor="start" x="422.5" y="-1163.5" font-family="Helvetica,sans-Serif" font-size="10.00">+ ExpToNextLevel</text>
<polyline fill="none" stroke="black" points="414.5,-1156.5 526.5,-1156.5 "/>
<text text-anchor="start" x="422.5" y="-1144.5" font-family="Helvetica,sans-Serif" font-size="10.00">+ Player()</text>
<text text-anchor="start" x="422.5" y="-1133.5" font-family="Helvetica,sans-Serif" font-size="10.00">+ gainExp()</text>
<text text-anchor="start" x="422.5" y="-1122.5" font-family="Helvetica,sans-Serif" font-size="10.00">+ levelUp()</text>
<text text-anchor="start" x="422.5" y="-1111.5" font-family="Helvetica,sans-Serif" font-size="10.00">&#45; setExpToNextLevel()</text>
</a>
</g>
</g>
<!-- Node5&#45;&gt;Node15 -->
<g id="edge22" class="edge"><title>Node5&#45;&gt;Node15</title>
<path fill="none" stroke="#404040" d="M404.189,-1275.12C412.68,-1260.57 422.58,-1243.61 432.1,-1227.3"/>
<polygon fill="none" stroke="#404040" points="432.233,-1227.07 431.803,-1219.87 438.282,-1216.71 438.712,-1223.9 432.233,-1227.07"/>
<text text-anchor="middle" x="439" y="-1243.5" font-family="Helvetica,sans-Serif" font-size="10.00"> &#45;item</text>
</g>
<!-- Node6 -->
<g id="node5" class="node"><title>Node6</title>
<polygon fill="none" stroke="#bfbfbf" points="735,-1413.5 735,-1470.5 776,-1470.5 776,-1413.5 735,-1413.5"/>
<text text-anchor="middle" x="755.5" y="-1458.5" font-family="Helvetica,sans-Serif" font-size="10.00">string</text>
<polyline fill="none" stroke="#bfbfbf" points="735,-1451.5 776,-1451.5 "/>
<text text-anchor="middle" x="755.5" y="-1439.5" font-family="Helvetica,sans-Serif" font-size="10.00"> </text>
<polyline fill="none" stroke="#bfbfbf" points="735,-1432.5 776,-1432.5 "/>
<text text-anchor="middle" x="755.5" y="-1420.5" font-family="Helvetica,sans-Serif" font-size="10.00"> </text>
</g>
<!-- Node6&#45;&gt;Node2 -->
<g id="edge5" class="edge"><title>Node6&#45;&gt;Node2</title>
<path fill="none" stroke="#404040" d="M734.877,-1440.76C635.691,-1439.04 212.5,-1425.31 212.5,-1316 212.5,-1316 212.5,-1316 212.5,-204.5 212.5,-154.98 256.333,-116.08 294.23,-91.7034"/>
<polygon fill="none" stroke="#404040" points="294.514,-91.5278 297.513,-84.97 304.72,-85.2162 301.721,-91.774 294.514,-91.5278"/>
<text text-anchor="middle" x="247.5" y="-706" font-family="Helvetica,sans-Serif" font-size="10.00"> &#45;previousScene</text>
<text text-anchor="middle" x="247.5" y="-695" font-family="Helvetica,sans-Serif" font-size="10.00">+levelOrder</text>
</g>
<!-- Node6&#45;&gt;Node5 -->
<g id="edge4" class="edge"><title>Node6&#45;&gt;Node5</title>
<path fill="none" stroke="#404040" d="M734.72,-1434.77C689.282,-1421.07 577.77,-1386.97 485.5,-1355 467.883,-1348.9 448.738,-1341.84 431.733,-1335.42"/>
<polygon fill="none" stroke="#404040" points="431.565,-1335.36 424.536,-1336.97 420.346,-1331.1 427.375,-1329.49 431.565,-1335.36"/>
<text text-anchor="middle" x="619.5" y="-1387" font-family="Helvetica,sans-Serif" font-size="10.00"> #desc</text>
<text text-anchor="middle" x="619.5" y="-1376" font-family="Helvetica,sans-Serif" font-size="10.00">#name</text>
</g>
<!-- Node9 -->
<g id="node8" class="node"><title>Node9</title>
<g id="a_node8"><a xlink:href="class_character.html" target="_top" xlink:title="Base abstract class for Enemy and Player to inherit from. Defines all shared variables, their constructor and their setters and getters ">
<polygon fill="none" stroke="black" points="635,-277.5 635,-455.5 730,-455.5 730,-277.5 635,-277.5"/>
<text text-anchor="middle" x="682.5" y="-443.5" font-family="Helvetica,sans-Serif" font-size="10.00">Character</text>
<polyline fill="none" stroke="black" points="635,-436.5 730,-436.5 "/>
<text text-anchor="start" x="643" y="-424.5" font-family="Helvetica,sans-Serif" font-size="10.00">+ Name</text>
<text text-anchor="start" x="643" y="-413.5" font-family="Helvetica,sans-Serif" font-size="10.00">+ Level</text>
<text text-anchor="start" x="643" y="-402.5" font-family="Helvetica,sans-Serif" font-size="10.00">+ Health</text>
<text text-anchor="start" x="643" y="-391.5" font-family="Helvetica,sans-Serif" font-size="10.00">+ Attack</text>
<text text-anchor="start" x="643" y="-380.5" font-family="Helvetica,sans-Serif" font-size="10.00">+ Defence</text>
<text text-anchor="start" x="643" y="-369.5" font-family="Helvetica,sans-Serif" font-size="10.00">+ MaximumMagic</text>
<text text-anchor="start" x="643" y="-358.5" font-family="Helvetica,sans-Serif" font-size="10.00">+ Magic</text>
<text text-anchor="start" x="643" y="-347.5" font-family="Helvetica,sans-Serif" font-size="10.00">+ Luck</text>
<text text-anchor="start" x="643" y="-336.5" font-family="Helvetica,sans-Serif" font-size="10.00">+ Speed</text>
<text text-anchor="start" x="643" y="-325.5" font-family="Helvetica,sans-Serif" font-size="10.00">+ Special1</text>
<text text-anchor="start" x="643" y="-314.5" font-family="Helvetica,sans-Serif" font-size="10.00">+ Special2</text>
<text text-anchor="start" x="643" y="-303.5" font-family="Helvetica,sans-Serif" font-size="10.00">+ Image</text>
<polyline fill="none" stroke="black" points="635,-296.5 730,-296.5 "/>
<text text-anchor="start" x="643" y="-284.5" font-family="Helvetica,sans-Serif" font-size="10.00"># Character()</text>
</a>
</g>
</g>
<!-- Node6&#45;&gt;Node9 -->
<g id="edge9" class="edge"><title>Node6&#45;&gt;Node9</title>
<path fill="none" stroke="#404040" d="M776.304,-1437.56C825.807,-1428.07 946.5,-1396.65 946.5,-1316 946.5,-1316 946.5,-1316 946.5,-558.5 946.5,-458.012 819.395,-405.017 741.574,-381.988"/>
<polygon fill="none" stroke="#404040" points="741.54,-381.978 734.67,-384.172 730.003,-378.676 736.872,-376.481 741.54,-381.978"/>
<text text-anchor="middle" x="972" y="-965" font-family="Helvetica,sans-Serif" font-size="10.00"> #image_ref</text>
<text text-anchor="middle" x="972" y="-954" font-family="Helvetica,sans-Serif" font-size="10.00">#name</text>
</g>
<!-- Node11 -->
<g id="node10" class="node"><title>Node11</title>
<g id="a_node10"><a xlink:href="class_special_move.html" target="_top" xlink:title="Special move abstract base class that expands upon CharacterMove, adding magic properties ...">
<polygon fill="none" stroke="black" points="647.5,-514.5 647.5,-604.5 745.5,-604.5 745.5,-514.5 647.5,-514.5"/>
<text text-anchor="middle" x="696.5" y="-592.5" font-family="Helvetica,sans-Serif" font-size="10.00">SpecialMove</text>
<polyline fill="none" stroke="black" points="647.5,-585.5 745.5,-585.5 "/>
<text text-anchor="start" x="655.5" y="-573.5" font-family="Helvetica,sans-Serif" font-size="10.00">+ Magic</text>
<text text-anchor="start" x="655.5" y="-562.5" font-family="Helvetica,sans-Serif" font-size="10.00">+ Desc</text>
<polyline fill="none" stroke="black" points="647.5,-555.5 745.5,-555.5 "/>
<text text-anchor="start" x="655.5" y="-543.5" font-family="Helvetica,sans-Serif" font-size="10.00">+ setUp()</text>
<text text-anchor="start" x="655.5" y="-532.5" font-family="Helvetica,sans-Serif" font-size="10.00">+ decreaseMagic()</text>
<text text-anchor="start" x="655.5" y="-521.5" font-family="Helvetica,sans-Serif" font-size="10.00"># SpecialMove()</text>
</a>
</g>
</g>
<!-- Node6&#45;&gt;Node11 -->
<g id="edge24" class="edge"><title>Node6&#45;&gt;Node11</title>
<path fill="none" stroke="#404040" d="M776.366,-1424.88C785.721,-1416.76 796.256,-1406.26 803.5,-1395 834.905,-1346.18 834.286,-1220.49 834.5,-1217 845.034,-1045.34 843.814,-708.411 821.5,-663 820.476,-660.915 787.062,-633.559 755.042,-607.635"/>
<polygon fill="none" stroke="#404040" points="754.964,-607.571 747.783,-606.908 745.633,-600.025 752.814,-600.688 754.964,-607.571"/>
<text text-anchor="middle" x="855.5" y="-1078" font-family="Helvetica,sans-Serif" font-size="10.00"> #desc</text>
</g>
<!-- Node12 -->
<g id="node11" class="node"><title>Node12</title>
<g id="a_node11"><a xlink:href="class_character_move.html" target="_top" xlink:title="Astract base class for character moves ">
<polygon fill="none" stroke="black" points="726.5,-663.5 726.5,-742.5 812.5,-742.5 812.5,-663.5 726.5,-663.5"/>
<text text-anchor="middle" x="769.5" y="-730.5" font-family="Helvetica,sans-Serif" font-size="10.00">CharacterMove</text>
<polyline fill="none" stroke="black" points="726.5,-723.5 812.5,-723.5 "/>
<text text-anchor="start" x="734.5" y="-711.5" font-family="Helvetica,sans-Serif" font-size="10.00">+ User</text>
<text text-anchor="start" x="734.5" y="-700.5" font-family="Helvetica,sans-Serif" font-size="10.00">+ Target</text>
<text text-anchor="start" x="734.5" y="-689.5" font-family="Helvetica,sans-Serif" font-size="10.00">+ Text</text>
<polyline fill="none" stroke="black" points="726.5,-682.5 812.5,-682.5 "/>
<text text-anchor="start" x="734.5" y="-670.5" font-family="Helvetica,sans-Serif" font-size="10.00">+ performMove()</text>
</a>
</g>
</g>
<!-- Node6&#45;&gt;Node12 -->
<g id="edge13" class="edge"><title>Node6&#45;&gt;Node12</title>
<path fill="none" stroke="#404040" d="M773.551,-1413.46C787.873,-1388.93 805.5,-1351.53 805.5,-1316 805.5,-1316 805.5,-1316 805.5,-961 805.5,-888.633 791.328,-805.903 780.768,-754.303"/>
<polygon fill="none" stroke="#404040" points="780.759,-754.262 775.617,-749.206 778.307,-742.515 783.448,-747.571 780.759,-754.262"/>
<text text-anchor="middle" x="818" y="-1158" font-family="Helvetica,sans-Serif" font-size="10.00"> #text</text>
</g>
<!-- Node13 -->
<g id="node12" class="node"><title>Node13</title>
<g id="a_node12"><a xlink:href="class_battle_manager.html" target="_top" xlink:title="Holds current Player and Enemy objects in battle and provides functions for MainBattle and other obje...">
<polygon fill="none" stroke="black" points="542.5,-867.5 542.5,-1056.5 658.5,-1056.5 658.5,-867.5 542.5,-867.5"/>
<text text-anchor="middle" x="600.5" y="-1044.5" font-family="Helvetica,sans-Serif" font-size="10.00">BattleManager</text>
<polyline fill="none" stroke="black" points="542.5,-1037.5 658.5,-1037.5 "/>
<text text-anchor="start" x="550.5" y="-1025.5" font-family="Helvetica,sans-Serif" font-size="10.00">+ Player</text>
<text text-anchor="start" x="550.5" y="-1014.5" font-family="Helvetica,sans-Serif" font-size="10.00">+ Enemy</text>
<text text-anchor="start" x="550.5" y="-1003.5" font-family="Helvetica,sans-Serif" font-size="10.00">+ WasCriticalHit</text>
<polyline fill="none" stroke="black" points="542.5,-996.5 658.5,-996.5 "/>
<text text-anchor="start" x="550.5" y="-984.5" font-family="Helvetica,sans-Serif" font-size="10.00">+ BattleManager()</text>
<text text-anchor="start" x="550.5" y="-973.5" font-family="Helvetica,sans-Serif" font-size="10.00">+ playerFirst()</text>
<text text-anchor="start" x="550.5" y="-962.5" font-family="Helvetica,sans-Serif" font-size="10.00">+ switchPlayers()</text>
<text text-anchor="start" x="550.5" y="-951.5" font-family="Helvetica,sans-Serif" font-size="10.00">+ isCriticalHit()</text>
<text text-anchor="start" x="550.5" y="-940.5" font-family="Helvetica,sans-Serif" font-size="10.00">+ ranAway()</text>
<text text-anchor="start" x="550.5" y="-929.5" font-family="Helvetica,sans-Serif" font-size="10.00">+ damageCalculation()</text>
<text text-anchor="start" x="550.5" y="-918.5" font-family="Helvetica,sans-Serif" font-size="10.00">+ enemyMove()</text>
<text text-anchor="start" x="550.5" y="-907.5" font-family="Helvetica,sans-Serif" font-size="10.00">+ enemySpecialMove()</text>
<text text-anchor="start" x="550.5" y="-896.5" font-family="Helvetica,sans-Serif" font-size="10.00">+ battleWon()</text>
<text text-anchor="start" x="550.5" y="-885.5" font-family="Helvetica,sans-Serif" font-size="10.00">+ playerFainted()</text>
<text text-anchor="start" x="550.5" y="-874.5" font-family="Helvetica,sans-Serif" font-size="10.00">&#45; characterFainted()</text>
</a>
</g>
</g>
<!-- Node6&#45;&gt;Node13 -->
<g id="edge16" class="edge"><title>Node6&#45;&gt;Node13</title>
<path fill="none" stroke="#404040" d="M746.789,-1413.44C728.568,-1355.89 685.011,-1218.75 647.5,-1104 643.703,-1092.38 639.702,-1080.24 635.702,-1068.16"/>
<polygon fill="none" stroke="#404040" points="635.652,-1068.01 629.967,-1063.57 631.875,-1056.62 637.56,-1061.05 635.652,-1068.01"/>
<text text-anchor="middle" x="739.5" y="-1249" font-family="Helvetica,sans-Serif" font-size="10.00"> +forceEnemyMove</text>
<text text-anchor="middle" x="739.5" y="-1238" font-family="Helvetica,sans-Serif" font-size="10.00">+forceCriticalHits</text>
</g>
<!-- Node7 -->
<g id="node6" class="node"><title>Node7</title>
<polygon fill="none" stroke="#bfbfbf" points="880,-177 880,-234 951,-234 951,-177 880,-177"/>
<text text-anchor="middle" x="915.5" y="-222" font-family="Helvetica,sans-Serif" font-size="10.00">GameObject</text>
<polyline fill="none" stroke="#bfbfbf" points="880,-215 951,-215 "/>
<text text-anchor="middle" x="915.5" y="-203" font-family="Helvetica,sans-Serif" font-size="10.00"> </text>
<polyline fill="none" stroke="#bfbfbf" points="880,-196 951,-196 "/>
<text text-anchor="middle" x="915.5" y="-184" font-family="Helvetica,sans-Serif" font-size="10.00"> </text>
</g>
<!-- Node7&#45;&gt;Node2 -->
<g id="edge6" class="edge"><title>Node7&#45;&gt;Node2</title>
<path fill="none" stroke="#404040" d="M899.954,-176.745C891.431,-164.122 879.698,-150.202 865.5,-142 787.745,-97.0826 521.516,-74.4147 404.47,-66.4287"/>
<polygon fill="none" stroke="#404040" points="404.259,-66.4147 398.005,-70.0054 392.286,-65.6139 398.539,-62.0232 404.259,-66.4147"/>
<text text-anchor="middle" x="897.5" y="-145" font-family="Helvetica,sans-Serif" font-size="10.00"> +player</text>
</g>
<!-- Node8 -->
<g id="node7" class="node"><title>Node8</title>
<g id="a_node7"><a xlink:href="class_enemy.html" target="_top" xlink:title="Defines an AI controller enemy to fight in battle scenes">
<polygon fill="none" stroke="black" points="474,-177 474,-234 541,-234 541,-177 474,-177"/>
<text text-anchor="middle" x="507.5" y="-222" font-family="Helvetica,sans-Serif" font-size="10.00">Enemy</text>
<polyline fill="none" stroke="black" points="474,-215 541,-215 "/>
<text text-anchor="start" x="482" y="-203" font-family="Helvetica,sans-Serif" font-size="10.00">+ ExpGiven</text>
<polyline fill="none" stroke="black" points="474,-196 541,-196 "/>
<text text-anchor="start" x="482" y="-184" font-family="Helvetica,sans-Serif" font-size="10.00">+ Enemy()</text>
</a>
</g>
</g>
<!-- Node8&#45;&gt;Node2 -->
<g id="edge7" class="edge"><title>Node8&#45;&gt;Node2</title>
<path fill="none" stroke="#404040" d="M476.466,-176.881C455.055,-157.828 426.061,-132.025 401.085,-109.798"/>
<polygon fill="none" stroke="#404040" points="401.051,-109.767 393.91,-108.767 392.087,-101.79 399.228,-102.79 401.051,-109.767"/>
<text text-anchor="middle" x="465.5" y="-145" font-family="Helvetica,sans-Serif" font-size="10.00"> &#45;enemy</text>
</g>
<!-- Node8&#45;&gt;Node13 -->
<g id="edge17" class="edge"><title>Node8&#45;&gt;Node13</title>
<path fill="none" stroke="#404040" d="M512.149,-234.107C525.597,-314.894 564.955,-557.937 586.5,-761 589.742,-791.557 592.413,-824.823 594.521,-855.295"/>
<polygon fill="none" stroke="#404040" points="594.521,-855.297 598.917,-861.014 595.331,-867.27 590.935,-861.554 594.521,-855.297"/>
<text text-anchor="middle" x="586.5" y="-557" font-family="Helvetica,sans-Serif" font-size="10.00"> &#45;enemy</text>
</g>
<!-- Node9&#45;&gt;Node8 -->
<g id="edge8" class="edge"><title>Node9&#45;&gt;Node8</title>
<path fill="none" stroke="midnightblue" d="M628.492,-279.526C621.914,-271.795 614.887,-264.461 607.5,-258 587.95,-240.901 561.722,-227.669 541.032,-218.9"/>
<polygon fill="none" stroke="midnightblue" points="625.873,-281.852 634.917,-287.371 631.288,-277.417 625.873,-281.852"/>
</g>
<!-- Node9&#45;&gt;Node12 -->
<g id="edge14" class="edge"><title>Node9&#45;&gt;Node12</title>
<path fill="none" stroke="#404040" d="M730.134,-449.862C734.183,-457.918 738.045,-466.052 741.5,-474 766.312,-531.076 771.278,-603.291 771.374,-650.978"/>
<polygon fill="none" stroke="#404040" points="771.373,-651.147 775.334,-657.173 771.294,-663.146 767.334,-657.12 771.373,-651.147"/>
<text text-anchor="middle" x="787.5" y="-562.5" font-family="Helvetica,sans-Serif" font-size="10.00"> #target</text>
<text text-anchor="middle" x="787.5" y="-551.5" font-family="Helvetica,sans-Serif" font-size="10.00">#user</text>
</g>
<!-- Node9&#45;&gt;Node15 -->
<g id="edge21" class="edge"><title>Node9&#45;&gt;Node15</title>
<path fill="none" stroke="midnightblue" d="M625.49,-387.025C584.132,-403.952 529.814,-432.349 496.5,-474 471.957,-504.685 470.5,-519.207 470.5,-558.5 470.5,-963 470.5,-963 470.5,-963 470.5,-1010.76 470.5,-1065.05 470.5,-1104.44"/>
<polygon fill="none" stroke="midnightblue" points="626.907,-390.228 634.903,-383.277 624.318,-383.724 626.907,-390.228"/>
</g>
<!-- Node10 -->
<g id="node9" class="node"><title>Node10</title>
<polygon fill="none" stroke="#bfbfbf" points="495,-1286.5 495,-1343.5 524,-1343.5 524,-1286.5 495,-1286.5"/>
<text text-anchor="middle" x="509.5" y="-1331.5" font-family="Helvetica,sans-Serif" font-size="10.00">int</text>
<polyline fill="none" stroke="#bfbfbf" points="495,-1324.5 524,-1324.5 "/>
<text text-anchor="middle" x="509.5" y="-1312.5" font-family="Helvetica,sans-Serif" font-size="10.00"> </text>
<polyline fill="none" stroke="#bfbfbf" points="495,-1305.5 524,-1305.5 "/>
<text text-anchor="middle" x="509.5" y="-1293.5" font-family="Helvetica,sans-Serif" font-size="10.00"> </text>
</g>
<!-- Node10&#45;&gt;Node2 -->
<g id="edge28" class="edge"><title>Node10&#45;&gt;Node2</title>
<path fill="none" stroke="#404040" d="M494.928,-1308.49C455.297,-1292.45 348.5,-1241.77 348.5,-1161.5 348.5,-1161.5 348.5,-1161.5 348.5,-204.5 348.5,-182.114 348.5,-157.736 348.5,-135.621"/>
<polygon fill="none" stroke="#404040" points="348.5,-135.595 344.5,-129.595 348.5,-123.595 352.5,-129.595 348.5,-135.595"/>
<text text-anchor="middle" x="379" y="-637" font-family="Helvetica,sans-Serif" font-size="10.00"> +currentLevel</text>
<text text-anchor="middle" x="379" y="-626" font-family="Helvetica,sans-Serif" font-size="10.00">&#45;money</text>
</g>
<!-- Node10&#45;&gt;Node8 -->
<g id="edge26" class="edge"><title>Node10&#45;&gt;Node8</title>
<path fill="none" stroke="#404040" d="M494.919,-1305.89C470.916,-1291.58 423.908,-1259.34 405.5,-1217 385.476,-1170.94 405.215,-1154.22 405.5,-1104 406.611,-907.991 388.913,-857.82 410.5,-663 427.842,-506.488 474.76,-324.508 496.351,-245.939"/>
<polygon fill="none" stroke="#404040" points="496.389,-245.802 494.135,-238.952 499.591,-234.237 501.845,-241.086 496.389,-245.802"/>
<text text-anchor="middle" x="433.5" y="-700.5" font-family="Helvetica,sans-Serif" font-size="10.00"> &#45;expGiven</text>
</g>
<!-- Node10&#45;&gt;Node9 -->
<g id="edge10" class="edge"><title>Node10&#45;&gt;Node9</title>
<path fill="none" stroke="#404040" d="M524.12,-1293.13C530.497,-1282.78 537.251,-1269.77 540.5,-1257 547.611,-1229.04 589.822,-1379.08 539.5,-1075 538.123,-1066.68 535.365,-1065.22 533.5,-1057 512.891,-966.144 513.289,-941.984 507.5,-849 498.169,-699.123 485.784,-649.025 551.5,-514 569.409,-477.203 599.292,-442.728 625.999,-416.476"/>
<polygon fill="none" stroke="#404040" points="626.266,-416.219 627.815,-409.176 634.912,-407.897 633.363,-414.94 626.266,-416.219"/>
<text text-anchor="middle" x="545" y="-841" font-family="Helvetica,sans-Serif" font-size="10.00"> #speed</text>
<text text-anchor="middle" x="545" y="-830" font-family="Helvetica,sans-Serif" font-size="10.00">#luck</text>
<text text-anchor="middle" x="545" y="-819" font-family="Helvetica,sans-Serif" font-size="10.00">#health</text>
<text text-anchor="middle" x="545" y="-808" font-family="Helvetica,sans-Serif" font-size="10.00">#magic</text>
<text text-anchor="middle" x="545" y="-797" font-family="Helvetica,sans-Serif" font-size="10.00">#maximumMagic</text>
<text text-anchor="middle" x="545" y="-786" font-family="Helvetica,sans-Serif" font-size="10.00">#attack</text>
<text text-anchor="middle" x="545" y="-775" font-family="Helvetica,sans-Serif" font-size="10.00">#defence</text>
<text text-anchor="middle" x="545" y="-764" font-family="Helvetica,sans-Serif" font-size="10.00">#level</text>
</g>
<!-- Node10&#45;&gt;Node11 -->
<g id="edge25" class="edge"><title>Node10&#45;&gt;Node11</title>
<path fill="none" stroke="#404040" d="M524.261,-1308.44C553.409,-1296.61 618.079,-1265.94 647.5,-1217 707.802,-1116.68 702.978,-756.652 698.638,-616.701"/>
<polygon fill="none" stroke="#404040" points="698.637,-616.638 694.445,-610.771 698.249,-604.644 702.441,-610.512 698.637,-616.638"/>
<text text-anchor="middle" x="718" y="-959.5" font-family="Helvetica,sans-Serif" font-size="10.00"> #magic</text>
</g>
<!-- Node10&#45;&gt;Node13 -->
<g id="edge18" class="edge"><title>Node10&#45;&gt;Node13</title>
<path fill="none" stroke="#404040" d="M524.202,-1304.41C538.191,-1294.4 558.537,-1277.34 568.5,-1257 596.916,-1199 605.131,-1127 606.138,-1068.78"/>
<polygon fill="none" stroke="#404040" points="606.14,-1068.57 602.194,-1062.53 606.248,-1056.57 610.194,-1062.61 606.14,-1068.57"/>
<text text-anchor="middle" x="624" y="-1158" font-family="Helvetica,sans-Serif" font-size="10.00"> +money</text>
</g>
<!-- Node10&#45;&gt;Node15 -->
<g id="edge23" class="edge"><title>Node10&#45;&gt;Node15</title>
<path fill="none" stroke="#404040" d="M494.94,-1300.6C484.507,-1289.94 471.311,-1274.04 465.5,-1257 462.448,-1248.05 461.001,-1238.36 460.596,-1228.69"/>
<polygon fill="none" stroke="#404040" points="460.596,-1228.52 456.598,-1222.52 460.599,-1216.52 464.598,-1222.53 460.596,-1228.52"/>
<text text-anchor="middle" x="503" y="-1249" font-family="Helvetica,sans-Serif" font-size="10.00"> &#45;expToNextLevel</text>
<text text-anchor="middle" x="503" y="-1238" font-family="Helvetica,sans-Serif" font-size="10.00">&#45;exp</text>
</g>
<!-- Node11&#45;&gt;Node9 -->
<g id="edge11" class="edge"><title>Node11&#45;&gt;Node9</title>
<path fill="none" stroke="#404040" d="M693.253,-514.201C692.229,-500.238 691.054,-484.202 689.865,-467.973"/>
<polygon fill="none" stroke="#404040" points="689.832,-467.525 685.404,-461.834 688.954,-455.557 693.382,-461.249 689.832,-467.525"/>
<text text-anchor="middle" x="715" y="-488" font-family="Helvetica,sans-Serif" font-size="10.00"> #special1</text>
<text text-anchor="middle" x="715" y="-477" font-family="Helvetica,sans-Serif" font-size="10.00">#special2</text>
</g>
<!-- Node12&#45;&gt;Node11 -->
<g id="edge12" class="edge"><title>Node12&#45;&gt;Node11</title>
<path fill="none" stroke="midnightblue" d="M744.806,-654.133C736.54,-638.113 727.37,-620.338 719.26,-604.617"/>
<polygon fill="none" stroke="midnightblue" points="741.857,-656.052 749.552,-663.335 748.078,-652.843 741.857,-656.052"/>
</g>
<!-- Node13&#45;&gt;Node12 -->
<g id="edge15" class="edge"><title>Node13&#45;&gt;Node12</title>
<path fill="none" stroke="#404040" d="M658.66,-872.555C685.051,-832.422 715.251,-786.496 737.456,-752.729"/>
<polygon fill="none" stroke="#404040" points="737.484,-752.687 737.439,-745.476 744.078,-742.66 744.123,-749.871 737.484,-752.687"/>
<text text-anchor="middle" x="752.5" y="-802.5" font-family="Helvetica,sans-Serif" font-size="10.00"> #manager</text>
</g>
<!-- Node14 -->
<g id="node13" class="node"><title>Node14</title>
<polygon fill="none" stroke="#bfbfbf" points="734,-1132 734,-1189 769,-1189 769,-1132 734,-1132"/>
<text text-anchor="middle" x="751.5" y="-1177" font-family="Helvetica,sans-Serif" font-size="10.00">bool</text>
<polyline fill="none" stroke="#bfbfbf" points="734,-1170 769,-1170 "/>
<text text-anchor="middle" x="751.5" y="-1158" font-family="Helvetica,sans-Serif" font-size="10.00"> </text>
<polyline fill="none" stroke="#bfbfbf" points="734,-1151 769,-1151 "/>
<text text-anchor="middle" x="751.5" y="-1139" font-family="Helvetica,sans-Serif" font-size="10.00"> </text>
</g>
<!-- Node14&#45;&gt;Node2 -->
<g id="edge29" class="edge"><title>Node14&#45;&gt;Node2</title>
<path fill="none" stroke="#404040" d="M761.712,-1131.74C766.781,-1121.56 773.915,-1110.86 783.5,-1104 817.018,-1079.99 848.328,-1117.86 874.5,-1086 959.203,-982.901 851.5,-619.431 851.5,-486 851.5,-486 851.5,-486 851.5,-204.5 851.5,-112.445 535.36,-77.4155 404.342,-66.8512"/>
<polygon fill="none" stroke="#404040" points="404.221,-66.8418 397.927,-70.3607 392.258,-65.9041 398.552,-62.3852 404.221,-66.8418"/>
<text text-anchor="middle" x="898" y="-557" font-family="Helvetica,sans-Serif" font-size="10.00"> +canRunAway</text>
</g>
<!-- Node14&#45;&gt;Node13 -->
<g id="edge19" class="edge"><title>Node14&#45;&gt;Node13</title>
<path fill="none" stroke="#404040" d="M737.399,-1131.77C732.249,-1122.6 726.065,-1112.56 719.5,-1104 701.523,-1080.56 691.968,-1079.22 672.5,-1057 670.485,-1054.7 668.461,-1052.35 666.436,-1049.96"/>
<polygon fill="none" stroke="#404040" points="666.319,-1049.82 659.405,-1047.78 658.636,-1040.61 665.55,-1042.65 666.319,-1049.82"/>
<text text-anchor="middle" x="736.5" y="-1078" font-family="Helvetica,sans-Serif" font-size="10.00"> &#45;wasCriticalHit</text>
</g>
<!-- Node15&#45;&gt;Node13 -->
<g id="edge20" class="edge"><title>Node15&#45;&gt;Node13</title>
<path fill="none" stroke="#404040" d="M507.058,-1104.24C515.967,-1090.78 525.763,-1075.97 535.558,-1061.16"/>
<polygon fill="none" stroke="#404040" points="535.707,-1060.94 535.681,-1053.73 542.328,-1050.93 542.353,-1058.14 535.707,-1060.94"/>
<text text-anchor="middle" x="541" y="-1078" font-family="Helvetica,sans-Serif" font-size="10.00"> &#45;player</text>
</g>
<!-- Node16 -->
<g id="node15" class="node"><title>Node16</title>
<polygon fill="none" stroke="#bfbfbf" points="969.5,-171.5 969.5,-239.5 1067.5,-239.5 1067.5,-171.5 969.5,-171.5"/>
<text text-anchor="start" x="977.5" y="-227.5" font-family="Helvetica,sans-Serif" font-size="10.00">IDictionary&lt; string,</text>
<text text-anchor="middle" x="1018.5" y="-216.5" font-family="Helvetica,sans-Serif" font-size="10.00"> bool &gt;</text>
<polyline fill="none" stroke="#bfbfbf" points="969.5,-209.5 1067.5,-209.5 "/>
<text text-anchor="middle" x="1018.5" y="-197.5" font-family="Helvetica,sans-Serif" font-size="10.00"> </text>
<polyline fill="none" stroke="#bfbfbf" points="969.5,-190.5 1067.5,-190.5 "/>
<text text-anchor="middle" x="1018.5" y="-178.5" font-family="Helvetica,sans-Serif" font-size="10.00"> </text>
</g>
<!-- Node16&#45;&gt;Node2 -->
<g id="edge30" class="edge"><title>Node16&#45;&gt;Node2</title>
<path fill="none" stroke="#404040" d="M974.777,-171.257C958.26,-160.26 938.783,-149.045 919.5,-142 739.298,-76.1593 508.779,-64.6269 404.357,-62.9872"/>
<polygon fill="none" stroke="#404040" points="404.259,-62.986 398.208,-66.9093 392.26,-62.8333 398.31,-58.91 404.259,-62.986"/>
<text text-anchor="middle" x="977" y="-145" font-family="Helvetica,sans-Serif" font-size="10.00"> +objectsActive</text>
</g>
</g>
</svg>
