<?xml version="1.0" encoding="UTF-8" standalone="no"?>
<!DOCTYPE svg PUBLIC "-//W3C//DTD SVG 1.1//EN"
 "http://www.w3.org/Graphics/SVG/1.1/DTD/svg11.dtd">
<!-- Generated by graphviz version 2.38.0 (20140413.2041)
 -->
<!-- Title: PlayerCollison Pages: 1 -->
<svg width="240pt" height="287pt"
 viewBox="0.00 0.00 239.50 287.00" xmlns="http://www.w3.org/2000/svg" xmlns:xlink="http://www.w3.org/1999/xlink">
<g id="graph0" class="graph" transform="scale(1 1) rotate(0) translate(4 283)">
<title>PlayerCollison</title>
<!-- Node2 -->
<g id="node1" class="node"><title>Node2</title>
<polygon fill="#bfbfbf" stroke="black" points="25.5,-0.5 25.5,-57.5 131.5,-57.5 131.5,-0.5 25.5,-0.5"/>
<text text-anchor="middle" x="78.5" y="-45.5" font-family="Helvetica,sans-Serif" font-size="10.00">PlayerCollison</text>
<polyline fill="none" stroke="black" points="25.5,-38.5 131.5,-38.5 "/>
<text text-anchor="middle" x="78.5" y="-26.5" font-family="Helvetica,sans-Serif" font-size="10.00"> </text>
<polyline fill="none" stroke="black" points="25.5,-19.5 131.5,-19.5 "/>
<text text-anchor="start" x="33.5" y="-7.5" font-family="Helvetica,sans-Serif" font-size="10.00">&#45; OnTriggerEnter2D()</text>
</g>
<!-- Node3 -->
<g id="node2" class="node"><title>Node3</title>
<g id="a_node2"><a xlink:href="class_mono_behaviour.html" target="_top" xlink:title="{MonoBehaviour\n||}">
<polygon fill="none" stroke="black" points="0,-221.5 0,-278.5 83,-278.5 83,-221.5 0,-221.5"/>
<text text-anchor="middle" x="41.5" y="-266.5" font-family="Helvetica,sans-Serif" font-size="10.00">MonoBehaviour</text>
<polyline fill="none" stroke="black" points="0,-259.5 83,-259.5 "/>
<text text-anchor="middle" x="41.5" y="-247.5" font-family="Helvetica,sans-Serif" font-size="10.00"> </text>
<polyline fill="none" stroke="black" points="0,-240.5 83,-240.5 "/>
<text text-anchor="middle" x="41.5" y="-228.5" font-family="Helvetica,sans-Serif" font-size="10.00"> </text>
</a>
</g>
</g>
<!-- Node3&#45;&gt;Node2 -->
<g id="edge1" class="edge"><title>Node3&#45;&gt;Node2</title>
<path fill="none" stroke="midnightblue" d="M47.8703,-211.295C55.2653,-167.524 67.2841,-96.3862 73.852,-57.5113"/>
<polygon fill="none" stroke="midnightblue" points="44.401,-210.82 46.1861,-221.263 51.3031,-211.986 44.401,-210.82"/>
</g>
<!-- Node4 -->
<g id="node3" class="node"><title>Node4</title>
<g id="a_node3"><a xlink:href="class_player_controller.html" target="_top" xlink:title="A controller for player movement of main player within the mini game ">
<polygon fill="none" stroke="black" points="81.5,-105.5 81.5,-173.5 167.5,-173.5 167.5,-105.5 81.5,-105.5"/>
<text text-anchor="middle" x="124.5" y="-161.5" font-family="Helvetica,sans-Serif" font-size="10.00">PlayerController</text>
<polyline fill="none" stroke="black" points="81.5,-154.5 167.5,-154.5 "/>
<text text-anchor="middle" x="124.5" y="-142.5" font-family="Helvetica,sans-Serif" font-size="10.00"> </text>
<polyline fill="none" stroke="black" points="81.5,-135.5 167.5,-135.5 "/>
<text text-anchor="start" x="89.5" y="-123.5" font-family="Helvetica,sans-Serif" font-size="10.00">&#45; Start()</text>
<text text-anchor="start" x="89.5" y="-112.5" font-family="Helvetica,sans-Serif" font-size="10.00">&#45; Update()</text>
</a>
</g>
</g>
<!-- Node3&#45;&gt;Node4 -->
<g id="edge3" class="edge"><title>Node3&#45;&gt;Node4</title>
<path fill="none" stroke="midnightblue" d="M68.8906,-213.194C78.6744,-200.405 89.6458,-186.062 99.2416,-173.519"/>
<polygon fill="none" stroke="midnightblue" points="65.9552,-211.271 62.6592,-221.34 71.515,-215.524 65.9552,-211.271"/>
</g>
<!-- Node4&#45;&gt;Node2 -->
<g id="edge2" class="edge"><title>Node4&#45;&gt;Node2</title>
<path fill="none" stroke="#404040" d="M110.449,-105.357C105.613,-93.9523 100.153,-81.0733 95.1325,-69.2309"/>
<polygon fill="none" stroke="#404040" points="94.9816,-68.8751 88.9569,-64.9123 90.2976,-57.827 96.3223,-61.7897 94.9816,-68.8751"/>
<text text-anchor="middle" x="128.5" y="-79" font-family="Helvetica,sans-Serif" font-size="10.00"> +movement</text>
</g>
<!-- Node5 -->
<g id="node4" class="node"><title>Node5</title>
<polygon fill="none" stroke="#bfbfbf" points="101.5,-221.5 101.5,-278.5 157.5,-278.5 157.5,-221.5 101.5,-221.5"/>
<text text-anchor="middle" x="129.5" y="-266.5" font-family="Helvetica,sans-Serif" font-size="10.00">Animator</text>
<polyline fill="none" stroke="#bfbfbf" points="101.5,-259.5 157.5,-259.5 "/>
<text text-anchor="middle" x="129.5" y="-247.5" font-family="Helvetica,sans-Serif" font-size="10.00"> </text>
<polyline fill="none" stroke="#bfbfbf" points="101.5,-240.5 157.5,-240.5 "/>
<text text-anchor="middle" x="129.5" y="-228.5" font-family="Helvetica,sans-Serif" font-size="10.00"> </text>
</g>
<!-- Node5&#45;&gt;Node4 -->
<g id="edge4" class="edge"><title>Node5&#45;&gt;Node4</title>
<path fill="none" stroke="#404040" d="M128.225,-221.34C127.727,-210.529 127.143,-197.847 126.586,-185.775"/>
<polygon fill="none" stroke="#404040" points="126.574,-185.506 122.302,-179.696 126.022,-173.519 130.294,-179.328 126.574,-185.506"/>
<text text-anchor="middle" x="144" y="-195" font-family="Helvetica,sans-Serif" font-size="10.00"> &#45;_anim</text>
</g>
<!-- Node6 -->
<g id="node5" class="node"><title>Node6</title>
<polygon fill="none" stroke="#bfbfbf" points="176,-221.5 176,-278.5 211,-278.5 211,-221.5 176,-221.5"/>
<text text-anchor="middle" x="193.5" y="-266.5" font-family="Helvetica,sans-Serif" font-size="10.00">float</text>
<polyline fill="none" stroke="#bfbfbf" points="176,-259.5 211,-259.5 "/>
<text text-anchor="middle" x="193.5" y="-247.5" font-family="Helvetica,sans-Serif" font-size="10.00"> </text>
<polyline fill="none" stroke="#bfbfbf" points="176,-240.5 211,-240.5 "/>
<text text-anchor="middle" x="193.5" y="-228.5" font-family="Helvetica,sans-Serif" font-size="10.00"> </text>
</g>
<!-- Node6&#45;&gt;Node4 -->
<g id="edge5" class="edge"><title>Node6&#45;&gt;Node4</title>
<path fill="none" stroke="#404040" d="M180.802,-221.452C176.061,-211.908 170.39,-201.281 164.5,-192 162.741,-189.228 160.867,-186.423 158.927,-183.629"/>
<polygon fill="none" stroke="#404040" points="158.729,-183.355 151.972,-180.836 151.698,-173.63 158.455,-176.149 158.729,-183.355"/>
<text text-anchor="middle" x="201.5" y="-195" font-family="Helvetica,sans-Serif" font-size="10.00"> +MoveSpeed</text>
</g>
</g>
</svg>
