<?xml version="1.0" encoding="UTF-8" standalone="no"?>
<!DOCTYPE svg PUBLIC "-//W3C//DTD SVG 1.1//EN"
 "http://www.w3.org/Graphics/SVG/1.1/DTD/svg11.dtd">
<!-- Generated by graphviz version 2.38.0 (20140413.2041)
 -->
<!-- Title: DataManager.StoredData.LocationData Pages: 1 -->
<svg width="265pt" height="182pt"
 viewBox="0.00 0.00 264.50 182.00" xmlns="http://www.w3.org/2000/svg" xmlns:xlink="http://www.w3.org/1999/xlink">
<g id="graph0" class="graph" transform="scale(1 1) rotate(0) translate(4 178)">
<title>DataManager.StoredData.LocationData</title>
<!-- Node1 -->
<g id="node1" class="node"><title>Node1</title>
<polygon fill="#bfbfbf" stroke="black" points="11.5,-0.5 11.5,-57.5 197.5,-57.5 197.5,-0.5 11.5,-0.5"/>
<text text-anchor="middle" x="104.5" y="-45.5" font-family="Helvetica,sans-Serif" font-size="10.00">DataManager.StoredData.LocationData</text>
<polyline fill="none" stroke="black" points="11.5,-38.5 197.5,-38.5 "/>
<text text-anchor="middle" x="104.5" y="-26.5" font-family="Helvetica,sans-Serif" font-size="10.00"> </text>
<polyline fill="none" stroke="black" points="11.5,-19.5 197.5,-19.5 "/>
<text text-anchor="middle" x="104.5" y="-7.5" font-family="Helvetica,sans-Serif" font-size="10.00"> </text>
</g>
<!-- Node2 -->
<g id="node2" class="node"><title>Node2</title>
<polygon fill="none" stroke="#bfbfbf" points="0,-116.5 0,-173.5 41,-173.5 41,-116.5 0,-116.5"/>
<text text-anchor="middle" x="20.5" y="-161.5" font-family="Helvetica,sans-Serif" font-size="10.00">string</text>
<polyline fill="none" stroke="#bfbfbf" points="0,-154.5 41,-154.5 "/>
<text text-anchor="middle" x="20.5" y="-142.5" font-family="Helvetica,sans-Serif" font-size="10.00"> </text>
<polyline fill="none" stroke="#bfbfbf" points="0,-135.5 41,-135.5 "/>
<text text-anchor="middle" x="20.5" y="-123.5" font-family="Helvetica,sans-Serif" font-size="10.00"> </text>
</g>
<!-- Node2&#45;&gt;Node1 -->
<g id="edge1" class="edge"><title>Node2&#45;&gt;Node1</title>
<path fill="none" stroke="#404040" d="M23.8494,-116.332C26.4827,-103.196 31.1702,-87.8248 39.5,-76 41.9631,-72.5034 44.7802,-69.1802 47.8297,-66.0394"/>
<polygon fill="none" stroke="#404040" points="48.0978,-65.7933 49.8133,-58.7892 56.9384,-57.6788 55.2229,-64.6829 48.0978,-65.7933"/>
<text text-anchor="middle" x="70" y="-84.5" font-family="Helvetica,sans-Serif" font-size="10.00"> +sceneName</text>
</g>
<!-- Node3 -->
<g id="node3" class="node"><title>Node3</title>
<polygon fill="none" stroke="#bfbfbf" points="87,-116.5 87,-173.5 122,-173.5 122,-116.5 87,-116.5"/>
<text text-anchor="middle" x="104.5" y="-161.5" font-family="Helvetica,sans-Serif" font-size="10.00">float</text>
<polyline fill="none" stroke="#bfbfbf" points="87,-154.5 122,-154.5 "/>
<text text-anchor="middle" x="104.5" y="-142.5" font-family="Helvetica,sans-Serif" font-size="10.00"> </text>
<polyline fill="none" stroke="#bfbfbf" points="87,-135.5 122,-135.5 "/>
<text text-anchor="middle" x="104.5" y="-123.5" font-family="Helvetica,sans-Serif" font-size="10.00"> </text>
</g>
<!-- Node3&#45;&gt;Node1 -->
<g id="edge2" class="edge"><title>Node3&#45;&gt;Node1</title>
<path fill="none" stroke="#404040" d="M104.5,-116.404C104.5,-102.504 104.5,-85.3915 104.5,-70.073"/>
<polygon fill="none" stroke="#404040" points="104.5,-69.7372 100.5,-63.7372 104.5,-57.7372 108.5,-63.7372 104.5,-69.7372"/>
<text text-anchor="middle" x="143.5" y="-90" font-family="Helvetica,sans-Serif" font-size="10.00"> +playerLocationX</text>
<text text-anchor="middle" x="143.5" y="-79" font-family="Helvetica,sans-Serif" font-size="10.00">+playerLocationY</text>
</g>
<!-- Node4 -->
<g id="node4" class="node"><title>Node4</title>
<polygon fill="none" stroke="#bfbfbf" points="191,-116.5 191,-173.5 220,-173.5 220,-116.5 191,-116.5"/>
<text text-anchor="middle" x="205.5" y="-161.5" font-family="Helvetica,sans-Serif" font-size="10.00">int</text>
<polyline fill="none" stroke="#bfbfbf" points="191,-154.5 220,-154.5 "/>
<text text-anchor="middle" x="205.5" y="-142.5" font-family="Helvetica,sans-Serif" font-size="10.00"> </text>
<polyline fill="none" stroke="#bfbfbf" points="191,-135.5 220,-135.5 "/>
<text text-anchor="middle" x="205.5" y="-123.5" font-family="Helvetica,sans-Serif" font-size="10.00"> </text>
</g>
<!-- Node4&#45;&gt;Node1 -->
<g id="edge3" class="edge"><title>Node4&#45;&gt;Node1</title>
<path fill="none" stroke="#404040" d="M201.301,-116.299C198.169,-103 192.764,-87.4979 183.5,-76 180.451,-72.2151 177,-68.6775 173.288,-65.3822"/>
<polygon fill="none" stroke="#404040" points="172.998,-65.1519 165.812,-64.5513 163.603,-57.687 170.789,-58.2876 172.998,-65.1519"/>
<text text-anchor="middle" x="226" y="-84.5" font-family="Helvetica,sans-Serif" font-size="10.00"> +currentLevel</text>
</g>
</g>
</svg>
