<?xml version="1.0" encoding="UTF-8" standalone="no"?>
<!DOCTYPE svg PUBLIC "-//W3C//DTD SVG 1.1//EN"
 "http://www.w3.org/Graphics/SVG/1.1/DTD/svg11.dtd">
<!-- Generated by graphviz version 2.38.0 (20140413.2041)
 -->
<!-- Title: Item Pages: 1 -->
<svg width="574pt" height="248pt"
 viewBox="0.00 0.00 574.00 248.00" xmlns="http://www.w3.org/2000/svg" xmlns:xlink="http://www.w3.org/1999/xlink">
<g id="graph0" class="graph" transform="scale(1 1) rotate(0) translate(4 244)">
<title>Item</title>
<!-- Node0 -->
<g id="node1" class="node"><title>Node0</title>
<polygon fill="#bfbfbf" stroke="black" points="247,-116.5 247,-239.5 324,-239.5 324,-116.5 247,-116.5"/>
<text text-anchor="middle" x="285.5" y="-227.5" font-family="Helvetica,sans-Serif" font-size="10.00">Item</text>
<polyline fill="none" stroke="black" points="247,-220.5 324,-220.5 "/>
<text text-anchor="start" x="255" y="-208.5" font-family="Helvetica,sans-Serif" font-size="10.00">+ Name</text>
<text text-anchor="start" x="255" y="-197.5" font-family="Helvetica,sans-Serif" font-size="10.00">+ Desc</text>
<text text-anchor="start" x="255" y="-186.5" font-family="Helvetica,sans-Serif" font-size="10.00">+ Cost</text>
<text text-anchor="start" x="255" y="-175.5" font-family="Helvetica,sans-Serif" font-size="10.00"># name</text>
<text text-anchor="start" x="255" y="-164.5" font-family="Helvetica,sans-Serif" font-size="10.00"># desc</text>
<text text-anchor="start" x="255" y="-153.5" font-family="Helvetica,sans-Serif" font-size="10.00"># cost</text>
<polyline fill="none" stroke="black" points="247,-146.5 324,-146.5 "/>
<text text-anchor="start" x="255" y="-134.5" font-family="Helvetica,sans-Serif" font-size="10.00">+ applyBuffs()</text>
<text text-anchor="start" x="255" y="-123.5" font-family="Helvetica,sans-Serif" font-size="10.00">+ revertBuffs()</text>
</g>
<!-- Node1 -->
<g id="node2" class="node"><title>Node1</title>
<g id="a_node2"><a xlink:href="class_armour.html" target="_top" xlink:title="An item that increases a player&#39;s attack stat by 2 and defence stat by 3 ">
<polygon fill="none" stroke="black" points="0,-0.5 0,-79.5 77,-79.5 77,-0.5 0,-0.5"/>
<text text-anchor="middle" x="38.5" y="-67.5" font-family="Helvetica,sans-Serif" font-size="10.00">Armour</text>
<polyline fill="none" stroke="black" points="0,-60.5 77,-60.5 "/>
<text text-anchor="middle" x="38.5" y="-48.5" font-family="Helvetica,sans-Serif" font-size="10.00"> </text>
<polyline fill="none" stroke="black" points="0,-41.5 77,-41.5 "/>
<text text-anchor="start" x="8" y="-29.5" font-family="Helvetica,sans-Serif" font-size="10.00">+ Armour()</text>
<text text-anchor="start" x="8" y="-18.5" font-family="Helvetica,sans-Serif" font-size="10.00">+ applyBuffs()</text>
<text text-anchor="start" x="8" y="-7.5" font-family="Helvetica,sans-Serif" font-size="10.00">+ revertBuffs()</text>
</a>
</g>
</g>
<!-- Node0&#45;&gt;Node1 -->
<g id="edge1" class="edge"><title>Node0&#45;&gt;Node1</title>
<path fill="none" stroke="midnightblue" d="M237.454,-157.594C195.824,-139.882 134.715,-111.692 85.5,-80 82.7365,-78.2204 79.953,-76.3 77.195,-74.2988"/>
<polygon fill="none" stroke="midnightblue" points="236.238,-160.88 246.813,-161.539 238.957,-154.43 236.238,-160.88"/>
</g>
<!-- Node2 -->
<g id="node3" class="node"><title>Node2</title>
<g id="a_node3"><a xlink:href="class_hammer.html" target="_top" xlink:title="An item that increases a player&#39;s attack stat by 5 ">
<polygon fill="none" stroke="black" points="95,-0.5 95,-79.5 172,-79.5 172,-0.5 95,-0.5"/>
<text text-anchor="middle" x="133.5" y="-67.5" font-family="Helvetica,sans-Serif" font-size="10.00">Hammer</text>
<polyline fill="none" stroke="black" points="95,-60.5 172,-60.5 "/>
<text text-anchor="middle" x="133.5" y="-48.5" font-family="Helvetica,sans-Serif" font-size="10.00"> </text>
<polyline fill="none" stroke="black" points="95,-41.5 172,-41.5 "/>
<text text-anchor="start" x="103" y="-29.5" font-family="Helvetica,sans-Serif" font-size="10.00">+ Hammer()</text>
<text text-anchor="start" x="103" y="-18.5" font-family="Helvetica,sans-Serif" font-size="10.00">+ applyBuffs()</text>
<text text-anchor="start" x="103" y="-7.5" font-family="Helvetica,sans-Serif" font-size="10.00">+ revertBuffs()</text>
</a>
</g>
</g>
<!-- Node0&#45;&gt;Node2 -->
<g id="edge2" class="edge"><title>Node0&#45;&gt;Node2</title>
<path fill="none" stroke="midnightblue" d="M239.048,-135.438C217.643,-116.286 192.535,-93.8208 172.179,-75.6071"/>
<polygon fill="none" stroke="midnightblue" points="236.964,-138.27 246.751,-142.33 241.632,-133.053 236.964,-138.27"/>
</g>
<!-- Node3 -->
<g id="node4" class="node"><title>Node3</title>
<g id="a_node4"><a xlink:href="class_magic_amulet.html" target="_top" xlink:title="An item that increases a player&#39;s maximum magic points by 3 ">
<polygon fill="none" stroke="black" points="190,-0.5 190,-79.5 279,-79.5 279,-0.5 190,-0.5"/>
<text text-anchor="middle" x="234.5" y="-67.5" font-family="Helvetica,sans-Serif" font-size="10.00">MagicAmulet</text>
<polyline fill="none" stroke="black" points="190,-60.5 279,-60.5 "/>
<text text-anchor="middle" x="234.5" y="-48.5" font-family="Helvetica,sans-Serif" font-size="10.00"> </text>
<polyline fill="none" stroke="black" points="190,-41.5 279,-41.5 "/>
<text text-anchor="start" x="198" y="-29.5" font-family="Helvetica,sans-Serif" font-size="10.00">+ MagicAmulet()</text>
<text text-anchor="start" x="198" y="-18.5" font-family="Helvetica,sans-Serif" font-size="10.00">+ applyBuffs()</text>
<text text-anchor="start" x="198" y="-7.5" font-family="Helvetica,sans-Serif" font-size="10.00">+ revertBuffs()</text>
</a>
</g>
</g>
<!-- Node0&#45;&gt;Node3 -->
<g id="edge3" class="edge"><title>Node0&#45;&gt;Node3</title>
<path fill="none" stroke="midnightblue" d="M259.171,-106.79C255.655,-97.4127 252.159,-88.0913 248.953,-79.5403"/>
<polygon fill="none" stroke="midnightblue" points="255.897,-108.026 262.685,-116.16 262.451,-105.568 255.897,-108.026"/>
</g>
<!-- Node4 -->
<g id="node5" class="node"><title>Node4</title>
<g id="a_node5"><a xlink:href="class_rabbit_foot.html" target="_top" xlink:title="An item that increases a player&#39;s luck stat by 5 ">
<polygon fill="none" stroke="black" points="297,-0.5 297,-79.5 376,-79.5 376,-0.5 297,-0.5"/>
<text text-anchor="middle" x="336.5" y="-67.5" font-family="Helvetica,sans-Serif" font-size="10.00">RabbitFoot</text>
<polyline fill="none" stroke="black" points="297,-60.5 376,-60.5 "/>
<text text-anchor="middle" x="336.5" y="-48.5" font-family="Helvetica,sans-Serif" font-size="10.00"> </text>
<polyline fill="none" stroke="black" points="297,-41.5 376,-41.5 "/>
<text text-anchor="start" x="305" y="-29.5" font-family="Helvetica,sans-Serif" font-size="10.00">+ RabbitFoot()</text>
<text text-anchor="start" x="305" y="-18.5" font-family="Helvetica,sans-Serif" font-size="10.00">+ applyBuffs()</text>
<text text-anchor="start" x="305" y="-7.5" font-family="Helvetica,sans-Serif" font-size="10.00">+ revertBuffs()</text>
</a>
</g>
</g>
<!-- Node0&#45;&gt;Node4 -->
<g id="edge4" class="edge"><title>Node0&#45;&gt;Node4</title>
<path fill="none" stroke="midnightblue" d="M311.829,-106.79C315.345,-97.4127 318.841,-88.0913 322.047,-79.5403"/>
<polygon fill="none" stroke="midnightblue" points="308.549,-105.568 308.315,-116.16 315.103,-108.026 308.549,-105.568"/>
</g>
<!-- Node5 -->
<g id="node6" class="node"><title>Node5</title>
<g id="a_node6"><a xlink:href="class_shield.html" target="_top" xlink:title="An item that increases a player&#39;s defence stat by 5 ">
<polygon fill="none" stroke="black" points="394,-0.5 394,-79.5 471,-79.5 471,-0.5 394,-0.5"/>
<text text-anchor="middle" x="432.5" y="-67.5" font-family="Helvetica,sans-Serif" font-size="10.00">Shield</text>
<polyline fill="none" stroke="black" points="394,-60.5 471,-60.5 "/>
<text text-anchor="middle" x="432.5" y="-48.5" font-family="Helvetica,sans-Serif" font-size="10.00"> </text>
<polyline fill="none" stroke="black" points="394,-41.5 471,-41.5 "/>
<text text-anchor="start" x="402" y="-29.5" font-family="Helvetica,sans-Serif" font-size="10.00">+ Shield()</text>
<text text-anchor="start" x="402" y="-18.5" font-family="Helvetica,sans-Serif" font-size="10.00">+ applyBuffs()</text>
<text text-anchor="start" x="402" y="-7.5" font-family="Helvetica,sans-Serif" font-size="10.00">+ revertBuffs()</text>
</a>
</g>
</g>
<!-- Node0&#45;&gt;Node5 -->
<g id="edge5" class="edge"><title>Node0&#45;&gt;Node5</title>
<path fill="none" stroke="midnightblue" d="M331.621,-134.33C351.63,-115.818 374.797,-94.3848 393.88,-76.7296"/>
<polygon fill="none" stroke="midnightblue" points="329.086,-131.907 324.123,-141.268 333.84,-137.046 329.086,-131.907"/>
</g>
<!-- Node6 -->
<g id="node7" class="node"><title>Node6</title>
<g id="a_node7"><a xlink:href="class_trainers.html" target="_top" xlink:title="An item that increases a player&#39;s speed stat by 5 ">
<polygon fill="none" stroke="black" points="489,-0.5 489,-79.5 566,-79.5 566,-0.5 489,-0.5"/>
<text text-anchor="middle" x="527.5" y="-67.5" font-family="Helvetica,sans-Serif" font-size="10.00">Trainers</text>
<polyline fill="none" stroke="black" points="489,-60.5 566,-60.5 "/>
<text text-anchor="middle" x="527.5" y="-48.5" font-family="Helvetica,sans-Serif" font-size="10.00"> </text>
<polyline fill="none" stroke="black" points="489,-41.5 566,-41.5 "/>
<text text-anchor="start" x="497" y="-29.5" font-family="Helvetica,sans-Serif" font-size="10.00">+ Trainers()</text>
<text text-anchor="start" x="497" y="-18.5" font-family="Helvetica,sans-Serif" font-size="10.00">+ applyBuffs()</text>
<text text-anchor="start" x="497" y="-7.5" font-family="Helvetica,sans-Serif" font-size="10.00">+ revertBuffs()</text>
</a>
</g>
</g>
<!-- Node0&#45;&gt;Node6 -->
<g id="edge6" class="edge"><title>Node0&#45;&gt;Node6</title>
<path fill="none" stroke="midnightblue" d="M333.683,-156.789C374.209,-138.92 432.976,-110.941 480.5,-80 483.255,-78.2066 486.031,-76.2757 488.784,-74.2668"/>
<polygon fill="none" stroke="midnightblue" points="332.064,-153.676 324.303,-160.888 334.867,-160.091 332.064,-153.676"/>
</g>
</g>
</svg>
