<?xml version="1.0" encoding="UTF-8" standalone="no"?>
<!DOCTYPE svg PUBLIC "-//W3C//DTD SVG 1.1//EN"
 "http://www.w3.org/Graphics/SVG/1.1/DTD/svg11.dtd">
<!-- Generated by graphviz version 2.38.0 (20140413.2041)
 -->
<!-- Title: PlayerCollison Pages: 1 -->
<svg width="114pt" height="160pt"
 viewBox="0.00 0.00 114.00 160.00" xmlns="http://www.w3.org/2000/svg" xmlns:xlink="http://www.w3.org/1999/xlink">
<g id="graph0" class="graph" transform="scale(1 1) rotate(0) translate(4 156)">
<title>PlayerCollison</title>
<!-- Node0 -->
<g id="node1" class="node"><title>Node0</title>
<polygon fill="#bfbfbf" stroke="black" points="0,-0.5 0,-57.5 106,-57.5 106,-0.5 0,-0.5"/>
<text text-anchor="middle" x="53" y="-45.5" font-family="Helvetica,sans-Serif" font-size="10.00">PlayerCollison</text>
<polyline fill="none" stroke="black" points="0,-38.5 106,-38.5 "/>
<text text-anchor="start" x="8" y="-26.5" font-family="Helvetica,sans-Serif" font-size="10.00">+ movement</text>
<polyline fill="none" stroke="black" points="0,-19.5 106,-19.5 "/>
<text text-anchor="start" x="8" y="-7.5" font-family="Helvetica,sans-Serif" font-size="10.00">&#45; OnTriggerEnter2D()</text>
</g>
<!-- Node1 -->
<g id="node2" class="node"><title>Node1</title>
<g id="a_node2"><a xlink:href="class_mono_behaviour.html" target="_top" xlink:title="{MonoBehaviour\n||}">
<polygon fill="none" stroke="black" points="11.5,-94.5 11.5,-151.5 94.5,-151.5 94.5,-94.5 11.5,-94.5"/>
<text text-anchor="middle" x="53" y="-139.5" font-family="Helvetica,sans-Serif" font-size="10.00">MonoBehaviour</text>
<polyline fill="none" stroke="black" points="11.5,-132.5 94.5,-132.5 "/>
<text text-anchor="middle" x="53" y="-120.5" font-family="Helvetica,sans-Serif" font-size="10.00"> </text>
<polyline fill="none" stroke="black" points="11.5,-113.5 94.5,-113.5 "/>
<text text-anchor="middle" x="53" y="-101.5" font-family="Helvetica,sans-Serif" font-size="10.00"> </text>
</a>
</g>
</g>
<!-- Node1&#45;&gt;Node0 -->
<g id="edge1" class="edge"><title>Node1&#45;&gt;Node0</title>
<path fill="none" stroke="midnightblue" d="M53,-84.2092C53,-75.2929 53,-65.9513 53,-57.5836"/>
<polygon fill="none" stroke="midnightblue" points="49.5001,-84.3969 53,-94.397 56.5001,-84.397 49.5001,-84.3969"/>
</g>
</g>
</svg>
