<?xml version="1.0" encoding="UTF-8" standalone="no"?>
<!DOCTYPE svg PUBLIC "-//W3C//DTD SVG 1.1//EN"
 "http://www.w3.org/Graphics/SVG/1.1/DTD/svg11.dtd">
<!-- Generated by graphviz version 2.38.0 (20140413.2041)
 -->
<!-- Title: BattleStartedEventArgs Pages: 1 -->
<!--zoomable 1358 -->
<svg id="main" version="1.1" xmlns="http://www.w3.org/2000/svg" xmlns:xlink="http://www.w3.org/1999/xlink" xml:space="preserve" onload="init(evt)">
<style type="text/css"><![CDATA[
.edge:hover path { stroke: red; }
.edge:hover polygon { stroke: red; fill: red; }
]]></style>
<script type="text/javascript"><![CDATA[
var edges = document.getElementsByTagName('g');
if (edges && edges.length) {
  for (var i=0;i<edges.length;i++) {
    if (edges[i].id.substr(0,4)=='edge') {
      edges[i].setAttribute('class','edge');
    }
  }
}
]]></script>
        <defs>
                <circle id="rim" cx="0" cy="0" r="7"/>
                <circle id="rim2" cx="0" cy="0" r="3.5"/>
                <g id="zoomPlus">
                        <use xlink:href="#rim" fill="#404040">
                                <set attributeName="fill" to="#808080" begin="zoomplus.mouseover" end="zoomplus.mouseout"/>
                        </use>
                        <path d="M-4,0h8M0,-4v8" fill="none" stroke="white" stroke-width="1.5" pointer-events="none"/>
                </g>
                <g id="zoomMin">
                        <use xlink:href="#rim" fill="#404040">
                                <set attributeName="fill" to="#808080" begin="zoomminus.mouseover" end="zoomminus.mouseout"/>
                        </use>
                        <path d="M-4,0h8" fill="none" stroke="white" stroke-width="1.5" pointer-events="none"/>
                </g>
                <g id="dirArrow">
                        <path fill="none" stroke="white" stroke-width="1.5" d="M0,-3.0v7 M-2.5,-0.5L0,-3.0L2.5,-0.5"/>
                </g>
               <g id="resetDef">
                       <use xlink:href="#rim2" fill="#404040">
                               <set attributeName="fill" to="#808080" begin="reset.mouseover" end="reset.mouseout"/>
                       </use>
               </g>
        </defs>

<script type="text/javascript">
var viewWidth = 1064;
var viewHeight = 1358;
var sectionId = 'dynsection-1';
</script>
<script xlink:href="svgpan.js"/>
<svg id="graph" class="graph">
<g id="viewport">
<title>BattleStartedEventArgs</title>
<!-- Node3 -->
<g id="node1" class="node"><title>Node3</title>
<polygon fill="#bfbfbf" stroke="black" points="250,-0.5 250,-57.5 383,-57.5 383,-0.5 250,-0.5"/>
<text text-anchor="middle" x="316.5" y="-45.5" font-family="Helvetica,sans-Serif" font-size="10.00">BattleStartedEventArgs</text>
<polyline fill="none" stroke="black" points="250,-38.5 383,-38.5 "/>
<text text-anchor="middle" x="316.5" y="-26.5" font-family="Helvetica,sans-Serif" font-size="10.00"> </text>
<polyline fill="none" stroke="black" points="250,-19.5 383,-19.5 "/>
<text text-anchor="start" x="258" y="-7.5" font-family="Helvetica,sans-Serif" font-size="10.00">+ BattleStartedEventArgs()</text>
</g>
<!-- Node4 -->
<g id="node2" class="node"><title>Node4</title>
<g id="a_node2"><a xlink:href="class_game_event_args.html" target="_top" xlink:title="Base class for passing arguments with game events ">
<polygon fill="none" stroke="black" points="0,-105.5 0,-162.5 87,-162.5 87,-105.5 0,-105.5"/>
<text text-anchor="middle" x="43.5" y="-150.5" font-family="Helvetica,sans-Serif" font-size="10.00">GameEventArgs</text>
<polyline fill="none" stroke="black" points="0,-143.5 87,-143.5 "/>
<text text-anchor="middle" x="43.5" y="-131.5" font-family="Helvetica,sans-Serif" font-size="10.00"> </text>
<polyline fill="none" stroke="black" points="0,-124.5 87,-124.5 "/>
<text text-anchor="middle" x="43.5" y="-112.5" font-family="Helvetica,sans-Serif" font-size="10.00"> </text>
</a>
</g>
</g>
<!-- Node4&#45;&gt;Node3 -->
<g id="edge1" class="edge"><title>Node4&#45;&gt;Node3</title>
<path fill="none" stroke="midnightblue" d="M96.1245,-104.181C115.124,-94.4505 136.955,-84.0309 157.5,-76 187.208,-64.3872 221.046,-54.1967 249.848,-46.3784"/>
<polygon fill="none" stroke="midnightblue" points="94.31,-101.179 87.0427,-108.888 97.5316,-107.394 94.31,-101.179"/>
</g>
<!-- Node4&#45;&gt;Node4 -->
<g id="edge3" class="edge"><title>Node4&#45;&gt;Node4</title>
<path fill="none" stroke="#404040" d="M87.1694,-142.454C97.4301,-141.76 105,-138.941 105,-134 105,-131.298 102.736,-129.23 99.0062,-127.798"/>
<polygon fill="none" stroke="#404040" points="98.9578,-127.789 92.3158,-130.597 87.1694,-125.546 93.8114,-122.738 98.9578,-127.789"/>
<text text-anchor="middle" x="124" y="-131.5" font-family="Helvetica,sans-Serif" font-size="10.00"> +Empty</text>
</g>
<!-- Node5 -->
<g id="node3" class="node"><title>Node5</title>
<g id="a_node3"><a xlink:href="class_event_args.html" target="_top" xlink:title="{EventArgs\n||}">
<polygon fill="none" stroke="black" points="13,-277.5 13,-334.5 74,-334.5 74,-277.5 13,-277.5"/>
<text text-anchor="middle" x="43.5" y="-322.5" font-family="Helvetica,sans-Serif" font-size="10.00">EventArgs</text>
<polyline fill="none" stroke="black" points="13,-315.5 74,-315.5 "/>
<text text-anchor="middle" x="43.5" y="-303.5" font-family="Helvetica,sans-Serif" font-size="10.00"> </text>
<polyline fill="none" stroke="black" points="13,-296.5 74,-296.5 "/>
<text text-anchor="middle" x="43.5" y="-284.5" font-family="Helvetica,sans-Serif" font-size="10.00"> </text>
</a>
</g>
</g>
<!-- Node5&#45;&gt;Node4 -->
<g id="edge2" class="edge"><title>Node5&#45;&gt;Node4</title>
<path fill="none" stroke="midnightblue" d="M43.5,-267.105C43.5,-235.458 43.5,-191.077 43.5,-162.68"/>
<polygon fill="none" stroke="midnightblue" points="40.0001,-267.308 43.5,-277.308 47.0001,-267.308 40.0001,-267.308"/>
</g>
<!-- Node6 -->
<g id="node4" class="node"><title>Node6</title>
<g id="a_node4"><a xlink:href="class_item.html" target="_top" xlink:title="Abstract class for items that can be equipped to a player, increasing some of their stats ...">
<polygon fill="none" stroke="black" points="387,-1143.5 387,-1233.5 464,-1233.5 464,-1143.5 387,-1143.5"/>
<text text-anchor="middle" x="425.5" y="-1221.5" font-family="Helvetica,sans-Serif" font-size="10.00">Item</text>
<polyline fill="none" stroke="black" points="387,-1214.5 464,-1214.5 "/>
<text text-anchor="start" x="395" y="-1202.5" font-family="Helvetica,sans-Serif" font-size="10.00">+ Name</text>
<text text-anchor="start" x="395" y="-1191.5" font-family="Helvetica,sans-Serif" font-size="10.00">+ Desc</text>
<text text-anchor="start" x="395" y="-1180.5" font-family="Helvetica,sans-Serif" font-size="10.00">+ Cost</text>
<polyline fill="none" stroke="black" points="387,-1173.5 464,-1173.5 "/>
<text text-anchor="start" x="395" y="-1161.5" font-family="Helvetica,sans-Serif" font-size="10.00">+ applyBuffs()</text>
<text text-anchor="start" x="395" y="-1150.5" font-family="Helvetica,sans-Serif" font-size="10.00">+ revertBuffs()</text>
</a>
</g>
</g>
<!-- Node6&#45;&gt;Node3 -->
<g id="edge4" class="edge"><title>Node6&#45;&gt;Node3</title>
<path fill="none" stroke="#404040" d="M386.659,-1162.23C374.501,-1152.2 362.457,-1139.55 355.5,-1125 317.113,-1044.7 349.356,-1013.92 345.5,-925 330.816,-586.423 324.997,-501.812 317.5,-163 316.806,-131.655 316.567,-96.1446 316.496,-69.7059"/>
<polygon fill="none" stroke="#404040" points="316.495,-69.5135 312.484,-63.5211 316.473,-57.5136 320.484,-63.506 316.495,-69.5135"/>
<text text-anchor="middle" x="362" y="-582" font-family="Helvetica,sans-Serif" font-size="10.00"> +itemReward</text>
</g>
<!-- Node15 -->
<g id="node13" class="node"><title>Node15</title>
<g id="a_node13"><a xlink:href="class_player.html" target="_top" xlink:title="Defines a playable character for use in battle scenes">
<polygon fill="none" stroke="black" points="402.5,-972.5 402.5,-1084.5 514.5,-1084.5 514.5,-972.5 402.5,-972.5"/>
<text text-anchor="middle" x="458.5" y="-1072.5" font-family="Helvetica,sans-Serif" font-size="10.00">Player</text>
<polyline fill="none" stroke="black" points="402.5,-1065.5 514.5,-1065.5 "/>
<text text-anchor="start" x="410.5" y="-1053.5" font-family="Helvetica,sans-Serif" font-size="10.00">+ Exp</text>
<text text-anchor="start" x="410.5" y="-1042.5" font-family="Helvetica,sans-Serif" font-size="10.00">+ Item</text>
<text text-anchor="start" x="410.5" y="-1031.5" font-family="Helvetica,sans-Serif" font-size="10.00">+ ExpToNextLevel</text>
<polyline fill="none" stroke="black" points="402.5,-1024.5 514.5,-1024.5 "/>
<text text-anchor="start" x="410.5" y="-1012.5" font-family="Helvetica,sans-Serif" font-size="10.00">+ Player()</text>
<text text-anchor="start" x="410.5" y="-1001.5" font-family="Helvetica,sans-Serif" font-size="10.00">+ gainExp()</text>
<text text-anchor="start" x="410.5" y="-990.5" font-family="Helvetica,sans-Serif" font-size="10.00">+ levelUp()</text>
<text text-anchor="start" x="410.5" y="-979.5" font-family="Helvetica,sans-Serif" font-size="10.00">&#45; setExpToNextLevel()</text>
</a>
</g>
</g>
<!-- Node6&#45;&gt;Node15 -->
<g id="edge24" class="edge"><title>Node6&#45;&gt;Node15</title>
<path fill="none" stroke="#404040" d="M434.692,-1143.49C437.732,-1128.94 441.186,-1112.4 444.502,-1096.52"/>
<polygon fill="none" stroke="#404040" points="444.548,-1096.3 441.859,-1089.61 447.002,-1084.55 449.69,-1091.24 444.548,-1096.3"/>
<text text-anchor="middle" x="456" y="-1111.5" font-family="Helvetica,sans-Serif" font-size="10.00"> &#45;item</text>
</g>
<!-- Node7 -->
<g id="node5" class="node"><title>Node7</title>
<polygon fill="none" stroke="#bfbfbf" points="707,-1292.5 707,-1349.5 748,-1349.5 748,-1292.5 707,-1292.5"/>
<text text-anchor="middle" x="727.5" y="-1337.5" font-family="Helvetica,sans-Serif" font-size="10.00">string</text>
<polyline fill="none" stroke="#bfbfbf" points="707,-1330.5 748,-1330.5 "/>
<text text-anchor="middle" x="727.5" y="-1318.5" font-family="Helvetica,sans-Serif" font-size="10.00"> </text>
<polyline fill="none" stroke="#bfbfbf" points="707,-1311.5 748,-1311.5 "/>
<text text-anchor="middle" x="727.5" y="-1299.5" font-family="Helvetica,sans-Serif" font-size="10.00"> </text>
</g>
<!-- Node7&#45;&gt;Node3 -->
<g id="edge7" class="edge"><title>Node7&#45;&gt;Node3</title>
<path fill="none" stroke="#404040" d="M748.457,-1320.01C814.274,-1318.84 1012.5,-1305.69 1012.5,-1189.5 1012.5,-1189.5 1012.5,-1189.5 1012.5,-133 1012.5,-71.2075 577.651,-42.7479 395.39,-33.5333"/>
<polygon fill="none" stroke="#404040" points="395.221,-33.525 389.029,-37.2218 383.235,-32.9285 389.427,-29.2317 395.221,-33.525"/>
<text text-anchor="middle" x="1034" y="-645.5" font-family="Helvetica,sans-Serif" font-size="10.00"> +location</text>
</g>
<!-- Node7&#45;&gt;Node6 -->
<g id="edge5" class="edge"><title>Node7&#45;&gt;Node6</title>
<path fill="none" stroke="#404040" d="M706.719,-1315.6C662.541,-1305.67 556.917,-1278.83 478.5,-1234 477.151,-1233.23 475.802,-1232.42 474.458,-1231.58"/>
<polygon fill="none" stroke="#404040" points="474.216,-1231.42 467.005,-1231.35 464.295,-1224.67 471.506,-1224.74 474.216,-1231.42"/>
<text text-anchor="middle" x="579.5" y="-1266" font-family="Helvetica,sans-Serif" font-size="10.00"> #desc</text>
<text text-anchor="middle" x="579.5" y="-1255" font-family="Helvetica,sans-Serif" font-size="10.00">#name</text>
</g>
<!-- Node10 -->
<g id="node8" class="node"><title>Node10</title>
<g id="a_node8"><a xlink:href="class_character.html" target="_top" xlink:title="Base abstract class for Enemy and Player to inherit from. Defines all shared variables, their constructor and their setters and getters ">
<polygon fill="none" stroke="black" points="519,-200.5 519,-411.5 614,-411.5 614,-200.5 519,-200.5"/>
<text text-anchor="middle" x="566.5" y="-399.5" font-family="Helvetica,sans-Serif" font-size="10.00">Character</text>
<polyline fill="none" stroke="black" points="519,-392.5 614,-392.5 "/>
<text text-anchor="start" x="527" y="-380.5" font-family="Helvetica,sans-Serif" font-size="10.00">+ Name</text>
<text text-anchor="start" x="527" y="-369.5" font-family="Helvetica,sans-Serif" font-size="10.00">+ Level</text>
<text text-anchor="start" x="527" y="-358.5" font-family="Helvetica,sans-Serif" font-size="10.00">+ Health</text>
<text text-anchor="start" x="527" y="-347.5" font-family="Helvetica,sans-Serif" font-size="10.00">+ Attack</text>
<text text-anchor="start" x="527" y="-336.5" font-family="Helvetica,sans-Serif" font-size="10.00">+ Defence</text>
<text text-anchor="start" x="527" y="-325.5" font-family="Helvetica,sans-Serif" font-size="10.00">+ MaximumMagic</text>
<text text-anchor="start" x="527" y="-314.5" font-family="Helvetica,sans-Serif" font-size="10.00">+ Magic</text>
<text text-anchor="start" x="527" y="-303.5" font-family="Helvetica,sans-Serif" font-size="10.00">+ Luck</text>
<text text-anchor="start" x="527" y="-292.5" font-family="Helvetica,sans-Serif" font-size="10.00">+ Speed</text>
<text text-anchor="start" x="527" y="-281.5" font-family="Helvetica,sans-Serif" font-size="10.00">+ Rage</text>
<text text-anchor="start" x="527" y="-270.5" font-family="Helvetica,sans-Serif" font-size="10.00">+ CanRage</text>
<text text-anchor="start" x="527" y="-259.5" font-family="Helvetica,sans-Serif" font-size="10.00">+ Special1</text>
<text text-anchor="start" x="527" y="-248.5" font-family="Helvetica,sans-Serif" font-size="10.00">+ Special2</text>
<text text-anchor="start" x="527" y="-237.5" font-family="Helvetica,sans-Serif" font-size="10.00">+ Image</text>
<polyline fill="none" stroke="black" points="519,-230.5 614,-230.5 "/>
<text text-anchor="start" x="527" y="-218.5" font-family="Helvetica,sans-Serif" font-size="10.00">+ IsEnraged()</text>
<text text-anchor="start" x="527" y="-207.5" font-family="Helvetica,sans-Serif" font-size="10.00"># Character()</text>
</a>
</g>
</g>
<!-- Node7&#45;&gt;Node10 -->
<g id="edge10" class="edge"><title>Node7&#45;&gt;Node10</title>
<path fill="none" stroke="#404040" d="M748.202,-1297.38C768.527,-1272.76 796.5,-1231.27 796.5,-1189.5 796.5,-1189.5 796.5,-1189.5 796.5,-514.5 796.5,-422.293 693.331,-360.52 625.187,-329.776"/>
<polygon fill="none" stroke="#404040" points="625.143,-329.756 618.041,-331.005 614.156,-324.93 621.258,-323.681 625.143,-329.756"/>
<text text-anchor="middle" x="813" y="-827.5" font-family="Helvetica,sans-Serif" font-size="10.00"> #name</text>
</g>
<!-- Node12 -->
<g id="node10" class="node"><title>Node12</title>
<g id="a_node10"><a xlink:href="class_special_move.html" target="_top" xlink:title="Special move abstract base class that expands upon CharacterMove, adding magic properties ...">
<polygon fill="none" stroke="black" points="592.5,-470.5 592.5,-560.5 690.5,-560.5 690.5,-470.5 592.5,-470.5"/>
<text text-anchor="middle" x="641.5" y="-548.5" font-family="Helvetica,sans-Serif" font-size="10.00">SpecialMove</text>
<polyline fill="none" stroke="black" points="592.5,-541.5 690.5,-541.5 "/>
<text text-anchor="start" x="600.5" y="-529.5" font-family="Helvetica,sans-Serif" font-size="10.00">+ Magic</text>
<text text-anchor="start" x="600.5" y="-518.5" font-family="Helvetica,sans-Serif" font-size="10.00">+ Desc</text>
<polyline fill="none" stroke="black" points="592.5,-511.5 690.5,-511.5 "/>
<text text-anchor="start" x="600.5" y="-499.5" font-family="Helvetica,sans-Serif" font-size="10.00">+ setUp()</text>
<text text-anchor="start" x="600.5" y="-488.5" font-family="Helvetica,sans-Serif" font-size="10.00">+ decreaseMagic()</text>
<text text-anchor="start" x="600.5" y="-477.5" font-family="Helvetica,sans-Serif" font-size="10.00"># SpecialMove()</text>
</a>
</g>
</g>
<!-- Node7&#45;&gt;Node12 -->
<g id="edge26" class="edge"><title>Node7&#45;&gt;Node12</title>
<path fill="none" stroke="#404040" d="M735.147,-1292.45C736.524,-1286.42 737.757,-1280.03 738.5,-1274 748.778,-1190.63 740.056,-1169 740.5,-1085 741.622,-872.965 814.252,-803.223 731.5,-608 727.466,-598.482 714.532,-583.843 699.68,-569.046"/>
<polygon fill="none" stroke="#404040" points="699.358,-568.731 692.27,-567.405 690.767,-560.352 697.855,-561.678 699.358,-568.731"/>
<text text-anchor="middle" x="767.5" y="-946" font-family="Helvetica,sans-Serif" font-size="10.00"> #desc</text>
</g>
<!-- Node13 -->
<g id="node11" class="node"><title>Node13</title>
<g id="a_node11"><a xlink:href="class_character_move.html" target="_top" xlink:title="Astract base class for character moves ">
<polygon fill="none" stroke="black" points="636.5,-608.5 636.5,-687.5 722.5,-687.5 722.5,-608.5 636.5,-608.5"/>
<text text-anchor="middle" x="679.5" y="-675.5" font-family="Helvetica,sans-Serif" font-size="10.00">CharacterMove</text>
<polyline fill="none" stroke="black" points="636.5,-668.5 722.5,-668.5 "/>
<text text-anchor="start" x="644.5" y="-656.5" font-family="Helvetica,sans-Serif" font-size="10.00">+ User</text>
<text text-anchor="start" x="644.5" y="-645.5" font-family="Helvetica,sans-Serif" font-size="10.00">+ Target</text>
<text text-anchor="start" x="644.5" y="-634.5" font-family="Helvetica,sans-Serif" font-size="10.00">+ Text</text>
<polyline fill="none" stroke="black" points="636.5,-627.5 722.5,-627.5 "/>
<text text-anchor="start" x="644.5" y="-615.5" font-family="Helvetica,sans-Serif" font-size="10.00">+ performMove()</text>
</a>
</g>
</g>
<!-- Node7&#45;&gt;Node13 -->
<g id="edge15" class="edge"><title>Node7&#45;&gt;Node13</title>
<path fill="none" stroke="#404040" d="M725.763,-1292.09C721.846,-1229.57 711.933,-1073.52 702.5,-943 696.329,-857.605 688.405,-758.321 683.653,-699.733"/>
<polygon fill="none" stroke="#404040" points="683.632,-699.476 679.159,-693.819 682.659,-687.515 687.132,-693.171 683.632,-699.476"/>
<text text-anchor="middle" x="725" y="-1026" font-family="Helvetica,sans-Serif" font-size="10.00"> #text</text>
</g>
<!-- Node14 -->
<g id="node12" class="node"><title>Node14</title>
<g id="a_node12"><a xlink:href="class_battle_manager.html" target="_top" xlink:title="Holds current Player and Enemy objects in battle and provides functions for MainBattle and other obje...">
<polygon fill="none" stroke="black" points="464.5,-735.5 464.5,-924.5 580.5,-924.5 580.5,-735.5 464.5,-735.5"/>
<text text-anchor="middle" x="522.5" y="-912.5" font-family="Helvetica,sans-Serif" font-size="10.00">BattleManager</text>
<polyline fill="none" stroke="black" points="464.5,-905.5 580.5,-905.5 "/>
<text text-anchor="start" x="472.5" y="-893.5" font-family="Helvetica,sans-Serif" font-size="10.00">+ Player</text>
<text text-anchor="start" x="472.5" y="-882.5" font-family="Helvetica,sans-Serif" font-size="10.00">+ Enemy</text>
<text text-anchor="start" x="472.5" y="-871.5" font-family="Helvetica,sans-Serif" font-size="10.00">+ WasCriticalHit</text>
<polyline fill="none" stroke="black" points="464.5,-864.5 580.5,-864.5 "/>
<text text-anchor="start" x="472.5" y="-852.5" font-family="Helvetica,sans-Serif" font-size="10.00">+ BattleManager()</text>
<text text-anchor="start" x="472.5" y="-841.5" font-family="Helvetica,sans-Serif" font-size="10.00">+ playerFirst()</text>
<text text-anchor="start" x="472.5" y="-830.5" font-family="Helvetica,sans-Serif" font-size="10.00">+ switchPlayers()</text>
<text text-anchor="start" x="472.5" y="-819.5" font-family="Helvetica,sans-Serif" font-size="10.00">+ isCriticalHit()</text>
<text text-anchor="start" x="472.5" y="-808.5" font-family="Helvetica,sans-Serif" font-size="10.00">+ ranAway()</text>
<text text-anchor="start" x="472.5" y="-797.5" font-family="Helvetica,sans-Serif" font-size="10.00">+ damageCalculation()</text>
<text text-anchor="start" x="472.5" y="-786.5" font-family="Helvetica,sans-Serif" font-size="10.00">+ enemyMove()</text>
<text text-anchor="start" x="472.5" y="-775.5" font-family="Helvetica,sans-Serif" font-size="10.00">+ enemySpecialMove()</text>
<text text-anchor="start" x="472.5" y="-764.5" font-family="Helvetica,sans-Serif" font-size="10.00">+ battleWon()</text>
<text text-anchor="start" x="472.5" y="-753.5" font-family="Helvetica,sans-Serif" font-size="10.00">+ playerFainted()</text>
<text text-anchor="start" x="472.5" y="-742.5" font-family="Helvetica,sans-Serif" font-size="10.00">&#45; characterFainted()</text>
</a>
</g>
</g>
<!-- Node7&#45;&gt;Node14 -->
<g id="edge18" class="edge"><title>Node7&#45;&gt;Node14</title>
<path fill="none" stroke="#404040" d="M706.61,-1297.82C700.153,-1290.49 693.236,-1282.13 687.5,-1274 643.667,-1211.89 632.479,-1195.28 603.5,-1125 578.488,-1064.34 558.709,-993.507 544.959,-936.57"/>
<polygon fill="none" stroke="#404040" points="544.898,-936.312 539.616,-931.403 542.117,-924.639 547.398,-929.549 544.898,-936.312"/>
<text text-anchor="middle" x="645.5" y="-1117" font-family="Helvetica,sans-Serif" font-size="10.00"> +forceEnemyMove</text>
<text text-anchor="middle" x="645.5" y="-1106" font-family="Helvetica,sans-Serif" font-size="10.00">+forceCriticalHits</text>
</g>
<!-- Node8 -->
<g id="node6" class="node"><title>Node8</title>
<polygon fill="none" stroke="#bfbfbf" points="344,-1292.5 344,-1349.5 373,-1349.5 373,-1292.5 344,-1292.5"/>
<text text-anchor="middle" x="358.5" y="-1337.5" font-family="Helvetica,sans-Serif" font-size="10.00">int</text>
<polyline fill="none" stroke="#bfbfbf" points="344,-1330.5 373,-1330.5 "/>
<text text-anchor="middle" x="358.5" y="-1318.5" font-family="Helvetica,sans-Serif" font-size="10.00"> </text>
<polyline fill="none" stroke="#bfbfbf" points="344,-1311.5 373,-1311.5 "/>
<text text-anchor="middle" x="358.5" y="-1299.5" font-family="Helvetica,sans-Serif" font-size="10.00"> </text>
</g>
<!-- Node8&#45;&gt;Node3 -->
<g id="edge30" class="edge"><title>Node8&#45;&gt;Node3</title>
<path fill="none" stroke="#404040" d="M343.826,-1317.2C299.743,-1307.85 171.5,-1273.43 171.5,-1189.5 171.5,-1189.5 171.5,-1189.5 171.5,-133 171.5,-95.3851 204.332,-70.2457 238.75,-54.2262"/>
<polygon fill="none" stroke="#404040" points="238.943,-54.142 242.842,-48.0757 249.941,-49.3413 246.043,-55.4076 238.943,-54.142"/>
<text text-anchor="middle" x="207" y="-645.5" font-family="Helvetica,sans-Serif" font-size="10.00"> +moneyReward</text>
</g>
<!-- Node8&#45;&gt;Node6 -->
<g id="edge6" class="edge"><title>Node8&#45;&gt;Node6</title>
<path fill="none" stroke="#404040" d="M372.709,-1292.32C379.893,-1278.33 388.873,-1260.84 397.378,-1244.27"/>
<polygon fill="none" stroke="#404040" points="397.394,-1244.24 396.576,-1237.08 402.875,-1233.57 403.693,-1240.73 397.394,-1244.24"/>
<text text-anchor="middle" x="406.5" y="-1260.5" font-family="Helvetica,sans-Serif" font-size="10.00"> #cost</text>
</g>
<!-- Node9 -->
<g id="node7" class="node"><title>Node9</title>
<g id="a_node7"><a xlink:href="class_enemy.html" target="_top" xlink:title="Defines an AI controller enemy to fight in battle scenes">
<polygon fill="none" stroke="black" points="327,-105.5 327,-162.5 394,-162.5 394,-105.5 327,-105.5"/>
<text text-anchor="middle" x="360.5" y="-150.5" font-family="Helvetica,sans-Serif" font-size="10.00">Enemy</text>
<polyline fill="none" stroke="black" points="327,-143.5 394,-143.5 "/>
<text text-anchor="start" x="335" y="-131.5" font-family="Helvetica,sans-Serif" font-size="10.00">+ ExpGiven</text>
<polyline fill="none" stroke="black" points="327,-124.5 394,-124.5 "/>
<text text-anchor="start" x="335" y="-112.5" font-family="Helvetica,sans-Serif" font-size="10.00">+ Enemy()</text>
</a>
</g>
</g>
<!-- Node8&#45;&gt;Node9 -->
<g id="edge29" class="edge"><title>Node8&#45;&gt;Node9</title>
<path fill="none" stroke="#404040" d="M343.989,-1312.01C313.901,-1294.25 247.5,-1248.39 247.5,-1189.5 247.5,-1189.5 247.5,-1189.5 247.5,-829 247.5,-774.332 242.993,-760.39 248.5,-706 268.98,-503.73 326.476,-266.602 350.133,-174.426"/>
<polygon fill="none" stroke="#404040" points="350.173,-174.27 347.8,-167.46 353.174,-162.651 355.546,-169.461 350.173,-174.27"/>
<text text-anchor="middle" x="271.5" y="-709" font-family="Helvetica,sans-Serif" font-size="10.00"> &#45;expGiven</text>
</g>
<!-- Node8&#45;&gt;Node10 -->
<g id="edge11" class="edge"><title>Node8&#45;&gt;Node10</title>
<path fill="none" stroke="#404040" d="M352.316,-1292.39C351.184,-1286.35 350.156,-1279.99 349.5,-1274 346.923,-1250.47 347.97,-1163.62 348.5,-1143 353.168,-961.487 338.059,-913.831 369.5,-735 374.831,-704.676 436.898,-497.622 450.5,-470 467.04,-436.412 490.217,-402.211 511.509,-373.868"/>
<polygon fill="none" stroke="#404040" points="511.679,-373.645 512.131,-366.448 518.948,-364.097 518.496,-371.294 511.679,-373.645"/>
<text text-anchor="middle" x="407" y="-871.5" font-family="Helvetica,sans-Serif" font-size="10.00"> #speed</text>
<text text-anchor="middle" x="407" y="-860.5" font-family="Helvetica,sans-Serif" font-size="10.00">#luck</text>
<text text-anchor="middle" x="407" y="-849.5" font-family="Helvetica,sans-Serif" font-size="10.00">#health</text>
<text text-anchor="middle" x="407" y="-838.5" font-family="Helvetica,sans-Serif" font-size="10.00">#magic</text>
<text text-anchor="middle" x="407" y="-827.5" font-family="Helvetica,sans-Serif" font-size="10.00">#maximumMagic</text>
<text text-anchor="middle" x="407" y="-816.5" font-family="Helvetica,sans-Serif" font-size="10.00">#attack</text>
<text text-anchor="middle" x="407" y="-805.5" font-family="Helvetica,sans-Serif" font-size="10.00">#defence</text>
<text text-anchor="middle" x="407" y="-794.5" font-family="Helvetica,sans-Serif" font-size="10.00">#level</text>
<text text-anchor="middle" x="407" y="-783.5" font-family="Helvetica,sans-Serif" font-size="10.00">#rage</text>
</g>
<!-- Node8&#45;&gt;Node12 -->
<g id="edge27" class="edge"><title>Node8&#45;&gt;Node12</title>
<path fill="none" stroke="#404040" d="M373.209,-1319.07C413.99,-1315.67 529.368,-1300.36 588.5,-1234 628.913,-1188.65 631.749,-1163.6 627.5,-1103 622.822,-1036.29 611.178,-1020.71 606.5,-954 595.723,-800.317 611.014,-761.176 627.5,-608 628.738,-596.497 630.387,-584.228 632.118,-572.532"/>
<polygon fill="none" stroke="#404040" points="632.127,-572.472 629.078,-565.937 633.937,-560.609 636.986,-567.144 632.127,-572.472"/>
<text text-anchor="middle" x="624" y="-946" font-family="Helvetica,sans-Serif" font-size="10.00"> #magic</text>
</g>
<!-- Node8&#45;&gt;Node14 -->
<g id="edge20" class="edge"><title>Node8&#45;&gt;Node14</title>
<path fill="none" stroke="#404040" d="M355.595,-1292.33C350.379,-1231.4 344.161,-1082.3 393.5,-972 407.737,-940.171 432.025,-910.712 455.713,-887.042"/>
<polygon fill="none" stroke="#404040" points="455.795,-886.962 457.303,-879.91 464.393,-878.59 462.885,-885.641 455.795,-886.962"/>
<text text-anchor="middle" x="378" y="-1111.5" font-family="Helvetica,sans-Serif" font-size="10.00"> +money</text>
</g>
<!-- Node8&#45;&gt;Node15 -->
<g id="edge25" class="edge"><title>Node8&#45;&gt;Node15</title>
<path fill="none" stroke="#404040" d="M373.177,-1319.79C400.845,-1318.49 460.284,-1311.28 486.5,-1274 522.849,-1222.31 507.853,-1148.74 488.707,-1095.82"/>
<polygon fill="none" stroke="#404040" points="488.68,-1095.75 482.819,-1091.55 484.444,-1084.52 490.304,-1088.73 488.68,-1095.75"/>
<text text-anchor="middle" x="547" y="-1191.5" font-family="Helvetica,sans-Serif" font-size="10.00"> &#45;expToNextLevel</text>
<text text-anchor="middle" x="547" y="-1180.5" font-family="Helvetica,sans-Serif" font-size="10.00">&#45;exp</text>
</g>
<!-- Node9&#45;&gt;Node3 -->
<g id="edge8" class="edge"><title>Node9&#45;&gt;Node3</title>
<path fill="none" stroke="#404040" d="M348.709,-105.398C343.925,-94.1988 338.313,-81.0624 333.126,-68.9199"/>
<polygon fill="none" stroke="#404040" points="333.038,-68.7136 327.002,-64.7673 328.324,-57.6783 334.359,-61.6246 333.038,-68.7136"/>
<text text-anchor="middle" x="360" y="-79" font-family="Helvetica,sans-Serif" font-size="10.00"> +enemy</text>
</g>
<!-- Node9&#45;&gt;Node14 -->
<g id="edge19" class="edge"><title>Node9&#45;&gt;Node14</title>
<path fill="none" stroke="#404040" d="M361.55,-162.623C364.678,-231.143 376.246,-414 414.5,-561 428.887,-616.285 451.845,-675.417 472.903,-724.033"/>
<polygon fill="none" stroke="#404040" points="472.976,-724.201 479.045,-728.095 477.784,-735.195 471.715,-731.301 472.976,-724.201"/>
<text text-anchor="middle" x="432.5" y="-513" font-family="Helvetica,sans-Serif" font-size="10.00"> &#45;enemy</text>
</g>
<!-- Node10&#45;&gt;Node9 -->
<g id="edge9" class="edge"><title>Node10&#45;&gt;Node9</title>
<path fill="none" stroke="midnightblue" d="M511.176,-259.344C473.788,-228.49 425.648,-188.763 393.969,-162.62"/>
<polygon fill="none" stroke="midnightblue" points="509.04,-262.12 518.981,-265.785 513.496,-256.721 509.04,-262.12"/>
</g>
<!-- Node10&#45;&gt;Node13 -->
<g id="edge16" class="edge"><title>Node10&#45;&gt;Node13</title>
<path fill="none" stroke="#404040" d="M614.108,-348.378C644.989,-378.547 682.526,-422.348 699.5,-470 714.091,-510.961 706.62,-560.322 696.921,-596.499"/>
<polygon fill="none" stroke="#404040" points="696.867,-596.691 699.068,-603.558 693.575,-608.231 691.374,-601.364 696.867,-596.691"/>
<text text-anchor="middle" x="725.5" y="-518.5" font-family="Helvetica,sans-Serif" font-size="10.00"> #target</text>
<text text-anchor="middle" x="725.5" y="-507.5" font-family="Helvetica,sans-Serif" font-size="10.00">#user</text>
</g>
<!-- Node10&#45;&gt;Node15 -->
<g id="edge23" class="edge"><title>Node10&#45;&gt;Node15</title>
<path fill="none" stroke="midnightblue" d="M556.114,-421.93C550.488,-465.955 542.029,-516.317 529.5,-561 506.811,-641.916 472.283,-652.656 455.5,-735 438.636,-817.743 454.265,-840.565 455.5,-925 455.725,-940.398 456.141,-957.092 456.592,-972.45"/>
<polygon fill="none" stroke="midnightblue" points="559.617,-422.118 557.378,-411.763 552.671,-421.255 559.617,-422.118"/>
</g>
<!-- Node11 -->
<g id="node9" class="node"><title>Node11</title>
<polygon fill="none" stroke="#bfbfbf" points="840,-1000 840,-1057 875,-1057 875,-1000 840,-1000"/>
<text text-anchor="middle" x="857.5" y="-1045" font-family="Helvetica,sans-Serif" font-size="10.00">bool</text>
<polyline fill="none" stroke="#bfbfbf" points="840,-1038 875,-1038 "/>
<text text-anchor="middle" x="857.5" y="-1026" font-family="Helvetica,sans-Serif" font-size="10.00"> </text>
<polyline fill="none" stroke="#bfbfbf" points="840,-1019 875,-1019 "/>
<text text-anchor="middle" x="857.5" y="-1007" font-family="Helvetica,sans-Serif" font-size="10.00"> </text>
</g>
<!-- Node11&#45;&gt;Node3 -->
<g id="edge31" class="edge"><title>Node11&#45;&gt;Node3</title>
<path fill="none" stroke="#404040" d="M871.567,-999.999C889.302,-962.719 917.5,-893.6 917.5,-831 917.5,-831 917.5,-831 917.5,-133 917.5,-80.6394 558.539,-47.6918 395.451,-35.4247"/>
<polygon fill="none" stroke="#404040" points="395.081,-35.3973 388.801,-38.9417 383.114,-34.5081 389.394,-30.9637 395.081,-35.3973"/>
<text text-anchor="middle" x="951" y="-513" font-family="Helvetica,sans-Serif" font-size="10.00"> +canRunAway</text>
</g>
<!-- Node11&#45;&gt;Node10 -->
<g id="edge12" class="edge"><title>Node11&#45;&gt;Node10</title>
<path fill="none" stroke="#404040" d="M856.901,-999.725C854.288,-888.341 842.542,-477.732 810.5,-430 768.228,-367.028 683.589,-334.737 625.988,-319.366"/>
<polygon fill="none" stroke="#404040" points="625.759,-319.308 618.956,-321.699 614.132,-316.338 620.935,-313.948 625.759,-319.308"/>
<text text-anchor="middle" x="868" y="-645.5" font-family="Helvetica,sans-Serif" font-size="10.00"> #canRage</text>
</g>
<!-- Node11&#45;&gt;Node14 -->
<g id="edge21" class="edge"><title>Node11&#45;&gt;Node14</title>
<path fill="none" stroke="#404040" d="M839.76,-1018.71C815.521,-1006.94 770.49,-985.938 730.5,-972 700.979,-961.71 690.087,-968.708 662.5,-954 636.52,-940.149 611.32,-920.603 589.628,-901.161"/>
<polygon fill="none" stroke="#404040" points="589.405,-900.956 582.278,-899.854 580.554,-892.852 587.681,-893.954 589.405,-900.956"/>
<text text-anchor="middle" x="695.5" y="-946" font-family="Helvetica,sans-Serif" font-size="10.00"> &#45;wasCriticalHit</text>
</g>
<!-- Node12&#45;&gt;Node10 -->
<g id="edge13" class="edge"><title>Node12&#45;&gt;Node10</title>
<path fill="none" stroke="#404040" d="M625.594,-470.495C620.494,-456.382 614.584,-440.033 608.515,-423.241"/>
<polygon fill="none" stroke="#404040" points="608.374,-422.852 602.573,-418.569 604.295,-411.567 610.097,-415.85 608.374,-422.852"/>
<text text-anchor="middle" x="640" y="-444" font-family="Helvetica,sans-Serif" font-size="10.00"> #special1</text>
<text text-anchor="middle" x="640" y="-433" font-family="Helvetica,sans-Serif" font-size="10.00">#special2</text>
</g>
<!-- Node13&#45;&gt;Node12 -->
<g id="edge14" class="edge"><title>Node13&#45;&gt;Node12</title>
<path fill="none" stroke="midnightblue" d="M665.385,-598.527C661.794,-586.192 657.952,-572.999 654.423,-560.879"/>
<polygon fill="none" stroke="midnightblue" points="662.045,-599.576 668.202,-608.199 668.766,-597.619 662.045,-599.576"/>
</g>
<!-- Node14&#45;&gt;Node13 -->
<g id="edge17" class="edge"><title>Node14&#45;&gt;Node13</title>
<path fill="none" stroke="#404040" d="M580.515,-762.486C599.518,-740.699 620.243,-716.938 637.795,-696.814"/>
<polygon fill="none" stroke="#404040" points="637.989,-696.592 638.918,-689.441 645.877,-687.549 644.947,-694.7 637.989,-696.592"/>
<text text-anchor="middle" x="652.5" y="-709" font-family="Helvetica,sans-Serif" font-size="10.00"> #manager</text>
</g>
<!-- Node15&#45;&gt;Node14 -->
<g id="edge22" class="edge"><title>Node15&#45;&gt;Node14</title>
<path fill="none" stroke="#404040" d="M476.498,-972.241C480.206,-960.856 484.227,-948.511 488.295,-936.02"/>
<polygon fill="none" stroke="#404040" points="488.321,-935.94 486.376,-928.997 492.037,-924.53 493.982,-931.474 488.321,-935.94"/>
<text text-anchor="middle" x="502" y="-946" font-family="Helvetica,sans-Serif" font-size="10.00"> &#45;player</text>
</g>
<!-- Node16 -->
<g id="node14" class="node"><title>Node16</title>
<polygon fill="none" stroke="#bfbfbf" points="460,-487 460,-544 521,-544 521,-487 460,-487"/>
<text text-anchor="middle" x="490.5" y="-532" font-family="Helvetica,sans-Serif" font-size="10.00">Texture2D</text>
<polyline fill="none" stroke="#bfbfbf" points="460,-525 521,-525 "/>
<text text-anchor="middle" x="490.5" y="-513" font-family="Helvetica,sans-Serif" font-size="10.00"> </text>
<polyline fill="none" stroke="#bfbfbf" points="460,-506 521,-506 "/>
<text text-anchor="middle" x="490.5" y="-494" font-family="Helvetica,sans-Serif" font-size="10.00"> </text>
</g>
<!-- Node16&#45;&gt;Node10 -->
<g id="edge28" class="edge"><title>Node16&#45;&gt;Node10</title>
<path fill="none" stroke="#404040" d="M491.166,-486.937C492.204,-470.152 494.686,-448.458 500.5,-430 504.022,-418.818 508.57,-407.47 513.63,-396.418"/>
<polygon fill="none" stroke="#404040" points="513.679,-396.315 512.649,-389.178 518.841,-385.482 519.871,-392.62 513.679,-396.315"/>
<text text-anchor="middle" x="518" y="-438.5" font-family="Helvetica,sans-Serif" font-size="10.00"> #image</text>
</g>
</g>
</svg>
        <g id="navigator" transform="translate(0 0)" fill="#404254">
                <rect fill="#f2f5e9" fill-opacity="0.5" stroke="#606060" stroke-width=".5" x="0" y="0" width="60" height="60"/>
                <use id="zoomplus" xlink:href="#zoomPlus" x="17" y="9" onmousedown="handleZoom(evt,'in')"/>
                <use id="zoomminus" xlink:href="#zoomMin" x="42" y="9" onmousedown="handleZoom(evt,'out')"/>
                <use id="reset" xlink:href="#resetDef" x="30" y="36" onmousedown="handleReset()"/>
                <g id="arrowUp" xlink:href="#dirArrow" transform="translate(30 24)" onmousedown="handlePan(0,-1)">
                  <use xlink:href="#rim" fill="#404040">
                        <set attributeName="fill" to="#808080" begin="arrowUp.mouseover" end="arrowUp.mouseout"/>
                  </use>
                  <path fill="none" stroke="white" stroke-width="1.5" d="M0,-3.0v7 M-2.5,-0.5L0,-3.0L2.5,-0.5"/>
                </g>
                <g id="arrowRight" xlink:href="#dirArrow" transform="rotate(90) translate(36 -43)" onmousedown="handlePan(1,0)">
                  <use xlink:href="#rim" fill="#404040">
                        <set attributeName="fill" to="#808080" begin="arrowRight.mouseover" end="arrowRight.mouseout"/>
                  </use>
                  <path fill="none" stroke="white" stroke-width="1.5" d="M0,-3.0v7 M-2.5,-0.5L0,-3.0L2.5,-0.5"/>
                </g>
                <g id="arrowDown" xlink:href="#dirArrow" transform="rotate(180) translate(-30 -48)" onmousedown="handlePan(0,1)">
                  <use xlink:href="#rim" fill="#404040">
                        <set attributeName="fill" to="#808080" begin="arrowDown.mouseover" end="arrowDown.mouseout"/>
                  </use>
                  <path fill="none" stroke="white" stroke-width="1.5" d="M0,-3.0v7 M-2.5,-0.5L0,-3.0L2.5,-0.5"/>
                </g>
                <g id="arrowLeft" xlink:href="#dirArrow" transform="rotate(270) translate(-36 17)" onmousedown="handlePan(-1,0)">
                  <use xlink:href="#rim" fill="#404040">
                        <set attributeName="fill" to="#808080" begin="arrowLeft.mouseover" end="arrowLeft.mouseout"/>
                  </use>
                  <path fill="none" stroke="white" stroke-width="1.5" d="M0,-3.0v7 M-2.5,-0.5L0,-3.0L2.5,-0.5"/>
                </g>
        </g>
        <svg viewBox="0 0 15 15" width="100%" height="30px" preserveAspectRatio="xMaxYMin meet">
         <g id="arrow_out" transform="scale(0.3 0.3)">
          <a xlink:href="class_battle_started_event_args__coll__graph_org.svg" target="_base">
           <rect id="button" ry="5" rx="5" y="6" x="6" height="38" width="38"
                fill="#f2f5e9" fill-opacity="0.5" stroke="#606060" stroke-width="1.0"/>
           <path id="arrow"
             d="M 11.500037,31.436501 C 11.940474,20.09759 22.043105,11.32322 32.158766,21.979434 L 37.068811,17.246167 C 37.068811,17.246167 37.088388,32 37.088388,32 L 22.160133,31.978069 C 22.160133,31.978069 26.997745,27.140456 26.997745,27.140456 C 18.528582,18.264221 13.291696,25.230495 11.500037,31.436501 z"
             style="fill:#404040;"/>
          </a>
         </g>
        </svg>
</svg>
