<?xml version="1.0" encoding="UTF-8" standalone="no"?>
<!DOCTYPE svg PUBLIC "-//W3C//DTD SVG 1.1//EN"
 "http://www.w3.org/Graphics/SVG/1.1/DTD/svg11.dtd">
<!-- Generated by graphviz version 2.38.0 (20140413.2041)
 -->
<!-- Title: BattleManager Pages: 1 -->
<!--zoomable 1029 -->
<svg id="main" version="1.1" xmlns="http://www.w3.org/2000/svg" xmlns:xlink="http://www.w3.org/1999/xlink" xml:space="preserve" onload="init(evt)">
<style type="text/css"><![CDATA[
.edge:hover path { stroke: red; }
.edge:hover polygon { stroke: red; fill: red; }
]]></style>
<script type="text/javascript"><![CDATA[
var edges = document.getElementsByTagName('g');
if (edges && edges.length) {
  for (var i=0;i<edges.length;i++) {
    if (edges[i].id.substr(0,4)=='edge') {
      edges[i].setAttribute('class','edge');
    }
  }
}
]]></script>
        <defs>
                <circle id="rim" cx="0" cy="0" r="7"/>
                <circle id="rim2" cx="0" cy="0" r="3.5"/>
                <g id="zoomPlus">
                        <use xlink:href="#rim" fill="#404040">
                                <set attributeName="fill" to="#808080" begin="zoomplus.mouseover" end="zoomplus.mouseout"/>
                        </use>
                        <path d="M-4,0h8M0,-4v8" fill="none" stroke="white" stroke-width="1.5" pointer-events="none"/>
                </g>
                <g id="zoomMin">
                        <use xlink:href="#rim" fill="#404040">
                                <set attributeName="fill" to="#808080" begin="zoomminus.mouseover" end="zoomminus.mouseout"/>
                        </use>
                        <path d="M-4,0h8" fill="none" stroke="white" stroke-width="1.5" pointer-events="none"/>
                </g>
                <g id="dirArrow">
                        <path fill="none" stroke="white" stroke-width="1.5" d="M0,-3.0v7 M-2.5,-0.5L0,-3.0L2.5,-0.5"/>
                </g>
               <g id="resetDef">
                       <use xlink:href="#rim2" fill="#404040">
                               <set attributeName="fill" to="#808080" begin="reset.mouseover" end="reset.mouseout"/>
                       </use>
               </g>
        </defs>

<script type="text/javascript">
var viewWidth = 811;
var viewHeight = 1029;
var sectionId = 'dynsection-0';
</script>
<script xlink:href="svgpan.js"/>
<svg id="graph" class="graph">
<g id="viewport">
<title>BattleManager</title>
<!-- Node1 -->
<g id="node1" class="node"><title>Node1</title>
<polygon fill="#bfbfbf" stroke="black" points="177,-715.5 177,-904.5 293,-904.5 293,-715.5 177,-715.5"/>
<text text-anchor="middle" x="235" y="-892.5" font-family="Helvetica,sans-Serif" font-size="10.00">BattleManager</text>
<polyline fill="none" stroke="black" points="177,-885.5 293,-885.5 "/>
<text text-anchor="start" x="185" y="-873.5" font-family="Helvetica,sans-Serif" font-size="10.00">+ Player</text>
<text text-anchor="start" x="185" y="-862.5" font-family="Helvetica,sans-Serif" font-size="10.00">+ Enemy</text>
<text text-anchor="start" x="185" y="-851.5" font-family="Helvetica,sans-Serif" font-size="10.00">+ WasCriticalHit</text>
<polyline fill="none" stroke="black" points="177,-844.5 293,-844.5 "/>
<text text-anchor="start" x="185" y="-832.5" font-family="Helvetica,sans-Serif" font-size="10.00">+ BattleManager()</text>
<text text-anchor="start" x="185" y="-821.5" font-family="Helvetica,sans-Serif" font-size="10.00">+ playerFirst()</text>
<text text-anchor="start" x="185" y="-810.5" font-family="Helvetica,sans-Serif" font-size="10.00">+ switchPlayers()</text>
<text text-anchor="start" x="185" y="-799.5" font-family="Helvetica,sans-Serif" font-size="10.00">+ isCriticalHit()</text>
<text text-anchor="start" x="185" y="-788.5" font-family="Helvetica,sans-Serif" font-size="10.00">+ ranAway()</text>
<text text-anchor="start" x="185" y="-777.5" font-family="Helvetica,sans-Serif" font-size="10.00">+ damageCalculation()</text>
<text text-anchor="start" x="185" y="-766.5" font-family="Helvetica,sans-Serif" font-size="10.00">+ enemyMove()</text>
<text text-anchor="start" x="185" y="-755.5" font-family="Helvetica,sans-Serif" font-size="10.00">+ enemySpecialMove()</text>
<text text-anchor="start" x="185" y="-744.5" font-family="Helvetica,sans-Serif" font-size="10.00">+ battleWon()</text>
<text text-anchor="start" x="185" y="-733.5" font-family="Helvetica,sans-Serif" font-size="10.00">+ playerFainted()</text>
<text text-anchor="start" x="185" y="-722.5" font-family="Helvetica,sans-Serif" font-size="10.00">&#45; characterFainted()</text>
</g>
<!-- Node8 -->
<g id="node8" class="node"><title>Node8</title>
<g id="a_node8"><a xlink:href="class_character_move.html" target="_top" xlink:title="Astract base class for character moves ">
<polygon fill="none" stroke="black" points="269,-579 269,-658 355,-658 355,-579 269,-579"/>
<text text-anchor="middle" x="312" y="-646" font-family="Helvetica,sans-Serif" font-size="10.00">CharacterMove</text>
<polyline fill="none" stroke="black" points="269,-639 355,-639 "/>
<text text-anchor="start" x="277" y="-627" font-family="Helvetica,sans-Serif" font-size="10.00">+ User</text>
<text text-anchor="start" x="277" y="-616" font-family="Helvetica,sans-Serif" font-size="10.00">+ Target</text>
<text text-anchor="start" x="277" y="-605" font-family="Helvetica,sans-Serif" font-size="10.00">+ Text</text>
<polyline fill="none" stroke="black" points="269,-598 355,-598 "/>
<text text-anchor="start" x="277" y="-586" font-family="Helvetica,sans-Serif" font-size="10.00">+ performMove()</text>
</a>
</g>
</g>
<!-- Node1&#45;&gt;Node8 -->
<g id="edge11" class="edge"><title>Node1&#45;&gt;Node8</title>
<path fill="none" stroke="#404040" d="M257.678,-715.257C261.056,-705.226 264.827,-695.298 269,-686 271.573,-680.267 274.597,-674.462 277.83,-668.793"/>
<polygon fill="none" stroke="#404040" points="278.065,-668.402 277.724,-661.199 284.241,-658.113 284.583,-665.316 278.065,-668.402"/>
<text text-anchor="middle" x="292" y="-689" font-family="Helvetica,sans-Serif" font-size="10.00"> #manager</text>
</g>
<!-- Node2 -->
<g id="node2" class="node"><title>Node2</title>
<polygon fill="none" stroke="#bfbfbf" points="209.5,-963.5 209.5,-1020.5 250.5,-1020.5 250.5,-963.5 209.5,-963.5"/>
<text text-anchor="middle" x="230" y="-1008.5" font-family="Helvetica,sans-Serif" font-size="10.00">string</text>
<polyline fill="none" stroke="#bfbfbf" points="209.5,-1001.5 250.5,-1001.5 "/>
<text text-anchor="middle" x="230" y="-989.5" font-family="Helvetica,sans-Serif" font-size="10.00"> </text>
<polyline fill="none" stroke="#bfbfbf" points="209.5,-982.5 250.5,-982.5 "/>
<text text-anchor="middle" x="230" y="-970.5" font-family="Helvetica,sans-Serif" font-size="10.00"> </text>
</g>
<!-- Node2&#45;&gt;Node1 -->
<g id="edge1" class="edge"><title>Node2&#45;&gt;Node1</title>
<path fill="none" stroke="#404040" d="M230.277,-963.206C230.434,-950.888 230.667,-936.219 231,-923 231.051,-920.961 231.105,-918.901 231.161,-916.825"/>
<polygon fill="none" stroke="#404040" points="231.162,-916.795 227.335,-910.684 231.505,-904.8 235.332,-910.912 231.162,-916.795"/>
<text text-anchor="middle" x="273" y="-937" font-family="Helvetica,sans-Serif" font-size="10.00"> +forceEnemyMove</text>
<text text-anchor="middle" x="273" y="-926" font-family="Helvetica,sans-Serif" font-size="10.00">+forceCriticalHits</text>
</g>
<!-- Node4 -->
<g id="node4" class="node"><title>Node4</title>
<g id="a_node4"><a xlink:href="class_character.html" target="_top" xlink:title="Base abstract class for Enemy and Player to inherit from. Defines all shared variables, their constructor and their setters and getters ">
<polygon fill="none" stroke="black" points="307.5,-150.5 307.5,-361.5 402.5,-361.5 402.5,-150.5 307.5,-150.5"/>
<text text-anchor="middle" x="355" y="-349.5" font-family="Helvetica,sans-Serif" font-size="10.00">Character</text>
<polyline fill="none" stroke="black" points="307.5,-342.5 402.5,-342.5 "/>
<text text-anchor="start" x="315.5" y="-330.5" font-family="Helvetica,sans-Serif" font-size="10.00">+ Name</text>
<text text-anchor="start" x="315.5" y="-319.5" font-family="Helvetica,sans-Serif" font-size="10.00">+ Level</text>
<text text-anchor="start" x="315.5" y="-308.5" font-family="Helvetica,sans-Serif" font-size="10.00">+ Health</text>
<text text-anchor="start" x="315.5" y="-297.5" font-family="Helvetica,sans-Serif" font-size="10.00">+ Attack</text>
<text text-anchor="start" x="315.5" y="-286.5" font-family="Helvetica,sans-Serif" font-size="10.00">+ Defence</text>
<text text-anchor="start" x="315.5" y="-275.5" font-family="Helvetica,sans-Serif" font-size="10.00">+ MaximumMagic</text>
<text text-anchor="start" x="315.5" y="-264.5" font-family="Helvetica,sans-Serif" font-size="10.00">+ Magic</text>
<text text-anchor="start" x="315.5" y="-253.5" font-family="Helvetica,sans-Serif" font-size="10.00">+ Luck</text>
<text text-anchor="start" x="315.5" y="-242.5" font-family="Helvetica,sans-Serif" font-size="10.00">+ Speed</text>
<text text-anchor="start" x="315.5" y="-231.5" font-family="Helvetica,sans-Serif" font-size="10.00">+ Rage</text>
<text text-anchor="start" x="315.5" y="-220.5" font-family="Helvetica,sans-Serif" font-size="10.00">+ CanRage</text>
<text text-anchor="start" x="315.5" y="-209.5" font-family="Helvetica,sans-Serif" font-size="10.00">+ Special1</text>
<text text-anchor="start" x="315.5" y="-198.5" font-family="Helvetica,sans-Serif" font-size="10.00">+ Special2</text>
<text text-anchor="start" x="315.5" y="-187.5" font-family="Helvetica,sans-Serif" font-size="10.00">+ Image</text>
<polyline fill="none" stroke="black" points="307.5,-180.5 402.5,-180.5 "/>
<text text-anchor="start" x="315.5" y="-168.5" font-family="Helvetica,sans-Serif" font-size="10.00">+ IsEnraged()</text>
<text text-anchor="start" x="315.5" y="-157.5" font-family="Helvetica,sans-Serif" font-size="10.00"># Character()</text>
</a>
</g>
</g>
<!-- Node2&#45;&gt;Node4 -->
<g id="edge4" class="edge"><title>Node2&#45;&gt;Node4</title>
<path fill="none" stroke="#404040" d="M209.469,-989.915C180.634,-987.208 128.687,-977.778 102,-945 64.0221,-898.354 83,-871.151 83,-811 83,-811 83,-811 83,-464.5 83,-358.432 215.363,-299.372 295.419,-273.351"/>
<polygon fill="none" stroke="#404040" points="295.865,-273.211 300.385,-267.592 307.31,-269.603 302.79,-275.222 295.865,-273.211"/>
<text text-anchor="middle" x="99.5" y="-616" font-family="Helvetica,sans-Serif" font-size="10.00"> #name</text>
</g>
<!-- Node7 -->
<g id="node7" class="node"><title>Node7</title>
<g id="a_node7"><a xlink:href="class_special_move.html" target="_top" xlink:title="Special move abstract base class that expands upon CharacterMove, adding magic properties ...">
<polygon fill="none" stroke="black" points="221,-420.5 221,-510.5 319,-510.5 319,-420.5 221,-420.5"/>
<text text-anchor="middle" x="270" y="-498.5" font-family="Helvetica,sans-Serif" font-size="10.00">SpecialMove</text>
<polyline fill="none" stroke="black" points="221,-491.5 319,-491.5 "/>
<text text-anchor="start" x="229" y="-479.5" font-family="Helvetica,sans-Serif" font-size="10.00">+ Magic</text>
<text text-anchor="start" x="229" y="-468.5" font-family="Helvetica,sans-Serif" font-size="10.00">+ Desc</text>
<polyline fill="none" stroke="black" points="221,-461.5 319,-461.5 "/>
<text text-anchor="start" x="229" y="-449.5" font-family="Helvetica,sans-Serif" font-size="10.00">+ setUp()</text>
<text text-anchor="start" x="229" y="-438.5" font-family="Helvetica,sans-Serif" font-size="10.00">+ decreaseMagic()</text>
<text text-anchor="start" x="229" y="-427.5" font-family="Helvetica,sans-Serif" font-size="10.00"># SpecialMove()</text>
</a>
</g>
</g>
<!-- Node2&#45;&gt;Node7 -->
<g id="edge12" class="edge"><title>Node2&#45;&gt;Node7</title>
<path fill="none" stroke="#404040" d="M211.796,-963.468C203.301,-950.936 192.898,-936.026 183,-923 176.7,-914.708 171.964,-914.63 168,-905 130.822,-814.692 125.824,-780.622 150,-686 165.494,-625.357 201.574,-563.429 230.151,-520.881"/>
<polygon fill="none" stroke="#404040" points="230.29,-520.678 230.366,-513.467 237.051,-510.764 236.975,-517.974 230.29,-520.678"/>
<text text-anchor="middle" x="165" y="-689" font-family="Helvetica,sans-Serif" font-size="10.00"> #desc</text>
</g>
<!-- Node2&#45;&gt;Node8 -->
<g id="edge9" class="edge"><title>Node2&#45;&gt;Node8</title>
<path fill="none" stroke="#404040" d="M250.716,-986.285C271.117,-980.418 301.172,-968.207 315,-945 365.963,-859.473 345.363,-737.509 327.56,-669.763"/>
<polygon fill="none" stroke="#404040" points="327.554,-669.744 322.118,-665.007 324.399,-658.166 329.836,-662.903 327.554,-669.744"/>
<text text-anchor="middle" x="360.5" y="-807.5" font-family="Helvetica,sans-Serif" font-size="10.00"> #text</text>
</g>
<!-- Node11 -->
<g id="node11" class="node"><title>Node11</title>
<g id="a_node11"><a xlink:href="class_item.html" target="_top" xlink:title="Abstract class for items that can be equipped to a player, increasing some of their stats ...">
<polygon fill="none" stroke="black" points="622.5,-765 622.5,-855 699.5,-855 699.5,-765 622.5,-765"/>
<text text-anchor="middle" x="661" y="-843" font-family="Helvetica,sans-Serif" font-size="10.00">Item</text>
<polyline fill="none" stroke="black" points="622.5,-836 699.5,-836 "/>
<text text-anchor="start" x="630.5" y="-824" font-family="Helvetica,sans-Serif" font-size="10.00">+ Name</text>
<text text-anchor="start" x="630.5" y="-813" font-family="Helvetica,sans-Serif" font-size="10.00">+ Desc</text>
<text text-anchor="start" x="630.5" y="-802" font-family="Helvetica,sans-Serif" font-size="10.00">+ Cost</text>
<polyline fill="none" stroke="black" points="622.5,-795 699.5,-795 "/>
<text text-anchor="start" x="630.5" y="-783" font-family="Helvetica,sans-Serif" font-size="10.00">+ applyBuffs()</text>
<text text-anchor="start" x="630.5" y="-772" font-family="Helvetica,sans-Serif" font-size="10.00">+ revertBuffs()</text>
</a>
</g>
</g>
<!-- Node2&#45;&gt;Node11 -->
<g id="edge21" class="edge"><title>Node2&#45;&gt;Node11</title>
<path fill="none" stroke="#404040" d="M250.533,-987.22C283.869,-980.734 351.522,-966.114 406,-945 480.506,-916.124 561.341,-871.095 611.582,-841.324"/>
<polygon fill="none" stroke="#404040" points="611.827,-841.178 614.93,-834.669 622.132,-835.03 619.029,-841.539 611.827,-841.178"/>
<text text-anchor="middle" x="472" y="-937" font-family="Helvetica,sans-Serif" font-size="10.00"> #desc</text>
<text text-anchor="middle" x="472" y="-926" font-family="Helvetica,sans-Serif" font-size="10.00">#name</text>
</g>
<!-- Node3 -->
<g id="node3" class="node"><title>Node3</title>
<g id="a_node3"><a xlink:href="class_enemy.html" target="_top" xlink:title="Defines an AI controller enemy to fight in battle scenes">
<polygon fill="none" stroke="black" points="321.5,-28 321.5,-85 388.5,-85 388.5,-28 321.5,-28"/>
<text text-anchor="middle" x="355" y="-73" font-family="Helvetica,sans-Serif" font-size="10.00">Enemy</text>
<polyline fill="none" stroke="black" points="321.5,-66 388.5,-66 "/>
<text text-anchor="start" x="329.5" y="-54" font-family="Helvetica,sans-Serif" font-size="10.00">+ ExpGiven</text>
<polyline fill="none" stroke="black" points="321.5,-47 388.5,-47 "/>
<text text-anchor="start" x="329.5" y="-35" font-family="Helvetica,sans-Serif" font-size="10.00">+ Enemy()</text>
</a>
</g>
</g>
<!-- Node3&#45;&gt;Node1 -->
<g id="edge2" class="edge"><title>Node3&#45;&gt;Node1</title>
<path fill="none" stroke="#404040" d="M335.194,-85.294C294.965,-143.75 205.047,-285.173 176,-420 155.509,-515.113 176.085,-624.811 198.373,-703.419"/>
<polygon fill="none" stroke="#404040" points="198.469,-703.748 203.983,-708.395 201.814,-715.273 196.3,-710.625 198.469,-703.748"/>
<text text-anchor="middle" x="194" y="-463" font-family="Helvetica,sans-Serif" font-size="10.00"> &#45;enemy</text>
</g>
<!-- Node4&#45;&gt;Node3 -->
<g id="edge3" class="edge"><title>Node4&#45;&gt;Node3</title>
<path fill="none" stroke="midnightblue" d="M355,-140.284C355,-119.663 355,-99.9966 355,-85.0102"/>
<polygon fill="none" stroke="midnightblue" points="351.5,-140.467 355,-150.467 358.5,-140.467 351.5,-140.467"/>
</g>
<!-- Node4&#45;&gt;Node8 -->
<g id="edge10" class="edge"><title>Node4&#45;&gt;Node8</title>
<path fill="none" stroke="#404040" d="M345.214,-361.583C340.574,-407.496 334.602,-461.997 328,-511 325.558,-529.129 322.645,-548.957 319.978,-566.537"/>
<polygon fill="none" stroke="#404040" points="319.949,-566.729 322.996,-573.265 318.136,-578.591 315.088,-572.056 319.949,-566.729"/>
<text text-anchor="middle" x="356" y="-468.5" font-family="Helvetica,sans-Serif" font-size="10.00"> #target</text>
<text text-anchor="middle" x="356" y="-457.5" font-family="Helvetica,sans-Serif" font-size="10.00">#user</text>
</g>
<!-- Node10 -->
<g id="node10" class="node"><title>Node10</title>
<g id="a_node10"><a xlink:href="class_player.html" target="_top" xlink:title="Defines a playable character for use in battle scenes">
<polygon fill="none" stroke="black" points="556,-0.5 556,-112.5 668,-112.5 668,-0.5 556,-0.5"/>
<text text-anchor="middle" x="612" y="-100.5" font-family="Helvetica,sans-Serif" font-size="10.00">Player</text>
<polyline fill="none" stroke="black" points="556,-93.5 668,-93.5 "/>
<text text-anchor="start" x="564" y="-81.5" font-family="Helvetica,sans-Serif" font-size="10.00">+ Exp</text>
<text text-anchor="start" x="564" y="-70.5" font-family="Helvetica,sans-Serif" font-size="10.00">+ Item</text>
<text text-anchor="start" x="564" y="-59.5" font-family="Helvetica,sans-Serif" font-size="10.00">+ ExpToNextLevel</text>
<polyline fill="none" stroke="black" points="556,-52.5 668,-52.5 "/>
<text text-anchor="start" x="564" y="-40.5" font-family="Helvetica,sans-Serif" font-size="10.00">+ Player()</text>
<text text-anchor="start" x="564" y="-29.5" font-family="Helvetica,sans-Serif" font-size="10.00">+ gainExp()</text>
<text text-anchor="start" x="564" y="-18.5" font-family="Helvetica,sans-Serif" font-size="10.00">+ levelUp()</text>
<text text-anchor="start" x="564" y="-7.5" font-family="Helvetica,sans-Serif" font-size="10.00">&#45; setExpToNextLevel()</text>
</a>
</g>
</g>
<!-- Node4&#45;&gt;Node10 -->
<g id="edge19" class="edge"><title>Node4&#45;&gt;Node10</title>
<path fill="none" stroke="midnightblue" d="M410.812,-212.109C453.654,-179.186 512.559,-133.918 555.558,-100.875"/>
<polygon fill="none" stroke="midnightblue" points="408.534,-209.446 402.737,-218.315 412.799,-214.996 408.534,-209.446"/>
</g>
<!-- Node5 -->
<g id="node5" class="node"><title>Node5</title>
<polygon fill="none" stroke="#bfbfbf" points="515.5,-963.5 515.5,-1020.5 544.5,-1020.5 544.5,-963.5 515.5,-963.5"/>
<text text-anchor="middle" x="530" y="-1008.5" font-family="Helvetica,sans-Serif" font-size="10.00">int</text>
<polyline fill="none" stroke="#bfbfbf" points="515.5,-1001.5 544.5,-1001.5 "/>
<text text-anchor="middle" x="530" y="-989.5" font-family="Helvetica,sans-Serif" font-size="10.00"> </text>
<polyline fill="none" stroke="#bfbfbf" points="515.5,-982.5 544.5,-982.5 "/>
<text text-anchor="middle" x="530" y="-970.5" font-family="Helvetica,sans-Serif" font-size="10.00"> </text>
</g>
<!-- Node5&#45;&gt;Node1 -->
<g id="edge16" class="edge"><title>Node5&#45;&gt;Node1</title>
<path fill="none" stroke="#404040" d="M515.091,-988.705C485.127,-983.708 415.943,-970.217 363,-945 335.386,-931.847 328.986,-926.264 307,-905 305.079,-903.142 303.168,-901.231 301.27,-899.276"/>
<polygon fill="none" stroke="#404040" points="301.23,-899.233 294.212,-897.573 293.046,-890.457 300.063,-892.117 301.23,-899.233"/>
<text text-anchor="middle" x="382.5" y="-931.5" font-family="Helvetica,sans-Serif" font-size="10.00"> +money</text>
</g>
<!-- Node5&#45;&gt;Node3 -->
<g id="edge15" class="edge"><title>Node5&#45;&gt;Node3</title>
<path fill="none" stroke="#404040" d="M535.851,-963.382C556.488,-864.269 623.553,-526.722 603,-420 576.337,-281.548 458.808,-153.984 395.587,-93.8098"/>
<polygon fill="none" stroke="#404040" points="395.414,-93.6468 388.302,-92.4515 386.671,-85.4274 393.782,-86.6227 395.414,-93.6468"/>
<text text-anchor="middle" x="628" y="-537.5" font-family="Helvetica,sans-Serif" font-size="10.00"> &#45;expGiven</text>
</g>
<!-- Node5&#45;&gt;Node4 -->
<g id="edge5" class="edge"><title>Node5&#45;&gt;Node4</title>
<path fill="none" stroke="#404040" d="M515.062,-982.194C503.092,-974.193 487.156,-961.181 480,-945 385.627,-731.599 543.957,-643.524 477,-420 464.781,-379.21 437.048,-340.716 411.107,-311.389"/>
<polygon fill="none" stroke="#404040" points="410.832,-311.086 403.838,-309.33 402.769,-302.198 409.763,-303.955 410.832,-311.086"/>
<text text-anchor="middle" x="530.5" y="-660" font-family="Helvetica,sans-Serif" font-size="10.00"> #speed</text>
<text text-anchor="middle" x="530.5" y="-649" font-family="Helvetica,sans-Serif" font-size="10.00">#luck</text>
<text text-anchor="middle" x="530.5" y="-638" font-family="Helvetica,sans-Serif" font-size="10.00">#health</text>
<text text-anchor="middle" x="530.5" y="-627" font-family="Helvetica,sans-Serif" font-size="10.00">#magic</text>
<text text-anchor="middle" x="530.5" y="-616" font-family="Helvetica,sans-Serif" font-size="10.00">#maximumMagic</text>
<text text-anchor="middle" x="530.5" y="-605" font-family="Helvetica,sans-Serif" font-size="10.00">#attack</text>
<text text-anchor="middle" x="530.5" y="-594" font-family="Helvetica,sans-Serif" font-size="10.00">#defence</text>
<text text-anchor="middle" x="530.5" y="-583" font-family="Helvetica,sans-Serif" font-size="10.00">#level</text>
<text text-anchor="middle" x="530.5" y="-572" font-family="Helvetica,sans-Serif" font-size="10.00">#rage</text>
</g>
<!-- Node5&#45;&gt;Node7 -->
<g id="edge13" class="edge"><title>Node5&#45;&gt;Node7</title>
<path fill="none" stroke="#404040" d="M515.491,-986.429C497.721,-980.063 468.016,-966.787 452,-945 350.343,-806.719 444.171,-720.751 364,-569 354.566,-551.144 341.263,-534.014 327.625,-519.042"/>
<polygon fill="none" stroke="#404040" points="327.349,-518.748 320.323,-517.122 319.122,-510.011 326.148,-511.638 327.349,-518.748"/>
<text text-anchor="middle" x="417.5" y="-689" font-family="Helvetica,sans-Serif" font-size="10.00"> #magic</text>
</g>
<!-- Node5&#45;&gt;Node10 -->
<g id="edge23" class="edge"><title>Node5&#45;&gt;Node10</title>
<path fill="none" stroke="#404040" d="M544.622,-989.045C580.028,-983.438 670.226,-963.746 708,-905 731.101,-869.073 728,-853.713 728,-811 728,-811 728,-811 728,-255 728,-205.903 701.018,-158.225 673.08,-122.017"/>
<polygon fill="none" stroke="#404040" points="673.054,-121.985 666.189,-119.778 665.586,-112.592 672.451,-114.799 673.054,-121.985"/>
<text text-anchor="middle" x="765.5" y="-543" font-family="Helvetica,sans-Serif" font-size="10.00"> &#45;expToNextLevel</text>
<text text-anchor="middle" x="765.5" y="-532" font-family="Helvetica,sans-Serif" font-size="10.00">&#45;exp</text>
</g>
<!-- Node5&#45;&gt;Node11 -->
<g id="edge22" class="edge"><title>Node5&#45;&gt;Node11</title>
<path fill="none" stroke="#404040" d="M544.614,-985.792C561.936,-978.934 590.634,-965.315 608,-945 627.031,-922.738 639.74,-892.813 647.929,-866.891"/>
<polygon fill="none" stroke="#404040" points="647.954,-866.804 645.833,-859.912 651.38,-855.304 653.501,-862.196 647.954,-866.804"/>
<text text-anchor="middle" x="636" y="-931.5" font-family="Helvetica,sans-Serif" font-size="10.00"> #cost</text>
</g>
<!-- Node6 -->
<g id="node6" class="node"><title>Node6</title>
<polygon fill="none" stroke="#bfbfbf" points="40.5,-963.5 40.5,-1020.5 75.5,-1020.5 75.5,-963.5 40.5,-963.5"/>
<text text-anchor="middle" x="58" y="-1008.5" font-family="Helvetica,sans-Serif" font-size="10.00">bool</text>
<polyline fill="none" stroke="#bfbfbf" points="40.5,-1001.5 75.5,-1001.5 "/>
<text text-anchor="middle" x="58" y="-989.5" font-family="Helvetica,sans-Serif" font-size="10.00"> </text>
<polyline fill="none" stroke="#bfbfbf" points="40.5,-982.5 75.5,-982.5 "/>
<text text-anchor="middle" x="58" y="-970.5" font-family="Helvetica,sans-Serif" font-size="10.00"> </text>
</g>
<!-- Node6&#45;&gt;Node1 -->
<g id="edge17" class="edge"><title>Node6&#45;&gt;Node1</title>
<path fill="none" stroke="#404040" d="M75.6185,-973.083C97.1305,-951.206 134.767,-912.931 168.067,-879.068"/>
<polygon fill="none" stroke="#404040" points="168.461,-878.666 169.816,-871.584 176.875,-870.11 175.52,-877.193 168.461,-878.666"/>
<text text-anchor="middle" x="154" y="-931.5" font-family="Helvetica,sans-Serif" font-size="10.00"> &#45;wasCriticalHit</text>
</g>
<!-- Node6&#45;&gt;Node4 -->
<g id="edge6" class="edge"><title>Node6&#45;&gt;Node4</title>
<path fill="none" stroke="#404040" d="M43.0636,-963.214C25.8786,-928.595 0,-867.143 0,-811 0,-811 0,-811 0,-464.5 0,-329.325 194.218,-280.595 295.344,-264.383"/>
<polygon fill="none" stroke="#404040" points="295.63,-264.34 300.954,-259.476 307.491,-262.521 302.167,-267.384 295.63,-264.34"/>
<text text-anchor="middle" x="23.5" y="-616" font-family="Helvetica,sans-Serif" font-size="10.00"> #canRage</text>
</g>
<!-- Node7&#45;&gt;Node4 -->
<g id="edge7" class="edge"><title>Node7&#45;&gt;Node4</title>
<path fill="none" stroke="#404040" d="M282.271,-420.216C286.26,-407.128 290.968,-392.865 296,-380 298.075,-374.696 300.28,-369.303 302.574,-363.885"/>
<polygon fill="none" stroke="#404040" points="302.627,-363.762 301.338,-356.667 307.391,-352.749 308.68,-359.844 302.627,-363.762"/>
<text text-anchor="middle" x="318.5" y="-394" font-family="Helvetica,sans-Serif" font-size="10.00"> #special1</text>
<text text-anchor="middle" x="318.5" y="-383" font-family="Helvetica,sans-Serif" font-size="10.00">#special2</text>
</g>
<!-- Node8&#45;&gt;Node7 -->
<g id="edge8" class="edge"><title>Node8&#45;&gt;Node7</title>
<path fill="none" stroke="midnightblue" d="M298.454,-568.8C293.249,-550.086 287.342,-528.848 282.264,-510.591"/>
<polygon fill="none" stroke="midnightblue" points="295.132,-569.917 301.184,-578.614 301.876,-568.042 295.132,-569.917"/>
</g>
<!-- Node9 -->
<g id="node9" class="node"><title>Node9</title>
<polygon fill="none" stroke="#bfbfbf" points="407.5,-437 407.5,-494 468.5,-494 468.5,-437 407.5,-437"/>
<text text-anchor="middle" x="438" y="-482" font-family="Helvetica,sans-Serif" font-size="10.00">Texture2D</text>
<polyline fill="none" stroke="#bfbfbf" points="407.5,-475 468.5,-475 "/>
<text text-anchor="middle" x="438" y="-463" font-family="Helvetica,sans-Serif" font-size="10.00"> </text>
<polyline fill="none" stroke="#bfbfbf" points="407.5,-456 468.5,-456 "/>
<text text-anchor="middle" x="438" y="-444" font-family="Helvetica,sans-Serif" font-size="10.00"> </text>
</g>
<!-- Node9&#45;&gt;Node4 -->
<g id="edge14" class="edge"><title>Node9&#45;&gt;Node4</title>
<path fill="none" stroke="#404040" d="M426.978,-436.946C420.202,-420.005 411.01,-397.025 401.462,-373.156"/>
<polygon fill="none" stroke="#404040" points="401.364,-372.91 395.422,-368.825 396.907,-361.769 402.85,-365.854 401.364,-372.91"/>
<text text-anchor="middle" x="429.5" y="-388.5" font-family="Helvetica,sans-Serif" font-size="10.00"> #image</text>
</g>
<!-- Node10&#45;&gt;Node1 -->
<g id="edge18" class="edge"><title>Node10&#45;&gt;Node1</title>
<path fill="none" stroke="#404040" d="M604.652,-112.676C595.418,-183.656 579.62,-310.819 570,-420 567.577,-447.499 572.638,-646.764 555,-668 490.005,-746.252 421.693,-668.93 331,-715 320.967,-720.096 311.307,-726.61 302.234,-733.826"/>
<polygon fill="none" stroke="#404040" points="302.196,-733.858 300.169,-740.779 293.002,-741.57 295.028,-734.649 302.196,-733.858"/>
<text text-anchor="middle" x="586.5" y="-463" font-family="Helvetica,sans-Serif" font-size="10.00"> &#45;player</text>
</g>
<!-- Node11&#45;&gt;Node10 -->
<g id="edge20" class="edge"><title>Node11&#45;&gt;Node10</title>
<path fill="none" stroke="#404040" d="M663.547,-764.983C665.548,-726.587 668,-669.376 668,-619.5 668,-619.5 668,-619.5 668,-255 668,-210.105 654.441,-161.572 640.666,-123.852"/>
<polygon fill="none" stroke="#404040" points="640.625,-123.74 634.768,-119.533 636.4,-112.509 642.256,-116.716 640.625,-123.74"/>
<text text-anchor="middle" x="680.5" y="-463" font-family="Helvetica,sans-Serif" font-size="10.00"> &#45;item</text>
</g>
</g>
</svg>
        <g id="navigator" transform="translate(0 0)" fill="#404254">
                <rect fill="#f2f5e9" fill-opacity="0.5" stroke="#606060" stroke-width=".5" x="0" y="0" width="60" height="60"/>
                <use id="zoomplus" xlink:href="#zoomPlus" x="17" y="9" onmousedown="handleZoom(evt,'in')"/>
                <use id="zoomminus" xlink:href="#zoomMin" x="42" y="9" onmousedown="handleZoom(evt,'out')"/>
                <use id="reset" xlink:href="#resetDef" x="30" y="36" onmousedown="handleReset()"/>
                <g id="arrowUp" xlink:href="#dirArrow" transform="translate(30 24)" onmousedown="handlePan(0,-1)">
                  <use xlink:href="#rim" fill="#404040">
                        <set attributeName="fill" to="#808080" begin="arrowUp.mouseover" end="arrowUp.mouseout"/>
                  </use>
                  <path fill="none" stroke="white" stroke-width="1.5" d="M0,-3.0v7 M-2.5,-0.5L0,-3.0L2.5,-0.5"/>
                </g>
                <g id="arrowRight" xlink:href="#dirArrow" transform="rotate(90) translate(36 -43)" onmousedown="handlePan(1,0)">
                  <use xlink:href="#rim" fill="#404040">
                        <set attributeName="fill" to="#808080" begin="arrowRight.mouseover" end="arrowRight.mouseout"/>
                  </use>
                  <path fill="none" stroke="white" stroke-width="1.5" d="M0,-3.0v7 M-2.5,-0.5L0,-3.0L2.5,-0.5"/>
                </g>
                <g id="arrowDown" xlink:href="#dirArrow" transform="rotate(180) translate(-30 -48)" onmousedown="handlePan(0,1)">
                  <use xlink:href="#rim" fill="#404040">
                        <set attributeName="fill" to="#808080" begin="arrowDown.mouseover" end="arrowDown.mouseout"/>
                  </use>
                  <path fill="none" stroke="white" stroke-width="1.5" d="M0,-3.0v7 M-2.5,-0.5L0,-3.0L2.5,-0.5"/>
                </g>
                <g id="arrowLeft" xlink:href="#dirArrow" transform="rotate(270) translate(-36 17)" onmousedown="handlePan(-1,0)">
                  <use xlink:href="#rim" fill="#404040">
                        <set attributeName="fill" to="#808080" begin="arrowLeft.mouseover" end="arrowLeft.mouseout"/>
                  </use>
                  <path fill="none" stroke="white" stroke-width="1.5" d="M0,-3.0v7 M-2.5,-0.5L0,-3.0L2.5,-0.5"/>
                </g>
        </g>
        <svg viewBox="0 0 15 15" width="100%" height="30px" preserveAspectRatio="xMaxYMin meet">
         <g id="arrow_out" transform="scale(0.3 0.3)">
          <a xlink:href="class_battle_manager__coll__graph_org.svg" target="_base">
           <rect id="button" ry="5" rx="5" y="6" x="6" height="38" width="38"
                fill="#f2f5e9" fill-opacity="0.5" stroke="#606060" stroke-width="1.0"/>
           <path id="arrow"
             d="M 11.500037,31.436501 C 11.940474,20.09759 22.043105,11.32322 32.158766,21.979434 L 37.068811,17.246167 C 37.068811,17.246167 37.088388,32 37.088388,32 L 22.160133,31.978069 C 22.160133,31.978069 26.997745,27.140456 26.997745,27.140456 C 18.528582,18.264221 13.291696,25.230495 11.500037,31.436501 z"
             style="fill:#404040;"/>
          </a>
         </g>
        </svg>
</svg>
