<?xml version="1.0" encoding="UTF-8" standalone="no"?>
<!DOCTYPE svg PUBLIC "-//W3C//DTD SVG 1.1//EN"
 "http://www.w3.org/Graphics/SVG/1.1/DTD/svg11.dtd">
<!-- Generated by graphviz version 2.38.0 (20140413.2041)
 -->
<!-- Title: MenuScript Pages: 1 -->
<svg width="458pt" height="248pt"
 viewBox="0.00 0.00 457.50 248.00" xmlns="http://www.w3.org/2000/svg" xmlns:xlink="http://www.w3.org/1999/xlink">
<g id="graph0" class="graph" transform="scale(1 1) rotate(0) translate(4 244)">
<title>MenuScript</title>
<!-- Node2 -->
<g id="node1" class="node"><title>Node2</title>
<polygon fill="#bfbfbf" stroke="black" points="189.5,-0.5 189.5,-123.5 299.5,-123.5 299.5,-0.5 189.5,-0.5"/>
<text text-anchor="middle" x="244.5" y="-111.5" font-family="Helvetica,sans-Serif" font-size="10.00">MenuScript</text>
<polyline fill="none" stroke="black" points="189.5,-104.5 299.5,-104.5 "/>
<text text-anchor="middle" x="244.5" y="-92.5" font-family="Helvetica,sans-Serif" font-size="10.00"> </text>
<polyline fill="none" stroke="black" points="189.5,-85.5 299.5,-85.5 "/>
<text text-anchor="start" x="197.5" y="-73.5" font-family="Helvetica,sans-Serif" font-size="10.00">+ ExitPress()</text>
<text text-anchor="start" x="197.5" y="-62.5" font-family="Helvetica,sans-Serif" font-size="10.00">+ NoPress()</text>
<text text-anchor="start" x="197.5" y="-51.5" font-family="Helvetica,sans-Serif" font-size="10.00">+ QuestCreateMenu()</text>
<text text-anchor="start" x="197.5" y="-40.5" font-family="Helvetica,sans-Serif" font-size="10.00">+ loadGame()</text>
<text text-anchor="start" x="197.5" y="-29.5" font-family="Helvetica,sans-Serif" font-size="10.00">+ ExitGame()</text>
<text text-anchor="start" x="197.5" y="-18.5" font-family="Helvetica,sans-Serif" font-size="10.00">+ sound()</text>
<text text-anchor="start" x="197.5" y="-7.5" font-family="Helvetica,sans-Serif" font-size="10.00">&#45; Start()</text>
</g>
<!-- Node3 -->
<g id="node2" class="node"><title>Node3</title>
<g id="a_node2"><a xlink:href="class_mono_behaviour.html" target="_top" xlink:title="{MonoBehaviour\n||}">
<polygon fill="none" stroke="black" points="0,-182.5 0,-239.5 83,-239.5 83,-182.5 0,-182.5"/>
<text text-anchor="middle" x="41.5" y="-227.5" font-family="Helvetica,sans-Serif" font-size="10.00">MonoBehaviour</text>
<polyline fill="none" stroke="black" points="0,-220.5 83,-220.5 "/>
<text text-anchor="middle" x="41.5" y="-208.5" font-family="Helvetica,sans-Serif" font-size="10.00"> </text>
<polyline fill="none" stroke="black" points="0,-201.5 83,-201.5 "/>
<text text-anchor="middle" x="41.5" y="-189.5" font-family="Helvetica,sans-Serif" font-size="10.00"> </text>
</a>
</g>
</g>
<!-- Node3&#45;&gt;Node2 -->
<g id="edge1" class="edge"><title>Node3&#45;&gt;Node2</title>
<path fill="none" stroke="midnightblue" d="M87.9225,-176.384C118.06,-154.56 157.49,-126.008 189.241,-103.015"/>
<polygon fill="none" stroke="midnightblue" points="85.7294,-173.65 79.6827,-182.35 89.835,-179.32 85.7294,-173.65"/>
</g>
<!-- Node4 -->
<g id="node3" class="node"><title>Node4</title>
<polygon fill="none" stroke="#bfbfbf" points="101,-182.5 101,-239.5 172,-239.5 172,-182.5 101,-182.5"/>
<text text-anchor="middle" x="136.5" y="-227.5" font-family="Helvetica,sans-Serif" font-size="10.00">GameObject</text>
<polyline fill="none" stroke="#bfbfbf" points="101,-220.5 172,-220.5 "/>
<text text-anchor="middle" x="136.5" y="-208.5" font-family="Helvetica,sans-Serif" font-size="10.00"> </text>
<polyline fill="none" stroke="#bfbfbf" points="101,-201.5 172,-201.5 "/>
<text text-anchor="middle" x="136.5" y="-189.5" font-family="Helvetica,sans-Serif" font-size="10.00"> </text>
</g>
<!-- Node4&#45;&gt;Node2 -->
<g id="edge2" class="edge"><title>Node4&#45;&gt;Node2</title>
<path fill="none" stroke="#404040" d="M148.689,-182.223C154.793,-169.502 162.745,-154.51 171.5,-142 174.595,-137.578 177.922,-133.147 181.389,-128.765"/>
<polygon fill="none" stroke="#404040" points="181.56,-128.557 182.27,-121.381 189.167,-119.276 188.457,-126.452 181.56,-128.557"/>
<text text-anchor="middle" x="188" y="-150.5" font-family="Helvetica,sans-Serif" font-size="10.00"> &#45;player</text>
</g>
<!-- Node5 -->
<g id="node4" class="node"><title>Node5</title>
<polygon fill="none" stroke="#bfbfbf" points="190.5,-182.5 190.5,-239.5 238.5,-239.5 238.5,-182.5 190.5,-182.5"/>
<text text-anchor="middle" x="214.5" y="-227.5" font-family="Helvetica,sans-Serif" font-size="10.00">Canvas</text>
<polyline fill="none" stroke="#bfbfbf" points="190.5,-220.5 238.5,-220.5 "/>
<text text-anchor="middle" x="214.5" y="-208.5" font-family="Helvetica,sans-Serif" font-size="10.00"> </text>
<polyline fill="none" stroke="#bfbfbf" points="190.5,-201.5 238.5,-201.5 "/>
<text text-anchor="middle" x="214.5" y="-189.5" font-family="Helvetica,sans-Serif" font-size="10.00"> </text>
</g>
<!-- Node5&#45;&gt;Node2 -->
<g id="edge3" class="edge"><title>Node5&#45;&gt;Node2</title>
<path fill="none" stroke="#404040" d="M208.97,-182.301C207.381,-169.869 206.731,-155.087 209.5,-142 209.958,-139.838 210.478,-137.662 211.054,-135.483"/>
<polygon fill="none" stroke="#404040" points="211.104,-135.317 209.026,-128.412 214.6,-123.838 216.679,-130.743 211.104,-135.317"/>
<text text-anchor="middle" x="234" y="-150.5" font-family="Helvetica,sans-Serif" font-size="10.00"> +quitMenu</text>
</g>
<!-- Node6 -->
<g id="node5" class="node"><title>Node6</title>
<polygon fill="none" stroke="#bfbfbf" points="263,-182.5 263,-239.5 298,-239.5 298,-182.5 263,-182.5"/>
<text text-anchor="middle" x="280.5" y="-227.5" font-family="Helvetica,sans-Serif" font-size="10.00">bool</text>
<polyline fill="none" stroke="#bfbfbf" points="263,-220.5 298,-220.5 "/>
<text text-anchor="middle" x="280.5" y="-208.5" font-family="Helvetica,sans-Serif" font-size="10.00"> </text>
<polyline fill="none" stroke="#bfbfbf" points="263,-201.5 298,-201.5 "/>
<text text-anchor="middle" x="280.5" y="-189.5" font-family="Helvetica,sans-Serif" font-size="10.00"> </text>
</g>
<!-- Node6&#45;&gt;Node2 -->
<g id="edge4" class="edge"><title>Node6&#45;&gt;Node2</title>
<path fill="none" stroke="#404040" d="M273.729,-182.35C270.467,-169.032 266.387,-152.37 262.318,-135.759"/>
<polygon fill="none" stroke="#404040" points="262.225,-135.376 256.912,-130.5 259.37,-123.721 264.683,-128.597 262.225,-135.376"/>
<text text-anchor="middle" x="292.5" y="-150.5" font-family="Helvetica,sans-Serif" font-size="10.00"> &#45;soundOn</text>
</g>
<!-- Node7 -->
<g id="node6" class="node"><title>Node7</title>
<polygon fill="none" stroke="#bfbfbf" points="332,-182.5 332,-239.5 367,-239.5 367,-182.5 332,-182.5"/>
<text text-anchor="middle" x="349.5" y="-227.5" font-family="Helvetica,sans-Serif" font-size="10.00">Text</text>
<polyline fill="none" stroke="#bfbfbf" points="332,-220.5 367,-220.5 "/>
<text text-anchor="middle" x="349.5" y="-208.5" font-family="Helvetica,sans-Serif" font-size="10.00"> </text>
<polyline fill="none" stroke="#bfbfbf" points="332,-201.5 367,-201.5 "/>
<text text-anchor="middle" x="349.5" y="-189.5" font-family="Helvetica,sans-Serif" font-size="10.00"> </text>
</g>
<!-- Node7&#45;&gt;Node2 -->
<g id="edge5" class="edge"><title>Node7&#45;&gt;Node2</title>
<path fill="none" stroke="#404040" d="M339.84,-182.411C334.733,-169.588 327.796,-154.459 319.5,-142 315.831,-136.491 311.764,-131.011 307.475,-125.656"/>
<polygon fill="none" stroke="#404040" points="307.247,-125.383 300.331,-123.342 299.556,-116.172 306.472,-118.214 307.247,-125.383"/>
<text text-anchor="middle" x="356" y="-150.5" font-family="Helvetica,sans-Serif" font-size="10.00"> &#45;audioText</text>
</g>
<!-- Node8 -->
<g id="node7" class="node"><title>Node8</title>
<polygon fill="none" stroke="#bfbfbf" points="399,-182.5 399,-239.5 444,-239.5 444,-182.5 399,-182.5"/>
<text text-anchor="middle" x="421.5" y="-227.5" font-family="Helvetica,sans-Serif" font-size="10.00">Button</text>
<polyline fill="none" stroke="#bfbfbf" points="399,-220.5 444,-220.5 "/>
<text text-anchor="middle" x="421.5" y="-208.5" font-family="Helvetica,sans-Serif" font-size="10.00"> </text>
<polyline fill="none" stroke="#bfbfbf" points="399,-201.5 444,-201.5 "/>
<text text-anchor="middle" x="421.5" y="-189.5" font-family="Helvetica,sans-Serif" font-size="10.00"> </text>
</g>
<!-- Node8&#45;&gt;Node2 -->
<g id="edge6" class="edge"><title>Node8&#45;&gt;Node2</title>
<path fill="none" stroke="#404040" d="M410.693,-182.211C404.506,-168.891 395.722,-153.396 384.5,-142 363.69,-120.867 336.031,-103.665 310.796,-90.7731"/>
<polygon fill="none" stroke="#404040" points="310.542,-90.6476 303.391,-91.5773 299.782,-85.334 306.933,-84.4043 310.542,-90.6476"/>
<text text-anchor="middle" x="425.5" y="-156" font-family="Helvetica,sans-Serif" font-size="10.00"> +startText</text>
<text text-anchor="middle" x="425.5" y="-145" font-family="Helvetica,sans-Serif" font-size="10.00">+exitText</text>
</g>
</g>
</svg>
