<?xml version="1.0" encoding="UTF-8" standalone="no"?>
<!DOCTYPE svg PUBLIC "-//W3C//DTD SVG 1.1//EN"
 "http://www.w3.org/Graphics/SVG/1.1/DTD/svg11.dtd">
<!-- Generated by graphviz version 2.38.0 (20140413.2041)
 -->
<!-- Title: QuestObjective Pages: 1 -->
<svg width="319pt" height="325pt"
 viewBox="0.00 0.00 319.00 325.00" xmlns="http://www.w3.org/2000/svg" xmlns:xlink="http://www.w3.org/1999/xlink">
<g id="graph0" class="graph" transform="scale(1 1) rotate(0) translate(4 321)">
<title>QuestObjective</title>
<!-- Node12 -->
<g id="node1" class="node"><title>Node12</title>
<polygon fill="#bfbfbf" stroke="black" points="128.5,-0.5 128.5,-200.5 253.5,-200.5 253.5,-0.5 128.5,-0.5"/>
<text text-anchor="middle" x="191" y="-188.5" font-family="Helvetica,sans-Serif" font-size="10.00">QuestObjective</text>
<polyline fill="none" stroke="black" points="128.5,-181.5 253.5,-181.5 "/>
<text text-anchor="start" x="136.5" y="-169.5" font-family="Helvetica,sans-Serif" font-size="10.00">+ State</text>
<polyline fill="none" stroke="black" points="128.5,-162.5 253.5,-162.5 "/>
<text text-anchor="start" x="136.5" y="-150.5" font-family="Helvetica,sans-Serif" font-size="10.00">+ ObjectiveCallback()</text>
<text text-anchor="start" x="136.5" y="-139.5" font-family="Helvetica,sans-Serif" font-size="10.00">+ isComplete()</text>
<text text-anchor="start" x="136.5" y="-128.5" font-family="Helvetica,sans-Serif" font-size="10.00">+ isFailed()</text>
<text text-anchor="start" x="136.5" y="-117.5" font-family="Helvetica,sans-Serif" font-size="10.00">+ inProgress()</text>
<text text-anchor="start" x="136.5" y="-106.5" font-family="Helvetica,sans-Serif" font-size="10.00">+ GetObjectData()</text>
<text text-anchor="start" x="136.5" y="-95.5" font-family="Helvetica,sans-Serif" font-size="10.00"># QuestObjective()</text>
<text text-anchor="start" x="136.5" y="-84.5" font-family="Helvetica,sans-Serif" font-size="10.00"># setComplete()</text>
<text text-anchor="start" x="136.5" y="-73.5" font-family="Helvetica,sans-Serif" font-size="10.00"># setFailed()</text>
<text text-anchor="start" x="136.5" y="-62.5" font-family="Helvetica,sans-Serif" font-size="10.00"># subscribeHandlers()</text>
<text text-anchor="start" x="136.5" y="-51.5" font-family="Helvetica,sans-Serif" font-size="10.00"># unsubscribeHandlers()</text>
<text text-anchor="start" x="136.5" y="-40.5" font-family="Helvetica,sans-Serif" font-size="10.00"># QuestObjective()</text>
<text text-anchor="start" x="136.5" y="-29.5" font-family="Helvetica,sans-Serif" font-size="10.00"># dispose()</text>
<text text-anchor="start" x="136.5" y="-18.5" font-family="Helvetica,sans-Serif" font-size="10.00">&#45; setState()</text>
<text text-anchor="start" x="136.5" y="-7.5" font-family="Helvetica,sans-Serif" font-size="10.00">&#45; OnExitedToMainMenu()</text>
</g>
<!-- Node13 -->
<g id="node2" class="node"><title>Node13</title>
<polygon fill="none" stroke="#bfbfbf" points="0,-248.5 0,-316.5 152,-316.5 152,-248.5 0,-248.5"/>
<text text-anchor="start" x="8" y="-304.5" font-family="Helvetica,sans-Serif" font-size="10.00">System::Runtime::Serialization</text>
<text text-anchor="middle" x="76" y="-293.5" font-family="Helvetica,sans-Serif" font-size="10.00">::ISerializable</text>
<polyline fill="none" stroke="#bfbfbf" points="0,-286.5 152,-286.5 "/>
<text text-anchor="middle" x="76" y="-274.5" font-family="Helvetica,sans-Serif" font-size="10.00"> </text>
<polyline fill="none" stroke="#bfbfbf" points="0,-267.5 152,-267.5 "/>
<text text-anchor="middle" x="76" y="-255.5" font-family="Helvetica,sans-Serif" font-size="10.00"> </text>
</g>
<!-- Node13&#45;&gt;Node12 -->
<g id="edge1" class="edge"><title>Node13&#45;&gt;Node12</title>
<path fill="none" stroke="midnightblue" d="M102.593,-239.877C110.429,-227.612 119.354,-213.641 128.449,-199.405"/>
<polygon fill="none" stroke="midnightblue" points="99.5273,-238.174 97.0928,-248.485 105.426,-241.943 99.5273,-238.174"/>
</g>
<!-- Node14 -->
<g id="node3" class="node"><title>Node14</title>
<polygon fill="none" stroke="#bfbfbf" points="170.5,-254 170.5,-311 211.5,-311 211.5,-254 170.5,-254"/>
<text text-anchor="middle" x="191" y="-299" font-family="Helvetica,sans-Serif" font-size="10.00">string</text>
<polyline fill="none" stroke="#bfbfbf" points="170.5,-292 211.5,-292 "/>
<text text-anchor="middle" x="191" y="-280" font-family="Helvetica,sans-Serif" font-size="10.00"> </text>
<polyline fill="none" stroke="#bfbfbf" points="170.5,-273 211.5,-273 "/>
<text text-anchor="middle" x="191" y="-261" font-family="Helvetica,sans-Serif" font-size="10.00"> </text>
</g>
<!-- Node14&#45;&gt;Node12 -->
<g id="edge2" class="edge"><title>Node14&#45;&gt;Node12</title>
<path fill="none" stroke="#404040" d="M191,-253.769C191,-242.253 191,-228.068 191,-213.032"/>
<polygon fill="none" stroke="#404040" points="191,-212.825 187,-206.825 191,-200.825 195,-206.825 191,-212.825"/>
<text text-anchor="middle" x="219.5" y="-222" font-family="Helvetica,sans-Serif" font-size="10.00"> +description</text>
</g>
<!-- Node15 -->
<g id="node4" class="node"><title>Node15</title>
<polygon fill="none" stroke="#bfbfbf" points="231,-254 231,-311 311,-311 311,-254 231,-254"/>
<text text-anchor="middle" x="271" y="-299" font-family="Helvetica,sans-Serif" font-size="10.00">ObjectiveState</text>
<polyline fill="none" stroke="#bfbfbf" points="231,-292 311,-292 "/>
<text text-anchor="middle" x="271" y="-280" font-family="Helvetica,sans-Serif" font-size="10.00"> </text>
<polyline fill="none" stroke="#bfbfbf" points="231,-273 311,-273 "/>
<text text-anchor="middle" x="271" y="-261" font-family="Helvetica,sans-Serif" font-size="10.00"> </text>
</g>
<!-- Node15&#45;&gt;Node12 -->
<g id="edge3" class="edge"><title>Node15&#45;&gt;Node12</title>
<path fill="none" stroke="#404040" d="M262.065,-253.848C258.316,-242.885 253.731,-230.238 249,-219 248.017,-216.666 247.01,-214.312 245.983,-211.946"/>
<polygon fill="none" stroke="#404040" points="245.905,-211.769 239.817,-207.904 241.043,-200.798 247.131,-204.663 245.905,-211.769"/>
<text text-anchor="middle" x="268" y="-222" font-family="Helvetica,sans-Serif" font-size="10.00"> &#45;state</text>
</g>
</g>
</svg>
