<?xml version="1.0" encoding="UTF-8" standalone="no"?>
<!DOCTYPE svg PUBLIC "-//W3C//DTD SVG 1.1//EN"
 "http://www.w3.org/Graphics/SVG/1.1/DTD/svg11.dtd">
<!-- Generated by graphviz version 2.38.0 (20140413.2041)
 -->
<!-- Title: GlobalFunctions Pages: 1 -->
<svg width="1282pt" height="1446pt"
 viewBox="0.00 0.00 1281.50 1446.00" xmlns="http://www.w3.org/2000/svg" xmlns:xlink="http://www.w3.org/1999/xlink">
<g id="graph0" class="graph" transform="scale(1 1) rotate(0) translate(4 1442)">
<title>GlobalFunctions</title>
<!-- Node2 -->
<g id="node1" class="node"><title>Node2</title>
<polygon fill="#bfbfbf" stroke="black" points="496.5,-0.5 496.5,-134.5 606.5,-134.5 606.5,-0.5 496.5,-0.5"/>
<text text-anchor="middle" x="551.5" y="-122.5" font-family="Helvetica,sans-Serif" font-size="10.00">GlobalFunctions</text>
<polyline fill="none" stroke="black" points="496.5,-115.5 606.5,-115.5 "/>
<text text-anchor="middle" x="551.5" y="-103.5" font-family="Helvetica,sans-Serif" font-size="10.00"> </text>
<polyline fill="none" stroke="black" points="496.5,-96.5 606.5,-96.5 "/>
<text text-anchor="start" x="504.5" y="-84.5" font-family="Helvetica,sans-Serif" font-size="10.00">+ createBattle()</text>
<text text-anchor="start" x="504.5" y="-73.5" font-family="Helvetica,sans-Serif" font-size="10.00">+ getEnemy()</text>
<text text-anchor="start" x="504.5" y="-62.5" font-family="Helvetica,sans-Serif" font-size="10.00">+ getMoney()</text>
<text text-anchor="start" x="504.5" y="-51.5" font-family="Helvetica,sans-Serif" font-size="10.00">+ getItem()</text>
<text text-anchor="start" x="504.5" y="-40.5" font-family="Helvetica,sans-Serif" font-size="10.00">+ getPreviousScene()</text>
<text text-anchor="start" x="504.5" y="-29.5" font-family="Helvetica,sans-Serif" font-size="10.00">+ endBattle()</text>
<text text-anchor="start" x="504.5" y="-18.5" font-family="Helvetica,sans-Serif" font-size="10.00">+ createItem()</text>
<text text-anchor="start" x="504.5" y="-7.5" font-family="Helvetica,sans-Serif" font-size="10.00">&#45; Awake()</text>
</g>
<!-- Node2&#45;&gt;Node2 -->
<g id="edge30" class="edge"><title>Node2&#45;&gt;Node2</title>
<path fill="none" stroke="#404040" d="M606.573,-83.5675C617.074,-81.6449 624.5,-76.2891 624.5,-67.5 624.5,-62.4188 622.018,-58.4851 617.895,-55.6989"/>
<polygon fill="none" stroke="#404040" points="617.802,-55.6642 610.777,-57.2914 606.573,-51.4325 613.598,-49.8053 617.802,-55.6642"/>
<text text-anchor="middle" x="647.5" y="-65" font-family="Helvetica,sans-Serif" font-size="10.00"> +instance</text>
</g>
<!-- Node3 -->
<g id="node2" class="node"><title>Node3</title>
<g id="a_node2"><a xlink:href="class_mono_behaviour.html" target="_top" xlink:title="{MonoBehaviour\n||}">
<polygon fill="none" stroke="black" points="0,-188 0,-245 83,-245 83,-188 0,-188"/>
<text text-anchor="middle" x="41.5" y="-233" font-family="Helvetica,sans-Serif" font-size="10.00">MonoBehaviour</text>
<polyline fill="none" stroke="black" points="0,-226 83,-226 "/>
<text text-anchor="middle" x="41.5" y="-214" font-family="Helvetica,sans-Serif" font-size="10.00"> </text>
<polyline fill="none" stroke="black" points="0,-207 83,-207 "/>
<text text-anchor="middle" x="41.5" y="-195" font-family="Helvetica,sans-Serif" font-size="10.00"> </text>
</a>
</g>
</g>
<!-- Node3&#45;&gt;Node2 -->
<g id="edge1" class="edge"><title>Node3&#45;&gt;Node2</title>
<path fill="none" stroke="midnightblue" d="M78.3113,-181.32C91.415,-170.79 106.827,-160.109 122.5,-153 248.319,-95.9304 412.069,-77.2976 496.225,-71.2941"/>
<polygon fill="none" stroke="midnightblue" points="75.9321,-178.746 70.4691,-187.824 80.4007,-184.134 75.9321,-178.746"/>
</g>
<!-- Node4 -->
<g id="node3" class="node"><title>Node4</title>
<polygon fill="none" stroke="#bfbfbf" points="101.5,-188 101.5,-245 159.5,-245 159.5,-188 101.5,-188"/>
<text text-anchor="middle" x="130.5" y="-233" font-family="Helvetica,sans-Serif" font-size="10.00">AudioClip</text>
<polyline fill="none" stroke="#bfbfbf" points="101.5,-226 159.5,-226 "/>
<text text-anchor="middle" x="130.5" y="-214" font-family="Helvetica,sans-Serif" font-size="10.00"> </text>
<polyline fill="none" stroke="#bfbfbf" points="101.5,-207 159.5,-207 "/>
<text text-anchor="middle" x="130.5" y="-195" font-family="Helvetica,sans-Serif" font-size="10.00"> </text>
</g>
<!-- Node4&#45;&gt;Node2 -->
<g id="edge2" class="edge"><title>Node4&#45;&gt;Node2</title>
<path fill="none" stroke="#404040" d="M123.777,-187.92C122.522,-175.943 123.586,-162.509 131.5,-153 175.724,-99.8655 377.176,-79.3422 484.201,-72.0861"/>
<polygon fill="none" stroke="#404040" points="484.479,-72.068 490.206,-67.6853 496.454,-71.2854 490.727,-75.6682 484.479,-72.068"/>
<text text-anchor="middle" x="165" y="-156" font-family="Helvetica,sans-Serif" font-size="10.00"> +previousBGM</text>
</g>
<!-- Node5 -->
<g id="node4" class="node"><title>Node5</title>
<g id="a_node4"><a xlink:href="class_item.html" target="_top" xlink:title="Abstract class for items that can be equipped to a player, increasing some of their stats ...">
<polygon fill="none" stroke="black" points="749,-1231.5 749,-1321.5 826,-1321.5 826,-1231.5 749,-1231.5"/>
<text text-anchor="middle" x="787.5" y="-1309.5" font-family="Helvetica,sans-Serif" font-size="10.00">Item</text>
<polyline fill="none" stroke="black" points="749,-1302.5 826,-1302.5 "/>
<text text-anchor="start" x="757" y="-1290.5" font-family="Helvetica,sans-Serif" font-size="10.00">+ Name</text>
<text text-anchor="start" x="757" y="-1279.5" font-family="Helvetica,sans-Serif" font-size="10.00">+ Desc</text>
<text text-anchor="start" x="757" y="-1268.5" font-family="Helvetica,sans-Serif" font-size="10.00">+ Cost</text>
<polyline fill="none" stroke="black" points="749,-1261.5 826,-1261.5 "/>
<text text-anchor="start" x="757" y="-1249.5" font-family="Helvetica,sans-Serif" font-size="10.00">+ applyBuffs()</text>
<text text-anchor="start" x="757" y="-1238.5" font-family="Helvetica,sans-Serif" font-size="10.00">+ revertBuffs()</text>
</a>
</g>
</g>
<!-- Node5&#45;&gt;Node2 -->
<g id="edge3" class="edge"><title>Node5&#45;&gt;Node2</title>
<path fill="none" stroke="#404040" d="M797.421,-1231.31C828.12,-1093.12 919.5,-669.984 919.5,-530 919.5,-530 919.5,-530 919.5,-215.5 919.5,-151.408 724.568,-102.743 618.45,-80.9987"/>
<polygon fill="none" stroke="#404040" points="618.356,-80.9797 611.683,-83.7134 606.593,-78.6052 613.266,-75.8715 618.356,-80.9797"/>
<text text-anchor="middle" x="919" y="-670" font-family="Helvetica,sans-Serif" font-size="10.00"> &#45;item</text>
</g>
<!-- Node15 -->
<g id="node14" class="node"><title>Node15</title>
<g id="a_node14"><a xlink:href="class_player.html" target="_top" xlink:title="Defines a playable character for use in battle scenes">
<polygon fill="none" stroke="black" points="591.5,-1060.5 591.5,-1172.5 703.5,-1172.5 703.5,-1060.5 591.5,-1060.5"/>
<text text-anchor="middle" x="647.5" y="-1160.5" font-family="Helvetica,sans-Serif" font-size="10.00">Player</text>
<polyline fill="none" stroke="black" points="591.5,-1153.5 703.5,-1153.5 "/>
<text text-anchor="start" x="599.5" y="-1141.5" font-family="Helvetica,sans-Serif" font-size="10.00">+ Exp</text>
<text text-anchor="start" x="599.5" y="-1130.5" font-family="Helvetica,sans-Serif" font-size="10.00">+ Item</text>
<text text-anchor="start" x="599.5" y="-1119.5" font-family="Helvetica,sans-Serif" font-size="10.00">+ ExpToNextLevel</text>
<polyline fill="none" stroke="black" points="591.5,-1112.5 703.5,-1112.5 "/>
<text text-anchor="start" x="599.5" y="-1100.5" font-family="Helvetica,sans-Serif" font-size="10.00">+ Player()</text>
<text text-anchor="start" x="599.5" y="-1089.5" font-family="Helvetica,sans-Serif" font-size="10.00">+ gainExp()</text>
<text text-anchor="start" x="599.5" y="-1078.5" font-family="Helvetica,sans-Serif" font-size="10.00">+ levelUp()</text>
<text text-anchor="start" x="599.5" y="-1067.5" font-family="Helvetica,sans-Serif" font-size="10.00">&#45; setExpToNextLevel()</text>
</a>
</g>
</g>
<!-- Node5&#45;&gt;Node15 -->
<g id="edge24" class="edge"><title>Node5&#45;&gt;Node15</title>
<path fill="none" stroke="#404040" d="M748.874,-1231.91C735.148,-1216.42 719.392,-1198.64 704.458,-1181.78"/>
<polygon fill="none" stroke="#404040" points="704.222,-1181.51 697.249,-1179.68 696.263,-1172.53 703.236,-1174.37 704.222,-1181.51"/>
<text text-anchor="middle" x="743" y="-1199.5" font-family="Helvetica,sans-Serif" font-size="10.00"> &#45;item</text>
</g>
<!-- Node6 -->
<g id="node5" class="node"><title>Node6</title>
<polygon fill="none" stroke="#bfbfbf" points="919,-1380.5 919,-1437.5 960,-1437.5 960,-1380.5 919,-1380.5"/>
<text text-anchor="middle" x="939.5" y="-1425.5" font-family="Helvetica,sans-Serif" font-size="10.00">string</text>
<polyline fill="none" stroke="#bfbfbf" points="919,-1418.5 960,-1418.5 "/>
<text text-anchor="middle" x="939.5" y="-1406.5" font-family="Helvetica,sans-Serif" font-size="10.00"> </text>
<polyline fill="none" stroke="#bfbfbf" points="919,-1399.5 960,-1399.5 "/>
<text text-anchor="middle" x="939.5" y="-1387.5" font-family="Helvetica,sans-Serif" font-size="10.00"> </text>
</g>
<!-- Node6&#45;&gt;Node2 -->
<g id="edge6" class="edge"><title>Node6&#45;&gt;Node2</title>
<path fill="none" stroke="#404040" d="M960.054,-1397.42C993.862,-1378.39 1057.5,-1334.92 1057.5,-1277.5 1057.5,-1277.5 1057.5,-1277.5 1057.5,-215.5 1057.5,-125.147 756.219,-86.7063 618.613,-73.8612"/>
<polygon fill="none" stroke="#404040" points="618.565,-73.8569 612.226,-77.2956 606.614,-72.7674 612.952,-69.3286 618.565,-73.8569"/>
<text text-anchor="middle" x="1092.5" y="-739" font-family="Helvetica,sans-Serif" font-size="10.00"> &#45;previousScene</text>
<text text-anchor="middle" x="1092.5" y="-728" font-family="Helvetica,sans-Serif" font-size="10.00">+levelOrder</text>
</g>
<!-- Node6&#45;&gt;Node5 -->
<g id="edge4" class="edge"><title>Node6&#45;&gt;Node5</title>
<path fill="none" stroke="#404040" d="M918.879,-1406.44C890.39,-1403.16 839.256,-1393.05 810.5,-1362 803.145,-1354.06 798.101,-1344 794.653,-1333.61"/>
<polygon fill="none" stroke="#404040" points="794.597,-1333.4 789.143,-1328.69 791.4,-1321.84 796.854,-1326.56 794.597,-1333.4"/>
<text text-anchor="middle" x="825.5" y="-1354" font-family="Helvetica,sans-Serif" font-size="10.00"> #desc</text>
<text text-anchor="middle" x="825.5" y="-1343" font-family="Helvetica,sans-Serif" font-size="10.00">#name</text>
</g>
<!-- Node10 -->
<g id="node9" class="node"><title>Node10</title>
<g id="a_node9"><a xlink:href="class_character.html" target="_top" xlink:title="Base abstract class for Enemy and Player to inherit from. Defines all shared variables, their constructor and their setters and getters ">
<polygon fill="none" stroke="black" points="597,-288.5 597,-499.5 692,-499.5 692,-288.5 597,-288.5"/>
<text text-anchor="middle" x="644.5" y="-487.5" font-family="Helvetica,sans-Serif" font-size="10.00">Character</text>
<polyline fill="none" stroke="black" points="597,-480.5 692,-480.5 "/>
<text text-anchor="start" x="605" y="-468.5" font-family="Helvetica,sans-Serif" font-size="10.00">+ Name</text>
<text text-anchor="start" x="605" y="-457.5" font-family="Helvetica,sans-Serif" font-size="10.00">+ Level</text>
<text text-anchor="start" x="605" y="-446.5" font-family="Helvetica,sans-Serif" font-size="10.00">+ Health</text>
<text text-anchor="start" x="605" y="-435.5" font-family="Helvetica,sans-Serif" font-size="10.00">+ Attack</text>
<text text-anchor="start" x="605" y="-424.5" font-family="Helvetica,sans-Serif" font-size="10.00">+ Defence</text>
<text text-anchor="start" x="605" y="-413.5" font-family="Helvetica,sans-Serif" font-size="10.00">+ MaximumMagic</text>
<text text-anchor="start" x="605" y="-402.5" font-family="Helvetica,sans-Serif" font-size="10.00">+ Magic</text>
<text text-anchor="start" x="605" y="-391.5" font-family="Helvetica,sans-Serif" font-size="10.00">+ Luck</text>
<text text-anchor="start" x="605" y="-380.5" font-family="Helvetica,sans-Serif" font-size="10.00">+ Speed</text>
<text text-anchor="start" x="605" y="-369.5" font-family="Helvetica,sans-Serif" font-size="10.00">+ Rage</text>
<text text-anchor="start" x="605" y="-358.5" font-family="Helvetica,sans-Serif" font-size="10.00">+ CanRage</text>
<text text-anchor="start" x="605" y="-347.5" font-family="Helvetica,sans-Serif" font-size="10.00">+ Special1</text>
<text text-anchor="start" x="605" y="-336.5" font-family="Helvetica,sans-Serif" font-size="10.00">+ Special2</text>
<text text-anchor="start" x="605" y="-325.5" font-family="Helvetica,sans-Serif" font-size="10.00">+ Image</text>
<polyline fill="none" stroke="black" points="597,-318.5 692,-318.5 "/>
<text text-anchor="start" x="605" y="-306.5" font-family="Helvetica,sans-Serif" font-size="10.00">+ IsEnraged()</text>
<text text-anchor="start" x="605" y="-295.5" font-family="Helvetica,sans-Serif" font-size="10.00"># Character()</text>
</a>
</g>
</g>
<!-- Node6&#45;&gt;Node10 -->
<g id="edge10" class="edge"><title>Node6&#45;&gt;Node10</title>
<path fill="none" stroke="#404040" d="M959.436,-1380.49C975.873,-1355.06 996.5,-1315.57 996.5,-1277.5 996.5,-1277.5 996.5,-1277.5 996.5,-602.5 996.5,-468.516 804.898,-419.287 704.416,-402.682"/>
<polygon fill="none" stroke="#404040" points="704.191,-402.647 697.64,-405.66 692.339,-400.771 698.89,-397.758 704.191,-402.647"/>
<text text-anchor="middle" x="1013" y="-915.5" font-family="Helvetica,sans-Serif" font-size="10.00"> #name</text>
</g>
<!-- Node12 -->
<g id="node11" class="node"><title>Node12</title>
<g id="a_node11"><a xlink:href="class_special_move.html" target="_top" xlink:title="Special move abstract base class that expands upon CharacterMove, adding magic properties ...">
<polygon fill="none" stroke="black" points="793.5,-558.5 793.5,-648.5 891.5,-648.5 891.5,-558.5 793.5,-558.5"/>
<text text-anchor="middle" x="842.5" y="-636.5" font-family="Helvetica,sans-Serif" font-size="10.00">SpecialMove</text>
<polyline fill="none" stroke="black" points="793.5,-629.5 891.5,-629.5 "/>
<text text-anchor="start" x="801.5" y="-617.5" font-family="Helvetica,sans-Serif" font-size="10.00">+ Magic</text>
<text text-anchor="start" x="801.5" y="-606.5" font-family="Helvetica,sans-Serif" font-size="10.00">+ Desc</text>
<polyline fill="none" stroke="black" points="793.5,-599.5 891.5,-599.5 "/>
<text text-anchor="start" x="801.5" y="-587.5" font-family="Helvetica,sans-Serif" font-size="10.00">+ setUp()</text>
<text text-anchor="start" x="801.5" y="-576.5" font-family="Helvetica,sans-Serif" font-size="10.00">+ decreaseMagic()</text>
<text text-anchor="start" x="801.5" y="-565.5" font-family="Helvetica,sans-Serif" font-size="10.00"># SpecialMove()</text>
</a>
</g>
</g>
<!-- Node6&#45;&gt;Node12 -->
<g id="edge26" class="edge"><title>Node6&#45;&gt;Node12</title>
<path fill="none" stroke="#404040" d="M943,-1380.31C943.625,-1374.28 944.178,-1367.94 944.5,-1362 947.65,-1303.86 945.326,-1289.22 944.5,-1231 943.611,-1168.31 957.747,-722.452 928.5,-667 922.107,-654.878 912.187,-644.531 901.325,-635.947"/>
<polygon fill="none" stroke="#404040" points="901.299,-635.928 894.094,-635.626 891.602,-628.859 898.807,-629.161 901.299,-635.928"/>
<text text-anchor="middle" x="962.5" y="-1034" font-family="Helvetica,sans-Serif" font-size="10.00"> #desc</text>
</g>
<!-- Node13 -->
<g id="node12" class="node"><title>Node13</title>
<g id="a_node12"><a xlink:href="class_character_move.html" target="_top" xlink:title="Astract base class for character moves ">
<polygon fill="none" stroke="black" points="643.5,-696.5 643.5,-775.5 729.5,-775.5 729.5,-696.5 643.5,-696.5"/>
<text text-anchor="middle" x="686.5" y="-763.5" font-family="Helvetica,sans-Serif" font-size="10.00">CharacterMove</text>
<polyline fill="none" stroke="black" points="643.5,-756.5 729.5,-756.5 "/>
<text text-anchor="start" x="651.5" y="-744.5" font-family="Helvetica,sans-Serif" font-size="10.00">+ User</text>
<text text-anchor="start" x="651.5" y="-733.5" font-family="Helvetica,sans-Serif" font-size="10.00">+ Target</text>
<text text-anchor="start" x="651.5" y="-722.5" font-family="Helvetica,sans-Serif" font-size="10.00">+ Text</text>
<polyline fill="none" stroke="black" points="643.5,-715.5 729.5,-715.5 "/>
<text text-anchor="start" x="651.5" y="-703.5" font-family="Helvetica,sans-Serif" font-size="10.00">+ performMove()</text>
</a>
</g>
</g>
<!-- Node6&#45;&gt;Node13 -->
<g id="edge15" class="edge"><title>Node6&#45;&gt;Node13</title>
<path fill="none" stroke="#404040" d="M939.203,-1380.32C938.086,-1338.47 933.288,-1256.96 913.5,-1191 866.609,-1034.69 768.774,-866.955 718.235,-786.117"/>
<polygon fill="none" stroke="#404040" points="718.112,-785.921 711.532,-782.972 711.723,-775.763 718.303,-778.713 718.112,-785.921"/>
<text text-anchor="middle" x="921" y="-1114" font-family="Helvetica,sans-Serif" font-size="10.00"> #text</text>
</g>
<!-- Node14 -->
<g id="node13" class="node"><title>Node14</title>
<g id="a_node13"><a xlink:href="class_battle_manager.html" target="_top" xlink:title="Holds current Player and Enemy objects in battle and provides functions for MainBattle and other obje...">
<polygon fill="none" stroke="black" points="503.5,-823.5 503.5,-1012.5 619.5,-1012.5 619.5,-823.5 503.5,-823.5"/>
<text text-anchor="middle" x="561.5" y="-1000.5" font-family="Helvetica,sans-Serif" font-size="10.00">BattleManager</text>
<polyline fill="none" stroke="black" points="503.5,-993.5 619.5,-993.5 "/>
<text text-anchor="start" x="511.5" y="-981.5" font-family="Helvetica,sans-Serif" font-size="10.00">+ Player</text>
<text text-anchor="start" x="511.5" y="-970.5" font-family="Helvetica,sans-Serif" font-size="10.00">+ Enemy</text>
<text text-anchor="start" x="511.5" y="-959.5" font-family="Helvetica,sans-Serif" font-size="10.00">+ WasCriticalHit</text>
<polyline fill="none" stroke="black" points="503.5,-952.5 619.5,-952.5 "/>
<text text-anchor="start" x="511.5" y="-940.5" font-family="Helvetica,sans-Serif" font-size="10.00">+ BattleManager()</text>
<text text-anchor="start" x="511.5" y="-929.5" font-family="Helvetica,sans-Serif" font-size="10.00">+ playerFirst()</text>
<text text-anchor="start" x="511.5" y="-918.5" font-family="Helvetica,sans-Serif" font-size="10.00">+ switchPlayers()</text>
<text text-anchor="start" x="511.5" y="-907.5" font-family="Helvetica,sans-Serif" font-size="10.00">+ isCriticalHit()</text>
<text text-anchor="start" x="511.5" y="-896.5" font-family="Helvetica,sans-Serif" font-size="10.00">+ ranAway()</text>
<text text-anchor="start" x="511.5" y="-885.5" font-family="Helvetica,sans-Serif" font-size="10.00">+ damageCalculation()</text>
<text text-anchor="start" x="511.5" y="-874.5" font-family="Helvetica,sans-Serif" font-size="10.00">+ enemyMove()</text>
<text text-anchor="start" x="511.5" y="-863.5" font-family="Helvetica,sans-Serif" font-size="10.00">+ enemySpecialMove()</text>
<text text-anchor="start" x="511.5" y="-852.5" font-family="Helvetica,sans-Serif" font-size="10.00">+ battleWon()</text>
<text text-anchor="start" x="511.5" y="-841.5" font-family="Helvetica,sans-Serif" font-size="10.00">+ playerFainted()</text>
<text text-anchor="start" x="511.5" y="-830.5" font-family="Helvetica,sans-Serif" font-size="10.00">&#45; characterFainted()</text>
</a>
</g>
</g>
<!-- Node6&#45;&gt;Node14 -->
<g id="edge18" class="edge"><title>Node6&#45;&gt;Node14</title>
<path fill="none" stroke="#404040" d="M918.939,-1380.71C914.66,-1374.66 910.299,-1368.2 906.5,-1362 867.561,-1298.44 853.714,-1283.5 829.5,-1213 802.77,-1135.17 845.596,-1096.28 795.5,-1031 755.351,-978.681 684.576,-949.571 631.345,-934.237"/>
<polygon fill="none" stroke="#404040" points="631.156,-934.184 624.307,-936.443 619.589,-930.99 626.437,-928.731 631.156,-934.184"/>
<text text-anchor="middle" x="871.5" y="-1205" font-family="Helvetica,sans-Serif" font-size="10.00"> +forceEnemyMove</text>
<text text-anchor="middle" x="871.5" y="-1194" font-family="Helvetica,sans-Serif" font-size="10.00">+forceCriticalHits</text>
</g>
<!-- Node7 -->
<g id="node6" class="node"><title>Node7</title>
<polygon fill="none" stroke="#bfbfbf" points="549,-1380.5 549,-1437.5 578,-1437.5 578,-1380.5 549,-1380.5"/>
<text text-anchor="middle" x="563.5" y="-1425.5" font-family="Helvetica,sans-Serif" font-size="10.00">int</text>
<polyline fill="none" stroke="#bfbfbf" points="549,-1418.5 578,-1418.5 "/>
<text text-anchor="middle" x="563.5" y="-1406.5" font-family="Helvetica,sans-Serif" font-size="10.00"> </text>
<polyline fill="none" stroke="#bfbfbf" points="549,-1399.5 578,-1399.5 "/>
<text text-anchor="middle" x="563.5" y="-1387.5" font-family="Helvetica,sans-Serif" font-size="10.00"> </text>
</g>
<!-- Node7&#45;&gt;Node2 -->
<g id="edge31" class="edge"><title>Node7&#45;&gt;Node2</title>
<path fill="none" stroke="#404040" d="M548.874,-1408.2C507.976,-1408.18 389.849,-1404.22 304.5,-1362 254.736,-1337.38 212.5,-1333.02 212.5,-1277.5 212.5,-1277.5 212.5,-1277.5 212.5,-215.5 212.5,-98.308 385.137,-73.5168 484.016,-68.9288"/>
<polygon fill="none" stroke="#404040" points="484.289,-68.9181 490.126,-64.6848 496.279,-68.4453 490.442,-72.6786 484.289,-68.9181"/>
<text text-anchor="middle" x="243" y="-739" font-family="Helvetica,sans-Serif" font-size="10.00"> +currentLevel</text>
<text text-anchor="middle" x="243" y="-728" font-family="Helvetica,sans-Serif" font-size="10.00">&#45;money</text>
</g>
<!-- Node7&#45;&gt;Node5 -->
<g id="edge5" class="edge"><title>Node7&#45;&gt;Node5</title>
<path fill="none" stroke="#404040" d="M578.209,-1407.5C609.691,-1405.75 684.697,-1397.82 733.5,-1362 744.245,-1354.11 753.393,-1343.38 760.938,-1332.22"/>
<polygon fill="none" stroke="#404040" points="761.03,-1332.08 760.837,-1324.87 767.417,-1321.92 767.61,-1329.12 761.03,-1332.08"/>
<text text-anchor="middle" x="769.5" y="-1348.5" font-family="Helvetica,sans-Serif" font-size="10.00"> #cost</text>
</g>
<!-- Node9 -->
<g id="node8" class="node"><title>Node9</title>
<g id="a_node8"><a xlink:href="class_enemy.html" target="_top" xlink:title="Defines an AI controller enemy to fight in battle scenes">
<polygon fill="none" stroke="black" points="518,-188 518,-245 585,-245 585,-188 518,-188"/>
<text text-anchor="middle" x="551.5" y="-233" font-family="Helvetica,sans-Serif" font-size="10.00">Enemy</text>
<polyline fill="none" stroke="black" points="518,-226 585,-226 "/>
<text text-anchor="start" x="526" y="-214" font-family="Helvetica,sans-Serif" font-size="10.00">+ ExpGiven</text>
<polyline fill="none" stroke="black" points="518,-207 585,-207 "/>
<text text-anchor="start" x="526" y="-195" font-family="Helvetica,sans-Serif" font-size="10.00">+ Enemy()</text>
</a>
</g>
</g>
<!-- Node7&#45;&gt;Node9 -->
<g id="edge29" class="edge"><title>Node7&#45;&gt;Node9</title>
<path fill="none" stroke="#404040" d="M548.975,-1408.09C490.898,-1407.64 278.5,-1397.77 278.5,-1277.5 278.5,-1277.5 278.5,-1277.5 278.5,-917 278.5,-862.333 273.352,-848.424 278.5,-794 283.634,-739.72 301.5,-728.022 301.5,-673.5 301.5,-673.5 301.5,-673.5 301.5,-393 301.5,-294.245 433.795,-246.297 505.91,-227.496"/>
<polygon fill="none" stroke="#404040" points="506.144,-227.438 510.992,-222.1 517.784,-224.522 512.936,-229.86 506.144,-227.438"/>
<text text-anchor="middle" x="301.5" y="-797" font-family="Helvetica,sans-Serif" font-size="10.00"> &#45;expGiven</text>
</g>
<!-- Node7&#45;&gt;Node10 -->
<g id="edge11" class="edge"><title>Node7&#45;&gt;Node10</title>
<path fill="none" stroke="#404040" d="M548.909,-1407.01C497.019,-1402.63 324.5,-1380.32 324.5,-1277.5 324.5,-1277.5 324.5,-1277.5 324.5,-1035.5 324.5,-941.055 312.134,-916.495 325.5,-823 342.84,-701.708 342.859,-665.581 401.5,-558 440.761,-485.972 527.182,-439.956 585.644,-415.795"/>
<polygon fill="none" stroke="#404040" points="585.807,-415.729 589.882,-409.78 596.941,-411.253 592.866,-417.202 585.807,-415.729"/>
<text text-anchor="middle" x="363" y="-959.5" font-family="Helvetica,sans-Serif" font-size="10.00"> #speed</text>
<text text-anchor="middle" x="363" y="-948.5" font-family="Helvetica,sans-Serif" font-size="10.00">#luck</text>
<text text-anchor="middle" x="363" y="-937.5" font-family="Helvetica,sans-Serif" font-size="10.00">#health</text>
<text text-anchor="middle" x="363" y="-926.5" font-family="Helvetica,sans-Serif" font-size="10.00">#magic</text>
<text text-anchor="middle" x="363" y="-915.5" font-family="Helvetica,sans-Serif" font-size="10.00">#maximumMagic</text>
<text text-anchor="middle" x="363" y="-904.5" font-family="Helvetica,sans-Serif" font-size="10.00">#attack</text>
<text text-anchor="middle" x="363" y="-893.5" font-family="Helvetica,sans-Serif" font-size="10.00">#defence</text>
<text text-anchor="middle" x="363" y="-882.5" font-family="Helvetica,sans-Serif" font-size="10.00">#level</text>
<text text-anchor="middle" x="363" y="-871.5" font-family="Helvetica,sans-Serif" font-size="10.00">#rage</text>
</g>
<!-- Node7&#45;&gt;Node12 -->
<g id="edge27" class="edge"><title>Node7&#45;&gt;Node12</title>
<path fill="none" stroke="#404040" d="M578.036,-1402.83C605.522,-1392.26 664.997,-1365.44 694.5,-1322 699.231,-1315.04 797.461,-828.358 831.222,-660.601"/>
<polygon fill="none" stroke="#404040" points="831.266,-660.382 828.528,-653.711 833.633,-648.618 836.371,-655.289 831.266,-660.382"/>
<text text-anchor="middle" x="774" y="-1034" font-family="Helvetica,sans-Serif" font-size="10.00"> #magic</text>
</g>
<!-- Node7&#45;&gt;Node14 -->
<g id="edge20" class="edge"><title>Node7&#45;&gt;Node14</title>
<path fill="none" stroke="#404040" d="M563.387,-1380.31C563.112,-1313.25 562.401,-1139.28 561.934,-1025.18"/>
<polygon fill="none" stroke="#404040" points="561.933,-1024.96 557.909,-1018.97 561.884,-1012.96 565.909,-1018.94 561.933,-1024.96"/>
<text text-anchor="middle" x="583" y="-1199.5" font-family="Helvetica,sans-Serif" font-size="10.00"> +money</text>
</g>
<!-- Node7&#45;&gt;Node15 -->
<g id="edge25" class="edge"><title>Node7&#45;&gt;Node15</title>
<path fill="none" stroke="#404040" d="M572.014,-1380.29C573.843,-1374.27 575.751,-1367.92 577.5,-1362 595.175,-1302.15 614.671,-1233.85 628.59,-1184.68"/>
<polygon fill="none" stroke="#404040" points="628.649,-1184.47 626.433,-1177.61 631.915,-1172.93 634.131,-1179.79 628.649,-1184.47"/>
<text text-anchor="middle" x="653" y="-1279.5" font-family="Helvetica,sans-Serif" font-size="10.00"> &#45;expToNextLevel</text>
<text text-anchor="middle" x="653" y="-1268.5" font-family="Helvetica,sans-Serif" font-size="10.00">&#45;exp</text>
</g>
<!-- Node8 -->
<g id="node7" class="node"><title>Node8</title>
<polygon fill="none" stroke="#bfbfbf" points="1086,-188 1086,-245 1157,-245 1157,-188 1086,-188"/>
<text text-anchor="middle" x="1121.5" y="-233" font-family="Helvetica,sans-Serif" font-size="10.00">GameObject</text>
<polyline fill="none" stroke="#bfbfbf" points="1086,-226 1157,-226 "/>
<text text-anchor="middle" x="1121.5" y="-214" font-family="Helvetica,sans-Serif" font-size="10.00"> </text>
<polyline fill="none" stroke="#bfbfbf" points="1086,-207 1157,-207 "/>
<text text-anchor="middle" x="1121.5" y="-195" font-family="Helvetica,sans-Serif" font-size="10.00"> </text>
</g>
<!-- Node8&#45;&gt;Node2 -->
<g id="edge7" class="edge"><title>Node8&#45;&gt;Node2</title>
<path fill="none" stroke="#404040" d="M1105.92,-187.804C1097.39,-175.194 1085.66,-161.269 1071.5,-153 995.715,-108.741 741.33,-83.353 618.708,-73.4148"/>
<polygon fill="none" stroke="#404040" points="618.515,-73.3995 612.216,-76.9098 606.553,-72.4454 612.852,-68.9351 618.515,-73.3995"/>
<text text-anchor="middle" x="1103.5" y="-156" font-family="Helvetica,sans-Serif" font-size="10.00"> +player</text>
</g>
<!-- Node9&#45;&gt;Node2 -->
<g id="edge8" class="edge"><title>Node9&#45;&gt;Node2</title>
<path fill="none" stroke="#404040" d="M551.5,-187.85C551.5,-176.09 551.5,-161.722 551.5,-147.083"/>
<polygon fill="none" stroke="#404040" points="551.5,-146.775 547.5,-140.775 551.5,-134.775 555.5,-140.775 551.5,-146.775"/>
<text text-anchor="middle" x="569.5" y="-156" font-family="Helvetica,sans-Serif" font-size="10.00"> &#45;enemy</text>
</g>
<!-- Node9&#45;&gt;Node14 -->
<g id="edge19" class="edge"><title>Node9&#45;&gt;Node14</title>
<path fill="none" stroke="#404040" d="M551.5,-245.161C551.5,-279.741 551.5,-340.746 551.5,-393 551.5,-737 551.5,-737 551.5,-737 551.5,-760.963 552.394,-786.693 553.648,-810.99"/>
<polygon fill="none" stroke="#404040" points="553.659,-811.185 557.98,-816.958 554.312,-823.167 549.991,-817.393 553.659,-811.185"/>
<text text-anchor="middle" x="569.5" y="-601" font-family="Helvetica,sans-Serif" font-size="10.00"> &#45;enemy</text>
</g>
<!-- Node10&#45;&gt;Node9 -->
<g id="edge9" class="edge"><title>Node10&#45;&gt;Node9</title>
<path fill="none" stroke="midnightblue" d="M592.209,-294.322C582.672,-276.324 573.465,-258.95 566.226,-245.29"/>
<polygon fill="none" stroke="midnightblue" points="589.135,-295.996 596.91,-303.194 595.32,-292.719 589.135,-295.996"/>
</g>
<!-- Node10&#45;&gt;Node13 -->
<g id="edge16" class="edge"><title>Node10&#45;&gt;Node13</title>
<path fill="none" stroke="#404040" d="M653.268,-499.661C657.617,-545.589 663.457,-600.079 670.5,-649 672.137,-660.37 674.203,-672.529 676.302,-684.018"/>
<polygon fill="none" stroke="#404040" points="676.366,-684.358 681.402,-689.52 678.574,-696.154 673.539,-690.992 676.366,-684.358"/>
<text text-anchor="middle" x="687.5" y="-606.5" font-family="Helvetica,sans-Serif" font-size="10.00"> #target</text>
<text text-anchor="middle" x="687.5" y="-595.5" font-family="Helvetica,sans-Serif" font-size="10.00">#user</text>
</g>
<!-- Node10&#45;&gt;Node15 -->
<g id="edge23" class="edge"><title>Node10&#45;&gt;Node15</title>
<path fill="none" stroke="midnightblue" d="M639.779,-510.123C637.708,-566.192 635.52,-634.604 634.5,-696 632.331,-826.592 639.573,-979.974 644.11,-1060.21"/>
<polygon fill="none" stroke="midnightblue" points="643.288,-509.926 640.164,-499.802 636.293,-509.665 643.288,-509.926"/>
</g>
<!-- Node11 -->
<g id="node10" class="node"><title>Node11</title>
<polygon fill="none" stroke="#bfbfbf" points="435,-1088 435,-1145 470,-1145 470,-1088 435,-1088"/>
<text text-anchor="middle" x="452.5" y="-1133" font-family="Helvetica,sans-Serif" font-size="10.00">bool</text>
<polyline fill="none" stroke="#bfbfbf" points="435,-1126 470,-1126 "/>
<text text-anchor="middle" x="452.5" y="-1114" font-family="Helvetica,sans-Serif" font-size="10.00"> </text>
<polyline fill="none" stroke="#bfbfbf" points="435,-1107 470,-1107 "/>
<text text-anchor="middle" x="452.5" y="-1095" font-family="Helvetica,sans-Serif" font-size="10.00"> </text>
</g>
<!-- Node11&#45;&gt;Node2 -->
<g id="edge32" class="edge"><title>Node11&#45;&gt;Node2</title>
<path fill="none" stroke="#404040" d="M452.585,-1087.52C452.756,-1020.12 453.008,-843.473 451.5,-696 450.745,-622.214 448.5,-603.79 448.5,-530 448.5,-530 448.5,-530 448.5,-215.5 448.5,-181.789 466.893,-150.319 488.134,-125.216"/>
<polygon fill="none" stroke="#404040" points="488.42,-124.893 489.408,-117.75 496.382,-115.915 495.393,-123.058 488.42,-124.893"/>
<text text-anchor="middle" x="485" y="-601" font-family="Helvetica,sans-Serif" font-size="10.00"> +canRunAway</text>
</g>
<!-- Node11&#45;&gt;Node10 -->
<g id="edge12" class="edge"><title>Node11&#45;&gt;Node10</title>
<path fill="none" stroke="#404040" d="M448.306,-1087.94C446.225,-1074.15 443.694,-1057.2 441.5,-1042 419.401,-888.933 392.288,-850.172 404.5,-696 409.404,-634.086 394.386,-611.161 426.5,-558 464.062,-495.821 535.118,-449.543 585.899,-422.49"/>
<polygon fill="none" stroke="#404040" points="586.087,-422.392 589.56,-416.072 596.729,-416.846 593.257,-423.167 586.087,-422.392"/>
<text text-anchor="middle" x="428" y="-733.5" font-family="Helvetica,sans-Serif" font-size="10.00"> #canRage</text>
</g>
<!-- Node11&#45;&gt;Node14 -->
<g id="edge21" class="edge"><title>Node11&#45;&gt;Node14</title>
<path fill="none" stroke="#404040" d="M461.978,-1087.83C468.142,-1071.01 476.819,-1049.31 486.5,-1031 489.793,-1024.77 493.349,-1018.46 497.06,-1012.17"/>
<polygon fill="none" stroke="#404040" points="497.228,-1011.89 496.908,-1004.68 503.434,-1001.62 503.755,-1008.82 497.228,-1011.89"/>
<text text-anchor="middle" x="519.5" y="-1034" font-family="Helvetica,sans-Serif" font-size="10.00"> &#45;wasCriticalHit</text>
</g>
<!-- Node12&#45;&gt;Node10 -->
<g id="edge13" class="edge"><title>Node12&#45;&gt;Node10</title>
<path fill="none" stroke="#404040" d="M800.509,-558.495C771.436,-528.026 732.412,-487.13 700.667,-453.862"/>
<polygon fill="none" stroke="#404040" points="700.628,-453.821 693.592,-452.241 692.343,-445.139 699.38,-446.718 700.628,-453.821"/>
<text text-anchor="middle" x="801" y="-532" font-family="Helvetica,sans-Serif" font-size="10.00"> #special1</text>
<text text-anchor="middle" x="801" y="-521" font-family="Helvetica,sans-Serif" font-size="10.00">#special2</text>
</g>
<!-- Node13&#45;&gt;Node12 -->
<g id="edge14" class="edge"><title>Node13&#45;&gt;Node12</title>
<path fill="none" stroke="midnightblue" d="M720.692,-688.37C727.679,-680.629 735.394,-673.137 743.5,-667 759.043,-655.233 766.725,-658.931 783.5,-649 786.812,-647.039 790.158,-644.927 793.485,-642.725"/>
<polygon fill="none" stroke="midnightblue" points="717.855,-686.3 713.961,-696.153 723.15,-690.879 717.855,-686.3"/>
</g>
<!-- Node14&#45;&gt;Node13 -->
<g id="edge17" class="edge"><title>Node14&#45;&gt;Node13</title>
<path fill="none" stroke="#404040" d="M619.609,-833.323C631.005,-816.913 642.597,-800.22 652.859,-785.443"/>
<polygon fill="none" stroke="#404040" points="652.888,-785.402 653.024,-778.192 659.732,-775.545 659.595,-782.755 652.888,-785.402"/>
<text text-anchor="middle" x="669.5" y="-797" font-family="Helvetica,sans-Serif" font-size="10.00"> #manager</text>
</g>
<!-- Node15&#45;&gt;Node14 -->
<g id="edge22" class="edge"><title>Node15&#45;&gt;Node14</title>
<path fill="none" stroke="#404040" d="M610.003,-1060.18C606.57,-1054.17 603.326,-1048.04 600.5,-1042 597.768,-1036.17 595.159,-1030.09 592.677,-1023.91"/>
<polygon fill="none" stroke="#404040" points="592.664,-1023.87 586.775,-1019.71 588.352,-1012.67 594.241,-1016.84 592.664,-1023.87"/>
<text text-anchor="middle" x="617" y="-1034" font-family="Helvetica,sans-Serif" font-size="10.00"> &#45;player</text>
</g>
<!-- Node16 -->
<g id="node15" class="node"><title>Node16</title>
<polygon fill="none" stroke="#bfbfbf" points="714,-575 714,-632 775,-632 775,-575 714,-575"/>
<text text-anchor="middle" x="744.5" y="-620" font-family="Helvetica,sans-Serif" font-size="10.00">Texture2D</text>
<polyline fill="none" stroke="#bfbfbf" points="714,-613 775,-613 "/>
<text text-anchor="middle" x="744.5" y="-601" font-family="Helvetica,sans-Serif" font-size="10.00"> </text>
<polyline fill="none" stroke="#bfbfbf" points="714,-594 775,-594 "/>
<text text-anchor="middle" x="744.5" y="-582" font-family="Helvetica,sans-Serif" font-size="10.00"> </text>
</g>
<!-- Node16&#45;&gt;Node10 -->
<g id="edge28" class="edge"><title>Node16&#45;&gt;Node10</title>
<path fill="none" stroke="#404040" d="M731.221,-574.946C722.302,-556.439 709.909,-530.724 697.279,-504.516"/>
<polygon fill="none" stroke="#404040" points="697.263,-504.484 691.055,-500.815 692.054,-493.674 698.262,-497.342 697.263,-504.484"/>
<text text-anchor="middle" x="730" y="-526.5" font-family="Helvetica,sans-Serif" font-size="10.00"> #image</text>
</g>
<!-- Node17 -->
<g id="node16" class="node"><title>Node17</title>
<polygon fill="none" stroke="#bfbfbf" points="1175.5,-182.5 1175.5,-250.5 1273.5,-250.5 1273.5,-182.5 1175.5,-182.5"/>
<text text-anchor="start" x="1183.5" y="-238.5" font-family="Helvetica,sans-Serif" font-size="10.00">IDictionary&lt; string,</text>
<text text-anchor="middle" x="1224.5" y="-227.5" font-family="Helvetica,sans-Serif" font-size="10.00"> bool &gt;</text>
<polyline fill="none" stroke="#bfbfbf" points="1175.5,-220.5 1273.5,-220.5 "/>
<text text-anchor="middle" x="1224.5" y="-208.5" font-family="Helvetica,sans-Serif" font-size="10.00"> </text>
<polyline fill="none" stroke="#bfbfbf" points="1175.5,-201.5 1273.5,-201.5 "/>
<text text-anchor="middle" x="1224.5" y="-189.5" font-family="Helvetica,sans-Serif" font-size="10.00"> </text>
</g>
<!-- Node17&#45;&gt;Node2 -->
<g id="edge33" class="edge"><title>Node17&#45;&gt;Node2</title>
<path fill="none" stroke="#404040" d="M1180.74,-182.349C1164.22,-171.361 1144.75,-160.129 1125.5,-153 950.642,-88.2501 728.53,-72.9587 618.935,-69.455"/>
<polygon fill="none" stroke="#404040" points="618.769,-69.4502 612.655,-73.2735 606.774,-69.1002 612.888,-65.2769 618.769,-69.4502"/>
<text text-anchor="middle" x="1183" y="-156" font-family="Helvetica,sans-Serif" font-size="10.00"> +objectsActive</text>
</g>
</g>
</svg>
