<?xml version="1.0" encoding="UTF-8" standalone="no"?>
<!DOCTYPE svg PUBLIC "-//W3C//DTD SVG 1.1//EN"
 "http://www.w3.org/Graphics/SVG/1.1/DTD/svg11.dtd">
<!-- Generated by graphviz version 2.38.0 (20140413.2041)
 -->
<!-- Title: QuestObjectives.ObtainItem Pages: 1 -->
<svg width="417pt" height="496pt"
 viewBox="0.00 0.00 416.50 496.00" xmlns="http://www.w3.org/2000/svg" xmlns:xlink="http://www.w3.org/1999/xlink">
<g id="graph0" class="graph" transform="scale(1 1) rotate(0) translate(4 492)">
<title>QuestObjectives.ObtainItem</title>
<!-- Node3 -->
<g id="node1" class="node"><title>Node3</title>
<polygon fill="#bfbfbf" stroke="black" points="224,-0.5 224,-112.5 362,-112.5 362,-0.5 224,-0.5"/>
<text text-anchor="middle" x="293" y="-100.5" font-family="Helvetica,sans-Serif" font-size="10.00">QuestObjectives.ObtainItem</text>
<polyline fill="none" stroke="black" points="224,-93.5 362,-93.5 "/>
<text text-anchor="middle" x="293" y="-81.5" font-family="Helvetica,sans-Serif" font-size="10.00"> </text>
<polyline fill="none" stroke="black" points="224,-74.5 362,-74.5 "/>
<text text-anchor="start" x="232" y="-62.5" font-family="Helvetica,sans-Serif" font-size="10.00">+ ObtainItem()</text>
<text text-anchor="start" x="232" y="-51.5" font-family="Helvetica,sans-Serif" font-size="10.00">+ GetObjectData()</text>
<text text-anchor="start" x="232" y="-40.5" font-family="Helvetica,sans-Serif" font-size="10.00"># subscribeHandlers()</text>
<text text-anchor="start" x="232" y="-29.5" font-family="Helvetica,sans-Serif" font-size="10.00"># unsubscribeHandlers()</text>
<text text-anchor="start" x="232" y="-18.5" font-family="Helvetica,sans-Serif" font-size="10.00"># ObtainItem()</text>
<text text-anchor="start" x="232" y="-7.5" font-family="Helvetica,sans-Serif" font-size="10.00">&#45; OnObtainedItem()</text>
</g>
<!-- Node4 -->
<g id="node2" class="node"><title>Node4</title>
<g id="a_node2"><a xlink:href="class_quest_objective.html" target="_top" xlink:title="Base quest objective class to be extended by actual quest objectives ">
<polygon fill="none" stroke="black" points="153.5,-160.5 153.5,-360.5 278.5,-360.5 278.5,-160.5 153.5,-160.5"/>
<text text-anchor="middle" x="216" y="-348.5" font-family="Helvetica,sans-Serif" font-size="10.00">QuestObjective</text>
<polyline fill="none" stroke="black" points="153.5,-341.5 278.5,-341.5 "/>
<text text-anchor="start" x="161.5" y="-329.5" font-family="Helvetica,sans-Serif" font-size="10.00">+ State</text>
<polyline fill="none" stroke="black" points="153.5,-322.5 278.5,-322.5 "/>
<text text-anchor="start" x="161.5" y="-310.5" font-family="Helvetica,sans-Serif" font-size="10.00">+ ObjectiveCallback()</text>
<text text-anchor="start" x="161.5" y="-299.5" font-family="Helvetica,sans-Serif" font-size="10.00">+ isComplete()</text>
<text text-anchor="start" x="161.5" y="-288.5" font-family="Helvetica,sans-Serif" font-size="10.00">+ isFailed()</text>
<text text-anchor="start" x="161.5" y="-277.5" font-family="Helvetica,sans-Serif" font-size="10.00">+ inProgress()</text>
<text text-anchor="start" x="161.5" y="-266.5" font-family="Helvetica,sans-Serif" font-size="10.00">+ GetObjectData()</text>
<text text-anchor="start" x="161.5" y="-255.5" font-family="Helvetica,sans-Serif" font-size="10.00"># QuestObjective()</text>
<text text-anchor="start" x="161.5" y="-244.5" font-family="Helvetica,sans-Serif" font-size="10.00"># setComplete()</text>
<text text-anchor="start" x="161.5" y="-233.5" font-family="Helvetica,sans-Serif" font-size="10.00"># setFailed()</text>
<text text-anchor="start" x="161.5" y="-222.5" font-family="Helvetica,sans-Serif" font-size="10.00"># subscribeHandlers()</text>
<text text-anchor="start" x="161.5" y="-211.5" font-family="Helvetica,sans-Serif" font-size="10.00"># unsubscribeHandlers()</text>
<text text-anchor="start" x="161.5" y="-200.5" font-family="Helvetica,sans-Serif" font-size="10.00"># QuestObjective()</text>
<text text-anchor="start" x="161.5" y="-189.5" font-family="Helvetica,sans-Serif" font-size="10.00"># dispose()</text>
<text text-anchor="start" x="161.5" y="-178.5" font-family="Helvetica,sans-Serif" font-size="10.00">&#45; setState()</text>
<text text-anchor="start" x="161.5" y="-167.5" font-family="Helvetica,sans-Serif" font-size="10.00">&#45; OnExitedToMainMenu()</text>
</a>
</g>
</g>
<!-- Node4&#45;&gt;Node3 -->
<g id="edge1" class="edge"><title>Node4&#45;&gt;Node3</title>
<path fill="none" stroke="midnightblue" d="M257.476,-150.693C262.482,-137.559 267.421,-124.602 271.951,-112.718"/>
<polygon fill="none" stroke="midnightblue" points="254.115,-149.684 253.823,-160.275 260.656,-152.178 254.115,-149.684"/>
</g>
<!-- Node5 -->
<g id="node3" class="node"><title>Node5</title>
<polygon fill="none" stroke="#bfbfbf" points="0,-419.5 0,-487.5 152,-487.5 152,-419.5 0,-419.5"/>
<text text-anchor="start" x="8" y="-475.5" font-family="Helvetica,sans-Serif" font-size="10.00">System::Runtime::Serialization</text>
<text text-anchor="middle" x="76" y="-464.5" font-family="Helvetica,sans-Serif" font-size="10.00">::ISerializable</text>
<polyline fill="none" stroke="#bfbfbf" points="0,-457.5 152,-457.5 "/>
<text text-anchor="middle" x="76" y="-445.5" font-family="Helvetica,sans-Serif" font-size="10.00"> </text>
<polyline fill="none" stroke="#bfbfbf" points="0,-438.5 152,-438.5 "/>
<text text-anchor="middle" x="76" y="-426.5" font-family="Helvetica,sans-Serif" font-size="10.00"> </text>
</g>
<!-- Node5&#45;&gt;Node4 -->
<g id="edge2" class="edge"><title>Node5&#45;&gt;Node4</title>
<path fill="none" stroke="midnightblue" d="M106.308,-411.151C120.13,-392.294 137.035,-369.23 153.396,-346.91"/>
<polygon fill="none" stroke="midnightblue" points="103.475,-409.096 100.386,-419.23 109.121,-413.234 103.475,-409.096"/>
</g>
<!-- Node6 -->
<g id="node4" class="node"><title>Node6</title>
<polygon fill="none" stroke="#bfbfbf" points="294.5,-425 294.5,-482 335.5,-482 335.5,-425 294.5,-425"/>
<text text-anchor="middle" x="315" y="-470" font-family="Helvetica,sans-Serif" font-size="10.00">string</text>
<polyline fill="none" stroke="#bfbfbf" points="294.5,-463 335.5,-463 "/>
<text text-anchor="middle" x="315" y="-451" font-family="Helvetica,sans-Serif" font-size="10.00"> </text>
<polyline fill="none" stroke="#bfbfbf" points="294.5,-444 335.5,-444 "/>
<text text-anchor="middle" x="315" y="-432" font-family="Helvetica,sans-Serif" font-size="10.00"> </text>
</g>
<!-- Node6&#45;&gt;Node4 -->
<g id="edge3" class="edge"><title>Node6&#45;&gt;Node4</title>
<path fill="none" stroke="#404040" d="M294.251,-436.525C283.343,-427.192 270.507,-414.595 262,-401 256.288,-391.871 251.209,-381.959 246.709,-371.769"/>
<polygon fill="none" stroke="#404040" points="246.68,-371.699 240.675,-367.707 242.051,-360.628 248.056,-364.621 246.68,-371.699"/>
<text text-anchor="middle" x="290.5" y="-387.5" font-family="Helvetica,sans-Serif" font-size="10.00"> +description</text>
</g>
<!-- Node8 -->
<g id="node6" class="node"><title>Node8</title>
<g id="a_node6"><a xlink:href="class_item.html" target="_top" xlink:title="Abstract class for items that can be equipped to a player, increasing some of their stats ...">
<polygon fill="none" stroke="black" points="302.5,-215.5 302.5,-305.5 379.5,-305.5 379.5,-215.5 302.5,-215.5"/>
<text text-anchor="middle" x="341" y="-293.5" font-family="Helvetica,sans-Serif" font-size="10.00">Item</text>
<polyline fill="none" stroke="black" points="302.5,-286.5 379.5,-286.5 "/>
<text text-anchor="start" x="310.5" y="-274.5" font-family="Helvetica,sans-Serif" font-size="10.00">+ Name</text>
<text text-anchor="start" x="310.5" y="-263.5" font-family="Helvetica,sans-Serif" font-size="10.00">+ Desc</text>
<text text-anchor="start" x="310.5" y="-252.5" font-family="Helvetica,sans-Serif" font-size="10.00">+ Cost</text>
<polyline fill="none" stroke="black" points="302.5,-245.5 379.5,-245.5 "/>
<text text-anchor="start" x="310.5" y="-233.5" font-family="Helvetica,sans-Serif" font-size="10.00">+ applyBuffs()</text>
<text text-anchor="start" x="310.5" y="-222.5" font-family="Helvetica,sans-Serif" font-size="10.00">+ revertBuffs()</text>
</a>
</g>
</g>
<!-- Node6&#45;&gt;Node8 -->
<g id="edge6" class="edge"><title>Node6&#45;&gt;Node8</title>
<path fill="none" stroke="#404040" d="M318.781,-424.727C322.585,-396.776 328.561,-352.879 333.357,-317.645"/>
<polygon fill="none" stroke="#404040" points="333.38,-317.474 330.226,-310.989 334.999,-305.583 338.153,-312.068 333.38,-317.474"/>
<text text-anchor="middle" x="340" y="-393" font-family="Helvetica,sans-Serif" font-size="10.00"> #desc</text>
<text text-anchor="middle" x="340" y="-382" font-family="Helvetica,sans-Serif" font-size="10.00">#name</text>
</g>
<!-- Node7 -->
<g id="node5" class="node"><title>Node7</title>
<polygon fill="none" stroke="#bfbfbf" points="170,-425 170,-482 250,-482 250,-425 170,-425"/>
<text text-anchor="middle" x="210" y="-470" font-family="Helvetica,sans-Serif" font-size="10.00">ObjectiveState</text>
<polyline fill="none" stroke="#bfbfbf" points="170,-463 250,-463 "/>
<text text-anchor="middle" x="210" y="-451" font-family="Helvetica,sans-Serif" font-size="10.00"> </text>
<polyline fill="none" stroke="#bfbfbf" points="170,-444 250,-444 "/>
<text text-anchor="middle" x="210" y="-432" font-family="Helvetica,sans-Serif" font-size="10.00"> </text>
</g>
<!-- Node7&#45;&gt;Node4 -->
<g id="edge4" class="edge"><title>Node7&#45;&gt;Node4</title>
<path fill="none" stroke="#404040" d="M210.186,-424.923C210.328,-411.13 210.574,-394.18 211,-379 211.058,-376.93 211.119,-374.84 211.184,-372.735"/>
<polygon fill="none" stroke="#404040" points="211.19,-372.533 207.388,-366.406 211.581,-360.539 215.383,-366.666 211.19,-372.533"/>
<text text-anchor="middle" x="225" y="-387.5" font-family="Helvetica,sans-Serif" font-size="10.00"> &#45;state</text>
</g>
<!-- Node8&#45;&gt;Node3 -->
<g id="edge5" class="edge"><title>Node8&#45;&gt;Node3</title>
<path fill="none" stroke="#404040" d="M330.466,-215.17C324.16,-188.631 316.02,-154.374 308.938,-124.574"/>
<polygon fill="none" stroke="#404040" points="308.854,-124.218 303.575,-119.305 306.08,-112.543 311.358,-117.456 308.854,-124.218"/>
<text text-anchor="middle" x="325.5" y="-134" font-family="Helvetica,sans-Serif" font-size="10.00"> &#45;item</text>
</g>
<!-- Node9 -->
<g id="node7" class="node"><title>Node9</title>
<polygon fill="none" stroke="#bfbfbf" points="379.5,-425 379.5,-482 408.5,-482 408.5,-425 379.5,-425"/>
<text text-anchor="middle" x="394" y="-470" font-family="Helvetica,sans-Serif" font-size="10.00">int</text>
<polyline fill="none" stroke="#bfbfbf" points="379.5,-463 408.5,-463 "/>
<text text-anchor="middle" x="394" y="-451" font-family="Helvetica,sans-Serif" font-size="10.00"> </text>
<polyline fill="none" stroke="#bfbfbf" points="379.5,-444 408.5,-444 "/>
<text text-anchor="middle" x="394" y="-432" font-family="Helvetica,sans-Serif" font-size="10.00"> </text>
</g>
<!-- Node9&#45;&gt;Node8 -->
<g id="edge7" class="edge"><title>Node9&#45;&gt;Node8</title>
<path fill="none" stroke="#404040" d="M386.293,-424.727C378.504,-396.654 366.25,-352.496 356.451,-317.184"/>
<polygon fill="none" stroke="#404040" points="356.441,-317.147 350.983,-312.435 353.233,-305.583 358.691,-310.295 356.441,-317.147"/>
<text text-anchor="middle" x="393" y="-387.5" font-family="Helvetica,sans-Serif" font-size="10.00"> #cost</text>
</g>
</g>
</svg>
