<?xml version="1.0" encoding="UTF-8" standalone="no"?>
<!DOCTYPE svg PUBLIC "-//W3C//DTD SVG 1.1//EN"
 "http://www.w3.org/Graphics/SVG/1.1/DTD/svg11.dtd">
<!-- Generated by graphviz version 2.38.0 (20140413.2041)
 -->
<!-- Title: SaveContainer Pages: 1 -->
<!--zoomable 1276 -->
<svg id="main" version="1.1" xmlns="http://www.w3.org/2000/svg" xmlns:xlink="http://www.w3.org/1999/xlink" xml:space="preserve" onload="init(evt)">
<style type="text/css"><![CDATA[
.edge:hover path { stroke: red; }
.edge:hover polygon { stroke: red; fill: red; }
]]></style>
<script type="text/javascript"><![CDATA[
var edges = document.getElementsByTagName('g');
if (edges && edges.length) {
  for (var i=0;i<edges.length;i++) {
    if (edges[i].id.substr(0,4)=='edge') {
      edges[i].setAttribute('class','edge');
    }
  }
}
]]></script>
        <defs>
                <circle id="rim" cx="0" cy="0" r="7"/>
                <circle id="rim2" cx="0" cy="0" r="3.5"/>
                <g id="zoomPlus">
                        <use xlink:href="#rim" fill="#404040">
                                <set attributeName="fill" to="#808080" begin="zoomplus.mouseover" end="zoomplus.mouseout"/>
                        </use>
                        <path d="M-4,0h8M0,-4v8" fill="none" stroke="white" stroke-width="1.5" pointer-events="none"/>
                </g>
                <g id="zoomMin">
                        <use xlink:href="#rim" fill="#404040">
                                <set attributeName="fill" to="#808080" begin="zoomminus.mouseover" end="zoomminus.mouseout"/>
                        </use>
                        <path d="M-4,0h8" fill="none" stroke="white" stroke-width="1.5" pointer-events="none"/>
                </g>
                <g id="dirArrow">
                        <path fill="none" stroke="white" stroke-width="1.5" d="M0,-3.0v7 M-2.5,-0.5L0,-3.0L2.5,-0.5"/>
                </g>
               <g id="resetDef">
                       <use xlink:href="#rim2" fill="#404040">
                               <set attributeName="fill" to="#808080" begin="reset.mouseover" end="reset.mouseout"/>
                       </use>
               </g>
        </defs>

<script type="text/javascript">
var viewWidth = 983;
var viewHeight = 1276;
var sectionId = 'dynsection-0';
</script>
<script xlink:href="svgpan.js"/>
<svg id="graph" class="graph">
<g id="viewport">
<title>SaveContainer</title>
<!-- Node1 -->
<g id="node1" class="node"><title>Node1</title>
<polygon fill="#bfbfbf" stroke="black" points="678.5,-471.5 678.5,-528.5 757.5,-528.5 757.5,-471.5 678.5,-471.5"/>
<text text-anchor="middle" x="718" y="-516.5" font-family="Helvetica,sans-Serif" font-size="10.00">SaveContainer</text>
<polyline fill="none" stroke="black" points="678.5,-509.5 757.5,-509.5 "/>
<text text-anchor="middle" x="718" y="-497.5" font-family="Helvetica,sans-Serif" font-size="10.00"> </text>
<polyline fill="none" stroke="black" points="678.5,-490.5 757.5,-490.5 "/>
<text text-anchor="middle" x="718" y="-478.5" font-family="Helvetica,sans-Serif" font-size="10.00"> </text>
</g>
<!-- Node2 -->
<g id="node2" class="node"><title>Node2</title>
<polygon fill="none" stroke="#bfbfbf" points="123.5,-1210.5 123.5,-1267.5 164.5,-1267.5 164.5,-1210.5 123.5,-1210.5"/>
<text text-anchor="middle" x="144" y="-1255.5" font-family="Helvetica,sans-Serif" font-size="10.00">string</text>
<polyline fill="none" stroke="#bfbfbf" points="123.5,-1248.5 164.5,-1248.5 "/>
<text text-anchor="middle" x="144" y="-1236.5" font-family="Helvetica,sans-Serif" font-size="10.00"> </text>
<polyline fill="none" stroke="#bfbfbf" points="123.5,-1229.5 164.5,-1229.5 "/>
<text text-anchor="middle" x="144" y="-1217.5" font-family="Helvetica,sans-Serif" font-size="10.00"> </text>
</g>
<!-- Node2&#45;&gt;Node1 -->
<g id="edge1" class="edge"><title>Node2&#45;&gt;Node1</title>
<path fill="none" stroke="#404040" d="M164.569,-1236.89C286.862,-1230.03 913,-1191.11 913,-1113 913,-1113 913,-1113 913,-876.5 913,-731.174 930.315,-671.054 839,-558 821.508,-536.344 793.864,-522.47 769.412,-513.84"/>
<polygon fill="none" stroke="#404040" points="769.127,-513.747 762.18,-515.681 757.723,-510.013 764.67,-508.078 769.127,-513.747"/>
<text text-anchor="middle" x="944" y="-955" font-family="Helvetica,sans-Serif" font-size="10.00"> +activeScene</text>
</g>
<!-- Node7 -->
<g id="node7" class="node"><title>Node7</title>
<g id="a_node7"><a xlink:href="class_item.html" target="_top" xlink:title="Abstract class for items that can be equipped to a player, increasing some of their stats ...">
<polygon fill="none" stroke="black" points="500.5,-1072.5 500.5,-1151.5 577.5,-1151.5 577.5,-1072.5 500.5,-1072.5"/>
<text text-anchor="middle" x="539" y="-1139.5" font-family="Helvetica,sans-Serif" font-size="10.00">Item</text>
<polyline fill="none" stroke="black" points="500.5,-1132.5 577.5,-1132.5 "/>
<text text-anchor="start" x="508.5" y="-1120.5" font-family="Helvetica,sans-Serif" font-size="10.00">+ Name</text>
<text text-anchor="start" x="508.5" y="-1109.5" font-family="Helvetica,sans-Serif" font-size="10.00">+ Desc</text>
<polyline fill="none" stroke="black" points="500.5,-1102.5 577.5,-1102.5 "/>
<text text-anchor="start" x="508.5" y="-1090.5" font-family="Helvetica,sans-Serif" font-size="10.00">+ applyBuffs()</text>
<text text-anchor="start" x="508.5" y="-1079.5" font-family="Helvetica,sans-Serif" font-size="10.00">+ revertBuffs()</text>
</a>
</g>
</g>
<!-- Node2&#45;&gt;Node7 -->
<g id="edge7" class="edge"><title>Node2&#45;&gt;Node7</title>
<path fill="none" stroke="#404040" d="M164.708,-1234.06C216.366,-1223.9 354.631,-1194.55 464,-1152 472.464,-1148.71 481.218,-1144.73 489.628,-1140.59"/>
<polygon fill="none" stroke="#404040" points="489.736,-1140.53 493.271,-1134.24 500.432,-1135.09 496.898,-1141.38 489.736,-1140.53"/>
<text text-anchor="middle" x="429" y="-1184" font-family="Helvetica,sans-Serif" font-size="10.00"> #desc</text>
<text text-anchor="middle" x="429" y="-1173" font-family="Helvetica,sans-Serif" font-size="10.00">#name</text>
</g>
<!-- Node9 -->
<g id="node9" class="node"><title>Node9</title>
<g id="a_node9"><a xlink:href="class_character.html" target="_top" xlink:title="Base abstract class for Enemy and Player to inherit from. Defines all shared variables, their constructor and their setters and getters ">
<polygon fill="none" stroke="black" points="180.5,-95.5 180.5,-273.5 275.5,-273.5 275.5,-95.5 180.5,-95.5"/>
<text text-anchor="middle" x="228" y="-261.5" font-family="Helvetica,sans-Serif" font-size="10.00">Character</text>
<polyline fill="none" stroke="black" points="180.5,-254.5 275.5,-254.5 "/>
<text text-anchor="start" x="188.5" y="-242.5" font-family="Helvetica,sans-Serif" font-size="10.00">+ Name</text>
<text text-anchor="start" x="188.5" y="-231.5" font-family="Helvetica,sans-Serif" font-size="10.00">+ Level</text>
<text text-anchor="start" x="188.5" y="-220.5" font-family="Helvetica,sans-Serif" font-size="10.00">+ Health</text>
<text text-anchor="start" x="188.5" y="-209.5" font-family="Helvetica,sans-Serif" font-size="10.00">+ Attack</text>
<text text-anchor="start" x="188.5" y="-198.5" font-family="Helvetica,sans-Serif" font-size="10.00">+ Defence</text>
<text text-anchor="start" x="188.5" y="-187.5" font-family="Helvetica,sans-Serif" font-size="10.00">+ MaximumMagic</text>
<text text-anchor="start" x="188.5" y="-176.5" font-family="Helvetica,sans-Serif" font-size="10.00">+ Magic</text>
<text text-anchor="start" x="188.5" y="-165.5" font-family="Helvetica,sans-Serif" font-size="10.00">+ Luck</text>
<text text-anchor="start" x="188.5" y="-154.5" font-family="Helvetica,sans-Serif" font-size="10.00">+ Speed</text>
<text text-anchor="start" x="188.5" y="-143.5" font-family="Helvetica,sans-Serif" font-size="10.00">+ Special1</text>
<text text-anchor="start" x="188.5" y="-132.5" font-family="Helvetica,sans-Serif" font-size="10.00">+ Special2</text>
<text text-anchor="start" x="188.5" y="-121.5" font-family="Helvetica,sans-Serif" font-size="10.00">+ Image</text>
<polyline fill="none" stroke="black" points="180.5,-114.5 275.5,-114.5 "/>
<text text-anchor="start" x="188.5" y="-102.5" font-family="Helvetica,sans-Serif" font-size="10.00"># Character()</text>
</a>
</g>
</g>
<!-- Node2&#45;&gt;Node9 -->
<g id="edge11" class="edge"><title>Node2&#45;&gt;Node9</title>
<path fill="none" stroke="#404040" d="M123.368,-1231.09C83.551,-1216.29 0,-1177.56 0,-1113 0,-1113 0,-1113 0,-376.5 0,-288.27 101.569,-232.73 169.125,-205.548"/>
<polygon fill="none" stroke="#404040" points="169.303,-205.478 173.437,-199.57 180.481,-201.114 176.347,-207.022 169.303,-205.478"/>
<text text-anchor="middle" x="25.5" y="-762" font-family="Helvetica,sans-Serif" font-size="10.00"> #image_ref</text>
<text text-anchor="middle" x="25.5" y="-751" font-family="Helvetica,sans-Serif" font-size="10.00">#name</text>
</g>
<!-- Node10 -->
<g id="node10" class="node"><title>Node10</title>
<g id="a_node10"><a xlink:href="class_special_move.html" target="_top" xlink:title="Special move abstract base class that expands upon CharacterMove, adding magic properties ...">
<polygon fill="none" stroke="black" points="63,-332.5 63,-422.5 161,-422.5 161,-332.5 63,-332.5"/>
<text text-anchor="middle" x="112" y="-410.5" font-family="Helvetica,sans-Serif" font-size="10.00">SpecialMove</text>
<polyline fill="none" stroke="black" points="63,-403.5 161,-403.5 "/>
<text text-anchor="start" x="71" y="-391.5" font-family="Helvetica,sans-Serif" font-size="10.00">+ Magic</text>
<text text-anchor="start" x="71" y="-380.5" font-family="Helvetica,sans-Serif" font-size="10.00">+ Desc</text>
<polyline fill="none" stroke="black" points="63,-373.5 161,-373.5 "/>
<text text-anchor="start" x="71" y="-361.5" font-family="Helvetica,sans-Serif" font-size="10.00">+ setUp()</text>
<text text-anchor="start" x="71" y="-350.5" font-family="Helvetica,sans-Serif" font-size="10.00">+ decreaseMagic()</text>
<text text-anchor="start" x="71" y="-339.5" font-family="Helvetica,sans-Serif" font-size="10.00"># SpecialMove()</text>
</a>
</g>
</g>
<!-- Node2&#45;&gt;Node10 -->
<g id="edge25" class="edge"><title>Node2&#45;&gt;Node10</title>
<path fill="none" stroke="#404040" d="M123.434,-1214.96C104.391,-1191.18 79,-1152.14 79,-1113 79,-1113 79,-1113 79,-499 79,-477.332 84.0248,-454.227 90.1529,-434.104"/>
<polygon fill="none" stroke="#404040" points="90.1692,-434.054 88.2078,-427.114 93.8589,-422.635 95.8203,-429.574 90.1692,-434.054"/>
<text text-anchor="middle" x="94" y="-875" font-family="Helvetica,sans-Serif" font-size="10.00"> #desc</text>
</g>
<!-- Node11 -->
<g id="node11" class="node"><title>Node11</title>
<g id="a_node11"><a xlink:href="class_character_move.html" target="_top" xlink:title="Astract base class for character moves ">
<polygon fill="none" stroke="black" points="145,-460.5 145,-539.5 231,-539.5 231,-460.5 145,-460.5"/>
<text text-anchor="middle" x="188" y="-527.5" font-family="Helvetica,sans-Serif" font-size="10.00">CharacterMove</text>
<polyline fill="none" stroke="black" points="145,-520.5 231,-520.5 "/>
<text text-anchor="start" x="153" y="-508.5" font-family="Helvetica,sans-Serif" font-size="10.00">+ User</text>
<text text-anchor="start" x="153" y="-497.5" font-family="Helvetica,sans-Serif" font-size="10.00">+ Target</text>
<text text-anchor="start" x="153" y="-486.5" font-family="Helvetica,sans-Serif" font-size="10.00">+ Text</text>
<polyline fill="none" stroke="black" points="145,-479.5 231,-479.5 "/>
<text text-anchor="start" x="153" y="-467.5" font-family="Helvetica,sans-Serif" font-size="10.00">+ performMove()</text>
</a>
</g>
</g>
<!-- Node2&#45;&gt;Node11 -->
<g id="edge15" class="edge"><title>Node2&#45;&gt;Node11</title>
<path fill="none" stroke="#404040" d="M140.5,-1210.31C139.875,-1204.28 139.322,-1197.94 139,-1192 138.287,-1178.84 138.257,-1197.65 140,-1072 141.054,-995.996 139.454,-976.929 143,-901 147.929,-795.478 152.039,-769.256 161,-664 165.014,-616.85 161.972,-604.451 171,-558 171.418,-555.851 171.883,-553.666 172.385,-551.468"/>
<polygon fill="none" stroke="#404040" points="172.421,-551.323 170.011,-544.526 175.358,-539.688 177.768,-546.484 172.421,-551.323"/>
<text text-anchor="middle" x="155.5" y="-955" font-family="Helvetica,sans-Serif" font-size="10.00"> #text</text>
</g>
<!-- Node12 -->
<g id="node12" class="node"><title>Node12</title>
<g id="a_node12"><a xlink:href="class_battle_manager.html" target="_top" xlink:title="Holds current Player and Enemy objects in battle and provides functions for MainBattle and other obje...">
<polygon fill="none" stroke="black" points="285,-664.5 285,-853.5 401,-853.5 401,-664.5 285,-664.5"/>
<text text-anchor="middle" x="343" y="-841.5" font-family="Helvetica,sans-Serif" font-size="10.00">BattleManager</text>
<polyline fill="none" stroke="black" points="285,-834.5 401,-834.5 "/>
<text text-anchor="start" x="293" y="-822.5" font-family="Helvetica,sans-Serif" font-size="10.00">+ Player</text>
<text text-anchor="start" x="293" y="-811.5" font-family="Helvetica,sans-Serif" font-size="10.00">+ Enemy</text>
<text text-anchor="start" x="293" y="-800.5" font-family="Helvetica,sans-Serif" font-size="10.00">+ WasCriticalHit</text>
<polyline fill="none" stroke="black" points="285,-793.5 401,-793.5 "/>
<text text-anchor="start" x="293" y="-781.5" font-family="Helvetica,sans-Serif" font-size="10.00">+ BattleManager()</text>
<text text-anchor="start" x="293" y="-770.5" font-family="Helvetica,sans-Serif" font-size="10.00">+ playerFirst()</text>
<text text-anchor="start" x="293" y="-759.5" font-family="Helvetica,sans-Serif" font-size="10.00">+ switchPlayers()</text>
<text text-anchor="start" x="293" y="-748.5" font-family="Helvetica,sans-Serif" font-size="10.00">+ isCriticalHit()</text>
<text text-anchor="start" x="293" y="-737.5" font-family="Helvetica,sans-Serif" font-size="10.00">+ ranAway()</text>
<text text-anchor="start" x="293" y="-726.5" font-family="Helvetica,sans-Serif" font-size="10.00">+ damageCalculation()</text>
<text text-anchor="start" x="293" y="-715.5" font-family="Helvetica,sans-Serif" font-size="10.00">+ enemyMove()</text>
<text text-anchor="start" x="293" y="-704.5" font-family="Helvetica,sans-Serif" font-size="10.00">+ enemySpecialMove()</text>
<text text-anchor="start" x="293" y="-693.5" font-family="Helvetica,sans-Serif" font-size="10.00">+ battleWon()</text>
<text text-anchor="start" x="293" y="-682.5" font-family="Helvetica,sans-Serif" font-size="10.00">+ playerFainted()</text>
<text text-anchor="start" x="293" y="-671.5" font-family="Helvetica,sans-Serif" font-size="10.00">&#45; characterFainted()</text>
</a>
</g>
</g>
<!-- Node2&#45;&gt;Node12 -->
<g id="edge18" class="edge"><title>Node2&#45;&gt;Node12</title>
<path fill="none" stroke="#404040" d="M142.548,-1210.44C141.327,-1170.05 142.467,-1092.99 164,-1032 189.284,-960.389 237.326,-889.032 277.277,-837.383"/>
<polygon fill="none" stroke="#404040" points="277.498,-837.099 278.045,-829.909 284.892,-827.647 284.346,-834.838 277.498,-837.099"/>
<text text-anchor="middle" x="206" y="-1046" font-family="Helvetica,sans-Serif" font-size="10.00"> +forceEnemyMove</text>
<text text-anchor="middle" x="206" y="-1035" font-family="Helvetica,sans-Serif" font-size="10.00">+forceCriticalHits</text>
</g>
<!-- Node3 -->
<g id="node3" class="node"><title>Node3</title>
<polygon fill="none" stroke="#bfbfbf" points="657.5,-730.5 657.5,-787.5 692.5,-787.5 692.5,-730.5 657.5,-730.5"/>
<text text-anchor="middle" x="675" y="-775.5" font-family="Helvetica,sans-Serif" font-size="10.00">float</text>
<polyline fill="none" stroke="#bfbfbf" points="657.5,-768.5 692.5,-768.5 "/>
<text text-anchor="middle" x="675" y="-756.5" font-family="Helvetica,sans-Serif" font-size="10.00"> </text>
<polyline fill="none" stroke="#bfbfbf" points="657.5,-749.5 692.5,-749.5 "/>
<text text-anchor="middle" x="675" y="-737.5" font-family="Helvetica,sans-Serif" font-size="10.00"> </text>
</g>
<!-- Node3&#45;&gt;Node1 -->
<g id="edge2" class="edge"><title>Node3&#45;&gt;Node1</title>
<path fill="none" stroke="#404040" d="M679.602,-730.496C687.244,-684.822 702.58,-593.16 711.383,-540.55"/>
<polygon fill="none" stroke="#404040" points="711.386,-540.53 708.431,-533.952 713.366,-528.694 716.321,-535.272 711.386,-540.53"/>
<text text-anchor="middle" x="715.5" y="-605" font-family="Helvetica,sans-Serif" font-size="10.00"> +x</text>
<text text-anchor="middle" x="715.5" y="-594" font-family="Helvetica,sans-Serif" font-size="10.00">+y</text>
</g>
<!-- Node4 -->
<g id="node4" class="node"><title>Node4</title>
<polygon fill="none" stroke="#bfbfbf" points="426.5,-1083.5 426.5,-1140.5 455.5,-1140.5 455.5,-1083.5 426.5,-1083.5"/>
<text text-anchor="middle" x="441" y="-1128.5" font-family="Helvetica,sans-Serif" font-size="10.00">int</text>
<polyline fill="none" stroke="#bfbfbf" points="426.5,-1121.5 455.5,-1121.5 "/>
<text text-anchor="middle" x="441" y="-1109.5" font-family="Helvetica,sans-Serif" font-size="10.00"> </text>
<polyline fill="none" stroke="#bfbfbf" points="426.5,-1102.5 455.5,-1102.5 "/>
<text text-anchor="middle" x="441" y="-1090.5" font-family="Helvetica,sans-Serif" font-size="10.00"> </text>
</g>
<!-- Node4&#45;&gt;Node1 -->
<g id="edge3" class="edge"><title>Node4&#45;&gt;Node1</title>
<path fill="none" stroke="#404040" d="M455.531,-1096.68C464.91,-1088.24 477.791,-1078.06 491,-1072 528.08,-1055 543.711,-1070.54 581,-1054 608.302,-1041.89 611.738,-1032.73 635,-1014 640.259,-1009.76 815.209,-860.148 818,-854 845.196,-794.097 846.753,-614.468 813,-558 802.962,-541.207 785.903,-528.76 768.986,-519.856"/>
<polygon fill="none" stroke="#404040" points="768.761,-519.747 761.617,-520.726 757.966,-514.507 765.11,-513.529 768.761,-519.747"/>
<text text-anchor="middle" x="829.5" y="-875" font-family="Helvetica,sans-Serif" font-size="10.00"> +currentLevel</text>
</g>
<!-- Node6 -->
<g id="node6" class="node"><title>Node6</title>
<g id="a_node6"><a xlink:href="class_data_manager.html" target="_top" xlink:title="An object to store all player data including players, items and money and provide useful functions ...">
<polygon fill="none" stroke="black" points="547,-686.5 547,-831.5 639,-831.5 639,-686.5 547,-686.5"/>
<text text-anchor="middle" x="593" y="-819.5" font-family="Helvetica,sans-Serif" font-size="10.00">DataManager</text>
<polyline fill="none" stroke="black" points="547,-812.5 639,-812.5 "/>
<text text-anchor="start" x="555" y="-800.5" font-family="Helvetica,sans-Serif" font-size="10.00">+ Players</text>
<text text-anchor="start" x="555" y="-789.5" font-family="Helvetica,sans-Serif" font-size="10.00">+ Items</text>
<text text-anchor="start" x="555" y="-778.5" font-family="Helvetica,sans-Serif" font-size="10.00">+ Money</text>
<polyline fill="none" stroke="black" points="547,-771.5 639,-771.5 "/>
<text text-anchor="start" x="555" y="-759.5" font-family="Helvetica,sans-Serif" font-size="10.00">+ DataManager()</text>
<text text-anchor="start" x="555" y="-748.5" font-family="Helvetica,sans-Serif" font-size="10.00">+ getFirstPlayer()</text>
<text text-anchor="start" x="555" y="-737.5" font-family="Helvetica,sans-Serif" font-size="10.00">+ playersAlive()</text>
<text text-anchor="start" x="555" y="-726.5" font-family="Helvetica,sans-Serif" font-size="10.00">+ addPlayer()</text>
<text text-anchor="start" x="555" y="-715.5" font-family="Helvetica,sans-Serif" font-size="10.00">+ swapPlayers()</text>
<text text-anchor="start" x="555" y="-704.5" font-family="Helvetica,sans-Serif" font-size="10.00">+ addItem()</text>
<text text-anchor="start" x="555" y="-693.5" font-family="Helvetica,sans-Serif" font-size="10.00">+ countItems()</text>
</a>
</g>
</g>
<!-- Node4&#45;&gt;Node6 -->
<g id="edge8" class="edge"><title>Node4&#45;&gt;Node6</title>
<path fill="none" stroke="#404040" d="M455.666,-1096.96C465.096,-1088.63 477.983,-1078.46 491,-1072 519.005,-1058.1 534.949,-1073.97 559,-1054 574.141,-1041.43 572.944,-1033.02 578,-1014 592.756,-958.489 596.392,-893.84 596.398,-843.657"/>
<polygon fill="none" stroke="#404040" points="596.397,-843.552 592.363,-837.575 596.329,-831.552 600.363,-837.529 596.397,-843.552"/>
<text text-anchor="middle" x="613" y="-955" font-family="Helvetica,sans-Serif" font-size="10.00"> &#45;money</text>
</g>
<!-- Node8 -->
<g id="node8" class="node"><title>Node8</title>
<g id="a_node8"><a xlink:href="class_player.html" target="_top" xlink:title="Defines a playable character for use in battle scenes">
<polygon fill="none" stroke="black" points="457,-901.5 457,-1013.5 569,-1013.5 569,-901.5 457,-901.5"/>
<text text-anchor="middle" x="513" y="-1001.5" font-family="Helvetica,sans-Serif" font-size="10.00">Player</text>
<polyline fill="none" stroke="black" points="457,-994.5 569,-994.5 "/>
<text text-anchor="start" x="465" y="-982.5" font-family="Helvetica,sans-Serif" font-size="10.00">+ Exp</text>
<text text-anchor="start" x="465" y="-971.5" font-family="Helvetica,sans-Serif" font-size="10.00">+ Item</text>
<text text-anchor="start" x="465" y="-960.5" font-family="Helvetica,sans-Serif" font-size="10.00">+ ExpToNextLevel</text>
<polyline fill="none" stroke="black" points="457,-953.5 569,-953.5 "/>
<text text-anchor="start" x="465" y="-941.5" font-family="Helvetica,sans-Serif" font-size="10.00">+ Player()</text>
<text text-anchor="start" x="465" y="-930.5" font-family="Helvetica,sans-Serif" font-size="10.00">+ gainExp()</text>
<text text-anchor="start" x="465" y="-919.5" font-family="Helvetica,sans-Serif" font-size="10.00">+ levelUp()</text>
<text text-anchor="start" x="465" y="-908.5" font-family="Helvetica,sans-Serif" font-size="10.00">&#45; setExpToNextLevel()</text>
</a>
</g>
</g>
<!-- Node4&#45;&gt;Node8 -->
<g id="edge28" class="edge"><title>Node4&#45;&gt;Node8</title>
<path fill="none" stroke="#404040" d="M438.807,-1083.27C438.607,-1067.63 440.137,-1048.06 447,-1032 448.137,-1029.34 449.411,-1026.71 450.799,-1024.12"/>
<polygon fill="none" stroke="#404040" points="450.884,-1023.98 450.561,-1016.77 457.086,-1013.7 457.409,-1020.91 450.884,-1023.98"/>
<text text-anchor="middle" x="484.5" y="-1046" font-family="Helvetica,sans-Serif" font-size="10.00"> &#45;expToNextLevel</text>
<text text-anchor="middle" x="484.5" y="-1035" font-family="Helvetica,sans-Serif" font-size="10.00">&#45;exp</text>
</g>
<!-- Node4&#45;&gt;Node9 -->
<g id="edge12" class="edge"><title>Node4&#45;&gt;Node9</title>
<path fill="none" stroke="#404040" d="M426.266,-1104.02C407.222,-1094.52 373.7,-1076.15 350,-1054 280.751,-989.289 291.73,-947.464 276,-854 237.427,-624.815 265.291,-563.521 245,-332 243.695,-317.106 242.1,-301.385 240.417,-285.989"/>
<polygon fill="none" stroke="#404040" points="240.38,-285.659 235.74,-280.139 239.051,-273.733 243.691,-279.253 240.38,-285.659"/>
<text text-anchor="middle" x="292.5" y="-638" font-family="Helvetica,sans-Serif" font-size="10.00"> #speed</text>
<text text-anchor="middle" x="292.5" y="-627" font-family="Helvetica,sans-Serif" font-size="10.00">#luck</text>
<text text-anchor="middle" x="292.5" y="-616" font-family="Helvetica,sans-Serif" font-size="10.00">#health</text>
<text text-anchor="middle" x="292.5" y="-605" font-family="Helvetica,sans-Serif" font-size="10.00">#magic</text>
<text text-anchor="middle" x="292.5" y="-594" font-family="Helvetica,sans-Serif" font-size="10.00">#maximumMagic</text>
<text text-anchor="middle" x="292.5" y="-583" font-family="Helvetica,sans-Serif" font-size="10.00">#attack</text>
<text text-anchor="middle" x="292.5" y="-572" font-family="Helvetica,sans-Serif" font-size="10.00">#defence</text>
<text text-anchor="middle" x="292.5" y="-561" font-family="Helvetica,sans-Serif" font-size="10.00">#level</text>
</g>
<!-- Node4&#45;&gt;Node10 -->
<g id="edge26" class="edge"><title>Node4&#45;&gt;Node10</title>
<path fill="none" stroke="#404040" d="M426.251,-1109.78C394.778,-1106.44 320.302,-1094.47 276,-1054 261.607,-1040.85 264.92,-1032.23 258,-1014 180.785,-810.633 176.328,-753.762 136,-540 129.412,-505.081 123.521,-465.635 119.225,-434.468"/>
<polygon fill="none" stroke="#404040" points="119.217,-434.414 114.445,-429.008 117.6,-422.524 122.372,-427.93 119.217,-434.414"/>
<text text-anchor="middle" x="220.5" y="-756.5" font-family="Helvetica,sans-Serif" font-size="10.00"> #magic</text>
</g>
<!-- Node4&#45;&gt;Node12 -->
<g id="edge22" class="edge"><title>Node4&#45;&gt;Node12</title>
<path fill="none" stroke="#404040" d="M426.296,-1101.9C403.588,-1086.86 360.849,-1054.45 344,-1014 324.776,-967.846 322.384,-912.751 325.685,-865.689"/>
<polygon fill="none" stroke="#404040" points="325.696,-865.553 322.196,-859.248 326.67,-853.592 330.17,-859.897 325.696,-865.553"/>
<text text-anchor="middle" x="363.5" y="-955" font-family="Helvetica,sans-Serif" font-size="10.00"> +money</text>
</g>
<!-- Node13 -->
<g id="node13" class="node"><title>Node13</title>
<g id="a_node13"><a xlink:href="class_enemy.html" target="_top" xlink:title="Defines an AI controller enemy to fight in battle scenes">
<polygon fill="none" stroke="black" points="314.5,-0.5 314.5,-57.5 381.5,-57.5 381.5,-0.5 314.5,-0.5"/>
<text text-anchor="middle" x="348" y="-45.5" font-family="Helvetica,sans-Serif" font-size="10.00">Enemy</text>
<polyline fill="none" stroke="black" points="314.5,-38.5 381.5,-38.5 "/>
<text text-anchor="start" x="322.5" y="-26.5" font-family="Helvetica,sans-Serif" font-size="10.00">+ ExpGiven</text>
<polyline fill="none" stroke="black" points="314.5,-19.5 381.5,-19.5 "/>
<text text-anchor="start" x="322.5" y="-7.5" font-family="Helvetica,sans-Serif" font-size="10.00">+ Enemy()</text>
</a>
</g>
</g>
<!-- Node4&#45;&gt;Node13 -->
<g id="edge21" class="edge"><title>Node4&#45;&gt;Node13</title>
<path fill="none" stroke="#404040" d="M455.855,-1096.06C465.158,-1087.61 477.846,-1077.64 491,-1072 540.97,-1050.57 559.445,-1067.93 612,-1054 659.47,-1041.42 674.773,-1042.17 715,-1014 769.694,-975.701 759.216,-939.171 814,-901 832.353,-888.213 847.705,-900.988 861,-883 962.147,-746.152 887,-671.171 887,-501 887,-501 887,-501 887,-183.5 887,-81.3347 524.276,-43.491 393.942,-33.1906"/>
<polygon fill="none" stroke="#404040" points="393.682,-33.1707 387.393,-36.6996 381.717,-32.2519 388.006,-28.723 393.682,-33.1707"/>
<text text-anchor="middle" x="912" y="-497.5" font-family="Helvetica,sans-Serif" font-size="10.00"> &#45;expGiven</text>
</g>
<!-- Node5 -->
<g id="node5" class="node"><title>Node5</title>
<polygon fill="none" stroke="#bfbfbf" points="392.5,-929 392.5,-986 427.5,-986 427.5,-929 392.5,-929"/>
<text text-anchor="middle" x="410" y="-974" font-family="Helvetica,sans-Serif" font-size="10.00">bool</text>
<polyline fill="none" stroke="#bfbfbf" points="392.5,-967 427.5,-967 "/>
<text text-anchor="middle" x="410" y="-955" font-family="Helvetica,sans-Serif" font-size="10.00"> </text>
<polyline fill="none" stroke="#bfbfbf" points="392.5,-948 427.5,-948 "/>
<text text-anchor="middle" x="410" y="-936" font-family="Helvetica,sans-Serif" font-size="10.00"> </text>
</g>
<!-- Node5&#45;&gt;Node1 -->
<g id="edge4" class="edge"><title>Node5&#45;&gt;Node1</title>
<path fill="none" stroke="#404040" d="M415.089,-928.613C427.055,-864.754 457.934,-709.887 484,-664 516.908,-606.069 535.094,-595.739 590,-558 613.623,-541.763 642.619,-528.397 667.037,-518.699"/>
<polygon fill="none" stroke="#404040" points="667.058,-518.69 671.216,-512.799 678.254,-514.37 674.096,-520.262 667.058,-518.69"/>
<text text-anchor="middle" x="511" y="-762" font-family="Helvetica,sans-Serif" font-size="10.00"> +BGMMute</text>
<text text-anchor="middle" x="511" y="-751" font-family="Helvetica,sans-Serif" font-size="10.00">+SFXMute</text>
</g>
<!-- Node5&#45;&gt;Node12 -->
<g id="edge23" class="edge"><title>Node5&#45;&gt;Node12</title>
<path fill="none" stroke="#404040" d="M392.454,-934.791C378.721,-917.347 361.256,-894.005 357,-883 354.803,-877.32 352.921,-871.391 351.311,-865.336"/>
<polygon fill="none" stroke="#404040" points="351.292,-865.253 346.022,-860.33 348.539,-853.573 353.809,-858.495 351.292,-865.253"/>
<text text-anchor="middle" x="390" y="-875" font-family="Helvetica,sans-Serif" font-size="10.00"> &#45;wasCriticalHit</text>
</g>
<!-- Node6&#45;&gt;Node1 -->
<g id="edge5" class="edge"><title>Node6&#45;&gt;Node1</title>
<path fill="none" stroke="#404040" d="M589.741,-686.034C591.237,-645.378 598.987,-595.378 624,-558 634.521,-542.277 650.988,-530.184 667.219,-521.268"/>
<polygon fill="none" stroke="#404040" points="667.651,-521.047 671.179,-514.758 678.342,-515.597 674.813,-521.885 667.651,-521.047"/>
<text text-anchor="middle" x="657" y="-599.5" font-family="Helvetica,sans-Serif" font-size="10.00"> +dataManager</text>
</g>
<!-- Node7&#45;&gt;Node6 -->
<g id="edge6" class="edge"><title>Node7&#45;&gt;Node6</title>
<path fill="none" stroke="#404040" d="M577.626,-1090.45C603.641,-1073.91 634.968,-1047.84 645,-1014 661.646,-957.848 647.938,-893.16 630.431,-843.119"/>
<polygon fill="none" stroke="#404040" points="630.381,-842.982 624.572,-838.708 626.283,-831.703 632.092,-835.976 630.381,-842.982"/>
<text text-anchor="middle" x="668.5" y="-955" font-family="Helvetica,sans-Serif" font-size="10.00"> &#45;items</text>
</g>
<!-- Node7&#45;&gt;Node8 -->
<g id="edge27" class="edge"><title>Node7&#45;&gt;Node8</title>
<path fill="none" stroke="#404040" d="M532.372,-1072.12C529.962,-1057.99 527.164,-1041.58 524.457,-1025.7"/>
<polygon fill="none" stroke="#404040" points="524.429,-1025.53 519.477,-1020.29 522.412,-1013.71 527.364,-1018.95 524.429,-1025.53"/>
<text text-anchor="middle" x="542.5" y="-1040.5" font-family="Helvetica,sans-Serif" font-size="10.00"> &#45;item</text>
</g>
<!-- Node8&#45;&gt;Node6 -->
<g id="edge9" class="edge"><title>Node8&#45;&gt;Node6</title>
<path fill="none" stroke="#404040" d="M535.497,-901.241C542.872,-883.127 551.235,-862.585 559.254,-842.888"/>
<polygon fill="none" stroke="#404040" points="559.27,-842.848 557.828,-835.783 563.795,-831.734 565.238,-838.799 559.27,-842.848"/>
<text text-anchor="middle" x="565" y="-875" font-family="Helvetica,sans-Serif" font-size="10.00"> &#45;players</text>
</g>
<!-- Node8&#45;&gt;Node12 -->
<g id="edge24" class="edge"><title>Node8&#45;&gt;Node12</title>
<path fill="none" stroke="#404040" d="M458.205,-901.403C443.81,-886.337 428.534,-869.8 415,-854 413.011,-851.678 411.01,-849.308 409.005,-846.904"/>
<polygon fill="none" stroke="#404040" points="408.888,-846.762 401.988,-844.666 401.27,-837.491 408.169,-839.587 408.888,-846.762"/>
<text text-anchor="middle" x="455.5" y="-875" font-family="Helvetica,sans-Serif" font-size="10.00"> &#45;player</text>
</g>
<!-- Node9&#45;&gt;Node8 -->
<g id="edge10" class="edge"><title>Node9&#45;&gt;Node8</title>
<path fill="none" stroke="midnightblue" d="M283.589,-225.054C317.778,-251.862 360.215,-289.97 388,-332 474.277,-462.511 476.517,-510.165 505,-664 520.099,-745.545 519.194,-842.035 516.556,-901.249"/>
<polygon fill="none" stroke="midnightblue" points="285.589,-222.176 275.537,-218.828 281.307,-227.714 285.589,-222.176"/>
</g>
<!-- Node9&#45;&gt;Node11 -->
<g id="edge16" class="edge"><title>Node9&#45;&gt;Node11</title>
<path fill="none" stroke="#404040" d="M216.744,-273.722C209.553,-330.077 200.485,-401.145 194.478,-448.225"/>
<polygon fill="none" stroke="#404040" points="194.464,-448.341 197.672,-454.799 192.945,-460.244 189.737,-453.786 194.464,-448.341"/>
<text text-anchor="middle" x="226" y="-380.5" font-family="Helvetica,sans-Serif" font-size="10.00"> #target</text>
<text text-anchor="middle" x="226" y="-369.5" font-family="Helvetica,sans-Serif" font-size="10.00">#user</text>
</g>
<!-- Node9&#45;&gt;Node13 -->
<g id="edge20" class="edge"><title>Node9&#45;&gt;Node13</title>
<path fill="none" stroke="midnightblue" d="M281.98,-114.451C297.667,-94.384 313.909,-73.6077 326.358,-57.6838"/>
<polygon fill="none" stroke="midnightblue" points="279.174,-112.358 275.772,-122.392 284.688,-116.669 279.174,-112.358"/>
</g>
<!-- Node10&#45;&gt;Node9 -->
<g id="edge13" class="edge"><title>Node10&#45;&gt;Node9</title>
<path fill="none" stroke="#404040" d="M122.004,-332.153C125.967,-318.79 131.229,-304.392 138,-292 147.42,-274.76 159.912,-257.747 172.582,-242.55"/>
<polygon fill="none" stroke="#404040" points="172.665,-242.454 173.528,-235.294 180.468,-233.337 179.605,-240.497 172.665,-242.454"/>
<text text-anchor="middle" x="160.5" y="-306" font-family="Helvetica,sans-Serif" font-size="10.00"> #special1</text>
<text text-anchor="middle" x="160.5" y="-295" font-family="Helvetica,sans-Serif" font-size="10.00">#special2</text>
</g>
<!-- Node11&#45;&gt;Node10 -->
<g id="edge14" class="edge"><title>Node11&#45;&gt;Node10</title>
<path fill="none" stroke="midnightblue" d="M158.109,-451.607C152.094,-442.07 145.795,-432.083 139.853,-422.661"/>
<polygon fill="none" stroke="midnightblue" points="155.24,-453.619 163.535,-460.21 161.16,-449.884 155.24,-453.619"/>
</g>
<!-- Node12&#45;&gt;Node11 -->
<g id="edge17" class="edge"><title>Node12&#45;&gt;Node11</title>
<path fill="none" stroke="#404040" d="M284.905,-710.062C265.371,-694.709 243.16,-678.058 222,-664 208.409,-654.97 198.335,-660.029 190,-646 173.347,-617.971 173.03,-581.195 176.784,-551.694"/>
<polygon fill="none" stroke="#404040" points="176.826,-551.41 173.76,-544.883 178.606,-539.542 181.672,-546.069 176.826,-551.41"/>
<text text-anchor="middle" x="213" y="-599.5" font-family="Helvetica,sans-Serif" font-size="10.00"> #manager</text>
</g>
<!-- Node13&#45;&gt;Node12 -->
<g id="edge19" class="edge"><title>Node13&#45;&gt;Node12</title>
<path fill="none" stroke="#404040" d="M348,-57.7302C348,-88.4721 348,-139.529 348,-183.5 348,-501 348,-501 348,-501 348,-550.671 347.055,-605.732 345.986,-652.106"/>
<polygon fill="none" stroke="#404040" points="345.981,-652.323 349.838,-658.416 345.698,-664.32 341.841,-658.227 345.981,-652.323"/>
<text text-anchor="middle" x="366" y="-375" font-family="Helvetica,sans-Serif" font-size="10.00"> &#45;enemy</text>
</g>
<!-- Node14 -->
<g id="node14" class="node"><title>Node14</title>
<polygon fill="none" stroke="#bfbfbf" points="711,-725 711,-793 809,-793 809,-725 711,-725"/>
<text text-anchor="start" x="719" y="-781" font-family="Helvetica,sans-Serif" font-size="10.00">IDictionary&lt; string,</text>
<text text-anchor="middle" x="760" y="-770" font-family="Helvetica,sans-Serif" font-size="10.00"> bool &gt;</text>
<polyline fill="none" stroke="#bfbfbf" points="711,-763 809,-763 "/>
<text text-anchor="middle" x="760" y="-751" font-family="Helvetica,sans-Serif" font-size="10.00"> </text>
<polyline fill="none" stroke="#bfbfbf" points="711,-744 809,-744 "/>
<text text-anchor="middle" x="760" y="-732" font-family="Helvetica,sans-Serif" font-size="10.00"> </text>
</g>
<!-- Node14&#45;&gt;Node1 -->
<g id="edge29" class="edge"><title>Node14&#45;&gt;Node1</title>
<path fill="none" stroke="#404040" d="M754.595,-724.928C746.895,-677.811 732.787,-591.48 724.518,-540.883"/>
<polygon fill="none" stroke="#404040" points="724.484,-540.678 719.569,-535.401 722.549,-528.835 727.464,-534.111 724.484,-540.678"/>
<text text-anchor="middle" x="775.5" y="-599.5" font-family="Helvetica,sans-Serif" font-size="10.00"> +objectsActive</text>
</g>
</g>
</svg>
        <g id="navigator" transform="translate(0 0)" fill="#404254">
                <rect fill="#f2f5e9" fill-opacity="0.5" stroke="#606060" stroke-width=".5" x="0" y="0" width="60" height="60"/>
                <use id="zoomplus" xlink:href="#zoomPlus" x="17" y="9" onmousedown="handleZoom(evt,'in')"/>
                <use id="zoomminus" xlink:href="#zoomMin" x="42" y="9" onmousedown="handleZoom(evt,'out')"/>
                <use id="reset" xlink:href="#resetDef" x="30" y="36" onmousedown="handleReset()"/>
                <g id="arrowUp" xlink:href="#dirArrow" transform="translate(30 24)" onmousedown="handlePan(0,-1)">
                  <use xlink:href="#rim" fill="#404040">
                        <set attributeName="fill" to="#808080" begin="arrowUp.mouseover" end="arrowUp.mouseout"/>
                  </use>
                  <path fill="none" stroke="white" stroke-width="1.5" d="M0,-3.0v7 M-2.5,-0.5L0,-3.0L2.5,-0.5"/>
                </g>
                <g id="arrowRight" xlink:href="#dirArrow" transform="rotate(90) translate(36 -43)" onmousedown="handlePan(1,0)">
                  <use xlink:href="#rim" fill="#404040">
                        <set attributeName="fill" to="#808080" begin="arrowRight.mouseover" end="arrowRight.mouseout"/>
                  </use>
                  <path fill="none" stroke="white" stroke-width="1.5" d="M0,-3.0v7 M-2.5,-0.5L0,-3.0L2.5,-0.5"/>
                </g>
                <g id="arrowDown" xlink:href="#dirArrow" transform="rotate(180) translate(-30 -48)" onmousedown="handlePan(0,1)">
                  <use xlink:href="#rim" fill="#404040">
                        <set attributeName="fill" to="#808080" begin="arrowDown.mouseover" end="arrowDown.mouseout"/>
                  </use>
                  <path fill="none" stroke="white" stroke-width="1.5" d="M0,-3.0v7 M-2.5,-0.5L0,-3.0L2.5,-0.5"/>
                </g>
                <g id="arrowLeft" xlink:href="#dirArrow" transform="rotate(270) translate(-36 17)" onmousedown="handlePan(-1,0)">
                  <use xlink:href="#rim" fill="#404040">
                        <set attributeName="fill" to="#808080" begin="arrowLeft.mouseover" end="arrowLeft.mouseout"/>
                  </use>
                  <path fill="none" stroke="white" stroke-width="1.5" d="M0,-3.0v7 M-2.5,-0.5L0,-3.0L2.5,-0.5"/>
                </g>
        </g>
        <svg viewBox="0 0 15 15" width="100%" height="30px" preserveAspectRatio="xMaxYMin meet">
         <g id="arrow_out" transform="scale(0.3 0.3)">
          <a xlink:href="class_save_container__coll__graph_org.svg" target="_base">
           <rect id="button" ry="5" rx="5" y="6" x="6" height="38" width="38"
                fill="#f2f5e9" fill-opacity="0.5" stroke="#606060" stroke-width="1.0"/>
           <path id="arrow"
             d="M 11.500037,31.436501 C 11.940474,20.09759 22.043105,11.32322 32.158766,21.979434 L 37.068811,17.246167 C 37.068811,17.246167 37.088388,32 37.088388,32 L 22.160133,31.978069 C 22.160133,31.978069 26.997745,27.140456 26.997745,27.140456 C 18.528582,18.264221 13.291696,25.230495 11.500037,31.436501 z"
             style="fill:#404040;"/>
          </a>
         </g>
        </svg>
</svg>
