<?xml version="1.0" encoding="UTF-8" standalone="no"?>
<!DOCTYPE svg PUBLIC "-//W3C//DTD SVG 1.1//EN"
 "http://www.w3.org/Graphics/SVG/1.1/DTD/svg11.dtd">
<!-- Generated by graphviz version 2.38.0 (20140413.2041)
 -->
<!-- Title: DataManager.StoredData.Player Pages: 1 -->
<!--zoomable 361 -->
<svg id="main" version="1.1" xmlns="http://www.w3.org/2000/svg" xmlns:xlink="http://www.w3.org/1999/xlink" xml:space="preserve" onload="init(evt)">
<style type="text/css"><![CDATA[
.edge:hover path { stroke: red; }
.edge:hover polygon { stroke: red; fill: red; }
]]></style>
<script type="text/javascript"><![CDATA[
var edges = document.getElementsByTagName('g');
if (edges && edges.length) {
  for (var i=0;i<edges.length;i++) {
    if (edges[i].id.substr(0,4)=='edge') {
      edges[i].setAttribute('class','edge');
    }
  }
}
]]></script>
        <defs>
                <circle id="rim" cx="0" cy="0" r="7"/>
                <circle id="rim2" cx="0" cy="0" r="3.5"/>
                <g id="zoomPlus">
                        <use xlink:href="#rim" fill="#404040">
                                <set attributeName="fill" to="#808080" begin="zoomplus.mouseover" end="zoomplus.mouseout"/>
                        </use>
                        <path d="M-4,0h8M0,-4v8" fill="none" stroke="white" stroke-width="1.5" pointer-events="none"/>
                </g>
                <g id="zoomMin">
                        <use xlink:href="#rim" fill="#404040">
                                <set attributeName="fill" to="#808080" begin="zoomminus.mouseover" end="zoomminus.mouseout"/>
                        </use>
                        <path d="M-4,0h8" fill="none" stroke="white" stroke-width="1.5" pointer-events="none"/>
                </g>
                <g id="dirArrow">
                        <path fill="none" stroke="white" stroke-width="1.5" d="M0,-3.0v7 M-2.5,-0.5L0,-3.0L2.5,-0.5"/>
                </g>
               <g id="resetDef">
                       <use xlink:href="#rim2" fill="#404040">
                               <set attributeName="fill" to="#808080" begin="reset.mouseover" end="reset.mouseout"/>
                       </use>
               </g>
        </defs>

<script type="text/javascript">
var viewWidth = 668;
var viewHeight = 361;
var sectionId = 'dynsection-0';
</script>
<script xlink:href="svgpan.js"/>
<svg id="graph" class="graph">
<g id="viewport">
<title>DataManager.StoredData.Player</title>
<!-- Node1 -->
<g id="node1" class="node"><title>Node1</title>
<polygon fill="#bfbfbf" stroke="black" points="340.563,-0.5 340.563,-57.5 497.563,-57.5 497.563,-0.5 340.563,-0.5"/>
<text text-anchor="middle" x="419.063" y="-45.5" font-family="Helvetica,sans-Serif" font-size="10.00">DataManager.StoredData.Player</text>
<polyline fill="none" stroke="black" points="340.563,-38.5 497.563,-38.5 "/>
<text text-anchor="middle" x="419.063" y="-26.5" font-family="Helvetica,sans-Serif" font-size="10.00"> </text>
<polyline fill="none" stroke="black" points="340.563,-19.5 497.563,-19.5 "/>
<text text-anchor="middle" x="419.063" y="-7.5" font-family="Helvetica,sans-Serif" font-size="10.00"> </text>
</g>
<!-- Node2 -->
<g id="node2" class="node"><title>Node2</title>
<g id="a_node2"><a xlink:href="class_data_manager_1_1_stored_data_1_1_item.html" target="_top" xlink:title="{DataManager.StoredData.Item\n||}">
<polygon fill="none" stroke="black" points="65.0627,-148 65.0627,-205 213.063,-205 213.063,-148 65.0627,-148"/>
<text text-anchor="middle" x="139.063" y="-193" font-family="Helvetica,sans-Serif" font-size="10.00">DataManager.StoredData.Item</text>
<polyline fill="none" stroke="black" points="65.0627,-186 213.063,-186 "/>
<text text-anchor="middle" x="139.063" y="-174" font-family="Helvetica,sans-Serif" font-size="10.00"> </text>
<polyline fill="none" stroke="black" points="65.0627,-167 213.063,-167 "/>
<text text-anchor="middle" x="139.063" y="-155" font-family="Helvetica,sans-Serif" font-size="10.00"> </text>
</a>
</g>
</g>
<!-- Node2&#45;&gt;Node1 -->
<g id="edge1" class="edge"><title>Node2&#45;&gt;Node1</title>
<path fill="none" stroke="#404040" d="M174.328,-147.72C188.685,-137.083 205.723,-125.286 222.063,-116 257.78,-95.7018 299.208,-76.9579 334.83,-62.185"/>
<polygon fill="none" stroke="#404040" points="335.075,-62.0848 339.108,-56.1072 346.178,-57.5313 342.144,-63.5089 335.075,-62.0848"/>
<text text-anchor="middle" x="316.063" y="-84.5" font-family="Helvetica,sans-Serif" font-size="10.00"> +item</text>
</g>
<!-- Node3 -->
<g id="node3" class="node"><title>Node3</title>
<polygon fill="none" stroke="#bfbfbf" points="118.563,-295.5 118.563,-352.5 159.563,-352.5 159.563,-295.5 118.563,-295.5"/>
<text text-anchor="middle" x="139.063" y="-340.5" font-family="Helvetica,sans-Serif" font-size="10.00">string</text>
<polyline fill="none" stroke="#bfbfbf" points="118.563,-333.5 159.563,-333.5 "/>
<text text-anchor="middle" x="139.063" y="-321.5" font-family="Helvetica,sans-Serif" font-size="10.00"> </text>
<polyline fill="none" stroke="#bfbfbf" points="118.563,-314.5 159.563,-314.5 "/>
<text text-anchor="middle" x="139.063" y="-302.5" font-family="Helvetica,sans-Serif" font-size="10.00"> </text>
</g>
<!-- Node3&#45;&gt;Node1 -->
<g id="edge6" class="edge"><title>Node3&#45;&gt;Node1</title>
<path fill="none" stroke="#404040" d="M118.269,-314.86C90.4283,-302.684 42.2099,-276.813 22.0627,-237 -2.21904,-189.016 -11.6994,-157.859 22.0627,-116 59.7533,-69.2705 222.912,-46.6584 327.976,-36.7535"/>
<polygon fill="none" stroke="#404040" points="328.221,-36.7311 333.831,-32.2002 340.171,-35.636 334.561,-40.1669 328.221,-36.7311"/>
<text text-anchor="middle" x="39.0627" y="-174" font-family="Helvetica,sans-Serif" font-size="10.00"> +name</text>
</g>
<!-- Node3&#45;&gt;Node2 -->
<g id="edge2" class="edge"><title>Node3&#45;&gt;Node2</title>
<path fill="none" stroke="#404040" d="M139.063,-295.29C139.063,-273.243 139.063,-242.098 139.063,-217.37"/>
<polygon fill="none" stroke="#404040" points="139.063,-217.107 135.063,-211.107 139.063,-205.107 143.063,-211.107 139.063,-217.107"/>
<text text-anchor="middle" x="156.063" y="-263.5" font-family="Helvetica,sans-Serif" font-size="10.00"> +name</text>
</g>
<!-- Node4 -->
<g id="node4" class="node"><title>Node4</title>
<g id="a_node4"><a xlink:href="class_data_manager_1_1_stored_data_1_1_special_move.html" target="_top" xlink:title="{DataManager.StoredData.SpecialMove\n||}">
<polygon fill="none" stroke="black" points="231.063,-148 231.063,-205 415.063,-205 415.063,-148 231.063,-148"/>
<text text-anchor="middle" x="323.063" y="-193" font-family="Helvetica,sans-Serif" font-size="10.00">DataManager.StoredData.SpecialMove</text>
<polyline fill="none" stroke="black" points="231.063,-186 415.063,-186 "/>
<text text-anchor="middle" x="323.063" y="-174" font-family="Helvetica,sans-Serif" font-size="10.00"> </text>
<polyline fill="none" stroke="black" points="231.063,-167 415.063,-167 "/>
<text text-anchor="middle" x="323.063" y="-155" font-family="Helvetica,sans-Serif" font-size="10.00"> </text>
</a>
</g>
</g>
<!-- Node3&#45;&gt;Node4 -->
<g id="edge4" class="edge"><title>Node3&#45;&gt;Node4</title>
<path fill="none" stroke="#404040" d="M159.812,-306.592C188.37,-284.01 240.527,-242.766 278.215,-212.964"/>
<polygon fill="none" stroke="#404040" points="278.532,-212.713 280.758,-205.854 287.945,-205.27 285.72,-212.129 278.532,-212.713"/>
<text text-anchor="middle" x="234.063" y="-269" font-family="Helvetica,sans-Serif" font-size="10.00"> +text</text>
<text text-anchor="middle" x="234.063" y="-258" font-family="Helvetica,sans-Serif" font-size="10.00">+desc</text>
</g>
<!-- Node4&#45;&gt;Node1 -->
<g id="edge3" class="edge"><title>Node4&#45;&gt;Node1</title>
<path fill="none" stroke="#404040" d="M341.346,-147.79C356.292,-125.136 377.577,-92.8765 394.094,-67.8436"/>
<polygon fill="none" stroke="#404040" points="394.239,-67.623 394.205,-60.412 400.848,-57.6067 400.882,-64.8178 394.239,-67.623"/>
<text text-anchor="middle" x="411.063" y="-90" font-family="Helvetica,sans-Serif" font-size="10.00"> +special1</text>
<text text-anchor="middle" x="411.063" y="-79" font-family="Helvetica,sans-Serif" font-size="10.00">+special2</text>
</g>
<!-- Node5 -->
<g id="node5" class="node"><title>Node5</title>
<polygon fill="none" stroke="#bfbfbf" points="391.563,-295.5 391.563,-352.5 420.563,-352.5 420.563,-295.5 391.563,-295.5"/>
<text text-anchor="middle" x="406.063" y="-340.5" font-family="Helvetica,sans-Serif" font-size="10.00">int</text>
<polyline fill="none" stroke="#bfbfbf" points="391.563,-333.5 420.563,-333.5 "/>
<text text-anchor="middle" x="406.063" y="-321.5" font-family="Helvetica,sans-Serif" font-size="10.00"> </text>
<polyline fill="none" stroke="#bfbfbf" points="391.563,-314.5 420.563,-314.5 "/>
<text text-anchor="middle" x="406.063" y="-302.5" font-family="Helvetica,sans-Serif" font-size="10.00"> </text>
</g>
<!-- Node5&#45;&gt;Node1 -->
<g id="edge8" class="edge"><title>Node5&#45;&gt;Node1</title>
<path fill="none" stroke="#404040" d="M415.391,-295.493C417.169,-289.456 418.85,-283.057 420.063,-277 424.492,-254.871 431.479,-217.658 437.063,-98 437.518,-88.2328 438.876,-85.6082 437.063,-76 436.651,-73.8195 436.139,-71.6098 435.551,-69.3992"/>
<polygon fill="none" stroke="#404040" points="435.473,-69.157 429.836,-64.6607 431.818,-57.7273 437.456,-62.2236 435.473,-69.157"/>
<text text-anchor="middle" x="476.563" y="-229" font-family="Helvetica,sans-Serif" font-size="10.00"> +maximumMagic</text>
<text text-anchor="middle" x="476.563" y="-218" font-family="Helvetica,sans-Serif" font-size="10.00">+attack</text>
<text text-anchor="middle" x="476.563" y="-207" font-family="Helvetica,sans-Serif" font-size="10.00">+defence</text>
<text text-anchor="middle" x="476.563" y="-196" font-family="Helvetica,sans-Serif" font-size="10.00">+level</text>
<text text-anchor="middle" x="476.563" y="-185" font-family="Helvetica,sans-Serif" font-size="10.00">+imageDims</text>
<text text-anchor="middle" x="476.563" y="-174" font-family="Helvetica,sans-Serif" font-size="10.00">+speed</text>
<text text-anchor="middle" x="476.563" y="-163" font-family="Helvetica,sans-Serif" font-size="10.00">+luck</text>
<text text-anchor="middle" x="476.563" y="-152" font-family="Helvetica,sans-Serif" font-size="10.00">+health</text>
<text text-anchor="middle" x="476.563" y="-141" font-family="Helvetica,sans-Serif" font-size="10.00">+magic</text>
<text text-anchor="middle" x="476.563" y="-130" font-family="Helvetica,sans-Serif" font-size="10.00">+exp</text>
<text text-anchor="middle" x="476.563" y="-119" font-family="Helvetica,sans-Serif" font-size="10.00">...</text>
</g>
<!-- Node5&#45;&gt;Node4 -->
<g id="edge5" class="edge"><title>Node5&#45;&gt;Node4</title>
<path fill="none" stroke="#404040" d="M391.415,-297.322C378.506,-274.694 359.523,-241.416 344.836,-215.669"/>
<polygon fill="none" stroke="#404040" points="344.781,-215.572 338.334,-212.343 338.835,-205.149 345.282,-208.379 344.781,-215.572"/>
<text text-anchor="middle" x="398.063" y="-263.5" font-family="Helvetica,sans-Serif" font-size="10.00"> +magic</text>
</g>
<!-- Node6 -->
<g id="node6" class="node"><title>Node6</title>
<polygon fill="none" stroke="#bfbfbf" points="548.063,-148 548.063,-205 592.063,-205 592.063,-148 548.063,-148"/>
<text text-anchor="middle" x="570.063" y="-193" font-family="Helvetica,sans-Serif" font-size="10.00">byte []</text>
<polyline fill="none" stroke="#bfbfbf" points="548.063,-186 592.063,-186 "/>
<text text-anchor="middle" x="570.063" y="-174" font-family="Helvetica,sans-Serif" font-size="10.00"> </text>
<polyline fill="none" stroke="#bfbfbf" points="548.063,-167 592.063,-167 "/>
<text text-anchor="middle" x="570.063" y="-155" font-family="Helvetica,sans-Serif" font-size="10.00"> </text>
</g>
<!-- Node6&#45;&gt;Node1 -->
<g id="edge7" class="edge"><title>Node6&#45;&gt;Node1</title>
<path fill="none" stroke="#404040" d="M556.321,-147.922C550.308,-137.313 542.658,-125.482 534.063,-116 516.659,-96.8016 494.43,-79.0159 474.163,-64.6607"/>
<polygon fill="none" stroke="#404040" points="473.958,-64.5187 466.748,-64.3922 464.092,-57.6882 471.302,-57.8147 473.958,-64.5187"/>
<text text-anchor="middle" x="546.563" y="-84.5" font-family="Helvetica,sans-Serif" font-size="10.00"> +textureArray</text>
</g>
<!-- Node7 -->
<g id="node7" class="node"><title>Node7</title>
<polygon fill="none" stroke="#bfbfbf" points="624.563,-148 624.563,-205 659.563,-205 659.563,-148 624.563,-148"/>
<text text-anchor="middle" x="642.063" y="-193" font-family="Helvetica,sans-Serif" font-size="10.00">bool</text>
<polyline fill="none" stroke="#bfbfbf" points="624.563,-186 659.563,-186 "/>
<text text-anchor="middle" x="642.063" y="-174" font-family="Helvetica,sans-Serif" font-size="10.00"> </text>
<polyline fill="none" stroke="#bfbfbf" points="624.563,-167 659.563,-167 "/>
<text text-anchor="middle" x="642.063" y="-155" font-family="Helvetica,sans-Serif" font-size="10.00"> </text>
</g>
<!-- Node7&#45;&gt;Node1 -->
<g id="edge9" class="edge"><title>Node7&#45;&gt;Node1</title>
<path fill="none" stroke="#404040" d="M632.095,-147.888C622.585,-125.357 606.121,-94.3504 582.063,-76 561.173,-60.0667 535.01,-49.652 509.798,-42.8446"/>
<polygon fill="none" stroke="#404040" points="509.558,-42.7846 502.767,-45.21 497.916,-39.8742 504.707,-37.4488 509.558,-42.7846"/>
<text text-anchor="middle" x="627.063" y="-84.5" font-family="Helvetica,sans-Serif" font-size="10.00"> +canRage</text>
</g>
</g>
</svg>
        <g id="navigator" transform="translate(0 0)" fill="#404254">
                <rect fill="#f2f5e9" fill-opacity="0.5" stroke="#606060" stroke-width=".5" x="0" y="0" width="60" height="60"/>
                <use id="zoomplus" xlink:href="#zoomPlus" x="17" y="9" onmousedown="handleZoom(evt,'in')"/>
                <use id="zoomminus" xlink:href="#zoomMin" x="42" y="9" onmousedown="handleZoom(evt,'out')"/>
                <use id="reset" xlink:href="#resetDef" x="30" y="36" onmousedown="handleReset()"/>
                <g id="arrowUp" xlink:href="#dirArrow" transform="translate(30 24)" onmousedown="handlePan(0,-1)">
                  <use xlink:href="#rim" fill="#404040">
                        <set attributeName="fill" to="#808080" begin="arrowUp.mouseover" end="arrowUp.mouseout"/>
                  </use>
                  <path fill="none" stroke="white" stroke-width="1.5" d="M0,-3.0v7 M-2.5,-0.5L0,-3.0L2.5,-0.5"/>
                </g>
                <g id="arrowRight" xlink:href="#dirArrow" transform="rotate(90) translate(36 -43)" onmousedown="handlePan(1,0)">
                  <use xlink:href="#rim" fill="#404040">
                        <set attributeName="fill" to="#808080" begin="arrowRight.mouseover" end="arrowRight.mouseout"/>
                  </use>
                  <path fill="none" stroke="white" stroke-width="1.5" d="M0,-3.0v7 M-2.5,-0.5L0,-3.0L2.5,-0.5"/>
                </g>
                <g id="arrowDown" xlink:href="#dirArrow" transform="rotate(180) translate(-30 -48)" onmousedown="handlePan(0,1)">
                  <use xlink:href="#rim" fill="#404040">
                        <set attributeName="fill" to="#808080" begin="arrowDown.mouseover" end="arrowDown.mouseout"/>
                  </use>
                  <path fill="none" stroke="white" stroke-width="1.5" d="M0,-3.0v7 M-2.5,-0.5L0,-3.0L2.5,-0.5"/>
                </g>
                <g id="arrowLeft" xlink:href="#dirArrow" transform="rotate(270) translate(-36 17)" onmousedown="handlePan(-1,0)">
                  <use xlink:href="#rim" fill="#404040">
                        <set attributeName="fill" to="#808080" begin="arrowLeft.mouseover" end="arrowLeft.mouseout"/>
                  </use>
                  <path fill="none" stroke="white" stroke-width="1.5" d="M0,-3.0v7 M-2.5,-0.5L0,-3.0L2.5,-0.5"/>
                </g>
        </g>
        <svg viewBox="0 0 15 15" width="100%" height="30px" preserveAspectRatio="xMaxYMin meet">
         <g id="arrow_out" transform="scale(0.3 0.3)">
          <a xlink:href="class_data_manager_1_1_stored_data_1_1_player__coll__graph_org.svg" target="_base">
           <rect id="button" ry="5" rx="5" y="6" x="6" height="38" width="38"
                fill="#f2f5e9" fill-opacity="0.5" stroke="#606060" stroke-width="1.0"/>
           <path id="arrow"
             d="M 11.500037,31.436501 C 11.940474,20.09759 22.043105,11.32322 32.158766,21.979434 L 37.068811,17.246167 C 37.068811,17.246167 37.088388,32 37.088388,32 L 22.160133,31.978069 C 22.160133,31.978069 26.997745,27.140456 26.997745,27.140456 C 18.528582,18.264221 13.291696,25.230495 11.500037,31.436501 z"
             style="fill:#404040;"/>
          </a>
         </g>
        </svg>
</svg>
