<?xml version="1.0" encoding="UTF-8" standalone="no"?>
<!DOCTYPE svg PUBLIC "-//W3C//DTD SVG 1.1//EN"
 "http://www.w3.org/Graphics/SVG/1.1/DTD/svg11.dtd">
<!-- Generated by graphviz version 2.38.0 (20140413.2041)
 -->
<!-- Title: PlayerController Pages: 1 -->
<svg width="94pt" height="182pt"
 viewBox="0.00 0.00 94.00 182.00" xmlns="http://www.w3.org/2000/svg" xmlns:xlink="http://www.w3.org/1999/xlink">
<g id="graph0" class="graph" transform="scale(1 1) rotate(0) translate(4 178)">
<title>PlayerController</title>
<!-- Node0 -->
<g id="node1" class="node"><title>Node0</title>
<polygon fill="#bfbfbf" stroke="black" points="0,-0.5 0,-79.5 86,-79.5 86,-0.5 0,-0.5"/>
<text text-anchor="middle" x="43" y="-67.5" font-family="Helvetica,sans-Serif" font-size="10.00">PlayerController</text>
<polyline fill="none" stroke="black" points="0,-60.5 86,-60.5 "/>
<text text-anchor="start" x="8" y="-48.5" font-family="Helvetica,sans-Serif" font-size="10.00">+ MoveSpeed</text>
<text text-anchor="start" x="8" y="-37.5" font-family="Helvetica,sans-Serif" font-size="10.00">&#45; _anim</text>
<polyline fill="none" stroke="black" points="0,-30.5 86,-30.5 "/>
<text text-anchor="start" x="8" y="-18.5" font-family="Helvetica,sans-Serif" font-size="10.00">&#45; Start()</text>
<text text-anchor="start" x="8" y="-7.5" font-family="Helvetica,sans-Serif" font-size="10.00">&#45; Update()</text>
</g>
<!-- Node1 -->
<g id="node2" class="node"><title>Node1</title>
<g id="a_node2"><a xlink:href="class_mono_behaviour.html" target="_top" xlink:title="{MonoBehaviour\n||}">
<polygon fill="none" stroke="black" points="1.5,-116.5 1.5,-173.5 84.5,-173.5 84.5,-116.5 1.5,-116.5"/>
<text text-anchor="middle" x="43" y="-161.5" font-family="Helvetica,sans-Serif" font-size="10.00">MonoBehaviour</text>
<polyline fill="none" stroke="black" points="1.5,-154.5 84.5,-154.5 "/>
<text text-anchor="middle" x="43" y="-142.5" font-family="Helvetica,sans-Serif" font-size="10.00"> </text>
<polyline fill="none" stroke="black" points="1.5,-135.5 84.5,-135.5 "/>
<text text-anchor="middle" x="43" y="-123.5" font-family="Helvetica,sans-Serif" font-size="10.00"> </text>
</a>
</g>
</g>
<!-- Node1&#45;&gt;Node0 -->
<g id="edge1" class="edge"><title>Node1&#45;&gt;Node0</title>
<path fill="none" stroke="midnightblue" d="M43,-106.156C43,-97.4733 43,-88.2318 43,-79.5205"/>
<polygon fill="none" stroke="midnightblue" points="39.5001,-106.398 43,-116.398 46.5001,-106.398 39.5001,-106.398"/>
</g>
</g>
</svg>
