<?xml version="1.0" encoding="UTF-8" standalone="no"?>
<!DOCTYPE svg PUBLIC "-//W3C//DTD SVG 1.1//EN"
 "http://www.w3.org/Graphics/SVG/1.1/DTD/svg11.dtd">
<!-- Generated by graphviz version 2.38.0 (20140413.2041)
 -->
<!-- Title: SceneChangedEventArgs Pages: 1 -->
<svg width="150pt" height="265pt"
 viewBox="0.00 0.00 150.00 265.00" xmlns="http://www.w3.org/2000/svg" xmlns:xlink="http://www.w3.org/1999/xlink">
<g id="graph0" class="graph" transform="scale(1 1) rotate(0) translate(4 261)">
<title>SceneChangedEventArgs</title>
<!-- Node0 -->
<g id="node1" class="node"><title>Node0</title>
<polygon fill="#bfbfbf" stroke="black" points="0,-0.5 0,-68.5 142,-68.5 142,-0.5 0,-0.5"/>
<text text-anchor="middle" x="71" y="-56.5" font-family="Helvetica,sans-Serif" font-size="10.00">SceneChangedEventArgs</text>
<polyline fill="none" stroke="black" points="0,-49.5 142,-49.5 "/>
<text text-anchor="start" x="8" y="-37.5" font-family="Helvetica,sans-Serif" font-size="10.00">+ oldScene</text>
<text text-anchor="start" x="8" y="-26.5" font-family="Helvetica,sans-Serif" font-size="10.00">+ newScene</text>
<polyline fill="none" stroke="black" points="0,-19.5 142,-19.5 "/>
<text text-anchor="start" x="8" y="-7.5" font-family="Helvetica,sans-Serif" font-size="10.00">+ SceneChangedEventArgs()</text>
</g>
<!-- Node1 -->
<g id="node2" class="node"><title>Node1</title>
<g id="a_node2"><a xlink:href="class_game_event_args.html" target="_top" xlink:title="Base class for passing arguments with game events ">
<polygon fill="none" stroke="black" points="27.5,-105.5 27.5,-162.5 114.5,-162.5 114.5,-105.5 27.5,-105.5"/>
<text text-anchor="middle" x="71" y="-150.5" font-family="Helvetica,sans-Serif" font-size="10.00">GameEventArgs</text>
<polyline fill="none" stroke="black" points="27.5,-143.5 114.5,-143.5 "/>
<text text-anchor="start" x="35.5" y="-131.5" font-family="Helvetica,sans-Serif" font-size="10.00">+ Empty</text>
<polyline fill="none" stroke="black" points="27.5,-124.5 114.5,-124.5 "/>
<text text-anchor="middle" x="71" y="-112.5" font-family="Helvetica,sans-Serif" font-size="10.00"> </text>
</a>
</g>
</g>
<!-- Node1&#45;&gt;Node0 -->
<g id="edge1" class="edge"><title>Node1&#45;&gt;Node0</title>
<path fill="none" stroke="midnightblue" d="M71,-95.0631C71,-86.3933 71,-77.2431 71,-68.7855"/>
<polygon fill="none" stroke="midnightblue" points="67.5001,-95.3212 71,-105.321 74.5001,-95.3212 67.5001,-95.3212"/>
</g>
<!-- Node2 -->
<g id="node3" class="node"><title>Node2</title>
<g id="a_node3"><a xlink:href="class_event_args.html" target="_top" xlink:title="{EventArgs\n||}">
<polygon fill="none" stroke="black" points="40.5,-199.5 40.5,-256.5 101.5,-256.5 101.5,-199.5 40.5,-199.5"/>
<text text-anchor="middle" x="71" y="-244.5" font-family="Helvetica,sans-Serif" font-size="10.00">EventArgs</text>
<polyline fill="none" stroke="black" points="40.5,-237.5 101.5,-237.5 "/>
<text text-anchor="middle" x="71" y="-225.5" font-family="Helvetica,sans-Serif" font-size="10.00"> </text>
<polyline fill="none" stroke="black" points="40.5,-218.5 101.5,-218.5 "/>
<text text-anchor="middle" x="71" y="-206.5" font-family="Helvetica,sans-Serif" font-size="10.00"> </text>
</a>
</g>
</g>
<!-- Node2&#45;&gt;Node1 -->
<g id="edge2" class="edge"><title>Node2&#45;&gt;Node1</title>
<path fill="none" stroke="midnightblue" d="M71,-189.209C71,-180.293 71,-170.951 71,-162.584"/>
<polygon fill="none" stroke="midnightblue" points="67.5001,-189.397 71,-199.397 74.5001,-189.397 67.5001,-189.397"/>
</g>
</g>
</svg>
