<?xml version="1.0" encoding="UTF-8" standalone="no"?>
<!DOCTYPE svg PUBLIC "-//W3C//DTD SVG 1.1//EN"
 "http://www.w3.org/Graphics/SVG/1.1/DTD/svg11.dtd">
<!-- Generated by graphviz version 2.38.0 (20140413.2041)
 -->
<!-- Title: RaiseAttack Pages: 1 -->
<svg width="723pt" height="1045pt"
 viewBox="0.00 0.00 723.00 1045.00" xmlns="http://www.w3.org/2000/svg" xmlns:xlink="http://www.w3.org/1999/xlink">
<g id="graph0" class="graph" transform="scale(1 1) rotate(0) translate(4 1041)">
<title>RaiseAttack</title>
<!-- Node3 -->
<g id="node1" class="node"><title>Node3</title>
<polygon fill="#bfbfbf" stroke="black" points="456,-590.5 456,-658.5 542,-658.5 542,-590.5 456,-590.5"/>
<text text-anchor="middle" x="499" y="-646.5" font-family="Helvetica,sans-Serif" font-size="10.00">RaiseAttack</text>
<polyline fill="none" stroke="black" points="456,-639.5 542,-639.5 "/>
<text text-anchor="middle" x="499" y="-627.5" font-family="Helvetica,sans-Serif" font-size="10.00"> </text>
<polyline fill="none" stroke="black" points="456,-620.5 542,-620.5 "/>
<text text-anchor="start" x="464" y="-608.5" font-family="Helvetica,sans-Serif" font-size="10.00">+ RaiseAttack()</text>
<text text-anchor="start" x="464" y="-597.5" font-family="Helvetica,sans-Serif" font-size="10.00">+ performMove()</text>
</g>
<!-- Node4 -->
<g id="node2" class="node"><title>Node4</title>
<g id="a_node2"><a xlink:href="class_special_move.html" target="_top" xlink:title="Special move abstract base class that expands upon CharacterMove, adding magic properties ...">
<polygon fill="none" stroke="black" points="398,-830.5 398,-920.5 496,-920.5 496,-830.5 398,-830.5"/>
<text text-anchor="middle" x="447" y="-908.5" font-family="Helvetica,sans-Serif" font-size="10.00">SpecialMove</text>
<polyline fill="none" stroke="black" points="398,-901.5 496,-901.5 "/>
<text text-anchor="start" x="406" y="-889.5" font-family="Helvetica,sans-Serif" font-size="10.00">+ Magic</text>
<text text-anchor="start" x="406" y="-878.5" font-family="Helvetica,sans-Serif" font-size="10.00">+ Desc</text>
<polyline fill="none" stroke="black" points="398,-871.5 496,-871.5 "/>
<text text-anchor="start" x="406" y="-859.5" font-family="Helvetica,sans-Serif" font-size="10.00">+ setUp()</text>
<text text-anchor="start" x="406" y="-848.5" font-family="Helvetica,sans-Serif" font-size="10.00">+ decreaseMagic()</text>
<text text-anchor="start" x="406" y="-837.5" font-family="Helvetica,sans-Serif" font-size="10.00"># SpecialMove()</text>
</a>
</g>
</g>
<!-- Node4&#45;&gt;Node3 -->
<g id="edge1" class="edge"><title>Node4&#45;&gt;Node3</title>
<path fill="none" stroke="midnightblue" d="M458.295,-820.413C468.589,-771.122 483.464,-699.893 492.091,-658.581"/>
<polygon fill="none" stroke="midnightblue" points="454.855,-819.766 456.237,-830.271 461.707,-821.197 454.855,-819.766"/>
</g>
<!-- Node7 -->
<g id="node5" class="node"><title>Node7</title>
<g id="a_node5"><a xlink:href="class_character.html" target="_top" xlink:title="Base abstract class for Enemy and Player to inherit from. Defines all shared variables, their constructor and their setters and getters ">
<polygon fill="none" stroke="black" points="190.5,-535.5 190.5,-713.5 285.5,-713.5 285.5,-535.5 190.5,-535.5"/>
<text text-anchor="middle" x="238" y="-701.5" font-family="Helvetica,sans-Serif" font-size="10.00">Character</text>
<polyline fill="none" stroke="black" points="190.5,-694.5 285.5,-694.5 "/>
<text text-anchor="start" x="198.5" y="-682.5" font-family="Helvetica,sans-Serif" font-size="10.00">+ Name</text>
<text text-anchor="start" x="198.5" y="-671.5" font-family="Helvetica,sans-Serif" font-size="10.00">+ Level</text>
<text text-anchor="start" x="198.5" y="-660.5" font-family="Helvetica,sans-Serif" font-size="10.00">+ Health</text>
<text text-anchor="start" x="198.5" y="-649.5" font-family="Helvetica,sans-Serif" font-size="10.00">+ Attack</text>
<text text-anchor="start" x="198.5" y="-638.5" font-family="Helvetica,sans-Serif" font-size="10.00">+ Defence</text>
<text text-anchor="start" x="198.5" y="-627.5" font-family="Helvetica,sans-Serif" font-size="10.00">+ MaximumMagic</text>
<text text-anchor="start" x="198.5" y="-616.5" font-family="Helvetica,sans-Serif" font-size="10.00">+ Magic</text>
<text text-anchor="start" x="198.5" y="-605.5" font-family="Helvetica,sans-Serif" font-size="10.00">+ Luck</text>
<text text-anchor="start" x="198.5" y="-594.5" font-family="Helvetica,sans-Serif" font-size="10.00">+ Speed</text>
<text text-anchor="start" x="198.5" y="-583.5" font-family="Helvetica,sans-Serif" font-size="10.00">+ Special1</text>
<text text-anchor="start" x="198.5" y="-572.5" font-family="Helvetica,sans-Serif" font-size="10.00">+ Special2</text>
<text text-anchor="start" x="198.5" y="-561.5" font-family="Helvetica,sans-Serif" font-size="10.00">+ Image</text>
<polyline fill="none" stroke="black" points="190.5,-554.5 285.5,-554.5 "/>
<text text-anchor="start" x="198.5" y="-542.5" font-family="Helvetica,sans-Serif" font-size="10.00"># Character()</text>
</a>
</g>
</g>
<!-- Node4&#45;&gt;Node7 -->
<g id="edge7" class="edge"><title>Node4&#45;&gt;Node7</title>
<path fill="none" stroke="#404040" d="M397.748,-851.092C381.474,-843.819 363.145,-836.115 346,-830 317.766,-819.931 301.672,-833.708 281,-812 255.867,-785.608 271.164,-767.518 263,-732 262.503,-729.838 261.999,-727.652 261.491,-725.448"/>
<polygon fill="none" stroke="#404040" points="261.438,-725.222 256.188,-720.279 258.732,-713.531 263.982,-718.474 261.438,-725.222"/>
<text text-anchor="middle" x="303.5" y="-775" font-family="Helvetica,sans-Serif" font-size="10.00"> #special1</text>
<text text-anchor="middle" x="303.5" y="-764" font-family="Helvetica,sans-Serif" font-size="10.00">#special2</text>
</g>
<!-- Node5 -->
<g id="node3" class="node"><title>Node5</title>
<g id="a_node3"><a xlink:href="class_character_move.html" target="_top" xlink:title="Astract base class for character moves ">
<polygon fill="none" stroke="black" points="360,-0.5 360,-79.5 446,-79.5 446,-0.5 360,-0.5"/>
<text text-anchor="middle" x="403" y="-67.5" font-family="Helvetica,sans-Serif" font-size="10.00">CharacterMove</text>
<polyline fill="none" stroke="black" points="360,-60.5 446,-60.5 "/>
<text text-anchor="start" x="368" y="-48.5" font-family="Helvetica,sans-Serif" font-size="10.00">+ User</text>
<text text-anchor="start" x="368" y="-37.5" font-family="Helvetica,sans-Serif" font-size="10.00">+ Target</text>
<text text-anchor="start" x="368" y="-26.5" font-family="Helvetica,sans-Serif" font-size="10.00">+ Text</text>
<polyline fill="none" stroke="black" points="360,-19.5 446,-19.5 "/>
<text text-anchor="start" x="368" y="-7.5" font-family="Helvetica,sans-Serif" font-size="10.00">+ performMove()</text>
</a>
</g>
</g>
<!-- Node5&#45;&gt;Node4 -->
<g id="edge2" class="edge"><title>Node5&#45;&gt;Node4</title>
<path fill="none" stroke="midnightblue" d="M413.526,-90C420.359,-126.052 428,-176.348 428,-221 428,-625.5 428,-625.5 428,-625.5 428,-697.469 435.989,-780.801 441.606,-830.498"/>
<polygon fill="none" stroke="midnightblue" points="416.879,-88.907 411.534,-79.7592 410.007,-90.2435 416.879,-88.907"/>
</g>
<!-- Node6 -->
<g id="node4" class="node"><title>Node6</title>
<polygon fill="none" stroke="#bfbfbf" points="426.5,-979.5 426.5,-1036.5 467.5,-1036.5 467.5,-979.5 426.5,-979.5"/>
<text text-anchor="middle" x="447" y="-1024.5" font-family="Helvetica,sans-Serif" font-size="10.00">string</text>
<polyline fill="none" stroke="#bfbfbf" points="426.5,-1017.5 467.5,-1017.5 "/>
<text text-anchor="middle" x="447" y="-1005.5" font-family="Helvetica,sans-Serif" font-size="10.00"> </text>
<polyline fill="none" stroke="#bfbfbf" points="426.5,-998.5 467.5,-998.5 "/>
<text text-anchor="middle" x="447" y="-986.5" font-family="Helvetica,sans-Serif" font-size="10.00"> </text>
</g>
<!-- Node6&#45;&gt;Node4 -->
<g id="edge20" class="edge"><title>Node6&#45;&gt;Node4</title>
<path fill="none" stroke="#404040" d="M447,-979.324C447,-965.731 447,-948.837 447,-932.696"/>
<polygon fill="none" stroke="#404040" points="447,-932.568 443,-926.568 447,-920.568 451,-926.568 447,-932.568"/>
<text text-anchor="middle" x="462" y="-947.5" font-family="Helvetica,sans-Serif" font-size="10.00"> #desc</text>
</g>
<!-- Node6&#45;&gt;Node5 -->
<g id="edge3" class="edge"><title>Node6&#45;&gt;Node5</title>
<path fill="none" stroke="#404040" d="M467.718,-1005.61C526.482,-1000.45 690,-977.061 690,-876.5 690,-876.5 690,-876.5 690,-221 690,-112.667 541.427,-67.0431 458.076,-49.9714"/>
<polygon fill="none" stroke="#404040" points="458.053,-49.9668 451.395,-52.7364 446.278,-47.6557 452.936,-44.8862 458.053,-49.9668"/>
<text text-anchor="middle" x="702.5" y="-509" font-family="Helvetica,sans-Serif" font-size="10.00"> #text</text>
</g>
<!-- Node6&#45;&gt;Node7 -->
<g id="edge5" class="edge"><title>Node6&#45;&gt;Node7</title>
<path fill="none" stroke="#404040" d="M426.381,-1006.29C395.492,-1004.07 337.381,-995.291 305,-961 258.002,-911.23 279.768,-879.054 266,-812 260.267,-784.077 255.195,-753.576 250.997,-725.48"/>
<polygon fill="none" stroke="#404040" points="250.996,-725.473 246.167,-720.118 249.252,-713.601 254.082,-718.956 250.996,-725.473"/>
<text text-anchor="middle" x="304.5" y="-878.5" font-family="Helvetica,sans-Serif" font-size="10.00"> #image_ref</text>
<text text-anchor="middle" x="304.5" y="-867.5" font-family="Helvetica,sans-Serif" font-size="10.00">#name</text>
</g>
<!-- Node9 -->
<g id="node7" class="node"><title>Node9</title>
<g id="a_node7"><a xlink:href="class_battle_manager.html" target="_top" xlink:title="Holds current Player and Enemy objects in battle and provides functions for MainBattle and other obje...">
<polygon fill="none" stroke="black" points="126,-127.5 126,-316.5 242,-316.5 242,-127.5 126,-127.5"/>
<text text-anchor="middle" x="184" y="-304.5" font-family="Helvetica,sans-Serif" font-size="10.00">BattleManager</text>
<polyline fill="none" stroke="black" points="126,-297.5 242,-297.5 "/>
<text text-anchor="start" x="134" y="-285.5" font-family="Helvetica,sans-Serif" font-size="10.00">+ Player</text>
<text text-anchor="start" x="134" y="-274.5" font-family="Helvetica,sans-Serif" font-size="10.00">+ Enemy</text>
<text text-anchor="start" x="134" y="-263.5" font-family="Helvetica,sans-Serif" font-size="10.00">+ WasCriticalHit</text>
<polyline fill="none" stroke="black" points="126,-256.5 242,-256.5 "/>
<text text-anchor="start" x="134" y="-244.5" font-family="Helvetica,sans-Serif" font-size="10.00">+ BattleManager()</text>
<text text-anchor="start" x="134" y="-233.5" font-family="Helvetica,sans-Serif" font-size="10.00">+ playerFirst()</text>
<text text-anchor="start" x="134" y="-222.5" font-family="Helvetica,sans-Serif" font-size="10.00">+ switchPlayers()</text>
<text text-anchor="start" x="134" y="-211.5" font-family="Helvetica,sans-Serif" font-size="10.00">+ isCriticalHit()</text>
<text text-anchor="start" x="134" y="-200.5" font-family="Helvetica,sans-Serif" font-size="10.00">+ ranAway()</text>
<text text-anchor="start" x="134" y="-189.5" font-family="Helvetica,sans-Serif" font-size="10.00">+ damageCalculation()</text>
<text text-anchor="start" x="134" y="-178.5" font-family="Helvetica,sans-Serif" font-size="10.00">+ enemyMove()</text>
<text text-anchor="start" x="134" y="-167.5" font-family="Helvetica,sans-Serif" font-size="10.00">+ enemySpecialMove()</text>
<text text-anchor="start" x="134" y="-156.5" font-family="Helvetica,sans-Serif" font-size="10.00">+ battleWon()</text>
<text text-anchor="start" x="134" y="-145.5" font-family="Helvetica,sans-Serif" font-size="10.00">+ playerFainted()</text>
<text text-anchor="start" x="134" y="-134.5" font-family="Helvetica,sans-Serif" font-size="10.00">&#45; characterFainted()</text>
</a>
</g>
</g>
<!-- Node6&#45;&gt;Node9 -->
<g id="edge9" class="edge"><title>Node6&#45;&gt;Node9</title>
<path fill="none" stroke="#404040" d="M467.803,-997.743C494.093,-984.791 538.288,-958.559 558,-921 597.868,-845.035 589.552,-611.642 551,-535 533.776,-500.758 352.995,-355.543 251.756,-275.865"/>
<polygon fill="none" stroke="#404040" points="251.649,-275.781 244.46,-275.217 242.215,-268.364 249.404,-268.928 251.649,-275.781"/>
<text text-anchor="middle" x="626" y="-627.5" font-family="Helvetica,sans-Serif" font-size="10.00"> +forceEnemyMove</text>
<text text-anchor="middle" x="626" y="-616.5" font-family="Helvetica,sans-Serif" font-size="10.00">+forceCriticalHits</text>
</g>
<!-- Node13 -->
<g id="node11" class="node"><title>Node13</title>
<g id="a_node11"><a xlink:href="class_item.html" target="_top" xlink:title="Abstract class for items that can be equipped to a player, increasing some of their stats ...">
<polygon fill="none" stroke="black" points="335.5,-732.5 335.5,-811.5 412.5,-811.5 412.5,-732.5 335.5,-732.5"/>
<text text-anchor="middle" x="374" y="-799.5" font-family="Helvetica,sans-Serif" font-size="10.00">Item</text>
<polyline fill="none" stroke="black" points="335.5,-792.5 412.5,-792.5 "/>
<text text-anchor="start" x="343.5" y="-780.5" font-family="Helvetica,sans-Serif" font-size="10.00">+ Name</text>
<text text-anchor="start" x="343.5" y="-769.5" font-family="Helvetica,sans-Serif" font-size="10.00">+ Desc</text>
<polyline fill="none" stroke="black" points="335.5,-762.5 412.5,-762.5 "/>
<text text-anchor="start" x="343.5" y="-750.5" font-family="Helvetica,sans-Serif" font-size="10.00">+ applyBuffs()</text>
<text text-anchor="start" x="343.5" y="-739.5" font-family="Helvetica,sans-Serif" font-size="10.00">+ revertBuffs()</text>
</a>
</g>
</g>
<!-- Node6&#45;&gt;Node13 -->
<g id="edge18" class="edge"><title>Node6&#45;&gt;Node13</title>
<path fill="none" stroke="#404040" d="M426.385,-984.062C413.077,-967.733 396.834,-944.585 389,-921 378.646,-889.829 374.877,-853.102 373.706,-824.033"/>
<polygon fill="none" stroke="#404040" points="373.696,-823.668 369.522,-817.788 373.344,-811.673 377.518,-817.554 373.696,-823.668"/>
<text text-anchor="middle" x="425" y="-953" font-family="Helvetica,sans-Serif" font-size="10.00"> #desc</text>
<text text-anchor="middle" x="425" y="-942" font-family="Helvetica,sans-Serif" font-size="10.00">#name</text>
</g>
<!-- Node7&#45;&gt;Node5 -->
<g id="edge4" class="edge"><title>Node7&#45;&gt;Node5</title>
<path fill="none" stroke="#404040" d="M276.719,-535.305C282.917,-519.698 288.944,-503.486 294,-488 340.084,-346.833 376.719,-174.964 393.325,-91.4318"/>
<polygon fill="none" stroke="#404040" points="393.352,-91.2949 390.589,-84.6339 395.675,-79.5221 398.438,-86.1831 393.352,-91.2949"/>
<text text-anchor="middle" x="355" y="-349" font-family="Helvetica,sans-Serif" font-size="10.00"> #target</text>
<text text-anchor="middle" x="355" y="-338" font-family="Helvetica,sans-Serif" font-size="10.00">#user</text>
</g>
<!-- Node10 -->
<g id="node8" class="node"><title>Node10</title>
<g id="a_node8"><a xlink:href="class_enemy.html" target="_top" xlink:title="Defines an AI controller enemy to fight in battle scenes">
<polygon fill="none" stroke="black" points="85.5,-403 85.5,-460 152.5,-460 152.5,-403 85.5,-403"/>
<text text-anchor="middle" x="119" y="-448" font-family="Helvetica,sans-Serif" font-size="10.00">Enemy</text>
<polyline fill="none" stroke="black" points="85.5,-441 152.5,-441 "/>
<text text-anchor="start" x="93.5" y="-429" font-family="Helvetica,sans-Serif" font-size="10.00">+ ExpGiven</text>
<polyline fill="none" stroke="black" points="85.5,-422 152.5,-422 "/>
<text text-anchor="start" x="93.5" y="-410" font-family="Helvetica,sans-Serif" font-size="10.00">+ Enemy()</text>
</a>
</g>
</g>
<!-- Node7&#45;&gt;Node10 -->
<g id="edge11" class="edge"><title>Node7&#45;&gt;Node10</title>
<path fill="none" stroke="midnightblue" d="M185.027,-538.476C167.435,-510.239 149.072,-480.766 136.19,-460.091"/>
<polygon fill="none" stroke="midnightblue" points="182.196,-540.552 190.455,-547.188 188.138,-536.85 182.196,-540.552"/>
</g>
<!-- Node12 -->
<g id="node10" class="node"><title>Node12</title>
<g id="a_node10"><a xlink:href="class_player.html" target="_top" xlink:title="Defines a playable character for use in battle scenes">
<polygon fill="none" stroke="black" points="173,-375.5 173,-487.5 285,-487.5 285,-375.5 173,-375.5"/>
<text text-anchor="middle" x="229" y="-475.5" font-family="Helvetica,sans-Serif" font-size="10.00">Player</text>
<polyline fill="none" stroke="black" points="173,-468.5 285,-468.5 "/>
<text text-anchor="start" x="181" y="-456.5" font-family="Helvetica,sans-Serif" font-size="10.00">+ Exp</text>
<text text-anchor="start" x="181" y="-445.5" font-family="Helvetica,sans-Serif" font-size="10.00">+ Item</text>
<text text-anchor="start" x="181" y="-434.5" font-family="Helvetica,sans-Serif" font-size="10.00">+ ExpToNextLevel</text>
<polyline fill="none" stroke="black" points="173,-427.5 285,-427.5 "/>
<text text-anchor="start" x="181" y="-415.5" font-family="Helvetica,sans-Serif" font-size="10.00">+ Player()</text>
<text text-anchor="start" x="181" y="-404.5" font-family="Helvetica,sans-Serif" font-size="10.00">+ gainExp()</text>
<text text-anchor="start" x="181" y="-393.5" font-family="Helvetica,sans-Serif" font-size="10.00">+ levelUp()</text>
<text text-anchor="start" x="181" y="-382.5" font-family="Helvetica,sans-Serif" font-size="10.00">&#45; setExpToNextLevel()</text>
</a>
</g>
</g>
<!-- Node7&#45;&gt;Node12 -->
<g id="edge16" class="edge"><title>Node7&#45;&gt;Node12</title>
<path fill="none" stroke="midnightblue" d="M233.358,-524.981C232.753,-512.15 232.152,-499.392 231.598,-487.635"/>
<polygon fill="none" stroke="midnightblue" points="229.876,-525.444 233.842,-535.268 236.868,-525.114 229.876,-525.444"/>
</g>
<!-- Node8 -->
<g id="node6" class="node"><title>Node8</title>
<polygon fill="none" stroke="#bfbfbf" points="119.5,-979.5 119.5,-1036.5 148.5,-1036.5 148.5,-979.5 119.5,-979.5"/>
<text text-anchor="middle" x="134" y="-1024.5" font-family="Helvetica,sans-Serif" font-size="10.00">int</text>
<polyline fill="none" stroke="#bfbfbf" points="119.5,-1017.5 148.5,-1017.5 "/>
<text text-anchor="middle" x="134" y="-1005.5" font-family="Helvetica,sans-Serif" font-size="10.00"> </text>
<polyline fill="none" stroke="#bfbfbf" points="119.5,-998.5 148.5,-998.5 "/>
<text text-anchor="middle" x="134" y="-986.5" font-family="Helvetica,sans-Serif" font-size="10.00"> </text>
</g>
<!-- Node8&#45;&gt;Node4 -->
<g id="edge21" class="edge"><title>Node8&#45;&gt;Node4</title>
<path fill="none" stroke="#404040" d="M148.712,-1001.21C183.273,-987.557 272.291,-952.18 346,-921 359.235,-915.401 373.385,-909.263 386.776,-903.383"/>
<polygon fill="none" stroke="#404040" points="386.829,-903.36 390.707,-897.28 397.81,-898.522 393.932,-904.601 386.829,-903.36"/>
<text text-anchor="middle" x="317.5" y="-947.5" font-family="Helvetica,sans-Serif" font-size="10.00"> #magic</text>
</g>
<!-- Node8&#45;&gt;Node7 -->
<g id="edge6" class="edge"><title>Node8&#45;&gt;Node7</title>
<path fill="none" stroke="#404040" d="M142.631,-979.281C157.213,-932.814 185.928,-842.986 194,-830 199.972,-820.391 206.957,-822.128 212,-812 225.068,-785.753 232.171,-755.006 235.884,-726.134"/>
<polygon fill="none" stroke="#404040" points="235.92,-725.816 232.623,-719.403 237.275,-713.893 240.572,-720.306 235.92,-725.816"/>
<text text-anchor="middle" x="231.5" y="-911.5" font-family="Helvetica,sans-Serif" font-size="10.00"> #speed</text>
<text text-anchor="middle" x="231.5" y="-900.5" font-family="Helvetica,sans-Serif" font-size="10.00">#luck</text>
<text text-anchor="middle" x="231.5" y="-889.5" font-family="Helvetica,sans-Serif" font-size="10.00">#health</text>
<text text-anchor="middle" x="231.5" y="-878.5" font-family="Helvetica,sans-Serif" font-size="10.00">#magic</text>
<text text-anchor="middle" x="231.5" y="-867.5" font-family="Helvetica,sans-Serif" font-size="10.00">#maximumMagic</text>
<text text-anchor="middle" x="231.5" y="-856.5" font-family="Helvetica,sans-Serif" font-size="10.00">#attack</text>
<text text-anchor="middle" x="231.5" y="-845.5" font-family="Helvetica,sans-Serif" font-size="10.00">#defence</text>
<text text-anchor="middle" x="231.5" y="-834.5" font-family="Helvetica,sans-Serif" font-size="10.00">#level</text>
</g>
<!-- Node8&#45;&gt;Node9 -->
<g id="edge13" class="edge"><title>Node8&#45;&gt;Node9</title>
<path fill="none" stroke="#404040" d="M119.405,-1001.12C84.6747,-986.067 0,-942.583 0,-876.5 0,-876.5 0,-876.5 0,-430.5 0,-358.128 63.4349,-299.207 115.812,-262.892"/>
<polygon fill="none" stroke="#404040" points="115.839,-262.874 118.57,-256.2 125.781,-256.155 123.05,-262.828 115.839,-262.874"/>
<text text-anchor="middle" x="19.5" y="-622" font-family="Helvetica,sans-Serif" font-size="10.00"> +money</text>
</g>
<!-- Node8&#45;&gt;Node10 -->
<g id="edge12" class="edge"><title>Node8&#45;&gt;Node10</title>
<path fill="none" stroke="#404040" d="M121.411,-979.323C105.272,-942.178 78.161,-873.715 68,-812 47.624,-688.241 84.9838,-540.771 106.044,-471.761"/>
<polygon fill="none" stroke="#404040" points="106.076,-471.658 104.042,-464.74 109.646,-460.201 111.68,-467.12 106.076,-471.658"/>
<text text-anchor="middle" x="91" y="-769.5" font-family="Helvetica,sans-Serif" font-size="10.00"> &#45;expGiven</text>
</g>
<!-- Node8&#45;&gt;Node12 -->
<g id="edge19" class="edge"><title>Node8&#45;&gt;Node12</title>
<path fill="none" stroke="#404040" d="M133.813,-979.229C133.568,-941.408 133.153,-871.584 133,-812 132.909,-776.445 128.761,-767.302 133,-732 143.743,-642.526 151.076,-620.004 181,-535 185.203,-523.061 190.33,-510.641 195.649,-498.737"/>
<polygon fill="none" stroke="#404040" points="195.791,-498.427 194.651,-491.307 200.785,-487.515 201.925,-494.636 195.791,-498.427"/>
<text text-anchor="middle" x="170.5" y="-775" font-family="Helvetica,sans-Serif" font-size="10.00"> &#45;expToNextLevel</text>
<text text-anchor="middle" x="170.5" y="-764" font-family="Helvetica,sans-Serif" font-size="10.00">&#45;exp</text>
</g>
<!-- Node9&#45;&gt;Node5 -->
<g id="edge8" class="edge"><title>Node9&#45;&gt;Node5</title>
<path fill="none" stroke="#404040" d="M242.326,-163.884C265.236,-142.416 292.19,-118.308 318,-98 327.947,-90.1734 338.939,-82.2891 349.626,-74.9851"/>
<polygon fill="none" stroke="#404040" points="349.779,-74.8822 352.522,-68.2134 359.733,-68.181 356.99,-74.8498 349.779,-74.8822"/>
<text text-anchor="middle" x="341" y="-101" font-family="Helvetica,sans-Serif" font-size="10.00"> #manager</text>
</g>
<!-- Node10&#45;&gt;Node9 -->
<g id="edge10" class="edge"><title>Node10&#45;&gt;Node9</title>
<path fill="none" stroke="#404040" d="M127.631,-402.946C133.763,-383.373 142.419,-355.738 151.113,-327.985"/>
<polygon fill="none" stroke="#404040" points="151.115,-327.979 149.091,-321.058 154.702,-316.528 156.726,-323.449 151.115,-327.979"/>
<text text-anchor="middle" x="166" y="-343.5" font-family="Helvetica,sans-Serif" font-size="10.00"> &#45;enemy</text>
</g>
<!-- Node11 -->
<g id="node9" class="node"><title>Node11</title>
<polygon fill="none" stroke="#bfbfbf" points="32.5,-403 32.5,-460 67.5,-460 67.5,-403 32.5,-403"/>
<text text-anchor="middle" x="50" y="-448" font-family="Helvetica,sans-Serif" font-size="10.00">bool</text>
<polyline fill="none" stroke="#bfbfbf" points="32.5,-441 67.5,-441 "/>
<text text-anchor="middle" x="50" y="-429" font-family="Helvetica,sans-Serif" font-size="10.00"> </text>
<polyline fill="none" stroke="#bfbfbf" points="32.5,-422 67.5,-422 "/>
<text text-anchor="middle" x="50" y="-410" font-family="Helvetica,sans-Serif" font-size="10.00"> </text>
</g>
<!-- Node11&#45;&gt;Node9 -->
<g id="edge14" class="edge"><title>Node11&#45;&gt;Node9</title>
<path fill="none" stroke="#404040" d="M53.0378,-402.726C56.1226,-382.858 62.2054,-356.022 74,-335 85.1958,-315.045 100.879,-296.134 116.901,-279.727"/>
<polygon fill="none" stroke="#404040" points="117.296,-279.334 118.735,-272.268 125.811,-270.879 124.372,-277.945 117.296,-279.334"/>
<text text-anchor="middle" x="107" y="-343.5" font-family="Helvetica,sans-Serif" font-size="10.00"> &#45;wasCriticalHit</text>
</g>
<!-- Node12&#45;&gt;Node9 -->
<g id="edge15" class="edge"><title>Node12&#45;&gt;Node9</title>
<path fill="none" stroke="#404040" d="M217.059,-375.439C213.916,-360.946 210.418,-344.815 206.906,-328.623"/>
<polygon fill="none" stroke="#404040" points="206.895,-328.572 201.714,-323.556 204.352,-316.845 209.533,-321.86 206.895,-328.572"/>
<text text-anchor="middle" x="228.5" y="-343.5" font-family="Helvetica,sans-Serif" font-size="10.00"> &#45;player</text>
</g>
<!-- Node13&#45;&gt;Node12 -->
<g id="edge17" class="edge"><title>Node13&#45;&gt;Node12</title>
<path fill="none" stroke="#404040" d="M363.952,-732.298C350.885,-684.62 325.911,-601.742 294,-535 288.095,-522.649 281.001,-509.966 273.701,-497.914"/>
<polygon fill="none" stroke="#404040" points="273.576,-497.711 267.016,-494.716 267.258,-487.509 273.818,-490.504 273.576,-497.711"/>
<text text-anchor="middle" x="371.5" y="-622" font-family="Helvetica,sans-Serif" font-size="10.00"> &#45;item</text>
</g>
<!-- Node14 -->
<g id="node12" class="node"><title>Node14</title>
<polygon fill="none" stroke="#bfbfbf" points="514.5,-847 514.5,-904 549.5,-904 549.5,-847 514.5,-847"/>
<text text-anchor="middle" x="532" y="-892" font-family="Helvetica,sans-Serif" font-size="10.00">float</text>
<polyline fill="none" stroke="#bfbfbf" points="514.5,-885 549.5,-885 "/>
<text text-anchor="middle" x="532" y="-873" font-family="Helvetica,sans-Serif" font-size="10.00"> </text>
<polyline fill="none" stroke="#bfbfbf" points="514.5,-866 549.5,-866 "/>
<text text-anchor="middle" x="532" y="-854" font-family="Helvetica,sans-Serif" font-size="10.00"> </text>
</g>
<!-- Node14&#45;&gt;Node3 -->
<g id="edge22" class="edge"><title>Node14&#45;&gt;Node3</title>
<path fill="none" stroke="#404040" d="M526.788,-846.864C524.833,-836.016 522.681,-823.446 521,-812 513.935,-763.892 507.635,-708.539 503.607,-670.711"/>
<polygon fill="none" stroke="#404040" points="503.587,-670.524 498.98,-664.976 502.33,-658.59 506.936,-664.138 503.587,-670.524"/>
<text text-anchor="middle" x="542.5" y="-769.5" font-family="Helvetica,sans-Serif" font-size="10.00"> &#45;increase</text>
</g>
</g>
</svg>
