<?xml version="1.0" encoding="UTF-8" standalone="no"?>
<!DOCTYPE svg PUBLIC "-//W3C//DTD SVG 1.1//EN"
 "http://www.w3.org/Graphics/SVG/1.1/DTD/svg11.dtd">
<!-- Generated by graphviz version 2.38.0 (20140413.2041)
 -->
<!-- Title: MainBattle Pages: 1 -->
<svg width="1363pt" height="1676pt"
 viewBox="0.00 0.00 1363.00 1676.00" xmlns="http://www.w3.org/2000/svg" xmlns:xlink="http://www.w3.org/1999/xlink">
<g id="graph0" class="graph" transform="scale(1 1) rotate(0) translate(4 1672)">
<title>MainBattle</title>
<!-- Node2 -->
<g id="node1" class="node"><title>Node2</title>
<polygon fill="#bfbfbf" stroke="black" points="730,-0.5 730,-255.5 856,-255.5 856,-0.5 730,-0.5"/>
<text text-anchor="middle" x="793" y="-243.5" font-family="Helvetica,sans-Serif" font-size="10.00">MainBattle</text>
<polyline fill="none" stroke="black" points="730,-236.5 856,-236.5 "/>
<text text-anchor="middle" x="793" y="-224.5" font-family="Helvetica,sans-Serif" font-size="10.00"> </text>
<polyline fill="none" stroke="black" points="730,-217.5 856,-217.5 "/>
<text text-anchor="start" x="738" y="-205.5" font-family="Helvetica,sans-Serif" font-size="10.00">+ standardAttack()</text>
<text text-anchor="start" x="738" y="-194.5" font-family="Helvetica,sans-Serif" font-size="10.00">+ special1()</text>
<text text-anchor="start" x="738" y="-183.5" font-family="Helvetica,sans-Serif" font-size="10.00">+ special2()</text>
<text text-anchor="start" x="738" y="-172.5" font-family="Helvetica,sans-Serif" font-size="10.00">+ switchPlayers()</text>
<text text-anchor="start" x="738" y="-161.5" font-family="Helvetica,sans-Serif" font-size="10.00">+ updateToNewPlayer()</text>
<text text-anchor="start" x="738" y="-150.5" font-family="Helvetica,sans-Serif" font-size="10.00">+ ranAway()</text>
<text text-anchor="start" x="738" y="-139.5" font-family="Helvetica,sans-Serif" font-size="10.00">&#45; Start()</text>
<text text-anchor="start" x="738" y="-128.5" font-family="Helvetica,sans-Serif" font-size="10.00">&#45; Update()</text>
<text text-anchor="start" x="738" y="-117.5" font-family="Helvetica,sans-Serif" font-size="10.00">&#45; playerThenEnemy()</text>
<text text-anchor="start" x="738" y="-106.5" font-family="Helvetica,sans-Serif" font-size="10.00">&#45; enemyThenPlayer()</text>
<text text-anchor="start" x="738" y="-95.5" font-family="Helvetica,sans-Serif" font-size="10.00">&#45; performTurn()</text>
<text text-anchor="start" x="738" y="-84.5" font-family="Helvetica,sans-Serif" font-size="10.00">&#45; updateBars()</text>
<text text-anchor="start" x="738" y="-73.5" font-family="Helvetica,sans-Serif" font-size="10.00">&#45; checkIfPlayerWon()</text>
<text text-anchor="start" x="738" y="-62.5" font-family="Helvetica,sans-Serif" font-size="10.00">&#45; updateExp()</text>
<text text-anchor="start" x="738" y="-51.5" font-family="Helvetica,sans-Serif" font-size="10.00">&#45; updateExpHelper()</text>
<text text-anchor="start" x="738" y="-40.5" font-family="Helvetica,sans-Serif" font-size="10.00">&#45; checkIfPlayerLost()</text>
<text text-anchor="start" x="738" y="-29.5" font-family="Helvetica,sans-Serif" font-size="10.00">&#45; setButtonsInteractable()</text>
<text text-anchor="start" x="738" y="-18.5" font-family="Helvetica,sans-Serif" font-size="10.00">&#45; prepareTurn()</text>
<text text-anchor="start" x="738" y="-7.5" font-family="Helvetica,sans-Serif" font-size="10.00">&#45; runAway()</text>
</g>
<!-- Node3 -->
<g id="node2" class="node"><title>Node3</title>
<g id="a_node2"><a xlink:href="class_mono_behaviour.html" target="_top" xlink:title="{MonoBehaviour\n||}">
<polygon fill="none" stroke="black" points="821.5,-546 821.5,-603 904.5,-603 904.5,-546 821.5,-546"/>
<text text-anchor="middle" x="863" y="-591" font-family="Helvetica,sans-Serif" font-size="10.00">MonoBehaviour</text>
<polyline fill="none" stroke="black" points="821.5,-584 904.5,-584 "/>
<text text-anchor="middle" x="863" y="-572" font-family="Helvetica,sans-Serif" font-size="10.00"> </text>
<polyline fill="none" stroke="black" points="821.5,-565 904.5,-565 "/>
<text text-anchor="middle" x="863" y="-553" font-family="Helvetica,sans-Serif" font-size="10.00"> </text>
</a>
</g>
</g>
<!-- Node3&#45;&gt;Node2 -->
<g id="edge1" class="edge"><title>Node3&#45;&gt;Node2</title>
<path fill="none" stroke="midnightblue" d="M857.047,-535.7C847.393,-474.397 827.895,-350.585 812.935,-255.589"/>
<polygon fill="none" stroke="midnightblue" points="853.608,-536.361 858.621,-545.695 860.523,-535.272 853.608,-536.361"/>
</g>
<!-- Node17 -->
<g id="node16" class="node"><title>Node17</title>
<g id="a_node16"><a xlink:href="class_stats_script.html" target="_top" xlink:title="A script used to manage and update all of the stat displays in the battle scene ">
<polygon fill="none" stroke="black" points="859.5,-347.5 859.5,-426.5 952.5,-426.5 952.5,-347.5 859.5,-347.5"/>
<text text-anchor="middle" x="906" y="-414.5" font-family="Helvetica,sans-Serif" font-size="10.00">StatsScript</text>
<polyline fill="none" stroke="black" points="859.5,-407.5 952.5,-407.5 "/>
<text text-anchor="middle" x="906" y="-395.5" font-family="Helvetica,sans-Serif" font-size="10.00"> </text>
<polyline fill="none" stroke="black" points="859.5,-388.5 952.5,-388.5 "/>
<text text-anchor="start" x="867.5" y="-376.5" font-family="Helvetica,sans-Serif" font-size="10.00">+ setUpDisplay()</text>
<text text-anchor="start" x="867.5" y="-365.5" font-family="Helvetica,sans-Serif" font-size="10.00">+ updateDisplay()</text>
<text text-anchor="start" x="867.5" y="-354.5" font-family="Helvetica,sans-Serif" font-size="10.00">&#45; Start()</text>
</a>
</g>
</g>
<!-- Node3&#45;&gt;Node17 -->
<g id="edge31" class="edge"><title>Node3&#45;&gt;Node17</title>
<path fill="none" stroke="midnightblue" d="M871.712,-535.915C879.085,-504.112 889.607,-458.717 897.047,-426.623"/>
<polygon fill="none" stroke="midnightblue" points="868.286,-535.197 869.438,-545.729 875.105,-536.777 868.286,-535.197"/>
</g>
<!-- Node4 -->
<g id="node3" class="node"><title>Node4</title>
<polygon fill="none" stroke="#bfbfbf" points="971,-358.5 971,-415.5 1029,-415.5 1029,-358.5 971,-358.5"/>
<text text-anchor="middle" x="1000" y="-403.5" font-family="Helvetica,sans-Serif" font-size="10.00">AudioClip</text>
<polyline fill="none" stroke="#bfbfbf" points="971,-396.5 1029,-396.5 "/>
<text text-anchor="middle" x="1000" y="-384.5" font-family="Helvetica,sans-Serif" font-size="10.00"> </text>
<polyline fill="none" stroke="#bfbfbf" points="971,-377.5 1029,-377.5 "/>
<text text-anchor="middle" x="1000" y="-365.5" font-family="Helvetica,sans-Serif" font-size="10.00"> </text>
</g>
<!-- Node4&#45;&gt;Node2 -->
<g id="edge2" class="edge"><title>Node4&#45;&gt;Node2</title>
<path fill="none" stroke="#404040" d="M994.021,-358.41C987.933,-334.563 976.82,-299.943 959,-274 934.064,-237.698 897.997,-204.729 865.848,-179.434"/>
<polygon fill="none" stroke="#404040" points="865.508,-179.172 858.315,-178.669 856.013,-171.835 863.206,-172.338 865.508,-179.172"/>
<text text-anchor="middle" x="1000.5" y="-304.5" font-family="Helvetica,sans-Serif" font-size="10.00"> &#45;BGM</text>
<text text-anchor="middle" x="1000.5" y="-293.5" font-family="Helvetica,sans-Serif" font-size="10.00">&#45;victory</text>
</g>
<!-- Node5 -->
<g id="node4" class="node"><title>Node5</title>
<g id="a_node4"><a xlink:href="class_item.html" target="_top" xlink:title="Abstract class for items that can be equipped to a player, increasing some of their stats ...">
<polygon fill="none" stroke="black" points="53.5,-1472.5 53.5,-1551.5 130.5,-1551.5 130.5,-1472.5 53.5,-1472.5"/>
<text text-anchor="middle" x="92" y="-1539.5" font-family="Helvetica,sans-Serif" font-size="10.00">Item</text>
<polyline fill="none" stroke="black" points="53.5,-1532.5 130.5,-1532.5 "/>
<text text-anchor="start" x="61.5" y="-1520.5" font-family="Helvetica,sans-Serif" font-size="10.00">+ Name</text>
<text text-anchor="start" x="61.5" y="-1509.5" font-family="Helvetica,sans-Serif" font-size="10.00">+ Desc</text>
<polyline fill="none" stroke="black" points="53.5,-1502.5 130.5,-1502.5 "/>
<text text-anchor="start" x="61.5" y="-1490.5" font-family="Helvetica,sans-Serif" font-size="10.00">+ applyBuffs()</text>
<text text-anchor="start" x="61.5" y="-1479.5" font-family="Helvetica,sans-Serif" font-size="10.00">+ revertBuffs()</text>
</a>
</g>
</g>
<!-- Node5&#45;&gt;Node2 -->
<g id="edge3" class="edge"><title>Node5&#45;&gt;Node2</title>
<path fill="none" stroke="#404040" d="M75.56,-1472.27C64.1535,-1441.9 51,-1398.25 51,-1358.5 51,-1358.5 51,-1358.5 51,-386 51,-245.931 529.077,-165.138 717.737,-138.709"/>
<polygon fill="none" stroke="#404040" points="717.851,-138.693 723.245,-133.908 729.737,-137.046 724.343,-141.832 717.851,-138.693"/>
<text text-anchor="middle" x="80" y="-834" font-family="Helvetica,sans-Serif" font-size="10.00"> &#45;itemReward</text>
</g>
<!-- Node15 -->
<g id="node14" class="node"><title>Node15</title>
<g id="a_node14"><a xlink:href="class_player.html" target="_top" xlink:title="Defines a playable character for use in battle scenes">
<polygon fill="none" stroke="black" points="219,-1301.5 219,-1413.5 331,-1413.5 331,-1301.5 219,-1301.5"/>
<text text-anchor="middle" x="275" y="-1401.5" font-family="Helvetica,sans-Serif" font-size="10.00">Player</text>
<polyline fill="none" stroke="black" points="219,-1394.5 331,-1394.5 "/>
<text text-anchor="start" x="227" y="-1382.5" font-family="Helvetica,sans-Serif" font-size="10.00">+ Exp</text>
<text text-anchor="start" x="227" y="-1371.5" font-family="Helvetica,sans-Serif" font-size="10.00">+ Item</text>
<text text-anchor="start" x="227" y="-1360.5" font-family="Helvetica,sans-Serif" font-size="10.00">+ ExpToNextLevel</text>
<polyline fill="none" stroke="black" points="219,-1353.5 331,-1353.5 "/>
<text text-anchor="start" x="227" y="-1341.5" font-family="Helvetica,sans-Serif" font-size="10.00">+ Player()</text>
<text text-anchor="start" x="227" y="-1330.5" font-family="Helvetica,sans-Serif" font-size="10.00">+ gainExp()</text>
<text text-anchor="start" x="227" y="-1319.5" font-family="Helvetica,sans-Serif" font-size="10.00">+ levelUp()</text>
<text text-anchor="start" x="227" y="-1308.5" font-family="Helvetica,sans-Serif" font-size="10.00">&#45; setExpToNextLevel()</text>
</a>
</g>
</g>
<!-- Node5&#45;&gt;Node15 -->
<g id="edge22" class="edge"><title>Node5&#45;&gt;Node15</title>
<path fill="none" stroke="#404040" d="M130.81,-1478.66C153.61,-1459.66 183.031,-1435.14 209.345,-1413.21"/>
<polygon fill="none" stroke="#404040" points="209.663,-1412.95 211.711,-1406.03 218.881,-1405.27 216.833,-1412.18 209.663,-1412.95"/>
<text text-anchor="middle" x="196.5" y="-1440.5" font-family="Helvetica,sans-Serif" font-size="10.00"> &#45;item</text>
</g>
<!-- Node6 -->
<g id="node5" class="node"><title>Node6</title>
<polygon fill="none" stroke="#bfbfbf" points="535.5,-1610.5 535.5,-1667.5 576.5,-1667.5 576.5,-1610.5 535.5,-1610.5"/>
<text text-anchor="middle" x="556" y="-1655.5" font-family="Helvetica,sans-Serif" font-size="10.00">string</text>
<polyline fill="none" stroke="#bfbfbf" points="535.5,-1648.5 576.5,-1648.5 "/>
<text text-anchor="middle" x="556" y="-1636.5" font-family="Helvetica,sans-Serif" font-size="10.00"> </text>
<polyline fill="none" stroke="#bfbfbf" points="535.5,-1629.5 576.5,-1629.5 "/>
<text text-anchor="middle" x="556" y="-1617.5" font-family="Helvetica,sans-Serif" font-size="10.00"> </text>
</g>
<!-- Node6&#45;&gt;Node2 -->
<g id="edge5" class="edge"><title>Node6&#45;&gt;Node2</title>
<path fill="none" stroke="#404040" d="M535.219,-1637.86C434.282,-1636.65 0,-1624.92 0,-1513 0,-1513 0,-1513 0,-386 0,-325.593 26.6101,-307.314 77,-274 182.174,-204.467 555.854,-155.478 717.537,-137.063"/>
<polygon fill="none" stroke="#404040" points="717.809,-137.033 723.322,-132.385 729.733,-135.687 724.22,-140.334 717.809,-137.033"/>
<text text-anchor="middle" x="11.5" y="-897.5" font-family="Helvetica,sans-Serif" font-size="10.00"> &#45;text</text>
</g>
<!-- Node6&#45;&gt;Node5 -->
<g id="edge4" class="edge"><title>Node6&#45;&gt;Node5</title>
<path fill="none" stroke="#404040" d="M535.464,-1632.47C466.701,-1613.94 243.215,-1553.74 142.284,-1526.55"/>
<polygon fill="none" stroke="#404040" points="142.188,-1526.52 135.354,-1528.82 130.601,-1523.4 137.435,-1521.1 142.188,-1526.52"/>
<text text-anchor="middle" x="395" y="-1584" font-family="Helvetica,sans-Serif" font-size="10.00"> #desc</text>
<text text-anchor="middle" x="395" y="-1573" font-family="Helvetica,sans-Serif" font-size="10.00">#name</text>
</g>
<!-- Node9 -->
<g id="node8" class="node"><title>Node9</title>
<g id="a_node8"><a xlink:href="class_character.html" target="_top" xlink:title="Base abstract class for Enemy and Player to inherit from. Defines all shared variables, their constructor and their setters and getters ">
<polygon fill="none" stroke="black" points="445.5,-485.5 445.5,-663.5 540.5,-663.5 540.5,-485.5 445.5,-485.5"/>
<text text-anchor="middle" x="493" y="-651.5" font-family="Helvetica,sans-Serif" font-size="10.00">Character</text>
<polyline fill="none" stroke="black" points="445.5,-644.5 540.5,-644.5 "/>
<text text-anchor="start" x="453.5" y="-632.5" font-family="Helvetica,sans-Serif" font-size="10.00">+ Name</text>
<text text-anchor="start" x="453.5" y="-621.5" font-family="Helvetica,sans-Serif" font-size="10.00">+ Level</text>
<text text-anchor="start" x="453.5" y="-610.5" font-family="Helvetica,sans-Serif" font-size="10.00">+ Health</text>
<text text-anchor="start" x="453.5" y="-599.5" font-family="Helvetica,sans-Serif" font-size="10.00">+ Attack</text>
<text text-anchor="start" x="453.5" y="-588.5" font-family="Helvetica,sans-Serif" font-size="10.00">+ Defence</text>
<text text-anchor="start" x="453.5" y="-577.5" font-family="Helvetica,sans-Serif" font-size="10.00">+ MaximumMagic</text>
<text text-anchor="start" x="453.5" y="-566.5" font-family="Helvetica,sans-Serif" font-size="10.00">+ Magic</text>
<text text-anchor="start" x="453.5" y="-555.5" font-family="Helvetica,sans-Serif" font-size="10.00">+ Luck</text>
<text text-anchor="start" x="453.5" y="-544.5" font-family="Helvetica,sans-Serif" font-size="10.00">+ Speed</text>
<text text-anchor="start" x="453.5" y="-533.5" font-family="Helvetica,sans-Serif" font-size="10.00">+ Special1</text>
<text text-anchor="start" x="453.5" y="-522.5" font-family="Helvetica,sans-Serif" font-size="10.00">+ Special2</text>
<text text-anchor="start" x="453.5" y="-511.5" font-family="Helvetica,sans-Serif" font-size="10.00">+ Image</text>
<polyline fill="none" stroke="black" points="445.5,-504.5 540.5,-504.5 "/>
<text text-anchor="start" x="453.5" y="-492.5" font-family="Helvetica,sans-Serif" font-size="10.00"># Character()</text>
</a>
</g>
</g>
<!-- Node6&#45;&gt;Node9 -->
<g id="edge9" class="edge"><title>Node6&#45;&gt;Node9</title>
<path fill="none" stroke="#404040" d="M565.531,-1610.01C567.251,-1604.12 568.858,-1597.9 570,-1592 575.595,-1563.09 604.783,-1091.22 616,-1064 619.967,-1054.37 627.455,-1055.79 631,-1046 644.314,-1009.22 634.996,-996.906 631,-958 620.054,-851.435 621.269,-821.669 582,-722 572.813,-698.681 560.038,-674.85 547.03,-653.367"/>
<polygon fill="none" stroke="#404040" points="546.947,-653.232 540.391,-650.229 540.641,-643.022 547.197,-646.025 546.947,-653.232"/>
<text text-anchor="middle" x="641.5" y="-1162" font-family="Helvetica,sans-Serif" font-size="10.00"> #image_ref</text>
<text text-anchor="middle" x="641.5" y="-1151" font-family="Helvetica,sans-Serif" font-size="10.00">#name</text>
</g>
<!-- Node11 -->
<g id="node10" class="node"><title>Node11</title>
<g id="a_node10"><a xlink:href="class_special_move.html" target="_top" xlink:title="Special move abstract base class that expands upon CharacterMove, adding magic properties ...">
<polygon fill="none" stroke="black" points="411,-722.5 411,-812.5 509,-812.5 509,-722.5 411,-722.5"/>
<text text-anchor="middle" x="460" y="-800.5" font-family="Helvetica,sans-Serif" font-size="10.00">SpecialMove</text>
<polyline fill="none" stroke="black" points="411,-793.5 509,-793.5 "/>
<text text-anchor="start" x="419" y="-781.5" font-family="Helvetica,sans-Serif" font-size="10.00">+ Magic</text>
<text text-anchor="start" x="419" y="-770.5" font-family="Helvetica,sans-Serif" font-size="10.00">+ Desc</text>
<polyline fill="none" stroke="black" points="411,-763.5 509,-763.5 "/>
<text text-anchor="start" x="419" y="-751.5" font-family="Helvetica,sans-Serif" font-size="10.00">+ setUp()</text>
<text text-anchor="start" x="419" y="-740.5" font-family="Helvetica,sans-Serif" font-size="10.00">+ decreaseMagic()</text>
<text text-anchor="start" x="419" y="-729.5" font-family="Helvetica,sans-Serif" font-size="10.00"># SpecialMove()</text>
</a>
</g>
</g>
<!-- Node6&#45;&gt;Node11 -->
<g id="edge24" class="edge"><title>Node6&#45;&gt;Node11</title>
<path fill="none" stroke="#404040" d="M539.684,-1610.4C516.017,-1569.11 472.435,-1488.18 449,-1414 431.215,-1357.71 431.906,-1341.83 427,-1283 426.594,-1278.13 424.561,-1276.24 427,-1272 434.949,-1258.19 449.92,-1267.73 458,-1254 528.794,-1133.7 462.667,-1079.57 464,-940 464.463,-891.558 465.548,-879.42 464,-831 463.934,-828.945 463.857,-826.853 463.769,-824.741"/>
<polygon fill="none" stroke="#404040" points="463.758,-824.517 459.47,-818.719 463.172,-812.531 467.46,-818.329 463.758,-824.517"/>
<text text-anchor="middle" x="442" y="-1275" font-family="Helvetica,sans-Serif" font-size="10.00"> #desc</text>
</g>
<!-- Node12 -->
<g id="node11" class="node"><title>Node12</title>
<g id="a_node11"><a xlink:href="class_character_move.html" target="_top" xlink:title="Astract base class for character moves ">
<polygon fill="none" stroke="black" points="508,-860.5 508,-939.5 594,-939.5 594,-860.5 508,-860.5"/>
<text text-anchor="middle" x="551" y="-927.5" font-family="Helvetica,sans-Serif" font-size="10.00">CharacterMove</text>
<polyline fill="none" stroke="black" points="508,-920.5 594,-920.5 "/>
<text text-anchor="start" x="516" y="-908.5" font-family="Helvetica,sans-Serif" font-size="10.00">+ User</text>
<text text-anchor="start" x="516" y="-897.5" font-family="Helvetica,sans-Serif" font-size="10.00">+ Target</text>
<text text-anchor="start" x="516" y="-886.5" font-family="Helvetica,sans-Serif" font-size="10.00">+ Text</text>
<polyline fill="none" stroke="black" points="508,-879.5 594,-879.5 "/>
<text text-anchor="start" x="516" y="-867.5" font-family="Helvetica,sans-Serif" font-size="10.00">+ performMove()</text>
</a>
</g>
</g>
<!-- Node6&#45;&gt;Node12 -->
<g id="edge13" class="edge"><title>Node6&#45;&gt;Node12</title>
<path fill="none" stroke="#404040" d="M555.813,-1610.45C555.071,-1501 552.322,-1095.82 551.346,-952.026"/>
<polygon fill="none" stroke="#404040" points="551.344,-951.736 547.304,-945.763 551.263,-939.736 555.303,-945.709 551.344,-951.736"/>
<text text-anchor="middle" x="567.5" y="-1355" font-family="Helvetica,sans-Serif" font-size="10.00"> #text</text>
</g>
<!-- Node13 -->
<g id="node12" class="node"><title>Node13</title>
<g id="a_node12"><a xlink:href="class_battle_manager.html" target="_top" xlink:title="Holds current Player and Enemy objects in battle and provides functions for MainBattle and other obje...">
<polygon fill="none" stroke="black" points="676,-1064.5 676,-1253.5 792,-1253.5 792,-1064.5 676,-1064.5"/>
<text text-anchor="middle" x="734" y="-1241.5" font-family="Helvetica,sans-Serif" font-size="10.00">BattleManager</text>
<polyline fill="none" stroke="black" points="676,-1234.5 792,-1234.5 "/>
<text text-anchor="start" x="684" y="-1222.5" font-family="Helvetica,sans-Serif" font-size="10.00">+ Player</text>
<text text-anchor="start" x="684" y="-1211.5" font-family="Helvetica,sans-Serif" font-size="10.00">+ Enemy</text>
<text text-anchor="start" x="684" y="-1200.5" font-family="Helvetica,sans-Serif" font-size="10.00">+ WasCriticalHit</text>
<polyline fill="none" stroke="black" points="676,-1193.5 792,-1193.5 "/>
<text text-anchor="start" x="684" y="-1181.5" font-family="Helvetica,sans-Serif" font-size="10.00">+ BattleManager()</text>
<text text-anchor="start" x="684" y="-1170.5" font-family="Helvetica,sans-Serif" font-size="10.00">+ playerFirst()</text>
<text text-anchor="start" x="684" y="-1159.5" font-family="Helvetica,sans-Serif" font-size="10.00">+ switchPlayers()</text>
<text text-anchor="start" x="684" y="-1148.5" font-family="Helvetica,sans-Serif" font-size="10.00">+ isCriticalHit()</text>
<text text-anchor="start" x="684" y="-1137.5" font-family="Helvetica,sans-Serif" font-size="10.00">+ ranAway()</text>
<text text-anchor="start" x="684" y="-1126.5" font-family="Helvetica,sans-Serif" font-size="10.00">+ damageCalculation()</text>
<text text-anchor="start" x="684" y="-1115.5" font-family="Helvetica,sans-Serif" font-size="10.00">+ enemyMove()</text>
<text text-anchor="start" x="684" y="-1104.5" font-family="Helvetica,sans-Serif" font-size="10.00">+ enemySpecialMove()</text>
<text text-anchor="start" x="684" y="-1093.5" font-family="Helvetica,sans-Serif" font-size="10.00">+ battleWon()</text>
<text text-anchor="start" x="684" y="-1082.5" font-family="Helvetica,sans-Serif" font-size="10.00">+ playerFainted()</text>
<text text-anchor="start" x="684" y="-1071.5" font-family="Helvetica,sans-Serif" font-size="10.00">&#45; characterFainted()</text>
</a>
</g>
</g>
<!-- Node6&#45;&gt;Node13 -->
<g id="edge16" class="edge"><title>Node6&#45;&gt;Node13</title>
<path fill="none" stroke="#404040" d="M576.565,-1628.85C591.612,-1621.12 611.355,-1608.65 623,-1592 691.028,-1494.73 717.386,-1359.07 727.586,-1265.86"/>
<polygon fill="none" stroke="#404040" points="727.593,-1265.79 724.236,-1259.41 728.836,-1253.85 732.193,-1260.24 727.593,-1265.79"/>
<text text-anchor="middle" x="737" y="-1446" font-family="Helvetica,sans-Serif" font-size="10.00"> +forceEnemyMove</text>
<text text-anchor="middle" x="737" y="-1435" font-family="Helvetica,sans-Serif" font-size="10.00">+forceCriticalHits</text>
</g>
<!-- Node6&#45;&gt;Node17 -->
<g id="edge32" class="edge"><title>Node6&#45;&gt;Node17</title>
<path fill="none" stroke="#404040" d="M576.537,-1635.75C655.208,-1626.56 933,-1588.76 933,-1513 933,-1513 933,-1513 933,-573.5 933,-527.595 924.803,-475.96 917.442,-438.846"/>
<polygon fill="none" stroke="#404040" points="917.392,-438.602 912.272,-433.524 914.991,-426.845 920.111,-431.923 917.392,-438.602"/>
<text text-anchor="middle" x="960" y="-1005" font-family="Helvetica,sans-Serif" font-size="10.00"> &#45;textHeader</text>
<text text-anchor="middle" x="960" y="-994" font-family="Helvetica,sans-Serif" font-size="10.00">&#45;textFooter</text>
</g>
<!-- Node7 -->
<g id="node6" class="node"><title>Node7</title>
<polygon fill="none" stroke="#bfbfbf" points="1047.5,-358.5 1047.5,-415.5 1118.5,-415.5 1118.5,-358.5 1047.5,-358.5"/>
<text text-anchor="middle" x="1083" y="-403.5" font-family="Helvetica,sans-Serif" font-size="10.00">GameObject</text>
<polyline fill="none" stroke="#bfbfbf" points="1047.5,-396.5 1118.5,-396.5 "/>
<text text-anchor="middle" x="1083" y="-384.5" font-family="Helvetica,sans-Serif" font-size="10.00"> </text>
<polyline fill="none" stroke="#bfbfbf" points="1047.5,-377.5 1118.5,-377.5 "/>
<text text-anchor="middle" x="1083" y="-365.5" font-family="Helvetica,sans-Serif" font-size="10.00"> </text>
</g>
<!-- Node7&#45;&gt;Node2 -->
<g id="edge6" class="edge"><title>Node7&#45;&gt;Node2</title>
<path fill="none" stroke="#404040" d="M1072,-358.243C1061.37,-333.964 1043.45,-298.803 1020,-274 976.243,-227.719 914.792,-189.641 866.861,-164.137"/>
<polygon fill="none" stroke="#404040" points="866.861,-164.137 859.69,-164.896 856.231,-158.568 863.403,-157.809 866.861,-164.137"/>
<text text-anchor="middle" x="1090" y="-321" font-family="Helvetica,sans-Serif" font-size="10.00"> &#45;enemyStats</text>
<text text-anchor="middle" x="1090" y="-310" font-family="Helvetica,sans-Serif" font-size="10.00">&#45;playerCamera</text>
<text text-anchor="middle" x="1090" y="-299" font-family="Helvetica,sans-Serif" font-size="10.00">&#45;attacksPanel</text>
<text text-anchor="middle" x="1090" y="-288" font-family="Helvetica,sans-Serif" font-size="10.00">&#45;playerStats</text>
<text text-anchor="middle" x="1090" y="-277" font-family="Helvetica,sans-Serif" font-size="10.00">&#45;globalData</text>
</g>
<!-- Node8 -->
<g id="node7" class="node"><title>Node8</title>
<g id="a_node7"><a xlink:href="class_enemy.html" target="_top" xlink:title="Defines an AI controller enemy to fight in battle scenes">
<polygon fill="none" stroke="black" points="506.5,-358.5 506.5,-415.5 573.5,-415.5 573.5,-358.5 506.5,-358.5"/>
<text text-anchor="middle" x="540" y="-403.5" font-family="Helvetica,sans-Serif" font-size="10.00">Enemy</text>
<polyline fill="none" stroke="black" points="506.5,-396.5 573.5,-396.5 "/>
<text text-anchor="start" x="514.5" y="-384.5" font-family="Helvetica,sans-Serif" font-size="10.00">+ ExpGiven</text>
<polyline fill="none" stroke="black" points="506.5,-377.5 573.5,-377.5 "/>
<text text-anchor="start" x="514.5" y="-365.5" font-family="Helvetica,sans-Serif" font-size="10.00">+ Enemy()</text>
</a>
</g>
</g>
<!-- Node8&#45;&gt;Node2 -->
<g id="edge7" class="edge"><title>Node8&#45;&gt;Node2</title>
<path fill="none" stroke="#404040" d="M560.845,-358.332C578.82,-335.052 605.924,-301.29 632,-274 659.67,-245.042 692.175,-215.088 720.706,-189.977"/>
<polygon fill="none" stroke="#404040" points="720.788,-189.905 722.669,-182.944 729.818,-182.002 727.937,-188.964 720.788,-189.905"/>
<text text-anchor="middle" x="664" y="-304.5" font-family="Helvetica,sans-Serif" font-size="10.00"> &#45;enemyObject</text>
<text text-anchor="middle" x="664" y="-293.5" font-family="Helvetica,sans-Serif" font-size="10.00">&#45;enemy</text>
</g>
<!-- Node8&#45;&gt;Node13 -->
<g id="edge17" class="edge"><title>Node8&#45;&gt;Node13</title>
<path fill="none" stroke="#404040" d="M573.765,-404.172C603.376,-420.276 644.901,-447.932 666,-485 711.84,-565.536 691,-599.331 691,-692 691,-901 691,-901 691,-901 691,-951.251 699.096,-1006.28 708.262,-1052.48"/>
<polygon fill="none" stroke="#404040" points="708.281,-1052.58 713.398,-1057.66 710.675,-1064.34 705.559,-1059.25 708.281,-1052.58"/>
<text text-anchor="middle" x="709" y="-765" font-family="Helvetica,sans-Serif" font-size="10.00"> &#45;enemy</text>
</g>
<!-- Node9&#45;&gt;Node8 -->
<g id="edge8" class="edge"><title>Node9&#45;&gt;Node8</title>
<path fill="none" stroke="midnightblue" d="M517.805,-475.6C523.374,-453.62 528.845,-432.027 532.962,-415.778"/>
<polygon fill="none" stroke="midnightblue" points="514.393,-474.814 515.33,-485.368 521.179,-476.534 514.393,-474.814"/>
</g>
<!-- Node9&#45;&gt;Node12 -->
<g id="edge14" class="edge"><title>Node9&#45;&gt;Node12</title>
<path fill="none" stroke="#404040" d="M519.807,-663.562C521.336,-669.775 522.755,-675.965 524,-682 535.618,-738.295 542.938,-803.908 546.98,-848.124"/>
<polygon fill="none" stroke="#404040" points="546.998,-848.329 551.512,-853.952 548.058,-860.282 543.544,-854.659 546.998,-848.329"/>
<text text-anchor="middle" x="561" y="-770.5" font-family="Helvetica,sans-Serif" font-size="10.00"> #target</text>
<text text-anchor="middle" x="561" y="-759.5" font-family="Helvetica,sans-Serif" font-size="10.00">#user</text>
</g>
<!-- Node9&#45;&gt;Node15 -->
<g id="edge21" class="edge"><title>Node9&#45;&gt;Node15</title>
<path fill="none" stroke="midnightblue" d="M436.972,-609.919C412.087,-628.196 384.885,-652.91 369,-682 339.446,-736.122 295.633,-1149.99 280.43,-1301.31"/>
<polygon fill="none" stroke="midnightblue" points="439.198,-612.631 445.303,-603.971 435.13,-606.934 439.198,-612.631"/>
</g>
<!-- Node10 -->
<g id="node9" class="node"><title>Node10</title>
<polygon fill="none" stroke="#bfbfbf" points="299.5,-1483.5 299.5,-1540.5 328.5,-1540.5 328.5,-1483.5 299.5,-1483.5"/>
<text text-anchor="middle" x="314" y="-1528.5" font-family="Helvetica,sans-Serif" font-size="10.00">int</text>
<polyline fill="none" stroke="#bfbfbf" points="299.5,-1521.5 328.5,-1521.5 "/>
<text text-anchor="middle" x="314" y="-1509.5" font-family="Helvetica,sans-Serif" font-size="10.00"> </text>
<polyline fill="none" stroke="#bfbfbf" points="299.5,-1502.5 328.5,-1502.5 "/>
<text text-anchor="middle" x="314" y="-1490.5" font-family="Helvetica,sans-Serif" font-size="10.00"> </text>
</g>
<!-- Node10&#45;&gt;Node2 -->
<g id="edge29" class="edge"><title>Node10&#45;&gt;Node2</title>
<path fill="none" stroke="#404040" d="M299.414,-1506.68C256.226,-1492.9 132,-1445.69 132,-1358.5 132,-1358.5 132,-1358.5 132,-386 132,-261.477 544.655,-173.288 717.871,-141.755"/>
<polygon fill="none" stroke="#404040" points="718.11,-141.712 723.305,-136.711 729.92,-139.583 724.725,-144.584 718.11,-141.712"/>
<text text-anchor="middle" x="166" y="-834" font-family="Helvetica,sans-Serif" font-size="10.00"> &#45;moneyReward</text>
</g>
<!-- Node10&#45;&gt;Node8 -->
<g id="edge26" class="edge"><title>Node10&#45;&gt;Node8</title>
<path fill="none" stroke="#404040" d="M299.407,-1502.37C266.826,-1481.89 191,-1426.87 191,-1358.5 191,-1358.5 191,-1358.5 191,-1001 191,-938.089 210.647,-778.16 239,-722 300.73,-599.728 341.951,-584.578 436,-485 455.904,-463.926 479.426,-441.78 499.06,-423.977"/>
<polygon fill="none" stroke="#404040" points="499.149,-423.897 500.931,-416.91 508.067,-415.867 506.285,-422.855 499.149,-423.897"/>
<text text-anchor="middle" x="228" y="-897.5" font-family="Helvetica,sans-Serif" font-size="10.00"> &#45;expGiven</text>
</g>
<!-- Node10&#45;&gt;Node9 -->
<g id="edge10" class="edge"><title>Node10&#45;&gt;Node9</title>
<path fill="none" stroke="#404040" d="M328.517,-1490.11C334.871,-1479.74 341.636,-1466.74 345,-1454 401.283,-1240.82 329.928,-1177.16 354,-958 365.686,-851.603 362.473,-821.471 402,-722 411.593,-697.859 425.136,-673.255 438.849,-651.274"/>
<polygon fill="none" stroke="#404040" points="438.919,-651.163 438.766,-643.954 445.363,-641.04 445.515,-648.249 438.919,-651.163"/>
<text text-anchor="middle" x="391.5" y="-1038" font-family="Helvetica,sans-Serif" font-size="10.00"> #speed</text>
<text text-anchor="middle" x="391.5" y="-1027" font-family="Helvetica,sans-Serif" font-size="10.00">#luck</text>
<text text-anchor="middle" x="391.5" y="-1016" font-family="Helvetica,sans-Serif" font-size="10.00">#health</text>
<text text-anchor="middle" x="391.5" y="-1005" font-family="Helvetica,sans-Serif" font-size="10.00">#magic</text>
<text text-anchor="middle" x="391.5" y="-994" font-family="Helvetica,sans-Serif" font-size="10.00">#maximumMagic</text>
<text text-anchor="middle" x="391.5" y="-983" font-family="Helvetica,sans-Serif" font-size="10.00">#attack</text>
<text text-anchor="middle" x="391.5" y="-972" font-family="Helvetica,sans-Serif" font-size="10.00">#defence</text>
<text text-anchor="middle" x="391.5" y="-961" font-family="Helvetica,sans-Serif" font-size="10.00">#level</text>
</g>
<!-- Node10&#45;&gt;Node11 -->
<g id="edge25" class="edge"><title>Node10&#45;&gt;Node11</title>
<path fill="none" stroke="#404040" d="M328.618,-1501.37C342.544,-1491.33 362.844,-1474.24 373,-1454 451.374,-1297.81 368.476,-1230.03 423,-1064 425.855,-1055.31 430.278,-1054.74 433,-1046 456.025,-972.102 460.82,-882.251 461.176,-825.209"/>
<polygon fill="none" stroke="#404040" points="461.176,-824.851 457.181,-818.847 461.186,-812.851 465.181,-818.854 461.176,-824.851"/>
<text text-anchor="middle" x="440.5" y="-1156.5" font-family="Helvetica,sans-Serif" font-size="10.00"> #magic</text>
</g>
<!-- Node10&#45;&gt;Node13 -->
<g id="edge18" class="edge"><title>Node10&#45;&gt;Node13</title>
<path fill="none" stroke="#404040" d="M328.781,-1505.3C349.343,-1496.76 386.777,-1478.94 411,-1454 465.047,-1398.35 434.269,-1349.27 495,-1301 555.364,-1253.03 598.178,-1297.27 662,-1254 663.489,-1252.99 664.96,-1251.94 666.413,-1250.85"/>
<polygon fill="none" stroke="#404040" points="666.466,-1250.81 668.558,-1243.91 675.733,-1243.19 673.64,-1250.09 666.466,-1250.81"/>
<text text-anchor="middle" x="514.5" y="-1355" font-family="Helvetica,sans-Serif" font-size="10.00"> +money</text>
</g>
<!-- Node10&#45;&gt;Node15 -->
<g id="edge23" class="edge"><title>Node10&#45;&gt;Node15</title>
<path fill="none" stroke="#404040" d="M299.44,-1497.6C289.007,-1486.94 275.811,-1471.04 270,-1454 266.948,-1445.05 265.501,-1435.36 265.096,-1425.69"/>
<polygon fill="none" stroke="#404040" points="265.096,-1425.52 261.098,-1419.52 265.099,-1413.52 269.098,-1419.53 265.096,-1425.52"/>
<text text-anchor="middle" x="307.5" y="-1446" font-family="Helvetica,sans-Serif" font-size="10.00"> &#45;expToNextLevel</text>
<text text-anchor="middle" x="307.5" y="-1435" font-family="Helvetica,sans-Serif" font-size="10.00">&#45;exp</text>
</g>
<!-- Node11&#45;&gt;Node9 -->
<g id="edge11" class="edge"><title>Node11&#45;&gt;Node9</title>
<path fill="none" stroke="#404040" d="M467.654,-722.201C470.09,-708.101 472.891,-691.887 475.723,-675.496"/>
<polygon fill="none" stroke="#404040" points="475.743,-675.382 472.823,-668.789 477.786,-663.557 480.706,-670.151 475.743,-675.382"/>
<text text-anchor="middle" x="497.5" y="-696" font-family="Helvetica,sans-Serif" font-size="10.00"> #special1</text>
<text text-anchor="middle" x="497.5" y="-685" font-family="Helvetica,sans-Serif" font-size="10.00">#special2</text>
</g>
<!-- Node12&#45;&gt;Node2 -->
<g id="edge28" class="edge"><title>Node12&#45;&gt;Node2</title>
<path fill="none" stroke="#404040" d="M565.533,-860.21C570.902,-845.492 576.913,-828.536 582,-813 659.715,-575.637 663.479,-511.426 741,-274 741.731,-271.76 742.474,-269.502 743.227,-267.23"/>
<polygon fill="none" stroke="#404040" points="743.252,-267.155 741.363,-260.195 747.061,-255.775 748.95,-262.735 743.252,-267.155"/>
<text text-anchor="middle" x="704.5" y="-577.5" font-family="Helvetica,sans-Serif" font-size="10.00"> &#45;playerMove</text>
<text text-anchor="middle" x="704.5" y="-566.5" font-family="Helvetica,sans-Serif" font-size="10.00">&#45;enemyMove</text>
</g>
<!-- Node12&#45;&gt;Node11 -->
<g id="edge12" class="edge"><title>Node12&#45;&gt;Node11</title>
<path fill="none" stroke="midnightblue" d="M518.218,-851.989C509.327,-839.239 499.732,-825.479 490.946,-812.879"/>
<polygon fill="none" stroke="midnightblue" points="515.353,-853.998 523.943,-860.199 521.094,-849.994 515.353,-853.998"/>
</g>
<!-- Node13&#45;&gt;Node2 -->
<g id="edge38" class="edge"><title>Node13&#45;&gt;Node2</title>
<path fill="none" stroke="#404040" d="M745.33,-1064.46C750.289,-1015.79 755,-955.28 755,-901 755,-901 755,-901 755,-386 755,-347.438 759.238,-305.968 764.884,-267.834"/>
<polygon fill="none" stroke="#404040" points="764.945,-267.439 761.9,-260.902 766.763,-255.578 769.808,-262.115 764.945,-267.439"/>
<text text-anchor="middle" x="778.5" y="-690.5" font-family="Helvetica,sans-Serif" font-size="10.00"> +manager</text>
</g>
<!-- Node13&#45;&gt;Node12 -->
<g id="edge15" class="edge"><title>Node13&#45;&gt;Node12</title>
<path fill="none" stroke="#404040" d="M675.999,-1077.56C671.465,-1072.78 666.784,-1068.21 662,-1064 650.039,-1053.48 642.142,-1057.39 631,-1046 604.436,-1018.85 583.982,-981.1 570.408,-950.926"/>
<polygon fill="none" stroke="#404040" points="570.34,-950.77 564.275,-946.868 565.544,-939.77 571.608,-943.671 570.34,-950.77"/>
<text text-anchor="middle" x="654" y="-999.5" font-family="Helvetica,sans-Serif" font-size="10.00"> #manager</text>
</g>
<!-- Node14 -->
<g id="node13" class="node"><title>Node14</title>
<polygon fill="none" stroke="#bfbfbf" points="768.5,-1329 768.5,-1386 803.5,-1386 803.5,-1329 768.5,-1329"/>
<text text-anchor="middle" x="786" y="-1374" font-family="Helvetica,sans-Serif" font-size="10.00">bool</text>
<polyline fill="none" stroke="#bfbfbf" points="768.5,-1367 803.5,-1367 "/>
<text text-anchor="middle" x="786" y="-1355" font-family="Helvetica,sans-Serif" font-size="10.00"> </text>
<polyline fill="none" stroke="#bfbfbf" points="768.5,-1348 803.5,-1348 "/>
<text text-anchor="middle" x="786" y="-1336" font-family="Helvetica,sans-Serif" font-size="10.00"> </text>
</g>
<!-- Node14&#45;&gt;Node2 -->
<g id="edge36" class="edge"><title>Node14&#45;&gt;Node2</title>
<path fill="none" stroke="#404040" d="M795.368,-1328.94C799.522,-1315.29 803.933,-1298.47 806,-1283 806.648,-1278.15 806.012,-1276.89 806,-1272 805.333,-1009.78 806.037,-944.208 803,-682 801.365,-540.839 798.31,-379.428 796.005,-267.583"/>
<polygon fill="none" stroke="#404040" points="796.004,-267.555 791.881,-261.639 795.756,-255.557 799.879,-261.473 796.004,-267.555"/>
<text text-anchor="middle" x="834.5" y="-770.5" font-family="Helvetica,sans-Serif" font-size="10.00"> +playerDied</text>
<text text-anchor="middle" x="834.5" y="-759.5" font-family="Helvetica,sans-Serif" font-size="10.00">&#45;moveChosen</text>
</g>
<!-- Node14&#45;&gt;Node13 -->
<g id="edge19" class="edge"><title>Node14&#45;&gt;Node13</title>
<path fill="none" stroke="#404040" d="M768.497,-1335.13C758.175,-1321.2 745.993,-1302.1 740,-1283 738.252,-1277.43 736.809,-1271.65 735.625,-1265.76"/>
<polygon fill="none" stroke="#404040" points="735.564,-1265.4 730.612,-1260.16 733.546,-1253.57 738.498,-1258.81 735.564,-1265.4"/>
<text text-anchor="middle" x="773" y="-1275" font-family="Helvetica,sans-Serif" font-size="10.00"> &#45;wasCriticalHit</text>
</g>
<!-- Node15&#45;&gt;Node2 -->
<g id="edge39" class="edge"><title>Node15&#45;&gt;Node2</title>
<path fill="none" stroke="#404040" d="M273.039,-1301.11C269.186,-1187.36 261,-919.197 261,-694 261,-694 261,-694 261,-386 261,-185.666 570.649,-141.424 717.472,-131.706"/>
<polygon fill="none" stroke="#404040" points="717.906,-131.679 723.649,-127.318 729.883,-130.941 724.141,-135.302 717.906,-131.679"/>
<text text-anchor="middle" x="290" y="-770.5" font-family="Helvetica,sans-Serif" font-size="10.00"> &#45;playerArray</text>
<text text-anchor="middle" x="290" y="-759.5" font-family="Helvetica,sans-Serif" font-size="10.00">+player</text>
</g>
<!-- Node15&#45;&gt;Node13 -->
<g id="edge20" class="edge"><title>Node15&#45;&gt;Node13</title>
<path fill="none" stroke="#404040" d="M331.171,-1335.48C368.293,-1321.3 417.875,-1301.81 461,-1283 471.387,-1278.47 473.09,-1275.06 484,-1272 560.56,-1250.53 592.564,-1292.75 662,-1254 663.363,-1253.24 664.709,-1252.44 666.037,-1251.61"/>
<polygon fill="none" stroke="#404040" points="666.101,-1251.56 668.661,-1244.82 675.869,-1244.59 673.309,-1251.33 666.101,-1251.56"/>
<text text-anchor="middle" x="500.5" y="-1275" font-family="Helvetica,sans-Serif" font-size="10.00"> &#45;player</text>
</g>
<!-- Node16 -->
<g id="node15" class="node"><title>Node16</title>
<polygon fill="none" stroke="#bfbfbf" points="1136.5,-358.5 1136.5,-415.5 1179.5,-415.5 1179.5,-358.5 1136.5,-358.5"/>
<text text-anchor="middle" x="1158" y="-403.5" font-family="Helvetica,sans-Serif" font-size="10.00">Image</text>
<polyline fill="none" stroke="#bfbfbf" points="1136.5,-396.5 1179.5,-396.5 "/>
<text text-anchor="middle" x="1158" y="-384.5" font-family="Helvetica,sans-Serif" font-size="10.00"> </text>
<polyline fill="none" stroke="#bfbfbf" points="1136.5,-377.5 1179.5,-377.5 "/>
<text text-anchor="middle" x="1158" y="-365.5" font-family="Helvetica,sans-Serif" font-size="10.00"> </text>
</g>
<!-- Node16&#45;&gt;Node2 -->
<g id="edge27" class="edge"><title>Node16&#45;&gt;Node2</title>
<path fill="none" stroke="#404040" d="M1152.91,-358.363C1147.11,-329.45 1136.99,-286.552 1126,-274 1058.87,-197.338 943.793,-159.682 868.056,-142.335"/>
<polygon fill="none" stroke="#404040" points="867.968,-142.316 861.246,-144.925 856.252,-139.723 862.975,-137.114 867.968,-142.316"/>
<text text-anchor="middle" x="1177.5" y="-304.5" font-family="Helvetica,sans-Serif" font-size="10.00"> &#45;enemySprite</text>
<text text-anchor="middle" x="1177.5" y="-293.5" font-family="Helvetica,sans-Serif" font-size="10.00">&#45;playerSprite</text>
</g>
<!-- Node17&#45;&gt;Node2 -->
<g id="edge30" class="edge"><title>Node17&#45;&gt;Node2</title>
<path fill="none" stroke="#404040" d="M888.96,-347.246C879.338,-325.362 866.666,-296.542 853.698,-267.048"/>
<polygon fill="none" stroke="#404040" points="853.549,-266.709 847.472,-262.826 848.719,-255.724 854.796,-259.606 853.549,-266.709"/>
<text text-anchor="middle" x="917" y="-321" font-family="Helvetica,sans-Serif" font-size="10.00"> &#45;expBar</text>
<text text-anchor="middle" x="917" y="-310" font-family="Helvetica,sans-Serif" font-size="10.00">&#45;enemyMagicBar</text>
<text text-anchor="middle" x="917" y="-299" font-family="Helvetica,sans-Serif" font-size="10.00">&#45;enemyHealthBar</text>
<text text-anchor="middle" x="917" y="-288" font-family="Helvetica,sans-Serif" font-size="10.00">&#45;playerMagicBar</text>
<text text-anchor="middle" x="917" y="-277" font-family="Helvetica,sans-Serif" font-size="10.00">&#45;playerHealthBar</text>
</g>
<!-- Node18 -->
<g id="node17" class="node"><title>Node18</title>
<polygon fill="none" stroke="#bfbfbf" points="961,-546 961,-603 1041,-603 1041,-546 961,-546"/>
<text text-anchor="middle" x="1001" y="-591" font-family="Helvetica,sans-Serif" font-size="10.00">RectTransform</text>
<polyline fill="none" stroke="#bfbfbf" points="961,-584 1041,-584 "/>
<text text-anchor="middle" x="1001" y="-572" font-family="Helvetica,sans-Serif" font-size="10.00"> </text>
<polyline fill="none" stroke="#bfbfbf" points="961,-565 1041,-565 "/>
<text text-anchor="middle" x="1001" y="-553" font-family="Helvetica,sans-Serif" font-size="10.00"> </text>
</g>
<!-- Node18&#45;&gt;Node17 -->
<g id="edge33" class="edge"><title>Node18&#45;&gt;Node17</title>
<path fill="none" stroke="#404040" d="M991.443,-545.836C981.775,-519.226 965.629,-478.25 947,-445 945.514,-442.348 943.929,-439.672 942.277,-437.001"/>
<polygon fill="none" stroke="#404040" points="942.184,-436.858 935.562,-434.003 935.651,-426.792 942.273,-429.647 942.184,-436.858"/>
<text text-anchor="middle" x="969.5" y="-453.5" font-family="Helvetica,sans-Serif" font-size="10.00"> &#45;rect</text>
</g>
<!-- Node19 -->
<g id="node18" class="node"><title>Node19</title>
<polygon fill="none" stroke="#bfbfbf" points="1059.5,-546 1059.5,-603 1128.5,-603 1128.5,-546 1059.5,-546"/>
<text text-anchor="middle" x="1094" y="-591" font-family="Helvetica,sans-Serif" font-size="10.00">UnityEngine</text>
<polyline fill="none" stroke="#bfbfbf" points="1059.5,-584 1128.5,-584 "/>
<text text-anchor="middle" x="1094" y="-572" font-family="Helvetica,sans-Serif" font-size="10.00"> </text>
<polyline fill="none" stroke="#bfbfbf" points="1059.5,-565 1128.5,-565 "/>
<text text-anchor="middle" x="1094" y="-553" font-family="Helvetica,sans-Serif" font-size="10.00"> </text>
</g>
<!-- Node19&#45;&gt;Node17 -->
<g id="edge34" class="edge"><title>Node19&#45;&gt;Node17</title>
<path fill="none" stroke="#404040" d="M1084.58,-545.725C1077.26,-527.06 1065.7,-502.728 1050,-485 1021.25,-452.533 1003.55,-452.991 962.92,-427.349"/>
<polygon fill="none" stroke="#404040" points="962.728,-427.223 955.517,-427.282 952.689,-420.648 959.9,-420.59 962.728,-427.223"/>
<text text-anchor="middle" x="1059.5" y="-453.5" font-family="Helvetica,sans-Serif" font-size="10.00"> &#45;textDisplay</text>
</g>
<!-- Node20 -->
<g id="node19" class="node"><title>Node20</title>
<polygon fill="none" stroke="#bfbfbf" points="1150.5,-546 1150.5,-603 1185.5,-603 1185.5,-546 1150.5,-546"/>
<text text-anchor="middle" x="1168" y="-591" font-family="Helvetica,sans-Serif" font-size="10.00">float</text>
<polyline fill="none" stroke="#bfbfbf" points="1150.5,-584 1185.5,-584 "/>
<text text-anchor="middle" x="1168" y="-572" font-family="Helvetica,sans-Serif" font-size="10.00"> </text>
<polyline fill="none" stroke="#bfbfbf" points="1150.5,-565 1185.5,-565 "/>
<text text-anchor="middle" x="1168" y="-553" font-family="Helvetica,sans-Serif" font-size="10.00"> </text>
</g>
<!-- Node20&#45;&gt;Node17 -->
<g id="edge35" class="edge"><title>Node20&#45;&gt;Node17</title>
<path fill="none" stroke="#404040" d="M1162.25,-545.875C1157.52,-527.506 1149.52,-503.458 1137,-485 1121.79,-462.578 1115.66,-456.225 1091,-445 1041.61,-422.515 1018.82,-444.933 964.161,-426.977"/>
<polygon fill="none" stroke="#404040" points="964.058,-426.94 957.05,-428.638 952.787,-422.822 959.795,-421.124 964.058,-426.94"/>
<text text-anchor="middle" x="1154.5" y="-459" font-family="Helvetica,sans-Serif" font-size="10.00"> &#45;widthPerUnit</text>
<text text-anchor="middle" x="1154.5" y="-448" font-family="Helvetica,sans-Serif" font-size="10.00">&#45;initialWidth</text>
</g>
<!-- Node21 -->
<g id="node20" class="node"><title>Node21</title>
<polygon fill="none" stroke="#bfbfbf" points="1215.5,-358.5 1215.5,-415.5 1250.5,-415.5 1250.5,-358.5 1215.5,-358.5"/>
<text text-anchor="middle" x="1233" y="-403.5" font-family="Helvetica,sans-Serif" font-size="10.00">Text</text>
<polyline fill="none" stroke="#bfbfbf" points="1215.5,-396.5 1250.5,-396.5 "/>
<text text-anchor="middle" x="1233" y="-384.5" font-family="Helvetica,sans-Serif" font-size="10.00"> </text>
<polyline fill="none" stroke="#bfbfbf" points="1215.5,-377.5 1250.5,-377.5 "/>
<text text-anchor="middle" x="1233" y="-365.5" font-family="Helvetica,sans-Serif" font-size="10.00"> </text>
</g>
<!-- Node21&#45;&gt;Node2 -->
<g id="edge37" class="edge"><title>Node21&#45;&gt;Node2</title>
<path fill="none" stroke="#404040" d="M1234.84,-358.282C1234.96,-333.352 1231.15,-297.184 1211,-274 1123.63,-173.466 962.847,-142.599 868.183,-133.146"/>
<polygon fill="none" stroke="#404040" points="868.076,-133.136 861.731,-136.562 856.128,-132.023 862.473,-128.597 868.076,-133.136"/>
<text text-anchor="middle" x="1253" y="-299" font-family="Helvetica,sans-Serif" font-size="10.00"> &#45;textBox</text>
</g>
<!-- Node22 -->
<g id="node21" class="node"><title>Node22</title>
<polygon fill="none" stroke="#bfbfbf" points="1273.5,-358.5 1273.5,-415.5 1318.5,-415.5 1318.5,-358.5 1273.5,-358.5"/>
<text text-anchor="middle" x="1296" y="-403.5" font-family="Helvetica,sans-Serif" font-size="10.00">Button</text>
<polyline fill="none" stroke="#bfbfbf" points="1273.5,-396.5 1318.5,-396.5 "/>
<text text-anchor="middle" x="1296" y="-384.5" font-family="Helvetica,sans-Serif" font-size="10.00"> </text>
<polyline fill="none" stroke="#bfbfbf" points="1273.5,-377.5 1318.5,-377.5 "/>
<text text-anchor="middle" x="1296" y="-365.5" font-family="Helvetica,sans-Serif" font-size="10.00"> </text>
</g>
<!-- Node22&#45;&gt;Node2 -->
<g id="edge40" class="edge"><title>Node22&#45;&gt;Node2</title>
<path fill="none" stroke="#404040" d="M1298.06,-358.086C1298.33,-333.021 1294.62,-296.765 1274,-274 1169.1,-158.186 975.45,-133.457 868.644,-129.046"/>
<polygon fill="none" stroke="#404040" points="868.37,-129.036 862.232,-132.822 856.377,-128.613 862.514,-124.827 868.37,-129.036"/>
<text text-anchor="middle" x="1325.5" y="-310" font-family="Helvetica,sans-Serif" font-size="10.00"> &#45;runButton</text>
<text text-anchor="middle" x="1325.5" y="-299" font-family="Helvetica,sans-Serif" font-size="10.00">&#45;playerButton</text>
<text text-anchor="middle" x="1325.5" y="-288" font-family="Helvetica,sans-Serif" font-size="10.00">&#45;attackButton</text>
</g>
</g>
</svg>
