<?xml version="1.0" encoding="UTF-8" standalone="no"?>
<!DOCTYPE svg PUBLIC "-//W3C//DTD SVG 1.1//EN"
 "http://www.w3.org/Graphics/SVG/1.1/DTD/svg11.dtd">
<!-- Generated by graphviz version 2.38.0 (20140413.2041)
 -->
<!-- Title: Goal Pages: 1 -->
<!--zoomable 717 -->
<svg id="main" version="1.1" xmlns="http://www.w3.org/2000/svg" xmlns:xlink="http://www.w3.org/1999/xlink" xml:space="preserve" onload="init(evt)">
<style type="text/css"><![CDATA[
.edge:hover path { stroke: red; }
.edge:hover polygon { stroke: red; fill: red; }
]]></style>
<script type="text/javascript"><![CDATA[
var edges = document.getElementsByTagName('g');
if (edges && edges.length) {
  for (var i=0;i<edges.length;i++) {
    if (edges[i].id.substr(0,4)=='edge') {
      edges[i].setAttribute('class','edge');
    }
  }
}
]]></script>
        <defs>
                <circle id="rim" cx="0" cy="0" r="7"/>
                <circle id="rim2" cx="0" cy="0" r="3.5"/>
                <g id="zoomPlus">
                        <use xlink:href="#rim" fill="#404040">
                                <set attributeName="fill" to="#808080" begin="zoomplus.mouseover" end="zoomplus.mouseout"/>
                        </use>
                        <path d="M-4,0h8M0,-4v8" fill="none" stroke="white" stroke-width="1.5" pointer-events="none"/>
                </g>
                <g id="zoomMin">
                        <use xlink:href="#rim" fill="#404040">
                                <set attributeName="fill" to="#808080" begin="zoomminus.mouseover" end="zoomminus.mouseout"/>
                        </use>
                        <path d="M-4,0h8" fill="none" stroke="white" stroke-width="1.5" pointer-events="none"/>
                </g>
                <g id="dirArrow">
                        <path fill="none" stroke="white" stroke-width="1.5" d="M0,-3.0v7 M-2.5,-0.5L0,-3.0L2.5,-0.5"/>
                </g>
               <g id="resetDef">
                       <use xlink:href="#rim2" fill="#404040">
                               <set attributeName="fill" to="#808080" begin="reset.mouseover" end="reset.mouseout"/>
                       </use>
               </g>
        </defs>

<script type="text/javascript">
var viewWidth = 1272;
var viewHeight = 717;
var sectionId = 'dynsection-1';
</script>
<script xlink:href="svgpan.js"/>
<svg id="graph" class="graph">
<g id="viewport">
<title>Goal</title>
<!-- Node2 -->
<g id="node1" class="node"><title>Node2</title>
<polygon fill="#bfbfbf" stroke="black" points="66,-535.5 66,-603.5 172,-603.5 172,-535.5 66,-535.5"/>
<text text-anchor="middle" x="119" y="-591.5" font-family="Helvetica,sans-Serif" font-size="10.00">Goal</text>
<polyline fill="none" stroke="black" points="66,-584.5 172,-584.5 "/>
<text text-anchor="middle" x="119" y="-572.5" font-family="Helvetica,sans-Serif" font-size="10.00"> </text>
<polyline fill="none" stroke="black" points="66,-565.5 172,-565.5 "/>
<text text-anchor="start" x="74" y="-553.5" font-family="Helvetica,sans-Serif" font-size="10.00">&#45; Start()</text>
<text text-anchor="start" x="74" y="-542.5" font-family="Helvetica,sans-Serif" font-size="10.00">&#45; OnTriggerEnter2D()</text>
</g>
<!-- Node7 -->
<g id="node6" class="node"><title>Node7</title>
<g id="a_node6"><a xlink:href="class_boid.html" target="_top" xlink:title="{Boid\n||&#45; Start()\l&#45; Update()\l&#45; FixedUpdate()\l}">
<polygon fill="none" stroke="black" points="189.5,-408.5 189.5,-487.5 272.5,-487.5 272.5,-408.5 189.5,-408.5"/>
<text text-anchor="middle" x="231" y="-475.5" font-family="Helvetica,sans-Serif" font-size="10.00">Boid</text>
<polyline fill="none" stroke="black" points="189.5,-468.5 272.5,-468.5 "/>
<text text-anchor="middle" x="231" y="-456.5" font-family="Helvetica,sans-Serif" font-size="10.00"> </text>
<polyline fill="none" stroke="black" points="189.5,-449.5 272.5,-449.5 "/>
<text text-anchor="start" x="197.5" y="-437.5" font-family="Helvetica,sans-Serif" font-size="10.00">&#45; Start()</text>
<text text-anchor="start" x="197.5" y="-426.5" font-family="Helvetica,sans-Serif" font-size="10.00">&#45; Update()</text>
<text text-anchor="start" x="197.5" y="-415.5" font-family="Helvetica,sans-Serif" font-size="10.00">&#45; FixedUpdate()</text>
</a>
</g>
</g>
<!-- Node2&#45;&gt;Node7 -->
<g id="edge8" class="edge"><title>Node2&#45;&gt;Node7</title>
<path fill="none" stroke="#404040" d="M134.202,-535.309C139.647,-525.301 146.356,-514.68 154,-506 158.549,-500.835 168.203,-493.053 179.187,-484.885"/>
<polygon fill="none" stroke="#404040" points="179.392,-484.736 181.882,-477.968 189.087,-477.664 186.597,-484.432 179.392,-484.736"/>
<text text-anchor="middle" x="184" y="-509" font-family="Helvetica,sans-Serif" font-size="10.00"> +currentGoal</text>
</g>
<!-- Node10 -->
<g id="node9" class="node"><title>Node10</title>
<g id="a_node9"><a xlink:href="class_race_manager.html" target="_top" xlink:title="{RaceManager\n||+ PlayerHitGoal()\l+ GetNextGoal()\l+ PositionInArray()\l&#45; Start()\l&#45; Update()\l&#45; UpdatePlayerTimingText()\l&#45; LapTimeToString()\l&#45; FindPlayerRacePosition()\l&#45; SetPlayerLapText()\l&#45; UpdatePlayerPositionText()\l&#45; EndMinigame()\l}">
<polygon fill="none" stroke="black" points="424.5,-0.5 424.5,-167.5 565.5,-167.5 565.5,-0.5 424.5,-0.5"/>
<text text-anchor="middle" x="495" y="-155.5" font-family="Helvetica,sans-Serif" font-size="10.00">RaceManager</text>
<polyline fill="none" stroke="black" points="424.5,-148.5 565.5,-148.5 "/>
<text text-anchor="middle" x="495" y="-136.5" font-family="Helvetica,sans-Serif" font-size="10.00"> </text>
<polyline fill="none" stroke="black" points="424.5,-129.5 565.5,-129.5 "/>
<text text-anchor="start" x="432.5" y="-117.5" font-family="Helvetica,sans-Serif" font-size="10.00">+ PlayerHitGoal()</text>
<text text-anchor="start" x="432.5" y="-106.5" font-family="Helvetica,sans-Serif" font-size="10.00">+ GetNextGoal()</text>
<text text-anchor="start" x="432.5" y="-95.5" font-family="Helvetica,sans-Serif" font-size="10.00">+ PositionInArray()</text>
<text text-anchor="start" x="432.5" y="-84.5" font-family="Helvetica,sans-Serif" font-size="10.00">&#45; Start()</text>
<text text-anchor="start" x="432.5" y="-73.5" font-family="Helvetica,sans-Serif" font-size="10.00">&#45; Update()</text>
<text text-anchor="start" x="432.5" y="-62.5" font-family="Helvetica,sans-Serif" font-size="10.00">&#45; UpdatePlayerTimingText()</text>
<text text-anchor="start" x="432.5" y="-51.5" font-family="Helvetica,sans-Serif" font-size="10.00">&#45; LapTimeToString()</text>
<text text-anchor="start" x="432.5" y="-40.5" font-family="Helvetica,sans-Serif" font-size="10.00">&#45; FindPlayerRacePosition()</text>
<text text-anchor="start" x="432.5" y="-29.5" font-family="Helvetica,sans-Serif" font-size="10.00">&#45; SetPlayerLapText()</text>
<text text-anchor="start" x="432.5" y="-18.5" font-family="Helvetica,sans-Serif" font-size="10.00">&#45; UpdatePlayerPositionText()</text>
<text text-anchor="start" x="432.5" y="-7.5" font-family="Helvetica,sans-Serif" font-size="10.00">&#45; EndMinigame()</text>
</a>
</g>
</g>
<!-- Node2&#45;&gt;Node10 -->
<g id="edge23" class="edge"><title>Node2&#45;&gt;Node10</title>
<path fill="none" stroke="#404040" d="M98.0077,-535.409C74.2316,-493.677 41.1018,-419.785 60,-357 81.8146,-284.526 94.9249,-262.313 154,-215 230.239,-153.94 338.322,-119.276 412.246,-101.361"/>
<polygon fill="none" stroke="#404040" points="412.584,-101.281 417.504,-96.0087 424.263,-98.5225 419.343,-103.795 412.584,-101.281"/>
<text text-anchor="middle" x="101" y="-376.5" font-family="Helvetica,sans-Serif" font-size="10.00"> +goals</text>
<text text-anchor="middle" x="101" y="-365.5" font-family="Helvetica,sans-Serif" font-size="10.00">&#45;currentPlayerGoal</text>
</g>
<!-- Node3 -->
<g id="node2" class="node"><title>Node3</title>
<g id="a_node2"><a xlink:href="class_mono_behaviour.html" target="_top" xlink:title="{MonoBehaviour\n||}">
<polygon fill="none" stroke="black" points="77.5,-651.5 77.5,-708.5 160.5,-708.5 160.5,-651.5 77.5,-651.5"/>
<text text-anchor="middle" x="119" y="-696.5" font-family="Helvetica,sans-Serif" font-size="10.00">MonoBehaviour</text>
<polyline fill="none" stroke="black" points="77.5,-689.5 160.5,-689.5 "/>
<text text-anchor="middle" x="119" y="-677.5" font-family="Helvetica,sans-Serif" font-size="10.00"> </text>
<polyline fill="none" stroke="black" points="77.5,-670.5 160.5,-670.5 "/>
<text text-anchor="middle" x="119" y="-658.5" font-family="Helvetica,sans-Serif" font-size="10.00"> </text>
</a>
</g>
</g>
<!-- Node3&#45;&gt;Node2 -->
<g id="edge1" class="edge"><title>Node3&#45;&gt;Node2</title>
<path fill="none" stroke="midnightblue" d="M119,-640.987C119,-628.771 119,-615.346 119,-603.519"/>
<polygon fill="none" stroke="midnightblue" points="115.5,-641.34 119,-651.34 122.5,-641.34 115.5,-641.34"/>
</g>
<!-- Node5 -->
<g id="node4" class="node"><title>Node5</title>
<g id="a_node4"><a xlink:href="class_duck_a_i.html" target="_top" xlink:title="{DuckAI\n||+ BoidReachedGoal()\l+ PlayerHitGoal()\l&#45; Start()\l&#45; LateUpdate()\l&#45; MoveTowardsOtherBoids()\l&#45; AvoidOtherBoids()\l&#45; MoveTowardsGoal()\l}">
<polygon fill="none" stroke="black" points="163,-215.5 163,-338.5 299,-338.5 299,-215.5 163,-215.5"/>
<text text-anchor="middle" x="231" y="-326.5" font-family="Helvetica,sans-Serif" font-size="10.00">DuckAI</text>
<polyline fill="none" stroke="black" points="163,-319.5 299,-319.5 "/>
<text text-anchor="middle" x="231" y="-307.5" font-family="Helvetica,sans-Serif" font-size="10.00"> </text>
<polyline fill="none" stroke="black" points="163,-300.5 299,-300.5 "/>
<text text-anchor="start" x="171" y="-288.5" font-family="Helvetica,sans-Serif" font-size="10.00">+ BoidReachedGoal()</text>
<text text-anchor="start" x="171" y="-277.5" font-family="Helvetica,sans-Serif" font-size="10.00">+ PlayerHitGoal()</text>
<text text-anchor="start" x="171" y="-266.5" font-family="Helvetica,sans-Serif" font-size="10.00">&#45; Start()</text>
<text text-anchor="start" x="171" y="-255.5" font-family="Helvetica,sans-Serif" font-size="10.00">&#45; LateUpdate()</text>
<text text-anchor="start" x="171" y="-244.5" font-family="Helvetica,sans-Serif" font-size="10.00">&#45; MoveTowardsOtherBoids()</text>
<text text-anchor="start" x="171" y="-233.5" font-family="Helvetica,sans-Serif" font-size="10.00">&#45; AvoidOtherBoids()</text>
<text text-anchor="start" x="171" y="-222.5" font-family="Helvetica,sans-Serif" font-size="10.00">&#45; MoveTowardsGoal()</text>
</a>
</g>
</g>
<!-- Node3&#45;&gt;Node5 -->
<g id="edge4" class="edge"><title>Node3&#45;&gt;Node5</title>
<path fill="none" stroke="midnightblue" d="M81.4197,-643.721C71.5437,-632.124 62.205,-618.466 57,-604 46.6172,-575.144 50.777,-565.029 57,-535 75.0711,-447.8 90.5594,-424.195 149,-357 154.319,-350.884 160.037,-344.701 165.891,-338.629"/>
<polygon fill="none" stroke="midnightblue" points="79.0209,-646.289 88.2986,-651.405 84.2364,-641.62 79.0209,-646.289"/>
</g>
<!-- Node3&#45;&gt;Node7 -->
<g id="edge7" class="edge"><title>Node3&#45;&gt;Node7</title>
<path fill="none" stroke="midnightblue" d="M169.009,-651.003C175.437,-645.705 181.376,-639.693 186,-633 202.121,-609.662 216.948,-534.232 224.906,-487.508"/>
<polygon fill="none" stroke="midnightblue" points="166.521,-648.497 160.668,-657.329 170.75,-654.075 166.521,-648.497"/>
</g>
<!-- Node3&#45;&gt;Node10 -->
<g id="edge14" class="edge"><title>Node3&#45;&gt;Node10</title>
<path fill="none" stroke="midnightblue" d="M68.3715,-656.761C35.9799,-638.736 0,-609.855 0,-570.5 0,-570.5 0,-570.5 0,-276 0,-186.132 287.575,-122.297 424.342,-97.0193"/>
<polygon fill="none" stroke="midnightblue" points="66.9078,-659.947 77.3796,-661.557 70.1976,-653.768 66.9078,-659.947"/>
</g>
<!-- Node11 -->
<g id="node10" class="node"><title>Node11</title>
<g id="a_node10"><a xlink:href="class_countdown.html" target="_top" xlink:title="{Countdown\n||+ StartCountdown()\l+ Update()\l}">
<polygon fill="none" stroke="black" points="569.5,-243 569.5,-311 670.5,-311 670.5,-243 569.5,-243"/>
<text text-anchor="middle" x="620" y="-299" font-family="Helvetica,sans-Serif" font-size="10.00">Countdown</text>
<polyline fill="none" stroke="black" points="569.5,-292 670.5,-292 "/>
<text text-anchor="middle" x="620" y="-280" font-family="Helvetica,sans-Serif" font-size="10.00"> </text>
<polyline fill="none" stroke="black" points="569.5,-273 670.5,-273 "/>
<text text-anchor="start" x="577.5" y="-261" font-family="Helvetica,sans-Serif" font-size="10.00">+ StartCountdown()</text>
<text text-anchor="start" x="577.5" y="-250" font-family="Helvetica,sans-Serif" font-size="10.00">+ Update()</text>
</a>
</g>
</g>
<!-- Node3&#45;&gt;Node11 -->
<g id="edge16" class="edge"><title>Node3&#45;&gt;Node11</title>
<path fill="none" stroke="midnightblue" d="M170.396,-666.551C190.804,-661.647 214.497,-656.002 236,-651 404.706,-611.754 503.837,-638.26 590,-488 621.969,-432.25 624.294,-354.93 622.535,-311.349"/>
<polygon fill="none" stroke="midnightblue" points="169.568,-663.151 160.665,-668.893 171.206,-669.956 169.568,-663.151"/>
</g>
<!-- Node4 -->
<g id="node3" class="node"><title>Node4</title>
<polygon fill="none" stroke="#bfbfbf" points="245,-651.5 245,-708.5 295,-708.5 295,-651.5 245,-651.5"/>
<text text-anchor="middle" x="270" y="-696.5" font-family="Helvetica,sans-Serif" font-size="10.00">Vector2</text>
<polyline fill="none" stroke="#bfbfbf" points="245,-689.5 295,-689.5 "/>
<text text-anchor="middle" x="270" y="-677.5" font-family="Helvetica,sans-Serif" font-size="10.00"> </text>
<polyline fill="none" stroke="#bfbfbf" points="245,-670.5 295,-670.5 "/>
<text text-anchor="middle" x="270" y="-658.5" font-family="Helvetica,sans-Serif" font-size="10.00"> </text>
</g>
<!-- Node4&#45;&gt;Node2 -->
<g id="edge2" class="edge"><title>Node4&#45;&gt;Node2</title>
<path fill="none" stroke="#404040" d="M244.726,-660.84C225.773,-647.221 199.091,-628.049 175.181,-610.868"/>
<polygon fill="none" stroke="#404040" points="174.879,-610.651 167.672,-610.398 165.133,-603.649 172.34,-603.902 174.879,-610.651"/>
<text text-anchor="middle" x="216.5" y="-625" font-family="Helvetica,sans-Serif" font-size="10.00"> +pos</text>
</g>
<!-- Node4&#45;&gt;Node7 -->
<g id="edge11" class="edge"><title>Node4&#45;&gt;Node7</title>
<path fill="none" stroke="#404040" d="M287.934,-651.369C295.754,-637.704 304.032,-620.611 308,-604 315.125,-574.173 318.95,-563.645 308,-535 302.127,-519.635 292.104,-505.283 281.197,-492.872"/>
<polygon fill="none" stroke="#404040" points="280.91,-492.564 273.895,-490.894 272.738,-483.776 279.753,-485.446 280.91,-492.564"/>
<text text-anchor="middle" x="327.5" y="-572.5" font-family="Helvetica,sans-Serif" font-size="10.00"> +pos</text>
<text text-anchor="middle" x="327.5" y="-561.5" font-family="Helvetica,sans-Serif" font-size="10.00">+vel</text>
</g>
<!-- Node5&#45;&gt;Node2 -->
<g id="edge3" class="edge"><title>Node5&#45;&gt;Node2</title>
<path fill="none" stroke="#404040" d="M185.842,-338.548C173.111,-355.331 159.144,-373.476 146,-390 139.517,-398.15 134.908,-398.347 131,-408 116.123,-444.746 114.05,-490.058 115.159,-523.156"/>
<polygon fill="none" stroke="#404040" points="115.161,-523.212 119.436,-529.02 115.719,-535.199 111.444,-529.392 115.161,-523.212"/>
<text text-anchor="middle" x="155.5" y="-445.5" font-family="Helvetica,sans-Serif" font-size="10.00"> +masterAI</text>
</g>
<!-- Node5&#45;&gt;Node10 -->
<g id="edge31" class="edge"><title>Node5&#45;&gt;Node10</title>
<path fill="none" stroke="#404040" d="M228.023,-215.465C229.915,-204.867 233.566,-194.522 240,-186 280.647,-132.16 354.402,-106.979 412.172,-95.2254"/>
<polygon fill="none" stroke="#404040" points="412.453,-95.1717 417.594,-90.115 424.239,-92.9157 419.098,-97.9724 412.453,-95.1717"/>
<text text-anchor="middle" x="264.5" y="-189" font-family="Helvetica,sans-Serif" font-size="10.00"> +masterAI</text>
</g>
<!-- Node6 -->
<g id="node5" class="node"><title>Node6</title>
<polygon fill="none" stroke="#bfbfbf" points="400.5,-541 400.5,-598 435.5,-598 435.5,-541 400.5,-541"/>
<text text-anchor="middle" x="418" y="-586" font-family="Helvetica,sans-Serif" font-size="10.00">float</text>
<polyline fill="none" stroke="#bfbfbf" points="400.5,-579 435.5,-579 "/>
<text text-anchor="middle" x="418" y="-567" font-family="Helvetica,sans-Serif" font-size="10.00"> </text>
<polyline fill="none" stroke="#bfbfbf" points="400.5,-560 435.5,-560 "/>
<text text-anchor="middle" x="418" y="-548" font-family="Helvetica,sans-Serif" font-size="10.00"> </text>
</g>
<!-- Node6&#45;&gt;Node5 -->
<g id="edge5" class="edge"><title>Node6&#45;&gt;Node5</title>
<path fill="none" stroke="#404040" d="M401.619,-540.75C393.389,-528.738 382.503,-515.325 370,-506 352.069,-492.627 339.066,-503.564 323,-488 277.646,-444.064 293.619,-414.715 268,-357 266.927,-354.582 265.827,-352.126 264.711,-349.649"/>
<polygon fill="none" stroke="#404040" points="264.7,-349.624 258.575,-345.818 259.732,-338.7 265.857,-342.506 264.7,-349.624"/>
<text text-anchor="middle" x="370" y="-478.5" font-family="Helvetica,sans-Serif" font-size="10.00"> +boidVisualTurnRate</text>
<text text-anchor="middle" x="370" y="-467.5" font-family="Helvetica,sans-Serif" font-size="10.00">&#45;separationFactor</text>
<text text-anchor="middle" x="370" y="-456.5" font-family="Helvetica,sans-Serif" font-size="10.00">+maxSpeed</text>
<text text-anchor="middle" x="370" y="-445.5" font-family="Helvetica,sans-Serif" font-size="10.00">+cohesionFactor</text>
<text text-anchor="middle" x="370" y="-434.5" font-family="Helvetica,sans-Serif" font-size="10.00">&#45;goalFactor</text>
<text text-anchor="middle" x="370" y="-423.5" font-family="Helvetica,sans-Serif" font-size="10.00">+acceleration</text>
<text text-anchor="middle" x="370" y="-412.5" font-family="Helvetica,sans-Serif" font-size="10.00">+avoidanceDistance</text>
</g>
<!-- Node6&#45;&gt;Node7 -->
<g id="edge10" class="edge"><title>Node6&#45;&gt;Node7</title>
<path fill="none" stroke="#404040" d="M400.396,-554.744C382.719,-541.306 354.393,-520.775 328,-506 310.635,-496.279 304.359,-497.733 287,-488 285.663,-487.25 284.318,-486.477 282.97,-485.684"/>
<polygon fill="none" stroke="#404040" points="282.837,-485.602 275.631,-485.851 272.629,-479.294 279.836,-479.046 282.837,-485.602"/>
<text text-anchor="middle" x="356" y="-509" font-family="Helvetica,sans-Serif" font-size="10.00"> +dir</text>
</g>
<!-- Node6&#45;&gt;Node10 -->
<g id="edge26" class="edge"><title>Node6&#45;&gt;Node10</title>
<path fill="none" stroke="#404040" d="M418.241,-540.944C418.424,-508.966 418.44,-454.652 417,-408 416.3,-385.34 412.807,-379.445 416,-357 424.597,-296.578 443.427,-230.81 460.547,-179.082"/>
<polygon fill="none" stroke="#404040" points="460.583,-178.973 458.697,-172.012 464.396,-167.595 466.283,-174.555 460.583,-178.973"/>
<text text-anchor="middle" x="437.5" y="-376.5" font-family="Helvetica,sans-Serif" font-size="10.00"> &#45;lapTime</text>
<text text-anchor="middle" x="437.5" y="-365.5" font-family="Helvetica,sans-Serif" font-size="10.00">&#45;bestTime</text>
</g>
<!-- Node6&#45;&gt;Node11 -->
<g id="edge18" class="edge"><title>Node6&#45;&gt;Node11</title>
<path fill="none" stroke="#404040" d="M435.845,-557.256C457.1,-543.158 492.657,-517.26 516,-488 537.806,-460.667 577.215,-375.365 600.758,-322.262"/>
<polygon fill="none" stroke="#404040" points="600.827,-322.107 599.589,-315.002 605.671,-311.128 606.908,-318.232 600.827,-322.107"/>
<text text-anchor="middle" x="575" y="-445.5" font-family="Helvetica,sans-Serif" font-size="10.00"> &#45;timer</text>
</g>
<!-- Node7&#45;&gt;Node5 -->
<g id="edge6" class="edge"><title>Node7&#45;&gt;Node5</title>
<path fill="none" stroke="#404040" d="M231,-408.228C231,-391.2 231,-370.627 231,-350.912"/>
<polygon fill="none" stroke="#404040" points="231,-350.786 227,-344.786 231,-338.786 235,-344.786 231,-350.786"/>
<text text-anchor="middle" x="247.5" y="-371" font-family="Helvetica,sans-Serif" font-size="10.00"> +boids</text>
</g>
<!-- Node8 -->
<g id="node7" class="node"><title>Node8</title>
<polygon fill="none" stroke="#bfbfbf" points="228.5,-541 228.5,-598 299.5,-598 299.5,-541 228.5,-541"/>
<text text-anchor="middle" x="264" y="-586" font-family="Helvetica,sans-Serif" font-size="10.00">Rigidbody2D</text>
<polyline fill="none" stroke="#bfbfbf" points="228.5,-579 299.5,-579 "/>
<text text-anchor="middle" x="264" y="-567" font-family="Helvetica,sans-Serif" font-size="10.00"> </text>
<polyline fill="none" stroke="#bfbfbf" points="228.5,-560 299.5,-560 "/>
<text text-anchor="middle" x="264" y="-548" font-family="Helvetica,sans-Serif" font-size="10.00"> </text>
</g>
<!-- Node8&#45;&gt;Node7 -->
<g id="edge9" class="edge"><title>Node8&#45;&gt;Node7</title>
<path fill="none" stroke="#404040" d="M256.346,-540.784C252.955,-528.503 248.855,-513.657 244.951,-499.519"/>
<polygon fill="none" stroke="#404040" points="244.931,-499.448 239.478,-494.729 241.737,-487.881 247.19,-492.6 244.931,-499.448"/>
<text text-anchor="middle" x="259" y="-509" font-family="Helvetica,sans-Serif" font-size="10.00"> +rb</text>
</g>
<!-- Node9 -->
<g id="node8" class="node"><title>Node9</title>
<polygon fill="none" stroke="#bfbfbf" points="852.5,-541 852.5,-598 881.5,-598 881.5,-541 852.5,-541"/>
<text text-anchor="middle" x="867" y="-586" font-family="Helvetica,sans-Serif" font-size="10.00">int</text>
<polyline fill="none" stroke="#bfbfbf" points="852.5,-579 881.5,-579 "/>
<text text-anchor="middle" x="867" y="-567" font-family="Helvetica,sans-Serif" font-size="10.00"> </text>
<polyline fill="none" stroke="#bfbfbf" points="852.5,-560 881.5,-560 "/>
<text text-anchor="middle" x="867" y="-548" font-family="Helvetica,sans-Serif" font-size="10.00"> </text>
</g>
<!-- Node9&#45;&gt;Node7 -->
<g id="edge12" class="edge"><title>Node9&#45;&gt;Node7</title>
<path fill="none" stroke="#404040" d="M852.23,-566.868C767.151,-557.411 341.492,-509.331 287,-488 285.786,-487.525 284.574,-487.019 283.364,-486.485"/>
<polygon fill="none" stroke="#404040" points="283.319,-486.462 276.158,-487.313 272.619,-481.03 279.779,-480.179 283.319,-486.462"/>
<text text-anchor="middle" x="466.5" y="-509" font-family="Helvetica,sans-Serif" font-size="10.00"> +currentLap</text>
</g>
<!-- Node9&#45;&gt;Node10 -->
<g id="edge27" class="edge"><title>Node9&#45;&gt;Node10</title>
<path fill="none" stroke="#404040" d="M881.853,-561.459C906.178,-549.327 954.91,-522.435 986,-488 1070.73,-394.154 1143.5,-314.899 1066,-215 1006.85,-138.749 721.419,-104.099 577.842,-91.2817"/>
<polygon fill="none" stroke="#404040" points="577.614,-91.2617 571.288,-94.7237 565.659,-90.2161 571.985,-86.7541 577.614,-91.2617"/>
<text text-anchor="middle" x="1125" y="-382" font-family="Helvetica,sans-Serif" font-size="10.00"> &#45;currentPlayerLap</text>
<text text-anchor="middle" x="1125" y="-371" font-family="Helvetica,sans-Serif" font-size="10.00">&#45;playerPosition</text>
<text text-anchor="middle" x="1125" y="-360" font-family="Helvetica,sans-Serif" font-size="10.00">+lapCount</text>
</g>
<!-- Node10&#45;&gt;Node5 -->
<g id="edge13" class="edge"><title>Node10&#45;&gt;Node5</title>
<path fill="none" stroke="#404040" d="M424.145,-114.101C386.242,-131.652 340.081,-156.35 304,-186 296.677,-192.017 289.578,-198.868 282.867,-206.041"/>
<polygon fill="none" stroke="#404040" points="282.605,-206.333 281.572,-213.47 274.587,-215.261 275.62,-208.124 282.605,-206.333"/>
<text text-anchor="middle" x="337" y="-189" font-family="Helvetica,sans-Serif" font-size="10.00"> +raceManager</text>
</g>
<!-- Node11&#45;&gt;Node10 -->
<g id="edge15" class="edge"><title>Node11&#45;&gt;Node10</title>
<path fill="none" stroke="#404040" d="M598.227,-242.73C586.345,-224.575 570.985,-201.106 555.763,-177.846"/>
<polygon fill="none" stroke="#404040" points="555.597,-177.593 548.965,-174.763 549.026,-167.552 555.659,-170.382 555.597,-177.593"/>
<text text-anchor="middle" x="593" y="-189" font-family="Helvetica,sans-Serif" font-size="10.00"> +countdown</text>
</g>
<!-- Node12 -->
<g id="node11" class="node"><title>Node12</title>
<polygon fill="none" stroke="#bfbfbf" points="722,-419.5 722,-476.5 780,-476.5 780,-419.5 722,-419.5"/>
<text text-anchor="middle" x="751" y="-464.5" font-family="Helvetica,sans-Serif" font-size="10.00">AudioClip</text>
<polyline fill="none" stroke="#bfbfbf" points="722,-457.5 780,-457.5 "/>
<text text-anchor="middle" x="751" y="-445.5" font-family="Helvetica,sans-Serif" font-size="10.00"> </text>
<polyline fill="none" stroke="#bfbfbf" points="722,-438.5 780,-438.5 "/>
<text text-anchor="middle" x="751" y="-426.5" font-family="Helvetica,sans-Serif" font-size="10.00"> </text>
</g>
<!-- Node12&#45;&gt;Node11 -->
<g id="edge17" class="edge"><title>Node12&#45;&gt;Node11</title>
<path fill="none" stroke="#404040" d="M728.692,-419.425C721.345,-410.165 713.214,-399.719 706,-390 695.345,-375.644 693.69,-371.329 683,-357 674.068,-345.026 664.107,-332.277 654.79,-320.593"/>
<polygon fill="none" stroke="#404040" points="654.66,-320.431 647.786,-318.253 647.152,-311.07 654.027,-313.248 654.66,-320.431"/>
<text text-anchor="middle" x="750.5" y="-371" font-family="Helvetica,sans-Serif" font-size="10.00"> +countdownSounds</text>
</g>
<!-- Node13 -->
<g id="node12" class="node"><title>Node13</title>
<polygon fill="none" stroke="#bfbfbf" points="459,-419.5 459,-476.5 507,-476.5 507,-419.5 459,-419.5"/>
<text text-anchor="middle" x="483" y="-464.5" font-family="Helvetica,sans-Serif" font-size="10.00">Color []</text>
<polyline fill="none" stroke="#bfbfbf" points="459,-457.5 507,-457.5 "/>
<text text-anchor="middle" x="483" y="-445.5" font-family="Helvetica,sans-Serif" font-size="10.00"> </text>
<polyline fill="none" stroke="#bfbfbf" points="459,-438.5 507,-438.5 "/>
<text text-anchor="middle" x="483" y="-426.5" font-family="Helvetica,sans-Serif" font-size="10.00"> </text>
</g>
<!-- Node13&#45;&gt;Node10 -->
<g id="edge28" class="edge"><title>Node13&#45;&gt;Node10</title>
<path fill="none" stroke="#404040" d="M471.791,-419.329C468.613,-410.153 465.587,-399.782 464,-390 461.651,-375.523 463.168,-371.643 464,-357 467.363,-297.79 474.813,-231.679 481.566,-179.461"/>
<polygon fill="none" stroke="#404040" points="481.572,-179.419 478.384,-172.951 483.129,-167.521 486.317,-173.989 481.572,-179.419"/>
<text text-anchor="middle" x="512.5" y="-274.5" font-family="Helvetica,sans-Serif" font-size="10.00"> +positionColors</text>
</g>
<!-- Node13&#45;&gt;Node11 -->
<g id="edge19" class="edge"><title>Node13&#45;&gt;Node11</title>
<path fill="none" stroke="#404040" d="M472.486,-419.216C467.175,-400.205 464.088,-375.239 476,-357 486.882,-340.338 499.295,-348.087 517,-339 530.714,-331.961 545.128,-323.881 558.684,-315.953"/>
<polygon fill="none" stroke="#404040" points="559.014,-315.758 562.142,-309.261 569.343,-309.65 566.214,-316.147 559.014,-315.758"/>
<text text-anchor="middle" x="520.5" y="-371" font-family="Helvetica,sans-Serif" font-size="10.00"> +countdownColours</text>
</g>
<!-- Node14 -->
<g id="node13" class="node"><title>Node14</title>
<polygon fill="none" stroke="#bfbfbf" points="829.5,-419.5 829.5,-476.5 864.5,-476.5 864.5,-419.5 829.5,-419.5"/>
<text text-anchor="middle" x="847" y="-464.5" font-family="Helvetica,sans-Serif" font-size="10.00">bool</text>
<polyline fill="none" stroke="#bfbfbf" points="829.5,-457.5 864.5,-457.5 "/>
<text text-anchor="middle" x="847" y="-445.5" font-family="Helvetica,sans-Serif" font-size="10.00"> </text>
<polyline fill="none" stroke="#bfbfbf" points="829.5,-438.5 864.5,-438.5 "/>
<text text-anchor="middle" x="847" y="-426.5" font-family="Helvetica,sans-Serif" font-size="10.00"> </text>
</g>
<!-- Node14&#45;&gt;Node10 -->
<g id="edge29" class="edge"><title>Node14&#45;&gt;Node10</title>
<path fill="none" stroke="#404040" d="M864.861,-439.644C891.521,-428.257 939.607,-406.009 949,-390 956.422,-377.35 957.312,-369.084 949,-357 936.323,-338.57 922.025,-348.967 902,-339 783.836,-280.184 656.004,-196.853 575.754,-141.897"/>
<polygon fill="none" stroke="#404040" points="575.613,-141.8 568.403,-141.7 565.723,-135.005 572.933,-135.106 575.613,-141.8"/>
<text text-anchor="middle" x="934" y="-274.5" font-family="Helvetica,sans-Serif" font-size="10.00"> +raceRunning</text>
</g>
<!-- Node14&#45;&gt;Node11 -->
<g id="edge20" class="edge"><title>Node14&#45;&gt;Node11</title>
<path fill="none" stroke="#404040" d="M833.262,-419.064C821.595,-396.205 805.17,-366.202 795,-357 762.882,-327.94 718.284,-308.027 682.149,-295.463"/>
<polygon fill="none" stroke="#404040" points="682.118,-295.453 675.158,-297.339 670.74,-291.639 677.701,-289.753 682.118,-295.453"/>
<text text-anchor="middle" x="859.5" y="-371" font-family="Helvetica,sans-Serif" font-size="10.00"> &#45;countdownStarted</text>
</g>
<!-- Node15 -->
<g id="node14" class="node"><title>Node15</title>
<polygon fill="none" stroke="#bfbfbf" points="632,-419.5 632,-476.5 704,-476.5 704,-419.5 632,-419.5"/>
<text text-anchor="middle" x="668" y="-464.5" font-family="Helvetica,sans-Serif" font-size="10.00">AudioSource</text>
<polyline fill="none" stroke="#bfbfbf" points="632,-457.5 704,-457.5 "/>
<text text-anchor="middle" x="668" y="-445.5" font-family="Helvetica,sans-Serif" font-size="10.00"> </text>
<polyline fill="none" stroke="#bfbfbf" points="632,-438.5 704,-438.5 "/>
<text text-anchor="middle" x="668" y="-426.5" font-family="Helvetica,sans-Serif" font-size="10.00"> </text>
</g>
<!-- Node15&#45;&gt;Node11 -->
<g id="edge21" class="edge"><title>Node15&#45;&gt;Node11</title>
<path fill="none" stroke="#404040" d="M651.159,-419.391C646.254,-410.306 641.326,-399.972 638,-390 630.846,-368.549 626.488,-343.809 623.858,-323.047"/>
<polygon fill="none" stroke="#404040" points="623.845,-322.939 619.182,-317.438 622.467,-311.018 627.13,-316.519 623.845,-322.939"/>
<text text-anchor="middle" x="660.5" y="-371" font-family="Helvetica,sans-Serif" font-size="10.00"> &#45;audioSrc</text>
</g>
<!-- Node16 -->
<g id="node15" class="node"><title>Node16</title>
<polygon fill="none" stroke="#bfbfbf" points="941.5,-419.5 941.5,-476.5 976.5,-476.5 976.5,-419.5 941.5,-419.5"/>
<text text-anchor="middle" x="959" y="-464.5" font-family="Helvetica,sans-Serif" font-size="10.00">Text</text>
<polyline fill="none" stroke="#bfbfbf" points="941.5,-457.5 976.5,-457.5 "/>
<text text-anchor="middle" x="959" y="-445.5" font-family="Helvetica,sans-Serif" font-size="10.00"> </text>
<polyline fill="none" stroke="#bfbfbf" points="941.5,-438.5 976.5,-438.5 "/>
<text text-anchor="middle" x="959" y="-426.5" font-family="Helvetica,sans-Serif" font-size="10.00"> </text>
</g>
<!-- Node16&#45;&gt;Node10 -->
<g id="edge30" class="edge"><title>Node16&#45;&gt;Node10</title>
<path fill="none" stroke="#404040" d="M969.933,-419.347C986.605,-372.14 1011.89,-275.274 966,-215 919.176,-153.501 700.328,-113.681 578.106,-95.8408"/>
<polygon fill="none" stroke="#404040" points="577.744,-95.7888 571.236,-98.8939 565.866,-94.0805 572.375,-90.9754 577.744,-95.7888"/>
<text text-anchor="middle" x="1027" y="-302" font-family="Helvetica,sans-Serif" font-size="10.00"> &#45;positionSuffix</text>
<text text-anchor="middle" x="1027" y="-291" font-family="Helvetica,sans-Serif" font-size="10.00">&#45;currentLapTime</text>
<text text-anchor="middle" x="1027" y="-280" font-family="Helvetica,sans-Serif" font-size="10.00">&#45;totalLaps</text>
<text text-anchor="middle" x="1027" y="-269" font-family="Helvetica,sans-Serif" font-size="10.00">+textPosition</text>
<text text-anchor="middle" x="1027" y="-258" font-family="Helvetica,sans-Serif" font-size="10.00">&#45;bestLapTime</text>
<text text-anchor="middle" x="1027" y="-247" font-family="Helvetica,sans-Serif" font-size="10.00">&#45;currentLap</text>
</g>
<!-- Node16&#45;&gt;Node11 -->
<g id="edge22" class="edge"><title>Node16&#45;&gt;Node11</title>
<path fill="none" stroke="#404040" d="M948.208,-419.1C939.063,-399.016 924.057,-372.783 903,-357 885.226,-343.678 760.627,-311.912 682.798,-292.968"/>
<polygon fill="none" stroke="#404040" points="682.394,-292.87 675.62,-295.344 670.732,-290.043 677.505,-287.569 682.394,-292.87"/>
<text text-anchor="middle" x="943.5" y="-371" font-family="Helvetica,sans-Serif" font-size="10.00"> &#45;text</text>
</g>
<!-- Node17 -->
<g id="node16" class="node"><title>Node17</title>
<polygon fill="none" stroke="#bfbfbf" points="1114.5,-248.5 1114.5,-305.5 1155.5,-305.5 1155.5,-248.5 1114.5,-248.5"/>
<text text-anchor="middle" x="1135" y="-293.5" font-family="Helvetica,sans-Serif" font-size="10.00">string</text>
<polyline fill="none" stroke="#bfbfbf" points="1114.5,-286.5 1155.5,-286.5 "/>
<text text-anchor="middle" x="1135" y="-274.5" font-family="Helvetica,sans-Serif" font-size="10.00"> </text>
<polyline fill="none" stroke="#bfbfbf" points="1114.5,-267.5 1155.5,-267.5 "/>
<text text-anchor="middle" x="1135" y="-255.5" font-family="Helvetica,sans-Serif" font-size="10.00"> </text>
</g>
<!-- Node17&#45;&gt;Node10 -->
<g id="edge24" class="edge"><title>Node17&#45;&gt;Node10</title>
<path fill="none" stroke="#404040" d="M1131.52,-248.139C1127.46,-227.803 1118.73,-201.23 1100,-186 1021.19,-121.924 723.895,-97.2599 577.49,-88.8506"/>
<polygon fill="none" stroke="#404040" points="577.489,-88.8507 571.275,-92.5088 565.508,-88.1795 571.723,-84.5213 577.489,-88.8507"/>
<text text-anchor="middle" x="1148" y="-189" font-family="Helvetica,sans-Serif" font-size="10.00"> +positionSuffixes</text>
</g>
<!-- Node18 -->
<g id="node17" class="node"><title>Node18</title>
<polygon fill="none" stroke="#bfbfbf" points="1192.5,-248.5 1192.5,-305.5 1263.5,-305.5 1263.5,-248.5 1192.5,-248.5"/>
<text text-anchor="middle" x="1228" y="-293.5" font-family="Helvetica,sans-Serif" font-size="10.00">GameObject</text>
<polyline fill="none" stroke="#bfbfbf" points="1192.5,-286.5 1263.5,-286.5 "/>
<text text-anchor="middle" x="1228" y="-274.5" font-family="Helvetica,sans-Serif" font-size="10.00"> </text>
<polyline fill="none" stroke="#bfbfbf" points="1192.5,-267.5 1263.5,-267.5 "/>
<text text-anchor="middle" x="1228" y="-255.5" font-family="Helvetica,sans-Serif" font-size="10.00"> </text>
</g>
<!-- Node18&#45;&gt;Node10 -->
<g id="edge25" class="edge"><title>Node18&#45;&gt;Node10</title>
<path fill="none" stroke="#404040" d="M1224.06,-248.409C1219.62,-227.938 1210.32,-201.066 1191,-186 1096.99,-112.675 741.39,-92.4458 578.008,-86.9752"/>
<polygon fill="none" stroke="#404040" points="577.632,-86.9631 571.507,-90.768 565.639,-86.577 571.764,-82.7721 577.632,-86.9631"/>
<text text-anchor="middle" x="1219" y="-189" font-family="Helvetica,sans-Serif" font-size="10.00"> +player</text>
</g>
</g>
</svg>
        <g id="navigator" transform="translate(0 0)" fill="#404254">
                <rect fill="#f2f5e9" fill-opacity="0.5" stroke="#606060" stroke-width=".5" x="0" y="0" width="60" height="60"/>
                <use id="zoomplus" xlink:href="#zoomPlus" x="17" y="9" onmousedown="handleZoom(evt,'in')"/>
                <use id="zoomminus" xlink:href="#zoomMin" x="42" y="9" onmousedown="handleZoom(evt,'out')"/>
                <use id="reset" xlink:href="#resetDef" x="30" y="36" onmousedown="handleReset()"/>
                <g id="arrowUp" xlink:href="#dirArrow" transform="translate(30 24)" onmousedown="handlePan(0,-1)">
                  <use xlink:href="#rim" fill="#404040">
                        <set attributeName="fill" to="#808080" begin="arrowUp.mouseover" end="arrowUp.mouseout"/>
                  </use>
                  <path fill="none" stroke="white" stroke-width="1.5" d="M0,-3.0v7 M-2.5,-0.5L0,-3.0L2.5,-0.5"/>
                </g>
                <g id="arrowRight" xlink:href="#dirArrow" transform="rotate(90) translate(36 -43)" onmousedown="handlePan(1,0)">
                  <use xlink:href="#rim" fill="#404040">
                        <set attributeName="fill" to="#808080" begin="arrowRight.mouseover" end="arrowRight.mouseout"/>
                  </use>
                  <path fill="none" stroke="white" stroke-width="1.5" d="M0,-3.0v7 M-2.5,-0.5L0,-3.0L2.5,-0.5"/>
                </g>
                <g id="arrowDown" xlink:href="#dirArrow" transform="rotate(180) translate(-30 -48)" onmousedown="handlePan(0,1)">
                  <use xlink:href="#rim" fill="#404040">
                        <set attributeName="fill" to="#808080" begin="arrowDown.mouseover" end="arrowDown.mouseout"/>
                  </use>
                  <path fill="none" stroke="white" stroke-width="1.5" d="M0,-3.0v7 M-2.5,-0.5L0,-3.0L2.5,-0.5"/>
                </g>
                <g id="arrowLeft" xlink:href="#dirArrow" transform="rotate(270) translate(-36 17)" onmousedown="handlePan(-1,0)">
                  <use xlink:href="#rim" fill="#404040">
                        <set attributeName="fill" to="#808080" begin="arrowLeft.mouseover" end="arrowLeft.mouseout"/>
                  </use>
                  <path fill="none" stroke="white" stroke-width="1.5" d="M0,-3.0v7 M-2.5,-0.5L0,-3.0L2.5,-0.5"/>
                </g>
        </g>
        <svg viewBox="0 0 15 15" width="100%" height="30px" preserveAspectRatio="xMaxYMin meet">
         <g id="arrow_out" transform="scale(0.3 0.3)">
          <a xlink:href="class_goal__coll__graph_org.svg" target="_base">
           <rect id="button" ry="5" rx="5" y="6" x="6" height="38" width="38"
                fill="#f2f5e9" fill-opacity="0.5" stroke="#606060" stroke-width="1.0"/>
           <path id="arrow"
             d="M 11.500037,31.436501 C 11.940474,20.09759 22.043105,11.32322 32.158766,21.979434 L 37.068811,17.246167 C 37.068811,17.246167 37.088388,32 37.088388,32 L 22.160133,31.978069 C 22.160133,31.978069 26.997745,27.140456 26.997745,27.140456 C 18.528582,18.264221 13.291696,25.230495 11.500037,31.436501 z"
             style="fill:#404040;"/>
          </a>
         </g>
        </svg>
</svg>
