<?xml version="1.0" encoding="UTF-8" standalone="no"?>
<!DOCTYPE svg PUBLIC "-//W3C//DTD SVG 1.1//EN"
 "http://www.w3.org/Graphics/SVG/1.1/DTD/svg11.dtd">
<!-- Generated by graphviz version 2.38.0 (20140413.2041)
 -->
<!-- Title: LevelManager Pages: 1 -->
<!--zoomable 1043 -->
<svg id="main" version="1.1" xmlns="http://www.w3.org/2000/svg" xmlns:xlink="http://www.w3.org/1999/xlink" xml:space="preserve" onload="init(evt)">
<style type="text/css"><![CDATA[
.edge:hover path { stroke: red; }
.edge:hover polygon { stroke: red; fill: red; }
]]></style>
<script type="text/javascript"><![CDATA[
var edges = document.getElementsByTagName('g');
if (edges && edges.length) {
  for (var i=0;i<edges.length;i++) {
    if (edges[i].id.substr(0,4)=='edge') {
      edges[i].setAttribute('class','edge');
    }
  }
}
]]></script>
        <defs>
                <circle id="rim" cx="0" cy="0" r="7"/>
                <circle id="rim2" cx="0" cy="0" r="3.5"/>
                <g id="zoomPlus">
                        <use xlink:href="#rim" fill="#404040">
                                <set attributeName="fill" to="#808080" begin="zoomplus.mouseover" end="zoomplus.mouseout"/>
                        </use>
                        <path d="M-4,0h8M0,-4v8" fill="none" stroke="white" stroke-width="1.5" pointer-events="none"/>
                </g>
                <g id="zoomMin">
                        <use xlink:href="#rim" fill="#404040">
                                <set attributeName="fill" to="#808080" begin="zoomminus.mouseover" end="zoomminus.mouseout"/>
                        </use>
                        <path d="M-4,0h8" fill="none" stroke="white" stroke-width="1.5" pointer-events="none"/>
                </g>
                <g id="dirArrow">
                        <path fill="none" stroke="white" stroke-width="1.5" d="M0,-3.0v7 M-2.5,-0.5L0,-3.0L2.5,-0.5"/>
                </g>
               <g id="resetDef">
                       <use xlink:href="#rim2" fill="#404040">
                               <set attributeName="fill" to="#808080" begin="reset.mouseover" end="reset.mouseout"/>
                       </use>
               </g>
        </defs>

<script type="text/javascript">
var viewWidth = 843;
var viewHeight = 1043;
var sectionId = 'dynsection-1';
</script>
<script xlink:href="svgpan.js"/>
<svg id="graph" class="graph">
<g id="viewport">
<title>LevelManager</title>
<!-- Node2 -->
<g id="node1" class="node"><title>Node2</title>
<polygon fill="#bfbfbf" stroke="black" points="31.346,-316 31.346,-384 122.346,-384 122.346,-316 31.346,-316"/>
<text text-anchor="middle" x="76.846" y="-372" font-family="Helvetica,sans-Serif" font-size="10.00">LevelManager</text>
<polyline fill="none" stroke="black" points="31.346,-365 122.346,-365 "/>
<text text-anchor="middle" x="76.846" y="-353" font-family="Helvetica,sans-Serif" font-size="10.00"> </text>
<polyline fill="none" stroke="black" points="31.346,-346 122.346,-346 "/>
<text text-anchor="start" x="39.346" y="-334" font-family="Helvetica,sans-Serif" font-size="10.00">&#45; Start()</text>
<text text-anchor="start" x="39.346" y="-323" font-family="Helvetica,sans-Serif" font-size="10.00">&#45; WaitThenLoad()</text>
</g>
<!-- Node3 -->
<g id="node2" class="node"><title>Node3</title>
<g id="a_node2"><a xlink:href="class_mono_behaviour.html" target="_top" xlink:title="{MonoBehaviour\n||}">
<polygon fill="none" stroke="black" points="18.346,-531 18.346,-588 101.346,-588 101.346,-531 18.346,-531"/>
<text text-anchor="middle" x="59.846" y="-576" font-family="Helvetica,sans-Serif" font-size="10.00">MonoBehaviour</text>
<polyline fill="none" stroke="black" points="18.346,-569 101.346,-569 "/>
<text text-anchor="middle" x="59.846" y="-557" font-family="Helvetica,sans-Serif" font-size="10.00"> </text>
<polyline fill="none" stroke="black" points="18.346,-550 101.346,-550 "/>
<text text-anchor="middle" x="59.846" y="-538" font-family="Helvetica,sans-Serif" font-size="10.00"> </text>
</a>
</g>
</g>
<!-- Node3&#45;&gt;Node2 -->
<g id="edge1" class="edge"><title>Node3&#45;&gt;Node2</title>
<path fill="none" stroke="midnightblue" d="M62.9564,-520.534C66.1541,-481.505 71.0838,-421.333 74.1294,-384.159"/>
<polygon fill="none" stroke="midnightblue" points="59.4318,-520.693 62.1035,-530.946 66.4084,-521.265 59.4318,-520.693"/>
</g>
<!-- Node4 -->
<g id="node3" class="node"><title>Node4</title>
<polygon fill="none" stroke="#bfbfbf" points="259.346,-977.5 259.346,-1034.5 300.346,-1034.5 300.346,-977.5 259.346,-977.5"/>
<text text-anchor="middle" x="279.846" y="-1022.5" font-family="Helvetica,sans-Serif" font-size="10.00">string</text>
<polyline fill="none" stroke="#bfbfbf" points="259.346,-1015.5 300.346,-1015.5 "/>
<text text-anchor="middle" x="279.846" y="-1003.5" font-family="Helvetica,sans-Serif" font-size="10.00"> </text>
<polyline fill="none" stroke="#bfbfbf" points="259.346,-996.5 300.346,-996.5 "/>
<text text-anchor="middle" x="279.846" y="-984.5" font-family="Helvetica,sans-Serif" font-size="10.00"> </text>
</g>
<!-- Node4&#45;&gt;Node2 -->
<g id="edge2" class="edge"><title>Node4&#45;&gt;Node2</title>
<path fill="none" stroke="#404040" d="M259.291,-996.535C242.293,-988.741 218.351,-975.843 201.846,-959 79.4214,-834.063 53.1828,-785.208 8.84601,-616 -3.88373,-567.418 -1.6396,-552.115 8.84601,-503 17.0347,-464.644 35.6419,-424.252 51.3253,-394.755"/>
<polygon fill="none" stroke="#404040" points="51.4346,-394.554 50.7854,-387.372 57.1651,-384.01 57.8143,-391.192 51.4346,-394.554"/>
<text text-anchor="middle" x="59.846" y="-648" font-family="Helvetica,sans-Serif" font-size="10.00"> &#45;bossObjectName</text>
<text text-anchor="middle" x="59.846" y="-637" font-family="Helvetica,sans-Serif" font-size="10.00">&#45;playerDesc</text>
</g>
<!-- Node7 -->
<g id="node6" class="node"><title>Node7</title>
<g id="a_node6"><a xlink:href="class_character.html" target="_top" xlink:title="Base abstract class for Enemy and Player to inherit from. Defines all shared variables, their constructor and their setters and getters ">
<polygon fill="none" stroke="black" points="540.346,-674.5 540.346,-852.5 635.346,-852.5 635.346,-674.5 540.346,-674.5"/>
<text text-anchor="middle" x="587.846" y="-840.5" font-family="Helvetica,sans-Serif" font-size="10.00">Character</text>
<polyline fill="none" stroke="black" points="540.346,-833.5 635.346,-833.5 "/>
<text text-anchor="start" x="548.346" y="-821.5" font-family="Helvetica,sans-Serif" font-size="10.00">+ Name</text>
<text text-anchor="start" x="548.346" y="-810.5" font-family="Helvetica,sans-Serif" font-size="10.00">+ Level</text>
<text text-anchor="start" x="548.346" y="-799.5" font-family="Helvetica,sans-Serif" font-size="10.00">+ Health</text>
<text text-anchor="start" x="548.346" y="-788.5" font-family="Helvetica,sans-Serif" font-size="10.00">+ Attack</text>
<text text-anchor="start" x="548.346" y="-777.5" font-family="Helvetica,sans-Serif" font-size="10.00">+ Defence</text>
<text text-anchor="start" x="548.346" y="-766.5" font-family="Helvetica,sans-Serif" font-size="10.00">+ MaximumMagic</text>
<text text-anchor="start" x="548.346" y="-755.5" font-family="Helvetica,sans-Serif" font-size="10.00">+ Magic</text>
<text text-anchor="start" x="548.346" y="-744.5" font-family="Helvetica,sans-Serif" font-size="10.00">+ Luck</text>
<text text-anchor="start" x="548.346" y="-733.5" font-family="Helvetica,sans-Serif" font-size="10.00">+ Speed</text>
<text text-anchor="start" x="548.346" y="-722.5" font-family="Helvetica,sans-Serif" font-size="10.00">+ Special1</text>
<text text-anchor="start" x="548.346" y="-711.5" font-family="Helvetica,sans-Serif" font-size="10.00">+ Special2</text>
<text text-anchor="start" x="548.346" y="-700.5" font-family="Helvetica,sans-Serif" font-size="10.00">+ Image</text>
<polyline fill="none" stroke="black" points="540.346,-693.5 635.346,-693.5 "/>
<text text-anchor="start" x="548.346" y="-681.5" font-family="Helvetica,sans-Serif" font-size="10.00"># Character()</text>
</a>
</g>
</g>
<!-- Node4&#45;&gt;Node7 -->
<g id="edge6" class="edge"><title>Node4&#45;&gt;Node7</title>
<path fill="none" stroke="#404040" d="M300.641,-995.904C345.704,-975.446 454.078,-922.139 525.846,-853 528.033,-850.893 530.191,-848.699 532.316,-846.437"/>
<polygon fill="none" stroke="#404040" points="532.361,-846.386 533.356,-839.244 540.332,-837.415 539.337,-844.558 532.361,-846.386"/>
<text text-anchor="middle" x="528.346" y="-918" font-family="Helvetica,sans-Serif" font-size="10.00"> #image_ref</text>
<text text-anchor="middle" x="528.346" y="-907" font-family="Helvetica,sans-Serif" font-size="10.00">#name</text>
</g>
<!-- Node9 -->
<g id="node8" class="node"><title>Node9</title>
<g id="a_node8"><a xlink:href="class_special_move.html" target="_top" xlink:title="Special move abstract base class that expands upon CharacterMove, adding magic properties ...">
<polygon fill="none" stroke="black" points="596.846,-0.5 596.846,-90.5 694.846,-90.5 694.846,-0.5 596.846,-0.5"/>
<text text-anchor="middle" x="645.846" y="-78.5" font-family="Helvetica,sans-Serif" font-size="10.00">SpecialMove</text>
<polyline fill="none" stroke="black" points="596.846,-71.5 694.846,-71.5 "/>
<text text-anchor="start" x="604.846" y="-59.5" font-family="Helvetica,sans-Serif" font-size="10.00">+ Magic</text>
<text text-anchor="start" x="604.846" y="-48.5" font-family="Helvetica,sans-Serif" font-size="10.00">+ Desc</text>
<polyline fill="none" stroke="black" points="596.846,-41.5 694.846,-41.5 "/>
<text text-anchor="start" x="604.846" y="-29.5" font-family="Helvetica,sans-Serif" font-size="10.00">+ setUp()</text>
<text text-anchor="start" x="604.846" y="-18.5" font-family="Helvetica,sans-Serif" font-size="10.00">+ decreaseMagic()</text>
<text text-anchor="start" x="604.846" y="-7.5" font-family="Helvetica,sans-Serif" font-size="10.00"># SpecialMove()</text>
</a>
</g>
</g>
<!-- Node4&#45;&gt;Node9 -->
<g id="edge20" class="edge"><title>Node4&#45;&gt;Node9</title>
<path fill="none" stroke="#404040" d="M267.506,-977.495C248.909,-933.461 215.846,-844 215.846,-764.5 215.846,-764.5 215.846,-764.5 215.846,-167 215.846,-91.3725 465.584,-61.0307 584.412,-50.8741"/>
<polygon fill="none" stroke="#404040" points="584.561,-50.862 590.21,-46.3799 596.52,-49.8706 590.871,-54.3526 584.561,-50.862"/>
<text text-anchor="middle" x="230.846" y="-471.5" font-family="Helvetica,sans-Serif" font-size="10.00"> #desc</text>
</g>
<!-- Node10 -->
<g id="node9" class="node"><title>Node10</title>
<g id="a_node9"><a xlink:href="class_character_move.html" target="_top" xlink:title="Astract base class for character moves ">
<polygon fill="none" stroke="black" points="444.846,-128.5 444.846,-207.5 530.846,-207.5 530.846,-128.5 444.846,-128.5"/>
<text text-anchor="middle" x="487.846" y="-195.5" font-family="Helvetica,sans-Serif" font-size="10.00">CharacterMove</text>
<polyline fill="none" stroke="black" points="444.846,-188.5 530.846,-188.5 "/>
<text text-anchor="start" x="452.846" y="-176.5" font-family="Helvetica,sans-Serif" font-size="10.00">+ User</text>
<text text-anchor="start" x="452.846" y="-165.5" font-family="Helvetica,sans-Serif" font-size="10.00">+ Target</text>
<text text-anchor="start" x="452.846" y="-154.5" font-family="Helvetica,sans-Serif" font-size="10.00">+ Text</text>
<polyline fill="none" stroke="black" points="444.846,-147.5 530.846,-147.5 "/>
<text text-anchor="start" x="452.846" y="-135.5" font-family="Helvetica,sans-Serif" font-size="10.00">+ performMove()</text>
</a>
</g>
</g>
<!-- Node4&#45;&gt;Node10 -->
<g id="edge10" class="edge"><title>Node4&#45;&gt;Node10</title>
<path fill="none" stroke="#404040" d="M276.418,-977.276C271.195,-932.571 261.846,-841.751 261.846,-764.5 261.846,-764.5 261.846,-764.5 261.846,-349 261.846,-261.696 366.312,-209.902 433.195,-185.688"/>
<polygon fill="none" stroke="#404040" points="433.479,-185.588 437.82,-179.83 444.805,-181.623 440.464,-187.381 433.479,-185.588"/>
<text text-anchor="middle" x="274.346" y="-557" font-family="Helvetica,sans-Serif" font-size="10.00"> #text</text>
</g>
<!-- Node11 -->
<g id="node10" class="node"><title>Node11</title>
<g id="a_node10"><a xlink:href="class_battle_manager.html" target="_top" xlink:title="Holds current Player and Enemy objects in battle and provides functions for MainBattle and other obje...">
<polygon fill="none" stroke="black" points="495.846,-255.5 495.846,-444.5 611.846,-444.5 611.846,-255.5 495.846,-255.5"/>
<text text-anchor="middle" x="553.846" y="-432.5" font-family="Helvetica,sans-Serif" font-size="10.00">BattleManager</text>
<polyline fill="none" stroke="black" points="495.846,-425.5 611.846,-425.5 "/>
<text text-anchor="start" x="503.846" y="-413.5" font-family="Helvetica,sans-Serif" font-size="10.00">+ Player</text>
<text text-anchor="start" x="503.846" y="-402.5" font-family="Helvetica,sans-Serif" font-size="10.00">+ Enemy</text>
<text text-anchor="start" x="503.846" y="-391.5" font-family="Helvetica,sans-Serif" font-size="10.00">+ WasCriticalHit</text>
<polyline fill="none" stroke="black" points="495.846,-384.5 611.846,-384.5 "/>
<text text-anchor="start" x="503.846" y="-372.5" font-family="Helvetica,sans-Serif" font-size="10.00">+ BattleManager()</text>
<text text-anchor="start" x="503.846" y="-361.5" font-family="Helvetica,sans-Serif" font-size="10.00">+ playerFirst()</text>
<text text-anchor="start" x="503.846" y="-350.5" font-family="Helvetica,sans-Serif" font-size="10.00">+ switchPlayers()</text>
<text text-anchor="start" x="503.846" y="-339.5" font-family="Helvetica,sans-Serif" font-size="10.00">+ isCriticalHit()</text>
<text text-anchor="start" x="503.846" y="-328.5" font-family="Helvetica,sans-Serif" font-size="10.00">+ ranAway()</text>
<text text-anchor="start" x="503.846" y="-317.5" font-family="Helvetica,sans-Serif" font-size="10.00">+ damageCalculation()</text>
<text text-anchor="start" x="503.846" y="-306.5" font-family="Helvetica,sans-Serif" font-size="10.00">+ enemyMove()</text>
<text text-anchor="start" x="503.846" y="-295.5" font-family="Helvetica,sans-Serif" font-size="10.00">+ enemySpecialMove()</text>
<text text-anchor="start" x="503.846" y="-284.5" font-family="Helvetica,sans-Serif" font-size="10.00">+ battleWon()</text>
<text text-anchor="start" x="503.846" y="-273.5" font-family="Helvetica,sans-Serif" font-size="10.00">+ playerFainted()</text>
<text text-anchor="start" x="503.846" y="-262.5" font-family="Helvetica,sans-Serif" font-size="10.00">&#45; characterFainted()</text>
</a>
</g>
</g>
<!-- Node4&#45;&gt;Node11 -->
<g id="edge13" class="edge"><title>Node4&#45;&gt;Node11</title>
<path fill="none" stroke="#404040" d="M280.714,-977.296C284.215,-872.621 298.58,-505.022 328.846,-463 365.694,-411.839 432.627,-382.751 483.944,-367.117"/>
<polygon fill="none" stroke="#404040" points="484.111,-367.068 488.749,-361.546 495.63,-363.704 490.992,-369.226 484.111,-367.068"/>
<text text-anchor="middle" x="341.846" y="-648" font-family="Helvetica,sans-Serif" font-size="10.00"> +forceEnemyMove</text>
<text text-anchor="middle" x="341.846" y="-637" font-family="Helvetica,sans-Serif" font-size="10.00">+forceCriticalHits</text>
</g>
<!-- Node14 -->
<g id="node13" class="node"><title>Node14</title>
<g id="a_node13"><a xlink:href="class_item.html" target="_top" xlink:title="Abstract class for items that can be equipped to a player, increasing some of their stats ...">
<polygon fill="none" stroke="black" points="331.346,-724 331.346,-803 408.346,-803 408.346,-724 331.346,-724"/>
<text text-anchor="middle" x="369.846" y="-791" font-family="Helvetica,sans-Serif" font-size="10.00">Item</text>
<polyline fill="none" stroke="black" points="331.346,-784 408.346,-784 "/>
<text text-anchor="start" x="339.346" y="-772" font-family="Helvetica,sans-Serif" font-size="10.00">+ Name</text>
<text text-anchor="start" x="339.346" y="-761" font-family="Helvetica,sans-Serif" font-size="10.00">+ Desc</text>
<polyline fill="none" stroke="black" points="331.346,-754 408.346,-754 "/>
<text text-anchor="start" x="339.346" y="-742" font-family="Helvetica,sans-Serif" font-size="10.00">+ applyBuffs()</text>
<text text-anchor="start" x="339.346" y="-731" font-family="Helvetica,sans-Serif" font-size="10.00">+ revertBuffs()</text>
</a>
</g>
</g>
<!-- Node4&#45;&gt;Node14 -->
<g id="edge23" class="edge"><title>Node4&#45;&gt;Node14</title>
<path fill="none" stroke="#404040" d="M299.364,-977.039C302.858,-971.25 306.217,-965.063 308.846,-959 324.925,-921.911 319.931,-909.629 331.846,-871 337.562,-852.469 344.525,-832.381 350.921,-814.697"/>
<polygon fill="none" stroke="#404040" points="351.012,-814.448 349.314,-807.44 355.13,-803.177 356.828,-810.185 351.012,-814.448"/>
<text text-anchor="middle" x="346.846" y="-918" font-family="Helvetica,sans-Serif" font-size="10.00"> #desc</text>
<text text-anchor="middle" x="346.846" y="-907" font-family="Helvetica,sans-Serif" font-size="10.00">#name</text>
</g>
<!-- Node5 -->
<g id="node4" class="node"><title>Node5</title>
<polygon fill="none" stroke="#bfbfbf" points="119.846,-531 119.846,-588 169.846,-588 169.846,-531 119.846,-531"/>
<text text-anchor="middle" x="144.846" y="-576" font-family="Helvetica,sans-Serif" font-size="10.00">Vector2</text>
<polyline fill="none" stroke="#bfbfbf" points="119.846,-569 169.846,-569 "/>
<text text-anchor="middle" x="144.846" y="-557" font-family="Helvetica,sans-Serif" font-size="10.00"> </text>
<polyline fill="none" stroke="#bfbfbf" points="119.846,-550 169.846,-550 "/>
<text text-anchor="middle" x="144.846" y="-538" font-family="Helvetica,sans-Serif" font-size="10.00"> </text>
</g>
<!-- Node5&#45;&gt;Node2 -->
<g id="edge3" class="edge"><title>Node5&#45;&gt;Node2</title>
<path fill="none" stroke="#404040" d="M128.621,-530.804C122.982,-521.731 116.417,-511.741 109.846,-503 103.414,-494.444 98.2732,-494.745 93.846,-485 81.2443,-457.261 77.055,-423.163 75.9851,-396.306"/>
<polygon fill="none" stroke="#404040" points="75.9812,-396.141 71.837,-390.24 75.6904,-384.144 79.8346,-390.046 75.9812,-396.141"/>
<text text-anchor="middle" x="143.846" y="-471.5" font-family="Helvetica,sans-Serif" font-size="10.00"> &#45;worldMapExitPosition</text>
</g>
<!-- Node6 -->
<g id="node5" class="node"><title>Node6</title>
<g id="a_node5"><a xlink:href="class_player.html" target="_top" xlink:title="Defines a playable character for use in battle scenes">
<polygon fill="none" stroke="black" points="356.846,-503.5 356.846,-615.5 468.846,-615.5 468.846,-503.5 356.846,-503.5"/>
<text text-anchor="middle" x="412.846" y="-603.5" font-family="Helvetica,sans-Serif" font-size="10.00">Player</text>
<polyline fill="none" stroke="black" points="356.846,-596.5 468.846,-596.5 "/>
<text text-anchor="start" x="364.846" y="-584.5" font-family="Helvetica,sans-Serif" font-size="10.00">+ Exp</text>
<text text-anchor="start" x="364.846" y="-573.5" font-family="Helvetica,sans-Serif" font-size="10.00">+ Item</text>
<text text-anchor="start" x="364.846" y="-562.5" font-family="Helvetica,sans-Serif" font-size="10.00">+ ExpToNextLevel</text>
<polyline fill="none" stroke="black" points="356.846,-555.5 468.846,-555.5 "/>
<text text-anchor="start" x="364.846" y="-543.5" font-family="Helvetica,sans-Serif" font-size="10.00">+ Player()</text>
<text text-anchor="start" x="364.846" y="-532.5" font-family="Helvetica,sans-Serif" font-size="10.00">+ gainExp()</text>
<text text-anchor="start" x="364.846" y="-521.5" font-family="Helvetica,sans-Serif" font-size="10.00">+ levelUp()</text>
<text text-anchor="start" x="364.846" y="-510.5" font-family="Helvetica,sans-Serif" font-size="10.00">&#45; setExpToNextLevel()</text>
</a>
</g>
</g>
<!-- Node6&#45;&gt;Node2 -->
<g id="edge4" class="edge"><title>Node6&#45;&gt;Node2</title>
<path fill="none" stroke="#404040" d="M356.607,-523.769C294.443,-485.379 194.917,-423.916 132.848,-385.585"/>
<polygon fill="none" stroke="#404040" points="132.676,-385.479 125.47,-385.729 122.466,-379.173 129.673,-378.923 132.676,-385.479"/>
<text text-anchor="middle" x="310.846" y="-471.5" font-family="Helvetica,sans-Serif" font-size="10.00"> &#45;newPlayer</text>
</g>
<!-- Node6&#45;&gt;Node11 -->
<g id="edge19" class="edge"><title>Node6&#45;&gt;Node11</title>
<path fill="none" stroke="#404040" d="M468.888,-509.771C476.418,-501.905 483.665,-493.53 489.846,-485 496.527,-475.781 502.807,-465.756 508.626,-455.476"/>
<polygon fill="none" stroke="#404040" points="508.764,-455.223 508.133,-448.04 514.521,-444.694 515.152,-451.878 508.764,-455.223"/>
<text text-anchor="middle" x="520.346" y="-471.5" font-family="Helvetica,sans-Serif" font-size="10.00"> &#45;player</text>
</g>
<!-- Node7&#45;&gt;Node6 -->
<g id="edge5" class="edge"><title>Node7&#45;&gt;Node6</title>
<path fill="none" stroke="midnightblue" d="M533.262,-680.634C530.849,-678.313 528.375,-676.093 525.846,-674 510.826,-661.572 501.12,-668.114 485.846,-656 471.621,-644.718 458.633,-630.075 447.685,-615.658"/>
<polygon fill="none" stroke="midnightblue" points="530.829,-683.152 540.316,-687.869 535.841,-678.266 530.829,-683.152"/>
</g>
<!-- Node7&#45;&gt;Node10 -->
<g id="edge11" class="edge"><title>Node7&#45;&gt;Node10</title>
<path fill="none" stroke="#404040" d="M556.491,-674.296C532.666,-610.388 500.277,-530.564 477.846,-503 468.975,-492.099 458.369,-497.449 451.846,-485 407.123,-399.643 440.108,-283.805 465.636,-218.716"/>
<polygon fill="none" stroke="#404040" points="465.647,-218.687 464.181,-211.627 470.135,-207.558 471.601,-214.618 465.647,-218.687"/>
<text text-anchor="middle" x="468.846" y="-477" font-family="Helvetica,sans-Serif" font-size="10.00"> #target</text>
<text text-anchor="middle" x="468.846" y="-466" font-family="Helvetica,sans-Serif" font-size="10.00">#user</text>
</g>
<!-- Node12 -->
<g id="node11" class="node"><title>Node12</title>
<g id="a_node11"><a xlink:href="class_enemy.html" target="_top" xlink:title="Defines an AI controller enemy to fight in battle scenes">
<polygon fill="none" stroke="black" points="612.346,-531 612.346,-588 679.346,-588 679.346,-531 612.346,-531"/>
<text text-anchor="middle" x="645.846" y="-576" font-family="Helvetica,sans-Serif" font-size="10.00">Enemy</text>
<polyline fill="none" stroke="black" points="612.346,-569 679.346,-569 "/>
<text text-anchor="start" x="620.346" y="-557" font-family="Helvetica,sans-Serif" font-size="10.00">+ ExpGiven</text>
<polyline fill="none" stroke="black" points="612.346,-550 679.346,-550 "/>
<text text-anchor="start" x="620.346" y="-538" font-family="Helvetica,sans-Serif" font-size="10.00">+ Enemy()</text>
</a>
</g>
</g>
<!-- Node7&#45;&gt;Node12 -->
<g id="edge15" class="edge"><title>Node7&#45;&gt;Node12</title>
<path fill="none" stroke="midnightblue" d="M615.949,-664.623C623.979,-636.658 632.1,-608.373 637.848,-588.355"/>
<polygon fill="none" stroke="midnightblue" points="612.513,-663.91 613.117,-674.487 619.241,-665.842 612.513,-663.91"/>
</g>
<!-- Node8 -->
<g id="node7" class="node"><title>Node8</title>
<polygon fill="none" stroke="#bfbfbf" points="657.346,-977.5 657.346,-1034.5 686.346,-1034.5 686.346,-977.5 657.346,-977.5"/>
<text text-anchor="middle" x="671.846" y="-1022.5" font-family="Helvetica,sans-Serif" font-size="10.00">int</text>
<polyline fill="none" stroke="#bfbfbf" points="657.346,-1015.5 686.346,-1015.5 "/>
<text text-anchor="middle" x="671.846" y="-1003.5" font-family="Helvetica,sans-Serif" font-size="10.00"> </text>
<polyline fill="none" stroke="#bfbfbf" points="657.346,-996.5 686.346,-996.5 "/>
<text text-anchor="middle" x="671.846" y="-984.5" font-family="Helvetica,sans-Serif" font-size="10.00"> </text>
</g>
<!-- Node8&#45;&gt;Node6 -->
<g id="edge24" class="edge"><title>Node8&#45;&gt;Node6</title>
<path fill="none" stroke="#404040" d="M657.283,-1001C635.169,-994.489 592.361,-980.17 560.846,-959 505.801,-922.024 485.19,-912.466 455.846,-853 412.373,-764.9 441.071,-731.055 425.846,-634 425.528,-631.976 425.201,-629.921 424.865,-627.848"/>
<polygon fill="none" stroke="#404040" points="424.838,-627.683 419.909,-622.419 422.873,-615.845 427.801,-621.109 424.838,-627.683"/>
<text text-anchor="middle" x="493.346" y="-766.5" font-family="Helvetica,sans-Serif" font-size="10.00"> &#45;expToNextLevel</text>
<text text-anchor="middle" x="493.346" y="-755.5" font-family="Helvetica,sans-Serif" font-size="10.00">&#45;exp</text>
</g>
<!-- Node8&#45;&gt;Node7 -->
<g id="edge7" class="edge"><title>Node8&#45;&gt;Node7</title>
<path fill="none" stroke="#404040" d="M657.276,-1002.32C636.513,-997.62 599.127,-985.742 582.846,-959 565.946,-931.242 562.455,-896.877 564.681,-864.791"/>
<polygon fill="none" stroke="#404040" points="564.701,-864.574 561.266,-858.234 565.798,-852.624 569.233,-858.965 564.701,-864.574"/>
<text text-anchor="middle" x="620.346" y="-951" font-family="Helvetica,sans-Serif" font-size="10.00"> #speed</text>
<text text-anchor="middle" x="620.346" y="-940" font-family="Helvetica,sans-Serif" font-size="10.00">#luck</text>
<text text-anchor="middle" x="620.346" y="-929" font-family="Helvetica,sans-Serif" font-size="10.00">#health</text>
<text text-anchor="middle" x="620.346" y="-918" font-family="Helvetica,sans-Serif" font-size="10.00">#magic</text>
<text text-anchor="middle" x="620.346" y="-907" font-family="Helvetica,sans-Serif" font-size="10.00">#maximumMagic</text>
<text text-anchor="middle" x="620.346" y="-896" font-family="Helvetica,sans-Serif" font-size="10.00">#attack</text>
<text text-anchor="middle" x="620.346" y="-885" font-family="Helvetica,sans-Serif" font-size="10.00">#defence</text>
<text text-anchor="middle" x="620.346" y="-874" font-family="Helvetica,sans-Serif" font-size="10.00">#level</text>
</g>
<!-- Node8&#45;&gt;Node9 -->
<g id="edge21" class="edge"><title>Node8&#45;&gt;Node9</title>
<path fill="none" stroke="#404040" d="M686.529,-990.165C720.151,-954.547 799.846,-860.044 799.846,-764.5 799.846,-764.5 799.846,-764.5 799.846,-167 799.846,-117.295 749.471,-85.0289 706.343,-66.5133"/>
<polygon fill="none" stroke="#404040" points="706.104,-66.4158 699.037,-67.8488 694.996,-61.8763 702.063,-60.4433 706.104,-66.4158"/>
<text text-anchor="middle" x="817.346" y="-471.5" font-family="Helvetica,sans-Serif" font-size="10.00"> #magic</text>
</g>
<!-- Node8&#45;&gt;Node11 -->
<g id="edge17" class="edge"><title>Node8&#45;&gt;Node11</title>
<path fill="none" stroke="#404040" d="M681.252,-977.377C691.06,-947.214 705.945,-897.29 712.846,-853 727.843,-756.746 733.549,-730.71 721.846,-634 712.445,-556.308 720.249,-530.022 679.846,-463 664.972,-438.327 642.908,-416.069 621.382,-398.017"/>
<polygon fill="none" stroke="#404040" points="621.192,-397.862 614.013,-397.175 611.886,-390.285 619.065,-390.972 621.192,-397.862"/>
<text text-anchor="middle" x="743.346" y="-642.5" font-family="Helvetica,sans-Serif" font-size="10.00"> +money</text>
</g>
<!-- Node8&#45;&gt;Node12 -->
<g id="edge16" class="edge"><title>Node8&#45;&gt;Node12</title>
<path fill="none" stroke="#404040" d="M670.22,-977.195C665.764,-901.02 653.349,-688.768 648.166,-600.156"/>
<polygon fill="none" stroke="#404040" points="648.156,-599.99 643.812,-594.234 647.455,-588.011 651.799,-593.767 648.156,-599.99"/>
<text text-anchor="middle" x="685.846" y="-761" font-family="Helvetica,sans-Serif" font-size="10.00"> &#45;expGiven</text>
</g>
<!-- Node9&#45;&gt;Node7 -->
<g id="edge8" class="edge"><title>Node9&#45;&gt;Node7</title>
<path fill="none" stroke="#404040" d="M681.193,-90.7117C695.116,-112.409 707.846,-139.709 707.846,-167 707.846,-560.5 707.846,-560.5 707.846,-560.5 707.846,-586.719 699.777,-592.652 687.846,-616 686.806,-618.036 665.204,-649.719 642.345,-683.1"/>
<polygon fill="none" stroke="#404040" points="642.339,-683.108 642.248,-690.319 635.557,-693.008 635.648,-685.798 642.339,-683.108"/>
<text text-anchor="middle" x="730.346" y="-353" font-family="Helvetica,sans-Serif" font-size="10.00"> #special1</text>
<text text-anchor="middle" x="730.346" y="-342" font-family="Helvetica,sans-Serif" font-size="10.00">#special2</text>
</g>
<!-- Node10&#45;&gt;Node9 -->
<g id="edge9" class="edge"><title>Node10&#45;&gt;Node9</title>
<path fill="none" stroke="midnightblue" d="M539.297,-127.761C557.696,-113.728 578.375,-97.9576 596.585,-84.0694"/>
<polygon fill="none" stroke="midnightblue" points="536.849,-125.226 531.02,-134.073 541.094,-130.792 536.849,-125.226"/>
</g>
<!-- Node11&#45;&gt;Node10 -->
<g id="edge12" class="edge"><title>Node11&#45;&gt;Node10</title>
<path fill="none" stroke="#404040" d="M519.493,-255.31C514.936,-242.883 510.415,-230.551 506.275,-219.262"/>
<polygon fill="none" stroke="#404040" points="506.246,-219.182 500.425,-214.926 502.115,-207.915 507.936,-212.172 506.246,-219.182"/>
<text text-anchor="middle" x="534.846" y="-229" font-family="Helvetica,sans-Serif" font-size="10.00"> #manager</text>
</g>
<!-- Node12&#45;&gt;Node11 -->
<g id="edge14" class="edge"><title>Node12&#45;&gt;Node11</title>
<path fill="none" stroke="#404040" d="M645.54,-530.873C644.506,-511.317 641.422,-484.8 632.846,-463 628.88,-452.918 623.825,-442.879 618.195,-433.188"/>
<polygon fill="none" stroke="#404040" points="618.125,-433.072 611.588,-430.027 611.884,-422.822 618.421,-425.867 618.125,-433.072"/>
<text text-anchor="middle" x="657.846" y="-471.5" font-family="Helvetica,sans-Serif" font-size="10.00"> &#45;enemy</text>
</g>
<!-- Node13 -->
<g id="node12" class="node"><title>Node13</title>
<polygon fill="none" stroke="#bfbfbf" points="550.346,-531 550.346,-588 585.346,-588 585.346,-531 550.346,-531"/>
<text text-anchor="middle" x="567.846" y="-576" font-family="Helvetica,sans-Serif" font-size="10.00">bool</text>
<polyline fill="none" stroke="#bfbfbf" points="550.346,-569 585.346,-569 "/>
<text text-anchor="middle" x="567.846" y="-557" font-family="Helvetica,sans-Serif" font-size="10.00"> </text>
<polyline fill="none" stroke="#bfbfbf" points="550.346,-550 585.346,-550 "/>
<text text-anchor="middle" x="567.846" y="-538" font-family="Helvetica,sans-Serif" font-size="10.00"> </text>
</g>
<!-- Node13&#45;&gt;Node11 -->
<g id="edge18" class="edge"><title>Node13&#45;&gt;Node11</title>
<path fill="none" stroke="#404040" d="M565.987,-530.946C564.678,-511.547 562.835,-484.229 560.979,-456.725"/>
<polygon fill="none" stroke="#404040" points="560.964,-456.5 556.569,-450.783 560.156,-444.528 564.551,-450.245 560.964,-456.5"/>
<text text-anchor="middle" x="595.846" y="-471.5" font-family="Helvetica,sans-Serif" font-size="10.00"> &#45;wasCriticalHit</text>
</g>
<!-- Node14&#45;&gt;Node6 -->
<g id="edge22" class="edge"><title>Node14&#45;&gt;Node6</title>
<path fill="none" stroke="#404040" d="M378.137,-723.552C383.915,-696.409 391.771,-659.504 398.548,-627.669"/>
<polygon fill="none" stroke="#404040" points="398.587,-627.484 395.924,-620.783 401.085,-615.747 403.748,-622.449 398.587,-627.484"/>
<text text-anchor="middle" x="409.346" y="-642.5" font-family="Helvetica,sans-Serif" font-size="10.00"> &#45;item</text>
</g>
</g>
</svg>
        <g id="navigator" transform="translate(0 0)" fill="#404254">
                <rect fill="#f2f5e9" fill-opacity="0.5" stroke="#606060" stroke-width=".5" x="0" y="0" width="60" height="60"/>
                <use id="zoomplus" xlink:href="#zoomPlus" x="17" y="9" onmousedown="handleZoom(evt,'in')"/>
                <use id="zoomminus" xlink:href="#zoomMin" x="42" y="9" onmousedown="handleZoom(evt,'out')"/>
                <use id="reset" xlink:href="#resetDef" x="30" y="36" onmousedown="handleReset()"/>
                <g id="arrowUp" xlink:href="#dirArrow" transform="translate(30 24)" onmousedown="handlePan(0,-1)">
                  <use xlink:href="#rim" fill="#404040">
                        <set attributeName="fill" to="#808080" begin="arrowUp.mouseover" end="arrowUp.mouseout"/>
                  </use>
                  <path fill="none" stroke="white" stroke-width="1.5" d="M0,-3.0v7 M-2.5,-0.5L0,-3.0L2.5,-0.5"/>
                </g>
                <g id="arrowRight" xlink:href="#dirArrow" transform="rotate(90) translate(36 -43)" onmousedown="handlePan(1,0)">
                  <use xlink:href="#rim" fill="#404040">
                        <set attributeName="fill" to="#808080" begin="arrowRight.mouseover" end="arrowRight.mouseout"/>
                  </use>
                  <path fill="none" stroke="white" stroke-width="1.5" d="M0,-3.0v7 M-2.5,-0.5L0,-3.0L2.5,-0.5"/>
                </g>
                <g id="arrowDown" xlink:href="#dirArrow" transform="rotate(180) translate(-30 -48)" onmousedown="handlePan(0,1)">
                  <use xlink:href="#rim" fill="#404040">
                        <set attributeName="fill" to="#808080" begin="arrowDown.mouseover" end="arrowDown.mouseout"/>
                  </use>
                  <path fill="none" stroke="white" stroke-width="1.5" d="M0,-3.0v7 M-2.5,-0.5L0,-3.0L2.5,-0.5"/>
                </g>
                <g id="arrowLeft" xlink:href="#dirArrow" transform="rotate(270) translate(-36 17)" onmousedown="handlePan(-1,0)">
                  <use xlink:href="#rim" fill="#404040">
                        <set attributeName="fill" to="#808080" begin="arrowLeft.mouseover" end="arrowLeft.mouseout"/>
                  </use>
                  <path fill="none" stroke="white" stroke-width="1.5" d="M0,-3.0v7 M-2.5,-0.5L0,-3.0L2.5,-0.5"/>
                </g>
        </g>
        <svg viewBox="0 0 15 15" width="100%" height="30px" preserveAspectRatio="xMaxYMin meet">
         <g id="arrow_out" transform="scale(0.3 0.3)">
          <a xlink:href="class_level_manager__coll__graph_org.svg" target="_base">
           <rect id="button" ry="5" rx="5" y="6" x="6" height="38" width="38"
                fill="#f2f5e9" fill-opacity="0.5" stroke="#606060" stroke-width="1.0"/>
           <path id="arrow"
             d="M 11.500037,31.436501 C 11.940474,20.09759 22.043105,11.32322 32.158766,21.979434 L 37.068811,17.246167 C 37.068811,17.246167 37.088388,32 37.088388,32 L 22.160133,31.978069 C 22.160133,31.978069 26.997745,27.140456 26.997745,27.140456 C 18.528582,18.264221 13.291696,25.230495 11.500037,31.436501 z"
             style="fill:#404040;"/>
          </a>
         </g>
        </svg>
</svg>
