<?xml version="1.0" encoding="UTF-8" standalone="no"?>
<!DOCTYPE svg PUBLIC "-//W3C//DTD SVG 1.1//EN"
 "http://www.w3.org/Graphics/SVG/1.1/DTD/svg11.dtd">
<!-- Generated by graphviz version 2.38.0 (20140413.2041)
 -->
<!-- Title: CharacterMove Pages: 1 -->
<svg width="842pt" height="1006pt"
 viewBox="0.00 0.00 842.00 1006.00" xmlns="http://www.w3.org/2000/svg" xmlns:xlink="http://www.w3.org/1999/xlink">
<g id="graph0" class="graph" transform="scale(1 1) rotate(0) translate(4 1002)">
<title>CharacterMove</title>
<!-- Node11 -->
<g id="node1" class="node"><title>Node11</title>
<polygon fill="#bfbfbf" stroke="black" points="167,-813.5 167,-892.5 253,-892.5 253,-813.5 167,-813.5"/>
<text text-anchor="middle" x="210" y="-880.5" font-family="Helvetica,sans-Serif" font-size="10.00">CharacterMove</text>
<polyline fill="none" stroke="black" points="167,-873.5 253,-873.5 "/>
<text text-anchor="start" x="175" y="-861.5" font-family="Helvetica,sans-Serif" font-size="10.00">+ User</text>
<text text-anchor="start" x="175" y="-850.5" font-family="Helvetica,sans-Serif" font-size="10.00">+ Target</text>
<text text-anchor="start" x="175" y="-839.5" font-family="Helvetica,sans-Serif" font-size="10.00">+ Text</text>
<polyline fill="none" stroke="black" points="167,-832.5 253,-832.5 "/>
<text text-anchor="start" x="175" y="-820.5" font-family="Helvetica,sans-Serif" font-size="10.00">+ performMove()</text>
</g>
<!-- Node16 -->
<g id="node6" class="node"><title>Node16</title>
<g id="a_node6"><a xlink:href="class_special_move.html" target="_top" xlink:title="Special move abstract base class that expands upon CharacterMove, adding magic properties ...">
<polygon fill="none" stroke="black" points="251,-671.5 251,-761.5 349,-761.5 349,-671.5 251,-671.5"/>
<text text-anchor="middle" x="300" y="-749.5" font-family="Helvetica,sans-Serif" font-size="10.00">SpecialMove</text>
<polyline fill="none" stroke="black" points="251,-742.5 349,-742.5 "/>
<text text-anchor="start" x="259" y="-730.5" font-family="Helvetica,sans-Serif" font-size="10.00">+ Magic</text>
<text text-anchor="start" x="259" y="-719.5" font-family="Helvetica,sans-Serif" font-size="10.00">+ Desc</text>
<polyline fill="none" stroke="black" points="251,-712.5 349,-712.5 "/>
<text text-anchor="start" x="259" y="-700.5" font-family="Helvetica,sans-Serif" font-size="10.00">+ setUp()</text>
<text text-anchor="start" x="259" y="-689.5" font-family="Helvetica,sans-Serif" font-size="10.00">+ decreaseMagic()</text>
<text text-anchor="start" x="259" y="-678.5" font-family="Helvetica,sans-Serif" font-size="10.00"># SpecialMove()</text>
</a>
</g>
</g>
<!-- Node11&#45;&gt;Node16 -->
<g id="edge7" class="edge"><title>Node11&#45;&gt;Node16</title>
<path fill="none" stroke="midnightblue" d="M241.506,-804.916C250.891,-790.891 261.139,-775.575 270.398,-761.738"/>
<polygon fill="none" stroke="midnightblue" points="238.443,-803.2 235.79,-813.458 244.261,-807.093 238.443,-803.2"/>
</g>
<!-- Node12 -->
<g id="node2" class="node"><title>Node12</title>
<polygon fill="none" stroke="#bfbfbf" points="279.5,-940.5 279.5,-997.5 320.5,-997.5 320.5,-940.5 279.5,-940.5"/>
<text text-anchor="middle" x="300" y="-985.5" font-family="Helvetica,sans-Serif" font-size="10.00">string</text>
<polyline fill="none" stroke="#bfbfbf" points="279.5,-978.5 320.5,-978.5 "/>
<text text-anchor="middle" x="300" y="-966.5" font-family="Helvetica,sans-Serif" font-size="10.00"> </text>
<polyline fill="none" stroke="#bfbfbf" points="279.5,-959.5 320.5,-959.5 "/>
<text text-anchor="middle" x="300" y="-947.5" font-family="Helvetica,sans-Serif" font-size="10.00"> </text>
</g>
<!-- Node12&#45;&gt;Node11 -->
<g id="edge1" class="edge"><title>Node12&#45;&gt;Node11</title>
<path fill="none" stroke="#404040" d="M279.484,-944.351C273.441,-937.239 266.876,-929.366 261,-922 255.992,-915.722 250.808,-909.04 245.75,-902.41"/>
<polygon fill="none" stroke="#404040" points="245.707,-902.353 238.896,-899.984 238.464,-892.785 245.274,-895.155 245.707,-902.353"/>
<text text-anchor="middle" x="273.5" y="-914" font-family="Helvetica,sans-Serif" font-size="10.00"> #text</text>
</g>
<!-- Node13 -->
<g id="node3" class="node"><title>Node13</title>
<g id="a_node3"><a xlink:href="class_character.html" target="_top" xlink:title="Base abstract class for Enemy and Player to inherit from. Defines all shared variables, their constructor and their setters and getters ">
<polygon fill="none" stroke="black" points="350.5,-397.5 350.5,-608.5 445.5,-608.5 445.5,-397.5 350.5,-397.5"/>
<text text-anchor="middle" x="398" y="-596.5" font-family="Helvetica,sans-Serif" font-size="10.00">Character</text>
<polyline fill="none" stroke="black" points="350.5,-589.5 445.5,-589.5 "/>
<text text-anchor="start" x="358.5" y="-577.5" font-family="Helvetica,sans-Serif" font-size="10.00">+ Name</text>
<text text-anchor="start" x="358.5" y="-566.5" font-family="Helvetica,sans-Serif" font-size="10.00">+ Level</text>
<text text-anchor="start" x="358.5" y="-555.5" font-family="Helvetica,sans-Serif" font-size="10.00">+ Health</text>
<text text-anchor="start" x="358.5" y="-544.5" font-family="Helvetica,sans-Serif" font-size="10.00">+ Attack</text>
<text text-anchor="start" x="358.5" y="-533.5" font-family="Helvetica,sans-Serif" font-size="10.00">+ Defence</text>
<text text-anchor="start" x="358.5" y="-522.5" font-family="Helvetica,sans-Serif" font-size="10.00">+ MaximumMagic</text>
<text text-anchor="start" x="358.5" y="-511.5" font-family="Helvetica,sans-Serif" font-size="10.00">+ Magic</text>
<text text-anchor="start" x="358.5" y="-500.5" font-family="Helvetica,sans-Serif" font-size="10.00">+ Luck</text>
<text text-anchor="start" x="358.5" y="-489.5" font-family="Helvetica,sans-Serif" font-size="10.00">+ Speed</text>
<text text-anchor="start" x="358.5" y="-478.5" font-family="Helvetica,sans-Serif" font-size="10.00">+ Rage</text>
<text text-anchor="start" x="358.5" y="-467.5" font-family="Helvetica,sans-Serif" font-size="10.00">+ CanRage</text>
<text text-anchor="start" x="358.5" y="-456.5" font-family="Helvetica,sans-Serif" font-size="10.00">+ Special1</text>
<text text-anchor="start" x="358.5" y="-445.5" font-family="Helvetica,sans-Serif" font-size="10.00">+ Special2</text>
<text text-anchor="start" x="358.5" y="-434.5" font-family="Helvetica,sans-Serif" font-size="10.00">+ Image</text>
<polyline fill="none" stroke="black" points="350.5,-427.5 445.5,-427.5 "/>
<text text-anchor="start" x="358.5" y="-415.5" font-family="Helvetica,sans-Serif" font-size="10.00">+ IsEnraged()</text>
<text text-anchor="start" x="358.5" y="-404.5" font-family="Helvetica,sans-Serif" font-size="10.00"># Character()</text>
</a>
</g>
</g>
<!-- Node12&#45;&gt;Node13 -->
<g id="edge3" class="edge"><title>Node12&#45;&gt;Node13</title>
<path fill="none" stroke="#404040" d="M320.671,-949.08C351.406,-919.546 408.285,-859.183 434,-795 456.003,-740.08 450.608,-675.048 438.157,-620.406"/>
<polygon fill="none" stroke="#404040" points="438.112,-620.222 432.822,-615.322 435.31,-608.554 440.6,-613.454 438.112,-620.222"/>
<text text-anchor="middle" x="454.5" y="-787" font-family="Helvetica,sans-Serif" font-size="10.00"> #name</text>
</g>
<!-- Node12&#45;&gt;Node16 -->
<g id="edge8" class="edge"><title>Node12&#45;&gt;Node16</title>
<path fill="none" stroke="#404040" d="M300,-940.235C300,-900.341 300,-825.916 300,-774.129"/>
<polygon fill="none" stroke="#404040" points="300,-773.813 296,-767.813 300,-761.813 304,-767.813 300,-773.813"/>
<text text-anchor="middle" x="315" y="-850.5" font-family="Helvetica,sans-Serif" font-size="10.00"> #desc</text>
</g>
<!-- Node18 -->
<g id="node8" class="node"><title>Node18</title>
<g id="a_node8"><a xlink:href="class_battle_manager.html" target="_top" xlink:title="Holds current Player and Enemy objects in battle and provides functions for MainBattle and other obje...">
<polygon fill="none" stroke="black" points="179,-0.5 179,-189.5 295,-189.5 295,-0.5 179,-0.5"/>
<text text-anchor="middle" x="237" y="-177.5" font-family="Helvetica,sans-Serif" font-size="10.00">BattleManager</text>
<polyline fill="none" stroke="black" points="179,-170.5 295,-170.5 "/>
<text text-anchor="start" x="187" y="-158.5" font-family="Helvetica,sans-Serif" font-size="10.00">+ Player</text>
<text text-anchor="start" x="187" y="-147.5" font-family="Helvetica,sans-Serif" font-size="10.00">+ Enemy</text>
<text text-anchor="start" x="187" y="-136.5" font-family="Helvetica,sans-Serif" font-size="10.00">+ WasCriticalHit</text>
<polyline fill="none" stroke="black" points="179,-129.5 295,-129.5 "/>
<text text-anchor="start" x="187" y="-117.5" font-family="Helvetica,sans-Serif" font-size="10.00">+ BattleManager()</text>
<text text-anchor="start" x="187" y="-106.5" font-family="Helvetica,sans-Serif" font-size="10.00">+ playerFirst()</text>
<text text-anchor="start" x="187" y="-95.5" font-family="Helvetica,sans-Serif" font-size="10.00">+ switchPlayers()</text>
<text text-anchor="start" x="187" y="-84.5" font-family="Helvetica,sans-Serif" font-size="10.00">+ isCriticalHit()</text>
<text text-anchor="start" x="187" y="-73.5" font-family="Helvetica,sans-Serif" font-size="10.00">+ ranAway()</text>
<text text-anchor="start" x="187" y="-62.5" font-family="Helvetica,sans-Serif" font-size="10.00">+ damageCalculation()</text>
<text text-anchor="start" x="187" y="-51.5" font-family="Helvetica,sans-Serif" font-size="10.00">+ enemyMove()</text>
<text text-anchor="start" x="187" y="-40.5" font-family="Helvetica,sans-Serif" font-size="10.00">+ enemySpecialMove()</text>
<text text-anchor="start" x="187" y="-29.5" font-family="Helvetica,sans-Serif" font-size="10.00">+ battleWon()</text>
<text text-anchor="start" x="187" y="-18.5" font-family="Helvetica,sans-Serif" font-size="10.00">+ playerFainted()</text>
<text text-anchor="start" x="187" y="-7.5" font-family="Helvetica,sans-Serif" font-size="10.00">&#45; characterFainted()</text>
</a>
</g>
</g>
<!-- Node12&#45;&gt;Node18 -->
<g id="edge12" class="edge"><title>Node12&#45;&gt;Node18</title>
<path fill="none" stroke="#404040" d="M279.38,-964.773C211.601,-953.594 0,-913.896 0,-854 0,-854 0,-854 0,-292.5 0,-204.783 97.3999,-148.776 167.319,-119.871"/>
<polygon fill="none" stroke="#404040" points="167.583,-119.765 171.661,-113.818 178.72,-115.295 174.642,-121.242 167.583,-119.765"/>
<text text-anchor="middle" x="42" y="-641" font-family="Helvetica,sans-Serif" font-size="10.00"> +forceEnemyMove</text>
<text text-anchor="middle" x="42" y="-630" font-family="Helvetica,sans-Serif" font-size="10.00">+forceCriticalHits</text>
</g>
<!-- Node21 -->
<g id="node11" class="node"><title>Node21</title>
<g id="a_node11"><a xlink:href="class_item.html" target="_top" xlink:title="Abstract class for items that can be equipped to a player, increasing some of their stats ...">
<polygon fill="none" stroke="black" points="681.5,-671.5 681.5,-761.5 758.5,-761.5 758.5,-671.5 681.5,-671.5"/>
<text text-anchor="middle" x="720" y="-749.5" font-family="Helvetica,sans-Serif" font-size="10.00">Item</text>
<polyline fill="none" stroke="black" points="681.5,-742.5 758.5,-742.5 "/>
<text text-anchor="start" x="689.5" y="-730.5" font-family="Helvetica,sans-Serif" font-size="10.00">+ Name</text>
<text text-anchor="start" x="689.5" y="-719.5" font-family="Helvetica,sans-Serif" font-size="10.00">+ Desc</text>
<text text-anchor="start" x="689.5" y="-708.5" font-family="Helvetica,sans-Serif" font-size="10.00">+ Cost</text>
<polyline fill="none" stroke="black" points="681.5,-701.5 758.5,-701.5 "/>
<text text-anchor="start" x="689.5" y="-689.5" font-family="Helvetica,sans-Serif" font-size="10.00">+ applyBuffs()</text>
<text text-anchor="start" x="689.5" y="-678.5" font-family="Helvetica,sans-Serif" font-size="10.00">+ revertBuffs()</text>
</a>
</g>
</g>
<!-- Node12&#45;&gt;Node21 -->
<g id="edge21" class="edge"><title>Node12&#45;&gt;Node21</title>
<path fill="none" stroke="#404040" d="M320.707,-965.744C387.263,-958.16 594.492,-931.86 648,-893 686.155,-865.289 704.153,-813.673 712.606,-773.562"/>
<polygon fill="none" stroke="#404040" points="712.656,-773.304 709.868,-766.654 714.934,-761.522 717.722,-768.173 712.656,-773.304"/>
<text text-anchor="middle" x="715" y="-856" font-family="Helvetica,sans-Serif" font-size="10.00"> #desc</text>
<text text-anchor="middle" x="715" y="-845" font-family="Helvetica,sans-Serif" font-size="10.00">#name</text>
</g>
<!-- Node13&#45;&gt;Node11 -->
<g id="edge2" class="edge"><title>Node13&#45;&gt;Node11</title>
<path fill="none" stroke="#404040" d="M350.328,-557.881C322.293,-587.378 284.978,-623.087 247,-649 231.231,-659.76 218.289,-650.919 208,-667 182.585,-706.721 186.978,-761.727 195.349,-801.423"/>
<polygon fill="none" stroke="#404040" points="195.371,-801.519 200.608,-806.476 198.046,-813.217 192.809,-808.26 195.371,-801.519"/>
<text text-anchor="middle" x="225" y="-719.5" font-family="Helvetica,sans-Serif" font-size="10.00"> #target</text>
<text text-anchor="middle" x="225" y="-708.5" font-family="Helvetica,sans-Serif" font-size="10.00">#user</text>
</g>
<!-- Node19 -->
<g id="node9" class="node"><title>Node19</title>
<g id="a_node9"><a xlink:href="class_enemy.html" target="_top" xlink:title="Defines an AI controller enemy to fight in battle scenes">
<polygon fill="none" stroke="black" points="364.5,-265 364.5,-322 431.5,-322 431.5,-265 364.5,-265"/>
<text text-anchor="middle" x="398" y="-310" font-family="Helvetica,sans-Serif" font-size="10.00">Enemy</text>
<polyline fill="none" stroke="black" points="364.5,-303 431.5,-303 "/>
<text text-anchor="start" x="372.5" y="-291" font-family="Helvetica,sans-Serif" font-size="10.00">+ ExpGiven</text>
<polyline fill="none" stroke="black" points="364.5,-284 431.5,-284 "/>
<text text-anchor="start" x="372.5" y="-272" font-family="Helvetica,sans-Serif" font-size="10.00">+ Enemy()</text>
</a>
</g>
</g>
<!-- Node13&#45;&gt;Node19 -->
<g id="edge14" class="edge"><title>Node13&#45;&gt;Node19</title>
<path fill="none" stroke="midnightblue" d="M398,-387.257C398,-362.946 398,-339.449 398,-322.187"/>
<polygon fill="none" stroke="midnightblue" points="394.5,-387.338 398,-397.338 401.5,-387.338 394.5,-387.338"/>
</g>
<!-- Node20 -->
<g id="node10" class="node"><title>Node20</title>
<g id="a_node10"><a xlink:href="class_player.html" target="_top" xlink:title="Defines a playable character for use in battle scenes">
<polygon fill="none" stroke="black" points="566,-237.5 566,-349.5 678,-349.5 678,-237.5 566,-237.5"/>
<text text-anchor="middle" x="622" y="-337.5" font-family="Helvetica,sans-Serif" font-size="10.00">Player</text>
<polyline fill="none" stroke="black" points="566,-330.5 678,-330.5 "/>
<text text-anchor="start" x="574" y="-318.5" font-family="Helvetica,sans-Serif" font-size="10.00">+ Exp</text>
<text text-anchor="start" x="574" y="-307.5" font-family="Helvetica,sans-Serif" font-size="10.00">+ Item</text>
<text text-anchor="start" x="574" y="-296.5" font-family="Helvetica,sans-Serif" font-size="10.00">+ ExpToNextLevel</text>
<polyline fill="none" stroke="black" points="566,-289.5 678,-289.5 "/>
<text text-anchor="start" x="574" y="-277.5" font-family="Helvetica,sans-Serif" font-size="10.00">+ Player()</text>
<text text-anchor="start" x="574" y="-266.5" font-family="Helvetica,sans-Serif" font-size="10.00">+ gainExp()</text>
<text text-anchor="start" x="574" y="-255.5" font-family="Helvetica,sans-Serif" font-size="10.00">+ levelUp()</text>
<text text-anchor="start" x="574" y="-244.5" font-family="Helvetica,sans-Serif" font-size="10.00">&#45; setExpToNextLevel()</text>
</a>
</g>
</g>
<!-- Node13&#45;&gt;Node20 -->
<g id="edge19" class="edge"><title>Node13&#45;&gt;Node20</title>
<path fill="none" stroke="midnightblue" d="M453.11,-450.949C487.399,-419.186 531.373,-378.451 565.855,-346.51"/>
<polygon fill="none" stroke="midnightblue" points="450.462,-448.631 445.505,-457.995 455.219,-453.766 450.462,-448.631"/>
</g>
<!-- Node14 -->
<g id="node4" class="node"><title>Node14</title>
<polygon fill="none" stroke="#bfbfbf" points="610.5,-824.5 610.5,-881.5 639.5,-881.5 639.5,-824.5 610.5,-824.5"/>
<text text-anchor="middle" x="625" y="-869.5" font-family="Helvetica,sans-Serif" font-size="10.00">int</text>
<polyline fill="none" stroke="#bfbfbf" points="610.5,-862.5 639.5,-862.5 "/>
<text text-anchor="middle" x="625" y="-850.5" font-family="Helvetica,sans-Serif" font-size="10.00"> </text>
<polyline fill="none" stroke="#bfbfbf" points="610.5,-843.5 639.5,-843.5 "/>
<text text-anchor="middle" x="625" y="-831.5" font-family="Helvetica,sans-Serif" font-size="10.00"> </text>
</g>
<!-- Node14&#45;&gt;Node13 -->
<g id="edge4" class="edge"><title>Node14&#45;&gt;Node13</title>
<path fill="none" stroke="#404040" d="M610.163,-844.003C586.983,-830.776 542.227,-802.174 517,-766 479.778,-712.624 497.985,-686.214 471,-627 465.248,-614.378 458.53,-601.408 451.542,-588.843"/>
<polygon fill="none" stroke="#404040" points="451.541,-588.84 445.103,-585.592 445.624,-578.4 452.063,-581.648 451.541,-588.84"/>
<text text-anchor="middle" x="554.5" y="-758" font-family="Helvetica,sans-Serif" font-size="10.00"> #speed</text>
<text text-anchor="middle" x="554.5" y="-747" font-family="Helvetica,sans-Serif" font-size="10.00">#luck</text>
<text text-anchor="middle" x="554.5" y="-736" font-family="Helvetica,sans-Serif" font-size="10.00">#health</text>
<text text-anchor="middle" x="554.5" y="-725" font-family="Helvetica,sans-Serif" font-size="10.00">#magic</text>
<text text-anchor="middle" x="554.5" y="-714" font-family="Helvetica,sans-Serif" font-size="10.00">#maximumMagic</text>
<text text-anchor="middle" x="554.5" y="-703" font-family="Helvetica,sans-Serif" font-size="10.00">#attack</text>
<text text-anchor="middle" x="554.5" y="-692" font-family="Helvetica,sans-Serif" font-size="10.00">#defence</text>
<text text-anchor="middle" x="554.5" y="-681" font-family="Helvetica,sans-Serif" font-size="10.00">#level</text>
<text text-anchor="middle" x="554.5" y="-670" font-family="Helvetica,sans-Serif" font-size="10.00">#rage</text>
</g>
<!-- Node14&#45;&gt;Node16 -->
<g id="edge9" class="edge"><title>Node14&#45;&gt;Node16</title>
<path fill="none" stroke="#404040" d="M610.368,-850.208C573.461,-845.293 474.171,-829.597 399,-795 384.384,-788.273 369.978,-778.995 356.871,-769.192"/>
<polygon fill="none" stroke="#404040" points="356.602,-768.983 349.409,-768.466 347.121,-761.627 354.313,-762.145 356.602,-768.983"/>
<text text-anchor="middle" x="416.5" y="-787" font-family="Helvetica,sans-Serif" font-size="10.00"> #magic</text>
</g>
<!-- Node14&#45;&gt;Node18 -->
<g id="edge16" class="edge"><title>Node14&#45;&gt;Node18</title>
<path fill="none" stroke="#404040" d="M634.821,-824.348C637.293,-820.108 640.32,-816.113 644,-813 665.58,-794.743 678.537,-804.936 705,-795 733.857,-784.165 745.386,-786.946 768,-766 786.1,-749.236 795,-742.171 795,-717.5 795,-717.5 795,-717.5 795,-292.5 795,-190.23 457.308,-128.16 307.329,-105.637"/>
<polygon fill="none" stroke="#404040" points="307.007,-105.589 300.486,-108.667 295.137,-103.831 301.658,-100.753 307.007,-105.589"/>
<text text-anchor="middle" x="814.5" y="-500.5" font-family="Helvetica,sans-Serif" font-size="10.00"> +money</text>
</g>
<!-- Node14&#45;&gt;Node19 -->
<g id="edge15" class="edge"><title>Node14&#45;&gt;Node19</title>
<path fill="none" stroke="#404040" d="M622.136,-824.462C617.156,-779.831 606.075,-693.971 592,-667 586.766,-656.97 580.527,-658.241 574,-649 502.437,-547.673 510.427,-507.474 454,-397 443.051,-375.564 430.216,-351.969 419.597,-332.826"/>
<polygon fill="none" stroke="#404040" points="419.473,-332.603 413.058,-329.308 413.633,-322.12 420.047,-325.415 419.473,-332.603"/>
<text text-anchor="middle" x="597" y="-635.5" font-family="Helvetica,sans-Serif" font-size="10.00"> &#45;expGiven</text>
</g>
<!-- Node14&#45;&gt;Node20 -->
<g id="edge23" class="edge"><title>Node14&#45;&gt;Node20</title>
<path fill="none" stroke="#404040" d="M624.851,-824.353C624.398,-740.131 623.025,-485.012 622.364,-362.109"/>
<polygon fill="none" stroke="#404040" points="622.363,-361.926 618.331,-355.948 622.298,-349.926 626.331,-355.905 622.363,-361.926"/>
<text text-anchor="middle" x="661.5" y="-641" font-family="Helvetica,sans-Serif" font-size="10.00"> &#45;expToNextLevel</text>
<text text-anchor="middle" x="661.5" y="-630" font-family="Helvetica,sans-Serif" font-size="10.00">&#45;exp</text>
</g>
<!-- Node14&#45;&gt;Node21 -->
<g id="edge22" class="edge"><title>Node14&#45;&gt;Node21</title>
<path fill="none" stroke="#404040" d="M639.636,-831.279C650.913,-815.312 667.039,-792.481 681.89,-771.456"/>
<polygon fill="none" stroke="#404040" points="681.902,-771.439 682.096,-764.23 688.825,-761.637 688.631,-768.846 681.902,-771.439"/>
<text text-anchor="middle" x="687" y="-787" font-family="Helvetica,sans-Serif" font-size="10.00"> #cost</text>
</g>
<!-- Node15 -->
<g id="node5" class="node"><title>Node15</title>
<polygon fill="none" stroke="#bfbfbf" points="127.5,-688 127.5,-745 162.5,-745 162.5,-688 127.5,-688"/>
<text text-anchor="middle" x="145" y="-733" font-family="Helvetica,sans-Serif" font-size="10.00">bool</text>
<polyline fill="none" stroke="#bfbfbf" points="127.5,-726 162.5,-726 "/>
<text text-anchor="middle" x="145" y="-714" font-family="Helvetica,sans-Serif" font-size="10.00"> </text>
<polyline fill="none" stroke="#bfbfbf" points="127.5,-707 162.5,-707 "/>
<text text-anchor="middle" x="145" y="-695" font-family="Helvetica,sans-Serif" font-size="10.00"> </text>
</g>
<!-- Node15&#45;&gt;Node13 -->
<g id="edge5" class="edge"><title>Node15&#45;&gt;Node13</title>
<path fill="none" stroke="#404040" d="M158.031,-687.675C167.743,-668.989 182.346,-644.651 200,-627 240.587,-586.42 296.974,-553.052 339.198,-531.359"/>
<polygon fill="none" stroke="#404040" points="339.444,-531.235 342.997,-524.96 350.156,-525.827 346.603,-532.101 339.444,-531.235"/>
<text text-anchor="middle" x="223.5" y="-635.5" font-family="Helvetica,sans-Serif" font-size="10.00"> #canRage</text>
</g>
<!-- Node15&#45;&gt;Node18 -->
<g id="edge17" class="edge"><title>Node15&#45;&gt;Node18</title>
<path fill="none" stroke="#404040" d="M149.132,-687.678C161.647,-603.406 199.608,-347.788 221.32,-201.586"/>
<polygon fill="none" stroke="#404040" points="221.349,-201.391 218.273,-194.868 223.111,-189.521 226.187,-196.044 221.349,-201.391"/>
<text text-anchor="middle" x="230" y="-371" font-family="Helvetica,sans-Serif" font-size="10.00"> &#45;wasCriticalHit</text>
</g>
<!-- Node16&#45;&gt;Node13 -->
<g id="edge6" class="edge"><title>Node16&#45;&gt;Node13</title>
<path fill="none" stroke="#404040" d="M320.425,-671.42C327.774,-655.559 336.442,-636.853 345.272,-617.796"/>
<polygon fill="none" stroke="#404040" points="345.288,-617.76 344.181,-610.635 350.333,-606.872 351.44,-613.998 345.288,-617.76"/>
<text text-anchor="middle" x="363.5" y="-641" font-family="Helvetica,sans-Serif" font-size="10.00"> #special1</text>
<text text-anchor="middle" x="363.5" y="-630" font-family="Helvetica,sans-Serif" font-size="10.00">#special2</text>
</g>
<!-- Node17 -->
<g id="node7" class="node"><title>Node17</title>
<polygon fill="none" stroke="#bfbfbf" points="367.5,-688 367.5,-745 428.5,-745 428.5,-688 367.5,-688"/>
<text text-anchor="middle" x="398" y="-733" font-family="Helvetica,sans-Serif" font-size="10.00">Texture2D</text>
<polyline fill="none" stroke="#bfbfbf" points="367.5,-726 428.5,-726 "/>
<text text-anchor="middle" x="398" y="-714" font-family="Helvetica,sans-Serif" font-size="10.00"> </text>
<polyline fill="none" stroke="#bfbfbf" points="367.5,-707 428.5,-707 "/>
<text text-anchor="middle" x="398" y="-695" font-family="Helvetica,sans-Serif" font-size="10.00"> </text>
</g>
<!-- Node17&#45;&gt;Node13 -->
<g id="edge10" class="edge"><title>Node17&#45;&gt;Node13</title>
<path fill="none" stroke="#404040" d="M398,-687.85C398,-670.241 398,-646.103 398,-621.11"/>
<polygon fill="none" stroke="#404040" points="398,-620.796 394,-614.796 398,-608.796 402,-614.796 398,-620.796"/>
<text text-anchor="middle" x="415.5" y="-635.5" font-family="Helvetica,sans-Serif" font-size="10.00"> #image</text>
</g>
<!-- Node18&#45;&gt;Node11 -->
<g id="edge11" class="edge"><title>Node18&#45;&gt;Node11</title>
<path fill="none" stroke="#404040" d="M178.876,-143.364C141.161,-179.7 99,-233.513 99,-292.5 99,-717.5 99,-717.5 99,-717.5 99,-757.485 128.543,-792.011 157.146,-816.069"/>
<polygon fill="none" stroke="#404040" points="157.422,-816.291 164.604,-816.94 166.767,-823.819 159.585,-823.17 157.422,-816.291"/>
<text text-anchor="middle" x="122" y="-500.5" font-family="Helvetica,sans-Serif" font-size="10.00"> #manager</text>
</g>
<!-- Node19&#45;&gt;Node18 -->
<g id="edge13" class="edge"><title>Node19&#45;&gt;Node18</title>
<path fill="none" stroke="#404040" d="M375.274,-264.763C356.5,-241.849 328.865,-208.121 303.225,-176.828"/>
<polygon fill="none" stroke="#404040" points="302.95,-176.491 296.053,-174.385 295.344,-167.209 302.241,-169.315 302.95,-176.491"/>
<text text-anchor="middle" x="355" y="-211" font-family="Helvetica,sans-Serif" font-size="10.00"> &#45;enemy</text>
</g>
<!-- Node20&#45;&gt;Node18 -->
<g id="edge18" class="edge"><title>Node20&#45;&gt;Node18</title>
<path fill="none" stroke="#404040" d="M565.605,-263.717C496.768,-228.583 380.391,-169.185 306.201,-131.32"/>
<polygon fill="none" stroke="#404040" points="305.81,-131.12 298.647,-131.955 295.122,-125.665 302.284,-124.83 305.81,-131.12"/>
<text text-anchor="middle" x="492.5" y="-211" font-family="Helvetica,sans-Serif" font-size="10.00"> &#45;player</text>
</g>
<!-- Node21&#45;&gt;Node20 -->
<g id="edge20" class="edge"><title>Node21&#45;&gt;Node20</title>
<path fill="none" stroke="#404040" d="M722.034,-671.265C722.142,-657.085 721.693,-641.343 720,-627 706.127,-509.453 698.053,-479.381 658,-368 657.155,-365.65 656.256,-363.276 655.315,-360.892"/>
<polygon fill="none" stroke="#404040" points="655.274,-360.794 649.269,-356.802 650.644,-349.723 656.649,-353.715 655.274,-360.794"/>
<text text-anchor="middle" x="729.5" y="-500.5" font-family="Helvetica,sans-Serif" font-size="10.00"> &#45;item</text>
</g>
</g>
</svg>
