<?xml version="1.0" encoding="UTF-8" standalone="no"?>
<!DOCTYPE svg PUBLIC "-//W3C//DTD SVG 1.1//EN"
 "http://www.w3.org/Graphics/SVG/1.1/DTD/svg11.dtd">
<!-- Generated by graphviz version 2.38.0 (20140413.2041)
 -->
<!-- Title: SwitchPlayers Pages: 1 -->
<!--zoomable 1006 -->
<svg id="main" version="1.1" xmlns="http://www.w3.org/2000/svg" xmlns:xlink="http://www.w3.org/1999/xlink" xml:space="preserve" onload="init(evt)">
<style type="text/css"><![CDATA[
.edge:hover path { stroke: red; }
.edge:hover polygon { stroke: red; fill: red; }
]]></style>
<script type="text/javascript"><![CDATA[
var edges = document.getElementsByTagName('g');
if (edges && edges.length) {
  for (var i=0;i<edges.length;i++) {
    if (edges[i].id.substr(0,4)=='edge') {
      edges[i].setAttribute('class','edge');
    }
  }
}
]]></script>
        <defs>
                <circle id="rim" cx="0" cy="0" r="7"/>
                <circle id="rim2" cx="0" cy="0" r="3.5"/>
                <g id="zoomPlus">
                        <use xlink:href="#rim" fill="#404040">
                                <set attributeName="fill" to="#808080" begin="zoomplus.mouseover" end="zoomplus.mouseout"/>
                        </use>
                        <path d="M-4,0h8M0,-4v8" fill="none" stroke="white" stroke-width="1.5" pointer-events="none"/>
                </g>
                <g id="zoomMin">
                        <use xlink:href="#rim" fill="#404040">
                                <set attributeName="fill" to="#808080" begin="zoomminus.mouseover" end="zoomminus.mouseout"/>
                        </use>
                        <path d="M-4,0h8" fill="none" stroke="white" stroke-width="1.5" pointer-events="none"/>
                </g>
                <g id="dirArrow">
                        <path fill="none" stroke="white" stroke-width="1.5" d="M0,-3.0v7 M-2.5,-0.5L0,-3.0L2.5,-0.5"/>
                </g>
               <g id="resetDef">
                       <use xlink:href="#rim2" fill="#404040">
                               <set attributeName="fill" to="#808080" begin="reset.mouseover" end="reset.mouseout"/>
                       </use>
               </g>
        </defs>

<script type="text/javascript">
var viewWidth = 884;
var viewHeight = 1006;
var sectionId = 'dynsection-1';
</script>
<script xlink:href="svgpan.js"/>
<svg id="graph" class="graph">
<g id="viewport">
<title>SwitchPlayers</title>
<!-- Node2 -->
<g id="node1" class="node"><title>Node2</title>
<polygon fill="#bfbfbf" stroke="black" points="28,-682.5 28,-750.5 122,-750.5 122,-682.5 28,-682.5"/>
<text text-anchor="middle" x="75" y="-738.5" font-family="Helvetica,sans-Serif" font-size="10.00">SwitchPlayers</text>
<polyline fill="none" stroke="black" points="28,-731.5 122,-731.5 "/>
<text text-anchor="middle" x="75" y="-719.5" font-family="Helvetica,sans-Serif" font-size="10.00"> </text>
<polyline fill="none" stroke="black" points="28,-712.5 122,-712.5 "/>
<text text-anchor="start" x="36" y="-700.5" font-family="Helvetica,sans-Serif" font-size="10.00">+ SwitchPlayers()</text>
<text text-anchor="start" x="36" y="-689.5" font-family="Helvetica,sans-Serif" font-size="10.00">+ performMove()</text>
</g>
<!-- Node3 -->
<g id="node2" class="node"><title>Node3</title>
<g id="a_node2"><a xlink:href="class_character_move.html" target="_top" xlink:title="Astract base class for character moves ">
<polygon fill="none" stroke="black" points="207,-813.5 207,-892.5 293,-892.5 293,-813.5 207,-813.5"/>
<text text-anchor="middle" x="250" y="-880.5" font-family="Helvetica,sans-Serif" font-size="10.00">CharacterMove</text>
<polyline fill="none" stroke="black" points="207,-873.5 293,-873.5 "/>
<text text-anchor="start" x="215" y="-861.5" font-family="Helvetica,sans-Serif" font-size="10.00">+ User</text>
<text text-anchor="start" x="215" y="-850.5" font-family="Helvetica,sans-Serif" font-size="10.00">+ Target</text>
<text text-anchor="start" x="215" y="-839.5" font-family="Helvetica,sans-Serif" font-size="10.00">+ Text</text>
<polyline fill="none" stroke="black" points="207,-832.5 293,-832.5 "/>
<text text-anchor="start" x="215" y="-820.5" font-family="Helvetica,sans-Serif" font-size="10.00">+ performMove()</text>
</a>
</g>
</g>
<!-- Node3&#45;&gt;Node2 -->
<g id="edge1" class="edge"><title>Node3&#45;&gt;Node2</title>
<path fill="none" stroke="midnightblue" d="M197.558,-831.662C177.136,-822.292 154.296,-809.911 136,-795 120.736,-782.56 106.876,-765.657 96.2391,-750.812"/>
<polygon fill="none" stroke="midnightblue" points="196.187,-834.883 206.746,-835.754 199.035,-828.488 196.187,-834.883"/>
</g>
<!-- Node8 -->
<g id="node7" class="node"><title>Node8</title>
<g id="a_node7"><a xlink:href="class_special_move.html" target="_top" xlink:title="Special move abstract base class that expands upon CharacterMove, adding magic properties ...">
<polygon fill="none" stroke="black" points="302,-671.5 302,-761.5 400,-761.5 400,-671.5 302,-671.5"/>
<text text-anchor="middle" x="351" y="-749.5" font-family="Helvetica,sans-Serif" font-size="10.00">SpecialMove</text>
<polyline fill="none" stroke="black" points="302,-742.5 400,-742.5 "/>
<text text-anchor="start" x="310" y="-730.5" font-family="Helvetica,sans-Serif" font-size="10.00">+ Magic</text>
<text text-anchor="start" x="310" y="-719.5" font-family="Helvetica,sans-Serif" font-size="10.00">+ Desc</text>
<polyline fill="none" stroke="black" points="302,-712.5 400,-712.5 "/>
<text text-anchor="start" x="310" y="-700.5" font-family="Helvetica,sans-Serif" font-size="10.00">+ setUp()</text>
<text text-anchor="start" x="310" y="-689.5" font-family="Helvetica,sans-Serif" font-size="10.00">+ decreaseMagic()</text>
<text text-anchor="start" x="310" y="-678.5" font-family="Helvetica,sans-Serif" font-size="10.00"># SpecialMove()</text>
</a>
</g>
</g>
<!-- Node3&#45;&gt;Node8 -->
<g id="edge8" class="edge"><title>Node3&#45;&gt;Node8</title>
<path fill="none" stroke="midnightblue" d="M285.059,-805.313C295.672,-791.18 307.291,-775.706 317.78,-761.738"/>
<polygon fill="none" stroke="midnightblue" points="282.149,-803.36 278.943,-813.458 287.746,-807.563 282.149,-803.36"/>
</g>
<!-- Node4 -->
<g id="node3" class="node"><title>Node4</title>
<polygon fill="none" stroke="#bfbfbf" points="330.5,-940.5 330.5,-997.5 371.5,-997.5 371.5,-940.5 330.5,-940.5"/>
<text text-anchor="middle" x="351" y="-985.5" font-family="Helvetica,sans-Serif" font-size="10.00">string</text>
<polyline fill="none" stroke="#bfbfbf" points="330.5,-978.5 371.5,-978.5 "/>
<text text-anchor="middle" x="351" y="-966.5" font-family="Helvetica,sans-Serif" font-size="10.00"> </text>
<polyline fill="none" stroke="#bfbfbf" points="330.5,-959.5 371.5,-959.5 "/>
<text text-anchor="middle" x="351" y="-947.5" font-family="Helvetica,sans-Serif" font-size="10.00"> </text>
</g>
<!-- Node4&#45;&gt;Node3 -->
<g id="edge2" class="edge"><title>Node4&#45;&gt;Node3</title>
<path fill="none" stroke="#404040" d="M330.317,-944.655C319.325,-932.248 305.396,-916.526 292.236,-901.673"/>
<polygon fill="none" stroke="#404040" points="292.133,-901.556 285.16,-899.718 284.175,-892.574 291.148,-894.412 292.133,-901.556"/>
<text text-anchor="middle" x="322.5" y="-914" font-family="Helvetica,sans-Serif" font-size="10.00"> #text</text>
</g>
<!-- Node5 -->
<g id="node4" class="node"><title>Node5</title>
<g id="a_node4"><a xlink:href="class_character.html" target="_top" xlink:title="Base abstract class for Enemy and Player to inherit from. Defines all shared variables, their constructor and their setters and getters ">
<polygon fill="none" stroke="black" points="380.5,-397.5 380.5,-608.5 475.5,-608.5 475.5,-397.5 380.5,-397.5"/>
<text text-anchor="middle" x="428" y="-596.5" font-family="Helvetica,sans-Serif" font-size="10.00">Character</text>
<polyline fill="none" stroke="black" points="380.5,-589.5 475.5,-589.5 "/>
<text text-anchor="start" x="388.5" y="-577.5" font-family="Helvetica,sans-Serif" font-size="10.00">+ Name</text>
<text text-anchor="start" x="388.5" y="-566.5" font-family="Helvetica,sans-Serif" font-size="10.00">+ Level</text>
<text text-anchor="start" x="388.5" y="-555.5" font-family="Helvetica,sans-Serif" font-size="10.00">+ Health</text>
<text text-anchor="start" x="388.5" y="-544.5" font-family="Helvetica,sans-Serif" font-size="10.00">+ Attack</text>
<text text-anchor="start" x="388.5" y="-533.5" font-family="Helvetica,sans-Serif" font-size="10.00">+ Defence</text>
<text text-anchor="start" x="388.5" y="-522.5" font-family="Helvetica,sans-Serif" font-size="10.00">+ MaximumMagic</text>
<text text-anchor="start" x="388.5" y="-511.5" font-family="Helvetica,sans-Serif" font-size="10.00">+ Magic</text>
<text text-anchor="start" x="388.5" y="-500.5" font-family="Helvetica,sans-Serif" font-size="10.00">+ Luck</text>
<text text-anchor="start" x="388.5" y="-489.5" font-family="Helvetica,sans-Serif" font-size="10.00">+ Speed</text>
<text text-anchor="start" x="388.5" y="-478.5" font-family="Helvetica,sans-Serif" font-size="10.00">+ Rage</text>
<text text-anchor="start" x="388.5" y="-467.5" font-family="Helvetica,sans-Serif" font-size="10.00">+ CanRage</text>
<text text-anchor="start" x="388.5" y="-456.5" font-family="Helvetica,sans-Serif" font-size="10.00">+ Special1</text>
<text text-anchor="start" x="388.5" y="-445.5" font-family="Helvetica,sans-Serif" font-size="10.00">+ Special2</text>
<text text-anchor="start" x="388.5" y="-434.5" font-family="Helvetica,sans-Serif" font-size="10.00">+ Image</text>
<polyline fill="none" stroke="black" points="380.5,-427.5 475.5,-427.5 "/>
<text text-anchor="start" x="388.5" y="-415.5" font-family="Helvetica,sans-Serif" font-size="10.00">+ IsEnraged()</text>
<text text-anchor="start" x="388.5" y="-404.5" font-family="Helvetica,sans-Serif" font-size="10.00"># Character()</text>
</a>
</g>
</g>
<!-- Node4&#45;&gt;Node5 -->
<g id="edge4" class="edge"><title>Node4&#45;&gt;Node5</title>
<path fill="none" stroke="#404040" d="M365.384,-940.488C372.164,-926.568 379.872,-909.221 385,-893 412.995,-804.446 423.354,-699.557 426.929,-621.023"/>
<polygon fill="none" stroke="#404040" points="426.945,-620.641 423.199,-614.479 427.446,-608.652 431.192,-614.813 426.945,-620.641"/>
<text text-anchor="middle" x="427.5" y="-787" font-family="Helvetica,sans-Serif" font-size="10.00"> #name</text>
</g>
<!-- Node4&#45;&gt;Node8 -->
<g id="edge9" class="edge"><title>Node4&#45;&gt;Node8</title>
<path fill="none" stroke="#404040" d="M351,-940.235C351,-900.341 351,-825.916 351,-774.129"/>
<polygon fill="none" stroke="#404040" points="351,-773.813 347,-767.813 351,-761.813 355,-767.813 351,-773.813"/>
<text text-anchor="middle" x="366" y="-850.5" font-family="Helvetica,sans-Serif" font-size="10.00"> #desc</text>
</g>
<!-- Node10 -->
<g id="node9" class="node"><title>Node10</title>
<g id="a_node9"><a xlink:href="class_battle_manager.html" target="_top" xlink:title="Holds current Player and Enemy objects in battle and provides functions for MainBattle and other obje...">
<polygon fill="none" stroke="black" points="225,-0.5 225,-189.5 341,-189.5 341,-0.5 225,-0.5"/>
<text text-anchor="middle" x="283" y="-177.5" font-family="Helvetica,sans-Serif" font-size="10.00">BattleManager</text>
<polyline fill="none" stroke="black" points="225,-170.5 341,-170.5 "/>
<text text-anchor="start" x="233" y="-158.5" font-family="Helvetica,sans-Serif" font-size="10.00">+ Player</text>
<text text-anchor="start" x="233" y="-147.5" font-family="Helvetica,sans-Serif" font-size="10.00">+ Enemy</text>
<text text-anchor="start" x="233" y="-136.5" font-family="Helvetica,sans-Serif" font-size="10.00">+ WasCriticalHit</text>
<polyline fill="none" stroke="black" points="225,-129.5 341,-129.5 "/>
<text text-anchor="start" x="233" y="-117.5" font-family="Helvetica,sans-Serif" font-size="10.00">+ BattleManager()</text>
<text text-anchor="start" x="233" y="-106.5" font-family="Helvetica,sans-Serif" font-size="10.00">+ playerFirst()</text>
<text text-anchor="start" x="233" y="-95.5" font-family="Helvetica,sans-Serif" font-size="10.00">+ switchPlayers()</text>
<text text-anchor="start" x="233" y="-84.5" font-family="Helvetica,sans-Serif" font-size="10.00">+ isCriticalHit()</text>
<text text-anchor="start" x="233" y="-73.5" font-family="Helvetica,sans-Serif" font-size="10.00">+ ranAway()</text>
<text text-anchor="start" x="233" y="-62.5" font-family="Helvetica,sans-Serif" font-size="10.00">+ damageCalculation()</text>
<text text-anchor="start" x="233" y="-51.5" font-family="Helvetica,sans-Serif" font-size="10.00">+ enemyMove()</text>
<text text-anchor="start" x="233" y="-40.5" font-family="Helvetica,sans-Serif" font-size="10.00">+ enemySpecialMove()</text>
<text text-anchor="start" x="233" y="-29.5" font-family="Helvetica,sans-Serif" font-size="10.00">+ battleWon()</text>
<text text-anchor="start" x="233" y="-18.5" font-family="Helvetica,sans-Serif" font-size="10.00">+ playerFainted()</text>
<text text-anchor="start" x="233" y="-7.5" font-family="Helvetica,sans-Serif" font-size="10.00">&#45; characterFainted()</text>
</a>
</g>
</g>
<!-- Node4&#45;&gt;Node10 -->
<g id="edge13" class="edge"><title>Node4&#45;&gt;Node10</title>
<path fill="none" stroke="#404040" d="M330.354,-965.855C255.115,-957.478 0,-923.917 0,-854 0,-854 0,-854 0,-292.5 0,-189.063 129.137,-135.705 212.944,-111.969"/>
<polygon fill="none" stroke="#404040" points="213.132,-111.918 217.862,-106.475 224.705,-108.747 219.976,-114.19 213.132,-111.918"/>
<text text-anchor="middle" x="42" y="-641" font-family="Helvetica,sans-Serif" font-size="10.00"> +forceEnemyMove</text>
<text text-anchor="middle" x="42" y="-630" font-family="Helvetica,sans-Serif" font-size="10.00">+forceCriticalHits</text>
</g>
<!-- Node13 -->
<g id="node12" class="node"><title>Node13</title>
<g id="a_node12"><a xlink:href="class_item.html" target="_top" xlink:title="Abstract class for items that can be equipped to a player, increasing some of their stats ...">
<polygon fill="none" stroke="black" points="731.5,-671.5 731.5,-761.5 808.5,-761.5 808.5,-671.5 731.5,-671.5"/>
<text text-anchor="middle" x="770" y="-749.5" font-family="Helvetica,sans-Serif" font-size="10.00">Item</text>
<polyline fill="none" stroke="black" points="731.5,-742.5 808.5,-742.5 "/>
<text text-anchor="start" x="739.5" y="-730.5" font-family="Helvetica,sans-Serif" font-size="10.00">+ Name</text>
<text text-anchor="start" x="739.5" y="-719.5" font-family="Helvetica,sans-Serif" font-size="10.00">+ Desc</text>
<text text-anchor="start" x="739.5" y="-708.5" font-family="Helvetica,sans-Serif" font-size="10.00">+ Cost</text>
<polyline fill="none" stroke="black" points="731.5,-701.5 808.5,-701.5 "/>
<text text-anchor="start" x="739.5" y="-689.5" font-family="Helvetica,sans-Serif" font-size="10.00">+ applyBuffs()</text>
<text text-anchor="start" x="739.5" y="-678.5" font-family="Helvetica,sans-Serif" font-size="10.00">+ revertBuffs()</text>
</a>
</g>
</g>
<!-- Node4&#45;&gt;Node13 -->
<g id="edge22" class="edge"><title>Node4&#45;&gt;Node13</title>
<path fill="none" stroke="#404040" d="M371.719,-965.761C438.312,-958.228 645.642,-932.065 699,-893 736.853,-865.287 754.567,-813.92 762.833,-773.89"/>
<polygon fill="none" stroke="#404040" points="762.876,-773.661 760.061,-767.022 765.106,-761.87 767.921,-768.509 762.876,-773.661"/>
<text text-anchor="middle" x="767" y="-856" font-family="Helvetica,sans-Serif" font-size="10.00"> #desc</text>
<text text-anchor="middle" x="767" y="-845" font-family="Helvetica,sans-Serif" font-size="10.00">#name</text>
</g>
<!-- Node5&#45;&gt;Node3 -->
<g id="edge3" class="edge"><title>Node5&#45;&gt;Node3</title>
<path fill="none" stroke="#404040" d="M380.193,-562.338C355.367,-590.516 323.48,-623.632 291,-649 278.14,-659.044 267.578,-653.119 259,-667 234.237,-707.074 234.868,-761.865 239.939,-801.407"/>
<polygon fill="none" stroke="#404040" points="239.957,-801.536 244.774,-806.903 241.673,-813.413 236.856,-808.047 239.957,-801.536"/>
<text text-anchor="middle" x="276" y="-719.5" font-family="Helvetica,sans-Serif" font-size="10.00"> #target</text>
<text text-anchor="middle" x="276" y="-708.5" font-family="Helvetica,sans-Serif" font-size="10.00">#user</text>
</g>
<!-- Node11 -->
<g id="node10" class="node"><title>Node11</title>
<g id="a_node10"><a xlink:href="class_enemy.html" target="_top" xlink:title="Defines an AI controller enemy to fight in battle scenes">
<polygon fill="none" stroke="black" points="394.5,-265 394.5,-322 461.5,-322 461.5,-265 394.5,-265"/>
<text text-anchor="middle" x="428" y="-310" font-family="Helvetica,sans-Serif" font-size="10.00">Enemy</text>
<polyline fill="none" stroke="black" points="394.5,-303 461.5,-303 "/>
<text text-anchor="start" x="402.5" y="-291" font-family="Helvetica,sans-Serif" font-size="10.00">+ ExpGiven</text>
<polyline fill="none" stroke="black" points="394.5,-284 461.5,-284 "/>
<text text-anchor="start" x="402.5" y="-272" font-family="Helvetica,sans-Serif" font-size="10.00">+ Enemy()</text>
</a>
</g>
</g>
<!-- Node5&#45;&gt;Node11 -->
<g id="edge15" class="edge"><title>Node5&#45;&gt;Node11</title>
<path fill="none" stroke="midnightblue" d="M428,-387.257C428,-362.946 428,-339.449 428,-322.187"/>
<polygon fill="none" stroke="midnightblue" points="424.5,-387.338 428,-397.338 431.5,-387.338 424.5,-387.338"/>
</g>
<!-- Node12 -->
<g id="node11" class="node"><title>Node12</title>
<g id="a_node11"><a xlink:href="class_player.html" target="_top" xlink:title="Defines a playable character for use in battle scenes">
<polygon fill="none" stroke="black" points="560,-237.5 560,-349.5 672,-349.5 672,-237.5 560,-237.5"/>
<text text-anchor="middle" x="616" y="-337.5" font-family="Helvetica,sans-Serif" font-size="10.00">Player</text>
<polyline fill="none" stroke="black" points="560,-330.5 672,-330.5 "/>
<text text-anchor="start" x="568" y="-318.5" font-family="Helvetica,sans-Serif" font-size="10.00">+ Exp</text>
<text text-anchor="start" x="568" y="-307.5" font-family="Helvetica,sans-Serif" font-size="10.00">+ Item</text>
<text text-anchor="start" x="568" y="-296.5" font-family="Helvetica,sans-Serif" font-size="10.00">+ ExpToNextLevel</text>
<polyline fill="none" stroke="black" points="560,-289.5 672,-289.5 "/>
<text text-anchor="start" x="568" y="-277.5" font-family="Helvetica,sans-Serif" font-size="10.00">+ Player()</text>
<text text-anchor="start" x="568" y="-266.5" font-family="Helvetica,sans-Serif" font-size="10.00">+ gainExp()</text>
<text text-anchor="start" x="568" y="-255.5" font-family="Helvetica,sans-Serif" font-size="10.00">+ levelUp()</text>
<text text-anchor="start" x="568" y="-244.5" font-family="Helvetica,sans-Serif" font-size="10.00">&#45; setExpToNextLevel()</text>
</a>
</g>
</g>
<!-- Node5&#45;&gt;Node12 -->
<g id="edge20" class="edge"><title>Node5&#45;&gt;Node12</title>
<path fill="none" stroke="midnightblue" d="M482.619,-441.716C508.97,-412.632 540.361,-377.985 566.068,-349.611"/>
<polygon fill="none" stroke="midnightblue" points="479.804,-439.61 475.683,-449.371 484.991,-444.31 479.804,-439.61"/>
</g>
<!-- Node6 -->
<g id="node5" class="node"><title>Node6</title>
<polygon fill="none" stroke="#bfbfbf" points="661.5,-824.5 661.5,-881.5 690.5,-881.5 690.5,-824.5 661.5,-824.5"/>
<text text-anchor="middle" x="676" y="-869.5" font-family="Helvetica,sans-Serif" font-size="10.00">int</text>
<polyline fill="none" stroke="#bfbfbf" points="661.5,-862.5 690.5,-862.5 "/>
<text text-anchor="middle" x="676" y="-850.5" font-family="Helvetica,sans-Serif" font-size="10.00"> </text>
<polyline fill="none" stroke="#bfbfbf" points="661.5,-843.5 690.5,-843.5 "/>
<text text-anchor="middle" x="676" y="-831.5" font-family="Helvetica,sans-Serif" font-size="10.00"> </text>
</g>
<!-- Node6&#45;&gt;Node5 -->
<g id="edge5" class="edge"><title>Node6&#45;&gt;Node5</title>
<path fill="none" stroke="#404040" d="M661.136,-843.529C638.322,-829.864 594.537,-800.924 568,-766 539.083,-727.944 545.591,-710.596 526,-667 517.933,-649.048 516.56,-644.204 507,-627 499.338,-613.211 490.739,-598.867 482.111,-585.05"/>
<polygon fill="none" stroke="#404040" points="481.924,-584.754 475.34,-581.814 475.522,-574.605 482.106,-577.546 481.924,-584.754"/>
<text text-anchor="middle" x="605.5" y="-758" font-family="Helvetica,sans-Serif" font-size="10.00"> #speed</text>
<text text-anchor="middle" x="605.5" y="-747" font-family="Helvetica,sans-Serif" font-size="10.00">#luck</text>
<text text-anchor="middle" x="605.5" y="-736" font-family="Helvetica,sans-Serif" font-size="10.00">#health</text>
<text text-anchor="middle" x="605.5" y="-725" font-family="Helvetica,sans-Serif" font-size="10.00">#magic</text>
<text text-anchor="middle" x="605.5" y="-714" font-family="Helvetica,sans-Serif" font-size="10.00">#maximumMagic</text>
<text text-anchor="middle" x="605.5" y="-703" font-family="Helvetica,sans-Serif" font-size="10.00">#attack</text>
<text text-anchor="middle" x="605.5" y="-692" font-family="Helvetica,sans-Serif" font-size="10.00">#defence</text>
<text text-anchor="middle" x="605.5" y="-681" font-family="Helvetica,sans-Serif" font-size="10.00">#level</text>
<text text-anchor="middle" x="605.5" y="-670" font-family="Helvetica,sans-Serif" font-size="10.00">#rage</text>
</g>
<!-- Node6&#45;&gt;Node8 -->
<g id="edge10" class="edge"><title>Node6&#45;&gt;Node8</title>
<path fill="none" stroke="#404040" d="M661.103,-847.811C631.084,-839.201 561.377,-818.352 505,-795 478.373,-783.971 472.751,-778.942 447,-766 435.376,-760.158 422.968,-753.903 411.065,-747.893"/>
<polygon fill="none" stroke="#404040" points="411.023,-747.872 403.864,-748.737 400.311,-742.462 407.47,-741.597 411.023,-747.872"/>
<text text-anchor="middle" x="522.5" y="-787" font-family="Helvetica,sans-Serif" font-size="10.00"> #magic</text>
</g>
<!-- Node6&#45;&gt;Node10 -->
<g id="edge17" class="edge"><title>Node6&#45;&gt;Node10</title>
<path fill="none" stroke="#404040" d="M685.833,-824.362C688.303,-820.12 691.327,-816.122 695,-813 716.214,-794.97 728.958,-804.845 755,-795 783.833,-784.1 796.846,-788.419 818,-766 833.888,-749.162 837,-740.651 837,-717.5 837,-717.5 837,-717.5 837,-292.5 837,-191.006 502.547,-128.602 353.371,-105.816"/>
<polygon fill="none" stroke="#404040" points="353.107,-105.777 346.578,-108.838 341.241,-103.989 347.77,-100.927 353.107,-105.777"/>
<text text-anchor="middle" x="856.5" y="-500.5" font-family="Helvetica,sans-Serif" font-size="10.00"> +money</text>
</g>
<!-- Node6&#45;&gt;Node11 -->
<g id="edge16" class="edge"><title>Node6&#45;&gt;Node11</title>
<path fill="none" stroke="#404040" d="M673.292,-824.378C668.539,-779.625 657.779,-693.592 643,-667 637.191,-656.547 630.43,-658.37 623,-649 620.228,-645.504 498.914,-424.053 449.057,-332.977"/>
<polygon fill="none" stroke="#404040" points="448.967,-332.813 442.578,-329.471 443.205,-322.287 449.595,-325.629 448.967,-332.813"/>
<text text-anchor="middle" x="646" y="-635.5" font-family="Helvetica,sans-Serif" font-size="10.00"> &#45;expGiven</text>
</g>
<!-- Node6&#45;&gt;Node12 -->
<g id="edge24" class="edge"><title>Node6&#45;&gt;Node12</title>
<path fill="none" stroke="#404040" d="M676.64,-824.247C677.393,-781.726 677.975,-697.926 673,-627 664.88,-511.243 665.457,-481.215 640,-368 639.513,-365.835 638.989,-363.643 638.435,-361.437"/>
<polygon fill="none" stroke="#404040" points="638.358,-361.154 632.928,-356.409 635.219,-349.572 640.649,-354.317 638.358,-361.154"/>
<text text-anchor="middle" x="712.5" y="-641" font-family="Helvetica,sans-Serif" font-size="10.00"> &#45;expToNextLevel</text>
<text text-anchor="middle" x="712.5" y="-630" font-family="Helvetica,sans-Serif" font-size="10.00">&#45;exp</text>
</g>
<!-- Node6&#45;&gt;Node13 -->
<g id="edge23" class="edge"><title>Node6&#45;&gt;Node13</title>
<path fill="none" stroke="#404040" d="M690.688,-830.984C701.781,-815.111 717.53,-792.577 732.074,-771.767"/>
<polygon fill="none" stroke="#404040" points="732.216,-771.563 732.375,-764.353 739.091,-761.727 738.932,-768.936 732.216,-771.563"/>
<text text-anchor="middle" x="737" y="-787" font-family="Helvetica,sans-Serif" font-size="10.00"> #cost</text>
</g>
<!-- Node7 -->
<g id="node6" class="node"><title>Node7</title>
<polygon fill="none" stroke="#bfbfbf" points="178.5,-688 178.5,-745 213.5,-745 213.5,-688 178.5,-688"/>
<text text-anchor="middle" x="196" y="-733" font-family="Helvetica,sans-Serif" font-size="10.00">bool</text>
<polyline fill="none" stroke="#bfbfbf" points="178.5,-726 213.5,-726 "/>
<text text-anchor="middle" x="196" y="-714" font-family="Helvetica,sans-Serif" font-size="10.00"> </text>
<polyline fill="none" stroke="#bfbfbf" points="178.5,-707 213.5,-707 "/>
<text text-anchor="middle" x="196" y="-695" font-family="Helvetica,sans-Serif" font-size="10.00"> </text>
</g>
<!-- Node7&#45;&gt;Node5 -->
<g id="edge6" class="edge"><title>Node7&#45;&gt;Node5</title>
<path fill="none" stroke="#404040" d="M206.835,-687.786C215.07,-669.149 227.749,-644.825 244,-627 279.732,-587.809 330.42,-555.123 369.55,-533.321"/>
<polygon fill="none" stroke="#404040" points="369.731,-533.222 373.075,-526.833 380.259,-527.463 376.914,-533.852 369.731,-533.222"/>
<text text-anchor="middle" x="267.5" y="-635.5" font-family="Helvetica,sans-Serif" font-size="10.00"> #canRage</text>
</g>
<!-- Node7&#45;&gt;Node10 -->
<g id="edge18" class="edge"><title>Node7&#45;&gt;Node10</title>
<path fill="none" stroke="#404040" d="M199.907,-687.678C211.742,-603.406 247.64,-347.788 268.172,-201.586"/>
<polygon fill="none" stroke="#404040" points="268.197,-201.405 265.071,-194.907 269.866,-189.521 272.993,-196.019 268.197,-201.405"/>
<text text-anchor="middle" x="278" y="-371" font-family="Helvetica,sans-Serif" font-size="10.00"> &#45;wasCriticalHit</text>
</g>
<!-- Node8&#45;&gt;Node5 -->
<g id="edge7" class="edge"><title>Node8&#45;&gt;Node5</title>
<path fill="none" stroke="#404040" d="M357.777,-671.272C360.557,-656.948 364.259,-641.12 369,-627 371.073,-620.826 373.382,-614.559 375.851,-608.29"/>
<polygon fill="none" stroke="#404040" points="375.916,-608.133 374.482,-601.065 380.454,-597.024 381.888,-604.091 375.916,-608.133"/>
<text text-anchor="middle" x="391.5" y="-641" font-family="Helvetica,sans-Serif" font-size="10.00"> #special1</text>
<text text-anchor="middle" x="391.5" y="-630" font-family="Helvetica,sans-Serif" font-size="10.00">#special2</text>
</g>
<!-- Node9 -->
<g id="node8" class="node"><title>Node9</title>
<polygon fill="none" stroke="#bfbfbf" points="456.5,-688 456.5,-745 517.5,-745 517.5,-688 456.5,-688"/>
<text text-anchor="middle" x="487" y="-733" font-family="Helvetica,sans-Serif" font-size="10.00">Texture2D</text>
<polyline fill="none" stroke="#bfbfbf" points="456.5,-726 517.5,-726 "/>
<text text-anchor="middle" x="487" y="-714" font-family="Helvetica,sans-Serif" font-size="10.00"> </text>
<polyline fill="none" stroke="#bfbfbf" points="456.5,-707 517.5,-707 "/>
<text text-anchor="middle" x="487" y="-695" font-family="Helvetica,sans-Serif" font-size="10.00"> </text>
</g>
<!-- Node9&#45;&gt;Node5 -->
<g id="edge11" class="edge"><title>Node9&#45;&gt;Node5</title>
<path fill="none" stroke="#404040" d="M479.287,-687.85C474.33,-670.081 467.519,-645.664 460.479,-620.428"/>
<polygon fill="none" stroke="#404040" points="460.458,-620.355 454.993,-615.651 457.234,-608.796 462.699,-613.501 460.458,-620.355"/>
<text text-anchor="middle" x="485.5" y="-635.5" font-family="Helvetica,sans-Serif" font-size="10.00"> #image</text>
</g>
<!-- Node10&#45;&gt;Node3 -->
<g id="edge12" class="edge"><title>Node10&#45;&gt;Node3</title>
<path fill="none" stroke="#404040" d="M224.664,-146.13C188.929,-182.611 150,-235.446 150,-292.5 150,-717.5 150,-717.5 150,-717.5 150,-753.651 173.554,-786.392 197.799,-810.518"/>
<polygon fill="none" stroke="#404040" points="198.027,-810.735 205.131,-811.973 206.72,-819.007 199.616,-817.769 198.027,-810.735"/>
<text text-anchor="middle" x="173" y="-500.5" font-family="Helvetica,sans-Serif" font-size="10.00"> #manager</text>
</g>
<!-- Node11&#45;&gt;Node10 -->
<g id="edge14" class="edge"><title>Node11&#45;&gt;Node10</title>
<path fill="none" stroke="#404040" d="M407.533,-264.763C392.032,-243.758 369.826,-213.664 348.445,-184.689"/>
<polygon fill="none" stroke="#404040" points="348.362,-184.577 341.581,-182.124 341.237,-174.921 348.018,-177.374 348.362,-184.577"/>
<text text-anchor="middle" x="391" y="-211" font-family="Helvetica,sans-Serif" font-size="10.00"> &#45;enemy</text>
</g>
<!-- Node12&#45;&gt;Node10 -->
<g id="edge19" class="edge"><title>Node12&#45;&gt;Node10</title>
<path fill="none" stroke="#404040" d="M559.888,-259.389C502.416,-225.475 413.007,-172.716 351.42,-136.374"/>
<polygon fill="none" stroke="#404040" points="351.357,-136.337 344.157,-136.732 341.022,-130.238 348.222,-129.843 351.357,-136.337"/>
<text text-anchor="middle" x="506.5" y="-211" font-family="Helvetica,sans-Serif" font-size="10.00"> &#45;player</text>
</g>
<!-- Node13&#45;&gt;Node12 -->
<g id="edge21" class="edge"><title>Node13&#45;&gt;Node12</title>
<path fill="none" stroke="#404040" d="M772.629,-671.323C774.655,-601.32 769.756,-463.108 709,-368 701.716,-356.598 692.041,-346.206 681.681,-337.055"/>
<polygon fill="none" stroke="#404040" points="681.655,-337.033 674.485,-336.256 672.445,-329.34 679.614,-330.116 681.655,-337.033"/>
<text text-anchor="middle" x="783.5" y="-500.5" font-family="Helvetica,sans-Serif" font-size="10.00"> &#45;item</text>
</g>
</g>
</svg>
        <g id="navigator" transform="translate(0 0)" fill="#404254">
                <rect fill="#f2f5e9" fill-opacity="0.5" stroke="#606060" stroke-width=".5" x="0" y="0" width="60" height="60"/>
                <use id="zoomplus" xlink:href="#zoomPlus" x="17" y="9" onmousedown="handleZoom(evt,'in')"/>
                <use id="zoomminus" xlink:href="#zoomMin" x="42" y="9" onmousedown="handleZoom(evt,'out')"/>
                <use id="reset" xlink:href="#resetDef" x="30" y="36" onmousedown="handleReset()"/>
                <g id="arrowUp" xlink:href="#dirArrow" transform="translate(30 24)" onmousedown="handlePan(0,-1)">
                  <use xlink:href="#rim" fill="#404040">
                        <set attributeName="fill" to="#808080" begin="arrowUp.mouseover" end="arrowUp.mouseout"/>
                  </use>
                  <path fill="none" stroke="white" stroke-width="1.5" d="M0,-3.0v7 M-2.5,-0.5L0,-3.0L2.5,-0.5"/>
                </g>
                <g id="arrowRight" xlink:href="#dirArrow" transform="rotate(90) translate(36 -43)" onmousedown="handlePan(1,0)">
                  <use xlink:href="#rim" fill="#404040">
                        <set attributeName="fill" to="#808080" begin="arrowRight.mouseover" end="arrowRight.mouseout"/>
                  </use>
                  <path fill="none" stroke="white" stroke-width="1.5" d="M0,-3.0v7 M-2.5,-0.5L0,-3.0L2.5,-0.5"/>
                </g>
                <g id="arrowDown" xlink:href="#dirArrow" transform="rotate(180) translate(-30 -48)" onmousedown="handlePan(0,1)">
                  <use xlink:href="#rim" fill="#404040">
                        <set attributeName="fill" to="#808080" begin="arrowDown.mouseover" end="arrowDown.mouseout"/>
                  </use>
                  <path fill="none" stroke="white" stroke-width="1.5" d="M0,-3.0v7 M-2.5,-0.5L0,-3.0L2.5,-0.5"/>
                </g>
                <g id="arrowLeft" xlink:href="#dirArrow" transform="rotate(270) translate(-36 17)" onmousedown="handlePan(-1,0)">
                  <use xlink:href="#rim" fill="#404040">
                        <set attributeName="fill" to="#808080" begin="arrowLeft.mouseover" end="arrowLeft.mouseout"/>
                  </use>
                  <path fill="none" stroke="white" stroke-width="1.5" d="M0,-3.0v7 M-2.5,-0.5L0,-3.0L2.5,-0.5"/>
                </g>
        </g>
        <svg viewBox="0 0 15 15" width="100%" height="30px" preserveAspectRatio="xMaxYMin meet">
         <g id="arrow_out" transform="scale(0.3 0.3)">
          <a xlink:href="class_switch_players__coll__graph_org.svg" target="_base">
           <rect id="button" ry="5" rx="5" y="6" x="6" height="38" width="38"
                fill="#f2f5e9" fill-opacity="0.5" stroke="#606060" stroke-width="1.0"/>
           <path id="arrow"
             d="M 11.500037,31.436501 C 11.940474,20.09759 22.043105,11.32322 32.158766,21.979434 L 37.068811,17.246167 C 37.068811,17.246167 37.088388,32 37.088388,32 L 22.160133,31.978069 C 22.160133,31.978069 26.997745,27.140456 26.997745,27.140456 C 18.528582,18.264221 13.291696,25.230495 11.500037,31.436501 z"
             style="fill:#404040;"/>
          </a>
         </g>
        </svg>
</svg>
