<?xml version="1.0" encoding="UTF-8" standalone="no"?>
<!DOCTYPE svg PUBLIC "-//W3C//DTD SVG 1.1//EN"
 "http://www.w3.org/Graphics/SVG/1.1/DTD/svg11.dtd">
<!-- Generated by graphviz version 2.38.0 (20140413.2041)
 -->
<!-- Title: BattleMoveArgs Pages: 1 -->
<!--zoomable 1007 -->
<svg id="main" version="1.1" xmlns="http://www.w3.org/2000/svg" xmlns:xlink="http://www.w3.org/1999/xlink" xml:space="preserve" onload="init(evt)">
<style type="text/css"><![CDATA[
.edge:hover path { stroke: red; }
.edge:hover polygon { stroke: red; fill: red; }
]]></style>
<script type="text/javascript"><![CDATA[
var edges = document.getElementsByTagName('g');
if (edges && edges.length) {
  for (var i=0;i<edges.length;i++) {
    if (edges[i].id.substr(0,4)=='edge') {
      edges[i].setAttribute('class','edge');
    }
  }
}
]]></script>
        <defs>
                <circle id="rim" cx="0" cy="0" r="7"/>
                <circle id="rim2" cx="0" cy="0" r="3.5"/>
                <g id="zoomPlus">
                        <use xlink:href="#rim" fill="#404040">
                                <set attributeName="fill" to="#808080" begin="zoomplus.mouseover" end="zoomplus.mouseout"/>
                        </use>
                        <path d="M-4,0h8M0,-4v8" fill="none" stroke="white" stroke-width="1.5" pointer-events="none"/>
                </g>
                <g id="zoomMin">
                        <use xlink:href="#rim" fill="#404040">
                                <set attributeName="fill" to="#808080" begin="zoomminus.mouseover" end="zoomminus.mouseout"/>
                        </use>
                        <path d="M-4,0h8" fill="none" stroke="white" stroke-width="1.5" pointer-events="none"/>
                </g>
                <g id="dirArrow">
                        <path fill="none" stroke="white" stroke-width="1.5" d="M0,-3.0v7 M-2.5,-0.5L0,-3.0L2.5,-0.5"/>
                </g>
               <g id="resetDef">
                       <use xlink:href="#rim2" fill="#404040">
                               <set attributeName="fill" to="#808080" begin="reset.mouseover" end="reset.mouseout"/>
                       </use>
               </g>
        </defs>

<script type="text/javascript">
var viewWidth = 1179;
var viewHeight = 1007;
var sectionId = 'dynsection-1';
</script>
<script xlink:href="svgpan.js"/>
<svg id="graph" class="graph">
<g id="viewport">
<title>BattleMoveArgs</title>
<!-- Node3 -->
<g id="node1" class="node"><title>Node3</title>
<polygon fill="#bfbfbf" stroke="black" points="162.5,-678 162.5,-735 262.5,-735 262.5,-678 162.5,-678"/>
<text text-anchor="middle" x="212.5" y="-723" font-family="Helvetica,sans-Serif" font-size="10.00">BattleMoveArgs</text>
<polyline fill="none" stroke="black" points="162.5,-716 262.5,-716 "/>
<text text-anchor="middle" x="212.5" y="-704" font-family="Helvetica,sans-Serif" font-size="10.00"> </text>
<polyline fill="none" stroke="black" points="162.5,-697 262.5,-697 "/>
<text text-anchor="start" x="170.5" y="-685" font-family="Helvetica,sans-Serif" font-size="10.00">+ BattleMoveArgs()</text>
</g>
<!-- Node4 -->
<g id="node2" class="node"><title>Node4</title>
<g id="a_node2"><a xlink:href="class_game_event_args.html" target="_top" xlink:title="Base class for passing arguments with game events ">
<polygon fill="none" stroke="black" points="0,-825.5 0,-882.5 87,-882.5 87,-825.5 0,-825.5"/>
<text text-anchor="middle" x="43.5" y="-870.5" font-family="Helvetica,sans-Serif" font-size="10.00">GameEventArgs</text>
<polyline fill="none" stroke="black" points="0,-863.5 87,-863.5 "/>
<text text-anchor="middle" x="43.5" y="-851.5" font-family="Helvetica,sans-Serif" font-size="10.00"> </text>
<polyline fill="none" stroke="black" points="0,-844.5 87,-844.5 "/>
<text text-anchor="middle" x="43.5" y="-832.5" font-family="Helvetica,sans-Serif" font-size="10.00"> </text>
</a>
</g>
</g>
<!-- Node4&#45;&gt;Node3 -->
<g id="edge1" class="edge"><title>Node4&#45;&gt;Node3</title>
<path fill="none" stroke="midnightblue" d="M83.3639,-818.679C112.983,-793.179 152.865,-758.842 180.434,-735.107"/>
<polygon fill="none" stroke="midnightblue" points="80.9801,-816.113 75.6854,-825.29 85.5473,-821.418 80.9801,-816.113"/>
</g>
<!-- Node4&#45;&gt;Node4 -->
<g id="edge3" class="edge"><title>Node4&#45;&gt;Node4</title>
<path fill="none" stroke="#404040" d="M87.1694,-865.395C97.4301,-864.459 105,-860.66 105,-854 105,-850.358 102.736,-847.571 99.0062,-845.641"/>
<polygon fill="none" stroke="#404040" points="98.7931,-845.586 91.9875,-847.97 87.1694,-842.605 93.975,-840.221 98.7931,-845.586"/>
<text text-anchor="middle" x="124" y="-851.5" font-family="Helvetica,sans-Serif" font-size="10.00"> +Empty</text>
</g>
<!-- Node5 -->
<g id="node3" class="node"><title>Node5</title>
<g id="a_node3"><a xlink:href="class_event_args.html" target="_top" xlink:title="{EventArgs\n||}">
<polygon fill="none" stroke="black" points="13,-941.5 13,-998.5 74,-998.5 74,-941.5 13,-941.5"/>
<text text-anchor="middle" x="43.5" y="-986.5" font-family="Helvetica,sans-Serif" font-size="10.00">EventArgs</text>
<polyline fill="none" stroke="black" points="13,-979.5 74,-979.5 "/>
<text text-anchor="middle" x="43.5" y="-967.5" font-family="Helvetica,sans-Serif" font-size="10.00"> </text>
<polyline fill="none" stroke="black" points="13,-960.5 74,-960.5 "/>
<text text-anchor="middle" x="43.5" y="-948.5" font-family="Helvetica,sans-Serif" font-size="10.00"> </text>
</a>
</g>
</g>
<!-- Node5&#45;&gt;Node4 -->
<g id="edge2" class="edge"><title>Node5&#45;&gt;Node4</title>
<path fill="none" stroke="midnightblue" d="M43.5,-931.364C43.5,-915.496 43.5,-897.355 43.5,-882.737"/>
<polygon fill="none" stroke="midnightblue" points="40.0001,-931.404 43.5,-941.404 47.0001,-931.404 40.0001,-931.404"/>
</g>
<!-- Node6 -->
<g id="node4" class="node"><title>Node6</title>
<polygon fill="none" stroke="#bfbfbf" points="565,-941.5 565,-998.5 606,-998.5 606,-941.5 565,-941.5"/>
<text text-anchor="middle" x="585.5" y="-986.5" font-family="Helvetica,sans-Serif" font-size="10.00">string</text>
<polyline fill="none" stroke="#bfbfbf" points="565,-979.5 606,-979.5 "/>
<text text-anchor="middle" x="585.5" y="-967.5" font-family="Helvetica,sans-Serif" font-size="10.00"> </text>
<polyline fill="none" stroke="#bfbfbf" points="565,-960.5 606,-960.5 "/>
<text text-anchor="middle" x="585.5" y="-948.5" font-family="Helvetica,sans-Serif" font-size="10.00"> </text>
</g>
<!-- Node6&#45;&gt;Node3 -->
<g id="edge4" class="edge"><title>Node6&#45;&gt;Node3</title>
<path fill="none" stroke="#404040" d="M564.594,-967.523C495.408,-962.212 275.491,-941.801 226.5,-894 188.109,-856.541 193.435,-789.768 202.044,-747.111"/>
<polygon fill="none" stroke="#404040" points="202.078,-746.956 199.457,-740.238 204.65,-735.234 207.271,-741.952 202.078,-746.956"/>
<text text-anchor="middle" x="248" y="-851.5" font-family="Helvetica,sans-Serif" font-size="10.00"> +location</text>
</g>
<!-- Node7 -->
<g id="node5" class="node"><title>Node7</title>
<g id="a_node5"><a xlink:href="class_character_move.html" target="_top" xlink:title="Astract base class for character moves ">
<polygon fill="none" stroke="black" points="408.5,-814.5 408.5,-893.5 494.5,-893.5 494.5,-814.5 408.5,-814.5"/>
<text text-anchor="middle" x="451.5" y="-881.5" font-family="Helvetica,sans-Serif" font-size="10.00">CharacterMove</text>
<polyline fill="none" stroke="black" points="408.5,-874.5 494.5,-874.5 "/>
<text text-anchor="start" x="416.5" y="-862.5" font-family="Helvetica,sans-Serif" font-size="10.00">+ User</text>
<text text-anchor="start" x="416.5" y="-851.5" font-family="Helvetica,sans-Serif" font-size="10.00">+ Target</text>
<text text-anchor="start" x="416.5" y="-840.5" font-family="Helvetica,sans-Serif" font-size="10.00">+ Text</text>
<polyline fill="none" stroke="black" points="408.5,-833.5 494.5,-833.5 "/>
<text text-anchor="start" x="416.5" y="-821.5" font-family="Helvetica,sans-Serif" font-size="10.00">+ performMove()</text>
</a>
</g>
</g>
<!-- Node6&#45;&gt;Node7 -->
<g id="edge6" class="edge"><title>Node6&#45;&gt;Node7</title>
<path fill="none" stroke="#404040" d="M564.658,-964.217C542.116,-958.092 506.347,-945.481 483.5,-923 478.068,-917.655 473.449,-911.21 469.555,-904.444"/>
<polygon fill="none" stroke="#404040" points="469.499,-904.336 463.201,-900.825 464.019,-893.661 470.318,-897.172 469.499,-904.336"/>
<text text-anchor="middle" x="496" y="-915" font-family="Helvetica,sans-Serif" font-size="10.00"> #text</text>
</g>
<!-- Node8 -->
<g id="node6" class="node"><title>Node8</title>
<g id="a_node6"><a xlink:href="class_character.html" target="_top" xlink:title="Base abstract class for Enemy and Player to inherit from. Defines all shared variables, their constructor and their setters and getters ">
<polygon fill="none" stroke="black" points="608,-387.5 608,-598.5 703,-598.5 703,-387.5 608,-387.5"/>
<text text-anchor="middle" x="655.5" y="-586.5" font-family="Helvetica,sans-Serif" font-size="10.00">Character</text>
<polyline fill="none" stroke="black" points="608,-579.5 703,-579.5 "/>
<text text-anchor="start" x="616" y="-567.5" font-family="Helvetica,sans-Serif" font-size="10.00">+ Name</text>
<text text-anchor="start" x="616" y="-556.5" font-family="Helvetica,sans-Serif" font-size="10.00">+ Level</text>
<text text-anchor="start" x="616" y="-545.5" font-family="Helvetica,sans-Serif" font-size="10.00">+ Health</text>
<text text-anchor="start" x="616" y="-534.5" font-family="Helvetica,sans-Serif" font-size="10.00">+ Attack</text>
<text text-anchor="start" x="616" y="-523.5" font-family="Helvetica,sans-Serif" font-size="10.00">+ Defence</text>
<text text-anchor="start" x="616" y="-512.5" font-family="Helvetica,sans-Serif" font-size="10.00">+ MaximumMagic</text>
<text text-anchor="start" x="616" y="-501.5" font-family="Helvetica,sans-Serif" font-size="10.00">+ Magic</text>
<text text-anchor="start" x="616" y="-490.5" font-family="Helvetica,sans-Serif" font-size="10.00">+ Luck</text>
<text text-anchor="start" x="616" y="-479.5" font-family="Helvetica,sans-Serif" font-size="10.00">+ Speed</text>
<text text-anchor="start" x="616" y="-468.5" font-family="Helvetica,sans-Serif" font-size="10.00">+ Rage</text>
<text text-anchor="start" x="616" y="-457.5" font-family="Helvetica,sans-Serif" font-size="10.00">+ CanRage</text>
<text text-anchor="start" x="616" y="-446.5" font-family="Helvetica,sans-Serif" font-size="10.00">+ Special1</text>
<text text-anchor="start" x="616" y="-435.5" font-family="Helvetica,sans-Serif" font-size="10.00">+ Special2</text>
<text text-anchor="start" x="616" y="-424.5" font-family="Helvetica,sans-Serif" font-size="10.00">+ Image</text>
<polyline fill="none" stroke="black" points="608,-417.5 703,-417.5 "/>
<text text-anchor="start" x="616" y="-405.5" font-family="Helvetica,sans-Serif" font-size="10.00">+ IsEnraged()</text>
<text text-anchor="start" x="616" y="-394.5" font-family="Helvetica,sans-Serif" font-size="10.00"># Character()</text>
</a>
</g>
</g>
<!-- Node6&#45;&gt;Node8 -->
<g id="edge8" class="edge"><title>Node6&#45;&gt;Node8</title>
<path fill="none" stroke="#404040" d="M568.116,-941.492C546.669,-904.533 513.696,-836.276 519.5,-774 524.41,-721.317 520.989,-705.774 541.5,-657 556.11,-622.26 578.98,-587.517 600.414,-559.087"/>
<polygon fill="none" stroke="#404040" points="600.615,-558.826 601.094,-551.63 607.919,-549.305 607.441,-556.5 600.615,-558.826"/>
<text text-anchor="middle" x="536" y="-782.5" font-family="Helvetica,sans-Serif" font-size="10.00"> #name</text>
</g>
<!-- Node11 -->
<g id="node9" class="node"><title>Node11</title>
<g id="a_node9"><a xlink:href="class_special_move.html" target="_top" xlink:title="Special move abstract base class that expands upon CharacterMove, adding magic properties ...">
<polygon fill="none" stroke="black" points="550.5,-661.5 550.5,-751.5 648.5,-751.5 648.5,-661.5 550.5,-661.5"/>
<text text-anchor="middle" x="599.5" y="-739.5" font-family="Helvetica,sans-Serif" font-size="10.00">SpecialMove</text>
<polyline fill="none" stroke="black" points="550.5,-732.5 648.5,-732.5 "/>
<text text-anchor="start" x="558.5" y="-720.5" font-family="Helvetica,sans-Serif" font-size="10.00">+ Magic</text>
<text text-anchor="start" x="558.5" y="-709.5" font-family="Helvetica,sans-Serif" font-size="10.00">+ Desc</text>
<polyline fill="none" stroke="black" points="550.5,-702.5 648.5,-702.5 "/>
<text text-anchor="start" x="558.5" y="-690.5" font-family="Helvetica,sans-Serif" font-size="10.00">+ setUp()</text>
<text text-anchor="start" x="558.5" y="-679.5" font-family="Helvetica,sans-Serif" font-size="10.00">+ decreaseMagic()</text>
<text text-anchor="start" x="558.5" y="-668.5" font-family="Helvetica,sans-Serif" font-size="10.00"># SpecialMove()</text>
</a>
</g>
</g>
<!-- Node6&#45;&gt;Node11 -->
<g id="edge13" class="edge"><title>Node6&#45;&gt;Node11</title>
<path fill="none" stroke="#404040" d="M601.182,-941.246C620.55,-903.444 649.237,-833.642 634.5,-774 633.606,-770.38 632.475,-766.74 631.171,-763.129"/>
<polygon fill="none" stroke="#404040" points="631.059,-762.856 625.079,-758.826 626.499,-751.756 632.479,-755.786 631.059,-762.856"/>
<text text-anchor="middle" x="653.5" y="-851.5" font-family="Helvetica,sans-Serif" font-size="10.00"> #desc</text>
</g>
<!-- Node13 -->
<g id="node11" class="node"><title>Node13</title>
<g id="a_node11"><a xlink:href="class_battle_manager.html" target="_top" xlink:title="Holds current Player and Enemy objects in battle and provides functions for MainBattle and other obje...">
<polygon fill="none" stroke="black" points="803.5,-0.5 803.5,-189.5 919.5,-189.5 919.5,-0.5 803.5,-0.5"/>
<text text-anchor="middle" x="861.5" y="-177.5" font-family="Helvetica,sans-Serif" font-size="10.00">BattleManager</text>
<polyline fill="none" stroke="black" points="803.5,-170.5 919.5,-170.5 "/>
<text text-anchor="start" x="811.5" y="-158.5" font-family="Helvetica,sans-Serif" font-size="10.00">+ Player</text>
<text text-anchor="start" x="811.5" y="-147.5" font-family="Helvetica,sans-Serif" font-size="10.00">+ Enemy</text>
<text text-anchor="start" x="811.5" y="-136.5" font-family="Helvetica,sans-Serif" font-size="10.00">+ WasCriticalHit</text>
<polyline fill="none" stroke="black" points="803.5,-129.5 919.5,-129.5 "/>
<text text-anchor="start" x="811.5" y="-117.5" font-family="Helvetica,sans-Serif" font-size="10.00">+ BattleManager()</text>
<text text-anchor="start" x="811.5" y="-106.5" font-family="Helvetica,sans-Serif" font-size="10.00">+ playerFirst()</text>
<text text-anchor="start" x="811.5" y="-95.5" font-family="Helvetica,sans-Serif" font-size="10.00">+ switchPlayers()</text>
<text text-anchor="start" x="811.5" y="-84.5" font-family="Helvetica,sans-Serif" font-size="10.00">+ isCriticalHit()</text>
<text text-anchor="start" x="811.5" y="-73.5" font-family="Helvetica,sans-Serif" font-size="10.00">+ ranAway()</text>
<text text-anchor="start" x="811.5" y="-62.5" font-family="Helvetica,sans-Serif" font-size="10.00">+ damageCalculation()</text>
<text text-anchor="start" x="811.5" y="-51.5" font-family="Helvetica,sans-Serif" font-size="10.00">+ enemyMove()</text>
<text text-anchor="start" x="811.5" y="-40.5" font-family="Helvetica,sans-Serif" font-size="10.00">+ enemySpecialMove()</text>
<text text-anchor="start" x="811.5" y="-29.5" font-family="Helvetica,sans-Serif" font-size="10.00">+ battleWon()</text>
<text text-anchor="start" x="811.5" y="-18.5" font-family="Helvetica,sans-Serif" font-size="10.00">+ playerFainted()</text>
<text text-anchor="start" x="811.5" y="-7.5" font-family="Helvetica,sans-Serif" font-size="10.00">&#45; characterFainted()</text>
</a>
</g>
</g>
<!-- Node6&#45;&gt;Node13 -->
<g id="edge17" class="edge"><title>Node6&#45;&gt;Node13</title>
<path fill="none" stroke="#404040" d="M606.074,-968.8C700.349,-967.34 1086.5,-955.241 1086.5,-855 1086.5,-855 1086.5,-855 1086.5,-292.5 1086.5,-208.788 997.051,-152.521 930.951,-122.37"/>
<polygon fill="none" stroke="#404040" points="930.706,-122.261 923.6,-123.487 919.736,-117.399 926.842,-116.173 930.706,-122.261"/>
<text text-anchor="middle" x="1128.5" y="-631" font-family="Helvetica,sans-Serif" font-size="10.00"> +forceEnemyMove</text>
<text text-anchor="middle" x="1128.5" y="-620" font-family="Helvetica,sans-Serif" font-size="10.00">+forceCriticalHits</text>
</g>
<!-- Node16 -->
<g id="node14" class="node"><title>Node16</title>
<g id="a_node14"><a xlink:href="class_item.html" target="_top" xlink:title="Abstract class for items that can be equipped to a player, increasing some of their stats ...">
<polygon fill="none" stroke="black" points="981,-661.5 981,-751.5 1058,-751.5 1058,-661.5 981,-661.5"/>
<text text-anchor="middle" x="1019.5" y="-739.5" font-family="Helvetica,sans-Serif" font-size="10.00">Item</text>
<polyline fill="none" stroke="black" points="981,-732.5 1058,-732.5 "/>
<text text-anchor="start" x="989" y="-720.5" font-family="Helvetica,sans-Serif" font-size="10.00">+ Name</text>
<text text-anchor="start" x="989" y="-709.5" font-family="Helvetica,sans-Serif" font-size="10.00">+ Desc</text>
<text text-anchor="start" x="989" y="-698.5" font-family="Helvetica,sans-Serif" font-size="10.00">+ Cost</text>
<polyline fill="none" stroke="black" points="981,-691.5 1058,-691.5 "/>
<text text-anchor="start" x="989" y="-679.5" font-family="Helvetica,sans-Serif" font-size="10.00">+ applyBuffs()</text>
<text text-anchor="start" x="989" y="-668.5" font-family="Helvetica,sans-Serif" font-size="10.00">+ revertBuffs()</text>
</a>
</g>
</g>
<!-- Node6&#45;&gt;Node16 -->
<g id="edge26" class="edge"><title>Node6&#45;&gt;Node16</title>
<path fill="none" stroke="#404040" d="M606.26,-967.215C657.263,-962.144 791.739,-944.595 890.5,-894 950.266,-863.382 972.661,-854.575 1005.5,-796 1010.97,-786.235 1014.48,-774.966 1016.68,-763.81"/>
<polygon fill="none" stroke="#404040" points="1016.71,-763.675 1013.71,-757.118 1018.6,-751.826 1021.6,-758.383 1016.71,-763.675"/>
<text text-anchor="middle" x="1009.5" y="-857" font-family="Helvetica,sans-Serif" font-size="10.00"> #desc</text>
<text text-anchor="middle" x="1009.5" y="-846" font-family="Helvetica,sans-Serif" font-size="10.00">#name</text>
</g>
<!-- Node7&#45;&gt;Node3 -->
<g id="edge5" class="edge"><title>Node7&#45;&gt;Node3</title>
<path fill="none" stroke="#404040" d="M408.496,-826.819C369.262,-802.935 311.05,-767.496 268.257,-741.444"/>
<polygon fill="none" stroke="#404040" points="268.256,-741.443 261.051,-741.74 258.006,-735.203 265.211,-734.907 268.256,-741.443"/>
<text text-anchor="middle" x="369.5" y="-782.5" font-family="Helvetica,sans-Serif" font-size="10.00"> +move</text>
</g>
<!-- Node7&#45;&gt;Node11 -->
<g id="edge12" class="edge"><title>Node7&#45;&gt;Node11</title>
<path fill="none" stroke="midnightblue" d="M477.174,-805.423C484.258,-794.455 492.5,-783.292 501.5,-774 515.733,-759.305 533.707,-745.987 550.363,-735.196"/>
<polygon fill="none" stroke="midnightblue" points="474.063,-803.799 471.749,-814.138 480.005,-807.498 474.063,-803.799"/>
</g>
<!-- Node8&#45;&gt;Node7 -->
<g id="edge7" class="edge"><title>Node8&#45;&gt;Node7</title>
<path fill="none" stroke="#404040" d="M607.96,-520.44C563.868,-548.008 501.173,-595.74 474.5,-657 454.296,-703.403 449.75,-761.514 449.52,-802.372"/>
<polygon fill="none" stroke="#404040" points="449.52,-802.466 453.547,-808.448 449.574,-814.466 445.547,-808.484 449.52,-802.466"/>
<text text-anchor="middle" x="491.5" y="-709.5" font-family="Helvetica,sans-Serif" font-size="10.00"> #target</text>
<text text-anchor="middle" x="491.5" y="-698.5" font-family="Helvetica,sans-Serif" font-size="10.00">#user</text>
</g>
<!-- Node14 -->
<g id="node12" class="node"><title>Node14</title>
<g id="a_node12"><a xlink:href="class_enemy.html" target="_top" xlink:title="Defines an AI controller enemy to fight in battle scenes">
<polygon fill="none" stroke="black" points="795,-265 795,-322 862,-322 862,-265 795,-265"/>
<text text-anchor="middle" x="828.5" y="-310" font-family="Helvetica,sans-Serif" font-size="10.00">Enemy</text>
<polyline fill="none" stroke="black" points="795,-303 862,-303 "/>
<text text-anchor="start" x="803" y="-291" font-family="Helvetica,sans-Serif" font-size="10.00">+ ExpGiven</text>
<polyline fill="none" stroke="black" points="795,-284 862,-284 "/>
<text text-anchor="start" x="803" y="-272" font-family="Helvetica,sans-Serif" font-size="10.00">+ Enemy()</text>
</a>
</g>
</g>
<!-- Node8&#45;&gt;Node14 -->
<g id="edge19" class="edge"><title>Node8&#45;&gt;Node14</title>
<path fill="none" stroke="midnightblue" d="M708.994,-402.494C717.606,-390.438 726.875,-378.591 736.5,-368 753.825,-348.938 776.382,-330.834 794.825,-317.364"/>
<polygon fill="none" stroke="midnightblue" points="706.005,-400.66 703.14,-410.861 711.741,-404.673 706.005,-400.66"/>
</g>
<!-- Node15 -->
<g id="node13" class="node"><title>Node15</title>
<g id="a_node13"><a xlink:href="class_player.html" target="_top" xlink:title="Defines a playable character for use in battle scenes">
<polygon fill="none" stroke="black" points="918.5,-237.5 918.5,-349.5 1030.5,-349.5 1030.5,-237.5 918.5,-237.5"/>
<text text-anchor="middle" x="974.5" y="-337.5" font-family="Helvetica,sans-Serif" font-size="10.00">Player</text>
<polyline fill="none" stroke="black" points="918.5,-330.5 1030.5,-330.5 "/>
<text text-anchor="start" x="926.5" y="-318.5" font-family="Helvetica,sans-Serif" font-size="10.00">+ Exp</text>
<text text-anchor="start" x="926.5" y="-307.5" font-family="Helvetica,sans-Serif" font-size="10.00">+ Item</text>
<text text-anchor="start" x="926.5" y="-296.5" font-family="Helvetica,sans-Serif" font-size="10.00">+ ExpToNextLevel</text>
<polyline fill="none" stroke="black" points="918.5,-289.5 1030.5,-289.5 "/>
<text text-anchor="start" x="926.5" y="-277.5" font-family="Helvetica,sans-Serif" font-size="10.00">+ Player()</text>
<text text-anchor="start" x="926.5" y="-266.5" font-family="Helvetica,sans-Serif" font-size="10.00">+ gainExp()</text>
<text text-anchor="start" x="926.5" y="-255.5" font-family="Helvetica,sans-Serif" font-size="10.00">+ levelUp()</text>
<text text-anchor="start" x="926.5" y="-244.5" font-family="Helvetica,sans-Serif" font-size="10.00">&#45; setExpToNextLevel()</text>
</a>
</g>
</g>
<!-- Node8&#45;&gt;Node15 -->
<g id="edge24" class="edge"><title>Node8&#45;&gt;Node15</title>
<path fill="none" stroke="midnightblue" d="M711.955,-457.047C770.129,-421.031 860.278,-365.217 918.342,-329.269"/>
<polygon fill="none" stroke="midnightblue" points="709.917,-454.192 703.258,-462.432 713.602,-460.144 709.917,-454.192"/>
</g>
<!-- Node9 -->
<g id="node7" class="node"><title>Node9</title>
<polygon fill="none" stroke="#bfbfbf" points="853,-825.5 853,-882.5 882,-882.5 882,-825.5 853,-825.5"/>
<text text-anchor="middle" x="867.5" y="-870.5" font-family="Helvetica,sans-Serif" font-size="10.00">int</text>
<polyline fill="none" stroke="#bfbfbf" points="853,-863.5 882,-863.5 "/>
<text text-anchor="middle" x="867.5" y="-851.5" font-family="Helvetica,sans-Serif" font-size="10.00"> </text>
<polyline fill="none" stroke="#bfbfbf" points="853,-844.5 882,-844.5 "/>
<text text-anchor="middle" x="867.5" y="-832.5" font-family="Helvetica,sans-Serif" font-size="10.00"> </text>
</g>
<!-- Node9&#45;&gt;Node3 -->
<g id="edge29" class="edge"><title>Node9&#45;&gt;Node3</title>
<path fill="none" stroke="#404040" d="M852.742,-850.067C814.448,-842.35 708.867,-820.384 622.5,-796 592.743,-787.599 586.813,-780.096 556.5,-774 452.068,-752.998 420.607,-782.761 317.5,-756 302.854,-752.199 287.732,-746.433 273.684,-740.189"/>
<polygon fill="none" stroke="#404040" points="273.572,-740.137 266.448,-741.253 262.678,-735.107 269.802,-733.99 273.572,-740.137"/>
<text text-anchor="middle" x="650" y="-788" font-family="Helvetica,sans-Serif" font-size="10.00"> &#45;magicUsed</text>
<text text-anchor="middle" x="650" y="-777" font-family="Helvetica,sans-Serif" font-size="10.00">+damage</text>
</g>
<!-- Node9&#45;&gt;Node8 -->
<g id="edge9" class="edge"><title>Node9&#45;&gt;Node8</title>
<path fill="none" stroke="#404040" d="M852.785,-840.192C833.525,-822.777 799.732,-789.895 778.5,-756 743.232,-699.696 751.853,-677.084 723.5,-617 718.912,-607.277 713.889,-597.257 708.716,-587.33"/>
<polygon fill="none" stroke="#404040" points="708.661,-587.226 702.322,-583.788 703.058,-576.614 709.397,-580.052 708.661,-587.226"/>
<text text-anchor="middle" x="816" y="-748" font-family="Helvetica,sans-Serif" font-size="10.00"> #speed</text>
<text text-anchor="middle" x="816" y="-737" font-family="Helvetica,sans-Serif" font-size="10.00">#luck</text>
<text text-anchor="middle" x="816" y="-726" font-family="Helvetica,sans-Serif" font-size="10.00">#health</text>
<text text-anchor="middle" x="816" y="-715" font-family="Helvetica,sans-Serif" font-size="10.00">#magic</text>
<text text-anchor="middle" x="816" y="-704" font-family="Helvetica,sans-Serif" font-size="10.00">#maximumMagic</text>
<text text-anchor="middle" x="816" y="-693" font-family="Helvetica,sans-Serif" font-size="10.00">#attack</text>
<text text-anchor="middle" x="816" y="-682" font-family="Helvetica,sans-Serif" font-size="10.00">#defence</text>
<text text-anchor="middle" x="816" y="-671" font-family="Helvetica,sans-Serif" font-size="10.00">#level</text>
<text text-anchor="middle" x="816" y="-660" font-family="Helvetica,sans-Serif" font-size="10.00">#rage</text>
</g>
<!-- Node9&#45;&gt;Node11 -->
<g id="edge14" class="edge"><title>Node9&#45;&gt;Node11</title>
<path fill="none" stroke="#404040" d="M852.744,-848.79C824.983,-840.587 763.466,-821.048 715.5,-796 690.671,-783.034 683.798,-776.423 658.417,-756.663"/>
<polygon fill="none" stroke="#404040" points="658.108,-756.424 650.914,-755.925 648.608,-749.093 655.802,-749.592 658.108,-756.424"/>
<text text-anchor="middle" x="733" y="-782.5" font-family="Helvetica,sans-Serif" font-size="10.00"> #magic</text>
</g>
<!-- Node9&#45;&gt;Node13 -->
<g id="edge21" class="edge"><title>Node9&#45;&gt;Node13</title>
<path fill="none" stroke="#404040" d="M875.951,-825.405C878.467,-816.143 880.961,-805.702 882.5,-796 893.448,-726.97 889.499,-708.864 891.5,-639 896.987,-447.407 892.753,-398.981 876.5,-208 876.326,-205.951 876.14,-203.881 875.945,-201.797"/>
<polygon fill="none" stroke="#404040" points="875.933,-201.671 871.352,-196.102 874.731,-189.732 879.312,-195.301 875.933,-201.671"/>
<text text-anchor="middle" x="914" y="-490.5" font-family="Helvetica,sans-Serif" font-size="10.00"> +money</text>
</g>
<!-- Node9&#45;&gt;Node14 -->
<g id="edge20" class="edge"><title>Node9&#45;&gt;Node14</title>
<path fill="none" stroke="#404040" d="M868.504,-825.261C869.224,-786.853 868.132,-715.583 853.5,-657 851.379,-648.506 847.528,-647.516 845.5,-639 819.817,-531.141 822.392,-399.091 825.785,-334.265"/>
<polygon fill="none" stroke="#404040" points="825.788,-334.204 822.133,-327.988 826.466,-322.223 830.12,-328.44 825.788,-334.204"/>
<text text-anchor="middle" x="868.5" y="-625.5" font-family="Helvetica,sans-Serif" font-size="10.00"> &#45;expGiven</text>
</g>
<!-- Node9&#45;&gt;Node15 -->
<g id="edge28" class="edge"><title>Node9&#45;&gt;Node15</title>
<path fill="none" stroke="#404040" d="M878.37,-825.17C880.677,-821.147 883.379,-817.268 886.5,-814 898.039,-801.918 910.2,-809.879 919.5,-796 921,-793.762 952.715,-498.427 967.289,-362.08"/>
<polygon fill="none" stroke="#404040" points="967.328,-361.721 963.988,-355.33 968.603,-349.789 971.943,-356.18 967.328,-361.721"/>
<text text-anchor="middle" x="978" y="-631" font-family="Helvetica,sans-Serif" font-size="10.00"> &#45;expToNextLevel</text>
<text text-anchor="middle" x="978" y="-620" font-family="Helvetica,sans-Serif" font-size="10.00">&#45;exp</text>
</g>
<!-- Node9&#45;&gt;Node16 -->
<g id="edge27" class="edge"><title>Node9&#45;&gt;Node16</title>
<path fill="none" stroke="#404040" d="M882.173,-845.518C900.434,-835.753 931.959,-817.367 954.5,-796 965.201,-785.857 975.369,-773.764 984.349,-761.826"/>
<polygon fill="none" stroke="#404040" points="984.53,-761.578 984.832,-754.373 991.599,-751.881 991.297,-759.086 984.53,-761.578"/>
<text text-anchor="middle" x="987.5" y="-782.5" font-family="Helvetica,sans-Serif" font-size="10.00"> #cost</text>
</g>
<!-- Node10 -->
<g id="node8" class="node"><title>Node10</title>
<polygon fill="none" stroke="#bfbfbf" points="279,-825.5 279,-882.5 314,-882.5 314,-825.5 279,-825.5"/>
<text text-anchor="middle" x="296.5" y="-870.5" font-family="Helvetica,sans-Serif" font-size="10.00">bool</text>
<polyline fill="none" stroke="#bfbfbf" points="279,-863.5 314,-863.5 "/>
<text text-anchor="middle" x="296.5" y="-851.5" font-family="Helvetica,sans-Serif" font-size="10.00"> </text>
<polyline fill="none" stroke="#bfbfbf" points="279,-844.5 314,-844.5 "/>
<text text-anchor="middle" x="296.5" y="-832.5" font-family="Helvetica,sans-Serif" font-size="10.00"> </text>
</g>
<!-- Node10&#45;&gt;Node3 -->
<g id="edge30" class="edge"><title>Node10&#45;&gt;Node3</title>
<path fill="none" stroke="#404040" d="M278.721,-846.609C258.75,-838.361 227.325,-821.909 213.5,-796 205.68,-781.345 204.286,-763.286 205.286,-747.311"/>
<polygon fill="none" stroke="#404040" points="205.318,-746.991 201.941,-740.619 206.523,-735.051 209.9,-741.423 205.318,-746.991"/>
<text text-anchor="middle" x="248" y="-782.5" font-family="Helvetica,sans-Serif" font-size="10.00"> +wasCriticalHit</text>
</g>
<!-- Node10&#45;&gt;Node8 -->
<g id="edge10" class="edge"><title>Node10&#45;&gt;Node8</title>
<path fill="none" stroke="#404040" d="M306.171,-825.264C321.405,-784.621 354.207,-708.171 401.5,-657 457.561,-596.341 540.893,-548.58 596.652,-520.834"/>
<polygon fill="none" stroke="#404040" points="596.99,-520.668 600.618,-514.435 607.766,-515.386 604.139,-521.619 596.99,-520.668"/>
<text text-anchor="middle" x="425" y="-704" font-family="Helvetica,sans-Serif" font-size="10.00"> #canRage</text>
</g>
<!-- Node10&#45;&gt;Node13 -->
<g id="edge22" class="edge"><title>Node10&#45;&gt;Node13</title>
<path fill="none" stroke="#404040" d="M295.893,-825.414C295.016,-783.139 293.5,-699.784 293.5,-629 293.5,-629 293.5,-629 293.5,-292.5 293.5,-188.239 639.619,-127.014 791.483,-105.168"/>
<polygon fill="none" stroke="#404040" points="791.502,-105.166 796.881,-100.363 803.383,-103.48 798.005,-108.283 791.502,-105.166"/>
<text text-anchor="middle" x="326.5" y="-490.5" font-family="Helvetica,sans-Serif" font-size="10.00"> &#45;wasCriticalHit</text>
</g>
<!-- Node11&#45;&gt;Node8 -->
<g id="edge11" class="edge"><title>Node11&#45;&gt;Node8</title>
<path fill="none" stroke="#404040" d="M611.171,-661.42C615.187,-646.253 619.892,-628.485 624.708,-610.296"/>
<polygon fill="none" stroke="#404040" points="624.727,-610.222 622.396,-603.398 627.799,-598.622 630.13,-605.446 624.727,-610.222"/>
<text text-anchor="middle" x="645" y="-631" font-family="Helvetica,sans-Serif" font-size="10.00"> #special1</text>
<text text-anchor="middle" x="645" y="-620" font-family="Helvetica,sans-Serif" font-size="10.00">#special2</text>
</g>
<!-- Node12 -->
<g id="node10" class="node"><title>Node12</title>
<polygon fill="none" stroke="#bfbfbf" points="667,-678 667,-735 728,-735 728,-678 667,-678"/>
<text text-anchor="middle" x="697.5" y="-723" font-family="Helvetica,sans-Serif" font-size="10.00">Texture2D</text>
<polyline fill="none" stroke="#bfbfbf" points="667,-716 728,-716 "/>
<text text-anchor="middle" x="697.5" y="-704" font-family="Helvetica,sans-Serif" font-size="10.00"> </text>
<polyline fill="none" stroke="#bfbfbf" points="667,-697 728,-697 "/>
<text text-anchor="middle" x="697.5" y="-685" font-family="Helvetica,sans-Serif" font-size="10.00"> </text>
</g>
<!-- Node12&#45;&gt;Node8 -->
<g id="edge15" class="edge"><title>Node12&#45;&gt;Node8</title>
<path fill="none" stroke="#404040" d="M692.009,-677.85C688.496,-660.161 683.676,-635.884 678.688,-610.769"/>
<polygon fill="none" stroke="#404040" points="678.648,-610.567 673.556,-605.461 676.311,-598.796 681.403,-603.902 678.648,-610.567"/>
<text text-anchor="middle" x="702" y="-625.5" font-family="Helvetica,sans-Serif" font-size="10.00"> #image</text>
</g>
<!-- Node13&#45;&gt;Node7 -->
<g id="edge16" class="edge"><title>Node13&#45;&gt;Node7</title>
<path fill="none" stroke="#404040" d="M803.063,-95.8418C681.898,-98.8967 414.5,-124.652 414.5,-292.5 414.5,-629 414.5,-629 414.5,-629 414.5,-689.296 427.712,-757.516 438.346,-802.66"/>
<polygon fill="none" stroke="#404040" points="438.381,-802.805 443.676,-807.701 441.193,-814.471 435.898,-809.576 438.381,-802.805"/>
<text text-anchor="middle" x="437.5" y="-490.5" font-family="Helvetica,sans-Serif" font-size="10.00"> #manager</text>
</g>
<!-- Node14&#45;&gt;Node13 -->
<g id="edge18" class="edge"><title>Node14&#45;&gt;Node13</title>
<path fill="none" stroke="#404040" d="M832.137,-264.67C834.371,-248.169 837.394,-226.86 840.5,-208 840.837,-205.953 841.182,-203.887 841.533,-201.805"/>
<polygon fill="none" stroke="#404040" points="841.572,-201.577 838.646,-194.986 843.605,-189.751 846.531,-196.342 841.572,-201.577"/>
<text text-anchor="middle" x="858.5" y="-211" font-family="Helvetica,sans-Serif" font-size="10.00"> &#45;enemy</text>
</g>
<!-- Node15&#45;&gt;Node13 -->
<g id="edge23" class="edge"><title>Node15&#45;&gt;Node13</title>
<path fill="none" stroke="#404040" d="M942.722,-237.241C936.042,-225.623 928.786,-213.007 921.453,-200.255"/>
<polygon fill="none" stroke="#404040" points="921.268,-199.933 914.809,-196.726 915.286,-189.53 921.745,-192.738 921.268,-199.933"/>
<text text-anchor="middle" x="948" y="-211" font-family="Helvetica,sans-Serif" font-size="10.00"> &#45;player</text>
</g>
<!-- Node16&#45;&gt;Node15 -->
<g id="edge25" class="edge"><title>Node16&#45;&gt;Node15</title>
<path fill="none" stroke="#404040" d="M1020.7,-661.343C1020.77,-647.167 1020.5,-631.408 1019.5,-617 1013.34,-528.256 997.749,-426.759 986.65,-361.718"/>
<polygon fill="none" stroke="#404040" points="986.602,-361.436 981.641,-356.202 984.564,-349.61 989.525,-354.844 986.602,-361.436"/>
<text text-anchor="middle" x="1031" y="-490.5" font-family="Helvetica,sans-Serif" font-size="10.00"> &#45;item</text>
</g>
</g>
</svg>
        <g id="navigator" transform="translate(0 0)" fill="#404254">
                <rect fill="#f2f5e9" fill-opacity="0.5" stroke="#606060" stroke-width=".5" x="0" y="0" width="60" height="60"/>
                <use id="zoomplus" xlink:href="#zoomPlus" x="17" y="9" onmousedown="handleZoom(evt,'in')"/>
                <use id="zoomminus" xlink:href="#zoomMin" x="42" y="9" onmousedown="handleZoom(evt,'out')"/>
                <use id="reset" xlink:href="#resetDef" x="30" y="36" onmousedown="handleReset()"/>
                <g id="arrowUp" xlink:href="#dirArrow" transform="translate(30 24)" onmousedown="handlePan(0,-1)">
                  <use xlink:href="#rim" fill="#404040">
                        <set attributeName="fill" to="#808080" begin="arrowUp.mouseover" end="arrowUp.mouseout"/>
                  </use>
                  <path fill="none" stroke="white" stroke-width="1.5" d="M0,-3.0v7 M-2.5,-0.5L0,-3.0L2.5,-0.5"/>
                </g>
                <g id="arrowRight" xlink:href="#dirArrow" transform="rotate(90) translate(36 -43)" onmousedown="handlePan(1,0)">
                  <use xlink:href="#rim" fill="#404040">
                        <set attributeName="fill" to="#808080" begin="arrowRight.mouseover" end="arrowRight.mouseout"/>
                  </use>
                  <path fill="none" stroke="white" stroke-width="1.5" d="M0,-3.0v7 M-2.5,-0.5L0,-3.0L2.5,-0.5"/>
                </g>
                <g id="arrowDown" xlink:href="#dirArrow" transform="rotate(180) translate(-30 -48)" onmousedown="handlePan(0,1)">
                  <use xlink:href="#rim" fill="#404040">
                        <set attributeName="fill" to="#808080" begin="arrowDown.mouseover" end="arrowDown.mouseout"/>
                  </use>
                  <path fill="none" stroke="white" stroke-width="1.5" d="M0,-3.0v7 M-2.5,-0.5L0,-3.0L2.5,-0.5"/>
                </g>
                <g id="arrowLeft" xlink:href="#dirArrow" transform="rotate(270) translate(-36 17)" onmousedown="handlePan(-1,0)">
                  <use xlink:href="#rim" fill="#404040">
                        <set attributeName="fill" to="#808080" begin="arrowLeft.mouseover" end="arrowLeft.mouseout"/>
                  </use>
                  <path fill="none" stroke="white" stroke-width="1.5" d="M0,-3.0v7 M-2.5,-0.5L0,-3.0L2.5,-0.5"/>
                </g>
        </g>
        <svg viewBox="0 0 15 15" width="100%" height="30px" preserveAspectRatio="xMaxYMin meet">
         <g id="arrow_out" transform="scale(0.3 0.3)">
          <a xlink:href="class_battle_move_args__coll__graph_org.svg" target="_base">
           <rect id="button" ry="5" rx="5" y="6" x="6" height="38" width="38"
                fill="#f2f5e9" fill-opacity="0.5" stroke="#606060" stroke-width="1.0"/>
           <path id="arrow"
             d="M 11.500037,31.436501 C 11.940474,20.09759 22.043105,11.32322 32.158766,21.979434 L 37.068811,17.246167 C 37.068811,17.246167 37.088388,32 37.088388,32 L 22.160133,31.978069 C 22.160133,31.978069 26.997745,27.140456 26.997745,27.140456 C 18.528582,18.264221 13.291696,25.230495 11.500037,31.436501 z"
             style="fill:#404040;"/>
          </a>
         </g>
        </svg>
</svg>
