<?xml version="1.0" encoding="UTF-8" standalone="no"?>
<!DOCTYPE svg PUBLIC "-//W3C//DTD SVG 1.1//EN"
 "http://www.w3.org/Graphics/SVG/1.1/DTD/svg11.dtd">
<!-- Generated by graphviz version 2.38.0 (20140413.2041)
 -->
<!-- Title: BattleEndedEventArgs Pages: 1 -->
<!--zoomable 1358 -->
<svg id="main" version="1.1" xmlns="http://www.w3.org/2000/svg" xmlns:xlink="http://www.w3.org/1999/xlink" xml:space="preserve" onload="init(evt)">
<style type="text/css"><![CDATA[
.edge:hover path { stroke: red; }
.edge:hover polygon { stroke: red; fill: red; }
]]></style>
<script type="text/javascript"><![CDATA[
var edges = document.getElementsByTagName('g');
if (edges && edges.length) {
  for (var i=0;i<edges.length;i++) {
    if (edges[i].id.substr(0,4)=='edge') {
      edges[i].setAttribute('class','edge');
    }
  }
}
]]></script>
        <defs>
                <circle id="rim" cx="0" cy="0" r="7"/>
                <circle id="rim2" cx="0" cy="0" r="3.5"/>
                <g id="zoomPlus">
                        <use xlink:href="#rim" fill="#404040">
                                <set attributeName="fill" to="#808080" begin="zoomplus.mouseover" end="zoomplus.mouseout"/>
                        </use>
                        <path d="M-4,0h8M0,-4v8" fill="none" stroke="white" stroke-width="1.5" pointer-events="none"/>
                </g>
                <g id="zoomMin">
                        <use xlink:href="#rim" fill="#404040">
                                <set attributeName="fill" to="#808080" begin="zoomminus.mouseover" end="zoomminus.mouseout"/>
                        </use>
                        <path d="M-4,0h8" fill="none" stroke="white" stroke-width="1.5" pointer-events="none"/>
                </g>
                <g id="dirArrow">
                        <path fill="none" stroke="white" stroke-width="1.5" d="M0,-3.0v7 M-2.5,-0.5L0,-3.0L2.5,-0.5"/>
                </g>
               <g id="resetDef">
                       <use xlink:href="#rim2" fill="#404040">
                               <set attributeName="fill" to="#808080" begin="reset.mouseover" end="reset.mouseout"/>
                       </use>
               </g>
        </defs>

<script type="text/javascript">
var viewWidth = 1021;
var viewHeight = 1358;
var sectionId = 'dynsection-1';
</script>
<script xlink:href="svgpan.js"/>
<svg id="graph" class="graph">
<g id="viewport">
<title>BattleEndedEventArgs</title>
<!-- Node3 -->
<g id="node1" class="node"><title>Node3</title>
<polygon fill="#bfbfbf" stroke="black" points="210,-0.5 210,-57.5 339,-57.5 339,-0.5 210,-0.5"/>
<text text-anchor="middle" x="274.5" y="-45.5" font-family="Helvetica,sans-Serif" font-size="10.00">BattleEndedEventArgs</text>
<polyline fill="none" stroke="black" points="210,-38.5 339,-38.5 "/>
<text text-anchor="middle" x="274.5" y="-26.5" font-family="Helvetica,sans-Serif" font-size="10.00"> </text>
<polyline fill="none" stroke="black" points="210,-19.5 339,-19.5 "/>
<text text-anchor="start" x="218" y="-7.5" font-family="Helvetica,sans-Serif" font-size="10.00">+ BattleEndedEventArgs()</text>
</g>
<!-- Node4 -->
<g id="node2" class="node"><title>Node4</title>
<g id="a_node2"><a xlink:href="class_game_event_args.html" target="_top" xlink:title="Base class for passing arguments with game events ">
<polygon fill="none" stroke="black" points="0,-105.5 0,-162.5 87,-162.5 87,-105.5 0,-105.5"/>
<text text-anchor="middle" x="43.5" y="-150.5" font-family="Helvetica,sans-Serif" font-size="10.00">GameEventArgs</text>
<polyline fill="none" stroke="black" points="0,-143.5 87,-143.5 "/>
<text text-anchor="middle" x="43.5" y="-131.5" font-family="Helvetica,sans-Serif" font-size="10.00"> </text>
<polyline fill="none" stroke="black" points="0,-124.5 87,-124.5 "/>
<text text-anchor="middle" x="43.5" y="-112.5" font-family="Helvetica,sans-Serif" font-size="10.00"> </text>
</a>
</g>
</g>
<!-- Node4&#45;&gt;Node3 -->
<g id="edge1" class="edge"><title>Node4&#45;&gt;Node3</title>
<path fill="none" stroke="midnightblue" d="M96.3207,-105.363C115.42,-95.6975 137.264,-85.0157 157.5,-76 174.247,-68.5389 192.601,-61.0215 209.704,-54.288"/>
<polygon fill="none" stroke="midnightblue" points="94.5078,-102.359 87.1843,-110.015 97.6838,-108.597 94.5078,-102.359"/>
</g>
<!-- Node4&#45;&gt;Node4 -->
<g id="edge3" class="edge"><title>Node4&#45;&gt;Node4</title>
<path fill="none" stroke="#404040" d="M87.1694,-142.454C97.4301,-141.76 105,-138.941 105,-134 105,-131.298 102.736,-129.23 99.0062,-127.798"/>
<polygon fill="none" stroke="#404040" points="98.9578,-127.789 92.3158,-130.597 87.1694,-125.546 93.8114,-122.738 98.9578,-127.789"/>
<text text-anchor="middle" x="124" y="-131.5" font-family="Helvetica,sans-Serif" font-size="10.00"> +Empty</text>
</g>
<!-- Node5 -->
<g id="node3" class="node"><title>Node5</title>
<g id="a_node3"><a xlink:href="class_event_args.html" target="_top" xlink:title="{EventArgs\n||}">
<polygon fill="none" stroke="black" points="13,-277.5 13,-334.5 74,-334.5 74,-277.5 13,-277.5"/>
<text text-anchor="middle" x="43.5" y="-322.5" font-family="Helvetica,sans-Serif" font-size="10.00">EventArgs</text>
<polyline fill="none" stroke="black" points="13,-315.5 74,-315.5 "/>
<text text-anchor="middle" x="43.5" y="-303.5" font-family="Helvetica,sans-Serif" font-size="10.00"> </text>
<polyline fill="none" stroke="black" points="13,-296.5 74,-296.5 "/>
<text text-anchor="middle" x="43.5" y="-284.5" font-family="Helvetica,sans-Serif" font-size="10.00"> </text>
</a>
</g>
</g>
<!-- Node5&#45;&gt;Node4 -->
<g id="edge2" class="edge"><title>Node5&#45;&gt;Node4</title>
<path fill="none" stroke="midnightblue" d="M43.5,-267.105C43.5,-235.458 43.5,-191.077 43.5,-162.68"/>
<polygon fill="none" stroke="midnightblue" points="40.0001,-267.308 43.5,-277.308 47.0001,-267.308 40.0001,-267.308"/>
</g>
<!-- Node6 -->
<g id="node4" class="node"><title>Node6</title>
<g id="a_node4"><a xlink:href="class_item.html" target="_top" xlink:title="Abstract class for items that can be equipped to a player, increasing some of their stats ...">
<polygon fill="none" stroke="black" points="522,-1143.5 522,-1233.5 599,-1233.5 599,-1143.5 522,-1143.5"/>
<text text-anchor="middle" x="560.5" y="-1221.5" font-family="Helvetica,sans-Serif" font-size="10.00">Item</text>
<polyline fill="none" stroke="black" points="522,-1214.5 599,-1214.5 "/>
<text text-anchor="start" x="530" y="-1202.5" font-family="Helvetica,sans-Serif" font-size="10.00">+ Name</text>
<text text-anchor="start" x="530" y="-1191.5" font-family="Helvetica,sans-Serif" font-size="10.00">+ Desc</text>
<text text-anchor="start" x="530" y="-1180.5" font-family="Helvetica,sans-Serif" font-size="10.00">+ Cost</text>
<polyline fill="none" stroke="black" points="522,-1173.5 599,-1173.5 "/>
<text text-anchor="start" x="530" y="-1161.5" font-family="Helvetica,sans-Serif" font-size="10.00">+ applyBuffs()</text>
<text text-anchor="start" x="530" y="-1150.5" font-family="Helvetica,sans-Serif" font-size="10.00">+ revertBuffs()</text>
</a>
</g>
</g>
<!-- Node6&#45;&gt;Node3 -->
<g id="edge4" class="edge"><title>Node6&#45;&gt;Node3</title>
<path fill="none" stroke="#404040" d="M521.799,-1146.95C520.048,-1145.57 518.279,-1144.25 516.5,-1143 417.922,-1073.86 270.5,-1149.91 270.5,-1029.5 270.5,-1029.5 270.5,-1029.5 270.5,-710.5 270.5,-656.212 254.96,-644.105 250.5,-590 250.098,-585.128 250.461,-583.889 250.5,-579 250.722,-551.22 251.5,-544.281 251.5,-516.5 251.5,-516.5 251.5,-516.5 251.5,-133 251.5,-111.556 256.307,-88.1906 261.526,-69.1433"/>
<polygon fill="none" stroke="#404040" points="261.53,-69.1296 259.364,-62.2516 264.879,-57.6063 267.046,-64.4842 261.53,-69.1296"/>
<text text-anchor="middle" x="281" y="-582" font-family="Helvetica,sans-Serif" font-size="10.00"> +itemReward</text>
</g>
<!-- Node15 -->
<g id="node13" class="node"><title>Node15</title>
<g id="a_node13"><a xlink:href="class_player.html" target="_top" xlink:title="Defines a playable character for use in battle scenes">
<polygon fill="none" stroke="black" points="428.5,-972.5 428.5,-1084.5 540.5,-1084.5 540.5,-972.5 428.5,-972.5"/>
<text text-anchor="middle" x="484.5" y="-1072.5" font-family="Helvetica,sans-Serif" font-size="10.00">Player</text>
<polyline fill="none" stroke="black" points="428.5,-1065.5 540.5,-1065.5 "/>
<text text-anchor="start" x="436.5" y="-1053.5" font-family="Helvetica,sans-Serif" font-size="10.00">+ Exp</text>
<text text-anchor="start" x="436.5" y="-1042.5" font-family="Helvetica,sans-Serif" font-size="10.00">+ Item</text>
<text text-anchor="start" x="436.5" y="-1031.5" font-family="Helvetica,sans-Serif" font-size="10.00">+ ExpToNextLevel</text>
<polyline fill="none" stroke="black" points="428.5,-1024.5 540.5,-1024.5 "/>
<text text-anchor="start" x="436.5" y="-1012.5" font-family="Helvetica,sans-Serif" font-size="10.00">+ Player()</text>
<text text-anchor="start" x="436.5" y="-1001.5" font-family="Helvetica,sans-Serif" font-size="10.00">+ gainExp()</text>
<text text-anchor="start" x="436.5" y="-990.5" font-family="Helvetica,sans-Serif" font-size="10.00">+ levelUp()</text>
<text text-anchor="start" x="436.5" y="-979.5" font-family="Helvetica,sans-Serif" font-size="10.00">&#45; setExpToNextLevel()</text>
</a>
</g>
</g>
<!-- Node6&#45;&gt;Node15 -->
<g id="edge24" class="edge"><title>Node6&#45;&gt;Node15</title>
<path fill="none" stroke="#404040" d="M531.543,-1143.36C527.98,-1137.29 524.532,-1131.06 521.5,-1125 516.848,-1115.7 512.391,-1105.66 508.281,-1095.71"/>
<polygon fill="none" stroke="#404040" points="508.274,-1095.69 502.325,-1091.62 503.798,-1084.56 509.747,-1088.64 508.274,-1095.69"/>
<text text-anchor="middle" x="534" y="-1111.5" font-family="Helvetica,sans-Serif" font-size="10.00"> &#45;item</text>
</g>
<!-- Node7 -->
<g id="node5" class="node"><title>Node7</title>
<polygon fill="none" stroke="#bfbfbf" points="819,-1292.5 819,-1349.5 860,-1349.5 860,-1292.5 819,-1292.5"/>
<text text-anchor="middle" x="839.5" y="-1337.5" font-family="Helvetica,sans-Serif" font-size="10.00">string</text>
<polyline fill="none" stroke="#bfbfbf" points="819,-1330.5 860,-1330.5 "/>
<text text-anchor="middle" x="839.5" y="-1318.5" font-family="Helvetica,sans-Serif" font-size="10.00"> </text>
<polyline fill="none" stroke="#bfbfbf" points="819,-1311.5 860,-1311.5 "/>
<text text-anchor="middle" x="839.5" y="-1299.5" font-family="Helvetica,sans-Serif" font-size="10.00"> </text>
</g>
<!-- Node7&#45;&gt;Node3 -->
<g id="edge7" class="edge"><title>Node7&#45;&gt;Node3</title>
<path fill="none" stroke="#404040" d="M860.099,-1310.98C896.755,-1293.38 969.5,-1250.74 969.5,-1189.5 969.5,-1189.5 969.5,-1189.5 969.5,-133 969.5,-71.0708 532.124,-42.5782 351.309,-33.4451"/>
<polygon fill="none" stroke="#404040" points="351.245,-33.442 345.054,-37.1391 339.26,-32.846 345.451,-29.149 351.245,-33.442"/>
<text text-anchor="middle" x="991" y="-645.5" font-family="Helvetica,sans-Serif" font-size="10.00"> +location</text>
</g>
<!-- Node7&#45;&gt;Node6 -->
<g id="edge5" class="edge"><title>Node7&#45;&gt;Node6</title>
<path fill="none" stroke="#404040" d="M818.89,-1315.39C789.857,-1308.5 735.639,-1294.12 692.5,-1274 663.478,-1260.47 633.243,-1241.52 609.043,-1224.99"/>
<polygon fill="none" stroke="#404040" points="608.929,-1224.91 601.719,-1224.79 599.063,-1218.08 606.273,-1218.21 608.929,-1224.91"/>
<text text-anchor="middle" x="707.5" y="-1266" font-family="Helvetica,sans-Serif" font-size="10.00"> #desc</text>
<text text-anchor="middle" x="707.5" y="-1255" font-family="Helvetica,sans-Serif" font-size="10.00">#name</text>
</g>
<!-- Node10 -->
<g id="node8" class="node"><title>Node10</title>
<g id="a_node8"><a xlink:href="class_character.html" target="_top" xlink:title="Base abstract class for Enemy and Player to inherit from. Defines all shared variables, their constructor and their setters and getters ">
<polygon fill="none" stroke="black" points="538,-200.5 538,-411.5 633,-411.5 633,-200.5 538,-200.5"/>
<text text-anchor="middle" x="585.5" y="-399.5" font-family="Helvetica,sans-Serif" font-size="10.00">Character</text>
<polyline fill="none" stroke="black" points="538,-392.5 633,-392.5 "/>
<text text-anchor="start" x="546" y="-380.5" font-family="Helvetica,sans-Serif" font-size="10.00">+ Name</text>
<text text-anchor="start" x="546" y="-369.5" font-family="Helvetica,sans-Serif" font-size="10.00">+ Level</text>
<text text-anchor="start" x="546" y="-358.5" font-family="Helvetica,sans-Serif" font-size="10.00">+ Health</text>
<text text-anchor="start" x="546" y="-347.5" font-family="Helvetica,sans-Serif" font-size="10.00">+ Attack</text>
<text text-anchor="start" x="546" y="-336.5" font-family="Helvetica,sans-Serif" font-size="10.00">+ Defence</text>
<text text-anchor="start" x="546" y="-325.5" font-family="Helvetica,sans-Serif" font-size="10.00">+ MaximumMagic</text>
<text text-anchor="start" x="546" y="-314.5" font-family="Helvetica,sans-Serif" font-size="10.00">+ Magic</text>
<text text-anchor="start" x="546" y="-303.5" font-family="Helvetica,sans-Serif" font-size="10.00">+ Luck</text>
<text text-anchor="start" x="546" y="-292.5" font-family="Helvetica,sans-Serif" font-size="10.00">+ Speed</text>
<text text-anchor="start" x="546" y="-281.5" font-family="Helvetica,sans-Serif" font-size="10.00">+ Rage</text>
<text text-anchor="start" x="546" y="-270.5" font-family="Helvetica,sans-Serif" font-size="10.00">+ CanRage</text>
<text text-anchor="start" x="546" y="-259.5" font-family="Helvetica,sans-Serif" font-size="10.00">+ Special1</text>
<text text-anchor="start" x="546" y="-248.5" font-family="Helvetica,sans-Serif" font-size="10.00">+ Special2</text>
<text text-anchor="start" x="546" y="-237.5" font-family="Helvetica,sans-Serif" font-size="10.00">+ Image</text>
<polyline fill="none" stroke="black" points="538,-230.5 633,-230.5 "/>
<text text-anchor="start" x="546" y="-218.5" font-family="Helvetica,sans-Serif" font-size="10.00">+ IsEnraged()</text>
<text text-anchor="start" x="546" y="-207.5" font-family="Helvetica,sans-Serif" font-size="10.00"># Character()</text>
</a>
</g>
</g>
<!-- Node7&#45;&gt;Node10 -->
<g id="edge10" class="edge"><title>Node7&#45;&gt;Node10</title>
<path fill="none" stroke="#404040" d="M860.202,-1297.38C880.527,-1272.76 908.5,-1231.27 908.5,-1189.5 908.5,-1189.5 908.5,-1189.5 908.5,-647 908.5,-495.065 736.868,-383.971 643.826,-334.909"/>
<polygon fill="none" stroke="#404040" points="643.811,-334.901 636.643,-335.688 633.16,-329.375 640.328,-328.587 643.811,-334.901"/>
<text text-anchor="middle" x="925" y="-827.5" font-family="Helvetica,sans-Serif" font-size="10.00"> #name</text>
</g>
<!-- Node12 -->
<g id="node10" class="node"><title>Node12</title>
<g id="a_node10"><a xlink:href="class_special_move.html" target="_top" xlink:title="Special move abstract base class that expands upon CharacterMove, adding magic properties ...">
<polygon fill="none" stroke="black" points="718.5,-470.5 718.5,-560.5 816.5,-560.5 816.5,-470.5 718.5,-470.5"/>
<text text-anchor="middle" x="767.5" y="-548.5" font-family="Helvetica,sans-Serif" font-size="10.00">SpecialMove</text>
<polyline fill="none" stroke="black" points="718.5,-541.5 816.5,-541.5 "/>
<text text-anchor="start" x="726.5" y="-529.5" font-family="Helvetica,sans-Serif" font-size="10.00">+ Magic</text>
<text text-anchor="start" x="726.5" y="-518.5" font-family="Helvetica,sans-Serif" font-size="10.00">+ Desc</text>
<polyline fill="none" stroke="black" points="718.5,-511.5 816.5,-511.5 "/>
<text text-anchor="start" x="726.5" y="-499.5" font-family="Helvetica,sans-Serif" font-size="10.00">+ setUp()</text>
<text text-anchor="start" x="726.5" y="-488.5" font-family="Helvetica,sans-Serif" font-size="10.00">+ decreaseMagic()</text>
<text text-anchor="start" x="726.5" y="-477.5" font-family="Helvetica,sans-Serif" font-size="10.00"># SpecialMove()</text>
</a>
</g>
</g>
<!-- Node7&#45;&gt;Node12 -->
<g id="edge26" class="edge"><title>Node7&#45;&gt;Node12</title>
<path fill="none" stroke="#404040" d="M843.676,-1292.32C844.427,-1286.3 845.098,-1279.95 845.5,-1274 854.019,-1148.06 871.182,-830.169 848.5,-706 839.818,-658.474 817.759,-608.362 798.851,-571.615"/>
<polygon fill="none" stroke="#404040" points="798.677,-571.283 792.347,-567.829 793.102,-560.657 799.432,-564.112 798.677,-571.283"/>
<text text-anchor="middle" x="874.5" y="-946" font-family="Helvetica,sans-Serif" font-size="10.00"> #desc</text>
</g>
<!-- Node13 -->
<g id="node11" class="node"><title>Node13</title>
<g id="a_node11"><a xlink:href="class_character_move.html" target="_top" xlink:title="Astract base class for character moves ">
<polygon fill="none" stroke="black" points="672.5,-608.5 672.5,-687.5 758.5,-687.5 758.5,-608.5 672.5,-608.5"/>
<text text-anchor="middle" x="715.5" y="-675.5" font-family="Helvetica,sans-Serif" font-size="10.00">CharacterMove</text>
<polyline fill="none" stroke="black" points="672.5,-668.5 758.5,-668.5 "/>
<text text-anchor="start" x="680.5" y="-656.5" font-family="Helvetica,sans-Serif" font-size="10.00">+ User</text>
<text text-anchor="start" x="680.5" y="-645.5" font-family="Helvetica,sans-Serif" font-size="10.00">+ Target</text>
<text text-anchor="start" x="680.5" y="-634.5" font-family="Helvetica,sans-Serif" font-size="10.00">+ Text</text>
<polyline fill="none" stroke="black" points="672.5,-627.5 758.5,-627.5 "/>
<text text-anchor="start" x="680.5" y="-615.5" font-family="Helvetica,sans-Serif" font-size="10.00">+ performMove()</text>
</a>
</g>
</g>
<!-- Node7&#45;&gt;Node13 -->
<g id="edge15" class="edge"><title>Node7&#45;&gt;Node13</title>
<path fill="none" stroke="#404040" d="M835.409,-1292.49C826.042,-1230.15 801.957,-1073.39 777.5,-943 761.429,-857.321 739.92,-758.22 726.921,-699.731"/>
<polygon fill="none" stroke="#404040" points="726.891,-699.598 721.682,-694.612 724.281,-687.886 729.49,-692.872 726.891,-699.598"/>
<text text-anchor="middle" x="815" y="-1026" font-family="Helvetica,sans-Serif" font-size="10.00"> #text</text>
</g>
<!-- Node14 -->
<g id="node12" class="node"><title>Node14</title>
<g id="a_node12"><a xlink:href="class_battle_manager.html" target="_top" xlink:title="Holds current Player and Enemy objects in battle and provides functions for MainBattle and other obje...">
<polygon fill="none" stroke="black" points="523.5,-735.5 523.5,-924.5 639.5,-924.5 639.5,-735.5 523.5,-735.5"/>
<text text-anchor="middle" x="581.5" y="-912.5" font-family="Helvetica,sans-Serif" font-size="10.00">BattleManager</text>
<polyline fill="none" stroke="black" points="523.5,-905.5 639.5,-905.5 "/>
<text text-anchor="start" x="531.5" y="-893.5" font-family="Helvetica,sans-Serif" font-size="10.00">+ Player</text>
<text text-anchor="start" x="531.5" y="-882.5" font-family="Helvetica,sans-Serif" font-size="10.00">+ Enemy</text>
<text text-anchor="start" x="531.5" y="-871.5" font-family="Helvetica,sans-Serif" font-size="10.00">+ WasCriticalHit</text>
<polyline fill="none" stroke="black" points="523.5,-864.5 639.5,-864.5 "/>
<text text-anchor="start" x="531.5" y="-852.5" font-family="Helvetica,sans-Serif" font-size="10.00">+ BattleManager()</text>
<text text-anchor="start" x="531.5" y="-841.5" font-family="Helvetica,sans-Serif" font-size="10.00">+ playerFirst()</text>
<text text-anchor="start" x="531.5" y="-830.5" font-family="Helvetica,sans-Serif" font-size="10.00">+ switchPlayers()</text>
<text text-anchor="start" x="531.5" y="-819.5" font-family="Helvetica,sans-Serif" font-size="10.00">+ isCriticalHit()</text>
<text text-anchor="start" x="531.5" y="-808.5" font-family="Helvetica,sans-Serif" font-size="10.00">+ ranAway()</text>
<text text-anchor="start" x="531.5" y="-797.5" font-family="Helvetica,sans-Serif" font-size="10.00">+ damageCalculation()</text>
<text text-anchor="start" x="531.5" y="-786.5" font-family="Helvetica,sans-Serif" font-size="10.00">+ enemyMove()</text>
<text text-anchor="start" x="531.5" y="-775.5" font-family="Helvetica,sans-Serif" font-size="10.00">+ enemySpecialMove()</text>
<text text-anchor="start" x="531.5" y="-764.5" font-family="Helvetica,sans-Serif" font-size="10.00">+ battleWon()</text>
<text text-anchor="start" x="531.5" y="-753.5" font-family="Helvetica,sans-Serif" font-size="10.00">+ playerFainted()</text>
<text text-anchor="start" x="531.5" y="-742.5" font-family="Helvetica,sans-Serif" font-size="10.00">&#45; characterFainted()</text>
</a>
</g>
</g>
<!-- Node7&#45;&gt;Node14 -->
<g id="edge18" class="edge"><title>Node7&#45;&gt;Node14</title>
<path fill="none" stroke="#404040" d="M818.934,-1301.02C784.203,-1268.06 713.427,-1196.85 669.5,-1125 634.399,-1067.59 612.514,-995.267 599.347,-936.72"/>
<polygon fill="none" stroke="#404040" points="599.31,-936.549 594.121,-931.541 596.748,-924.825 601.937,-929.833 599.31,-936.549"/>
<text text-anchor="middle" x="711.5" y="-1117" font-family="Helvetica,sans-Serif" font-size="10.00"> +forceEnemyMove</text>
<text text-anchor="middle" x="711.5" y="-1106" font-family="Helvetica,sans-Serif" font-size="10.00">+forceCriticalHits</text>
</g>
<!-- Node8 -->
<g id="node6" class="node"><title>Node8</title>
<polygon fill="none" stroke="#bfbfbf" points="546,-1292.5 546,-1349.5 575,-1349.5 575,-1292.5 546,-1292.5"/>
<text text-anchor="middle" x="560.5" y="-1337.5" font-family="Helvetica,sans-Serif" font-size="10.00">int</text>
<polyline fill="none" stroke="#bfbfbf" points="546,-1330.5 575,-1330.5 "/>
<text text-anchor="middle" x="560.5" y="-1318.5" font-family="Helvetica,sans-Serif" font-size="10.00"> </text>
<polyline fill="none" stroke="#bfbfbf" points="546,-1311.5 575,-1311.5 "/>
<text text-anchor="middle" x="560.5" y="-1299.5" font-family="Helvetica,sans-Serif" font-size="10.00"> </text>
</g>
<!-- Node8&#45;&gt;Node3 -->
<g id="edge30" class="edge"><title>Node8&#45;&gt;Node3</title>
<path fill="none" stroke="#404040" d="M545.726,-1318.36C474.67,-1310.07 171.5,-1269.99 171.5,-1189.5 171.5,-1189.5 171.5,-1189.5 171.5,-133 171.5,-105.023 190.735,-81.9913 212.581,-64.8551"/>
<polygon fill="none" stroke="#404040" points="212.728,-64.7465 215.193,-57.9696 222.396,-57.638 219.932,-64.4149 212.728,-64.7465"/>
<text text-anchor="middle" x="207" y="-645.5" font-family="Helvetica,sans-Serif" font-size="10.00"> +moneyReward</text>
</g>
<!-- Node8&#45;&gt;Node6 -->
<g id="edge6" class="edge"><title>Node8&#45;&gt;Node6</title>
<path fill="none" stroke="#404040" d="M560.5,-1292.32C560.5,-1278.73 560.5,-1261.84 560.5,-1245.7"/>
<polygon fill="none" stroke="#404040" points="560.5,-1245.57 556.5,-1239.57 560.5,-1233.57 564.5,-1239.57 560.5,-1245.57"/>
<text text-anchor="middle" x="574.5" y="-1260.5" font-family="Helvetica,sans-Serif" font-size="10.00"> #cost</text>
</g>
<!-- Node9 -->
<g id="node7" class="node"><title>Node9</title>
<g id="a_node7"><a xlink:href="class_enemy.html" target="_top" xlink:title="Defines an AI controller enemy to fight in battle scenes">
<polygon fill="none" stroke="black" points="471,-105.5 471,-162.5 538,-162.5 538,-105.5 471,-105.5"/>
<text text-anchor="middle" x="504.5" y="-150.5" font-family="Helvetica,sans-Serif" font-size="10.00">Enemy</text>
<polyline fill="none" stroke="black" points="471,-143.5 538,-143.5 "/>
<text text-anchor="start" x="479" y="-131.5" font-family="Helvetica,sans-Serif" font-size="10.00">+ ExpGiven</text>
<polyline fill="none" stroke="black" points="471,-124.5 538,-124.5 "/>
<text text-anchor="start" x="479" y="-112.5" font-family="Helvetica,sans-Serif" font-size="10.00">+ Enemy()</text>
</a>
</g>
</g>
<!-- Node8&#45;&gt;Node9 -->
<g id="edge29" class="edge"><title>Node8&#45;&gt;Node9</title>
<path fill="none" stroke="#404040" d="M575.163,-1320.79C607.835,-1321.67 686.852,-1318.78 726.5,-1274 743.586,-1254.7 822.552,-606.621 825.5,-561 828.108,-520.64 837.417,-508.649 825.5,-470 782.711,-331.231 751.834,-294.414 641.5,-200 614.515,-176.908 577.923,-160.103 549.345,-149.371"/>
<polygon fill="none" stroke="#404040" points="549.319,-149.362 542.317,-151.083 538.035,-145.281 545.037,-143.56 549.319,-149.362"/>
<text text-anchor="middle" x="832.5" y="-709" font-family="Helvetica,sans-Serif" font-size="10.00"> &#45;expGiven</text>
</g>
<!-- Node8&#45;&gt;Node10 -->
<g id="edge11" class="edge"><title>Node8&#45;&gt;Node10</title>
<path fill="none" stroke="#404040" d="M545.934,-1316.82C503.422,-1306.58 382.5,-1270.35 382.5,-1189.5 382.5,-1189.5 382.5,-1189.5 382.5,-647 382.5,-532.002 469.17,-422.124 529.248,-359.773"/>
<polygon fill="none" stroke="#404040" points="529.514,-359.502 530.85,-352.416 537.906,-350.924 536.569,-358.01 529.514,-359.502"/>
<text text-anchor="middle" x="420" y="-871.5" font-family="Helvetica,sans-Serif" font-size="10.00"> #speed</text>
<text text-anchor="middle" x="420" y="-860.5" font-family="Helvetica,sans-Serif" font-size="10.00">#luck</text>
<text text-anchor="middle" x="420" y="-849.5" font-family="Helvetica,sans-Serif" font-size="10.00">#health</text>
<text text-anchor="middle" x="420" y="-838.5" font-family="Helvetica,sans-Serif" font-size="10.00">#magic</text>
<text text-anchor="middle" x="420" y="-827.5" font-family="Helvetica,sans-Serif" font-size="10.00">#maximumMagic</text>
<text text-anchor="middle" x="420" y="-816.5" font-family="Helvetica,sans-Serif" font-size="10.00">#attack</text>
<text text-anchor="middle" x="420" y="-805.5" font-family="Helvetica,sans-Serif" font-size="10.00">#defence</text>
<text text-anchor="middle" x="420" y="-794.5" font-family="Helvetica,sans-Serif" font-size="10.00">#level</text>
<text text-anchor="middle" x="420" y="-783.5" font-family="Helvetica,sans-Serif" font-size="10.00">#rage</text>
</g>
<!-- Node8&#45;&gt;Node12 -->
<g id="edge27" class="edge"><title>Node8&#45;&gt;Node12</title>
<path fill="none" stroke="#404040" d="M575.036,-1308.75C585.968,-1299.92 600.981,-1286.98 612.5,-1274 665.927,-1213.78 687.017,-1200.3 715.5,-1125 719.825,-1113.57 766.777,-700.203 767.5,-688 769.773,-649.653 769.755,-606.399 769.178,-572.923"/>
<polygon fill="none" stroke="#404040" points="769.172,-572.6 765.053,-566.681 768.933,-560.602 773.052,-566.522 769.172,-572.6"/>
<text text-anchor="middle" x="757" y="-946" font-family="Helvetica,sans-Serif" font-size="10.00"> #magic</text>
</g>
<!-- Node8&#45;&gt;Node14 -->
<g id="edge20" class="edge"><title>Node8&#45;&gt;Node14</title>
<path fill="none" stroke="#404040" d="M575.183,-1301.55C587.181,-1284.99 602.885,-1259.45 607.5,-1234 614.716,-1194.2 629.128,-1177.18 607.5,-1143 597.507,-1127.21 579.493,-1140.79 569.5,-1125 550.197,-1094.5 555.864,-1008.07 564.813,-936.768"/>
<polygon fill="none" stroke="#404040" points="564.853,-936.458 561.658,-929.994 566.395,-924.558 569.591,-931.022 564.853,-936.458"/>
<text text-anchor="middle" x="589" y="-1111.5" font-family="Helvetica,sans-Serif" font-size="10.00"> +money</text>
</g>
<!-- Node8&#45;&gt;Node15 -->
<g id="edge25" class="edge"><title>Node8&#45;&gt;Node15</title>
<path fill="none" stroke="#404040" d="M545.615,-1314.88C518.245,-1304.56 460.615,-1278.37 437.5,-1234 415.066,-1190.94 428.731,-1137.29 446.987,-1095.74"/>
<polygon fill="none" stroke="#404040" points="447.081,-1095.54 445.958,-1088.41 452.1,-1084.64 453.224,-1091.76 447.081,-1095.54"/>
<text text-anchor="middle" x="475" y="-1191.5" font-family="Helvetica,sans-Serif" font-size="10.00"> &#45;expToNextLevel</text>
<text text-anchor="middle" x="475" y="-1180.5" font-family="Helvetica,sans-Serif" font-size="10.00">&#45;exp</text>
</g>
<!-- Node9&#45;&gt;Node3 -->
<g id="edge8" class="edge"><title>Node9&#45;&gt;Node3</title>
<path fill="none" stroke="#404040" d="M470.563,-117.802C438.284,-103.347 388.669,-81.128 347.428,-62.6591"/>
<polygon fill="none" stroke="#404040" points="347.267,-62.5872 340.156,-63.7855 336.315,-57.6825 343.426,-56.4842 347.267,-62.5872"/>
<text text-anchor="middle" x="416" y="-79" font-family="Helvetica,sans-Serif" font-size="10.00"> +enemy</text>
</g>
<!-- Node9&#45;&gt;Node14 -->
<g id="edge19" class="edge"><title>Node9&#45;&gt;Node14</title>
<path fill="none" stroke="#404040" d="M498.477,-162.689C484.584,-230.983 453.482,-412.697 480.5,-561 490.628,-616.593 511.668,-675.644 531.937,-724.126"/>
<polygon fill="none" stroke="#404040" points="531.971,-724.208 537.995,-728.171 536.653,-735.256 530.629,-731.293 531.971,-724.208"/>
<text text-anchor="middle" x="498.5" y="-513" font-family="Helvetica,sans-Serif" font-size="10.00"> &#45;enemy</text>
</g>
<!-- Node10&#45;&gt;Node9 -->
<g id="edge9" class="edge"><title>Node10&#45;&gt;Node9</title>
<path fill="none" stroke="midnightblue" d="M533.601,-196.075C527.751,-183.798 522.246,-172.245 517.632,-162.562"/>
<polygon fill="none" stroke="midnightblue" points="530.452,-197.605 537.913,-205.127 536.772,-194.594 530.452,-197.605"/>
</g>
<!-- Node10&#45;&gt;Node13 -->
<g id="edge16" class="edge"><title>Node10&#45;&gt;Node13</title>
<path fill="none" stroke="#404040" d="M622.988,-411.665C625.195,-417.867 627.379,-424.015 629.5,-430 650.114,-488.162 652.238,-503.845 675.5,-561 680.345,-572.905 685.954,-585.545 691.411,-597.365"/>
<polygon fill="none" stroke="#404040" points="691.486,-597.525 697.65,-601.267 696.566,-608.396 690.402,-604.654 691.486,-597.525"/>
<text text-anchor="middle" x="692.5" y="-518.5" font-family="Helvetica,sans-Serif" font-size="10.00"> #target</text>
<text text-anchor="middle" x="692.5" y="-507.5" font-family="Helvetica,sans-Serif" font-size="10.00">#user</text>
</g>
<!-- Node10&#45;&gt;Node15 -->
<g id="edge23" class="edge"><title>Node10&#45;&gt;Node15</title>
<path fill="none" stroke="midnightblue" d="M534.185,-413.835C527.132,-432.215 520.834,-451.395 516.5,-470 474.541,-650.104 477.344,-871.335 481.499,-972.41"/>
<polygon fill="none" stroke="midnightblue" points="537.53,-414.891 537.935,-404.304 531.016,-412.328 537.53,-414.891"/>
</g>
<!-- Node11 -->
<g id="node9" class="node"><title>Node11</title>
<polygon fill="none" stroke="#bfbfbf" points="663,-1000 663,-1057 698,-1057 698,-1000 663,-1000"/>
<text text-anchor="middle" x="680.5" y="-1045" font-family="Helvetica,sans-Serif" font-size="10.00">bool</text>
<polyline fill="none" stroke="#bfbfbf" points="663,-1038 698,-1038 "/>
<text text-anchor="middle" x="680.5" y="-1026" font-family="Helvetica,sans-Serif" font-size="10.00"> </text>
<polyline fill="none" stroke="#bfbfbf" points="663,-1019 698,-1019 "/>
<text text-anchor="middle" x="680.5" y="-1007" font-family="Helvetica,sans-Serif" font-size="10.00"> </text>
</g>
<!-- Node11&#45;&gt;Node10 -->
<g id="edge12" class="edge"><title>Node11&#45;&gt;Node10</title>
<path fill="none" stroke="#404040" d="M686.793,-999.809C689.859,-983.356 692.661,-962.049 691.5,-943 685.044,-837.078 727.545,-789.847 662.5,-706 649.043,-688.654 629.398,-705.766 616.5,-688 582.761,-641.525 606.874,-487.178 601.5,-430 601.306,-427.936 601.104,-425.854 600.895,-423.758"/>
<polygon fill="none" stroke="#404040" points="600.874,-423.557 596.271,-418.006 599.625,-411.622 604.228,-417.173 600.874,-423.557"/>
<text text-anchor="middle" x="640" y="-645.5" font-family="Helvetica,sans-Serif" font-size="10.00"> #canRage</text>
</g>
<!-- Node11&#45;&gt;Node14 -->
<g id="edge21" class="edge"><title>Node11&#45;&gt;Node14</title>
<path fill="none" stroke="#404040" d="M662.85,-1007.4C651.078,-993.22 635.909,-973.375 625.5,-954 622.381,-948.194 619.403,-942.12 616.574,-935.916"/>
<polygon fill="none" stroke="#404040" points="616.449,-935.631 610.382,-931.734 611.645,-924.634 617.713,-928.531 616.449,-935.631"/>
<text text-anchor="middle" x="658.5" y="-946" font-family="Helvetica,sans-Serif" font-size="10.00"> &#45;wasCriticalHit</text>
</g>
<!-- Node12&#45;&gt;Node10 -->
<g id="edge13" class="edge"><title>Node12&#45;&gt;Node10</title>
<path fill="none" stroke="#404040" d="M728.902,-470.495C703.451,-441.477 669.702,-403 641.339,-370.663"/>
<polygon fill="none" stroke="#404040" points="641.023,-370.303 634.06,-368.429 633.11,-361.281 640.074,-363.154 641.023,-370.303"/>
<text text-anchor="middle" x="732" y="-444" font-family="Helvetica,sans-Serif" font-size="10.00"> #special1</text>
<text text-anchor="middle" x="732" y="-433" font-family="Helvetica,sans-Serif" font-size="10.00">#special2</text>
</g>
<!-- Node13&#45;&gt;Node12 -->
<g id="edge14" class="edge"><title>Node13&#45;&gt;Node12</title>
<path fill="none" stroke="midnightblue" d="M734.669,-598.893C739.626,-586.454 744.939,-573.119 749.816,-560.879"/>
<polygon fill="none" stroke="midnightblue" points="731.411,-597.614 730.961,-608.199 737.914,-600.205 731.411,-597.614"/>
</g>
<!-- Node14&#45;&gt;Node13 -->
<g id="edge17" class="edge"><title>Node14&#45;&gt;Node13</title>
<path fill="none" stroke="#404040" d="M639.648,-741.049C648.097,-729.106 656.864,-717.137 665.5,-706 667.766,-703.078 670.137,-700.11 672.563,-697.143"/>
<polygon fill="none" stroke="#404040" points="672.74,-696.931 673.517,-689.761 680.433,-687.721 679.657,-694.89 672.74,-696.931"/>
<text text-anchor="middle" x="688.5" y="-709" font-family="Helvetica,sans-Serif" font-size="10.00"> #manager</text>
</g>
<!-- Node15&#45;&gt;Node3 -->
<g id="edge31" class="edge"><title>Node15&#45;&gt;Node3</title>
<path fill="none" stroke="#404040" d="M428.188,-994.732C403.333,-977.265 376.239,-953.479 360.5,-925 357.228,-919.079 297.5,-448.765 297.5,-442 297.5,-442 297.5,-442 297.5,-133 297.5,-111.556 292.693,-88.1906 287.474,-69.1433"/>
<polygon fill="none" stroke="#404040" points="287.47,-69.1296 281.954,-64.4842 284.121,-57.6063 289.636,-62.2516 287.47,-69.1296"/>
<text text-anchor="middle" x="343.5" y="-513" font-family="Helvetica,sans-Serif" font-size="10.00"> +activePlayer</text>
</g>
<!-- Node15&#45;&gt;Node14 -->
<g id="edge22" class="edge"><title>Node15&#45;&gt;Node14</title>
<path fill="none" stroke="#404040" d="M506.393,-972.103C510.557,-962.321 515.019,-952.298 519.5,-943 520.676,-940.56 521.881,-938.098 523.108,-935.623"/>
<polygon fill="none" stroke="#404040" points="523.214,-935.415 522.348,-928.256 528.623,-924.703 529.489,-931.862 523.214,-935.415"/>
<text text-anchor="middle" x="536" y="-946" font-family="Helvetica,sans-Serif" font-size="10.00"> &#45;player</text>
</g>
<!-- Node16 -->
<g id="node14" class="node"><title>Node16</title>
<polygon fill="none" stroke="#bfbfbf" points="526,-487 526,-544 587,-544 587,-487 526,-487"/>
<text text-anchor="middle" x="556.5" y="-532" font-family="Helvetica,sans-Serif" font-size="10.00">Texture2D</text>
<polyline fill="none" stroke="#bfbfbf" points="526,-525 587,-525 "/>
<text text-anchor="middle" x="556.5" y="-513" font-family="Helvetica,sans-Serif" font-size="10.00"> </text>
<polyline fill="none" stroke="#bfbfbf" points="526,-506 587,-506 "/>
<text text-anchor="middle" x="556.5" y="-494" font-family="Helvetica,sans-Serif" font-size="10.00"> </text>
</g>
<!-- Node16&#45;&gt;Node10 -->
<g id="edge28" class="edge"><title>Node16&#45;&gt;Node10</title>
<path fill="none" stroke="#404040" d="M559.54,-486.686C561.406,-470.191 563.925,-448.882 566.5,-430 566.781,-427.939 567.068,-425.86 567.359,-423.766"/>
<polygon fill="none" stroke="#404040" points="567.394,-423.524 564.275,-417.022 569.077,-411.643 572.196,-418.145 567.394,-423.524"/>
<text text-anchor="middle" x="584" y="-438.5" font-family="Helvetica,sans-Serif" font-size="10.00"> #image</text>
</g>
</g>
</svg>
        <g id="navigator" transform="translate(0 0)" fill="#404254">
                <rect fill="#f2f5e9" fill-opacity="0.5" stroke="#606060" stroke-width=".5" x="0" y="0" width="60" height="60"/>
                <use id="zoomplus" xlink:href="#zoomPlus" x="17" y="9" onmousedown="handleZoom(evt,'in')"/>
                <use id="zoomminus" xlink:href="#zoomMin" x="42" y="9" onmousedown="handleZoom(evt,'out')"/>
                <use id="reset" xlink:href="#resetDef" x="30" y="36" onmousedown="handleReset()"/>
                <g id="arrowUp" xlink:href="#dirArrow" transform="translate(30 24)" onmousedown="handlePan(0,-1)">
                  <use xlink:href="#rim" fill="#404040">
                        <set attributeName="fill" to="#808080" begin="arrowUp.mouseover" end="arrowUp.mouseout"/>
                  </use>
                  <path fill="none" stroke="white" stroke-width="1.5" d="M0,-3.0v7 M-2.5,-0.5L0,-3.0L2.5,-0.5"/>
                </g>
                <g id="arrowRight" xlink:href="#dirArrow" transform="rotate(90) translate(36 -43)" onmousedown="handlePan(1,0)">
                  <use xlink:href="#rim" fill="#404040">
                        <set attributeName="fill" to="#808080" begin="arrowRight.mouseover" end="arrowRight.mouseout"/>
                  </use>
                  <path fill="none" stroke="white" stroke-width="1.5" d="M0,-3.0v7 M-2.5,-0.5L0,-3.0L2.5,-0.5"/>
                </g>
                <g id="arrowDown" xlink:href="#dirArrow" transform="rotate(180) translate(-30 -48)" onmousedown="handlePan(0,1)">
                  <use xlink:href="#rim" fill="#404040">
                        <set attributeName="fill" to="#808080" begin="arrowDown.mouseover" end="arrowDown.mouseout"/>
                  </use>
                  <path fill="none" stroke="white" stroke-width="1.5" d="M0,-3.0v7 M-2.5,-0.5L0,-3.0L2.5,-0.5"/>
                </g>
                <g id="arrowLeft" xlink:href="#dirArrow" transform="rotate(270) translate(-36 17)" onmousedown="handlePan(-1,0)">
                  <use xlink:href="#rim" fill="#404040">
                        <set attributeName="fill" to="#808080" begin="arrowLeft.mouseover" end="arrowLeft.mouseout"/>
                  </use>
                  <path fill="none" stroke="white" stroke-width="1.5" d="M0,-3.0v7 M-2.5,-0.5L0,-3.0L2.5,-0.5"/>
                </g>
        </g>
        <svg viewBox="0 0 15 15" width="100%" height="30px" preserveAspectRatio="xMaxYMin meet">
         <g id="arrow_out" transform="scale(0.3 0.3)">
          <a xlink:href="class_battle_ended_event_args__coll__graph_org.svg" target="_base">
           <rect id="button" ry="5" rx="5" y="6" x="6" height="38" width="38"
                fill="#f2f5e9" fill-opacity="0.5" stroke="#606060" stroke-width="1.0"/>
           <path id="arrow"
             d="M 11.500037,31.436501 C 11.940474,20.09759 22.043105,11.32322 32.158766,21.979434 L 37.068811,17.246167 C 37.068811,17.246167 37.088388,32 37.088388,32 L 22.160133,31.978069 C 22.160133,31.978069 26.997745,27.140456 26.997745,27.140456 C 18.528582,18.264221 13.291696,25.230495 11.500037,31.436501 z"
             style="fill:#404040;"/>
          </a>
         </g>
        </svg>
</svg>
