<?xml version="1.0" encoding="UTF-8" standalone="no"?>
<!DOCTYPE svg PUBLIC "-//W3C//DTD SVG 1.1//EN"
 "http://www.w3.org/Graphics/SVG/1.1/DTD/svg11.dtd">
<!-- Generated by graphviz version 2.38.0 (20140413.2041)
 -->
<!-- Title: Countdown Pages: 1 -->
<!--zoomable 182 -->
<svg id="main" version="1.1" xmlns="http://www.w3.org/2000/svg" xmlns:xlink="http://www.w3.org/1999/xlink" xml:space="preserve" onload="init(evt)">
<style type="text/css"><![CDATA[
.edge:hover path { stroke: red; }
.edge:hover polygon { stroke: red; fill: red; }
]]></style>
<script type="text/javascript"><![CDATA[
var edges = document.getElementsByTagName('g');
if (edges && edges.length) {
  for (var i=0;i<edges.length;i++) {
    if (edges[i].id.substr(0,4)=='edge') {
      edges[i].setAttribute('class','edge');
    }
  }
}
]]></script>
        <defs>
                <circle id="rim" cx="0" cy="0" r="7"/>
                <circle id="rim2" cx="0" cy="0" r="3.5"/>
                <g id="zoomPlus">
                        <use xlink:href="#rim" fill="#404040">
                                <set attributeName="fill" to="#808080" begin="zoomplus.mouseover" end="zoomplus.mouseout"/>
                        </use>
                        <path d="M-4,0h8M0,-4v8" fill="none" stroke="white" stroke-width="1.5" pointer-events="none"/>
                </g>
                <g id="zoomMin">
                        <use xlink:href="#rim" fill="#404040">
                                <set attributeName="fill" to="#808080" begin="zoomminus.mouseover" end="zoomminus.mouseout"/>
                        </use>
                        <path d="M-4,0h8" fill="none" stroke="white" stroke-width="1.5" pointer-events="none"/>
                </g>
                <g id="dirArrow">
                        <path fill="none" stroke="white" stroke-width="1.5" d="M0,-3.0v7 M-2.5,-0.5L0,-3.0L2.5,-0.5"/>
                </g>
               <g id="resetDef">
                       <use xlink:href="#rim2" fill="#404040">
                               <set attributeName="fill" to="#808080" begin="reset.mouseover" end="reset.mouseout"/>
                       </use>
               </g>
        </defs>

<script type="text/javascript">
var viewWidth = 611;
var viewHeight = 182;
var sectionId = 'dynsection-1';
</script>
<script xlink:href="svgpan.js"/>
<svg id="graph" class="graph">
<g id="viewport">
<title>Countdown</title>
<!-- Node2 -->
<g id="node1" class="node"><title>Node2</title>
<polygon fill="#bfbfbf" stroke="black" points="243,-0.5 243,-68.5 344,-68.5 344,-0.5 243,-0.5"/>
<text text-anchor="middle" x="293.5" y="-56.5" font-family="Helvetica,sans-Serif" font-size="10.00">Countdown</text>
<polyline fill="none" stroke="black" points="243,-49.5 344,-49.5 "/>
<text text-anchor="middle" x="293.5" y="-37.5" font-family="Helvetica,sans-Serif" font-size="10.00"> </text>
<polyline fill="none" stroke="black" points="243,-30.5 344,-30.5 "/>
<text text-anchor="start" x="251" y="-18.5" font-family="Helvetica,sans-Serif" font-size="10.00">+ StartCountdown()</text>
<text text-anchor="start" x="251" y="-7.5" font-family="Helvetica,sans-Serif" font-size="10.00">+ Update()</text>
</g>
<!-- Node3 -->
<g id="node2" class="node"><title>Node3</title>
<g id="a_node2"><a xlink:href="class_mono_behaviour.html" target="_top" xlink:title="{MonoBehaviour\n||}">
<polygon fill="none" stroke="black" points="0,-116.5 0,-173.5 83,-173.5 83,-116.5 0,-116.5"/>
<text text-anchor="middle" x="41.5" y="-161.5" font-family="Helvetica,sans-Serif" font-size="10.00">MonoBehaviour</text>
<polyline fill="none" stroke="black" points="0,-154.5 83,-154.5 "/>
<text text-anchor="middle" x="41.5" y="-142.5" font-family="Helvetica,sans-Serif" font-size="10.00"> </text>
<polyline fill="none" stroke="black" points="0,-135.5 83,-135.5 "/>
<text text-anchor="middle" x="41.5" y="-123.5" font-family="Helvetica,sans-Serif" font-size="10.00"> </text>
</a>
</g>
</g>
<!-- Node3&#45;&gt;Node2 -->
<g id="edge1" class="edge"><title>Node3&#45;&gt;Node2</title>
<path fill="none" stroke="midnightblue" d="M92.2141,-116.149C92.3095,-116.099 92.4048,-116.05 92.5,-116 118.424,-102.521 124.615,-98.4424 151.5,-87 181.3,-74.317 215.395,-61.8854 242.706,-52.4145"/>
<polygon fill="none" stroke="midnightblue" points="90.3758,-113.161 83.1659,-120.925 93.6434,-119.352 90.3758,-113.161"/>
</g>
<!-- Node4 -->
<g id="node3" class="node"><title>Node4</title>
<polygon fill="none" stroke="#bfbfbf" points="101.5,-116.5 101.5,-173.5 159.5,-173.5 159.5,-116.5 101.5,-116.5"/>
<text text-anchor="middle" x="130.5" y="-161.5" font-family="Helvetica,sans-Serif" font-size="10.00">AudioClip</text>
<polyline fill="none" stroke="#bfbfbf" points="101.5,-154.5 159.5,-154.5 "/>
<text text-anchor="middle" x="130.5" y="-142.5" font-family="Helvetica,sans-Serif" font-size="10.00"> </text>
<polyline fill="none" stroke="#bfbfbf" points="101.5,-135.5 159.5,-135.5 "/>
<text text-anchor="middle" x="130.5" y="-123.5" font-family="Helvetica,sans-Serif" font-size="10.00"> </text>
</g>
<!-- Node4&#45;&gt;Node2 -->
<g id="edge2" class="edge"><title>Node4&#45;&gt;Node2</title>
<path fill="none" stroke="#404040" d="M142.27,-116.39C147.783,-106.063 155.209,-94.9281 164.5,-87 183.558,-70.7382 208.393,-59.1936 231.177,-51.2157"/>
<polygon fill="none" stroke="#404040" points="231.467,-51.1202 235.913,-45.4426 242.863,-47.3628 238.418,-53.0403 231.467,-51.1202"/>
<text text-anchor="middle" x="209" y="-90" font-family="Helvetica,sans-Serif" font-size="10.00"> +countdownSounds</text>
</g>
<!-- Node5 -->
<g id="node4" class="node"><title>Node5</title>
<polygon fill="none" stroke="#bfbfbf" points="221,-116.5 221,-173.5 256,-173.5 256,-116.5 221,-116.5"/>
<text text-anchor="middle" x="238.5" y="-161.5" font-family="Helvetica,sans-Serif" font-size="10.00">float</text>
<polyline fill="none" stroke="#bfbfbf" points="221,-154.5 256,-154.5 "/>
<text text-anchor="middle" x="238.5" y="-142.5" font-family="Helvetica,sans-Serif" font-size="10.00"> </text>
<polyline fill="none" stroke="#bfbfbf" points="221,-135.5 256,-135.5 "/>
<text text-anchor="middle" x="238.5" y="-123.5" font-family="Helvetica,sans-Serif" font-size="10.00"> </text>
</g>
<!-- Node5&#45;&gt;Node2 -->
<g id="edge3" class="edge"><title>Node5&#45;&gt;Node2</title>
<path fill="none" stroke="#404040" d="M249.194,-116.384C253.098,-106.932 257.733,-96.3807 262.5,-87 263.796,-84.4488 265.171,-81.8533 266.592,-79.2522"/>
<polygon fill="none" stroke="#404040" points="266.696,-79.0672 266.175,-71.875 272.613,-68.627 273.135,-75.8192 266.696,-79.0672"/>
<text text-anchor="middle" x="276.5" y="-90" font-family="Helvetica,sans-Serif" font-size="10.00"> &#45;timer</text>
</g>
<!-- Node6 -->
<g id="node5" class="node"><title>Node6</title>
<polygon fill="none" stroke="#bfbfbf" points="274.5,-116.5 274.5,-173.5 322.5,-173.5 322.5,-116.5 274.5,-116.5"/>
<text text-anchor="middle" x="298.5" y="-161.5" font-family="Helvetica,sans-Serif" font-size="10.00">Color []</text>
<polyline fill="none" stroke="#bfbfbf" points="274.5,-154.5 322.5,-154.5 "/>
<text text-anchor="middle" x="298.5" y="-142.5" font-family="Helvetica,sans-Serif" font-size="10.00"> </text>
<polyline fill="none" stroke="#bfbfbf" points="274.5,-135.5 322.5,-135.5 "/>
<text text-anchor="middle" x="298.5" y="-123.5" font-family="Helvetica,sans-Serif" font-size="10.00"> </text>
</g>
<!-- Node6&#45;&gt;Node2 -->
<g id="edge4" class="edge"><title>Node6&#45;&gt;Node2</title>
<path fill="none" stroke="#404040" d="M295.771,-116.292C295.267,-110.267 294.805,-103.924 294.5,-98 294.217,-92.4863 294.006,-86.6957 293.851,-80.956"/>
<polygon fill="none" stroke="#404040" points="293.844,-80.597 289.719,-74.6818 293.593,-68.5996 297.718,-74.5147 293.844,-80.597"/>
<text text-anchor="middle" x="339" y="-90" font-family="Helvetica,sans-Serif" font-size="10.00"> +countdownColours</text>
</g>
<!-- Node7 -->
<g id="node6" class="node"><title>Node7</title>
<polygon fill="none" stroke="#bfbfbf" points="388,-116.5 388,-173.5 423,-173.5 423,-116.5 388,-116.5"/>
<text text-anchor="middle" x="405.5" y="-161.5" font-family="Helvetica,sans-Serif" font-size="10.00">bool</text>
<polyline fill="none" stroke="#bfbfbf" points="388,-154.5 423,-154.5 "/>
<text text-anchor="middle" x="405.5" y="-142.5" font-family="Helvetica,sans-Serif" font-size="10.00"> </text>
<polyline fill="none" stroke="#bfbfbf" points="388,-135.5 423,-135.5 "/>
<text text-anchor="middle" x="405.5" y="-123.5" font-family="Helvetica,sans-Serif" font-size="10.00"> </text>
</g>
<!-- Node7&#45;&gt;Node2 -->
<g id="edge5" class="edge"><title>Node7&#45;&gt;Node2</title>
<path fill="none" stroke="#404040" d="M399.045,-116.429C395.667,-106.344 390.688,-95.3681 383.5,-87 375.494,-77.68 365.36,-69.669 354.802,-62.9314"/>
<polygon fill="none" stroke="#404040" points="354.484,-62.7427 347.282,-63.1195 344.165,-56.6171 351.366,-56.2403 354.484,-62.7427"/>
<text text-anchor="middle" x="434" y="-90" font-family="Helvetica,sans-Serif" font-size="10.00"> &#45;countdownStarted</text>
</g>
<!-- Node8 -->
<g id="node7" class="node"><title>Node8</title>
<polygon fill="none" stroke="#bfbfbf" points="477.5,-116.5 477.5,-173.5 549.5,-173.5 549.5,-116.5 477.5,-116.5"/>
<text text-anchor="middle" x="513.5" y="-161.5" font-family="Helvetica,sans-Serif" font-size="10.00">AudioSource</text>
<polyline fill="none" stroke="#bfbfbf" points="477.5,-154.5 549.5,-154.5 "/>
<text text-anchor="middle" x="513.5" y="-142.5" font-family="Helvetica,sans-Serif" font-size="10.00"> </text>
<polyline fill="none" stroke="#bfbfbf" points="477.5,-135.5 549.5,-135.5 "/>
<text text-anchor="middle" x="513.5" y="-123.5" font-family="Helvetica,sans-Serif" font-size="10.00"> </text>
</g>
<!-- Node8&#45;&gt;Node2 -->
<g id="edge6" class="edge"><title>Node8&#45;&gt;Node2</title>
<path fill="none" stroke="#404040" d="M502.966,-116.441C497.677,-105.87 490.276,-94.5459 480.5,-87 444.824,-59.4619 395.341,-46.6416 356.237,-40.677"/>
<polygon fill="none" stroke="#404040" points="356.086,-40.656 349.592,-43.7921 344.2,-39.0043 350.693,-35.8682 356.086,-40.656"/>
<text text-anchor="middle" x="514" y="-90" font-family="Helvetica,sans-Serif" font-size="10.00"> &#45;audioSrc</text>
</g>
<!-- Node9 -->
<g id="node8" class="node"><title>Node9</title>
<polygon fill="none" stroke="#bfbfbf" points="568,-116.5 568,-173.5 603,-173.5 603,-116.5 568,-116.5"/>
<text text-anchor="middle" x="585.5" y="-161.5" font-family="Helvetica,sans-Serif" font-size="10.00">Text</text>
<polyline fill="none" stroke="#bfbfbf" points="568,-154.5 603,-154.5 "/>
<text text-anchor="middle" x="585.5" y="-142.5" font-family="Helvetica,sans-Serif" font-size="10.00"> </text>
<polyline fill="none" stroke="#bfbfbf" points="568,-135.5 603,-135.5 "/>
<text text-anchor="middle" x="585.5" y="-123.5" font-family="Helvetica,sans-Serif" font-size="10.00"> </text>
</g>
<!-- Node9&#45;&gt;Node2 -->
<g id="edge7" class="edge"><title>Node9&#45;&gt;Node2</title>
<path fill="none" stroke="#404040" d="M569.588,-116.353C562.08,-105.637 552.187,-94.2303 540.5,-87 484.459,-52.3294 408.985,-40.6225 356.271,-36.863"/>
<polygon fill="none" stroke="#404040" points="356.031,-36.8482 349.794,-40.4686 344.054,-36.1043 350.29,-32.484 356.031,-36.8482"/>
<text text-anchor="middle" x="565" y="-90" font-family="Helvetica,sans-Serif" font-size="10.00"> &#45;text</text>
</g>
</g>
</svg>
        <g id="navigator" transform="translate(0 0)" fill="#404254">
                <rect fill="#f2f5e9" fill-opacity="0.5" stroke="#606060" stroke-width=".5" x="0" y="0" width="60" height="60"/>
                <use id="zoomplus" xlink:href="#zoomPlus" x="17" y="9" onmousedown="handleZoom(evt,'in')"/>
                <use id="zoomminus" xlink:href="#zoomMin" x="42" y="9" onmousedown="handleZoom(evt,'out')"/>
                <use id="reset" xlink:href="#resetDef" x="30" y="36" onmousedown="handleReset()"/>
                <g id="arrowUp" xlink:href="#dirArrow" transform="translate(30 24)" onmousedown="handlePan(0,-1)">
                  <use xlink:href="#rim" fill="#404040">
                        <set attributeName="fill" to="#808080" begin="arrowUp.mouseover" end="arrowUp.mouseout"/>
                  </use>
                  <path fill="none" stroke="white" stroke-width="1.5" d="M0,-3.0v7 M-2.5,-0.5L0,-3.0L2.5,-0.5"/>
                </g>
                <g id="arrowRight" xlink:href="#dirArrow" transform="rotate(90) translate(36 -43)" onmousedown="handlePan(1,0)">
                  <use xlink:href="#rim" fill="#404040">
                        <set attributeName="fill" to="#808080" begin="arrowRight.mouseover" end="arrowRight.mouseout"/>
                  </use>
                  <path fill="none" stroke="white" stroke-width="1.5" d="M0,-3.0v7 M-2.5,-0.5L0,-3.0L2.5,-0.5"/>
                </g>
                <g id="arrowDown" xlink:href="#dirArrow" transform="rotate(180) translate(-30 -48)" onmousedown="handlePan(0,1)">
                  <use xlink:href="#rim" fill="#404040">
                        <set attributeName="fill" to="#808080" begin="arrowDown.mouseover" end="arrowDown.mouseout"/>
                  </use>
                  <path fill="none" stroke="white" stroke-width="1.5" d="M0,-3.0v7 M-2.5,-0.5L0,-3.0L2.5,-0.5"/>
                </g>
                <g id="arrowLeft" xlink:href="#dirArrow" transform="rotate(270) translate(-36 17)" onmousedown="handlePan(-1,0)">
                  <use xlink:href="#rim" fill="#404040">
                        <set attributeName="fill" to="#808080" begin="arrowLeft.mouseover" end="arrowLeft.mouseout"/>
                  </use>
                  <path fill="none" stroke="white" stroke-width="1.5" d="M0,-3.0v7 M-2.5,-0.5L0,-3.0L2.5,-0.5"/>
                </g>
        </g>
        <svg viewBox="0 0 15 15" width="100%" height="30px" preserveAspectRatio="xMaxYMin meet">
         <g id="arrow_out" transform="scale(0.3 0.3)">
          <a xlink:href="class_countdown__coll__graph_org.svg" target="_base">
           <rect id="button" ry="5" rx="5" y="6" x="6" height="38" width="38"
                fill="#f2f5e9" fill-opacity="0.5" stroke="#606060" stroke-width="1.0"/>
           <path id="arrow"
             d="M 11.500037,31.436501 C 11.940474,20.09759 22.043105,11.32322 32.158766,21.979434 L 37.068811,17.246167 C 37.068811,17.246167 37.088388,32 37.088388,32 L 22.160133,31.978069 C 22.160133,31.978069 26.997745,27.140456 26.997745,27.140456 C 18.528582,18.264221 13.291696,25.230495 11.500037,31.436501 z"
             style="fill:#404040;"/>
          </a>
         </g>
        </svg>
</svg>
