<?xml version="1.0" encoding="UTF-8" standalone="no"?>
<!DOCTYPE svg PUBLIC "-//W3C//DTD SVG 1.1//EN"
 "http://www.w3.org/Graphics/SVG/1.1/DTD/svg11.dtd">
<!-- Generated by graphviz version 2.38.0 (20140413.2041)
 -->
<!-- Title: Shield Pages: 1 -->
<svg width="99pt" height="332pt"
 viewBox="0.00 0.00 98.50 332.00" xmlns="http://www.w3.org/2000/svg" xmlns:xlink="http://www.w3.org/1999/xlink">
<g id="graph0" class="graph" transform="scale(1 1) rotate(0) translate(4 328)">
<title>Shield</title>
<!-- Node2 -->
<g id="node1" class="node"><title>Node2</title>
<polygon fill="#bfbfbf" stroke="black" points="8,-0.5 8,-79.5 85,-79.5 85,-0.5 8,-0.5"/>
<text text-anchor="middle" x="46.5" y="-67.5" font-family="Helvetica,sans-Serif" font-size="10.00">Shield</text>
<polyline fill="none" stroke="black" points="8,-60.5 85,-60.5 "/>
<text text-anchor="middle" x="46.5" y="-48.5" font-family="Helvetica,sans-Serif" font-size="10.00"> </text>
<polyline fill="none" stroke="black" points="8,-41.5 85,-41.5 "/>
<text text-anchor="start" x="16" y="-29.5" font-family="Helvetica,sans-Serif" font-size="10.00">+ Shield()</text>
<text text-anchor="start" x="16" y="-18.5" font-family="Helvetica,sans-Serif" font-size="10.00">+ applyBuffs()</text>
<text text-anchor="start" x="16" y="-7.5" font-family="Helvetica,sans-Serif" font-size="10.00">+ revertBuffs()</text>
</g>
<!-- Node3 -->
<g id="node2" class="node"><title>Node3</title>
<g id="a_node2"><a xlink:href="class_item.html" target="_top" xlink:title="Abstract class for items that can be equipped to a player, increasing some of their stats ...">
<polygon fill="none" stroke="black" points="8,-117.5 8,-207.5 85,-207.5 85,-117.5 8,-117.5"/>
<text text-anchor="middle" x="46.5" y="-195.5" font-family="Helvetica,sans-Serif" font-size="10.00">Item</text>
<polyline fill="none" stroke="black" points="8,-188.5 85,-188.5 "/>
<text text-anchor="start" x="16" y="-176.5" font-family="Helvetica,sans-Serif" font-size="10.00">+ Name</text>
<text text-anchor="start" x="16" y="-165.5" font-family="Helvetica,sans-Serif" font-size="10.00">+ Desc</text>
<text text-anchor="start" x="16" y="-154.5" font-family="Helvetica,sans-Serif" font-size="10.00">+ Cost</text>
<polyline fill="none" stroke="black" points="8,-147.5 85,-147.5 "/>
<text text-anchor="start" x="16" y="-135.5" font-family="Helvetica,sans-Serif" font-size="10.00">+ applyBuffs()</text>
<text text-anchor="start" x="16" y="-124.5" font-family="Helvetica,sans-Serif" font-size="10.00">+ revertBuffs()</text>
</a>
</g>
</g>
<!-- Node3&#45;&gt;Node2 -->
<g id="edge1" class="edge"><title>Node3&#45;&gt;Node2</title>
<path fill="none" stroke="midnightblue" d="M46.5,-107.303C46.5,-97.966 46.5,-88.4333 46.5,-79.6138"/>
<polygon fill="none" stroke="midnightblue" points="43.0001,-107.314 46.5,-117.314 50.0001,-107.315 43.0001,-107.314"/>
</g>
<!-- Node4 -->
<g id="node3" class="node"><title>Node4</title>
<polygon fill="none" stroke="#bfbfbf" points="0,-266.5 0,-323.5 41,-323.5 41,-266.5 0,-266.5"/>
<text text-anchor="middle" x="20.5" y="-311.5" font-family="Helvetica,sans-Serif" font-size="10.00">string</text>
<polyline fill="none" stroke="#bfbfbf" points="0,-304.5 41,-304.5 "/>
<text text-anchor="middle" x="20.5" y="-292.5" font-family="Helvetica,sans-Serif" font-size="10.00"> </text>
<polyline fill="none" stroke="#bfbfbf" points="0,-285.5 41,-285.5 "/>
<text text-anchor="middle" x="20.5" y="-273.5" font-family="Helvetica,sans-Serif" font-size="10.00"> </text>
</g>
<!-- Node4&#45;&gt;Node3 -->
<g id="edge2" class="edge"><title>Node4&#45;&gt;Node3</title>
<path fill="none" stroke="#404040" d="M18.6356,-266.297C18.3789,-253.864 18.8807,-239.082 21.5,-226 21.956,-223.722 22.4919,-221.422 23.0925,-219.116"/>
<polygon fill="none" stroke="#404040" points="23.096,-219.104 21.0012,-212.203 26.5648,-207.616 28.6597,-214.516 23.096,-219.104"/>
<text text-anchor="middle" x="36.5" y="-240" font-family="Helvetica,sans-Serif" font-size="10.00"> #desc</text>
<text text-anchor="middle" x="36.5" y="-229" font-family="Helvetica,sans-Serif" font-size="10.00">#name</text>
</g>
<!-- Node5 -->
<g id="node4" class="node"><title>Node5</title>
<polygon fill="none" stroke="#bfbfbf" points="59,-266.5 59,-323.5 88,-323.5 88,-266.5 59,-266.5"/>
<text text-anchor="middle" x="73.5" y="-311.5" font-family="Helvetica,sans-Serif" font-size="10.00">int</text>
<polyline fill="none" stroke="#bfbfbf" points="59,-304.5 88,-304.5 "/>
<text text-anchor="middle" x="73.5" y="-292.5" font-family="Helvetica,sans-Serif" font-size="10.00"> </text>
<polyline fill="none" stroke="#bfbfbf" points="59,-285.5 88,-285.5 "/>
<text text-anchor="middle" x="73.5" y="-273.5" font-family="Helvetica,sans-Serif" font-size="10.00"> </text>
</g>
<!-- Node5&#45;&gt;Node3 -->
<g id="edge3" class="edge"><title>Node5&#45;&gt;Node3</title>
<path fill="none" stroke="#404040" d="M67.774,-266.324C64.9615,-252.731 61.4662,-235.837 58.1268,-219.696"/>
<polygon fill="none" stroke="#404040" points="58.0488,-219.319 52.9161,-214.254 55.6174,-207.568 60.7502,-212.633 58.0488,-219.319"/>
<text text-anchor="middle" x="76.5" y="-234.5" font-family="Helvetica,sans-Serif" font-size="10.00"> #cost</text>
</g>
</g>
</svg>
