<?xml version="1.0" encoding="UTF-8" standalone="no"?>
<!DOCTYPE svg PUBLIC "-//W3C//DTD SVG 1.1//EN"
 "http://www.w3.org/Graphics/SVG/1.1/DTD/svg11.dtd">
<!-- Generated by graphviz version 2.38.0 (20140413.2041)
 -->
<!-- Title: EventArgs Pages: 1 -->
<svg width="1283pt" height="298pt"
 viewBox="0.00 0.00 1282.50 298.00" xmlns="http://www.w3.org/2000/svg" xmlns:xlink="http://www.w3.org/1999/xlink">
<g id="graph0" class="graph" transform="scale(1 1) rotate(0) translate(4 294)">
<title>EventArgs</title>
<!-- Node0 -->
<g id="node1" class="node"><title>Node0</title>
<polygon fill="#bfbfbf" stroke="black" points="615,-232.5 615,-289.5 676,-289.5 676,-232.5 615,-232.5"/>
<text text-anchor="middle" x="645.5" y="-277.5" font-family="Helvetica,sans-Serif" font-size="10.00">EventArgs</text>
<polyline fill="none" stroke="black" points="615,-270.5 676,-270.5 "/>
<text text-anchor="middle" x="645.5" y="-258.5" font-family="Helvetica,sans-Serif" font-size="10.00"> </text>
<polyline fill="none" stroke="black" points="615,-251.5 676,-251.5 "/>
<text text-anchor="middle" x="645.5" y="-239.5" font-family="Helvetica,sans-Serif" font-size="10.00"> </text>
</g>
<!-- Node1 -->
<g id="node2" class="node"><title>Node1</title>
<g id="a_node2"><a xlink:href="class_game_event_args.html" target="_top" xlink:title="Base class for passing arguments with game events ">
<polygon fill="none" stroke="black" points="602,-138.5 602,-195.5 689,-195.5 689,-138.5 602,-138.5"/>
<text text-anchor="middle" x="645.5" y="-183.5" font-family="Helvetica,sans-Serif" font-size="10.00">GameEventArgs</text>
<polyline fill="none" stroke="black" points="602,-176.5 689,-176.5 "/>
<text text-anchor="start" x="610" y="-164.5" font-family="Helvetica,sans-Serif" font-size="10.00">+ Empty</text>
<polyline fill="none" stroke="black" points="602,-157.5 689,-157.5 "/>
<text text-anchor="middle" x="645.5" y="-145.5" font-family="Helvetica,sans-Serif" font-size="10.00"> </text>
</a>
</g>
</g>
<!-- Node0&#45;&gt;Node1 -->
<g id="edge1" class="edge"><title>Node0&#45;&gt;Node1</title>
<path fill="none" stroke="midnightblue" d="M645.5,-222.209C645.5,-213.293 645.5,-203.951 645.5,-195.584"/>
<polygon fill="none" stroke="midnightblue" points="642,-222.397 645.5,-232.397 649,-222.397 642,-222.397"/>
</g>
<!-- Node2 -->
<g id="node3" class="node"><title>Node2</title>
<g id="a_node3"><a xlink:href="class_battle_ended_event_args.html" target="_top" xlink:title="GameEventArgs class to pass information about the end of a battle. ">
<polygon fill="none" stroke="black" points="0,-0.5 0,-101.5 129,-101.5 129,-0.5 0,-0.5"/>
<text text-anchor="middle" x="64.5" y="-89.5" font-family="Helvetica,sans-Serif" font-size="10.00">BattleEndedEventArgs</text>
<polyline fill="none" stroke="black" points="0,-82.5 129,-82.5 "/>
<text text-anchor="start" x="8" y="-70.5" font-family="Helvetica,sans-Serif" font-size="10.00">+ activePlayer</text>
<text text-anchor="start" x="8" y="-59.5" font-family="Helvetica,sans-Serif" font-size="10.00">+ enemy</text>
<text text-anchor="start" x="8" y="-48.5" font-family="Helvetica,sans-Serif" font-size="10.00">+ moneyReward</text>
<text text-anchor="start" x="8" y="-37.5" font-family="Helvetica,sans-Serif" font-size="10.00">+ itemReward</text>
<text text-anchor="start" x="8" y="-26.5" font-family="Helvetica,sans-Serif" font-size="10.00">+ location</text>
<polyline fill="none" stroke="black" points="0,-19.5 129,-19.5 "/>
<text text-anchor="start" x="8" y="-7.5" font-family="Helvetica,sans-Serif" font-size="10.00">+ BattleEndedEventArgs()</text>
</a>
</g>
</g>
<!-- Node1&#45;&gt;Node2 -->
<g id="edge2" class="edge"><title>Node1&#45;&gt;Node2</title>
<path fill="none" stroke="midnightblue" d="M591.455,-162.423C478.208,-154.404 219.697,-133.215 137.5,-102 134.771,-100.964 132.046,-99.806 129.338,-98.5504"/>
<polygon fill="none" stroke="midnightblue" points="591.407,-165.928 601.627,-163.135 591.896,-158.945 591.407,-165.928"/>
</g>
<!-- Node3 -->
<g id="node4" class="node"><title>Node3</title>
<g id="a_node4"><a xlink:href="class_battle_event_args.html" target="_top" xlink:title="GameEventArgs class to pass information about a battle ">
<polygon fill="none" stroke="black" points="147,-11.5 147,-90.5 248,-90.5 248,-11.5 147,-11.5"/>
<text text-anchor="middle" x="197.5" y="-78.5" font-family="Helvetica,sans-Serif" font-size="10.00">BattleEventArgs</text>
<polyline fill="none" stroke="black" points="147,-71.5 248,-71.5 "/>
<text text-anchor="start" x="155" y="-59.5" font-family="Helvetica,sans-Serif" font-size="10.00">+ activePlayer</text>
<text text-anchor="start" x="155" y="-48.5" font-family="Helvetica,sans-Serif" font-size="10.00">+ enemy</text>
<text text-anchor="start" x="155" y="-37.5" font-family="Helvetica,sans-Serif" font-size="10.00">+ location</text>
<polyline fill="none" stroke="black" points="147,-30.5 248,-30.5 "/>
<text text-anchor="start" x="155" y="-18.5" font-family="Helvetica,sans-Serif" font-size="10.00">+ BattleEventArgs()</text>
</a>
</g>
</g>
<!-- Node1&#45;&gt;Node3 -->
<g id="edge3" class="edge"><title>Node1&#45;&gt;Node3</title>
<path fill="none" stroke="midnightblue" d="M591.26,-165.907C513.783,-163.856 368.526,-152.799 257.5,-102 250.842,-98.9536 244.323,-94.9676 238.181,-90.5741"/>
<polygon fill="none" stroke="midnightblue" points="591.657,-169.417 601.732,-166.14 591.813,-162.418 591.657,-169.417"/>
</g>
<!-- Node4 -->
<g id="node5" class="node"><title>Node4</title>
<g id="a_node5"><a xlink:href="class_battle_move_args.html" target="_top" xlink:title="GameEventArgs class to pass information about a move performed by either the player or an enemy ...">
<polygon fill="none" stroke="black" points="266.5,-0.5 266.5,-101.5 366.5,-101.5 366.5,-0.5 266.5,-0.5"/>
<text text-anchor="middle" x="316.5" y="-89.5" font-family="Helvetica,sans-Serif" font-size="10.00">BattleMoveArgs</text>
<polyline fill="none" stroke="black" points="266.5,-82.5 366.5,-82.5 "/>
<text text-anchor="start" x="274.5" y="-70.5" font-family="Helvetica,sans-Serif" font-size="10.00">+ move</text>
<text text-anchor="start" x="274.5" y="-59.5" font-family="Helvetica,sans-Serif" font-size="10.00">+ wasCriticalHit</text>
<text text-anchor="start" x="274.5" y="-48.5" font-family="Helvetica,sans-Serif" font-size="10.00">+ damage</text>
<text text-anchor="start" x="274.5" y="-37.5" font-family="Helvetica,sans-Serif" font-size="10.00">+ location</text>
<text text-anchor="start" x="274.5" y="-26.5" font-family="Helvetica,sans-Serif" font-size="10.00">&#45; magicUsed</text>
<polyline fill="none" stroke="black" points="266.5,-19.5 366.5,-19.5 "/>
<text text-anchor="start" x="274.5" y="-7.5" font-family="Helvetica,sans-Serif" font-size="10.00">+ BattleMoveArgs()</text>
</a>
</g>
</g>
<!-- Node1&#45;&gt;Node4 -->
<g id="edge4" class="edge"><title>Node1&#45;&gt;Node4</title>
<path fill="none" stroke="midnightblue" d="M591.607,-160.739C535.209,-153.555 445.323,-137.282 375.5,-102 372.504,-100.486 369.531,-98.7912 366.604,-96.9648"/>
<polygon fill="none" stroke="midnightblue" points="591.385,-164.237 601.736,-161.977 592.235,-157.289 591.385,-164.237"/>
</g>
<!-- Node5 -->
<g id="node6" class="node"><title>Node5</title>
<g id="a_node6"><a xlink:href="class_battle_started_event_args.html" target="_top" xlink:title="GameEventArgs class to pass infomation about the start of a battle. See GlobalFunctions.createBattle ">
<polygon fill="none" stroke="black" points="385,-0.5 385,-101.5 518,-101.5 518,-0.5 385,-0.5"/>
<text text-anchor="middle" x="451.5" y="-89.5" font-family="Helvetica,sans-Serif" font-size="10.00">BattleStartedEventArgs</text>
<polyline fill="none" stroke="black" points="385,-82.5 518,-82.5 "/>
<text text-anchor="start" x="393" y="-70.5" font-family="Helvetica,sans-Serif" font-size="10.00">+ enemy</text>
<text text-anchor="start" x="393" y="-59.5" font-family="Helvetica,sans-Serif" font-size="10.00">+ moneyReward</text>
<text text-anchor="start" x="393" y="-48.5" font-family="Helvetica,sans-Serif" font-size="10.00">+ itemReward</text>
<text text-anchor="start" x="393" y="-37.5" font-family="Helvetica,sans-Serif" font-size="10.00">+ canRunAway</text>
<text text-anchor="start" x="393" y="-26.5" font-family="Helvetica,sans-Serif" font-size="10.00">+ location</text>
<polyline fill="none" stroke="black" points="385,-19.5 518,-19.5 "/>
<text text-anchor="start" x="393" y="-7.5" font-family="Helvetica,sans-Serif" font-size="10.00">+ BattleStartedEventArgs()</text>
</a>
</g>
</g>
<!-- Node1&#45;&gt;Node5 -->
<g id="edge5" class="edge"><title>Node1&#45;&gt;Node5</title>
<path fill="none" stroke="midnightblue" d="M592.919,-138.713C572.3,-127.694 548.576,-114.618 527.5,-102 524.383,-100.134 521.213,-98.1999 518.024,-96.2247"/>
<polygon fill="none" stroke="midnightblue" points="591.378,-141.858 601.85,-143.462 594.664,-135.677 591.378,-141.858"/>
</g>
<!-- Node6 -->
<g id="node7" class="node"><title>Node6</title>
<g id="a_node7"><a xlink:href="class_beat_level_args.html" target="_top" xlink:title="{BeatLevelArgs\n|+ scene\l+ level\l+ levelNum\l|+ BeatLevelArgs()\l}">
<polygon fill="none" stroke="black" points="536.5,-11.5 536.5,-90.5 630.5,-90.5 630.5,-11.5 536.5,-11.5"/>
<text text-anchor="middle" x="583.5" y="-78.5" font-family="Helvetica,sans-Serif" font-size="10.00">BeatLevelArgs</text>
<polyline fill="none" stroke="black" points="536.5,-71.5 630.5,-71.5 "/>
<text text-anchor="start" x="544.5" y="-59.5" font-family="Helvetica,sans-Serif" font-size="10.00">+ scene</text>
<text text-anchor="start" x="544.5" y="-48.5" font-family="Helvetica,sans-Serif" font-size="10.00">+ level</text>
<text text-anchor="start" x="544.5" y="-37.5" font-family="Helvetica,sans-Serif" font-size="10.00">+ levelNum</text>
<polyline fill="none" stroke="black" points="536.5,-30.5 630.5,-30.5 "/>
<text text-anchor="start" x="544.5" y="-18.5" font-family="Helvetica,sans-Serif" font-size="10.00">+ BeatLevelArgs()</text>
</a>
</g>
</g>
<!-- Node1&#45;&gt;Node6 -->
<g id="edge6" class="edge"><title>Node1&#45;&gt;Node6</title>
<path fill="none" stroke="midnightblue" d="M625.525,-129.272C618.794,-116.895 611.265,-103.053 604.461,-90.5406"/>
<polygon fill="none" stroke="midnightblue" points="622.639,-131.291 630.492,-138.404 628.788,-127.947 622.639,-131.291"/>
</g>
<!-- Node7 -->
<g id="node8" class="node"><title>Node7</title>
<g id="a_node8"><a xlink:href="class_character_event_args.html" target="_top" xlink:title="GameEventArgs class to pass a Character with an event ">
<polygon fill="none" stroke="black" points="648.5,-22.5 648.5,-79.5 766.5,-79.5 766.5,-22.5 648.5,-22.5"/>
<text text-anchor="middle" x="707.5" y="-67.5" font-family="Helvetica,sans-Serif" font-size="10.00">CharacterEventArgs</text>
<polyline fill="none" stroke="black" points="648.5,-60.5 766.5,-60.5 "/>
<text text-anchor="start" x="656.5" y="-48.5" font-family="Helvetica,sans-Serif" font-size="10.00">+ character</text>
<polyline fill="none" stroke="black" points="648.5,-41.5 766.5,-41.5 "/>
<text text-anchor="start" x="656.5" y="-29.5" font-family="Helvetica,sans-Serif" font-size="10.00">+ CharacterEventArgs()</text>
</a>
</g>
</g>
<!-- Node1&#45;&gt;Node7 -->
<g id="edge7" class="edge"><title>Node1&#45;&gt;Node7</title>
<path fill="none" stroke="midnightblue" d="M665.477,-129.268C674.222,-113.188 684.313,-94.6332 692.415,-79.7372"/>
<polygon fill="none" stroke="midnightblue" points="662.212,-127.947 660.508,-138.404 668.361,-131.291 662.212,-127.947"/>
</g>
<!-- Node8 -->
<g id="node9" class="node"><title>Node8</title>
<g id="a_node9"><a xlink:href="class_int_changed_args.html" target="_top" xlink:title="GameEventArgs class to pass information that a value changed ">
<polygon fill="none" stroke="black" points="785,-17 785,-85 886,-85 886,-17 785,-17"/>
<text text-anchor="middle" x="835.5" y="-73" font-family="Helvetica,sans-Serif" font-size="10.00">IntChangedArgs</text>
<polyline fill="none" stroke="black" points="785,-66 886,-66 "/>
<text text-anchor="start" x="793" y="-54" font-family="Helvetica,sans-Serif" font-size="10.00">+ oldValue</text>
<text text-anchor="start" x="793" y="-43" font-family="Helvetica,sans-Serif" font-size="10.00">&#45; newValue</text>
<polyline fill="none" stroke="black" points="785,-36 886,-36 "/>
<text text-anchor="start" x="793" y="-24" font-family="Helvetica,sans-Serif" font-size="10.00">+ IntChangedArgs()</text>
</a>
</g>
</g>
<!-- Node1&#45;&gt;Node8 -->
<g id="edge8" class="edge"><title>Node1&#45;&gt;Node8</title>
<path fill="none" stroke="midnightblue" d="M698.438,-143.416C722.659,-132.216 751.289,-117.728 775.5,-102 783.232,-96.977 791.09,-91.0947 798.461,-85.1639"/>
<polygon fill="none" stroke="midnightblue" points="696.693,-140.365 689.046,-147.697 699.597,-146.734 696.693,-140.365"/>
</g>
<!-- Node9 -->
<g id="node10" class="node"><title>Node9</title>
<g id="a_node10"><a xlink:href="class_interaction_args.html" target="_top" xlink:title="GameEventArgs class to pass information about an interaction the player makes ">
<polygon fill="none" stroke="black" points="904,-11.5 904,-90.5 1001,-90.5 1001,-11.5 904,-11.5"/>
<text text-anchor="middle" x="952.5" y="-78.5" font-family="Helvetica,sans-Serif" font-size="10.00">InteractionArgs</text>
<polyline fill="none" stroke="black" points="904,-71.5 1001,-71.5 "/>
<text text-anchor="start" x="912" y="-59.5" font-family="Helvetica,sans-Serif" font-size="10.00">+ name</text>
<text text-anchor="start" x="912" y="-48.5" font-family="Helvetica,sans-Serif" font-size="10.00">+ interaction</text>
<text text-anchor="start" x="912" y="-37.5" font-family="Helvetica,sans-Serif" font-size="10.00">&#45; scene</text>
<polyline fill="none" stroke="black" points="904,-30.5 1001,-30.5 "/>
<text text-anchor="start" x="912" y="-18.5" font-family="Helvetica,sans-Serif" font-size="10.00">+ InteractionArgs()</text>
</a>
</g>
</g>
<!-- Node1&#45;&gt;Node9 -->
<g id="edge9" class="edge"><title>Node1&#45;&gt;Node9</title>
<path fill="none" stroke="midnightblue" d="M699.397,-159.628C751.886,-151.754 832.714,-135.115 895.5,-102 901.555,-98.8067 907.501,-94.8477 913.134,-90.5658"/>
<polygon fill="none" stroke="midnightblue" points="698.688,-156.194 689.291,-161.088 699.689,-163.122 698.688,-156.194"/>
</g>
<!-- Node10 -->
<g id="node11" class="node"><title>Node10</title>
<g id="a_node11"><a xlink:href="class_item_event_args.html" target="_top" xlink:title="GameEventArgs class to pass an Item with an event ">
<polygon fill="none" stroke="black" points="1019,-22.5 1019,-79.5 1114,-79.5 1114,-22.5 1019,-22.5"/>
<text text-anchor="middle" x="1066.5" y="-67.5" font-family="Helvetica,sans-Serif" font-size="10.00">ItemEventArgs</text>
<polyline fill="none" stroke="black" points="1019,-60.5 1114,-60.5 "/>
<text text-anchor="start" x="1027" y="-48.5" font-family="Helvetica,sans-Serif" font-size="10.00">+ item</text>
<polyline fill="none" stroke="black" points="1019,-41.5 1114,-41.5 "/>
<text text-anchor="start" x="1027" y="-29.5" font-family="Helvetica,sans-Serif" font-size="10.00">+ ItemEventArgs()</text>
</a>
</g>
</g>
<!-- Node1&#45;&gt;Node10 -->
<g id="edge10" class="edge"><title>Node1&#45;&gt;Node10</title>
<path fill="none" stroke="midnightblue" d="M699.591,-165.645C773.43,-163.184 908.275,-151.534 1010.5,-102 1021.88,-96.4871 1032.67,-87.9734 1041.69,-79.5245"/>
<polygon fill="none" stroke="midnightblue" points="699.045,-162.16 689.15,-165.945 699.246,-169.157 699.045,-162.16"/>
</g>
<!-- Node11 -->
<g id="node12" class="node"><title>Node11</title>
<g id="a_node12"><a xlink:href="class_scene_changed_event_args.html" target="_top" xlink:title="GameEventArgs class to pass information about the change of scene ">
<polygon fill="none" stroke="black" points="1132.5,-17 1132.5,-85 1274.5,-85 1274.5,-17 1132.5,-17"/>
<text text-anchor="middle" x="1203.5" y="-73" font-family="Helvetica,sans-Serif" font-size="10.00">SceneChangedEventArgs</text>
<polyline fill="none" stroke="black" points="1132.5,-66 1274.5,-66 "/>
<text text-anchor="start" x="1140.5" y="-54" font-family="Helvetica,sans-Serif" font-size="10.00">+ oldScene</text>
<text text-anchor="start" x="1140.5" y="-43" font-family="Helvetica,sans-Serif" font-size="10.00">+ newScene</text>
<polyline fill="none" stroke="black" points="1132.5,-36 1274.5,-36 "/>
<text text-anchor="start" x="1140.5" y="-24" font-family="Helvetica,sans-Serif" font-size="10.00">+ SceneChangedEventArgs()</text>
</a>
</g>
</g>
<!-- Node1&#45;&gt;Node11 -->
<g id="edge11" class="edge"><title>Node1&#45;&gt;Node11</title>
<path fill="none" stroke="midnightblue" d="M699.143,-166.121C789.442,-164.74 976.359,-155.02 1123.5,-102 1135.21,-97.7803 1147.02,-91.6593 1157.83,-85.1378"/>
<polygon fill="none" stroke="midnightblue" points="699.097,-162.621 689.141,-166.246 699.184,-169.621 699.097,-162.621"/>
</g>
</g>
</svg>
