<?xml version="1.0" encoding="UTF-8" standalone="no"?>
<!DOCTYPE svg PUBLIC "-//W3C//DTD SVG 1.1//EN"
 "http://www.w3.org/Graphics/SVG/1.1/DTD/svg11.dtd">
<!-- Generated by graphviz version 2.38.0 (20140413.2041)
 -->
<!-- Title: Enemy Pages: 1 -->
<!--zoomable 1182 -->
<svg id="main" version="1.1" xmlns="http://www.w3.org/2000/svg" xmlns:xlink="http://www.w3.org/1999/xlink" xml:space="preserve" onload="init(evt)">
<style type="text/css"><![CDATA[
.edge:hover path { stroke: red; }
.edge:hover polygon { stroke: red; fill: red; }
]]></style>
<script type="text/javascript"><![CDATA[
var edges = document.getElementsByTagName('g');
if (edges && edges.length) {
  for (var i=0;i<edges.length;i++) {
    if (edges[i].id.substr(0,4)=='edge') {
      edges[i].setAttribute('class','edge');
    }
  }
}
]]></script>
        <defs>
                <circle id="rim" cx="0" cy="0" r="7"/>
                <circle id="rim2" cx="0" cy="0" r="3.5"/>
                <g id="zoomPlus">
                        <use xlink:href="#rim" fill="#404040">
                                <set attributeName="fill" to="#808080" begin="zoomplus.mouseover" end="zoomplus.mouseout"/>
                        </use>
                        <path d="M-4,0h8M0,-4v8" fill="none" stroke="white" stroke-width="1.5" pointer-events="none"/>
                </g>
                <g id="zoomMin">
                        <use xlink:href="#rim" fill="#404040">
                                <set attributeName="fill" to="#808080" begin="zoomminus.mouseover" end="zoomminus.mouseout"/>
                        </use>
                        <path d="M-4,0h8" fill="none" stroke="white" stroke-width="1.5" pointer-events="none"/>
                </g>
                <g id="dirArrow">
                        <path fill="none" stroke="white" stroke-width="1.5" d="M0,-3.0v7 M-2.5,-0.5L0,-3.0L2.5,-0.5"/>
                </g>
               <g id="resetDef">
                       <use xlink:href="#rim2" fill="#404040">
                               <set attributeName="fill" to="#808080" begin="reset.mouseover" end="reset.mouseout"/>
                       </use>
               </g>
        </defs>

<script type="text/javascript">
var viewWidth = 748;
var viewHeight = 1182;
var sectionId = 'dynsection-1';
</script>
<script xlink:href="svgpan.js"/>
<svg id="graph" class="graph">
<g id="viewport">
<title>Enemy</title>
<!-- Node2 -->
<g id="node1" class="node"><title>Node2</title>
<polygon fill="#bfbfbf" stroke="black" points="83.5,-1011.5 83.5,-1068.5 150.5,-1068.5 150.5,-1011.5 83.5,-1011.5"/>
<text text-anchor="middle" x="117" y="-1056.5" font-family="Helvetica,sans-Serif" font-size="10.00">Enemy</text>
<polyline fill="none" stroke="black" points="83.5,-1049.5 150.5,-1049.5 "/>
<text text-anchor="start" x="91.5" y="-1037.5" font-family="Helvetica,sans-Serif" font-size="10.00">+ ExpGiven</text>
<polyline fill="none" stroke="black" points="83.5,-1030.5 150.5,-1030.5 "/>
<text text-anchor="start" x="91.5" y="-1018.5" font-family="Helvetica,sans-Serif" font-size="10.00">+ Enemy()</text>
</g>
<!-- Node9 -->
<g id="node8" class="node"><title>Node9</title>
<g id="a_node8"><a xlink:href="class_battle_manager.html" target="_top" xlink:title="Holds current Player and Enemy objects in battle and provides functions for MainBattle and other obje...">
<polygon fill="none" stroke="black" points="153,-763.5 153,-952.5 269,-952.5 269,-763.5 153,-763.5"/>
<text text-anchor="middle" x="211" y="-940.5" font-family="Helvetica,sans-Serif" font-size="10.00">BattleManager</text>
<polyline fill="none" stroke="black" points="153,-933.5 269,-933.5 "/>
<text text-anchor="start" x="161" y="-921.5" font-family="Helvetica,sans-Serif" font-size="10.00">+ Player</text>
<text text-anchor="start" x="161" y="-910.5" font-family="Helvetica,sans-Serif" font-size="10.00">+ Enemy</text>
<text text-anchor="start" x="161" y="-899.5" font-family="Helvetica,sans-Serif" font-size="10.00">+ WasCriticalHit</text>
<polyline fill="none" stroke="black" points="153,-892.5 269,-892.5 "/>
<text text-anchor="start" x="161" y="-880.5" font-family="Helvetica,sans-Serif" font-size="10.00">+ BattleManager()</text>
<text text-anchor="start" x="161" y="-869.5" font-family="Helvetica,sans-Serif" font-size="10.00">+ playerFirst()</text>
<text text-anchor="start" x="161" y="-858.5" font-family="Helvetica,sans-Serif" font-size="10.00">+ switchPlayers()</text>
<text text-anchor="start" x="161" y="-847.5" font-family="Helvetica,sans-Serif" font-size="10.00">+ isCriticalHit()</text>
<text text-anchor="start" x="161" y="-836.5" font-family="Helvetica,sans-Serif" font-size="10.00">+ ranAway()</text>
<text text-anchor="start" x="161" y="-825.5" font-family="Helvetica,sans-Serif" font-size="10.00">+ damageCalculation()</text>
<text text-anchor="start" x="161" y="-814.5" font-family="Helvetica,sans-Serif" font-size="10.00">+ enemyMove()</text>
<text text-anchor="start" x="161" y="-803.5" font-family="Helvetica,sans-Serif" font-size="10.00">+ enemySpecialMove()</text>
<text text-anchor="start" x="161" y="-792.5" font-family="Helvetica,sans-Serif" font-size="10.00">+ battleWon()</text>
<text text-anchor="start" x="161" y="-781.5" font-family="Helvetica,sans-Serif" font-size="10.00">+ playerFainted()</text>
<text text-anchor="start" x="161" y="-770.5" font-family="Helvetica,sans-Serif" font-size="10.00">&#45; characterFainted()</text>
</a>
</g>
</g>
<!-- Node2&#45;&gt;Node9 -->
<g id="edge11" class="edge"><title>Node2&#45;&gt;Node9</title>
<path fill="none" stroke="#404040" d="M123.178,-1011.19C126.476,-998.598 131.089,-983.722 137,-971 139.988,-964.569 143.312,-958.084 146.848,-951.649"/>
<polygon fill="none" stroke="#404040" points="147.04,-951.312 146.535,-944.119 152.98,-940.885 153.486,-948.078 147.04,-951.312"/>
<text text-anchor="middle" x="155" y="-979.5" font-family="Helvetica,sans-Serif" font-size="10.00"> &#45;enemy</text>
</g>
<!-- Node3 -->
<g id="node2" class="node"><title>Node3</title>
<g id="a_node2"><a xlink:href="class_character.html" target="_top" xlink:title="Base abstract class for Enemy and Player to inherit from. Defines all shared variables, their constructor and their setters and getters ">
<polygon fill="none" stroke="black" points="312.5,-150.5 312.5,-361.5 407.5,-361.5 407.5,-150.5 312.5,-150.5"/>
<text text-anchor="middle" x="360" y="-349.5" font-family="Helvetica,sans-Serif" font-size="10.00">Character</text>
<polyline fill="none" stroke="black" points="312.5,-342.5 407.5,-342.5 "/>
<text text-anchor="start" x="320.5" y="-330.5" font-family="Helvetica,sans-Serif" font-size="10.00">+ Name</text>
<text text-anchor="start" x="320.5" y="-319.5" font-family="Helvetica,sans-Serif" font-size="10.00">+ Level</text>
<text text-anchor="start" x="320.5" y="-308.5" font-family="Helvetica,sans-Serif" font-size="10.00">+ Health</text>
<text text-anchor="start" x="320.5" y="-297.5" font-family="Helvetica,sans-Serif" font-size="10.00">+ Attack</text>
<text text-anchor="start" x="320.5" y="-286.5" font-family="Helvetica,sans-Serif" font-size="10.00">+ Defence</text>
<text text-anchor="start" x="320.5" y="-275.5" font-family="Helvetica,sans-Serif" font-size="10.00">+ MaximumMagic</text>
<text text-anchor="start" x="320.5" y="-264.5" font-family="Helvetica,sans-Serif" font-size="10.00">+ Magic</text>
<text text-anchor="start" x="320.5" y="-253.5" font-family="Helvetica,sans-Serif" font-size="10.00">+ Luck</text>
<text text-anchor="start" x="320.5" y="-242.5" font-family="Helvetica,sans-Serif" font-size="10.00">+ Speed</text>
<text text-anchor="start" x="320.5" y="-231.5" font-family="Helvetica,sans-Serif" font-size="10.00">+ Rage</text>
<text text-anchor="start" x="320.5" y="-220.5" font-family="Helvetica,sans-Serif" font-size="10.00">+ CanRage</text>
<text text-anchor="start" x="320.5" y="-209.5" font-family="Helvetica,sans-Serif" font-size="10.00">+ Special1</text>
<text text-anchor="start" x="320.5" y="-198.5" font-family="Helvetica,sans-Serif" font-size="10.00">+ Special2</text>
<text text-anchor="start" x="320.5" y="-187.5" font-family="Helvetica,sans-Serif" font-size="10.00">+ Image</text>
<polyline fill="none" stroke="black" points="312.5,-180.5 407.5,-180.5 "/>
<text text-anchor="start" x="320.5" y="-168.5" font-family="Helvetica,sans-Serif" font-size="10.00">+ IsEnraged()</text>
<text text-anchor="start" x="320.5" y="-157.5" font-family="Helvetica,sans-Serif" font-size="10.00"># Character()</text>
</a>
</g>
</g>
<!-- Node3&#45;&gt;Node2 -->
<g id="edge1" class="edge"><title>Node3&#45;&gt;Node2</title>
<path fill="none" stroke="midnightblue" d="M302.825,-274.673C227.098,-302.054 103,-362.487 103,-464.5 103,-859 103,-859 103,-859 103,-913.069 109.357,-976 113.503,-1011.3"/>
<polygon fill="none" stroke="midnightblue" points="303.999,-277.97 312.263,-271.34 301.668,-271.37 303.999,-277.97"/>
</g>
<!-- Node8 -->
<g id="node7" class="node"><title>Node8</title>
<g id="a_node7"><a xlink:href="class_character_move.html" target="_top" xlink:title="Astract base class for character moves ">
<polygon fill="none" stroke="black" points="334,-548.5 334,-627.5 420,-627.5 420,-548.5 334,-548.5"/>
<text text-anchor="middle" x="377" y="-615.5" font-family="Helvetica,sans-Serif" font-size="10.00">CharacterMove</text>
<polyline fill="none" stroke="black" points="334,-608.5 420,-608.5 "/>
<text text-anchor="start" x="342" y="-596.5" font-family="Helvetica,sans-Serif" font-size="10.00">+ User</text>
<text text-anchor="start" x="342" y="-585.5" font-family="Helvetica,sans-Serif" font-size="10.00">+ Target</text>
<text text-anchor="start" x="342" y="-574.5" font-family="Helvetica,sans-Serif" font-size="10.00">+ Text</text>
<polyline fill="none" stroke="black" points="334,-567.5 420,-567.5 "/>
<text text-anchor="start" x="342" y="-555.5" font-family="Helvetica,sans-Serif" font-size="10.00">+ performMove()</text>
</a>
</g>
</g>
<!-- Node3&#45;&gt;Node8 -->
<g id="edge8" class="edge"><title>Node3&#45;&gt;Node8</title>
<path fill="none" stroke="#404040" d="M340.105,-361.738C334.627,-407.923 332.665,-462.591 343,-511 344.847,-519.65 347.753,-528.506 351.107,-536.976"/>
<polygon fill="none" stroke="#404040" points="351.198,-537.191 357.229,-541.144 355.9,-548.232 349.869,-544.279 351.198,-537.191"/>
<text text-anchor="middle" x="360" y="-468.5" font-family="Helvetica,sans-Serif" font-size="10.00"> #target</text>
<text text-anchor="middle" x="360" y="-457.5" font-family="Helvetica,sans-Serif" font-size="10.00">#user</text>
</g>
<!-- Node10 -->
<g id="node9" class="node"><title>Node10</title>
<g id="a_node9"><a xlink:href="class_player.html" target="_top" xlink:title="Defines a playable character for use in battle scenes">
<polygon fill="none" stroke="black" points="193,-0.5 193,-112.5 305,-112.5 305,-0.5 193,-0.5"/>
<text text-anchor="middle" x="249" y="-100.5" font-family="Helvetica,sans-Serif" font-size="10.00">Player</text>
<polyline fill="none" stroke="black" points="193,-93.5 305,-93.5 "/>
<text text-anchor="start" x="201" y="-81.5" font-family="Helvetica,sans-Serif" font-size="10.00">+ Exp</text>
<text text-anchor="start" x="201" y="-70.5" font-family="Helvetica,sans-Serif" font-size="10.00">+ Item</text>
<text text-anchor="start" x="201" y="-59.5" font-family="Helvetica,sans-Serif" font-size="10.00">+ ExpToNextLevel</text>
<polyline fill="none" stroke="black" points="193,-52.5 305,-52.5 "/>
<text text-anchor="start" x="201" y="-40.5" font-family="Helvetica,sans-Serif" font-size="10.00">+ Player()</text>
<text text-anchor="start" x="201" y="-29.5" font-family="Helvetica,sans-Serif" font-size="10.00">+ gainExp()</text>
<text text-anchor="start" x="201" y="-18.5" font-family="Helvetica,sans-Serif" font-size="10.00">+ levelUp()</text>
<text text-anchor="start" x="201" y="-7.5" font-family="Helvetica,sans-Serif" font-size="10.00">&#45; setExpToNextLevel()</text>
</a>
</g>
</g>
<!-- Node3&#45;&gt;Node10 -->
<g id="edge15" class="edge"><title>Node3&#45;&gt;Node10</title>
<path fill="none" stroke="midnightblue" d="M307.521,-161.625C298.076,-144.82 288.515,-127.808 279.935,-112.542"/>
<polygon fill="none" stroke="midnightblue" points="304.492,-163.38 312.443,-170.383 310.595,-159.95 304.492,-163.38"/>
</g>
<!-- Node4 -->
<g id="node3" class="node"><title>Node4</title>
<polygon fill="none" stroke="#bfbfbf" points="437.5,-1011.5 437.5,-1068.5 478.5,-1068.5 478.5,-1011.5 437.5,-1011.5"/>
<text text-anchor="middle" x="458" y="-1056.5" font-family="Helvetica,sans-Serif" font-size="10.00">string</text>
<polyline fill="none" stroke="#bfbfbf" points="437.5,-1049.5 478.5,-1049.5 "/>
<text text-anchor="middle" x="458" y="-1037.5" font-family="Helvetica,sans-Serif" font-size="10.00"> </text>
<polyline fill="none" stroke="#bfbfbf" points="437.5,-1030.5 478.5,-1030.5 "/>
<text text-anchor="middle" x="458" y="-1018.5" font-family="Helvetica,sans-Serif" font-size="10.00"> </text>
</g>
<!-- Node4&#45;&gt;Node3 -->
<g id="edge2" class="edge"><title>Node4&#45;&gt;Node3</title>
<path fill="none" stroke="#404040" d="M460.377,-1011.46C466.066,-935.771 476.665,-718.878 429,-548 424.033,-530.194 416.067,-528.462 410,-511 394.766,-467.153 383.686,-417.343 375.888,-373.519"/>
<polygon fill="none" stroke="#404040" points="375.876,-373.448 370.909,-368.22 373.825,-361.625 378.791,-366.853 375.876,-373.448"/>
<text text-anchor="middle" x="463.5" y="-585.5" font-family="Helvetica,sans-Serif" font-size="10.00"> #name</text>
</g>
<!-- Node7 -->
<g id="node6" class="node"><title>Node7</title>
<g id="a_node6"><a xlink:href="class_special_move.html" target="_top" xlink:title="Special move abstract base class that expands upon CharacterMove, adding magic properties ...">
<polygon fill="none" stroke="black" points="499,-420.5 499,-510.5 597,-510.5 597,-420.5 499,-420.5"/>
<text text-anchor="middle" x="548" y="-498.5" font-family="Helvetica,sans-Serif" font-size="10.00">SpecialMove</text>
<polyline fill="none" stroke="black" points="499,-491.5 597,-491.5 "/>
<text text-anchor="start" x="507" y="-479.5" font-family="Helvetica,sans-Serif" font-size="10.00">+ Magic</text>
<text text-anchor="start" x="507" y="-468.5" font-family="Helvetica,sans-Serif" font-size="10.00">+ Desc</text>
<polyline fill="none" stroke="black" points="499,-461.5 597,-461.5 "/>
<text text-anchor="start" x="507" y="-449.5" font-family="Helvetica,sans-Serif" font-size="10.00">+ setUp()</text>
<text text-anchor="start" x="507" y="-438.5" font-family="Helvetica,sans-Serif" font-size="10.00">+ decreaseMagic()</text>
<text text-anchor="start" x="507" y="-427.5" font-family="Helvetica,sans-Serif" font-size="10.00"># SpecialMove()</text>
</a>
</g>
</g>
<!-- Node4&#45;&gt;Node7 -->
<g id="edge20" class="edge"><title>Node4&#45;&gt;Node7</title>
<path fill="none" stroke="#404040" d="M467.272,-1011.48C469.054,-1005.45 470.75,-999.05 472,-993 503.392,-841.015 486.642,-799.27 511,-646 517.611,-604.398 527.28,-557.818 535.076,-522.536"/>
<polygon fill="none" stroke="#404040" points="535.136,-522.266 532.537,-515.54 537.747,-510.554 540.346,-517.281 535.136,-522.266"/>
<text text-anchor="middle" x="526" y="-693" font-family="Helvetica,sans-Serif" font-size="10.00"> #desc</text>
</g>
<!-- Node4&#45;&gt;Node8 -->
<g id="edge7" class="edge"><title>Node4&#45;&gt;Node8</title>
<path fill="none" stroke="#404040" d="M442.703,-1011.17C434.354,-994.722 424.604,-973.222 419,-953 388.833,-844.132 380.309,-711.143 377.917,-639.889"/>
<polygon fill="none" stroke="#404040" points="377.912,-639.735 373.732,-633.858 377.549,-627.74 381.729,-633.616 377.912,-639.735"/>
<text text-anchor="middle" x="431.5" y="-855.5" font-family="Helvetica,sans-Serif" font-size="10.00"> #text</text>
</g>
<!-- Node4&#45;&gt;Node9 -->
<g id="edge10" class="edge"><title>Node4&#45;&gt;Node9</title>
<path fill="none" stroke="#404040" d="M437.479,-1034.45C411.893,-1028.1 367.562,-1014.85 335,-993 314.417,-979.188 294.838,-961.311 277.57,-943.14"/>
<polygon fill="none" stroke="#404040" points="277.448,-943.008 270.434,-941.331 269.285,-934.212 276.298,-935.889 277.448,-943.008"/>
<text text-anchor="middle" x="377" y="-985" font-family="Helvetica,sans-Serif" font-size="10.00"> +forceEnemyMove</text>
<text text-anchor="middle" x="377" y="-974" font-family="Helvetica,sans-Serif" font-size="10.00">+forceCriticalHits</text>
</g>
<!-- Node11 -->
<g id="node10" class="node"><title>Node11</title>
<g id="a_node10"><a xlink:href="class_item.html" target="_top" xlink:title="Abstract class for items that can be equipped to a player, increasing some of their stats ...">
<polygon fill="none" stroke="black" points="653.5,-813 653.5,-903 730.5,-903 730.5,-813 653.5,-813"/>
<text text-anchor="middle" x="692" y="-891" font-family="Helvetica,sans-Serif" font-size="10.00">Item</text>
<polyline fill="none" stroke="black" points="653.5,-884 730.5,-884 "/>
<text text-anchor="start" x="661.5" y="-872" font-family="Helvetica,sans-Serif" font-size="10.00">+ Name</text>
<text text-anchor="start" x="661.5" y="-861" font-family="Helvetica,sans-Serif" font-size="10.00">+ Desc</text>
<text text-anchor="start" x="661.5" y="-850" font-family="Helvetica,sans-Serif" font-size="10.00">+ Cost</text>
<polyline fill="none" stroke="black" points="653.5,-843 730.5,-843 "/>
<text text-anchor="start" x="661.5" y="-831" font-family="Helvetica,sans-Serif" font-size="10.00">+ applyBuffs()</text>
<text text-anchor="start" x="661.5" y="-820" font-family="Helvetica,sans-Serif" font-size="10.00">+ revertBuffs()</text>
</a>
</g>
</g>
<!-- Node4&#45;&gt;Node11 -->
<g id="edge17" class="edge"><title>Node4&#45;&gt;Node11</title>
<path fill="none" stroke="#404040" d="M478.669,-1027.67C506.088,-1012.26 555.506,-983.136 594,-953 611.225,-939.515 628.838,-923.456 644.295,-908.461"/>
<polygon fill="none" stroke="#404040" points="644.568,-908.193 646.044,-901.135 653.127,-899.783 651.651,-906.841 644.568,-908.193"/>
<text text-anchor="middle" x="585" y="-985" font-family="Helvetica,sans-Serif" font-size="10.00"> #desc</text>
<text text-anchor="middle" x="585" y="-974" font-family="Helvetica,sans-Serif" font-size="10.00">#name</text>
</g>
<!-- Node5 -->
<g id="node4" class="node"><title>Node5</title>
<polygon fill="none" stroke="#bfbfbf" points="352.5,-1116.5 352.5,-1173.5 381.5,-1173.5 381.5,-1116.5 352.5,-1116.5"/>
<text text-anchor="middle" x="367" y="-1161.5" font-family="Helvetica,sans-Serif" font-size="10.00">int</text>
<polyline fill="none" stroke="#bfbfbf" points="352.5,-1154.5 381.5,-1154.5 "/>
<text text-anchor="middle" x="367" y="-1142.5" font-family="Helvetica,sans-Serif" font-size="10.00"> </text>
<polyline fill="none" stroke="#bfbfbf" points="352.5,-1135.5 381.5,-1135.5 "/>
<text text-anchor="middle" x="367" y="-1123.5" font-family="Helvetica,sans-Serif" font-size="10.00"> </text>
</g>
<!-- Node5&#45;&gt;Node2 -->
<g id="edge23" class="edge"><title>Node5&#45;&gt;Node2</title>
<path fill="none" stroke="#404040" d="M352.311,-1143.3C305.159,-1140.76 158.846,-1130.35 127,-1098 122.286,-1093.21 119.353,-1087.04 117.592,-1080.52"/>
<polygon fill="none" stroke="#404040" points="117.586,-1080.49 112.628,-1075.26 115.555,-1068.67 120.513,-1073.9 117.586,-1080.49"/>
<text text-anchor="middle" x="150" y="-1090" font-family="Helvetica,sans-Serif" font-size="10.00"> &#45;expGiven</text>
</g>
<!-- Node5&#45;&gt;Node3 -->
<g id="edge3" class="edge"><title>Node5&#45;&gt;Node3</title>
<path fill="none" stroke="#404040" d="M381.61,-1141.48C436.189,-1131.64 625,-1093.81 625,-1041 625,-1041 625,-1041 625,-464.5 625,-360.705 497.413,-301.048 419.298,-274.25"/>
<polygon fill="none" stroke="#404040" points="419.068,-274.174 412.111,-276.073 407.683,-270.381 414.639,-268.482 419.068,-274.174"/>
<text text-anchor="middle" x="662.5" y="-737" font-family="Helvetica,sans-Serif" font-size="10.00"> #speed</text>
<text text-anchor="middle" x="662.5" y="-726" font-family="Helvetica,sans-Serif" font-size="10.00">#luck</text>
<text text-anchor="middle" x="662.5" y="-715" font-family="Helvetica,sans-Serif" font-size="10.00">#health</text>
<text text-anchor="middle" x="662.5" y="-704" font-family="Helvetica,sans-Serif" font-size="10.00">#magic</text>
<text text-anchor="middle" x="662.5" y="-693" font-family="Helvetica,sans-Serif" font-size="10.00">#maximumMagic</text>
<text text-anchor="middle" x="662.5" y="-682" font-family="Helvetica,sans-Serif" font-size="10.00">#attack</text>
<text text-anchor="middle" x="662.5" y="-671" font-family="Helvetica,sans-Serif" font-size="10.00">#defence</text>
<text text-anchor="middle" x="662.5" y="-660" font-family="Helvetica,sans-Serif" font-size="10.00">#level</text>
<text text-anchor="middle" x="662.5" y="-649" font-family="Helvetica,sans-Serif" font-size="10.00">#rage</text>
</g>
<!-- Node5&#45;&gt;Node7 -->
<g id="edge21" class="edge"><title>Node5&#45;&gt;Node7</title>
<path fill="none" stroke="#404040" d="M381.647,-1139.36C407.535,-1130.33 461.081,-1107.82 487,-1069 601.083,-898.123 576.537,-637.031 558.533,-523.036"/>
<polygon fill="none" stroke="#404040" points="558.477,-522.692 553.562,-517.415 556.543,-510.849 561.458,-516.126 558.477,-522.692"/>
<text text-anchor="middle" x="590.5" y="-855.5" font-family="Helvetica,sans-Serif" font-size="10.00"> #magic</text>
</g>
<!-- Node5&#45;&gt;Node9 -->
<g id="edge12" class="edge"><title>Node5&#45;&gt;Node9</title>
<path fill="none" stroke="#404040" d="M352.305,-1141.56C321.175,-1135.53 248.764,-1116.81 216,-1069 195.44,-1039 190.14,-1000.51 191.33,-964.686"/>
<polygon fill="none" stroke="#404040" points="191.333,-964.641 187.657,-958.437 191.97,-952.658 195.646,-958.862 191.333,-964.641"/>
<text text-anchor="middle" x="235.5" y="-1037.5" font-family="Helvetica,sans-Serif" font-size="10.00"> +money</text>
</g>
<!-- Node5&#45;&gt;Node10 -->
<g id="edge19" class="edge"><title>Node5&#45;&gt;Node10</title>
<path fill="none" stroke="#404040" d="M352.159,-1143.11C283.499,-1138.6 0,-1115.45 0,-1041 0,-1041 0,-1041 0,-255 0,-162.166 107.553,-106.049 181.287,-78.485"/>
<polygon fill="none" stroke="#404040" points="181.528,-78.3976 185.805,-72.5911 192.809,-74.3051 188.533,-80.1115 181.528,-78.3976"/>
<text text-anchor="middle" x="37.5" y="-591" font-family="Helvetica,sans-Serif" font-size="10.00"> &#45;expToNextLevel</text>
<text text-anchor="middle" x="37.5" y="-580" font-family="Helvetica,sans-Serif" font-size="10.00">&#45;exp</text>
</g>
<!-- Node5&#45;&gt;Node11 -->
<g id="edge18" class="edge"><title>Node5&#45;&gt;Node11</title>
<path fill="none" stroke="#404040" d="M381.745,-1143.6C432.866,-1141.92 601.424,-1133.72 639,-1098 688.155,-1051.28 696.624,-969.941 696.029,-915.297"/>
<polygon fill="none" stroke="#404040" points="696.023,-915.039 691.882,-909.135 695.74,-903.042 699.88,-908.946 696.023,-915.039"/>
<text text-anchor="middle" x="700" y="-1037.5" font-family="Helvetica,sans-Serif" font-size="10.00"> #cost</text>
</g>
<!-- Node6 -->
<g id="node5" class="node"><title>Node6</title>
<polygon fill="none" stroke="#bfbfbf" points="264.5,-1011.5 264.5,-1068.5 299.5,-1068.5 299.5,-1011.5 264.5,-1011.5"/>
<text text-anchor="middle" x="282" y="-1056.5" font-family="Helvetica,sans-Serif" font-size="10.00">bool</text>
<polyline fill="none" stroke="#bfbfbf" points="264.5,-1049.5 299.5,-1049.5 "/>
<text text-anchor="middle" x="282" y="-1037.5" font-family="Helvetica,sans-Serif" font-size="10.00"> </text>
<polyline fill="none" stroke="#bfbfbf" points="264.5,-1030.5 299.5,-1030.5 "/>
<text text-anchor="middle" x="282" y="-1018.5" font-family="Helvetica,sans-Serif" font-size="10.00"> </text>
</g>
<!-- Node6&#45;&gt;Node3 -->
<g id="edge4" class="edge"><title>Node6&#45;&gt;Node3</title>
<path fill="none" stroke="#404040" d="M285.5,-1011.31C286.125,-1005.28 286.678,-998.936 287,-993 295.345,-839.004 322.433,-796.097 287,-646 284.945,-637.295 280.055,-636.705 278,-628 269.831,-593.396 273.132,-583.221 278,-548 286.1,-489.39 302.966,-425.973 319.307,-373.347"/>
<polygon fill="none" stroke="#404040" points="319.402,-373.045 317.386,-366.122 323.002,-361.598 325.017,-368.522 319.402,-373.045"/>
<text text-anchor="middle" x="301.5" y="-585.5" font-family="Helvetica,sans-Serif" font-size="10.00"> #canRage</text>
</g>
<!-- Node6&#45;&gt;Node9 -->
<g id="edge13" class="edge"><title>Node6&#45;&gt;Node9</title>
<path fill="none" stroke="#404040" d="M264.475,-1031.01C250.094,-1023.43 230.595,-1010.58 221,-993 216.18,-984.169 212.701,-974.511 210.247,-964.555"/>
<polygon fill="none" stroke="#404040" points="210.239,-964.515 205.11,-959.445 207.818,-952.762 212.946,-957.831 210.239,-964.515"/>
<text text-anchor="middle" x="254" y="-979.5" font-family="Helvetica,sans-Serif" font-size="10.00"> &#45;wasCriticalHit</text>
</g>
<!-- Node7&#45;&gt;Node3 -->
<g id="edge5" class="edge"><title>Node7&#45;&gt;Node3</title>
<path fill="none" stroke="#404040" d="M508.13,-420.495C481.332,-390.917 445.631,-351.512 415.992,-318.799"/>
<polygon fill="none" stroke="#404040" points="415.862,-318.656 408.869,-316.896 407.805,-309.764 414.798,-311.524 415.862,-318.656"/>
<text text-anchor="middle" x="510.5" y="-394" font-family="Helvetica,sans-Serif" font-size="10.00"> #special1</text>
<text text-anchor="middle" x="510.5" y="-383" font-family="Helvetica,sans-Serif" font-size="10.00">#special2</text>
</g>
<!-- Node8&#45;&gt;Node7 -->
<g id="edge6" class="edge"><title>Node8&#45;&gt;Node7</title>
<path fill="none" stroke="midnightblue" d="M428.907,-551.46C430.624,-550.292 432.326,-549.136 434,-548 458.38,-531.46 465.009,-528.099 489,-511 492.239,-508.692 495.558,-506.29 498.892,-503.851"/>
<polygon fill="none" stroke="midnightblue" points="426.53,-548.843 420.236,-557.365 430.471,-554.629 426.53,-548.843"/>
</g>
<!-- Node9&#45;&gt;Node8 -->
<g id="edge9" class="edge"><title>Node9&#45;&gt;Node8</title>
<path fill="none" stroke="#404040" d="M269.059,-763.267C295.156,-721.134 324.879,-673.147 346.519,-638.211"/>
<polygon fill="none" stroke="#404040" points="346.643,-638.01 346.402,-630.803 352.962,-627.808 353.203,-635.015 346.643,-638.01"/>
<text text-anchor="middle" x="365" y="-693" font-family="Helvetica,sans-Serif" font-size="10.00"> #manager</text>
</g>
<!-- Node10&#45;&gt;Node9 -->
<g id="edge14" class="edge"><title>Node10&#45;&gt;Node9</title>
<path fill="none" stroke="#404040" d="M230.822,-112.596C219.471,-151.846 207,-206.098 207,-255 207,-589 207,-589 207,-589 207,-642.407 207.804,-701.795 208.691,-751.065"/>
<polygon fill="none" stroke="#404040" points="208.697,-751.366 212.807,-757.291 208.918,-763.364 204.808,-757.439 208.697,-751.366"/>
<text text-anchor="middle" x="223.5" y="-463" font-family="Helvetica,sans-Serif" font-size="10.00"> &#45;player</text>
</g>
<!-- Node11&#45;&gt;Node10 -->
<g id="edge16" class="edge"><title>Node11&#45;&gt;Node10</title>
<path fill="none" stroke="#404040" d="M698.103,-812.996C704.917,-759.979 715,-668.154 715,-589 715,-589 715,-589 715,-255 715,-169.664 446.739,-100.127 317.291,-71.5402"/>
<polygon fill="none" stroke="#404040" points="316.934,-71.4624 310.219,-74.0903 305.21,-68.9024 311.926,-66.2745 316.934,-71.4624"/>
<text text-anchor="middle" x="727.5" y="-463" font-family="Helvetica,sans-Serif" font-size="10.00"> &#45;item</text>
</g>
<!-- Node12 -->
<g id="node11" class="node"><title>Node12</title>
<polygon fill="none" stroke="#bfbfbf" points="419.5,-437 419.5,-494 480.5,-494 480.5,-437 419.5,-437"/>
<text text-anchor="middle" x="450" y="-482" font-family="Helvetica,sans-Serif" font-size="10.00">Texture2D</text>
<polyline fill="none" stroke="#bfbfbf" points="419.5,-475 480.5,-475 "/>
<text text-anchor="middle" x="450" y="-463" font-family="Helvetica,sans-Serif" font-size="10.00"> </text>
<polyline fill="none" stroke="#bfbfbf" points="419.5,-456 480.5,-456 "/>
<text text-anchor="middle" x="450" y="-444" font-family="Helvetica,sans-Serif" font-size="10.00"> </text>
</g>
<!-- Node12&#45;&gt;Node3 -->
<g id="edge22" class="edge"><title>Node12&#45;&gt;Node3</title>
<path fill="none" stroke="#404040" d="M438.049,-436.946C430.668,-419.929 420.643,-396.817 410.24,-372.832"/>
<polygon fill="none" stroke="#404040" points="410.217,-372.778 404.16,-368.865 405.442,-361.769 411.499,-365.682 410.217,-372.778"/>
<text text-anchor="middle" x="438.5" y="-388.5" font-family="Helvetica,sans-Serif" font-size="10.00"> #image</text>
</g>
</g>
</svg>
        <g id="navigator" transform="translate(0 0)" fill="#404254">
                <rect fill="#f2f5e9" fill-opacity="0.5" stroke="#606060" stroke-width=".5" x="0" y="0" width="60" height="60"/>
                <use id="zoomplus" xlink:href="#zoomPlus" x="17" y="9" onmousedown="handleZoom(evt,'in')"/>
                <use id="zoomminus" xlink:href="#zoomMin" x="42" y="9" onmousedown="handleZoom(evt,'out')"/>
                <use id="reset" xlink:href="#resetDef" x="30" y="36" onmousedown="handleReset()"/>
                <g id="arrowUp" xlink:href="#dirArrow" transform="translate(30 24)" onmousedown="handlePan(0,-1)">
                  <use xlink:href="#rim" fill="#404040">
                        <set attributeName="fill" to="#808080" begin="arrowUp.mouseover" end="arrowUp.mouseout"/>
                  </use>
                  <path fill="none" stroke="white" stroke-width="1.5" d="M0,-3.0v7 M-2.5,-0.5L0,-3.0L2.5,-0.5"/>
                </g>
                <g id="arrowRight" xlink:href="#dirArrow" transform="rotate(90) translate(36 -43)" onmousedown="handlePan(1,0)">
                  <use xlink:href="#rim" fill="#404040">
                        <set attributeName="fill" to="#808080" begin="arrowRight.mouseover" end="arrowRight.mouseout"/>
                  </use>
                  <path fill="none" stroke="white" stroke-width="1.5" d="M0,-3.0v7 M-2.5,-0.5L0,-3.0L2.5,-0.5"/>
                </g>
                <g id="arrowDown" xlink:href="#dirArrow" transform="rotate(180) translate(-30 -48)" onmousedown="handlePan(0,1)">
                  <use xlink:href="#rim" fill="#404040">
                        <set attributeName="fill" to="#808080" begin="arrowDown.mouseover" end="arrowDown.mouseout"/>
                  </use>
                  <path fill="none" stroke="white" stroke-width="1.5" d="M0,-3.0v7 M-2.5,-0.5L0,-3.0L2.5,-0.5"/>
                </g>
                <g id="arrowLeft" xlink:href="#dirArrow" transform="rotate(270) translate(-36 17)" onmousedown="handlePan(-1,0)">
                  <use xlink:href="#rim" fill="#404040">
                        <set attributeName="fill" to="#808080" begin="arrowLeft.mouseover" end="arrowLeft.mouseout"/>
                  </use>
                  <path fill="none" stroke="white" stroke-width="1.5" d="M0,-3.0v7 M-2.5,-0.5L0,-3.0L2.5,-0.5"/>
                </g>
        </g>
        <svg viewBox="0 0 15 15" width="100%" height="30px" preserveAspectRatio="xMaxYMin meet">
         <g id="arrow_out" transform="scale(0.3 0.3)">
          <a xlink:href="class_enemy__coll__graph_org.svg" target="_base">
           <rect id="button" ry="5" rx="5" y="6" x="6" height="38" width="38"
                fill="#f2f5e9" fill-opacity="0.5" stroke="#606060" stroke-width="1.0"/>
           <path id="arrow"
             d="M 11.500037,31.436501 C 11.940474,20.09759 22.043105,11.32322 32.158766,21.979434 L 37.068811,17.246167 C 37.068811,17.246167 37.088388,32 37.088388,32 L 22.160133,31.978069 C 22.160133,31.978069 26.997745,27.140456 26.997745,27.140456 C 18.528582,18.264221 13.291696,25.230495 11.500037,31.436501 z"
             style="fill:#404040;"/>
          </a>
         </g>
        </svg>
</svg>
