<?xml version="1.0" encoding="UTF-8" standalone="no"?>
<!DOCTYPE svg PUBLIC "-//W3C//DTD SVG 1.1//EN"
 "http://www.w3.org/Graphics/SVG/1.1/DTD/svg11.dtd">
<!-- Generated by graphviz version 2.38.0 (20140413.2041)
 -->
<!-- Title: PlayerDuck Pages: 1 -->
<svg width="331pt" height="226pt"
 viewBox="0.00 0.00 330.50 226.00" xmlns="http://www.w3.org/2000/svg" xmlns:xlink="http://www.w3.org/1999/xlink">
<g id="graph0" class="graph" transform="scale(1 1) rotate(0) translate(4 222)">
<title>PlayerDuck</title>
<!-- Node2 -->
<g id="node1" class="node"><title>Node2</title>
<polygon fill="#bfbfbf" stroke="black" points="142,-0.5 142,-68.5 209,-68.5 209,-0.5 142,-0.5"/>
<text text-anchor="middle" x="175.5" y="-56.5" font-family="Helvetica,sans-Serif" font-size="10.00">PlayerDuck</text>
<polyline fill="none" stroke="black" points="142,-49.5 209,-49.5 "/>
<text text-anchor="middle" x="175.5" y="-37.5" font-family="Helvetica,sans-Serif" font-size="10.00"> </text>
<polyline fill="none" stroke="black" points="142,-30.5 209,-30.5 "/>
<text text-anchor="start" x="150" y="-18.5" font-family="Helvetica,sans-Serif" font-size="10.00">&#45; Start()</text>
<text text-anchor="start" x="150" y="-7.5" font-family="Helvetica,sans-Serif" font-size="10.00">&#45; Update()</text>
</g>
<!-- Node3 -->
<g id="node2" class="node"><title>Node3</title>
<g id="a_node2"><a xlink:href="class_mono_behaviour.html" target="_top" xlink:title="{MonoBehaviour\n||}">
<polygon fill="none" stroke="black" points="0,-160.5 0,-217.5 83,-217.5 83,-160.5 0,-160.5"/>
<text text-anchor="middle" x="41.5" y="-205.5" font-family="Helvetica,sans-Serif" font-size="10.00">MonoBehaviour</text>
<polyline fill="none" stroke="black" points="0,-198.5 83,-198.5 "/>
<text text-anchor="middle" x="41.5" y="-186.5" font-family="Helvetica,sans-Serif" font-size="10.00"> </text>
<polyline fill="none" stroke="black" points="0,-179.5 83,-179.5 "/>
<text text-anchor="middle" x="41.5" y="-167.5" font-family="Helvetica,sans-Serif" font-size="10.00"> </text>
</a>
</g>
</g>
<!-- Node3&#45;&gt;Node2 -->
<g id="edge1" class="edge"><title>Node3&#45;&gt;Node2</title>
<path fill="none" stroke="midnightblue" d="M72.407,-152.826C94.642,-127.521 124.437,-93.6128 146.277,-68.7577"/>
<polygon fill="none" stroke="midnightblue" points="69.7379,-150.561 65.7664,-160.383 74.9964,-155.182 69.7379,-150.561"/>
</g>
<!-- Node4 -->
<g id="node3" class="node"><title>Node4</title>
<polygon fill="none" stroke="#bfbfbf" points="101,-160.5 101,-217.5 172,-217.5 172,-160.5 101,-160.5"/>
<text text-anchor="middle" x="136.5" y="-205.5" font-family="Helvetica,sans-Serif" font-size="10.00">Rigidbody2D</text>
<polyline fill="none" stroke="#bfbfbf" points="101,-198.5 172,-198.5 "/>
<text text-anchor="middle" x="136.5" y="-186.5" font-family="Helvetica,sans-Serif" font-size="10.00"> </text>
<polyline fill="none" stroke="#bfbfbf" points="101,-179.5 172,-179.5 "/>
<text text-anchor="middle" x="136.5" y="-167.5" font-family="Helvetica,sans-Serif" font-size="10.00"> </text>
</g>
<!-- Node4&#45;&gt;Node2 -->
<g id="edge2" class="edge"><title>Node4&#45;&gt;Node2</title>
<path fill="none" stroke="#404040" d="M143.563,-160.383C149.247,-138.154 157.353,-106.46 163.975,-80.5643"/>
<polygon fill="none" stroke="#404040" points="164.022,-80.3836 161.633,-73.5796 166.995,-68.7577 169.383,-75.5617 164.022,-80.3836"/>
<text text-anchor="middle" x="176.5" y="-112" font-family="Helvetica,sans-Serif" font-size="10.00"> &#45;body</text>
</g>
<!-- Node5 -->
<g id="node4" class="node"><title>Node5</title>
<polygon fill="none" stroke="#bfbfbf" points="190.5,-160.5 190.5,-217.5 240.5,-217.5 240.5,-160.5 190.5,-160.5"/>
<text text-anchor="middle" x="215.5" y="-205.5" font-family="Helvetica,sans-Serif" font-size="10.00">Camera</text>
<polyline fill="none" stroke="#bfbfbf" points="190.5,-198.5 240.5,-198.5 "/>
<text text-anchor="middle" x="215.5" y="-186.5" font-family="Helvetica,sans-Serif" font-size="10.00"> </text>
<polyline fill="none" stroke="#bfbfbf" points="190.5,-179.5 240.5,-179.5 "/>
<text text-anchor="middle" x="215.5" y="-167.5" font-family="Helvetica,sans-Serif" font-size="10.00"> </text>
</g>
<!-- Node5&#45;&gt;Node2 -->
<g id="edge3" class="edge"><title>Node5&#45;&gt;Node2</title>
<path fill="none" stroke="#404040" d="M210.419,-160.341C206.44,-139.916 200.429,-111.523 193.5,-87 192.863,-84.7441 192.18,-82.4431 191.468,-80.1267"/>
<polygon fill="none" stroke="#404040" points="191.417,-79.9708 185.763,-75.4956 187.719,-68.5549 193.373,-73.0301 191.417,-79.9708"/>
<text text-anchor="middle" x="220" y="-112" font-family="Helvetica,sans-Serif" font-size="10.00"> &#45;cam</text>
</g>
<!-- Node6 -->
<g id="node5" class="node"><title>Node6</title>
<polygon fill="none" stroke="#bfbfbf" points="259,-160.5 259,-217.5 294,-217.5 294,-160.5 259,-160.5"/>
<text text-anchor="middle" x="276.5" y="-205.5" font-family="Helvetica,sans-Serif" font-size="10.00">float</text>
<polyline fill="none" stroke="#bfbfbf" points="259,-198.5 294,-198.5 "/>
<text text-anchor="middle" x="276.5" y="-186.5" font-family="Helvetica,sans-Serif" font-size="10.00"> </text>
<polyline fill="none" stroke="#bfbfbf" points="259,-179.5 294,-179.5 "/>
<text text-anchor="middle" x="276.5" y="-167.5" font-family="Helvetica,sans-Serif" font-size="10.00"> </text>
</g>
<!-- Node6&#45;&gt;Node2 -->
<g id="edge4" class="edge"><title>Node6&#45;&gt;Node2</title>
<path fill="none" stroke="#404040" d="M269.594,-160.465C263.324,-139.063 252.574,-109.356 236.5,-87 231.327,-79.8051 224.933,-72.9916 218.25,-66.8179"/>
<polygon fill="none" stroke="#404040" points="218.104,-66.6912 210.952,-65.7749 209.046,-58.82 216.199,-59.7363 218.104,-66.6912"/>
<text text-anchor="middle" x="293" y="-134" font-family="Helvetica,sans-Serif" font-size="10.00"> &#45;linearDrag</text>
<text text-anchor="middle" x="293" y="-123" font-family="Helvetica,sans-Serif" font-size="10.00">&#45;deceleration</text>
<text text-anchor="middle" x="293" y="-112" font-family="Helvetica,sans-Serif" font-size="10.00">+acceleration</text>
<text text-anchor="middle" x="293" y="-101" font-family="Helvetica,sans-Serif" font-size="10.00">&#45;direction</text>
<text text-anchor="middle" x="293" y="-90" font-family="Helvetica,sans-Serif" font-size="10.00">&#45;maxSpeed</text>
</g>
</g>
</svg>
