<?xml version="1.0" encoding="UTF-8" standalone="no"?>
<!DOCTYPE svg PUBLIC "-//W3C//DTD SVG 1.1//EN"
 "http://www.w3.org/Graphics/SVG/1.1/DTD/svg11.dtd">
<!-- Generated by graphviz version 2.38.0 (20140413.2041)
 -->
<!-- Title: WaveSpawner Pages: 1 -->
<svg width="606pt" height="353pt"
 viewBox="0.00 0.00 605.50 353.00" xmlns="http://www.w3.org/2000/svg" xmlns:xlink="http://www.w3.org/1999/xlink">
<g id="graph0" class="graph" transform="scale(1 1) rotate(0) translate(4 349)">
<title>WaveSpawner</title>
<!-- Node2 -->
<g id="node1" class="node"><title>Node2</title>
<polygon fill="#bfbfbf" stroke="black" points="299,-0.5 299,-134.5 398,-134.5 398,-0.5 299,-0.5"/>
<text text-anchor="middle" x="348.5" y="-122.5" font-family="Helvetica,sans-Serif" font-size="10.00">WaveSpawner</text>
<polyline fill="none" stroke="black" points="299,-115.5 398,-115.5 "/>
<text text-anchor="start" x="307" y="-103.5" font-family="Helvetica,sans-Serif" font-size="10.00">+ NextWave</text>
<text text-anchor="start" x="307" y="-92.5" font-family="Helvetica,sans-Serif" font-size="10.00">+ WaveCountdown</text>
<text text-anchor="start" x="307" y="-81.5" font-family="Helvetica,sans-Serif" font-size="10.00">+ State</text>
<polyline fill="none" stroke="black" points="299,-74.5 398,-74.5 "/>
<text text-anchor="start" x="307" y="-62.5" font-family="Helvetica,sans-Serif" font-size="10.00">&#45; Start()</text>
<text text-anchor="start" x="307" y="-51.5" font-family="Helvetica,sans-Serif" font-size="10.00">&#45; Update()</text>
<text text-anchor="start" x="307" y="-40.5" font-family="Helvetica,sans-Serif" font-size="10.00">&#45; WaveCompleted()</text>
<text text-anchor="start" x="307" y="-29.5" font-family="Helvetica,sans-Serif" font-size="10.00">&#45; EnemyIsAlive()</text>
<text text-anchor="start" x="307" y="-18.5" font-family="Helvetica,sans-Serif" font-size="10.00">&#45; SpawnWave()</text>
<text text-anchor="start" x="307" y="-7.5" font-family="Helvetica,sans-Serif" font-size="10.00">&#45; SpawnEnemy()</text>
</g>
<!-- Node3 -->
<g id="node2" class="node"><title>Node3</title>
<g id="a_node2"><a xlink:href="class_mono_behaviour.html" target="_top" xlink:title="{MonoBehaviour\n||}">
<polygon fill="none" stroke="black" points="0,-182.5 0,-239.5 83,-239.5 83,-182.5 0,-182.5"/>
<text text-anchor="middle" x="41.5" y="-227.5" font-family="Helvetica,sans-Serif" font-size="10.00">MonoBehaviour</text>
<polyline fill="none" stroke="black" points="0,-220.5 83,-220.5 "/>
<text text-anchor="middle" x="41.5" y="-208.5" font-family="Helvetica,sans-Serif" font-size="10.00"> </text>
<polyline fill="none" stroke="black" points="0,-201.5 83,-201.5 "/>
<text text-anchor="middle" x="41.5" y="-189.5" font-family="Helvetica,sans-Serif" font-size="10.00"> </text>
</a>
</g>
</g>
<!-- Node3&#45;&gt;Node2 -->
<g id="edge1" class="edge"><title>Node3&#45;&gt;Node2</title>
<path fill="none" stroke="midnightblue" d="M75.1543,-175.604C84.4281,-167.409 94.8759,-159.241 105.5,-153 167.504,-116.576 247.631,-92.5449 298.561,-79.7253"/>
<polygon fill="none" stroke="midnightblue" points="72.6818,-173.122 67.6623,-182.453 77.4047,-178.289 72.6818,-173.122"/>
</g>
<!-- Node4 -->
<g id="node3" class="node"><title>Node4</title>
<polygon fill="none" stroke="#bfbfbf" points="115,-287.5 115,-344.5 150,-344.5 150,-287.5 115,-287.5"/>
<text text-anchor="middle" x="132.5" y="-332.5" font-family="Helvetica,sans-Serif" font-size="10.00">float</text>
<polyline fill="none" stroke="#bfbfbf" points="115,-325.5 150,-325.5 "/>
<text text-anchor="middle" x="132.5" y="-313.5" font-family="Helvetica,sans-Serif" font-size="10.00"> </text>
<polyline fill="none" stroke="#bfbfbf" points="115,-306.5 150,-306.5 "/>
<text text-anchor="middle" x="132.5" y="-294.5" font-family="Helvetica,sans-Serif" font-size="10.00"> </text>
</g>
<!-- Node4&#45;&gt;Node2 -->
<g id="edge2" class="edge"><title>Node4&#45;&gt;Node2</title>
<path fill="none" stroke="#404040" d="M123.402,-287.299C115.801,-258.729 109.027,-213.958 128.5,-182 162.733,-125.819 234.687,-96.2436 287.011,-81.5433"/>
<polygon fill="none" stroke="#404040" points="287.263,-81.4761 292.024,-76.0607 298.854,-78.3733 294.093,-83.7887 287.263,-81.4761"/>
<text text-anchor="middle" x="176" y="-219.5" font-family="Helvetica,sans-Serif" font-size="10.00"> +timeBetweenWaves</text>
<text text-anchor="middle" x="176" y="-208.5" font-family="Helvetica,sans-Serif" font-size="10.00">&#45;waveCountdown</text>
<text text-anchor="middle" x="176" y="-197.5" font-family="Helvetica,sans-Serif" font-size="10.00">&#45;searchCountdown</text>
</g>
<!-- Node8 -->
<g id="node7" class="node"><title>Node8</title>
<g id="a_node7"><a xlink:href="class_wave_spawner_1_1_wave.html" target="_top" xlink:title="Class that has parameters for each wave ">
<polygon fill="none" stroke="black" points="233,-182.5 233,-239.5 338,-239.5 338,-182.5 233,-182.5"/>
<text text-anchor="middle" x="285.5" y="-227.5" font-family="Helvetica,sans-Serif" font-size="10.00">WaveSpawner.Wave</text>
<polyline fill="none" stroke="black" points="233,-220.5 338,-220.5 "/>
<text text-anchor="middle" x="285.5" y="-208.5" font-family="Helvetica,sans-Serif" font-size="10.00"> </text>
<polyline fill="none" stroke="black" points="233,-201.5 338,-201.5 "/>
<text text-anchor="middle" x="285.5" y="-189.5" font-family="Helvetica,sans-Serif" font-size="10.00"> </text>
</a>
</g>
</g>
<!-- Node4&#45;&gt;Node8 -->
<g id="edge8" class="edge"><title>Node4&#45;&gt;Node8</title>
<path fill="none" stroke="#404040" d="M150.035,-294.264C160.63,-282.602 174.88,-268.352 189.5,-258 199.455,-250.951 210.658,-244.48 221.803,-238.756"/>
<polygon fill="none" stroke="#404040" points="222.121,-238.599 225.73,-232.357 232.881,-233.288 229.271,-239.53 222.121,-238.599"/>
<text text-anchor="middle" x="202.5" y="-261" font-family="Helvetica,sans-Serif" font-size="10.00"> +rate</text>
</g>
<!-- Node5 -->
<g id="node4" class="node"><title>Node5</title>
<polygon fill="none" stroke="#bfbfbf" points="442,-182.5 442,-239.5 511,-239.5 511,-182.5 442,-182.5"/>
<text text-anchor="middle" x="476.5" y="-227.5" font-family="Helvetica,sans-Serif" font-size="10.00">SpawnState</text>
<polyline fill="none" stroke="#bfbfbf" points="442,-220.5 511,-220.5 "/>
<text text-anchor="middle" x="476.5" y="-208.5" font-family="Helvetica,sans-Serif" font-size="10.00"> </text>
<polyline fill="none" stroke="#bfbfbf" points="442,-201.5 511,-201.5 "/>
<text text-anchor="middle" x="476.5" y="-189.5" font-family="Helvetica,sans-Serif" font-size="10.00"> </text>
</g>
<!-- Node5&#45;&gt;Node2 -->
<g id="edge3" class="edge"><title>Node5&#45;&gt;Node2</title>
<path fill="none" stroke="#404040" d="M451.516,-182.381C438.568,-168.067 422.174,-149.944 406.294,-132.389"/>
<polygon fill="none" stroke="#404040" points="406.108,-132.184 399.116,-130.417 398.058,-123.284 405.049,-125.051 406.108,-132.184"/>
<text text-anchor="middle" x="445.5" y="-156" font-family="Helvetica,sans-Serif" font-size="10.00"> &#45;state</text>
</g>
<!-- Node6 -->
<g id="node5" class="node"><title>Node6</title>
<polygon fill="none" stroke="#bfbfbf" points="338,-287.5 338,-344.5 367,-344.5 367,-287.5 338,-287.5"/>
<text text-anchor="middle" x="352.5" y="-332.5" font-family="Helvetica,sans-Serif" font-size="10.00">int</text>
<polyline fill="none" stroke="#bfbfbf" points="338,-325.5 367,-325.5 "/>
<text text-anchor="middle" x="352.5" y="-313.5" font-family="Helvetica,sans-Serif" font-size="10.00"> </text>
<polyline fill="none" stroke="#bfbfbf" points="338,-306.5 367,-306.5 "/>
<text text-anchor="middle" x="352.5" y="-294.5" font-family="Helvetica,sans-Serif" font-size="10.00"> </text>
</g>
<!-- Node6&#45;&gt;Node2 -->
<g id="edge4" class="edge"><title>Node6&#45;&gt;Node2</title>
<path fill="none" stroke="#404040" d="M357.4,-287.347C358.274,-281.319 359.049,-274.961 359.5,-269 359.869,-264.125 359.642,-262.887 359.5,-258 358.441,-221.474 356.235,-181.038 354.076,-146.932"/>
<polygon fill="none" stroke="#404040" points="354.057,-146.647 349.679,-140.917 353.284,-134.672 357.662,-140.401 354.057,-146.647"/>
<text text-anchor="middle" x="384" y="-208.5" font-family="Helvetica,sans-Serif" font-size="10.00"> &#45;nextWave</text>
</g>
<!-- Node6&#45;&gt;Node8 -->
<g id="edge9" class="edge"><title>Node6&#45;&gt;Node8</title>
<path fill="none" stroke="#404040" d="M337.962,-292.651C329.848,-280.177 319.521,-264.301 310.179,-249.939"/>
<polygon fill="none" stroke="#404040" points="310.14,-249.879 303.515,-247.031 303.597,-239.82 310.221,-242.669 310.14,-249.879"/>
<text text-anchor="middle" x="338.5" y="-261" font-family="Helvetica,sans-Serif" font-size="10.00"> +count</text>
</g>
<!-- Node7 -->
<g id="node6" class="node"><title>Node7</title>
<polygon fill="none" stroke="#bfbfbf" points="529.5,-182.5 529.5,-239.5 597.5,-239.5 597.5,-182.5 529.5,-182.5"/>
<text text-anchor="middle" x="563.5" y="-227.5" font-family="Helvetica,sans-Serif" font-size="10.00">Transform []</text>
<polyline fill="none" stroke="#bfbfbf" points="529.5,-220.5 597.5,-220.5 "/>
<text text-anchor="middle" x="563.5" y="-208.5" font-family="Helvetica,sans-Serif" font-size="10.00"> </text>
<polyline fill="none" stroke="#bfbfbf" points="529.5,-201.5 597.5,-201.5 "/>
<text text-anchor="middle" x="563.5" y="-189.5" font-family="Helvetica,sans-Serif" font-size="10.00"> </text>
</g>
<!-- Node7&#45;&gt;Node2 -->
<g id="edge5" class="edge"><title>Node7&#45;&gt;Node2</title>
<path fill="none" stroke="#404040" d="M529.433,-187.579C496.933,-166.19 447.282,-133.512 408.208,-107.796"/>
<polygon fill="none" stroke="#404040" points="408.03,-107.679 400.819,-107.721 398.006,-101.082 405.217,-101.039 408.03,-107.679"/>
<text text-anchor="middle" x="521" y="-156" font-family="Helvetica,sans-Serif" font-size="10.00"> +spawnPoints</text>
</g>
<!-- Node8&#45;&gt;Node2 -->
<g id="edge6" class="edge"><title>Node8&#45;&gt;Node2</title>
<path fill="none" stroke="#404040" d="M297.797,-182.381C302.552,-171.7 308.253,-158.897 314.087,-145.792"/>
<polygon fill="none" stroke="#404040" points="314.121,-145.715 312.908,-138.607 319.002,-134.753 320.216,-141.861 314.121,-145.715"/>
<text text-anchor="middle" x="328.5" y="-156" font-family="Helvetica,sans-Serif" font-size="10.00"> +waves</text>
</g>
<!-- Node9 -->
<g id="node8" class="node"><title>Node9</title>
<polygon fill="none" stroke="#bfbfbf" points="178,-287.5 178,-344.5 219,-344.5 219,-287.5 178,-287.5"/>
<text text-anchor="middle" x="198.5" y="-332.5" font-family="Helvetica,sans-Serif" font-size="10.00">string</text>
<polyline fill="none" stroke="#bfbfbf" points="178,-325.5 219,-325.5 "/>
<text text-anchor="middle" x="198.5" y="-313.5" font-family="Helvetica,sans-Serif" font-size="10.00"> </text>
<polyline fill="none" stroke="#bfbfbf" points="178,-306.5 219,-306.5 "/>
<text text-anchor="middle" x="198.5" y="-294.5" font-family="Helvetica,sans-Serif" font-size="10.00"> </text>
</g>
<!-- Node9&#45;&gt;Node8 -->
<g id="edge7" class="edge"><title>Node9&#45;&gt;Node8</title>
<path fill="none" stroke="#404040" d="M208.437,-287.368C212.769,-277.501 218.481,-266.688 225.5,-258 228.348,-254.474 231.52,-251.063 234.876,-247.799"/>
<polygon fill="none" stroke="#404040" points="235.163,-247.541 236.957,-240.557 244.094,-239.527 242.3,-246.511 235.163,-247.541"/>
<text text-anchor="middle" x="242.5" y="-261" font-family="Helvetica,sans-Serif" font-size="10.00"> +name</text>
</g>
<!-- Node10 -->
<g id="node9" class="node"><title>Node10</title>
<polygon fill="none" stroke="#bfbfbf" points="237,-287.5 237,-344.5 296,-344.5 296,-287.5 237,-287.5"/>
<text text-anchor="middle" x="266.5" y="-332.5" font-family="Helvetica,sans-Serif" font-size="10.00">Transform</text>
<polyline fill="none" stroke="#bfbfbf" points="237,-325.5 296,-325.5 "/>
<text text-anchor="middle" x="266.5" y="-313.5" font-family="Helvetica,sans-Serif" font-size="10.00"> </text>
<polyline fill="none" stroke="#bfbfbf" points="237,-306.5 296,-306.5 "/>
<text text-anchor="middle" x="266.5" y="-294.5" font-family="Helvetica,sans-Serif" font-size="10.00"> </text>
</g>
<!-- Node10&#45;&gt;Node8 -->
<g id="edge10" class="edge"><title>Node10&#45;&gt;Node8</title>
<path fill="none" stroke="#404040" d="M262.798,-287.5C262.248,-278.058 262.438,-267.482 264.5,-258 265.004,-255.684 265.635,-253.345 266.361,-251.013"/>
<polygon fill="none" stroke="#404040" points="266.439,-250.803 264.787,-243.783 270.631,-239.558 272.283,-246.578 266.439,-250.803"/>
<text text-anchor="middle" x="284" y="-261" font-family="Helvetica,sans-Serif" font-size="10.00"> +enemy</text>
</g>
</g>
</svg>
