<?xml version="1.0" encoding="UTF-8" standalone="no"?>
<!DOCTYPE svg PUBLIC "-//W3C//DTD SVG 1.1//EN"
 "http://www.w3.org/Graphics/SVG/1.1/DTD/svg11.dtd">
<!-- Generated by graphviz version 2.38.0 (20140413.2041)
 -->
<!-- Title: Graphical Class Hierarchy Pages: 1 -->
<svg width="385pt" height="427pt"
 viewBox="0.00 0.00 385.00 426.50" xmlns="http://www.w3.org/2000/svg" xmlns:xlink="http://www.w3.org/1999/xlink">
<g id="graph0" class="graph" transform="scale(1 1) rotate(0) translate(4 422.5)">
<title>Graphical Class Hierarchy</title>
<!-- Node60 -->
<g id="node1" class="node"><title>Node60</title>
<polygon fill="none" stroke="#bfbfbf" points="0,-205 0,-224 69,-224 69,-205 0,-205"/>
<text text-anchor="middle" x="34.5" y="-212" font-family="Helvetica,sans-Serif" font-size="10.00">ISerializable</text>
</g>
<!-- Node0 -->
<g id="node2" class="node"><title>Node0</title>
<g id="a_node2"><a xlink:href="class_quest_objective.html" target="_top" xlink:title="Base quest objective class to be extended by actual quest objectives ">
<polygon fill="none" stroke="black" points="105,-205 105,-224 188,-224 188,-205 105,-205"/>
<text text-anchor="middle" x="146.5" y="-212" font-family="Helvetica,sans-Serif" font-size="10.00">QuestObjective</text>
</a>
</g>
</g>
<!-- Node60&#45;&gt;Node0 -->
<g id="edge1" class="edge"><title>Node60&#45;&gt;Node0</title>
<path fill="none" stroke="midnightblue" d="M79.1519,-214.5C87.5895,-214.5 96.3995,-214.5 104.74,-214.5"/>
<polygon fill="midnightblue" stroke="midnightblue" points="79.1014,-211 69.1013,-214.5 79.1013,-218 79.1014,-211"/>
</g>
<!-- Node1 -->
<g id="node3" class="node"><title>Node1</title>
<g id="a_node3"><a xlink:href="class_quest_objectives_1_1_beat_level.html" target="_top" xlink:title="Quest objective to beat a certain level ">
<polygon fill="none" stroke="black" points="234,-399 234,-418 367,-418 367,-399 234,-399"/>
<text text-anchor="middle" x="300.5" y="-406" font-family="Helvetica,sans-Serif" font-size="10.00">QuestObjectives.BeatLevel</text>
</a>
</g>
</g>
<!-- Node0&#45;&gt;Node1 -->
<g id="edge2" class="edge"><title>Node0&#45;&gt;Node1</title>
<path fill="none" stroke="midnightblue" d="M150.413,-234.531C156.814,-271.062 175.593,-348.511 224,-389.5 228.539,-393.343 233.747,-396.426 239.262,-398.898"/>
<polygon fill="midnightblue" stroke="midnightblue" points="153.796,-233.521 148.749,-224.206 146.885,-234.636 153.796,-233.521"/>
</g>
<!-- Node2 -->
<g id="node4" class="node"><title>Node2</title>
<g id="a_node4"><a xlink:href="class_quest_objectives_1_1_defeat_specific.html" target="_top" xlink:title="Quest objective to defeat a specific enemy ">
<polygon fill="none" stroke="black" points="224,-361 224,-380 377,-380 377,-361 224,-361"/>
<text text-anchor="middle" x="300.5" y="-368" font-family="Helvetica,sans-Serif" font-size="10.00">QuestObjectives.DefeatSpecific</text>
</a>
</g>
</g>
<!-- Node0&#45;&gt;Node2 -->
<g id="edge3" class="edge"><title>Node0&#45;&gt;Node2</title>
<path fill="none" stroke="midnightblue" d="M152.891,-233.938C162.231,-263.903 184.334,-321.093 224,-351.5 229.042,-355.365 234.777,-358.451 240.781,-360.914"/>
<polygon fill="midnightblue" stroke="midnightblue" points="156.212,-232.826 150.018,-224.23 149.499,-234.812 156.212,-232.826"/>
</g>
<!-- Node3 -->
<g id="node5" class="node"><title>Node3</title>
<g id="a_node5"><a xlink:href="class_quest_objectives_1_1_minigame_beat_wave_x.html" target="_top" xlink:title="Quest objective to beat a certain wave in the minigame ">
<polygon fill="none" stroke="black" points="234,-311.5 234,-341.5 367,-341.5 367,-311.5 234,-311.5"/>
<text text-anchor="start" x="242" y="-329.5" font-family="Helvetica,sans-Serif" font-size="10.00">QuestObjectives.Minigame</text>
<text text-anchor="middle" x="300.5" y="-318.5" font-family="Helvetica,sans-Serif" font-size="10.00">BeatWaveX</text>
</a>
</g>
</g>
<!-- Node0&#45;&gt;Node3 -->
<g id="edge4" class="edge"><title>Node0&#45;&gt;Node3</title>
<path fill="none" stroke="midnightblue" d="M158.865,-232.728C172.161,-252.615 195.961,-284.07 224,-302.5 229.172,-305.9 234.859,-308.846 240.719,-311.392"/>
<polygon fill="midnightblue" stroke="midnightblue" points="161.742,-230.731 153.363,-224.247 155.869,-234.541 161.742,-230.731"/>
</g>
<!-- Node4 -->
<g id="node6" class="node"><title>Node4</title>
<g id="a_node6"><a xlink:href="class_quest_objectives_1_1_minigame_score.html" target="_top" xlink:title="Quest objective to obtain a certain score in the minigame ">
<polygon fill="none" stroke="black" points="234,-262.5 234,-292.5 367,-292.5 367,-262.5 234,-262.5"/>
<text text-anchor="start" x="242" y="-280.5" font-family="Helvetica,sans-Serif" font-size="10.00">QuestObjectives.Minigame</text>
<text text-anchor="middle" x="300.5" y="-269.5" font-family="Helvetica,sans-Serif" font-size="10.00">Score</text>
</a>
</g>
</g>
<!-- Node0&#45;&gt;Node4 -->
<g id="edge5" class="edge"><title>Node0&#45;&gt;Node4</title>
<path fill="none" stroke="midnightblue" d="M174.026,-228.833C188.555,-236.387 207.013,-245.51 224,-252.5 232.555,-256.021 241.803,-259.411 250.796,-262.498"/>
<polygon fill="midnightblue" stroke="midnightblue" points="175.58,-225.696 165.101,-224.133 172.318,-231.889 175.58,-225.696"/>
</g>
<!-- Node5 -->
<g id="node7" class="node"><title>Node5</title>
<g id="a_node7"><a xlink:href="class_quest_objectives_1_1_obtain_item.html" target="_top" xlink:title="Quest objective to obtain an item by any means (finding, buying, winning) ">
<polygon fill="none" stroke="black" points="231.5,-224 231.5,-243 369.5,-243 369.5,-224 231.5,-224"/>
<text text-anchor="middle" x="300.5" y="-231" font-family="Helvetica,sans-Serif" font-size="10.00">QuestObjectives.ObtainItem</text>
</a>
</g>
</g>
<!-- Node0&#45;&gt;Node5 -->
<g id="edge6" class="edge"><title>Node0&#45;&gt;Node5</title>
<path fill="none" stroke="midnightblue" d="M198.174,-220.834C208.814,-222.164 220.203,-223.588 231.362,-224.983"/>
<polygon fill="midnightblue" stroke="midnightblue" points="198.59,-217.359 188.233,-219.592 197.722,-224.305 198.59,-217.359"/>
</g>
<!-- Node6 -->
<g id="node8" class="node"><title>Node6</title>
<g id="a_node8"><a xlink:href="class_quest_objectives_1_1_obtain_player.html" target="_top" xlink:title="Quest objective to obtain a certain player ">
<polygon fill="none" stroke="black" points="227,-186 227,-205 374,-205 374,-186 227,-186"/>
<text text-anchor="middle" x="300.5" y="-193" font-family="Helvetica,sans-Serif" font-size="10.00">QuestObjectives.ObtainPlayer</text>
</a>
</g>
</g>
<!-- Node0&#45;&gt;Node6 -->
<g id="edge7" class="edge"><title>Node0&#45;&gt;Node6</title>
<path fill="none" stroke="midnightblue" d="M198.346,-208.144C207.541,-206.995 217.29,-205.776 226.964,-204.567"/>
<polygon fill="midnightblue" stroke="midnightblue" points="197.722,-204.695 188.233,-209.408 198.59,-211.641 197.722,-204.695"/>
</g>
<!-- Node7 -->
<g id="node9" class="node"><title>Node7</title>
<g id="a_node9"><a xlink:href="class_quest_objectives_1_1_reach_level.html" target="_top" xlink:title="Quest objective to reach a desired level on any character ">
<polygon fill="none" stroke="black" points="230.5,-148 230.5,-167 370.5,-167 370.5,-148 230.5,-148"/>
<text text-anchor="middle" x="300.5" y="-155" font-family="Helvetica,sans-Serif" font-size="10.00">QuestObjectives.ReachLevel</text>
</a>
</g>
</g>
<!-- Node0&#45;&gt;Node7 -->
<g id="edge8" class="edge"><title>Node0&#45;&gt;Node7</title>
<path fill="none" stroke="midnightblue" d="M172.973,-200.124C187.568,-192.329 206.426,-182.99 224,-176.5 233.763,-172.894 244.483,-169.739 254.702,-167.089"/>
<polygon fill="midnightblue" stroke="midnightblue" points="171.164,-197.123 164.053,-204.978 174.51,-203.272 171.164,-197.123"/>
</g>
<!-- Node8 -->
<g id="node10" class="node"><title>Node8</title>
<g id="a_node10"><a xlink:href="class_quest_objectives_1_1_speedrun_level.html" target="_top" xlink:title="Quest objective to beat a certain level within a set amount of time ">
<polygon fill="none" stroke="black" points="234.5,-98.5 234.5,-128.5 366.5,-128.5 366.5,-98.5 234.5,-98.5"/>
<text text-anchor="start" x="242.5" y="-116.5" font-family="Helvetica,sans-Serif" font-size="10.00">QuestObjectives.Speedrun</text>
<text text-anchor="middle" x="300.5" y="-105.5" font-family="Helvetica,sans-Serif" font-size="10.00">Level</text>
</a>
</g>
</g>
<!-- Node0&#45;&gt;Node8 -->
<g id="edge9" class="edge"><title>Node0&#45;&gt;Node8</title>
<path fill="none" stroke="midnightblue" d="M161.138,-196.825C175.199,-179.704 198.599,-154.106 224,-138.5 230.235,-134.669 237.125,-131.353 244.13,-128.502"/>
<polygon fill="midnightblue" stroke="midnightblue" points="158.187,-194.911 154.676,-204.907 163.654,-199.282 158.187,-194.911"/>
</g>
<!-- Node9 -->
<g id="node11" class="node"><title>Node9</title>
<g id="a_node11"><a xlink:href="class_quest_objectives_1_1_win_battle_within_x_turns.html" target="_top" xlink:title="Quest objective to win a battle within a specified amount of turns ">
<polygon fill="none" stroke="black" points="233.5,-49.5 233.5,-79.5 367.5,-79.5 367.5,-49.5 233.5,-49.5"/>
<text text-anchor="start" x="241.5" y="-67.5" font-family="Helvetica,sans-Serif" font-size="10.00">QuestObjectives.WinBattle</text>
<text text-anchor="middle" x="300.5" y="-56.5" font-family="Helvetica,sans-Serif" font-size="10.00">WithinXTurns</text>
</a>
</g>
</g>
<!-- Node0&#45;&gt;Node9 -->
<g id="edge10" class="edge"><title>Node0&#45;&gt;Node9</title>
<path fill="none" stroke="midnightblue" d="M154.378,-195.156C165.081,-167.759 188.28,-117.839 224,-89.5 228.868,-85.6383 234.357,-82.3617 240.099,-79.5839"/>
<polygon fill="midnightblue" stroke="midnightblue" points="151.006,-194.181 150.776,-204.773 157.561,-196.636 151.006,-194.181"/>
</g>
<!-- Node10 -->
<g id="node12" class="node"><title>Node10</title>
<g id="a_node12"><a xlink:href="class_quest_objectives_1_1_win_battle_without_specials.html" target="_top" xlink:title="Quest objective to win a battle without using any special attacks ">
<polygon fill="none" stroke="black" points="233.5,-0.5 233.5,-30.5 367.5,-30.5 367.5,-0.5 233.5,-0.5"/>
<text text-anchor="start" x="241.5" y="-18.5" font-family="Helvetica,sans-Serif" font-size="10.00">QuestObjectives.WinBattle</text>
<text text-anchor="middle" x="300.5" y="-7.5" font-family="Helvetica,sans-Serif" font-size="10.00">WithoutSpecials</text>
</a>
</g>
</g>
<!-- Node0&#45;&gt;Node10 -->
<g id="edge11" class="edge"><title>Node0&#45;&gt;Node10</title>
<path fill="none" stroke="midnightblue" d="M150.841,-194.405C157.865,-158.415 177.526,-82.7794 224,-40.5 228.29,-36.5975 233.204,-33.3027 238.422,-30.521"/>
<polygon fill="midnightblue" stroke="midnightblue" points="147.332,-194.139 148.986,-204.604 154.219,-195.392 147.332,-194.139"/>
</g>
</g>
</svg>
