<?xml version="1.0" encoding="UTF-8" standalone="no"?>
<!DOCTYPE svg PUBLIC "-//W3C//DTD SVG 1.1//EN"
 "http://www.w3.org/Graphics/SVG/1.1/DTD/svg11.dtd">
<!-- Generated by graphviz version 2.38.0 (20140413.2041)
 -->
<!-- Title: Graphical Class Hierarchy Pages: 1 -->
<svg width="242pt" height="1206pt"
 viewBox="0.00 0.00 242.00 1206.00" xmlns="http://www.w3.org/2000/svg" xmlns:xlink="http://www.w3.org/1999/xlink">
<g id="graph0" class="graph" transform="scale(1 1) rotate(0) translate(4 1202)">
<title>Graphical Class Hierarchy</title>
<!-- Node0 -->
<g id="node1" class="node"><title>Node0</title>
<g id="a_node1"><a xlink:href="class_mono_behaviour.html" target="_top" xlink:title="MonoBehaviour">
<polygon fill="none" stroke="black" points="0,-589.5 0,-608.5 83,-608.5 83,-589.5 0,-589.5"/>
<text text-anchor="middle" x="41.5" y="-596.5" font-family="Helvetica,sans-Serif" font-size="10.00">MonoBehaviour</text>
</a>
</g>
</g>
<!-- Node1 -->
<g id="node2" class="node"><title>Node1</title>
<g id="a_node2"><a xlink:href="class_animate_pickup.html" target="_top" xlink:title="AnimatePickup">
<polygon fill="none" stroke="black" points="135,-1178.5 135,-1197.5 218,-1197.5 218,-1178.5 135,-1178.5"/>
<text text-anchor="middle" x="176.5" y="-1185.5" font-family="Helvetica,sans-Serif" font-size="10.00">AnimatePickup</text>
</a>
</g>
</g>
<!-- Node0&#45;&gt;Node1 -->
<g id="edge1" class="edge"><title>Node0&#45;&gt;Node1</title>
<path fill="none" stroke="midnightblue" d="M42.4499,-618.958C42.6178,-709.694 47.6984,-1082.59 119,-1169 123.215,-1174.11 128.854,-1177.85 134.942,-1180.59"/>
<polygon fill="midnightblue" stroke="midnightblue" points="45.9498,-618.909 42.4505,-608.909 38.9498,-618.909 45.9498,-618.909"/>
</g>
<!-- Node2 -->
<g id="node3" class="node"><title>Node2</title>
<g id="a_node3"><a xlink:href="class_battle_buttons.html" target="_top" xlink:title="Script to handle the function of the Attack Button in the Battle Scene">
<polygon fill="none" stroke="black" points="138.5,-1140.5 138.5,-1159.5 214.5,-1159.5 214.5,-1140.5 138.5,-1140.5"/>
<text text-anchor="middle" x="176.5" y="-1147.5" font-family="Helvetica,sans-Serif" font-size="10.00">BattleButtons</text>
</a>
</g>
</g>
<!-- Node0&#45;&gt;Node2 -->
<g id="edge2" class="edge"><title>Node0&#45;&gt;Node2</title>
<path fill="none" stroke="midnightblue" d="M42.6591,-618.711C43.7465,-705.265 52.2652,-1050.9 119,-1131 124.034,-1137.04 131.059,-1141.17 138.449,-1143.99"/>
<polygon fill="midnightblue" stroke="midnightblue" points="46.1585,-618.629 42.553,-608.667 39.1589,-618.703 46.1585,-618.629"/>
</g>
<!-- Node3 -->
<g id="node4" class="node"><title>Node3</title>
<g id="a_node4"><a xlink:href="class_battle_descriptor.html" target="_top" xlink:title="A component that be added to an object to describe the parameters of a battle from within the Unity E...">
<polygon fill="none" stroke="black" points="133.5,-1102.5 133.5,-1121.5 219.5,-1121.5 219.5,-1102.5 133.5,-1102.5"/>
<text text-anchor="middle" x="176.5" y="-1109.5" font-family="Helvetica,sans-Serif" font-size="10.00">BattleDescriptor</text>
</a>
</g>
</g>
<!-- Node0&#45;&gt;Node3 -->
<g id="edge3" class="edge"><title>Node0&#45;&gt;Node3</title>
<path fill="none" stroke="midnightblue" d="M42.9041,-618.865C44.9801,-701.775 56.9241,-1019.3 119,-1093 122.867,-1097.59 127.882,-1101.08 133.326,-1103.72"/>
<polygon fill="midnightblue" stroke="midnightblue" points="46.4011,-618.69 42.6725,-608.773 39.403,-618.851 46.4011,-618.69"/>
</g>
<!-- Node4 -->
<g id="node5" class="node"><title>Node4</title>
<g id="a_node5"><a xlink:href="class_boid.html" target="_top" xlink:title="Boid">
<polygon fill="none" stroke="black" points="158.5,-1064.5 158.5,-1083.5 194.5,-1083.5 194.5,-1064.5 158.5,-1064.5"/>
<text text-anchor="middle" x="176.5" y="-1071.5" font-family="Helvetica,sans-Serif" font-size="10.00">Boid</text>
</a>
</g>
</g>
<!-- Node0&#45;&gt;Node4 -->
<g id="edge4" class="edge"><title>Node0&#45;&gt;Node4</title>
<path fill="none" stroke="midnightblue" d="M43.1853,-618.831C46.2947,-697.637 61.5218,-987.626 119,-1055 128.739,-1066.42 145.572,-1071 158.338,-1072.82"/>
<polygon fill="midnightblue" stroke="midnightblue" points="46.6811,-618.651 42.8109,-608.788 39.686,-618.911 46.6811,-618.651"/>
</g>
<!-- Node5 -->
<g id="node6" class="node"><title>Node5</title>
<g id="a_node6"><a xlink:href="class_camera_controller.html" target="_top" xlink:title="Script to move the camera around so that it follows the player">
<polygon fill="none" stroke="black" points="130.5,-1026.5 130.5,-1045.5 222.5,-1045.5 222.5,-1026.5 130.5,-1026.5"/>
<text text-anchor="middle" x="176.5" y="-1033.5" font-family="Helvetica,sans-Serif" font-size="10.00">CameraController</text>
</a>
</g>
</g>
<!-- Node0&#45;&gt;Node5 -->
<g id="edge5" class="edge"><title>Node0&#45;&gt;Node5</title>
<path fill="none" stroke="midnightblue" d="M43.5299,-619.054C47.763,-693.935 66.1657,-955.99 119,-1017 122.387,-1020.91 126.607,-1024.02 131.204,-1026.49"/>
<polygon fill="midnightblue" stroke="midnightblue" points="47.005,-618.499 42.9691,-608.703 40.0153,-618.878 47.005,-618.499"/>
</g>
<!-- Node6 -->
<g id="node7" class="node"><title>Node6</title>
<g id="a_node7"><a xlink:href="class_camera_follow.html" target="_top" xlink:title="CameraFollow">
<polygon fill="none" stroke="black" points="137.5,-988.5 137.5,-1007.5 215.5,-1007.5 215.5,-988.5 137.5,-988.5"/>
<text text-anchor="middle" x="176.5" y="-995.5" font-family="Helvetica,sans-Serif" font-size="10.00">CameraFollow</text>
</a>
</g>
</g>
<!-- Node0&#45;&gt;Node6 -->
<g id="edge6" class="edge"><title>Node0&#45;&gt;Node6</title>
<path fill="none" stroke="midnightblue" d="M43.8941,-618.572C49.2433,-688.412 70.6274,-924.128 119,-979 123.859,-984.512 130.369,-988.428 137.24,-991.209"/>
<polygon fill="midnightblue" stroke="midnightblue" points="47.378,-618.224 43.1479,-608.51 40.3971,-618.742 47.378,-618.224"/>
</g>
<!-- Node7 -->
<g id="node8" class="node"><title>Node7</title>
<g id="a_node8"><a xlink:href="class_canvas_script.html" target="_top" xlink:title="Added to a canvas holding the dialogue elements to ensure it&#39;s not destroyed when a new scene is crea...">
<polygon fill="none" stroke="black" points="139.5,-950.5 139.5,-969.5 213.5,-969.5 213.5,-950.5 139.5,-950.5"/>
<text text-anchor="middle" x="176.5" y="-957.5" font-family="Helvetica,sans-Serif" font-size="10.00">CanvasScript</text>
</a>
</g>
</g>
<!-- Node0&#45;&gt;Node7 -->
<g id="edge7" class="edge"><title>Node0&#45;&gt;Node7</title>
<path fill="none" stroke="midnightblue" d="M44.3818,-618.689C51.001,-684.042 75.2085,-892.383 119,-941 124.402,-946.998 131.758,-951.104 139.375,-953.916"/>
<polygon fill="midnightblue" stroke="midnightblue" points="47.8445,-618.137 43.3793,-608.529 40.8783,-618.825 47.8445,-618.137"/>
</g>
<!-- Node8 -->
<g id="node9" class="node"><title>Node8</title>
<g id="a_node9"><a xlink:href="class_container_data.html" target="_top" xlink:title="An attribute to store information for a container in the item menu ">
<polygon fill="none" stroke="black" points="137.5,-912.5 137.5,-931.5 215.5,-931.5 215.5,-912.5 137.5,-912.5"/>
<text text-anchor="middle" x="176.5" y="-919.5" font-family="Helvetica,sans-Serif" font-size="10.00">ContainerData</text>
</a>
</g>
</g>
<!-- Node0&#45;&gt;Node8 -->
<g id="edge8" class="edge"><title>Node0&#45;&gt;Node8</title>
<path fill="none" stroke="midnightblue" d="M44.9953,-618.83C52.9914,-679.422 79.7684,-860.588 119,-903 123.989,-908.394 130.557,-912.257 137.444,-915.024"/>
<polygon fill="midnightblue" stroke="midnightblue" points="48.4374,-618.155 43.685,-608.686 41.495,-619.052 48.4374,-618.155"/>
</g>
<!-- Node9 -->
<g id="node10" class="node"><title>Node9</title>
<g id="a_node10"><a xlink:href="class_countdown.html" target="_top" xlink:title="Countdown">
<polygon fill="none" stroke="black" points="144,-874.5 144,-893.5 209,-893.5 209,-874.5 144,-874.5"/>
<text text-anchor="middle" x="176.5" y="-881.5" font-family="Helvetica,sans-Serif" font-size="10.00">Countdown</text>
</a>
</g>
</g>
<!-- Node0&#45;&gt;Node9 -->
<g id="edge9" class="edge"><title>Node0&#45;&gt;Node9</title>
<path fill="none" stroke="midnightblue" d="M42.2983,-618.602C42.8829,-667.143 51.1943,-794.117 119,-865 125.581,-871.88 134.729,-876.269 143.749,-879.068"/>
<polygon fill="midnightblue" stroke="midnightblue" points="45.7982,-618.503 42.28,-608.51 38.7982,-618.516 45.7982,-618.503"/>
</g>
<!-- Node10 -->
<g id="node11" class="node"><title>Node10</title>
<g id="a_node11"><a xlink:href="class_dialogue_script.html" target="_top" xlink:title="Script to show dialogue, as well as step through multiple lines and close afterwards ...">
<polygon fill="none" stroke="black" points="136.5,-836.5 136.5,-855.5 216.5,-855.5 216.5,-836.5 136.5,-836.5"/>
<text text-anchor="middle" x="176.5" y="-843.5" font-family="Helvetica,sans-Serif" font-size="10.00">DialogueScript</text>
</a>
</g>
</g>
<!-- Node0&#45;&gt;Node10 -->
<g id="edge10" class="edge"><title>Node0&#45;&gt;Node10</title>
<path fill="none" stroke="midnightblue" d="M43.4444,-619.004C46.5929,-662.846 60.2101,-768.17 119,-827 123.828,-831.831 129.922,-835.434 136.308,-838.121"/>
<polygon fill="midnightblue" stroke="midnightblue" points="46.9246,-618.57 42.8263,-608.8 39.9374,-618.994 46.9246,-618.57"/>
</g>
<!-- Node11 -->
<g id="node12" class="node"><title>Node11</title>
<g id="a_node12"><a xlink:href="class_duck_a_i.html" target="_top" xlink:title="DuckAI">
<polygon fill="none" stroke="black" points="152.5,-798.5 152.5,-817.5 200.5,-817.5 200.5,-798.5 152.5,-798.5"/>
<text text-anchor="middle" x="176.5" y="-805.5" font-family="Helvetica,sans-Serif" font-size="10.00">DuckAI</text>
</a>
</g>
</g>
<!-- Node0&#45;&gt;Node11 -->
<g id="edge11" class="edge"><title>Node0&#45;&gt;Node11</title>
<path fill="none" stroke="midnightblue" d="M44.9698,-618.787C50.7858,-657.078 68.8527,-741.698 119,-789 128.034,-797.521 141.013,-802.229 152.254,-804.825"/>
<polygon fill="midnightblue" stroke="midnightblue" points="48.4361,-618.302 43.5865,-608.882 41.5034,-619.27 48.4361,-618.302"/>
</g>
<!-- Node12 -->
<g id="node13" class="node"><title>Node12</title>
<g id="a_node13"><a xlink:href="class_exploration_menu_script.html" target="_top" xlink:title="A script to manage the exploration menu that the user can call up at anytime ">
<polygon fill="none" stroke="black" points="119,-760.5 119,-779.5 234,-779.5 234,-760.5 119,-760.5"/>
<text text-anchor="middle" x="176.5" y="-767.5" font-family="Helvetica,sans-Serif" font-size="10.00">ExplorationMenuScript</text>
</a>
</g>
</g>
<!-- Node0&#45;&gt;Node12 -->
<g id="edge12" class="edge"><title>Node0&#45;&gt;Node12</title>
<path fill="none" stroke="midnightblue" d="M47.2114,-618.771C55.9003,-651.028 77.4749,-714.985 119,-751 123.456,-754.865 128.729,-757.951 134.234,-760.413"/>
<polygon fill="midnightblue" stroke="midnightblue" points="50.5264,-617.606 44.6638,-608.781 43.7435,-619.336 50.5264,-617.606"/>
</g>
<!-- Node13 -->
<g id="node14" class="node"><title>Node13</title>
<g id="a_node14"><a xlink:href="class_global_functions.html" target="_top" xlink:title="Provides functions and variables to be accessed by any game object to allow data to be passed between...">
<polygon fill="none" stroke="black" points="133,-722.5 133,-741.5 220,-741.5 220,-722.5 133,-722.5"/>
<text text-anchor="middle" x="176.5" y="-729.5" font-family="Helvetica,sans-Serif" font-size="10.00">GlobalFunctions</text>
</a>
</g>
</g>
<!-- Node0&#45;&gt;Node13 -->
<g id="edge13" class="edge"><title>Node0&#45;&gt;Node13</title>
<path fill="none" stroke="midnightblue" d="M50.5177,-618.077C62.0617,-643.317 85.6992,-687.575 119,-713 124.018,-716.831 129.852,-719.915 135.829,-722.39"/>
<polygon fill="midnightblue" stroke="midnightblue" points="53.6766,-616.565 46.4413,-608.826 47.271,-619.388 53.6766,-616.565"/>
</g>
<!-- Node14 -->
<g id="node15" class="node"><title>Node14</title>
<g id="a_node15"><a xlink:href="class_goal.html" target="_top" xlink:title="Goal">
<polygon fill="none" stroke="black" points="158,-684.5 158,-703.5 195,-703.5 195,-684.5 158,-684.5"/>
<text text-anchor="middle" x="176.5" y="-691.5" font-family="Helvetica,sans-Serif" font-size="10.00">Goal</text>
</a>
</g>
</g>
<!-- Node0&#45;&gt;Node14 -->
<g id="edge14" class="edge"><title>Node0&#45;&gt;Node14</title>
<path fill="none" stroke="midnightblue" d="M56.1537,-616.65C70.226,-633.751 93.6354,-659.335 119,-675 130.975,-682.396 146.172,-687.296 157.788,-690.264"/>
<polygon fill="midnightblue" stroke="midnightblue" points="58.6697,-614.193 49.6851,-608.578 53.2073,-618.57 58.6697,-614.193"/>
</g>
<!-- Node15 -->
<g id="node16" class="node"><title>Node15</title>
<g id="a_node16"><a xlink:href="class_healing_station.html" target="_top" xlink:title="A script describing a healing station, where all player&#39;s health and magic are restored ...">
<polygon fill="none" stroke="black" points="136.5,-646.5 136.5,-665.5 216.5,-665.5 216.5,-646.5 136.5,-646.5"/>
<text text-anchor="middle" x="176.5" y="-653.5" font-family="Helvetica,sans-Serif" font-size="10.00">HealingStation</text>
</a>
</g>
</g>
<!-- Node0&#45;&gt;Node15 -->
<g id="edge15" class="edge"><title>Node0&#45;&gt;Node15</title>
<path fill="none" stroke="midnightblue" d="M69.0388,-613.302C83.5716,-620.847 102.029,-629.97 119,-637 127.222,-640.406 136.297,-643.668 144.722,-646.498"/>
<polygon fill="midnightblue" stroke="midnightblue" points="70.5907,-610.163 60.1105,-608.609 67.334,-616.36 70.5907,-610.163"/>
</g>
<!-- Node16 -->
<g id="node17" class="node"><title>Node16</title>
<g id="a_node17"><a xlink:href="class_items_menu_script.html" target="_top" xlink:title="Controls all initialisation of menu and updates arrays when an item is moved ">
<polygon fill="none" stroke="black" points="131.5,-608.5 131.5,-627.5 221.5,-627.5 221.5,-608.5 131.5,-608.5"/>
<text text-anchor="middle" x="176.5" y="-615.5" font-family="Helvetica,sans-Serif" font-size="10.00">ItemsMenuScript</text>
</a>
</g>
</g>
<!-- Node0&#45;&gt;Node16 -->
<g id="edge16" class="edge"><title>Node0&#45;&gt;Node16</title>
<path fill="none" stroke="midnightblue" d="M93.0459,-606.221C105.679,-608.026 119.129,-609.947 131.421,-611.703"/>
<polygon fill="midnightblue" stroke="midnightblue" points="93.5216,-602.753 83.1271,-604.804 92.5316,-609.683 93.5216,-602.753"/>
</g>
<!-- Node17 -->
<g id="node18" class="node"><title>Node17</title>
<g id="a_node18"><a xlink:href="class_level_manager.html" target="_top" xlink:title="A script used to check and handle when a level is beat by defeating the final boss ...">
<polygon fill="none" stroke="black" points="138.5,-570.5 138.5,-589.5 214.5,-589.5 214.5,-570.5 138.5,-570.5"/>
<text text-anchor="middle" x="176.5" y="-577.5" font-family="Helvetica,sans-Serif" font-size="10.00">LevelManager</text>
</a>
</g>
</g>
<!-- Node0&#45;&gt;Node17 -->
<g id="edge17" class="edge"><title>Node0&#45;&gt;Node17</title>
<path fill="none" stroke="midnightblue" d="M93.2711,-591.747C108.242,-589.608 124.342,-587.308 138.292,-585.315"/>
<polygon fill="midnightblue" stroke="midnightblue" points="92.5316,-588.317 83.1271,-593.196 93.5216,-595.247 92.5316,-588.317"/>
</g>
<!-- Node18 -->
<g id="node19" class="node"><title>Node18</title>
<g id="a_node19"><a xlink:href="class_main_battle.html" target="_top" xlink:title="Script for handing a battle scene. Uses BattleManager, but handles turn order and execution as well a...">
<polygon fill="none" stroke="black" points="145,-532.5 145,-551.5 208,-551.5 208,-532.5 145,-532.5"/>
<text text-anchor="middle" x="176.5" y="-539.5" font-family="Helvetica,sans-Serif" font-size="10.00">MainBattle</text>
</a>
</g>
</g>
<!-- Node0&#45;&gt;Node18 -->
<g id="edge18" class="edge"><title>Node0&#45;&gt;Node18</title>
<path fill="none" stroke="midnightblue" d="M69.0388,-584.698C83.5716,-577.153 102.029,-568.03 119,-561 127.222,-557.594 136.297,-554.332 144.722,-551.502"/>
<polygon fill="midnightblue" stroke="midnightblue" points="67.334,-581.64 60.1105,-589.391 70.5907,-587.837 67.334,-581.64"/>
</g>
<!-- Node19 -->
<g id="node20" class="node"><title>Node19</title>
<g id="a_node20"><a xlink:href="class_menu_script.html" target="_top" xlink:title="Script to handle the main menu ">
<polygon fill="none" stroke="black" points="143.5,-494.5 143.5,-513.5 209.5,-513.5 209.5,-494.5 143.5,-494.5"/>
<text text-anchor="middle" x="176.5" y="-501.5" font-family="Helvetica,sans-Serif" font-size="10.00">MenuScript</text>
</a>
</g>
</g>
<!-- Node0&#45;&gt;Node19 -->
<g id="edge19" class="edge"><title>Node0&#45;&gt;Node19</title>
<path fill="none" stroke="midnightblue" d="M56.1537,-581.35C70.226,-564.249 93.6354,-538.665 119,-523 126.396,-518.432 135.022,-514.816 143.274,-512.019"/>
<polygon fill="midnightblue" stroke="midnightblue" points="53.2073,-579.43 49.6851,-589.422 58.6697,-583.807 53.2073,-579.43"/>
</g>
<!-- Node20 -->
<g id="node21" class="node"><title>Node20</title>
<g id="a_node21"><a xlink:href="class_object_interaction.html" target="_top" xlink:title="A component to add to collider relating to an object that can interact with the player by pressing th...">
<polygon fill="none" stroke="black" points="131.5,-456.5 131.5,-475.5 221.5,-475.5 221.5,-456.5 131.5,-456.5"/>
<text text-anchor="middle" x="176.5" y="-463.5" font-family="Helvetica,sans-Serif" font-size="10.00">ObjectInteraction</text>
</a>
</g>
</g>
<!-- Node0&#45;&gt;Node20 -->
<g id="edge20" class="edge"><title>Node0&#45;&gt;Node20</title>
<path fill="none" stroke="midnightblue" d="M50.5177,-579.923C62.0617,-554.683 85.6992,-510.425 119,-485 124.018,-481.169 129.852,-478.085 135.829,-475.61"/>
<polygon fill="midnightblue" stroke="midnightblue" points="47.271,-578.612 46.4413,-589.174 53.6766,-581.435 47.271,-578.612"/>
</g>
<!-- Node21 -->
<g id="node22" class="node"><title>Node21</title>
<g id="a_node22"><a xlink:href="class_player_data.html" target="_top" xlink:title="A monobehaviour object to house an instance of DataManager so it can be called by other objects ...">
<polygon fill="none" stroke="black" points="144,-418.5 144,-437.5 209,-437.5 209,-418.5 144,-418.5"/>
<text text-anchor="middle" x="176.5" y="-425.5" font-family="Helvetica,sans-Serif" font-size="10.00">PlayerData</text>
</a>
</g>
</g>
<!-- Node0&#45;&gt;Node21 -->
<g id="edge21" class="edge"><title>Node0&#45;&gt;Node21</title>
<path fill="none" stroke="midnightblue" d="M47.2114,-579.229C55.9003,-546.972 77.4749,-483.015 119,-447 126.036,-440.897 135.108,-436.737 143.915,-433.908"/>
<polygon fill="midnightblue" stroke="midnightblue" points="43.7435,-578.664 44.6638,-589.219 50.5264,-580.394 43.7435,-578.664"/>
</g>
<!-- Node22 -->
<g id="node23" class="node"><title>Node22</title>
<g id="a_node23"><a xlink:href="class_player_duck.html" target="_top" xlink:title="PlayerDuck">
<polygon fill="none" stroke="black" points="143,-380.5 143,-399.5 210,-399.5 210,-380.5 143,-380.5"/>
<text text-anchor="middle" x="176.5" y="-387.5" font-family="Helvetica,sans-Serif" font-size="10.00">PlayerDuck</text>
</a>
</g>
</g>
<!-- Node0&#45;&gt;Node22 -->
<g id="edge22" class="edge"><title>Node0&#45;&gt;Node22</title>
<path fill="none" stroke="midnightblue" d="M44.9698,-579.213C50.7858,-540.922 68.8527,-456.302 119,-409 125.625,-402.751 134.371,-398.553 142.998,-395.735"/>
<polygon fill="midnightblue" stroke="midnightblue" points="41.5034,-578.73 43.5865,-589.118 48.4361,-579.698 41.5034,-578.73"/>
</g>
<!-- Node23 -->
<g id="node24" class="node"><title>Node23</title>
<g id="a_node24"><a xlink:href="class_player_menu.html" target="_top" xlink:title="Script for controlling the menu which allows users to switch the order of their team members ...">
<polygon fill="none" stroke="black" points="142.5,-342.5 142.5,-361.5 210.5,-361.5 210.5,-342.5 142.5,-342.5"/>
<text text-anchor="middle" x="176.5" y="-349.5" font-family="Helvetica,sans-Serif" font-size="10.00">PlayerMenu</text>
</a>
</g>
</g>
<!-- Node0&#45;&gt;Node23 -->
<g id="edge23" class="edge"><title>Node0&#45;&gt;Node23</title>
<path fill="none" stroke="midnightblue" d="M43.4444,-578.996C46.5929,-535.154 60.2101,-429.83 119,-371 125.364,-364.631 133.928,-360.397 142.462,-357.582"/>
<polygon fill="midnightblue" stroke="midnightblue" points="39.9374,-579.006 42.8263,-589.2 46.9246,-579.43 39.9374,-579.006"/>
</g>
<!-- Node24 -->
<g id="node25" class="node"><title>Node24</title>
<g id="a_node25"><a xlink:href="class_player_movement.html" target="_top" xlink:title="A script to control the movement and animations of the player">
<polygon fill="none" stroke="black" points="132,-304.5 132,-323.5 221,-323.5 221,-304.5 132,-304.5"/>
<text text-anchor="middle" x="176.5" y="-311.5" font-family="Helvetica,sans-Serif" font-size="10.00">PlayerMovement</text>
</a>
</g>
</g>
<!-- Node0&#45;&gt;Node24 -->
<g id="edge24" class="edge"><title>Node0&#45;&gt;Node24</title>
<path fill="none" stroke="midnightblue" d="M42.2983,-579.398C42.8829,-530.857 51.1943,-403.883 119,-333 122.72,-329.111 127.26,-326.018 132.133,-323.559"/>
<polygon fill="midnightblue" stroke="midnightblue" points="38.7982,-579.484 42.28,-589.49 45.7982,-579.497 38.7982,-579.484"/>
</g>
<!-- Node25 -->
<g id="node26" class="node"><title>Node25</title>
<g id="a_node26"><a xlink:href="class_portal.html" target="_top" xlink:title="A component to add to an object, such as when the player touches it they are teleported to a new scen...">
<polygon fill="none" stroke="black" points="155.5,-266.5 155.5,-285.5 197.5,-285.5 197.5,-266.5 155.5,-266.5"/>
<text text-anchor="middle" x="176.5" y="-273.5" font-family="Helvetica,sans-Serif" font-size="10.00">Portal</text>
</a>
</g>
</g>
<!-- Node0&#45;&gt;Node25 -->
<g id="edge25" class="edge"><title>Node0&#45;&gt;Node25</title>
<path fill="none" stroke="midnightblue" d="M44.9953,-579.17C52.9914,-518.578 79.7684,-337.412 119,-295 128.346,-284.896 143.231,-280.162 155.377,-277.946"/>
<polygon fill="midnightblue" stroke="midnightblue" points="41.495,-578.948 43.685,-589.314 48.4374,-579.845 41.495,-578.948"/>
</g>
<!-- Node26 -->
<g id="node27" class="node"><title>Node26</title>
<g id="a_node27"><a xlink:href="class_race_manager.html" target="_top" xlink:title="RaceManager">
<polygon fill="none" stroke="black" points="138,-228.5 138,-247.5 215,-247.5 215,-228.5 138,-228.5"/>
<text text-anchor="middle" x="176.5" y="-235.5" font-family="Helvetica,sans-Serif" font-size="10.00">RaceManager</text>
</a>
</g>
</g>
<!-- Node0&#45;&gt;Node26 -->
<g id="edge26" class="edge"><title>Node0&#45;&gt;Node26</title>
<path fill="none" stroke="midnightblue" d="M44.3818,-579.311C51.001,-513.958 75.2085,-305.617 119,-257 124.056,-251.387 130.823,-247.43 137.914,-244.641"/>
<polygon fill="midnightblue" stroke="midnightblue" points="40.8783,-579.175 43.3793,-589.471 47.8445,-579.863 40.8783,-579.175"/>
</g>
<!-- Node27 -->
<g id="node28" class="node"><title>Node27</title>
<g id="a_node28"><a xlink:href="class_scene_changer.html" target="_top" xlink:title="A set of functions to be called to change scenes smoothly whilst handling the player&#39;s location and a...">
<polygon fill="none" stroke="black" points="136.5,-190.5 136.5,-209.5 216.5,-209.5 216.5,-190.5 136.5,-190.5"/>
<text text-anchor="middle" x="176.5" y="-197.5" font-family="Helvetica,sans-Serif" font-size="10.00">SceneChanger</text>
</a>
</g>
</g>
<!-- Node0&#45;&gt;Node27 -->
<g id="edge27" class="edge"><title>Node0&#45;&gt;Node27</title>
<path fill="none" stroke="midnightblue" d="M43.8941,-579.428C49.2433,-509.588 70.6274,-273.872 119,-219 123.654,-213.721 129.821,-209.906 136.371,-207.15"/>
<polygon fill="midnightblue" stroke="midnightblue" points="40.3971,-579.258 43.1479,-589.49 47.378,-579.776 40.3971,-579.258"/>
</g>
<!-- Node28 -->
<g id="node29" class="node"><title>Node28</title>
<g id="a_node29"><a xlink:href="class_shop_menu.html" target="_top" xlink:title="A component that opens a GUI shop menu for the player to utilise with the mouse where they can make p...">
<polygon fill="none" stroke="black" points="145,-152.5 145,-171.5 208,-171.5 208,-152.5 145,-152.5"/>
<text text-anchor="middle" x="176.5" y="-159.5" font-family="Helvetica,sans-Serif" font-size="10.00">ShopMenu</text>
</a>
</g>
</g>
<!-- Node0&#45;&gt;Node28 -->
<g id="edge28" class="edge"><title>Node0&#45;&gt;Node28</title>
<path fill="none" stroke="midnightblue" d="M43.5299,-578.946C47.763,-504.065 66.1657,-242.01 119,-181 125.571,-173.412 135.275,-168.846 144.793,-166.102"/>
<polygon fill="midnightblue" stroke="midnightblue" points="40.0153,-579.122 42.9691,-589.297 47.005,-579.501 40.0153,-579.122"/>
</g>
<!-- Node29 -->
<g id="node30" class="node"><title>Node29</title>
<g id="a_node30"><a xlink:href="class_sound_manager.html" target="_top" xlink:title="A script to manage all background music and sound effects in the game ">
<polygon fill="none" stroke="black" points="135.5,-114.5 135.5,-133.5 217.5,-133.5 217.5,-114.5 135.5,-114.5"/>
<text text-anchor="middle" x="176.5" y="-121.5" font-family="Helvetica,sans-Serif" font-size="10.00">SoundManager</text>
</a>
</g>
</g>
<!-- Node0&#45;&gt;Node29 -->
<g id="edge29" class="edge"><title>Node0&#45;&gt;Node29</title>
<path fill="none" stroke="midnightblue" d="M43.1853,-579.169C46.2947,-500.363 61.5218,-210.374 119,-143 123.366,-137.883 129.157,-134.139 135.368,-131.401"/>
<polygon fill="midnightblue" stroke="midnightblue" points="39.686,-579.089 42.8109,-589.212 46.6811,-579.349 39.686,-579.089"/>
</g>
<!-- Node30 -->
<g id="node31" class="node"><title>Node30</title>
<g id="a_node31"><a xlink:href="class_stats_script.html" target="_top" xlink:title="A script used to manage and update all of the stat displays in the battle scene ">
<polygon fill="none" stroke="black" points="144,-76.5 144,-95.5 209,-95.5 209,-76.5 144,-76.5"/>
<text text-anchor="middle" x="176.5" y="-83.5" font-family="Helvetica,sans-Serif" font-size="10.00">StatsScript</text>
</a>
</g>
</g>
<!-- Node0&#45;&gt;Node30 -->
<g id="edge30" class="edge"><title>Node0&#45;&gt;Node30</title>
<path fill="none" stroke="midnightblue" d="M42.9041,-579.135C44.9801,-496.225 56.9241,-178.697 119,-105 125.267,-97.5598 134.549,-93.0218 143.788,-90.2578"/>
<polygon fill="midnightblue" stroke="midnightblue" points="39.403,-579.149 42.6725,-589.227 46.4011,-579.31 39.403,-579.149"/>
</g>
<!-- Node31 -->
<g id="node32" class="node"><title>Node31</title>
<g id="a_node32"><a xlink:href="class_switch_players_script.html" target="_top" xlink:title="Script to handle the menu allowing users to switch players in and out of battle ">
<polygon fill="none" stroke="black" points="124.5,-38.5 124.5,-57.5 228.5,-57.5 228.5,-38.5 124.5,-38.5"/>
<text text-anchor="middle" x="176.5" y="-45.5" font-family="Helvetica,sans-Serif" font-size="10.00">SwitchPlayersScript</text>
</a>
</g>
</g>
<!-- Node0&#45;&gt;Node31 -->
<g id="edge31" class="edge"><title>Node0&#45;&gt;Node31</title>
<path fill="none" stroke="midnightblue" d="M42.6591,-579.289C43.7465,-492.735 52.2652,-147.103 119,-67 122.246,-63.104 126.319,-60.0033 130.784,-57.5363"/>
<polygon fill="midnightblue" stroke="midnightblue" points="39.1589,-579.297 42.553,-589.333 46.1585,-579.371 39.1589,-579.297"/>
</g>
<!-- Node32 -->
<g id="node33" class="node"><title>Node32</title>
<g id="a_node33"><a xlink:href="class_world_map_script.html" target="_top" xlink:title="A controler for the world map, stopping players from entering old or future levels, and colouring the departments approriately">
<polygon fill="none" stroke="black" points="133.5,-0.5 133.5,-19.5 219.5,-19.5 219.5,-0.5 133.5,-0.5"/>
<text text-anchor="middle" x="176.5" y="-7.5" font-family="Helvetica,sans-Serif" font-size="10.00">WorldMapScript</text>
</a>
</g>
</g>
<!-- Node0&#45;&gt;Node32 -->
<g id="edge32" class="edge"><title>Node0&#45;&gt;Node32</title>
<path fill="none" stroke="midnightblue" d="M42.4499,-579.042C42.6178,-488.306 47.6984,-115.408 119,-29 122.82,-24.3704 127.81,-20.8633 133.242,-18.2077"/>
<polygon fill="midnightblue" stroke="midnightblue" points="38.9498,-579.091 42.4505,-589.091 45.9498,-579.091 38.9498,-579.091"/>
</g>
</g>
</svg>
