<?xml version="1.0" encoding="UTF-8" standalone="no"?>
<!DOCTYPE svg PUBLIC "-//W3C//DTD SVG 1.1//EN"
 "http://www.w3.org/Graphics/SVG/1.1/DTD/svg11.dtd">
<!-- Generated by graphviz version 2.38.0 (20140413.2041)
 -->
<!-- Title: Graphical Class Hierarchy Pages: 1 -->
<svg width="394pt" height="333pt"
 viewBox="0.00 0.00 394.00 333.00" xmlns="http://www.w3.org/2000/svg" xmlns:xlink="http://www.w3.org/1999/xlink">
<g id="graph0" class="graph" transform="scale(1 1) rotate(0) translate(4 329)">
<title>Graphical Class Hierarchy</title>
<!-- Node0 -->
<g id="node1" class="node"><title>Node0</title>
<g id="a_node1"><a xlink:href="class_data_manager_1_1_stored_data_1_1_special_move.html" target="_top" xlink:title="DataManager.StoredData.SpecialMove">
<polygon fill="none" stroke="black" points="0,-153 0,-172 184,-172 184,-153 0,-153"/>
<text text-anchor="middle" x="92" y="-160" font-family="Helvetica,sans-Serif" font-size="10.00">DataManager.StoredData.SpecialMove</text>
</a>
</g>
</g>
<!-- Node1 -->
<g id="node2" class="node"><title>Node1</title>
<g id="a_node2"><a xlink:href="class_data_manager_1_1_stored_data_1_1_healing_spell.html" target="_top" xlink:title="DataManager.StoredData.Healing\lSpell">
<polygon fill="none" stroke="black" points="222.5,-294.5 222.5,-324.5 383.5,-324.5 383.5,-294.5 222.5,-294.5"/>
<text text-anchor="start" x="230.5" y="-312.5" font-family="Helvetica,sans-Serif" font-size="10.00">DataManager.StoredData.Healing</text>
<text text-anchor="middle" x="303" y="-301.5" font-family="Helvetica,sans-Serif" font-size="10.00">Spell</text>
</a>
</g>
</g>
<!-- Node0&#45;&gt;Node1 -->
<g id="edge1" class="edge"><title>Node0&#45;&gt;Node1</title>
<path fill="none" stroke="midnightblue" d="M106.463,-180.179C127.713,-206.875 171.616,-257.342 220,-285.5 225.897,-288.932 232.323,-291.906 238.896,-294.475"/>
<polygon fill="midnightblue" stroke="midnightblue" points="109.067,-177.827 100.152,-172.103 103.552,-182.137 109.067,-177.827"/>
</g>
<!-- Node2 -->
<g id="node3" class="node"><title>Node2</title>
<g id="a_node3"><a xlink:href="class_data_manager_1_1_stored_data_1_1_increase_money.html" target="_top" xlink:title="DataManager.StoredData.Increase\lMoney">
<polygon fill="none" stroke="black" points="220,-245.5 220,-275.5 386,-275.5 386,-245.5 220,-245.5"/>
<text text-anchor="start" x="228" y="-263.5" font-family="Helvetica,sans-Serif" font-size="10.00">DataManager.StoredData.Increase</text>
<text text-anchor="middle" x="303" y="-252.5" font-family="Helvetica,sans-Serif" font-size="10.00">Money</text>
</a>
</g>
</g>
<!-- Node0&#45;&gt;Node2 -->
<g id="edge2" class="edge"><title>Node0&#45;&gt;Node2</title>
<path fill="none" stroke="midnightblue" d="M115.502,-177.883C140.225,-194.233 181.544,-219.961 220,-236.5 227.631,-239.782 235.847,-242.776 244.027,-245.452"/>
<polygon fill="midnightblue" stroke="midnightblue" points="117.138,-174.766 106.88,-172.115 113.245,-180.584 117.138,-174.766"/>
</g>
<!-- Node3 -->
<g id="node4" class="node"><title>Node3</title>
<g id="a_node4"><a xlink:href="class_data_manager_1_1_stored_data_1_1_lower_defence.html" target="_top" xlink:title="DataManager.StoredData.Lower\lDefence">
<polygon fill="none" stroke="black" points="225.5,-196.5 225.5,-226.5 380.5,-226.5 380.5,-196.5 225.5,-196.5"/>
<text text-anchor="start" x="233.5" y="-214.5" font-family="Helvetica,sans-Serif" font-size="10.00">DataManager.StoredData.Lower</text>
<text text-anchor="middle" x="303" y="-203.5" font-family="Helvetica,sans-Serif" font-size="10.00">Defence</text>
</a>
</g>
</g>
<!-- Node0&#45;&gt;Node3 -->
<g id="edge3" class="edge"><title>Node0&#45;&gt;Node3</title>
<path fill="none" stroke="midnightblue" d="M143.871,-174.427C172.173,-181.062 207.673,-189.385 237.863,-196.463"/>
<polygon fill="midnightblue" stroke="midnightblue" points="144.328,-170.939 133.793,-172.064 142.731,-177.754 144.328,-170.939"/>
</g>
<!-- Node4 -->
<g id="node5" class="node"><title>Node4</title>
<g id="a_node5"><a xlink:href="class_data_manager_1_1_stored_data_1_1_lower_speed.html" target="_top" xlink:title="DataManager.StoredData.Lower\lSpeed">
<polygon fill="none" stroke="black" points="225.5,-147.5 225.5,-177.5 380.5,-177.5 380.5,-147.5 225.5,-147.5"/>
<text text-anchor="start" x="233.5" y="-165.5" font-family="Helvetica,sans-Serif" font-size="10.00">DataManager.StoredData.Lower</text>
<text text-anchor="middle" x="303" y="-154.5" font-family="Helvetica,sans-Serif" font-size="10.00">Speed</text>
</a>
</g>
</g>
<!-- Node0&#45;&gt;Node4 -->
<g id="edge4" class="edge"><title>Node0&#45;&gt;Node4</title>
<path fill="none" stroke="midnightblue" d="M194.095,-162.5C204.587,-162.5 215.126,-162.5 225.286,-162.5"/>
<polygon fill="midnightblue" stroke="midnightblue" points="194.062,-159 184.062,-162.5 194.062,-166 194.062,-159"/>
</g>
<!-- Node5 -->
<g id="node6" class="node"><title>Node5</title>
<g id="a_node6"><a xlink:href="class_data_manager_1_1_stored_data_1_1_magic_attack.html" target="_top" xlink:title="DataManager.StoredData.Magic\lAttack">
<polygon fill="none" stroke="black" points="225.5,-98.5 225.5,-128.5 380.5,-128.5 380.5,-98.5 225.5,-98.5"/>
<text text-anchor="start" x="233.5" y="-116.5" font-family="Helvetica,sans-Serif" font-size="10.00">DataManager.StoredData.Magic</text>
<text text-anchor="middle" x="303" y="-105.5" font-family="Helvetica,sans-Serif" font-size="10.00">Attack</text>
</a>
</g>
</g>
<!-- Node0&#45;&gt;Node5 -->
<g id="edge5" class="edge"><title>Node0&#45;&gt;Node5</title>
<path fill="none" stroke="midnightblue" d="M143.871,-150.573C172.173,-143.938 207.673,-135.615 237.863,-128.537"/>
<polygon fill="midnightblue" stroke="midnightblue" points="142.731,-147.246 133.793,-152.936 144.328,-154.061 142.731,-147.246"/>
</g>
<!-- Node6 -->
<g id="node7" class="node"><title>Node6</title>
<g id="a_node7"><a xlink:href="class_data_manager_1_1_stored_data_1_1_raise_attack.html" target="_top" xlink:title="DataManager.StoredData.Raise\lAttack">
<polygon fill="none" stroke="black" points="226,-49.5 226,-79.5 380,-79.5 380,-49.5 226,-49.5"/>
<text text-anchor="start" x="234" y="-67.5" font-family="Helvetica,sans-Serif" font-size="10.00">DataManager.StoredData.Raise</text>
<text text-anchor="middle" x="303" y="-56.5" font-family="Helvetica,sans-Serif" font-size="10.00">Attack</text>
</a>
</g>
</g>
<!-- Node0&#45;&gt;Node6 -->
<g id="edge6" class="edge"><title>Node0&#45;&gt;Node6</title>
<path fill="none" stroke="midnightblue" d="M115.973,-147.168C140.797,-131.116 181.926,-105.994 220,-89.5 228.331,-85.8911 237.347,-82.5826 246.249,-79.6363"/>
<polygon fill="midnightblue" stroke="midnightblue" points="113.753,-144.438 107.297,-152.839 117.583,-150.297 113.753,-144.438"/>
</g>
<!-- Node7 -->
<g id="node8" class="node"><title>Node7</title>
<g id="a_node8"><a xlink:href="class_data_manager_1_1_stored_data_1_1_raise_defence.html" target="_top" xlink:title="DataManager.StoredData.Raise\lDefence">
<polygon fill="none" stroke="black" points="226,-0.5 226,-30.5 380,-30.5 380,-0.5 226,-0.5"/>
<text text-anchor="start" x="234" y="-18.5" font-family="Helvetica,sans-Serif" font-size="10.00">DataManager.StoredData.Raise</text>
<text text-anchor="middle" x="303" y="-7.5" font-family="Helvetica,sans-Serif" font-size="10.00">Defence</text>
</a>
</g>
</g>
<!-- Node0&#45;&gt;Node7 -->
<g id="edge7" class="edge"><title>Node0&#45;&gt;Node7</title>
<path fill="none" stroke="midnightblue" d="M106.852,-144.645C128.313,-118.161 172.143,-68.5802 220,-40.5 226.547,-36.6587 233.739,-33.3558 241.061,-30.5291"/>
<polygon fill="midnightblue" stroke="midnightblue" points="103.948,-142.673 100.458,-152.677 109.425,-147.033 103.948,-142.673"/>
</g>
</g>
</svg>
