<?xml version="1.0" encoding="UTF-8" standalone="no"?>
<!DOCTYPE svg PUBLIC "-//W3C//DTD SVG 1.1//EN"
 "http://www.w3.org/Graphics/SVG/1.1/DTD/svg11.dtd">
<!-- Generated by graphviz version 2.38.0 (20140413.2041)
 -->
<!-- Title: Graphical Class Hierarchy Pages: 1 -->
<svg width="355pt" height="370pt"
 viewBox="0.00 0.00 355.00 370.00" xmlns="http://www.w3.org/2000/svg" xmlns:xlink="http://www.w3.org/1999/xlink">
<g id="graph0" class="graph" transform="scale(1 1) rotate(0) translate(4 366)">
<title>Graphical Class Hierarchy</title>
<!-- Node0 -->
<g id="node1" class="node"><title>Node0</title>
<g id="a_node1"><a xlink:href="class_event_args.html" target="_top" xlink:title="EventArgs">
<polygon fill="none" stroke="black" points="0,-171.5 0,-190.5 61,-190.5 61,-171.5 0,-171.5"/>
<text text-anchor="middle" x="30.5" y="-178.5" font-family="Helvetica,sans-Serif" font-size="10.00">EventArgs</text>
</a>
</g>
</g>
<!-- Node1 -->
<g id="node2" class="node"><title>Node1</title>
<g id="a_node2"><a xlink:href="class_game_event_args.html" target="_top" xlink:title="Base class for passing arguments with game events ">
<polygon fill="none" stroke="black" points="97,-171.5 97,-190.5 184,-190.5 184,-171.5 97,-171.5"/>
<text text-anchor="middle" x="140.5" y="-178.5" font-family="Helvetica,sans-Serif" font-size="10.00">GameEventArgs</text>
</a>
</g>
</g>
<!-- Node0&#45;&gt;Node1 -->
<g id="edge1" class="edge"><title>Node0&#45;&gt;Node1</title>
<path fill="none" stroke="midnightblue" d="M71.1905,-181C79.4826,-181 88.2599,-181 96.6604,-181"/>
<polygon fill="midnightblue" stroke="midnightblue" points="71.0115,-177.5 61.0115,-181 71.0114,-184.5 71.0115,-177.5"/>
</g>
<!-- Node2 -->
<g id="node3" class="node"><title>Node2</title>
<g id="a_node3"><a xlink:href="class_battle_ended_event_args.html" target="_top" xlink:title="GameEventArgs class to pass information about the end of a battle. ">
<polygon fill="none" stroke="black" points="226.5,-342.5 226.5,-361.5 340.5,-361.5 340.5,-342.5 226.5,-342.5"/>
<text text-anchor="middle" x="283.5" y="-349.5" font-family="Helvetica,sans-Serif" font-size="10.00">BattleEndedEventArgs</text>
</a>
</g>
</g>
<!-- Node1&#45;&gt;Node2 -->
<g id="edge2" class="edge"><title>Node1&#45;&gt;Node2</title>
<path fill="none" stroke="midnightblue" d="M146.369,-200.915C155.334,-233.38 177.542,-297.629 220,-333 224.618,-336.847 230.003,-339.916 235.639,-342.364"/>
<polygon fill="midnightblue" stroke="midnightblue" points="149.655,-199.646 143.738,-190.857 142.882,-201.417 149.655,-199.646"/>
</g>
<!-- Node3 -->
<g id="node4" class="node"><title>Node3</title>
<g id="a_node4"><a xlink:href="class_battle_event_args.html" target="_top" xlink:title="GameEventArgs class to pass information about a battle ">
<polygon fill="none" stroke="black" points="240.5,-304.5 240.5,-323.5 326.5,-323.5 326.5,-304.5 240.5,-304.5"/>
<text text-anchor="middle" x="283.5" y="-311.5" font-family="Helvetica,sans-Serif" font-size="10.00">BattleEventArgs</text>
</a>
</g>
</g>
<!-- Node1&#45;&gt;Node3 -->
<g id="edge3" class="edge"><title>Node1&#45;&gt;Node3</title>
<path fill="none" stroke="midnightblue" d="M149.573,-199.841C161.378,-225.179 185.734,-269.94 220,-295 226.042,-299.419 233.122,-302.822 240.305,-305.439"/>
<polygon fill="midnightblue" stroke="midnightblue" points="152.702,-198.267 145.415,-190.577 146.316,-201.133 152.702,-198.267"/>
</g>
<!-- Node4 -->
<g id="node5" class="node"><title>Node4</title>
<g id="a_node5"><a xlink:href="class_battle_move_args.html" target="_top" xlink:title="GameEventArgs class to pass information about a move performed by either the player or an enemy ...">
<polygon fill="none" stroke="black" points="241,-266.5 241,-285.5 326,-285.5 326,-266.5 241,-266.5"/>
<text text-anchor="middle" x="283.5" y="-273.5" font-family="Helvetica,sans-Serif" font-size="10.00">BattleMoveArgs</text>
</a>
</g>
</g>
<!-- Node1&#45;&gt;Node4 -->
<g id="edge4" class="edge"><title>Node1&#45;&gt;Node4</title>
<path fill="none" stroke="midnightblue" d="M155.51,-198.795C169.949,-216.007 193.97,-241.673 220,-257 226.45,-260.798 233.728,-263.9 240.979,-266.414"/>
<polygon fill="midnightblue" stroke="midnightblue" points="157.908,-196.198 148.872,-190.665 152.485,-200.624 157.908,-196.198"/>
</g>
<!-- Node5 -->
<g id="node6" class="node"><title>Node5</title>
<g id="a_node6"><a xlink:href="class_battle_started_event_args.html" target="_top" xlink:title="GameEventArgs class to pass infomation about the start of a battle. See GlobalFunctions.createBattle ">
<polygon fill="none" stroke="black" points="224.5,-228.5 224.5,-247.5 342.5,-247.5 342.5,-228.5 224.5,-228.5"/>
<text text-anchor="middle" x="283.5" y="-235.5" font-family="Helvetica,sans-Serif" font-size="10.00">BattleStartedEventArgs</text>
</a>
</g>
</g>
<!-- Node1&#45;&gt;Node5 -->
<g id="edge5" class="edge"><title>Node1&#45;&gt;Node5</title>
<path fill="none" stroke="midnightblue" d="M168.396,-195.307C183.341,-202.928 202.419,-212.121 220,-219 228.871,-222.471 238.65,-225.71 247.786,-228.496"/>
<polygon fill="midnightblue" stroke="midnightblue" points="169.719,-192.051 159.229,-190.567 166.504,-198.269 169.719,-192.051"/>
</g>
<!-- Node6 -->
<g id="node7" class="node"><title>Node6</title>
<g id="a_node7"><a xlink:href="class_beat_level_args.html" target="_top" xlink:title="BeatLevelArgs">
<polygon fill="none" stroke="black" points="244,-190.5 244,-209.5 323,-209.5 323,-190.5 244,-190.5"/>
<text text-anchor="middle" x="283.5" y="-197.5" font-family="Helvetica,sans-Serif" font-size="10.00">BeatLevelArgs</text>
</a>
</g>
</g>
<!-- Node1&#45;&gt;Node6 -->
<g id="edge6" class="edge"><title>Node1&#45;&gt;Node6</title>
<path fill="none" stroke="midnightblue" d="M194.216,-188.104C210.664,-190.32 228.495,-192.723 243.798,-194.785"/>
<polygon fill="midnightblue" stroke="midnightblue" points="194.565,-184.619 184.187,-186.752 193.63,-191.556 194.565,-184.619"/>
</g>
<!-- Node7 -->
<g id="node8" class="node"><title>Node7</title>
<g id="a_node8"><a xlink:href="class_character_event_args.html" target="_top" xlink:title="GameEventArgs class to pass a Character with an event ">
<polygon fill="none" stroke="black" points="232,-152.5 232,-171.5 335,-171.5 335,-152.5 232,-152.5"/>
<text text-anchor="middle" x="283.5" y="-159.5" font-family="Helvetica,sans-Serif" font-size="10.00">CharacterEventArgs</text>
</a>
</g>
</g>
<!-- Node1&#45;&gt;Node7 -->
<g id="edge7" class="edge"><title>Node1&#45;&gt;Node7</title>
<path fill="none" stroke="midnightblue" d="M194.279,-173.888C206.55,-172.234 219.587,-170.478 231.768,-168.836"/>
<polygon fill="midnightblue" stroke="midnightblue" points="193.63,-170.444 184.187,-175.248 194.565,-177.381 193.63,-170.444"/>
</g>
<!-- Node8 -->
<g id="node9" class="node"><title>Node8</title>
<g id="a_node9"><a xlink:href="class_int_changed_args.html" target="_top" xlink:title="GameEventArgs class to pass information that a value changed ">
<polygon fill="none" stroke="black" points="240.5,-114.5 240.5,-133.5 326.5,-133.5 326.5,-114.5 240.5,-114.5"/>
<text text-anchor="middle" x="283.5" y="-121.5" font-family="Helvetica,sans-Serif" font-size="10.00">IntChangedArgs</text>
</a>
</g>
</g>
<!-- Node1&#45;&gt;Node8 -->
<g id="edge8" class="edge"><title>Node1&#45;&gt;Node8</title>
<path fill="none" stroke="midnightblue" d="M168.396,-166.693C183.341,-159.072 202.419,-149.879 220,-143 228.871,-139.529 238.65,-136.29 247.786,-133.504"/>
<polygon fill="midnightblue" stroke="midnightblue" points="166.504,-163.731 159.229,-171.433 169.719,-169.949 166.504,-163.731"/>
</g>
<!-- Node9 -->
<g id="node10" class="node"><title>Node9</title>
<g id="a_node10"><a xlink:href="class_interaction_args.html" target="_top" xlink:title="GameEventArgs class to pass information about an interaction the player makes ">
<polygon fill="none" stroke="black" points="242.5,-76.5 242.5,-95.5 324.5,-95.5 324.5,-76.5 242.5,-76.5"/>
<text text-anchor="middle" x="283.5" y="-83.5" font-family="Helvetica,sans-Serif" font-size="10.00">InteractionArgs</text>
</a>
</g>
</g>
<!-- Node1&#45;&gt;Node9 -->
<g id="edge9" class="edge"><title>Node1&#45;&gt;Node9</title>
<path fill="none" stroke="midnightblue" d="M155.51,-163.205C169.949,-145.993 193.97,-120.327 220,-105 226.841,-100.972 234.614,-97.726 242.297,-95.1358"/>
<polygon fill="midnightblue" stroke="midnightblue" points="152.485,-161.376 148.872,-171.335 157.908,-165.802 152.485,-161.376"/>
</g>
<!-- Node10 -->
<g id="node11" class="node"><title>Node10</title>
<g id="a_node11"><a xlink:href="class_item_event_args.html" target="_top" xlink:title="GameEventArgs class to pass an Item with an event ">
<polygon fill="none" stroke="black" points="243.5,-38.5 243.5,-57.5 323.5,-57.5 323.5,-38.5 243.5,-38.5"/>
<text text-anchor="middle" x="283.5" y="-45.5" font-family="Helvetica,sans-Serif" font-size="10.00">ItemEventArgs</text>
</a>
</g>
</g>
<!-- Node1&#45;&gt;Node10 -->
<g id="edge10" class="edge"><title>Node1&#45;&gt;Node10</title>
<path fill="none" stroke="midnightblue" d="M149.573,-162.159C161.378,-136.821 185.734,-92.0596 220,-67 226.866,-61.979 235.073,-58.2692 243.246,-55.5332"/>
<polygon fill="midnightblue" stroke="midnightblue" points="146.316,-160.867 145.415,-171.423 152.702,-163.733 146.316,-160.867"/>
</g>
<!-- Node11 -->
<g id="node12" class="node"><title>Node11</title>
<g id="a_node12"><a xlink:href="class_scene_changed_event_args.html" target="_top" xlink:title="GameEventArgs class to pass information about the change of scene ">
<polygon fill="none" stroke="black" points="220,-0.5 220,-19.5 347,-19.5 347,-0.5 220,-0.5"/>
<text text-anchor="middle" x="283.5" y="-7.5" font-family="Helvetica,sans-Serif" font-size="10.00">SceneChangedEventArgs</text>
</a>
</g>
</g>
<!-- Node1&#45;&gt;Node11 -->
<g id="edge11" class="edge"><title>Node1&#45;&gt;Node11</title>
<path fill="none" stroke="midnightblue" d="M146.369,-161.085C155.334,-128.62 177.542,-64.3715 220,-29 224.618,-25.1527 230.003,-22.084 235.639,-19.6365"/>
<polygon fill="midnightblue" stroke="midnightblue" points="142.882,-160.583 143.738,-171.143 149.655,-162.354 142.882,-160.583"/>
</g>
</g>
</svg>
