<?xml version="1.0" encoding="UTF-8" standalone="no"?>
<!DOCTYPE svg PUBLIC "-//W3C//DTD SVG 1.1//EN"
 "http://www.w3.org/Graphics/SVG/1.1/DTD/svg11.dtd">
<!-- Generated by graphviz version 2.38.0 (20140413.2041)
 -->
<!-- Title: Graphical Class Hierarchy Pages: 1 -->
<svg width="248pt" height="1396pt"
 viewBox="0.00 0.00 248.00 1396.00" xmlns="http://www.w3.org/2000/svg" xmlns:xlink="http://www.w3.org/1999/xlink">
<g id="graph0" class="graph" transform="scale(1 1) rotate(0) translate(4 1392)">
<title>Graphical Class Hierarchy</title>
<!-- Node0 -->
<g id="node1" class="node"><title>Node0</title>
<g id="a_node1"><a xlink:href="class_mono_behaviour.html" target="_top" xlink:title="MonoBehaviour">
<polygon fill="none" stroke="black" points="0,-684.5 0,-703.5 83,-703.5 83,-684.5 0,-684.5"/>
<text text-anchor="middle" x="41.5" y="-691.5" font-family="Helvetica,sans-Serif" font-size="10.00">MonoBehaviour</text>
</a>
</g>
</g>
<!-- Node1 -->
<g id="node2" class="node"><title>Node1</title>
<g id="a_node2"><a xlink:href="class_battle_buttons.html" target="_top" xlink:title="Script to handle the function of the Attack Button in the Battle Scene">
<polygon fill="none" stroke="black" points="141.5,-1368.5 141.5,-1387.5 217.5,-1387.5 217.5,-1368.5 141.5,-1368.5"/>
<text text-anchor="middle" x="179.5" y="-1375.5" font-family="Helvetica,sans-Serif" font-size="10.00">BattleButtons</text>
</a>
</g>
</g>
<!-- Node0&#45;&gt;Node1 -->
<g id="edge1" class="edge"><title>Node0&#45;&gt;Node1</title>
<path fill="none" stroke="midnightblue" d="M43.5037,-713.685C49.0102,-818.452 76.8506,-1307.73 119,-1359 124.647,-1365.87 132.781,-1370.29 141.23,-1373.12"/>
<polygon fill="midnightblue" stroke="midnightblue" points="46.9923,-713.372 42.979,-703.567 40.0017,-713.734 46.9923,-713.372"/>
</g>
<!-- Node2 -->
<g id="node3" class="node"><title>Node2</title>
<g id="a_node3"><a xlink:href="class_battle_descriptor.html" target="_top" xlink:title="A component that be added to an object to describe the parameters of a battle from within the Unity E...">
<polygon fill="none" stroke="black" points="136.5,-1330.5 136.5,-1349.5 222.5,-1349.5 222.5,-1330.5 136.5,-1330.5"/>
<text text-anchor="middle" x="179.5" y="-1337.5" font-family="Helvetica,sans-Serif" font-size="10.00">BattleDescriptor</text>
</a>
</g>
</g>
<!-- Node0&#45;&gt;Node2 -->
<g id="edge2" class="edge"><title>Node0&#45;&gt;Node2</title>
<path fill="none" stroke="midnightblue" d="M42.1509,-713.791C40.8578,-809.712 39.9486,-1225.52 119,-1321 123.564,-1326.51 129.73,-1330.45 136.368,-1333.25"/>
<polygon fill="midnightblue" stroke="midnightblue" points="45.6548,-713.557 42.3089,-703.505 38.6556,-713.45 45.6548,-713.557"/>
</g>
<!-- Node3 -->
<g id="node4" class="node"><title>Node3</title>
<g id="a_node4"><a xlink:href="class_camera_controller.html" target="_top" xlink:title="Script to move the camera around so that it follows the player">
<polygon fill="none" stroke="black" points="133.5,-1292.5 133.5,-1311.5 225.5,-1311.5 225.5,-1292.5 133.5,-1292.5"/>
<text text-anchor="middle" x="179.5" y="-1299.5" font-family="Helvetica,sans-Serif" font-size="10.00">CameraController</text>
</a>
</g>
</g>
<!-- Node0&#45;&gt;Node3 -->
<g id="edge3" class="edge"><title>Node0&#45;&gt;Node3</title>
<path fill="none" stroke="midnightblue" d="M42.3233,-714.047C41.9076,-806.848 44.7126,-1193.98 119,-1283 122.891,-1287.66 127.926,-1291.19 133.42,-1293.87"/>
<polygon fill="midnightblue" stroke="midnightblue" points="45.8247,-713.824 42.389,-703.801 38.8248,-713.779 45.8247,-713.824"/>
</g>
<!-- Node4 -->
<g id="node5" class="node"><title>Node4</title>
<g id="a_node5"><a xlink:href="class_canvas_script.html" target="_top" xlink:title="Added to a canvas holding the dialogue elements to ensure it&#39;s not destroyed when a new scene is crea...">
<polygon fill="none" stroke="black" points="142.5,-1254.5 142.5,-1273.5 216.5,-1273.5 216.5,-1254.5 142.5,-1254.5"/>
<text text-anchor="middle" x="179.5" y="-1261.5" font-family="Helvetica,sans-Serif" font-size="10.00">CanvasScript</text>
</a>
</g>
</g>
<!-- Node0&#45;&gt;Node4 -->
<g id="edge4" class="edge"><title>Node0&#45;&gt;Node4</title>
<path fill="none" stroke="midnightblue" d="M42.5217,-713.862C43.0156,-802.631 49.3483,-1162.28 119,-1245 124.937,-1252.05 133.491,-1256.51 142.269,-1259.33"/>
<polygon fill="midnightblue" stroke="midnightblue" points="46.0209,-713.581 42.4853,-703.593 39.0209,-713.606 46.0209,-713.581"/>
</g>
<!-- Node5 -->
<g id="node6" class="node"><title>Node5</title>
<g id="a_node6"><a xlink:href="class_collsion.html" target="_top" xlink:title="Class that detects when a bullet hits an enemy, then increments the score ">
<polygon fill="none" stroke="black" points="154,-1216.5 154,-1235.5 205,-1235.5 205,-1216.5 154,-1216.5"/>
<text text-anchor="middle" x="179.5" y="-1223.5" font-family="Helvetica,sans-Serif" font-size="10.00">Collsion</text>
</a>
</g>
</g>
<!-- Node0&#45;&gt;Node5 -->
<g id="edge5" class="edge"><title>Node0&#45;&gt;Node5</title>
<path fill="none" stroke="midnightblue" d="M42.7475,-713.836C44.2007,-798.73 54.0155,-1130.61 119,-1207 127.572,-1217.08 141.487,-1221.86 153.705,-1224.12"/>
<polygon fill="midnightblue" stroke="midnightblue" points="46.2458,-713.69 42.5956,-703.744 39.2466,-713.795 46.2458,-713.69"/>
</g>
<!-- Node6 -->
<g id="node7" class="node"><title>Node6</title>
<g id="a_node7"><a xlink:href="class_container_data.html" target="_top" xlink:title="An attribute to store information for a container in the item menu ">
<polygon fill="none" stroke="black" points="140.5,-1178.5 140.5,-1197.5 218.5,-1197.5 218.5,-1178.5 140.5,-1178.5"/>
<text text-anchor="middle" x="179.5" y="-1185.5" font-family="Helvetica,sans-Serif" font-size="10.00">ContainerData</text>
</a>
</g>
</g>
<!-- Node0&#45;&gt;Node6 -->
<g id="edge6" class="edge"><title>Node0&#45;&gt;Node6</title>
<path fill="none" stroke="midnightblue" d="M43.0182,-714.147C45.5089,-795.533 58.7543,-1099.01 119,-1169 124.518,-1175.41 132.197,-1179.68 140.208,-1182.51"/>
<polygon fill="midnightblue" stroke="midnightblue" points="46.507,-713.702 42.7244,-703.805 39.5098,-713.901 46.507,-713.702"/>
</g>
<!-- Node7 -->
<g id="node8" class="node"><title>Node7</title>
<g id="a_node8"><a xlink:href="class_dialogue_script.html" target="_top" xlink:title="Script to show dialogue, as well as step through multiple lines and close afterwards ...">
<polygon fill="none" stroke="black" points="139.5,-1140.5 139.5,-1159.5 219.5,-1159.5 219.5,-1140.5 139.5,-1140.5"/>
<text text-anchor="middle" x="179.5" y="-1147.5" font-family="Helvetica,sans-Serif" font-size="10.00">DialogueScript</text>
</a>
</g>
</g>
<!-- Node0&#45;&gt;Node7 -->
<g id="edge7" class="edge"><title>Node0&#45;&gt;Node7</title>
<path fill="none" stroke="midnightblue" d="M43.3216,-714.001C46.8772,-791.013 63.3643,-1067.25 119,-1131 124.347,-1137.13 131.668,-1141.3 139.348,-1144.13"/>
<polygon fill="midnightblue" stroke="midnightblue" points="46.8079,-713.608 42.8727,-703.771 39.8146,-713.915 46.8079,-713.608"/>
</g>
<!-- Node8 -->
<g id="node9" class="node"><title>Node8</title>
<g id="a_node9"><a xlink:href="class_end_game_handler.html" target="_top" xlink:title="Handles the menu at the end of the minigame ">
<polygon fill="none" stroke="black" points="133,-1102.5 133,-1121.5 226,-1121.5 226,-1102.5 133,-1102.5"/>
<text text-anchor="middle" x="179.5" y="-1109.5" font-family="Helvetica,sans-Serif" font-size="10.00">EndGameHandler</text>
</a>
</g>
</g>
<!-- Node0&#45;&gt;Node8 -->
<g id="edge8" class="edge"><title>Node0&#45;&gt;Node8</title>
<path fill="none" stroke="midnightblue" d="M43.6636,-713.644C48.3228,-785.855 67.9103,-1035.4 119,-1093 122.814,-1097.3 127.598,-1100.63 132.789,-1103.22"/>
<polygon fill="midnightblue" stroke="midnightblue" points="47.1551,-713.397 43.0415,-703.633 40.1686,-713.831 47.1551,-713.397"/>
</g>
<!-- Node9 -->
<g id="node10" class="node"><title>Node9</title>
<g id="a_node10"><a xlink:href="class_enemy_a_i.html" target="_top" xlink:title="Class that make enemies target the main player, and move towards it ">
<polygon fill="none" stroke="black" points="151.5,-1064.5 151.5,-1083.5 207.5,-1083.5 207.5,-1064.5 151.5,-1064.5"/>
<text text-anchor="middle" x="179.5" y="-1071.5" font-family="Helvetica,sans-Serif" font-size="10.00">EnemyAI</text>
</a>
</g>
</g>
<!-- Node0&#45;&gt;Node9 -->
<g id="edge9" class="edge"><title>Node0&#45;&gt;Node9</title>
<path fill="none" stroke="midnightblue" d="M44.1198,-713.924C50.0341,-781.955 72.5873,-1003.68 119,-1055 127.219,-1064.09 139.776,-1068.85 151.238,-1071.34"/>
<polygon fill="midnightblue" stroke="midnightblue" points="47.5875,-713.393 43.259,-703.723 40.6123,-713.982 47.5875,-713.393"/>
</g>
<!-- Node10 -->
<g id="node11" class="node"><title>Node10</title>
<g id="a_node11"><a xlink:href="class_exploration_menu_script.html" target="_top" xlink:title="A script to manage the exploration menu that the user can call up at anytime ">
<polygon fill="none" stroke="black" points="122,-1026.5 122,-1045.5 237,-1045.5 237,-1026.5 122,-1026.5"/>
<text text-anchor="middle" x="179.5" y="-1033.5" font-family="Helvetica,sans-Serif" font-size="10.00">ExplorationMenuScript</text>
</a>
</g>
</g>
<!-- Node0&#45;&gt;Node10 -->
<g id="edge10" class="edge"><title>Node0&#45;&gt;Node10</title>
<path fill="none" stroke="midnightblue" d="M44.6485,-713.842C51.8647,-776.996 77.1576,-971.826 119,-1017 122.611,-1020.9 127.019,-1024 131.787,-1026.47"/>
<polygon fill="midnightblue" stroke="midnightblue" points="48.0986,-713.199 43.5116,-703.648 41.1417,-713.975 48.0986,-713.199"/>
</g>
<!-- Node11 -->
<g id="node12" class="node"><title>Node11</title>
<g id="a_node12"><a xlink:href="class_game_manager.html" target="_top" xlink:title="Class that handles when the game ends and handles restarting the game after game over ...">
<polygon fill="none" stroke="black" points="139.5,-988.5 139.5,-1007.5 219.5,-1007.5 219.5,-988.5 139.5,-988.5"/>
<text text-anchor="middle" x="179.5" y="-995.5" font-family="Helvetica,sans-Serif" font-size="10.00">GameManager</text>
</a>
</g>
</g>
<!-- Node0&#45;&gt;Node11 -->
<g id="edge11" class="edge"><title>Node0&#45;&gt;Node11</title>
<path fill="none" stroke="midnightblue" d="M41.7762,-713.686C41.0089,-764.731 46.1702,-902.675 119,-979 124.54,-984.805 131.848,-988.842 139.44,-991.648"/>
<polygon fill="midnightblue" stroke="midnightblue" points="45.2758,-713.744 42.0254,-703.66 38.2779,-713.57 45.2758,-713.744"/>
</g>
<!-- Node12 -->
<g id="node13" class="node"><title>Node12</title>
<g id="a_node13"><a xlink:href="class_global_functions.html" target="_top" xlink:title="Provides functions and variables to be accessed by any game object to allow data to be passed between...">
<polygon fill="none" stroke="black" points="136,-950.5 136,-969.5 223,-969.5 223,-950.5 136,-950.5"/>
<text text-anchor="middle" x="179.5" y="-957.5" font-family="Helvetica,sans-Serif" font-size="10.00">GlobalFunctions</text>
</a>
</g>
</g>
<!-- Node0&#45;&gt;Node12 -->
<g id="edge12" class="edge"><title>Node0&#45;&gt;Node12</title>
<path fill="none" stroke="midnightblue" d="M42.7566,-713.813C44.4487,-760.17 55.1945,-876.634 119,-941 123.733,-945.775 129.664,-949.351 135.934,-952.03"/>
<polygon fill="midnightblue" stroke="midnightblue" points="46.2503,-713.519 42.4947,-703.612 39.2526,-713.699 46.2503,-713.519"/>
</g>
<!-- Node13 -->
<g id="node14" class="node"><title>Node13</title>
<g id="a_node14"><a xlink:href="class_healing_station.html" target="_top" xlink:title="A script describing a healing station, where all player&#39;s health and magic are restored ...">
<polygon fill="none" stroke="black" points="139.5,-912.5 139.5,-931.5 219.5,-931.5 219.5,-912.5 139.5,-912.5"/>
<text text-anchor="middle" x="179.5" y="-919.5" font-family="Helvetica,sans-Serif" font-size="10.00">HealingStation</text>
</a>
</g>
</g>
<!-- Node0&#45;&gt;Node13 -->
<g id="edge13" class="edge"><title>Node0&#45;&gt;Node13</title>
<path fill="none" stroke="midnightblue" d="M44.0946,-714.091C48.452,-755.41 64.1959,-850.44 119,-903 124.635,-908.404 131.807,-912.271 139.205,-915.039"/>
<polygon fill="midnightblue" stroke="midnightblue" points="47.5613,-713.571 43.1445,-703.941 40.5918,-714.223 47.5613,-713.571"/>
</g>
<!-- Node14 -->
<g id="node15" class="node"><title>Node14</title>
<g id="a_node15"><a xlink:href="class_item_purchase.html" target="_top" xlink:title="Script to handle item purchases for town mode ">
<polygon fill="none" stroke="black" points="141,-874.5 141,-893.5 218,-893.5 218,-874.5 141,-874.5"/>
<text text-anchor="middle" x="179.5" y="-881.5" font-family="Helvetica,sans-Serif" font-size="10.00">ItemPurchase</text>
</a>
</g>
</g>
<!-- Node0&#45;&gt;Node14 -->
<g id="edge14" class="edge"><title>Node0&#45;&gt;Node14</title>
<path fill="none" stroke="midnightblue" d="M45.9029,-713.803C53.0272,-749.259 72.8415,-823.724 119,-865 125.143,-870.493 132.883,-874.4 140.73,-877.177"/>
<polygon fill="midnightblue" stroke="midnightblue" points="49.3017,-712.937 44.0185,-703.753 42.4216,-714.227 49.3017,-712.937"/>
</g>
<!-- Node15 -->
<g id="node16" class="node"><title>Node15</title>
<g id="a_node16"><a xlink:href="class_items_menu_script.html" target="_top" xlink:title="Controls all initialisation of menu and updates arrays when an item is moved ">
<polygon fill="none" stroke="black" points="134.5,-836.5 134.5,-855.5 224.5,-855.5 224.5,-836.5 134.5,-836.5"/>
<text text-anchor="middle" x="179.5" y="-843.5" font-family="Helvetica,sans-Serif" font-size="10.00">ItemsMenuScript</text>
</a>
</g>
</g>
<!-- Node0&#45;&gt;Node15 -->
<g id="edge15" class="edge"><title>Node0&#45;&gt;Node15</title>
<path fill="none" stroke="midnightblue" d="M48.5602,-713.389C58.5783,-742.31 81.3176,-796.593 119,-827 123.81,-830.882 129.428,-833.976 135.256,-836.443"/>
<polygon fill="midnightblue" stroke="midnightblue" points="51.802,-712.045 45.3389,-703.649 45.1561,-714.243 51.802,-712.045"/>
</g>
<!-- Node16 -->
<g id="node17" class="node"><title>Node16</title>
<g id="a_node17"><a xlink:href="class_level_manager.html" target="_top" xlink:title="A script used to check and handle when a level is beat by defeating the final boss ...">
<polygon fill="none" stroke="black" points="141.5,-798.5 141.5,-817.5 217.5,-817.5 217.5,-798.5 141.5,-798.5"/>
<text text-anchor="middle" x="179.5" y="-805.5" font-family="Helvetica,sans-Serif" font-size="10.00">LevelManager</text>
</a>
</g>
</g>
<!-- Node0&#45;&gt;Node16 -->
<g id="edge16" class="edge"><title>Node0&#45;&gt;Node16</title>
<path fill="none" stroke="midnightblue" d="M52.7505,-712.408C65.57,-733.803 89.4656,-768.752 119,-789 125.708,-793.599 133.592,-797.134 141.388,-799.833"/>
<polygon fill="midnightblue" stroke="midnightblue" points="55.7054,-710.527 47.6594,-703.634 49.6508,-714.04 55.7054,-710.527"/>
</g>
<!-- Node17 -->
<g id="node18" class="node"><title>Node17</title>
<g id="a_node18"><a xlink:href="class_main_battle.html" target="_top" xlink:title="Script for handing a battle scene. Uses BattleManager, but handles turn order and execution as well a...">
<polygon fill="none" stroke="black" points="148,-760.5 148,-779.5 211,-779.5 211,-760.5 148,-760.5"/>
<text text-anchor="middle" x="179.5" y="-767.5" font-family="Helvetica,sans-Serif" font-size="10.00">MainBattle</text>
</a>
</g>
</g>
<!-- Node0&#45;&gt;Node17 -->
<g id="edge17" class="edge"><title>Node0&#45;&gt;Node17</title>
<path fill="none" stroke="midnightblue" d="M60.9888,-710.547C75.7987,-723.089 97.5732,-739.988 119,-751 127.97,-755.61 138.275,-759.378 147.761,-762.307"/>
<polygon fill="midnightblue" stroke="midnightblue" points="62.9805,-707.642 53.129,-703.743 58.3992,-712.935 62.9805,-707.642"/>
</g>
<!-- Node18 -->
<g id="node19" class="node"><title>Node18</title>
<g id="a_node19"><a xlink:href="class_menu_script.html" target="_top" xlink:title="Script to handle the main menu ">
<polygon fill="none" stroke="black" points="146.5,-722.5 146.5,-741.5 212.5,-741.5 212.5,-722.5 146.5,-722.5"/>
<text text-anchor="middle" x="179.5" y="-729.5" font-family="Helvetica,sans-Serif" font-size="10.00">MenuScript</text>
</a>
</g>
</g>
<!-- Node0&#45;&gt;Node18 -->
<g id="edge18" class="edge"><title>Node0&#45;&gt;Node18</title>
<path fill="none" stroke="midnightblue" d="M86.6281,-706.33C105.977,-711.736 128.28,-717.968 146.065,-722.937"/>
<polygon fill="midnightblue" stroke="midnightblue" points="87.3915,-702.909 76.8185,-703.589 85.5078,-709.651 87.3915,-702.909"/>
</g>
<!-- Node19 -->
<g id="node20" class="node"><title>Node19</title>
<g id="a_node20"><a xlink:href="class_money_update.html" target="_top" xlink:title="Simply updates money shown in town mode ">
<polygon fill="none" stroke="black" points="141,-684.5 141,-703.5 218,-703.5 218,-684.5 141,-684.5"/>
<text text-anchor="middle" x="179.5" y="-691.5" font-family="Helvetica,sans-Serif" font-size="10.00">MoneyUpdate</text>
</a>
</g>
</g>
<!-- Node0&#45;&gt;Node19 -->
<g id="edge19" class="edge"><title>Node0&#45;&gt;Node19</title>
<path fill="none" stroke="midnightblue" d="M93.4401,-694C109.21,-694 126.288,-694 140.975,-694"/>
<polygon fill="midnightblue" stroke="midnightblue" points="93.3045,-690.5 83.3045,-694 93.3044,-697.5 93.3045,-690.5"/>
</g>
<!-- Node20 -->
<g id="node21" class="node"><title>Node20</title>
<g id="a_node21"><a xlink:href="class_object_interaction.html" target="_top" xlink:title="A component to add to collider relating to an object that can interact with the player by pressing th...">
<polygon fill="none" stroke="black" points="134.5,-646.5 134.5,-665.5 224.5,-665.5 224.5,-646.5 134.5,-646.5"/>
<text text-anchor="middle" x="179.5" y="-653.5" font-family="Helvetica,sans-Serif" font-size="10.00">ObjectInteraction</text>
</a>
</g>
</g>
<!-- Node0&#45;&gt;Node20 -->
<g id="edge20" class="edge"><title>Node0&#45;&gt;Node20</title>
<path fill="none" stroke="midnightblue" d="M86.5866,-681.682C105.272,-676.461 126.718,-670.468 144.192,-665.586"/>
<polygon fill="midnightblue" stroke="midnightblue" points="85.5078,-678.349 76.8185,-684.411 87.3915,-685.091 85.5078,-678.349"/>
</g>
<!-- Node21 -->
<g id="node22" class="node"><title>Node21</title>
<g id="a_node22"><a xlink:href="class_player_collison.html" target="_top" xlink:title="Script that handles collision between main player and enemies ">
<polygon fill="none" stroke="black" points="140,-608.5 140,-627.5 219,-627.5 219,-608.5 140,-608.5"/>
<text text-anchor="middle" x="179.5" y="-615.5" font-family="Helvetica,sans-Serif" font-size="10.00">PlayerCollison</text>
</a>
</g>
</g>
<!-- Node0&#45;&gt;Node21 -->
<g id="edge21" class="edge"><title>Node0&#45;&gt;Node21</title>
<path fill="none" stroke="midnightblue" d="M60.9888,-677.453C75.7987,-664.911 97.5732,-648.012 119,-637 126.137,-633.332 134.12,-630.197 141.863,-627.593"/>
<polygon fill="midnightblue" stroke="midnightblue" points="58.3992,-675.065 53.129,-684.257 62.9805,-680.358 58.3992,-675.065"/>
</g>
<!-- Node22 -->
<g id="node23" class="node"><title>Node22</title>
<g id="a_node23"><a xlink:href="class_player_controller.html" target="_top" xlink:title="A controller for player movement of main player within the mini game ">
<polygon fill="none" stroke="black" points="136.5,-570.5 136.5,-589.5 222.5,-589.5 222.5,-570.5 136.5,-570.5"/>
<text text-anchor="middle" x="179.5" y="-577.5" font-family="Helvetica,sans-Serif" font-size="10.00">PlayerController</text>
</a>
</g>
</g>
<!-- Node0&#45;&gt;Node22 -->
<g id="edge22" class="edge"><title>Node0&#45;&gt;Node22</title>
<path fill="none" stroke="midnightblue" d="M52.7505,-675.592C65.57,-654.197 89.4656,-619.248 119,-599 124.635,-595.137 131.099,-592.025 137.644,-589.528"/>
<polygon fill="midnightblue" stroke="midnightblue" points="49.6508,-673.96 47.6594,-684.366 55.7054,-677.473 49.6508,-673.96"/>
</g>
<!-- Node23 -->
<g id="node24" class="node"><title>Node23</title>
<g id="a_node24"><a xlink:href="class_player_data.html" target="_top" xlink:title="A monobehaviour object to house an instance of DataManager so it can be called by other objects ...">
<polygon fill="none" stroke="black" points="147,-532.5 147,-551.5 212,-551.5 212,-532.5 147,-532.5"/>
<text text-anchor="middle" x="179.5" y="-539.5" font-family="Helvetica,sans-Serif" font-size="10.00">PlayerData</text>
</a>
</g>
</g>
<!-- Node0&#45;&gt;Node23 -->
<g id="edge23" class="edge"><title>Node0&#45;&gt;Node23</title>
<path fill="none" stroke="midnightblue" d="M48.5602,-674.611C58.5783,-645.69 81.3176,-591.407 119,-561 126.933,-554.599 137.062,-550.337 146.705,-547.506"/>
<polygon fill="midnightblue" stroke="midnightblue" points="45.1561,-673.757 45.3389,-684.351 51.802,-675.955 45.1561,-673.757"/>
</g>
<!-- Node24 -->
<g id="node25" class="node"><title>Node24</title>
<g id="a_node25"><a xlink:href="class_player_menu.html" target="_top" xlink:title="Script for controlling the menu which allows users to switch the order of their team members ...">
<polygon fill="none" stroke="black" points="145.5,-494.5 145.5,-513.5 213.5,-513.5 213.5,-494.5 145.5,-494.5"/>
<text text-anchor="middle" x="179.5" y="-501.5" font-family="Helvetica,sans-Serif" font-size="10.00">PlayerMenu</text>
</a>
</g>
</g>
<!-- Node0&#45;&gt;Node24 -->
<g id="edge24" class="edge"><title>Node0&#45;&gt;Node24</title>
<path fill="none" stroke="midnightblue" d="M45.9029,-674.197C53.0272,-638.741 72.8415,-564.276 119,-523 126.356,-516.422 136,-512.12 145.377,-509.307"/>
<polygon fill="midnightblue" stroke="midnightblue" points="42.4216,-673.773 44.0185,-684.247 49.3017,-675.063 42.4216,-673.773"/>
</g>
<!-- Node25 -->
<g id="node26" class="node"><title>Node25</title>
<g id="a_node26"><a xlink:href="class_player_movement.html" target="_top" xlink:title="A script to control the movement and animations of the player">
<polygon fill="none" stroke="black" points="135,-456.5 135,-475.5 224,-475.5 224,-456.5 135,-456.5"/>
<text text-anchor="middle" x="179.5" y="-463.5" font-family="Helvetica,sans-Serif" font-size="10.00">PlayerMovement</text>
</a>
</g>
</g>
<!-- Node0&#45;&gt;Node25 -->
<g id="edge25" class="edge"><title>Node0&#45;&gt;Node25</title>
<path fill="none" stroke="midnightblue" d="M44.0946,-673.909C48.452,-632.59 64.1959,-537.56 119,-485 123.539,-480.647 129.076,-477.291 134.925,-474.703"/>
<polygon fill="midnightblue" stroke="midnightblue" points="40.5918,-673.777 43.1445,-684.059 47.5613,-674.429 40.5918,-673.777"/>
</g>
<!-- Node26 -->
<g id="node27" class="node"><title>Node26</title>
<g id="a_node27"><a xlink:href="class_portal.html" target="_top" xlink:title="A component to add to an object, such as when the player touches it they are teleported to a new scen...">
<polygon fill="none" stroke="black" points="158.5,-418.5 158.5,-437.5 200.5,-437.5 200.5,-418.5 158.5,-418.5"/>
<text text-anchor="middle" x="179.5" y="-425.5" font-family="Helvetica,sans-Serif" font-size="10.00">Portal</text>
</a>
</g>
</g>
<!-- Node0&#45;&gt;Node26 -->
<g id="edge26" class="edge"><title>Node0&#45;&gt;Node26</title>
<path fill="none" stroke="midnightblue" d="M42.7566,-674.187C44.4487,-627.83 55.1945,-511.366 119,-447 129.382,-436.526 145.526,-431.819 158.379,-429.707"/>
<polygon fill="midnightblue" stroke="midnightblue" points="39.2526,-674.301 42.4947,-684.388 46.2503,-674.481 39.2526,-674.301"/>
</g>
<!-- Node27 -->
<g id="node28" class="node"><title>Node27</title>
<g id="a_node28"><a xlink:href="class_quest_create_menu_script.html" target="_top" xlink:title="Script to manage the quest creation screen ">
<polygon fill="none" stroke="black" points="119,-380.5 119,-399.5 240,-399.5 240,-380.5 119,-380.5"/>
<text text-anchor="middle" x="179.5" y="-387.5" font-family="Helvetica,sans-Serif" font-size="10.00">QuestCreateMenuScript</text>
</a>
</g>
</g>
<!-- Node0&#45;&gt;Node27 -->
<g id="edge27" class="edge"><title>Node0&#45;&gt;Node27</title>
<path fill="none" stroke="midnightblue" d="M41.7762,-674.314C41.0089,-623.269 46.1702,-485.325 119,-409 122.668,-405.156 127.112,-402.087 131.9,-399.638"/>
<polygon fill="midnightblue" stroke="midnightblue" points="38.2779,-674.43 42.0254,-684.34 45.2758,-674.256 38.2779,-674.43"/>
</g>
<!-- Node28 -->
<g id="node29" class="node"><title>Node28</title>
<g id="a_node29"><a xlink:href="class_quest_script.html" target="_top" xlink:title="A script to manage the quest viewing screen available in&#45;game ">
<polygon fill="none" stroke="black" points="145.5,-342.5 145.5,-361.5 213.5,-361.5 213.5,-342.5 145.5,-342.5"/>
<text text-anchor="middle" x="179.5" y="-349.5" font-family="Helvetica,sans-Serif" font-size="10.00">QuestScript</text>
</a>
</g>
</g>
<!-- Node0&#45;&gt;Node28 -->
<g id="edge28" class="edge"><title>Node0&#45;&gt;Node28</title>
<path fill="none" stroke="midnightblue" d="M44.6485,-674.158C51.8647,-611.004 77.1576,-416.174 119,-371 125.927,-363.522 135.789,-358.974 145.497,-356.212"/>
<polygon fill="midnightblue" stroke="midnightblue" points="41.1417,-674.025 43.5116,-684.352 48.0986,-674.801 41.1417,-674.025"/>
</g>
<!-- Node29 -->
<g id="node30" class="node"><title>Node29</title>
<g id="a_node30"><a xlink:href="class_scene_changer.html" target="_top" xlink:title="A set of functions to be called to change scenes smoothly whilst handling the player&#39;s location and a...">
<polygon fill="none" stroke="black" points="139.5,-304.5 139.5,-323.5 219.5,-323.5 219.5,-304.5 139.5,-304.5"/>
<text text-anchor="middle" x="179.5" y="-311.5" font-family="Helvetica,sans-Serif" font-size="10.00">SceneChanger</text>
</a>
</g>
</g>
<!-- Node0&#45;&gt;Node29 -->
<g id="edge29" class="edge"><title>Node0&#45;&gt;Node29</title>
<path fill="none" stroke="midnightblue" d="M44.1198,-674.076C50.0341,-606.045 72.5873,-384.316 119,-333 124.383,-327.049 131.625,-322.95 139.202,-320.131"/>
<polygon fill="midnightblue" stroke="midnightblue" points="40.6123,-674.018 43.259,-684.277 47.5875,-674.607 40.6123,-674.018"/>
</g>
<!-- Node30 -->
<g id="node31" class="node"><title>Node30</title>
<g id="a_node31"><a xlink:href="class_score_script.html" target="_top" xlink:title="Script that handles displaying the correct score in the mingame ">
<polygon fill="none" stroke="black" points="145.5,-266.5 145.5,-285.5 213.5,-285.5 213.5,-266.5 145.5,-266.5"/>
<text text-anchor="middle" x="179.5" y="-273.5" font-family="Helvetica,sans-Serif" font-size="10.00">ScoreScript</text>
</a>
</g>
</g>
<!-- Node0&#45;&gt;Node30 -->
<g id="edge30" class="edge"><title>Node0&#45;&gt;Node30</title>
<path fill="none" stroke="midnightblue" d="M43.6636,-674.356C48.3228,-602.145 67.9103,-352.601 119,-295 125.764,-287.374 135.583,-282.787 145.301,-280.035"/>
<polygon fill="midnightblue" stroke="midnightblue" points="40.1686,-674.169 43.0415,-684.367 47.1551,-674.603 40.1686,-674.169"/>
</g>
<!-- Node31 -->
<g id="node32" class="node"><title>Node31</title>
<g id="a_node32"><a xlink:href="class_sound_manager.html" target="_top" xlink:title="A script to manage all background music and sound effects in the game ">
<polygon fill="none" stroke="black" points="138.5,-228.5 138.5,-247.5 220.5,-247.5 220.5,-228.5 138.5,-228.5"/>
<text text-anchor="middle" x="179.5" y="-235.5" font-family="Helvetica,sans-Serif" font-size="10.00">SoundManager</text>
</a>
</g>
</g>
<!-- Node0&#45;&gt;Node31 -->
<g id="edge31" class="edge"><title>Node0&#45;&gt;Node31</title>
<path fill="none" stroke="midnightblue" d="M43.3216,-673.999C46.8772,-596.987 63.3643,-320.754 119,-257 124.133,-251.117 131.086,-247.041 138.428,-244.22"/>
<polygon fill="midnightblue" stroke="midnightblue" points="39.8146,-674.085 42.8727,-684.229 46.8079,-674.392 39.8146,-674.085"/>
</g>
<!-- Node32 -->
<g id="node33" class="node"><title>Node32</title>
<g id="a_node33"><a xlink:href="class_stats_script.html" target="_top" xlink:title="A script used to manage and update all of the stat displays in the battle scene ">
<polygon fill="none" stroke="black" points="147,-190.5 147,-209.5 212,-209.5 212,-190.5 147,-190.5"/>
<text text-anchor="middle" x="179.5" y="-197.5" font-family="Helvetica,sans-Serif" font-size="10.00">StatsScript</text>
</a>
</g>
</g>
<!-- Node0&#45;&gt;Node32 -->
<g id="edge32" class="edge"><title>Node0&#45;&gt;Node32</title>
<path fill="none" stroke="midnightblue" d="M43.0182,-673.853C45.5089,-592.467 58.7543,-288.993 119,-219 126.003,-210.864 136.488,-206.179 146.715,-203.493"/>
<polygon fill="midnightblue" stroke="midnightblue" points="39.5098,-674.099 42.7244,-684.195 46.507,-674.298 39.5098,-674.099"/>
</g>
<!-- Node33 -->
<g id="node34" class="node"><title>Node33</title>
<g id="a_node34"><a xlink:href="class_switch_players_script.html" target="_top" xlink:title="Script to handle the menu allowing users to switch players in and out of battle ">
<polygon fill="none" stroke="black" points="127.5,-152.5 127.5,-171.5 231.5,-171.5 231.5,-152.5 127.5,-152.5"/>
<text text-anchor="middle" x="179.5" y="-159.5" font-family="Helvetica,sans-Serif" font-size="10.00">SwitchPlayersScript</text>
</a>
</g>
</g>
<!-- Node0&#45;&gt;Node33 -->
<g id="edge33" class="edge"><title>Node0&#45;&gt;Node33</title>
<path fill="none" stroke="midnightblue" d="M42.7475,-674.164C44.2007,-589.27 54.0155,-257.394 119,-181 122.302,-177.118 126.397,-174.021 130.883,-171.552"/>
<polygon fill="midnightblue" stroke="midnightblue" points="39.2466,-674.205 42.5956,-684.256 46.2458,-674.31 39.2466,-674.205"/>
</g>
<!-- Node34 -->
<g id="node35" class="node"><title>Node34</title>
<g id="a_node35"><a xlink:href="classto_mouse.html" target="_top" xlink:title="Monitors mouse location and initiates a bullet when clicked ">
<polygon fill="none" stroke="black" points="152.5,-114.5 152.5,-133.5 206.5,-133.5 206.5,-114.5 152.5,-114.5"/>
<text text-anchor="middle" x="179.5" y="-121.5" font-family="Helvetica,sans-Serif" font-size="10.00">toMouse</text>
</a>
</g>
</g>
<!-- Node0&#45;&gt;Node34 -->
<g id="edge34" class="edge"><title>Node0&#45;&gt;Node34</title>
<path fill="none" stroke="midnightblue" d="M42.5217,-674.138C43.0156,-585.369 49.3483,-225.722 119,-143 127.242,-133.212 140.527,-128.41 152.455,-126.078"/>
<polygon fill="midnightblue" stroke="midnightblue" points="39.0209,-674.394 42.4853,-684.407 46.0209,-674.419 39.0209,-674.394"/>
</g>
<!-- Node35 -->
<g id="node36" class="node"><title>Node35</title>
<g id="a_node36"><a xlink:href="class_town_handler.html" target="_top" xlink:title="Simple to exit back out of town mode ">
<polygon fill="none" stroke="black" points="143.5,-76.5 143.5,-95.5 215.5,-95.5 215.5,-76.5 143.5,-76.5"/>
<text text-anchor="middle" x="179.5" y="-83.5" font-family="Helvetica,sans-Serif" font-size="10.00">TownHandler</text>
</a>
</g>
</g>
<!-- Node0&#45;&gt;Node35 -->
<g id="edge35" class="edge"><title>Node0&#45;&gt;Node35</title>
<path fill="none" stroke="midnightblue" d="M42.3233,-673.953C41.9076,-581.152 44.7126,-194.02 119,-105 125.184,-97.5902 134.259,-93.0361 143.468,-90.2477"/>
<polygon fill="midnightblue" stroke="midnightblue" points="38.8248,-674.221 42.389,-684.199 45.8247,-674.176 38.8248,-674.221"/>
</g>
<!-- Node36 -->
<g id="node37" class="node"><title>Node36</title>
<g id="a_node37"><a xlink:href="class_wave_spawner.html" target="_top" xlink:title="Script that spawns the waves of enemies ">
<polygon fill="none" stroke="black" points="140.5,-38.5 140.5,-57.5 218.5,-57.5 218.5,-38.5 140.5,-38.5"/>
<text text-anchor="middle" x="179.5" y="-45.5" font-family="Helvetica,sans-Serif" font-size="10.00">WaveSpawner</text>
</a>
</g>
</g>
<!-- Node0&#45;&gt;Node36 -->
<g id="edge36" class="edge"><title>Node0&#45;&gt;Node36</title>
<path fill="none" stroke="midnightblue" d="M42.1509,-674.209C40.8578,-578.288 39.9486,-162.478 119,-67 124.463,-60.4016 132.221,-56.0662 140.336,-53.2256"/>
<polygon fill="midnightblue" stroke="midnightblue" points="38.6556,-674.55 42.3089,-684.495 45.6548,-674.443 38.6556,-674.55"/>
</g>
<!-- Node37 -->
<g id="node38" class="node"><title>Node37</title>
<g id="a_node38"><a xlink:href="class_world_map_script.html" target="_top" xlink:title="A controler for the world map, stopping players from entering old or future levels, and colouring the departments approriately">
<polygon fill="none" stroke="black" points="136.5,-0.5 136.5,-19.5 222.5,-19.5 222.5,-0.5 136.5,-0.5"/>
<text text-anchor="middle" x="179.5" y="-7.5" font-family="Helvetica,sans-Serif" font-size="10.00">WorldMapScript</text>
</a>
</g>
</g>
<!-- Node0&#45;&gt;Node37 -->
<g id="edge37" class="edge"><title>Node0&#45;&gt;Node37</title>
<path fill="none" stroke="midnightblue" d="M43.5037,-674.315C49.0102,-569.548 76.8506,-80.2655 119,-29 123.545,-23.4717 129.702,-19.5311 136.336,-16.7269"/>
<polygon fill="midnightblue" stroke="midnightblue" points="40.0017,-674.266 42.979,-684.433 46.9923,-674.628 40.0017,-674.266"/>
</g>
</g>
</svg>
